<svg xmlns="http://www.w3.org/2000/svg" viewBox="0 0 20 20"><title>aws</title><polyline points="4.766 4.406 0.843 3.244 0.843 8.91 4.761 10.218 4.766 4.406" style="fill:#f68d11"/><polyline points="5.783 4.406 9.706 3.244 9.693 8.906 5.783 10.218 5.783 4.406" style="fill:#f68d11"/><polyline points="8.907 2.63 5.251 1.5 1.642 2.63 5.256 3.599 8.907 2.63" style="fill:#f68d11"/><polyline points="14.642 10.218 10.723 8.91 10.723 3.244 14.646 4.406 14.642 10.218" style="fill:#f68d11"/><polyline points="15.663 4.406 19.587 3.244 19.573 8.906 15.663 10.218 15.663 4.406" style="fill:#f68d11"/><polyline points="18.787 2.63 15.131 1.5 11.522 2.63 15.136 3.599 18.787 2.63" style="fill:#f68d11"/><polyline points="9.701 18.5 5.783 17.192 5.783 11.526 9.706 12.688 9.701 18.5" style="fill:#f68d11"/><polyline points="10.723 12.688 14.646 11.526 14.633 17.189 10.723 18.5 10.723 12.688" style="fill:#f68d11"/><polyline points="13.847 10.912 10.191 9.782 6.582 10.912 10.196 11.881 13.847 10.912" style="fill:#f68d11"/></svg>