<svg xmlns="http://www.w3.org/2000/svg" viewBox="0 0 511.0154 360"><title>bear-dollar</title><circle cx="255.5077" cy="180" r="180" style="fill:#e1f0f8"/><rect x="35.5077" y="75" width="440" height="210" rx="9" ry="9" transform="translate(-37.8812 72.2636) rotate(-15)" style="fill:#e1f0f8"/><path d="M434.4435,9.3741L15.2317,121.7015A16.5187,16.5187,0,0,0,3.5645,141.91L56.3635,338.9587a16.5187,16.5187,0,0,0,20.2083,11.6673L495.7836,238.2985A16.5187,16.5187,0,0,0,507.4509,218.09L454.6518,21.0413A16.5187,16.5187,0,0,0,434.4435,9.3741ZM492.858,215.7887a9,9,0,0,1-6.364,11.0227L360.9885,260.44a1.4963,1.4963,0,0,1-2.8323.95c-0.0233-.0578-0.049-0.1139-0.0723-0.1717L328.69,269.0949c0.0081,0.0471.0173,0.0911,0.0254,0.1383l-1.479.2512-19.5279,5.2325c0.0057,0.0277.0121,0.0565,0.018,0.0841a1.5,1.5,0,0,1-1.0791,1.7531c-0.0278.0075-.0564,0.0141-0.0851,0.02a1.4965,1.4965,0,0,1-1.7476-1.0821l-44.4562,11.912a1.4969,1.4969,0,0,1-2.8673.8573c-0.0089-.0268-0.0175-0.055-0.0265-0.0819l-17.8909,4.7938a1.4954,1.4954,0,0,1-.92,1.7928c-0.0446.0165-.09,0.0306-0.1356,0.0429a1.5,1.5,0,0,1-1.7928-.9274c-0.0166-.0448-0.0306-0.0877-0.0471-0.1325l-29.3947,7.8763c0.0087,0.0617.0148,0.123,0.0232,0.1849a1.4963,1.4963,0,0,1-2.9279.5934L78.8733,336.033a9,9,0,0,1-11.0227-6.364L18.1574,144.2113a9,9,0,0,1,6.364-11.0227L432.142,23.967a9,9,0,0,1,11.0227,6.364Z" style="fill:#fff"/><path d="M293.7577,113.749a76.5189,76.5189,0,0,0-98.6285,113.2577l0.9216,1.1831,2.3666-1.8438-0.9222-1.1835a73.5,73.5,0,1,1,130.8339-35.0568l-0.2069,1.486,2.9714,0.4135L331.3,190.52A76.4373,76.4373,0,0,0,293.7577,113.749Z" style="fill:#84c3f9"/><path d="M429.2008,86.4893c3.5946-1.4841,7.2756-2.9795,10.8442-4.05l-0.0065-.0244,1.4489-.3882A43.5494,43.5494,0,0,1,388.211,51.2674l0.3882,1.4489-0.0245.0066c0.8573,3.6258,1.4027,7.5613,1.9148,11.4162A46.6763,46.6763,0,0,0,429.2008,86.4893Z" style="fill:#84c3f9"/><path d="M463.3421,169.3848a46.1732,46.1732,0,0,0-19.0466,11.2831,87.0106,87.0106,0,0,1-5.1515,11.4574,87.0459,87.0459,0,0,1-7.3466,10.19,46.17,46.17,0,0,0-.2482,22.1363l2.861-.7666,0.3882,1.4489a43.5494,43.5494,0,0,1,30.7591-53.2764l-1.4489.3882Z" style="fill:#84c3f9"/><path d="M76.02,134.9187a43.5494,43.5494,0,0,1-30.7591,53.2764l1.4489-.3882,0.7666,2.861a46.1732,46.1732,0,0,0,19.0466-11.2831,87.0106,87.0106,0,0,1,5.1515-11.4574,87.0459,87.0459,0,0,1,7.3466-10.19,46.17,46.17,0,0,0,.2482-22.1363l-2.861.7666Z" style="fill:#84c3f9"/><rect x="103.7905" y="177.9181" width="18" height="3" transform="translate(-42.5936 35.3058) rotate(-15)" style="fill:#84c3f9"/><rect x="123.2019" y="250.3625" width="18" height="3" transform="translate(-60.6822 42.7984) rotate(-15)" style="fill:#84c3f9"/><path d="M81.6179,273.5634c-3.5948,1.4842-7.2756,2.9795-10.8442,4.05l0.0065,0.0244-1.4489.3882a43.5494,43.5494,0,0,1,53.2764,30.7591l-0.3882-1.4489,0.0245-.0066c-0.8573-3.6258-1.4027-7.5612-1.9148-11.4162A46.6763,46.6763,0,0,0,81.6179,273.5634Z" style="fill:#84c3f9"/><path d="M433.6671,6.4763L14.4553,118.8037A19.522,19.522,0,0,0,.6667,142.6863L53.4658,339.7351a19.522,19.522,0,0,0,23.8825,13.7886L496.56,241.1963a19.522,19.522,0,0,0,13.7886-23.8825L457.55,20.2649A19.522,19.522,0,0,0,433.6671,6.4763ZM507.4509,218.09a16.5187,16.5187,0,0,1-11.6673,20.2083L76.5718,350.6259a16.5187,16.5187,0,0,1-20.2083-11.6673L3.5645,141.91a16.5187,16.5187,0,0,1,11.6673-20.2083L434.4435,9.3741a16.5187,16.5187,0,0,1,20.2083,11.6673Z" style="fill:#e1f0f8"/><path d="M382.8644,158.8158l-11.5911,3.1058a21.0117,21.0117,0,0,0,24.2511,15.1641l-3.1212-11.6486A9.0074,9.0074,0,0,1,382.8644,158.8158Z" style="fill:#fffeff"/><path d="M386.1225,136.202a6.4965,6.4965,0,0,1-4.7665-11.9933l-3.1332-11.6932a18.4922,18.4922,0,0,0,11.0055,35.2776,8.9948,8.9948,0,0,1,6.0726,16.8676l3.1212,11.6486A20.9884,20.9884,0,0,0,386.1225,136.202Z" style="fill:#fffeff"/><path d="M390.7187,128.2412l11.5911-3.1058a18.5137,18.5137,0,0,0-21.1892-13.3963l3.1332,11.6932A6.5066,6.5066,0,0,1,390.7187,128.2412Z" style="fill:#fffeff"/><path d="M256.6069,162.3257c-5.4119-1.2523-11.9818,1.5742-13.5176,5.8169-1.3855,3.8244-.5144,9.5109,2.3905,15.6019a37.5987,37.5987,0,0,0,8.8838,12.12l3.0454-2.5555a1.4993,1.4993,0,0,1,1.9312.0027c2.0888,1.7621,3.3668,1.9889,3.7549,1.8449a1.3486,1.3486,0,0,0,.4953-0.9152q0.2383-1.5728.49-3.1508c0.4679-2.9663.9517-6.0339,1.27-9.0335C266.5335,171.0756,263.3464,163.8845,256.6069,162.3257Zm2.5888,8.2957a7.87,7.87,0,0,1-3.3694,5.1628l2.295,8.5649a1.5,1.5,0,1,1-2.8978.7765l-2.295-8.5649a7.8683,7.8683,0,0,1-5.4994-2.7865,2.8846,2.8846,0,0,1-.3063-3.1693c0.78-1.4021,3.15-2.3019,5-2.81,1.8755-.49,4.3787-0.8962,5.7533-0.0711A2.8856,2.8856,0,0,1,259.1957,170.6214Z" style="fill:#fffeff"/><path d="M137.972,203.7669a15.3065,15.3065,0,0,1-1.9091-3.7989c-0.6446-1.6456-1.2536-3.2-2.3163-3.8131s-2.7135-.3638-4.461-0.1a15.3027,15.3027,0,0,1-4.2445.2461,14.5921,14.5921,0,0,1-3.8932-1.3125c-1.6468-.7315-3.2025-1.4227-4.4749-1.0818s-2.2741,1.7174-3.3345,3.1743a14.5921,14.5921,0,0,1-2.7154,3.0833,15.3065,15.3065,0,0,1-3.7989,1.9091c-1.6456.6446-3.2,1.2536-3.8131,2.3163s-0.3638,2.7135-.1,4.461a15.3027,15.3027,0,0,1,.2461,4.2445,14.592,14.592,0,0,1-1.3125,3.8932c-0.7315,1.6468-1.4227,3.2025-1.0818,4.4749s1.7174,2.2741,3.1743,3.3345a14.5921,14.5921,0,0,1,3.0833,2.7154,15.317,15.317,0,0,1,1.9085,3.7986c0.6451,1.6454,1.2542,3.2,2.3169,3.8135s2.7135,0.3638,4.461.1a15.3027,15.3027,0,0,1,4.2445-.2461,14.5921,14.5921,0,0,1,3.8932,1.3125c1.6468,0.7315,3.2025,1.4227,4.4749,1.0818s2.2741-1.7174,3.3345-3.1743a14.5921,14.5921,0,0,1,2.7154-3.0833,15.3065,15.3065,0,0,1,3.7989-1.9091c1.6456-.6446,3.2-1.2536,3.8131-2.3163s0.3638-2.7135.1-4.461a15.3027,15.3027,0,0,1-.2461-4.2445,14.5921,14.5921,0,0,1,1.3125-3.8932c0.7315-1.6468,1.4227-3.2025,1.0818-4.4749s-1.7174-2.2741-3.1743-3.3345A14.5921,14.5921,0,0,1,137.972,203.7669Zm-13.1464,20.5667a9,9,0,1,1,6.364-11.0227A9.01,9.01,0,0,1,124.8256,224.3337Z" style="fill:#fffeff"/><path d="M301.2576,100.7588l-1.5,2.5978a88.4666,88.4666,0,0,1,33.97,118.0028c-12.22-11.7793-17.0491-13.9243-23.7532-16.8943-1.7069-.7558-3.4672-1.5353-5.5152-2.5511l-0.89-1.8523c-3.9654-16.7866-9.6958-36.1184-17.0232-48.1869a30.3542,30.3542,0,0,1,3.1256-3.7778c3.0841-3.3372,6.5792-7.12,4.7475-12.603-0.9111-2.7267-3.4191-5.02-7.0622-6.4551-4.3353-1.71-9.2713-1.7615-12.2867-.122-4.1723,2.2644-5.8638,6.1569-6.36,10.4515-5.08-.4407-10.3787.3427-16.3815,1.3968a118.1065,118.1065,0,0,0-12.4293,3.0736c-7.4052,2.459-12.6674,5.043-16.52,8.1887-2.6118-3.6943-6.1165-6.4272-11.0586-6.2969-3.43.0879-7.6788,2.6009-10.58,6.249-2.4373,3.0648-3.4628,6.3044-2.8885,9.1214,1.1549,5.6646,6.0734,7.1927,10.4126,8.5414,2.7862,0.8654,4.9625,1.6177,6.3714,2.8864-0.0024,19.2154,7.45,46.2971,8.18,48.9016l0.1935,2.1143c-0.7359,1.102-1.4684,2.1455-2.2,3.1894-4.11,5.8584-8.3351,11.8926-13.286,28.241A88.4646,88.4646,0,0,1,178.8642,135.75l-2.5978-1.5a91.452,91.452,0,0,0,31.38,123.7028c-0.7241,2.5291-1.4636,5.2772-2.2211,8.2879a5.6849,5.6849,0,0,0-2.2308,6.0067,5.2335,5.2335,0,0,0,.8543,1.7638c-0.0961.6581-.191,1.317-0.2743,1.9873a102.4719,102.4719,0,0,0,.5608,26.226,1.4606,1.4606,0,0,0,.0438.1794,1.4963,1.4963,0,0,0,2.9279-.5934c-0.0085-.0618-0.0146-0.1232-0.0232-0.1849a100.6944,100.6944,0,0,1-.5321-25.2566c0.0905-.73.1949-1.4439,0.3-2.1584l0.0637-.4321a1.5019,1.5019,0,0,0-.4062-1.26,2.3993,2.3993,0,0,1-.6165-1.048,2.7307,2.7307,0,0,1,1.3967-3,1.4985,1.4985,0,0,0,.7043-0.9353c0.98-3.9236,1.9281-7.4074,2.8493-10.5194,0.0429-.1453.0854-0.2822,0.1283-0.4259,4.916-16.4663,9.0631-22.3855,13.0949-28.1335,0.8446-1.204,1.6889-2.4073,2.5385-3.6981a1.4968,1.4968,0,0,0,.2412-0.9619l-0.2544-2.7773a1.5225,1.5225,0,0,0-.05-0.2708c-2.3875-8.4517-6.4794-25.8217-7.7361-40.46-0.2681-3.1231-.4043-6.116-0.37-8.8767,0.0175-1.3771.079-2.6925,0.1881-3.9371a26.9368,26.9368,0,0,1,1.1441-6.08,11.179,11.179,0,0,1,1.5364-3.1292c0.3816-.5134.7941-1.0084,1.2288-1.4926a22.51,22.51,0,0,1,2.2475-2.1706c3.579-3.0185,8.6035-5.5058,15.8415-7.91a115.4651,115.4651,0,0,1,11.9915-2.9679c5.8329-1.0238,10.9416-1.7821,15.7287-1.354a25.9729,25.9729,0,0,1,3.0141.4388,23.2794,23.2794,0,0,1,2.4974.6657,10.024,10.024,0,0,1,2.5031,1.271,21.4649,21.4649,0,0,1,4.7891,4.8126q0.8694,1.1462,1.7387,2.4875,1.1373,1.7555,2.271,3.8326c5.3955,9.9119,10.6752,25.2827,15.3311,45.0294a1.5258,1.5258,0,0,0,.1082.3057l1.1833,2.4617a1.5,1.5,0,0,0,.6783.69c2.3106,1.1618,4.3255,2.054,6.103,2.8415,6.5227,2.889,11.1933,4.9621,23.4786,16.8833,0.1736,0.1685.35,0.34,0.5264,0.5127,2.2325,2.1787,4.7066,4.6694,7.4872,7.5468a1.4985,1.4985,0,0,0,1.0776.4579,2.7307,2.7307,0,0,1,2.71,1.8995,2.3975,2.3975,0,0,1-.01,1.2154,1.5008,1.5008,0,0,0,.2782,1.2949l0.2346,0.2965c0.46,0.5819.92,1.1623,1.376,1.766a100.689,100.689,0,0,1,12.1662,22.1377c0.0233,0.0578.049,0.1139,0.0723,0.1717a1.4963,1.4963,0,0,0,2.8323-.95,1.4606,1.4606,0,0,0-.0518-0.1772,102.4646,102.4646,0,0,0-12.6261-22.9921c-0.4086-.54-0.82-1.0633-1.2319-1.5848a5.2316,5.2316,0,0,0-.1421-1.9546,5.6854,5.6854,0,0,0-4.9353-4.0865c-2.1922-2.2631-4.1941-4.2849-6.0441-6.1107A91.4521,91.4521,0,0,0,301.2576,100.7588Zm-24.7561,30.7946c2.2464-1.2151,6.2543-1.1031,9.7551.2766,2.7632,1.089,4.701,2.7708,5.3174,4.6145,1.269,3.8-1.2218,6.4956-4.1055,9.6168a40.6587,40.6587,0,0,0-2.68,3.1092c-0.481-.69-0.9679-1.3484-1.4617-1.9707,2.28-2.6533,4.8015-5.6241,4.6524-7.4936-0.17-2.1228-3.1673-4.2658-6.83-2.1118A9.158,9.158,0,0,0,277.52,141.81a12.4472,12.4472,0,0,0-2.5312-1.1835,26.6406,26.6406,0,0,0-3.2833-.8414C272.1147,136.2885,273.4237,133.2237,276.5015,131.5533Zm-66.3462,35.2239c-4.0583-1.2607-7.5631-2.35-8.3638-6.2757-0.388-1.9044.4492-4.33,2.2978-6.655,2.342-2.9468,5.7585-5.0512,8.31-5.1171,3.76-.0992,6.5572,2.2138,8.726,5.3708a24.1565,24.1565,0,0,0-2.0287,2.3766A12.3219,12.3219,0,0,0,217.7,158.964a9.7436,9.7436,0,0,0-6.3066-2.6787c-4.2479-.0344-5.7729,3.32-4.8584,5.2436,0.9431,1.9831,5.813,3.4438,9.419,4.7452q-0.1459,1.3036-.2231,2.6926A27.9478,27.9478,0,0,0,210.1553,166.7773Z" style="fill:#1796f9"/><path d="M230.1983,235.8946a1.499,1.499,0,0,0-1.6547,1.3275c-0.9579,8.737-2.0437,18.64,3.3832,41.1288a135.8758,135.8758,0,0,0,4.7513,15.3985c0.0166,0.0448.0306,0.0876,0.0471,0.1325a1.5,1.5,0,0,0,1.7928.9274c0.0457-.0123.091-0.0264,0.1356-0.0429a1.4954,1.4954,0,0,0,.92-1.7928c-0.0121-.0452-0.0188-0.0908-0.0353-0.1356a132.9963,132.9963,0,0,1-4.6951-15.1906c-5.3036-21.98-4.2938-31.1907-3.3173-40.098A1.5,1.5,0,0,0,230.1983,235.8946Z" style="fill:#1796f9"/><path d="M307.47,216.0737l-2.4191,1.7745c5.299,7.2248,10.7786,14.6954,17.1766,36.3845a132.9963,132.9963,0,0,1,3.5292,15.503l1.479-.2512,1.479-.2512c-0.0081-.0471-0.0174-0.0912-0.0254-0.1383a135.8758,135.8758,0,0,0-3.5845-15.7111C318.5588,231.1916,312.668,223.16,307.47,216.0737Z" style="fill:#1796f9"/><path d="M225.6708,166.6605a7.3429,7.3429,0,0,1,.6459-1.38,8.0511,8.0511,0,0,1,2.2749-2.4993,7.18,7.18,0,0,1,2.2993-1.08,1.02,1.02,0,0,0-.5281-1.9711,9.3,9.3,0,0,0-2.5218,1.0893,9.5475,9.5475,0,0,0-2.391,2.1359,10.1458,10.1458,0,0,0-1.7332,3.1182A1.02,1.02,0,1,0,225.6708,166.6605Z" style="fill:#1796f9"/><path d="M272.24,149.9567a9.636,9.636,0,0,0-3.0175.125,9.2511,9.2511,0,0,0-2.7674,1.0393,1.02,1.02,0,1,0,1.0126,1.7717,7.2579,7.2579,0,0,1,2.0837-.7991,7.72,7.72,0,0,1,3.0387-.03,7.85,7.85,0,0,1,2.0806.676,1.02,1.02,0,0,0,.9714-1.794A10.1524,10.1524,0,0,0,272.24,149.9567Z" style="fill:#1796f9"/><circle cx="272.0983" cy="159.0249" r="2" transform="translate(-31.8871 75.8429) rotate(-15)" style="fill:#1796f9"/><circle cx="230.6522" cy="170.1303" r="2" transform="matrix(0.9659, -0.2588, 0.2588, 0.9659, -36.1737, 65.4942)" style="fill:#1796f9"/><path d="M255.3689,198.9365l3.0359-2.5474c1.6213,1.1776,3.6273,2.1592,5.43,1.676q0.12-.032.2383-0.0729a3.8657,3.8657,0,0,0,2.4616-3.176c0.0059-.0269.0107-0.0544,0.015-0.0819q0.24-1.5854.4945-3.1767c0.4731-3.0036.9629-6.1092,1.2895-9.1823,1.9362-17.9785-7.0829-22.055-11.0509-22.9729-6.866-1.5876-14.9758,2.09-17.0142,7.7184-3.8021,10.4925,6.3342,26.96,13.2671,31.8891A1.503,1.503,0,0,0,255.3689,198.9365Zm-12.28-30.7939c1.5358-4.2427,8.1057-7.0693,13.5176-5.8169,6.74,1.5588,9.9266,8.75,8.7441,19.731-0.3185,3-.8022,6.0672-1.27,9.0335q-0.249,1.5779-.49,3.1508a1.3486,1.3486,0,0,1-.4953.9152c-0.3881.1439-1.6661-.0828-3.7549-1.8449a1.4993,1.4993,0,0,0-1.9312-.0027l-3.0454,2.5555a37.5987,37.5987,0,0,1-8.8838-12.12C242.5749,177.6535,241.7038,171.967,243.0893,168.1426Z" style="fill:#1796f9"/><path d="M252.9286,176.5607l2.295,8.5649a1.5,1.5,0,1,0,2.8978-.7765l-2.295-8.5649a7.87,7.87,0,0,0,3.3694-5.1628,2.8856,2.8856,0,0,0-1.3193-2.8974c-1.3747-.8252-3.8779-0.4193-5.7533.0711-1.8505.508-4.22,1.4077-5,2.81a2.8846,2.8846,0,0,0,.3063,3.1693A7.8683,7.8683,0,0,0,252.9286,176.5607Z" style="fill:#1796f9"/><path d="M444.2955,180.6679c0.065-.1651.13-0.3279,0.1948-0.4937,3.7252-9.4663,7.5778-19.2271,15.7589-22.3323l3.0929,11.5429,0.7666,2.861,1.4489-.3882,1.4489-.3882-0.7765-2.8978-3.1058-11.5911-0.7765-2.8978-6.9881-26.08-0.7765-2.8978-10.87-40.5689-0.7765-2.8978-1.4489.3882-1.4489.3882,0.0065,0.0244c-3.5686,1.0706-7.25,2.566-10.8442,4.05-0.23.0949-.4609,0.19-0.69,0.2847-10.2739,4.2467-19.9784,8.2583-27.532,3.8973S392.0473,75.9,390.5879,64.8792c-0.0325-.2459-0.0657-0.4935-0.0985-0.74-0.512-3.855-1.0575-7.79-1.9148-11.4162l0.0245-.0066-0.3882-1.4489-0.3882-1.4489-2.8978.7765L341.4583,62.2418l0.7765,2.8978,43.4417-11.64c0.8658,3.6914,1.41,7.7917,1.9375,11.7737,1.4906,11.2566,3.0318,22.8964,11.865,27.9958,5.1646,2.9822,11.0192,2.6873,17.0893,1.0609a109.5912,109.5912,0,0,0,13.0883-4.7834c3.7123-1.5344,7.5355-3.1131,11.1651-4.209l10.8637,40.5439,0.7765,2.8978,7.0062,26.1473c-9.6233,3.4655-13.9418,14.4232-17.7693,24.1491a88.8722,88.8722,0,0,1-5.1525,11.55,88.8722,88.8722,0,0,1-7.4262,10.2372c-6.5091,8.1777-13.8394,17.3963-12.0289,27.4632l-29.0452,7.7826,0.7765,2.8978L417.8,231.2417l2.8978-.7765,11.5911-3.1058,2.8978-.7765-0.3882-1.4489-0.3882-1.4489-2.861.7666-11.543,3.0929c-1.4015-8.6376,5.1254-16.8544,11.4609-24.8138,0.111-.1394.22-0.2766,0.33-0.4154a87.0459,87.0459,0,0,0,7.3466-10.19A87.0106,87.0106,0,0,0,444.2955,180.6679Z" style="fill:#1796f9"/><path d="M72.4371,289.6173l-1.4489.3882,0.7765,2.8978,1.4489-.3882a28.5324,28.5324,0,0,1,34.9052,20.1525l0.3882,1.4489,2.8978-.7765-0.3882-1.4489A31.5357,31.5357,0,0,0,72.4371,289.6173Z" style="fill:#1796f9"/><path d="M446.5862,221.9755l0.3882,1.4489,2.8978-.7765-0.3882-1.4489a28.5324,28.5324,0,0,1,20.1525-34.9052l1.4489-.3882-0.7765-2.8978-1.4489.3882A31.5357,31.5357,0,0,0,446.5862,221.9755Z" style="fill:#1796f9"/><path d="M64.4292,138.0245l-0.3882-1.4489-2.8978.7765,0.3882,1.4489a28.5324,28.5324,0,0,1-20.1525,34.9052l-1.4489.3882,0.7765,2.8978,1.4489-.3882A31.5357,31.5357,0,0,0,64.4292,138.0245Z" style="fill:#1796f9"/><path d="M437.8018,67.485a28.5324,28.5324,0,0,1-34.9052-20.1525l-0.3882-1.4489-2.8978.7765,0.3882,1.4489a31.5357,31.5357,0,0,0,38.5795,22.2739l1.4489-.3882-0.7765-2.8978Z" style="fill:#1796f9"/><path d="M123.2047,294.78c-1.4906-11.2566-3.0322-22.8962-11.865-27.9958s-19.6841-.6158-30.1776,3.7225c-3.7123,1.5344-7.5355,3.1131-11.1651,4.209L59.1333,234.1713l-0.7765-2.8978-7.0062-26.1473c9.6233-3.4655,13.9418-14.4232,17.7693-24.1491a88.8722,88.8722,0,0,1,5.1525-11.55A88.8722,88.8722,0,0,1,81.6988,159.19c6.5091-8.1777,13.8394-17.3963,12.0289-27.4632l29.0452-7.7826-0.7765-2.8978L93.0187,128.811l-2.8978.7765L78.53,132.6933l-2.8978.7765,0.3882,1.4489,0.3882,1.4489,2.861-.7666,11.543-3.0929c1.4015,8.6376-5.1254,16.8544-11.4609,24.8138-0.111.1394-.22,0.2766-0.33,0.4154a87.0459,87.0459,0,0,0-7.3466,10.19,87.0106,87.0106,0,0,0-5.1515,11.4574c-0.065.1651-.13,0.3279-0.1948,0.4937-3.7252,9.4663-7.5778,19.2271-15.7589,22.3323l-3.0929-11.5429-0.7666-2.861-1.4489.3882-1.4489.3882,0.7765,2.8978,3.1058,11.5911L48.471,205.97l6.9881,26.08,0.7765,2.8978,10.87,40.5689,0.7765,2.8978,1.4489-.3882,1.4489-.3882-0.0065-.0244c3.5686-1.0706,7.2494-2.566,10.8442-4.05,0.23-.0949.4609-0.19,0.69-0.2847,10.2755-4.2466,19.98-8.2576,27.532-3.8973s8.9315,14.7708,10.3909,25.792c0.0325,0.2459.0657,0.4935,0.0985,0.74,0.512,3.855,1.0575,7.79,1.9148,11.4162l-0.0245.0066,0.3882,1.4489,0.3882,1.4489,2.8978-.7765L169.36,297.8109l-0.7765-2.8978-43.4417,11.64C124.2765,302.8619,123.7321,298.7616,123.2047,294.78Z" style="fill:#1796f9"/><path d="M371.2733,161.9217l-1.4489.3882-1.4489.3882a24.0278,24.0278,0,0,0,27.9316,17.3089l2.2133,8.26,2.8978-.7765-2.2133-8.26a23.9987,23.9987,0,0,0-13.8588-45.9263,3.5,3.5,0,1,1,2.4749-4.2866l1.4489-.3882,1.4489-.3882a6.5066,6.5066,0,0,0-6.4649-4.8089l-3.1332-11.6932A18.5137,18.5137,0,0,1,402.31,125.1353l1.4489-.3882,1.4489-.3882a21.5118,21.5118,0,0,0-24.8635-15.5176l-2.22-8.2838-2.8978.7765,2.22,8.2838a21.491,21.491,0,0,0,12.5584,41.0732,6,6,0,1,1-4.2426,7.3485l-1.4489.3882-1.4489.3882a9.0074,9.0074,0,0,0,9.5387,6.6213l3.1212,11.6486A21.0117,21.0117,0,0,1,371.2733,161.9217Zm24.0276,2.739a8.9948,8.9948,0,0,0-6.0726-16.8676,18.4922,18.4922,0,0,1-11.0055-35.2776l3.1332,11.6932a6.4965,6.4965,0,0,0,4.7665,11.9933,20.9884,20.9884,0,0,1,12.3,40.1073Z" style="fill:#1796f9"/><path d="M195.88,112.63a16.3983,16.3983,0,0,0,5.2427-2.489l0.0058,0.0075c0.0778-.0606.1592-0.1151,0.2371-0.1754,0.0876-.0646.18-0.118,0.267-0.1846l-0.0063-.0082A88.6352,88.6352,0,0,1,267.0608,92.247l-0.0013.01c0.1085,0.0143.2151,0.0143,0.3233,0.0264,0.0978,0.0132.1956,0.02,0.2933,0.0334l0.0013-.0094a16.4356,16.4356,0,0,0,17.8945-14.2554l-2.9743-.392a13.5093,13.5093,0,0,1-14.8451,11.6472A91.7006,91.7006,0,0,0,199.5569,107.58a13.509,13.509,0,0,1-18.68-2.6644l-2.38,1.8266A16.5265,16.5265,0,0,0,195.88,112.63Z" style="fill:#1796f9"/><path d="M140.3515,201.9394a13.0086,13.0086,0,0,1-1.4954-3.0661c-0.7673-1.958-1.6375-4.1775-3.61-5.3162s-4.33-.7826-6.4095-0.4684a13.0044,13.0044,0,0,1-3.403.238,12.3417,12.3417,0,0,1-3.0681-1.08c-1.9555-.8687-4.1722-1.8534-6.47-1.2379s-3.7247,2.5767-4.9839,4.3068a12.3417,12.3417,0,0,1-2.1172,2.469,13.0086,13.0086,0,0,1-3.0661,1.4954c-1.958.7673-4.1775,1.6375-5.3162,3.61s-0.7826,4.33-.4684,6.4095a13.0044,13.0044,0,0,1,.238,3.403,12.3417,12.3417,0,0,1-1.08,3.0681c-0.8687,1.9555-1.8534,4.1722-1.2379,6.47s2.5767,3.7247,4.3068,4.9839a12.3417,12.3417,0,0,1,2.469,2.1172,13.0213,13.0213,0,0,1,1.4951,3.0651c0.7675,1.9589,1.6373,4.1786,3.61,5.3171s4.33,0.7826,6.4095.4684a13.0044,13.0044,0,0,1,3.403-.238,12.3417,12.3417,0,0,1,3.0681,1.08c1.9555,0.8687,4.1722,1.8534,6.47,1.2379s3.7247-2.5767,4.9839-4.3068a12.3417,12.3417,0,0,1,2.1172-2.469A13.0086,13.0086,0,0,1,139.2632,232c1.958-.7673,4.1775-1.6375,5.3162-3.61s0.7826-4.33.4684-6.4095a13.0044,13.0044,0,0,1-.238-3.403,12.3417,12.3417,0,0,1,1.08-3.0681c0.8687-1.9555,1.8534-4.1722,1.2379-6.47s-2.5767-3.7247-4.3068-4.9839A12.3417,12.3417,0,0,1,140.3515,201.9394Zm2.7962,12.3525a14.5921,14.5921,0,0,0-1.3125,3.8932,15.3027,15.3027,0,0,0,.2461,4.2445c0.264,1.7476.5138,3.3984-.1,4.461s-2.1676,1.6717-3.8131,2.3163a15.3065,15.3065,0,0,0-3.7989,1.9091,14.5921,14.5921,0,0,0-2.7154,3.0833c-1.06,1.4569-2.062,2.8334-3.3345,3.1743s-2.8281-.35-4.4749-1.0818a14.5921,14.5921,0,0,0-3.8932-1.3125,15.3027,15.3027,0,0,0-4.2445.2461c-1.7476.264-3.3984,0.5138-4.461-.1s-1.6718-2.168-2.3169-3.8135a15.317,15.317,0,0,0-1.9085-3.7986,14.5921,14.5921,0,0,0-3.0833-2.7154c-1.4569-1.06-2.8334-2.062-3.1743-3.3345s0.35-2.8281,1.0818-4.4749a14.592,14.592,0,0,0,1.3125-3.8932,15.3027,15.3027,0,0,0-.2461-4.2445c-0.264-1.7476-.5138-3.3984.1-4.461s2.1676-1.6717,3.8131-2.3163a15.3065,15.3065,0,0,0,3.7989-1.9091,14.5921,14.5921,0,0,0,2.7154-3.0833c1.06-1.4569,2.062-2.8334,3.3345-3.1743s2.8281,0.35,4.4749,1.0818a14.5921,14.5921,0,0,0,3.8932,1.3125,15.3027,15.3027,0,0,0,4.2445-.2461c1.7476-.264,3.3984-0.5138,4.461.1s1.6717,2.1676,2.3163,3.8131a15.3065,15.3065,0,0,0,1.9091,3.7989,14.5921,14.5921,0,0,0,3.0833,2.7154c1.4569,1.06,2.8334,2.062,3.1743,3.3345S143.8793,212.645,143.1477,214.2918Z" style="fill:#1796f9"/><path d="M120.1668,206.947a9,9,0,1,0,11.0227,6.364A9.01,9.01,0,0,0,120.1668,206.947Zm3.8823,14.4889a6,6,0,1,1,4.2426-7.3485A6.0066,6.0066,0,0,1,124.0491,221.4359Z" style="fill:#1796f9"/><path d="M269.7951,231.0575l-0.6634.18-0.6647.1756c-4.034,1.0526-10.7667,2.8243-14.8181,9.798-4.1713,7.1807-4.3055,18.2145-.3987,32.7949,1.3273,4.9535,2.7452,9.7206,4.2143,14.1735,0.009,0.0269.0175,0.0551,0.0265,0.0819a1.4969,1.4969,0,0,0,2.8673-.8573c-0.0075-.0279-0.0095-0.0561-0.0187-0.084-1.4607-4.4215-2.8711-9.1624-4.1916-14.0906-3.6926-13.781-3.6608-24.0462.0946-30.5114,3.4253-5.8955,9.1737-7.4055,12.9854-8.403l0.68-.18,0.679-.1845c3.7962-1.04,9.5329-2.6089,15.4478.7849,6.4849,3.7213,11.6455,12.5953,15.3379,26.3758,1.32,4.9258,2.4688,9.7362,3.4157,14.2985,0.0059,0.0287.0183,0.0541,0.0258,0.0821a1.4965,1.4965,0,0,0,1.7476,1.0821c0.0287-.0062.0572-0.0128,0.0851-0.02a1.5,1.5,0,0,0,1.0791-1.7531c-0.0059-.0276-0.0123-0.0564-0.018-0.0841-0.9553-4.5935-2.111-9.4309-3.4375-14.3816-3.9067-14.58-9.54-24.0683-16.7426-28.2014C280.5309,228.12,273.8081,229.9549,269.7951,231.0575Z" style="fill:#1796f9"/><rect x="35.5077" y="75" width="440" height="210" rx="9" ry="9" style="fill:#e1f0f8"/><path d="M472.5077,61.5h-434a16.5187,16.5187,0,0,0-16.5,16.5V282a16.5187,16.5187,0,0,0,16.5,16.5h434a16.5187,16.5187,0,0,0,16.5-16.5V78A16.5187,16.5187,0,0,0,472.5077,61.5Zm3,214.5a9,9,0,0,1-9,9H336.5748a1.4963,1.4963,0,0,1-2.9817.1846c-0.0076-.0619-0.0178-0.1227-0.0254-0.1846H303.1366c-0.0044.0475-.0068,0.0925-0.0112,0.14l-1.4937-.14H281.4149c-0.0017.0283-.0029,0.0577-0.0044,0.0859a1.5,1.5,0,0,1-1.4961,1.4141c-0.0288,0-.0581-0.001-0.0874-0.0024A1.4965,1.4965,0,0,1,278.4191,285H232.3946a1.4969,1.4969,0,0,1-2.9915.0859c-0.0017-.0282-0.0027-0.0577-0.0044-0.0859h-18.522a1.4954,1.4954,0,0,1-1.3525,1.4937c-0.0474.0044-.0947,0.0063-0.1421,0.0063a1.5,1.5,0,0,1-1.4917-1.36c-0.0044-.0476-0.0068-0.0926-0.0112-0.14H177.4476c-0.0076.0618-.0176,0.1227-0.0254,0.1846A1.4963,1.4963,0,0,1,174.4405,285H44.5077a9,9,0,0,1-9-9V84a9,9,0,0,1,9-9h422a9,9,0,0,1,9,9V276Z" style="fill:#fff"/><path d="M309.6014,125.9063A76.5189,76.5189,0,0,0,185.02,209.7778l0.584,1.3813,2.7632-1.1685-0.5845-1.3818a73.5,73.5,0,1,1,135.4492,0l-0.5845,1.3818,2.7632,1.1685,0.584-1.3813A76.4373,76.4373,0,0,0,309.6014,125.9063Z" style="fill:#84c3f9"/><path d="M447.4847,134.6307c3.8562-.5032,7.7988-0.9949,11.5229-1.1054V133.5h1.5a43.5494,43.5494,0,0,1-43.5-43.5v1.5h-0.0254c-0.11,3.7241-.6021,7.6667-1.1052,11.5228A46.6763,46.6763,0,0,0,447.4847,134.6307Z" style="fill:#84c3f9"/><path d="M459.0077,223.538a46.1732,46.1732,0,0,0-21.3179,5.969,87.0106,87.0106,0,0,1-7.9414,9.7337,87.0459,87.0459,0,0,1-9.7336,7.9415,46.17,46.17,0,0,0-5.969,21.3177h2.9619V270a43.5494,43.5494,0,0,1,43.5-43.5h-1.5v-2.962Z" style="fill:#84c3f9"/><path d="M93.8041,90a43.5494,43.5494,0,0,1-43.5,43.5h1.5v2.962a46.1732,46.1732,0,0,0,21.3179-5.969,87.0106,87.0106,0,0,1,7.9414-9.7337,87.0459,87.0459,0,0,1,9.7336-7.9415A46.17,46.17,0,0,0,96.766,91.5H93.8041V90Z" style="fill:#84c3f9"/><rect x="108.8041" y="141" width="18" height="3" style="fill:#84c3f9"/><rect x="108.8041" y="216" width="18" height="3" style="fill:#84c3f9"/><path d="M63.327,225.3693c-3.8564.5032-7.7988,0.9949-11.5229,1.1054V226.5h-1.5a43.5494,43.5494,0,0,1,43.5,43.5v-1.5h0.0254c0.11-3.7241.6021-7.6666,1.1052-11.5228A46.6763,46.6763,0,0,0,63.327,225.3693Z" style="fill:#84c3f9"/><path d="M472.5077,58.5h-434a19.522,19.522,0,0,0-19.5,19.5V282a19.522,19.522,0,0,0,19.5,19.5h434a19.522,19.522,0,0,0,19.5-19.5V78A19.522,19.522,0,0,0,472.5077,58.5Zm16.5,223.5a16.5187,16.5187,0,0,1-16.5,16.5h-434a16.5187,16.5187,0,0,1-16.5-16.5V78a16.5187,16.5187,0,0,1,16.5-16.5h434a16.5187,16.5187,0,0,1,16.5,16.5V282Z" style="fill:#e1f0f8"/><path d="M384.0077,192.5h-12a21.0117,21.0117,0,0,0,19.5,20.924v-12.06A9.0074,9.0074,0,0,1,384.0077,192.5Z" style="fill:#fffeff"/><path d="M393.0077,171.5a6.4965,6.4965,0,0,1-1.5-12.8183V146.576a18.4922,18.4922,0,0,0,1.5,36.924,8.9948,8.9948,0,0,1,1.5,17.8645v12.06A20.9884,20.9884,0,0,0,393.0077,171.5Z" style="fill:#fffeff"/><path d="M399.5077,165h12a18.5137,18.5137,0,0,0-17-18.424v12.1057A6.5066,6.5066,0,0,1,399.5077,165Z" style="fill:#fffeff"/><path d="M261.1439,163.2124c-4.9033-2.61-11.981-1.5806-14.5625,2.12-2.3281,3.3354-2.9585,9.0537-1.729,15.689a37.5987,37.5987,0,0,0,5.4443,14.0059l3.603-1.68a1.4993,1.4993,0,0,1,1.8647.5024c1.5615,2.2427,2.7373,2.7925,3.1494,2.7539a1.3486,1.3486,0,0,0,.7153-0.7559q0.6372-1.4575,1.2891-2.9165c1.22-2.7441,2.481-5.582,3.5649-8.397C268.4676,174.2334,267.25,166.4624,261.1439,163.2124Zm0.3535,8.6831a7.87,7.87,0,0,1-4.5908,4.1149v8.8671a1.5,1.5,0,0,1-3,0V176.01a7.8683,7.8683,0,0,1-4.5908-4.1149,2.8846,2.8846,0,0,1,.5244-3.1406c1.1167-1.1523,3.6382-1.4082,5.5571-1.42,1.9385,0.0117,4.4614.2676,5.5757,1.42A2.8856,2.8856,0,0,1,261.4974,171.8955Z" style="fill:#fffeff"/><path d="M135.8256,172.5366a15.3065,15.3065,0,0,1-.8608-4.1636c-0.1968-1.7563-.3828-3.415-1.25-4.2827s-2.5269-1.0537-4.2832-1.251a15.3027,15.3027,0,0,1-4.1636-.8608,14.5921,14.5921,0,0,1-3.4209-2.2754c-1.4014-1.1328-2.7251-2.2031-4.0425-2.2031s-2.6411,1.07-4.0425,2.2031a14.5921,14.5921,0,0,1-3.4209,2.2754,15.3065,15.3065,0,0,1-4.1636.8608c-1.7563.1968-3.415,0.3828-4.2827,1.25s-1.0537,2.5269-1.251,4.2832a15.3027,15.3027,0,0,1-.8608,4.1636,14.5921,14.5921,0,0,1-2.2754,3.4209c-1.1328,1.4014-2.2031,2.7251-2.2031,4.0425s1.07,2.6411,2.2031,4.0425a14.5921,14.5921,0,0,1,2.2754,3.4209,15.317,15.317,0,0,1,.86,4.1631c0.1973,1.7563.3833,3.4155,1.251,4.2832s2.5269,1.0537,4.2832,1.251a15.3027,15.3027,0,0,1,4.1636.8608,14.5921,14.5921,0,0,1,3.4209,2.2754c1.4014,1.1328,2.7251,2.2031,4.0425,2.2031s2.6411-1.07,4.0425-2.2031a14.5921,14.5921,0,0,1,3.4209-2.2754,15.3065,15.3065,0,0,1,4.1636-.8608c1.7563-.1968,3.415-0.3828,4.2827-1.25s1.0537-2.5269,1.251-4.2832a15.3027,15.3027,0,0,1,.8608-4.1636,14.5921,14.5921,0,0,1,2.2754-3.4209c1.1328-1.4014,2.2031-2.7251,2.2031-4.0425s-1.07-2.6411-2.2031-4.0425A14.5921,14.5921,0,0,1,135.8256,172.5366ZM117.8041,189a9,9,0,1,1,9-9A9.01,9.01,0,0,1,117.8041,189Z" style="fill:#fffeff"/><path d="M320.2079,115.3l-2.1211,2.1211a88.4666,88.4666,0,0,1,2.271,122.774c-8.7549-14.5406-12.8643-17.8625-18.5713-22.4664-1.4531-1.1719-2.9517-2.38-4.667-3.8916l-0.38-2.02c0.5144-17.241-.0173-37.3972-3.9714-50.9509a30.3542,30.3542,0,0,1,3.9968-2.84c3.8428-2.4253,8.1978-5.1743,7.8477-10.9448-0.1743-2.87-2.0034-5.7334-5.1509-8.063-3.7451-2.7734-8.5-4.1011-11.8364-3.2979-4.6162,1.1074-7.2576,4.4294-8.8484,8.4492-4.7932-1.7405-10.1138-2.3552-16.1848-2.8906a118.1065,118.1065,0,0,0-12.8013-.248c-7.7893.4586-13.541,1.5926-18.0769,3.6339-1.5667-4.2444-4.2446-7.7913-9.052-8.9445-3.3354-.8027-8.09.5249-11.8364,3.2979-3.1475,2.33-4.9766,5.1934-5.1509,8.063-0.3506,5.7705,4.0049,8.52,7.8472,10.9453,2.4673,1.5571,4.3748,2.847,5.4072,4.4371-4.9756,18.56-4.7864,46.6478-4.7554,49.3524l-0.36,2.0923c-0.9961.874-1.9736,1.6924-2.9507,2.5112-5.4858,4.5952-11.1292,9.33-20.1426,23.84a88.4646,88.4646,0,0,1,2.209-122.8391L190.8075,115.3a91.452,91.452,0,0,0-1.7061,127.6094c-1.354,2.2555-2.78,4.7186-4.2905,7.4307a5.6849,5.6849,0,0,0-3.7095,5.2246,5.2335,5.2335,0,0,0,.3687,1.9248c-0.2632.6108-.5254,1.2227-0.7793,1.8486a102.4719,102.4719,0,0,0-6.2461,25.4775,1.4606,1.4606,0,0,0-.0042.1846,1.4963,1.4963,0,0,0,2.9817.1846c0.0078-.0619.0178-0.1227,0.0254-0.1846a100.6944,100.6944,0,0,1,6.0229-24.5337c0.2764-.6816.562-1.3442,0.8481-2.0073l0.1733-.4009a1.5019,1.5019,0,0,0-.0664-1.3218,2.3993,2.3993,0,0,1-.3242-1.1719,2.7307,2.7307,0,0,1,2.1255-2.5361,1.4985,1.4985,0,0,0,.9224-0.7212c1.9619-3.5363,3.78-6.6559,5.4749-9.4235,0.0791-.1293.1555-0.25,0.2341-0.3782,9.01-14.6329,14.5481-19.277,19.93-23.7856,1.1274-.9443,2.2544-1.8882,3.4092-2.915a1.4968,1.4968,0,0,0,.4819-0.8667l0.4731-2.7485a1.5225,1.5225,0,0,0,.022-0.2744c-0.1187-8.7816.4246-26.6188,2.9993-41.0833,0.5493-3.0861,1.1924-6.0123,1.94-8.67,0.3733-1.3257.7732-2.58,1.2007-3.7543a26.9368,26.9368,0,0,1,2.6787-5.5765,11.179,11.179,0,0,1,2.2939-2.6249c0.5015-.3971,1.0281-0.7685,1.5732-1.1237a22.51,22.51,0,0,1,2.7327-1.515c4.2383-1.9893,9.7354-3.0915,17.3489-3.54a115.4651,115.4651,0,0,1,12.3511.2368c5.8992,0.5208,11.03,1.1105,15.5432,2.763a25.9729,25.9729,0,0,1,2.7979,1.204,23.2794,23.2794,0,0,1,2.24,1.2894,10.024,10.024,0,0,1,2.0889,1.8755,21.465,21.465,0,0,1,3.38,5.8881q0.5431,1.3322,1.0356,2.8527,0.6442,1.99,1.2017,4.29c2.6462,10.9706,3.7678,27.1842,3.1543,47.463a1.5258,1.5258,0,0,0,.0254.3232l0.5059,2.6841a1.5,1.5,0,0,0,.4766.8423c1.9312,1.72,3.6465,3.1035,5.16,4.3242,5.5527,4.4788,9.5276,7.69,18.3088,22.3847,0.124,0.2077.25,0.4191,0.3757,0.6315,1.5925,2.6823,3.3376,5.7285,5.2788,9.2275a1.4985,1.4985,0,0,0,.9224.7212,2.7307,2.7307,0,0,1,2.126,2.5361,2.3975,2.3975,0,0,1-.3242,1.1714,1.5008,1.5008,0,0,0-.0664,1.3228l0.15,0.3472c0.2939,0.6812.5879,1.3608,0.8721,2.062A100.689,100.689,0,0,1,333.5677,285c0.0076,0.0618.0178,0.1227,0.0254,0.1846A1.4963,1.4963,0,0,0,336.5748,285a1.4606,1.4606,0,0,0-.0042-0.1846,102.4646,102.4646,0,0,0-6.2451-25.4766c-0.2549-.6274-0.5166-1.2393-0.78-1.85a5.2316,5.2316,0,0,0,.3687-1.9248,5.6854,5.6854,0,0,0-3.7095-5.2246c-1.5317-2.7534-2.9421-5.2244-4.2566-7.4669A91.4521,91.4521,0,0,0,320.2079,115.3Zm-31.8828,23.3379c2.4844-.5923,6.3267.5532,9.3511,2.792,2.3872,1.7671,3.8237,3.8931,3.9419,5.8335,0.2422,3.999-2.8613,5.958-6.4546,8.2266a40.6587,40.6587,0,0,0-3.3933,2.31c-0.2861-.7906-0.5859-1.553-0.9019-2.2819,2.8889-1.9728,6.0935-4.19,6.4333-6.0342,0.3853-2.0945-1.9553-4.94-6.0505-3.8075a9.158,9.158,0,0,0-4.5964,3.1323,12.4472,12.4472,0,0,0-2.1387-1.7983,26.6406,26.6406,0,0,0-2.9536-1.6625C282.8622,142.0762,284.92,139.4545,288.3251,138.6377ZM215.1229,155.49c-3.5937-2.2681-6.6973-4.2271-6.4546-8.2266,0.1182-1.94,1.5547-4.0664,3.9419-5.8335,3.0249-2.24,6.87-3.3887,9.3511-2.792,3.6572,0.8773,5.7607,3.8355,7.0386,7.4462a24.1565,24.1565,0,0,0-2.5747,1.7706,12.3219,12.3219,0,0,0-1.9922,2.041,9.7436,9.7436,0,0,0-5.3984-4.22c-4.0942-1.1327-6.4355,1.713-6.05,3.8075,0.3977,2.16,4.7236,4.831,7.87,7.0214q-0.4783,1.2214-.9124,2.5431A27.9478,27.9478,0,0,0,215.1229,155.49Z" style="fill:#1796f9"/><path d="M216.5941,227.4395a1.499,1.499,0,0,0-1.9419.854c-3.1865,8.1914-6.7983,17.4756-7.377,40.603A135.8758,135.8758,0,0,0,207.8793,285c0.0044,0.0475.0068,0.0925,0.0112,0.14a1.5,1.5,0,0,0,1.4917,1.36c0.0474,0,.0947-0.002.1421-0.0063A1.4954,1.4954,0,0,0,210.8768,285c0-.0468.0054-0.0926,0.001-0.14a132.9964,132.9964,0,0,1-.6035-15.8882c0.5659-22.6035,3.9253-31.2393,7.1738-39.59A1.5,1.5,0,0,0,216.5941,227.4395Z" style="fill:#1796f9"/><path d="M296.3631,228.2935l-2.7959,1.0879c3.2485,8.35,6.6079,16.9844,7.1743,39.59a132.9963,132.9963,0,0,1-.6035,15.8882l1.4937,0.14,1.4937,0.14c0.0044-.0476.0068-0.0926,0.0112-0.14a135.8758,135.8758,0,0,0,.604-16.1035C303.161,245.7661,299.55,236.4834,296.3631,228.2935Z" style="fill:#1796f9"/><path d="M230.14,159.3927a7.3429,7.3429,0,0,1,.981-1.1654,8.0511,8.0511,0,0,1,2.8442-1.8254,7.18,7.18,0,0,1,2.5-.4483,1.02,1.02,0,0,0,0-2.0406,9.3,9.3,0,0,0-2.7178.3995,9.5474,9.5474,0,0,0-2.8623,1.4443,10.1458,10.1458,0,0,0-2.4812,2.5634A1.02,1.02,0,1,0,230.14,159.3927Z" style="fill:#1796f9"/><path d="M279.4457,155.311a9.636,9.636,0,0,0-2.947-.66,9.2511,9.2511,0,0,0-2.9421.2877,1.02,1.02,0,1,0,.52,1.9734,7.2579,7.2579,0,0,1,2.2195-.2326,7.72,7.72,0,0,1,2.9429.7577,7.85,7.85,0,0,1,1.8347,1.1914,1.02,1.02,0,0,0,1.4026-1.4815A10.1524,10.1524,0,0,0,279.4457,155.311Z" style="fill:#1796f9"/><circle cx="276.9618" cy="164.0336" r="2.0001" style="fill:#1796f9"/><circle cx="234.0536" cy="164.0336" r="2.0001" style="fill:#1796f9"/><path d="M250.4725,198.2554l3.5918-1.6748c1.2612,1.5571,2.9448,3.0244,4.8115,3.0244q0.1238,0,.249-0.0088a3.8657,3.8657,0,0,0,3.2-2.4307c0.0127-.0244.0244-0.05,0.0356-0.0752q0.6423-1.4692,1.3-2.94c1.2344-2.7788,2.5112-5.6519,3.6221-8.5356,6.5234-16.8647-1.1333-23.1367-4.7285-25.05-6.2212-3.3105-15.0063-1.8574-18.4321,3.0518-6.3882,9.1509-.8594,27.6807,4.5615,34.2363A1.503,1.503,0,0,0,250.4725,198.2554Zm-3.8911-32.9229c2.5815-3.7007,9.6592-4.73,14.5625-2.12,6.1064,3.25,7.3237,11.021,3.3394,21.3218-1.084,2.8149-2.3452,5.6528-3.5649,8.397q-0.6489,1.46-1.2891,2.9165a1.3486,1.3486,0,0,1-.7153.7559c-0.4121.0386-1.5879-.5112-3.1494-2.7539a1.4993,1.4993,0,0,0-1.8647-.5024l-3.603,1.68a37.5987,37.5987,0,0,1-5.4443-14.0059C243.6229,174.3862,244.2533,168.668,246.5814,165.3325Z" style="fill:#1796f9"/><path d="M253.9066,176.01v8.8671a1.5,1.5,0,0,0,3,0V176.01a7.87,7.87,0,0,0,4.5908-4.1149,2.8856,2.8856,0,0,0-.5244-3.14c-1.1143-1.1528-3.6372-1.4087-5.5757-1.42-1.9189.0117-4.44,0.2676-5.5571,1.42a2.8846,2.8846,0,0,0-.5244,3.1406A7.8683,7.8683,0,0,0,253.9066,176.01Z" style="fill:#1796f9"/><path d="M437.69,229.507c0.1055-.1426.21-0.2832,0.3159-0.4265,6.0483-8.18,12.2959-16.6107,21.002-17.4927V226.5h3v-93h-3v0.0253c-3.7241.1105-7.6667,0.6022-11.5229,1.1054-0.2466.0322-.4944,0.0642-0.74,0.0964-11.0229,1.4429-21.4351,2.8062-27.6025-3.3613s-4.8042-16.5791-3.3613-27.6025c0.0322-.2459.0642-0.4937,0.0964-0.74,0.5032-3.8561.9949-7.7987,1.1052-11.5228h0.0254v-3h-48v3h44.9741c-0.1191,3.79-.6545,7.8912-1.1758,11.874-1.4736,11.2588-2.9976,22.9009,4.2148,30.1128,4.2168,4.2173,9.9482,5.4478,16.2324,5.4478a109.5912,109.5912,0,0,0,13.88-1.2329c3.9829-.5213,8.0845-1.0567,11.874-1.1758V208.57c-10.1924.8568-17.2,10.3234-23.4141,18.7272a88.8722,88.8722,0,0,1-7.9663,9.8228,88.8722,88.8722,0,0,1-9.8228,7.9663c-8.4038,6.2144-17.87,13.2216-18.7271,23.4141h-30.07v3h48v-3H402.0956c0.8818-8.7061,9.313-14.9536,17.4927-21.002,0.1433-.1059.2837-0.21,0.4265-0.3158a87.0459,87.0459,0,0,0,9.7336-7.9415A87.0106,87.0106,0,0,0,437.69,229.507Z" style="fill:#1796f9"/><path d="M50.3041,238.5h-1.5v3h1.5a28.5324,28.5324,0,0,1,28.5,28.5v1.5h3V270A31.5357,31.5357,0,0,0,50.3041,238.5Z" style="fill:#1796f9"/><path d="M429.2113,270v1.5h3V270a28.5324,28.5324,0,0,1,28.5-28.5h1.5v-3h-1.5A31.5357,31.5357,0,0,0,429.2113,270Z" style="fill:#1796f9"/><path d="M81.8041,90V88.5h-3V90a28.5324,28.5324,0,0,1-28.5,28.5h-1.5v3h1.5A31.5357,31.5357,0,0,0,81.8041,90Z" style="fill:#1796f9"/><path d="M460.7113,118.5a28.5324,28.5324,0,0,1-28.5-28.5V88.5h-3V90a31.5357,31.5357,0,0,0,31.5,31.5h1.5v-3h-1.5Z" style="fill:#1796f9"/><path d="M98.0057,256.626c1.4736-11.2588,2.9971-22.9009-4.2148-30.1128s-18.854-5.6895-30.1128-4.2148c-3.9829.5213-8.0845,1.0567-11.874,1.1758V151.43c10.1924-.8568,17.2-10.3234,23.4141-18.7272a88.8722,88.8722,0,0,1,7.9663-9.8228,88.8722,88.8722,0,0,1,9.8228-7.9663c8.4038-6.2144,17.87-13.2216,18.7271-23.4141h30.07v-3h-48v3h14.9121c-0.8818,8.7061-9.313,14.9536-17.4927,21.002-0.1433.1059-.2837,0.21-0.4265,0.3158a87.0459,87.0459,0,0,0-9.7336,7.9415,87.0106,87.0106,0,0,0-7.9414,9.7337c-0.1055.1426-.21,0.2832-0.3159,0.4265-6.0483,8.18-12.2959,16.6107-21.002,17.4927V133.5h-3v93h3v-0.0253c3.7241-.1105,7.6665-0.6022,11.5229-1.1054,0.2466-.0322.4944-0.0642,0.74-0.0964,11.0244-1.4424,21.436-2.8052,27.6025,3.3613s4.8042,16.5791,3.3613,27.6025c-0.0322.2459-.0642,0.4937-0.0964,0.74-0.5032,3.8562-.9949,7.7987-1.1052,11.5228H93.8041v3h48v-3H96.83C96.9491,264.71,97.4845,260.6088,98.0057,256.626Z" style="fill:#1796f9"/><path d="M372.0077,192.5h-3a24.0278,24.0278,0,0,0,22.5,23.9484V225h3v-8.5516a23.9987,23.9987,0,0,0-1.5-47.9484,3.5,3.5,0,1,1,3.5-3.5h3a6.5066,6.5066,0,0,0-5-6.3183V146.576a18.5137,18.5137,0,0,1,17,18.424h3a21.5118,21.5118,0,0,0-20-21.424V135h-3v8.576a21.491,21.491,0,0,0,1.5,42.924,6,6,0,1,1-6,6h-3a9.0074,9.0074,0,0,0,7.5,8.8645v12.06A21.0117,21.0117,0,0,1,372.0077,192.5Zm22.5,8.8645a8.9948,8.9948,0,0,0-1.5-17.8645,18.4922,18.4922,0,0,1-1.5-36.924v12.1057a6.4965,6.4965,0,0,0,1.5,12.8183,20.9884,20.9884,0,0,1,1.5,41.924v-12.06Z" style="fill:#1796f9"/><path d="M215.348,99.4927a16.3983,16.3983,0,0,0,5.7083-1.0473l0.0037,0.0087c0.0908-.0384.1836-0.07,0.2744-0.108,0.1013-.04.2046-0.0674,0.3057-0.1093l-0.0039-.01a88.6352,88.6352,0,0,1,67.7432,0l-0.0039.01c0.1011,0.0419.2041,0.0695,0.3054,0.1091,0.0911,0.0381.1838,0.07,0.2747,0.1082l0.0037-.0087a16.4356,16.4356,0,0,0,20.9744-9.1382l-2.7715-1.1484a13.5093,13.5093,0,0,1-17.3538,7.4081,91.7006,91.7006,0,0,0-70.6013,0,13.509,13.509,0,0,1-17.3535-7.4083l-2.7715,1.1484A16.5265,16.5265,0,0,0,215.348,99.4927Z" style="fill:#1796f9"/><path d="M138.597,171.3872a13.0086,13.0086,0,0,1-.6509-3.3486c-0.2344-2.09-.5-4.459-2.1108-6.0693s-3.9795-1.8765-6.07-2.1113a13.0044,13.0044,0,0,1-3.3486-.6509,12.3417,12.3417,0,0,1-2.6841-1.8369c-1.6641-1.3452-3.55-2.87-5.9287-2.87s-4.2646,1.5249-5.9287,2.87a12.3417,12.3417,0,0,1-2.6841,1.8369,13.0086,13.0086,0,0,1-3.3486.6509c-2.09.2344-4.459,0.5-6.0693,2.1108s-1.8765,3.9795-2.1113,6.07a13.0044,13.0044,0,0,1-.6509,3.3486,12.3417,12.3417,0,0,1-1.8369,2.6841c-1.3452,1.6641-2.87,3.55-2.87,5.9287s1.5249,4.2646,2.87,5.9287a12.3417,12.3417,0,0,1,1.8369,2.6841,13.0213,13.0213,0,0,1,.6509,3.3477c0.2344,2.0908.5,4.46,2.1108,6.07s3.9795,1.8765,6.07,2.1113a13.0044,13.0044,0,0,1,3.3486.6509,12.3417,12.3417,0,0,1,2.6841,1.8369c1.6641,1.3452,3.55,2.87,5.9287,2.87s4.2646-1.5249,5.9287-2.87a12.3417,12.3417,0,0,1,2.6841-1.8369,13.0086,13.0086,0,0,1,3.3486-.6509c2.09-.2344,4.459-0.5,6.0693-2.1108s1.8765-3.9795,2.1113-6.07a13.0044,13.0044,0,0,1,.6509-3.3486,12.3417,12.3417,0,0,1,1.8369-2.6841c1.3452-1.6641,2.87-3.55,2.87-5.9287s-1.5249-4.2646-2.87-5.9287A12.3417,12.3417,0,0,1,138.597,171.3872Zm-0.4961,12.6553a14.5921,14.5921,0,0,0-2.2754,3.4209,15.3027,15.3027,0,0,0-.8608,4.1636c-0.1973,1.7563-.3833,3.4155-1.251,4.2832s-2.5264,1.0537-4.2827,1.25a15.3065,15.3065,0,0,0-4.1636.8608,14.5921,14.5921,0,0,0-3.4209,2.2754c-1.4014,1.1328-2.7251,2.2031-4.0425,2.2031s-2.6411-1.07-4.0425-2.2031a14.5921,14.5921,0,0,0-3.4209-2.2754,15.3027,15.3027,0,0,0-4.1636-.8608c-1.7563-.1973-3.4155-0.3833-4.2832-1.251s-1.0537-2.5269-1.251-4.2832a15.317,15.317,0,0,0-.86-4.1631,14.5921,14.5921,0,0,0-2.2754-3.4209c-1.1328-1.4014-2.2031-2.7251-2.2031-4.0425s1.07-2.6411,2.2031-4.0425a14.5921,14.5921,0,0,0,2.2754-3.4209,15.3027,15.3027,0,0,0,.8608-4.1636c0.1973-1.7563.3833-3.4155,1.251-4.2832s2.5264-1.0537,4.2827-1.25a15.3065,15.3065,0,0,0,4.1636-.8608,14.5921,14.5921,0,0,0,3.4209-2.2754c1.4014-1.1328,2.7251-2.2031,4.0425-2.2031s2.6411,1.07,4.0425,2.2031a14.5921,14.5921,0,0,0,3.4209,2.2754,15.3027,15.3027,0,0,0,4.1636.8608c1.7563,0.1973,3.4155.3833,4.2832,1.251s1.0537,2.5264,1.25,4.2827a15.3065,15.3065,0,0,0,.8608,4.1636,14.5921,14.5921,0,0,0,2.2754,3.4209c1.1328,1.4014,2.2031,2.7251,2.2031,4.0425S139.2338,182.6411,138.1009,184.0425Z" style="fill:#1796f9"/><path d="M117.8041,171a9,9,0,1,0,9,9A9.01,9.01,0,0,0,117.8041,171Zm0,15a6,6,0,1,1,6-6A6.0066,6.0066,0,0,1,117.8041,186Z" style="fill:#1796f9"/><path d="M256.0936,233.0156l-0.6875.0024-0.6875-.0024c-4.1689-.0273-11.1309-0.0586-16.8491,5.6289-5.8877,5.8564-8.873,16.4795-8.873,31.5742,0,5.1282.1357,10.1,0.4023,14.7813,0.0017,0.0283.0027,0.0577,0.0044,0.0859A1.4969,1.4969,0,0,0,232.3946,285c0-.0289.0054-0.0566,0.0037-0.0859-0.2666-4.6489-.4019-9.5933-0.4019-14.6953,0-14.2671,2.6875-24.1743,7.9883-29.4473,4.8345-4.8081,10.7778-4.7788,14.7178-4.7559l0.7036,0.0024,0.7036-.0024c3.936-.022,9.8833-0.0527,14.7183,4.7563,5.3008,5.2729,7.9888,15.18,7.9888,29.4468,0,5.1-.1353,10.0435-0.4014,14.6953-0.0017.0293,0.0037,0.057,0.0037,0.0859a1.4965,1.4965,0,0,0,1.408,1.4976c0.0293,0.0015.0586,0.0024,0.0874,0.0024a1.5,1.5,0,0,0,1.4961-1.4141c0.0015-.0282.0027-0.0577,0.0044-0.0859,0.2661-4.6842.4019-9.6559,0.4019-14.7812,0-15.0942-2.9854-25.7173-8.873-31.5737C267.224,232.9565,260.2552,232.9893,256.0936,233.0156Z" style="fill:#1796f9"/></svg>