<svg id="Layer_1" data-name="Layer 1" xmlns="http://www.w3.org/2000/svg" viewBox="0 0 540 540"><title>bear-dollar</title><circle cx="270" cy="270" r="180" fill="#e1f0f8"/><rect x="50" y="165" width="440" height="210" rx="9" ry="9" transform="translate(-60.681 79.081) rotate(-15)" fill="#e1f0f8"/><path d="M448.936,99.374L29.724,211.7A16.519,16.519,0,0,0,18.057,231.91l52.8,197.049a16.519,16.519,0,0,0,20.208,11.667L510.276,328.3a16.519,16.519,0,0,0,11.667-20.208l-52.8-197.049A16.519,16.519,0,0,0,448.936,99.374ZM507.35,305.789a9,9,0,0,1-6.364,11.023h0L375.481,350.44a1.5,1.5,0,0,1-2.832.95c-0.023-.058-0.049-0.114-0.072-0.172l-29.394,7.877c0.008,0.047.017,0.091,0.025,0.138l-1.479.251L322.2,364.717l0.018,0.084a1.5,1.5,0,0,1-1.079,1.753l-0.085.02a1.5,1.5,0,0,1-1.748-1.082L274.851,377.4a1.5,1.5,0,0,1-2.867.857l-0.026-.082-17.891,4.794a1.5,1.5,0,0,1-.92,1.793c-0.045.017-.09,0.031-0.136,0.043a1.5,1.5,0,0,1-1.793-.927c-0.017-.045-0.031-0.088-0.047-0.133l-29.395,7.876c0.009,0.062.015,0.123,0.023,0.185a1.5,1.5,0,0,1-2.928.593L93.366,426.033a9,9,0,0,1-11.023-6.364h0L32.65,234.211a9,9,0,0,1,6.364-11.023h0L446.634,113.967a9,9,0,0,1,11.023,6.364h0Z" transform="translate(0)" fill="#fff"/><path d="M308.25,203.749a76.519,76.519,0,0,0-98.629,113.258l0.922,1.183,2.367-1.844-0.922-1.184a73.5,73.5,0,1,1,130.834-35.057l-0.207,1.486,2.971,0.413,0.206-1.485A76.437,76.437,0,0,0,308.25,203.749Z" transform="translate(0)" fill="#84c3f9"/><path d="M443.693,176.489c3.595-1.484,7.276-2.979,10.844-4.05l-0.007-.024,1.449-.388A43.549,43.549,0,0,1,402.7,141.267l0.388,1.449-0.025.007c0.857,3.626,1.4,7.561,1.915,11.416A46.676,46.676,0,0,0,443.693,176.489Z" transform="translate(0)" fill="#84c3f9"/><path d="M477.834,259.385a46.173,46.173,0,0,0-19.047,11.283,87.013,87.013,0,0,1-5.151,11.457,87.049,87.049,0,0,1-7.347,10.19,46.17,46.17,0,0,0-.248,22.136l2.861-.767,0.388,1.449a43.549,43.549,0,0,1,30.759-53.276l-1.449.388Z" transform="translate(0)" fill="#84c3f9"/><path d="M90.512,224.919A43.549,43.549,0,0,1,59.753,278.2l1.449-.388,0.767,2.861a46.173,46.173,0,0,0,19.047-11.283,87.011,87.011,0,0,1,5.151-11.457,87.046,87.046,0,0,1,7.347-10.19,46.17,46.17,0,0,0,.248-22.136l-2.861.767Z" transform="translate(0)" fill="#84c3f9"/><rect x="118.283" y="267.918" width="18" height="3" transform="translate(-65.393 42.123) rotate(-15)" fill="#84c3f9"/><rect x="137.694" y="340.363" width="18" height="3" transform="translate(-83.482 49.616) rotate(-15)" fill="#84c3f9"/><path d="M96.11,363.563c-3.595,1.484-7.276,2.979-10.844,4.05l0.007,0.024-1.449.388A43.549,43.549,0,0,1,137.1,398.785l-0.388-1.449,0.024-.007c-0.857-3.626-1.4-7.561-1.915-11.416A46.676,46.676,0,0,0,96.11,363.563Z" transform="translate(0)" fill="#84c3f9"/><path d="M448.159,96.476L28.948,208.8a19.522,19.522,0,0,0-13.789,23.883l52.8,197.049a19.522,19.522,0,0,0,23.882,13.789L511.052,331.2a19.522,19.522,0,0,0,13.789-23.882l-52.8-197.049A19.522,19.522,0,0,0,448.159,96.476ZM521.943,308.09A16.519,16.519,0,0,1,510.276,328.3L91.064,440.626a16.519,16.519,0,0,1-20.208-11.667L18.057,231.91A16.519,16.519,0,0,1,29.724,211.7L448.936,99.374a16.519,16.519,0,0,1,20.208,11.667Z" transform="translate(0)" fill="#e1f0f8"/><path d="M397.357,248.816l-11.591,3.106a21.012,21.012,0,0,0,24.251,15.164L406.9,255.437A9.007,9.007,0,0,1,397.357,248.816Z" transform="translate(0)" fill="#fffeff"/><path d="M400.615,226.2a6.5,6.5,0,0,1-4.767-11.993l-3.133-11.693a18.492,18.492,0,0,0,11.005,35.278,8.995,8.995,0,0,1,6.073,16.868l3.121,11.649A20.988,20.988,0,0,0,400.615,226.2Z" transform="translate(0)" fill="#fffeff"/><path d="M405.211,218.241l11.591-3.106a18.514,18.514,0,0,0-21.189-13.4l3.133,11.693A6.507,6.507,0,0,1,405.211,218.241Z" transform="translate(0)" fill="#fffeff"/><path d="M271.1,252.326c-5.412-1.252-11.982,1.574-13.518,5.817-1.385,3.824-.514,9.511,2.391,15.6a37.6,37.6,0,0,0,8.884,12.12l3.045-2.555a1.5,1.5,0,0,1,1.931,0c2.089,1.762,3.367,1.989,3.755,1.845a1.349,1.349,0,0,0,.5-0.915q0.238-1.573.49-3.151c0.468-2.966.952-6.034,1.27-9.033C281.026,261.076,277.839,253.885,271.1,252.326Zm2.589,8.3a7.87,7.87,0,0,1-3.369,5.163l2.295,8.565a1.5,1.5,0,0,1-2.9.777h0l-2.295-8.565a7.868,7.868,0,0,1-5.5-2.786,2.885,2.885,0,0,1-.306-3.169c0.78-1.4,3.15-2.3,5-2.81,1.876-.49,4.379-0.9,5.753-0.071A2.886,2.886,0,0,1,273.688,260.621Z" transform="translate(0)" fill="#fffeff"/><path d="M152.464,293.767a15.306,15.306,0,0,1-1.909-3.8c-0.645-1.646-1.254-3.2-2.316-3.813s-2.714-.364-4.461-0.1a15.3,15.3,0,0,1-4.244.246,14.592,14.592,0,0,1-3.893-1.312c-1.647-.732-3.2-1.423-4.475-1.082s-2.274,1.717-3.335,3.174a14.592,14.592,0,0,1-2.715,3.083,15.306,15.306,0,0,1-3.8,1.909c-1.646.645-3.2,1.254-3.813,2.316s-0.364,2.714-.1,4.461a15.3,15.3,0,0,1,.246,4.245,14.592,14.592,0,0,1-1.312,3.893c-0.731,1.647-1.423,3.2-1.082,4.475s1.717,2.274,3.174,3.335a14.592,14.592,0,0,1,3.083,2.715,15.317,15.317,0,0,1,1.909,3.8c0.645,1.645,1.254,3.2,2.317,3.814s2.714,0.364,4.461.1a15.3,15.3,0,0,1,4.244-.246,14.592,14.592,0,0,1,3.893,1.313c1.647,0.732,3.2,1.423,4.475,1.082s2.274-1.717,3.335-3.174a14.592,14.592,0,0,1,2.715-3.083,15.306,15.306,0,0,1,3.8-1.909c1.646-.645,3.2-1.254,3.813-2.316s0.364-2.714.1-4.461a15.3,15.3,0,0,1-.246-4.245,14.593,14.593,0,0,1,1.313-3.893c0.732-1.647,1.423-3.2,1.082-4.475s-1.717-2.274-3.174-3.335A14.592,14.592,0,0,1,152.464,293.767Zm-13.146,20.567a9,9,0,1,1,6.364-11.023,9,9,0,0,1-6.364,11.023h0Z" transform="translate(0)" fill="#fffeff"/><path d="M315.75,190.759l-1.5,2.6a88.467,88.467,0,0,1,33.97,118c-12.22-11.779-17.049-13.924-23.753-16.894-1.707-.756-3.467-1.535-5.515-2.551l-0.89-1.852c-3.965-16.787-9.7-36.118-17.023-48.187a30.356,30.356,0,0,1,3.126-3.778c3.084-3.337,6.579-7.12,4.747-12.6-0.911-2.727-3.419-5.02-7.062-6.455-4.335-1.71-9.271-1.761-12.287-.122-4.172,2.264-5.864,6.157-6.36,10.451-5.08-.441-10.379.343-16.382,1.4a118.106,118.106,0,0,0-12.429,3.074c-7.405,2.459-12.667,5.043-16.52,8.189-2.612-3.694-6.117-6.427-11.059-6.3-3.43.088-7.679,2.6-10.58,6.249-2.437,3.065-3.463,6.3-2.889,9.121,1.155,5.665,6.073,7.193,10.413,8.541,2.786,0.865,4.962,1.618,6.371,2.886,0,19.215,7.45,46.3,8.18,48.9l0.193,2.114c-0.736,1.1-1.468,2.145-2.2,3.189-4.11,5.858-8.335,11.893-13.286,28.241a88.465,88.465,0,0,1-29.66-119.225l-2.6-1.5a91.452,91.452,0,0,0,31.38,123.7c-0.724,2.529-1.464,5.277-2.221,8.288a5.685,5.685,0,0,0-2.231,6.007,5.233,5.233,0,0,0,.854,1.764c-0.1.658-.191,1.317-0.274,1.987a102.472,102.472,0,0,0,.561,26.226,1.46,1.46,0,0,0,.044.179,1.5,1.5,0,0,0,2.928-.593c-0.008-.062-0.015-0.123-0.023-0.185a100.694,100.694,0,0,1-.532-25.257c0.09-.73.195-1.444,0.3-2.158l0.064-.432a1.5,1.5,0,0,0-.406-1.26,2.4,2.4,0,0,1-.617-1.048,2.731,2.731,0,0,1,1.4-3,1.5,1.5,0,0,0,.7-0.935c0.98-3.924,1.928-7.407,2.849-10.519,0.043-.145.085-0.282,0.128-0.426,4.916-16.466,9.063-22.385,13.095-28.133,0.845-1.2,1.689-2.407,2.538-3.7a1.5,1.5,0,0,0,.241-0.962l-0.254-2.777a1.523,1.523,0,0,0-.05-0.271c-2.387-8.452-6.479-25.822-7.736-40.46-0.268-3.123-.4-6.116-0.37-8.877,0.018-1.377.079-2.693,0.188-3.937a26.936,26.936,0,0,1,1.144-6.08A11.179,11.179,0,0,1,236,248.265c0.382-.513.794-1.008,1.229-1.493a22.508,22.508,0,0,1,2.247-2.171c3.579-3.018,8.6-5.506,15.842-7.91a115.467,115.467,0,0,1,11.992-2.968c5.833-1.024,10.942-1.782,15.729-1.354a25.97,25.97,0,0,1,3.014.439,23.279,23.279,0,0,1,2.5.666,10.024,10.024,0,0,1,2.5,1.271,21.465,21.465,0,0,1,4.789,4.813q0.869,1.146,1.739,2.488,1.137,1.756,2.271,3.833c5.4,9.912,10.675,25.283,15.331,45.029a1.525,1.525,0,0,0,.108.306l1.183,2.462a1.5,1.5,0,0,0,.678.69c2.311,1.162,4.326,2.054,6.1,2.842,6.523,2.889,11.193,4.962,23.479,16.883l0.526,0.513c2.233,2.179,4.707,4.669,7.487,7.547a1.5,1.5,0,0,0,1.078.458,2.731,2.731,0,0,1,2.71,1.9,2.4,2.4,0,0,1-.01,1.215,1.5,1.5,0,0,0,.278,1.295l0.235,0.3c0.46,0.582.92,1.162,1.376,1.766a100.689,100.689,0,0,1,12.166,22.138c0.023,0.058.049,0.114,0.072,0.172a1.5,1.5,0,0,0,2.832-.95,1.461,1.461,0,0,0-.052-0.177A102.464,102.464,0,0,0,362.8,327.27c-0.409-.54-0.82-1.063-1.232-1.585a5.232,5.232,0,0,0-.142-1.955,5.685,5.685,0,0,0-4.935-4.087c-2.192-2.263-4.194-4.285-6.044-6.111A91.452,91.452,0,0,0,315.75,190.759Zm-24.756,30.795c2.246-1.215,6.254-1.1,9.755.277,2.763,1.089,4.7,2.771,5.317,4.615,1.269,3.8-1.222,6.5-4.105,9.617a40.662,40.662,0,0,0-2.68,3.109q-0.721-1.035-1.462-1.971c2.28-2.653,4.8-5.624,4.652-7.494-0.17-2.123-3.167-4.266-6.83-2.112a9.158,9.158,0,0,0-3.629,4.216,12.447,12.447,0,0,0-2.531-1.184,26.643,26.643,0,0,0-3.283-.841c0.409-3.5,1.718-6.561,4.8-8.232h0Zm-66.346,35.224c-4.058-1.261-7.563-2.35-8.364-6.276-0.388-1.9.449-4.33,2.3-6.655,2.342-2.947,5.758-5.051,8.31-5.117,3.76-.1,6.557,2.214,8.726,5.371a24.155,24.155,0,0,0-2.029,2.377,12.322,12.322,0,0,0-1.4,2.487,9.744,9.744,0,0,0-6.307-2.679c-4.248-.034-5.773,3.32-4.858,5.244,0.943,1.983,5.813,3.444,9.419,4.745q-0.146,1.3-.223,2.693a27.948,27.948,0,0,0-5.576-2.189h0Z" transform="translate(0)" fill="#1796f9"/><path d="M244.691,325.895a1.5,1.5,0,0,0-1.654,1.325v0c-0.958,8.737-2.044,18.64,3.383,41.129a135.873,135.873,0,0,0,4.751,15.4c0.017,0.045.031,0.088,0.047,0.133a1.5,1.5,0,0,0,1.793.927c0.046-.012.091-0.026,0.136-0.043a1.5,1.5,0,0,0,.92-1.793c-0.012-.045-0.019-0.091-0.035-0.136a133,133,0,0,1-4.7-15.191c-5.3-21.98-4.294-31.191-3.317-40.1a1.5,1.5,0,0,0-1.327-1.655h0Z" transform="translate(0)" fill="#1796f9"/><path d="M321.962,306.074l-2.419,1.775c5.3,7.225,10.779,14.7,17.177,36.384a133,133,0,0,1,3.529,15.5l1.479-.251,1.479-.251c-0.008-.047-0.017-0.091-0.025-0.138a135.879,135.879,0,0,0-3.585-15.711C333.051,321.192,327.16,313.16,321.962,306.074Z" transform="translate(0)" fill="#1796f9"/><path d="M240.163,256.661a7.343,7.343,0,0,1,.646-1.38,8.051,8.051,0,0,1,2.275-2.5,7.18,7.18,0,0,1,2.3-1.08,1.02,1.02,0,0,0-.528-1.971,9.3,9.3,0,0,0-2.522,1.089,9.548,9.548,0,0,0-2.391,2.136,10.146,10.146,0,0,0-1.733,3.118A1.02,1.02,0,1,0,240.163,256.661Z" transform="translate(0)" fill="#1796f9"/><path d="M286.732,239.957a9.636,9.636,0,0,0-3.017.125,9.251,9.251,0,0,0-2.767,1.039,1.02,1.02,0,1,0,1.013,1.772,7.258,7.258,0,0,1,2.084-.8,7.72,7.72,0,0,1,3.039-.03,7.85,7.85,0,0,1,2.081.676,1.02,1.02,0,0,0,.971-1.794A10.152,10.152,0,0,0,286.732,239.957Z" transform="translate(0)" fill="#1796f9"/><circle cx="286.591" cy="249.025" r="2" transform="translate(-54.687 82.66) rotate(-15)" fill="#1796f9"/><circle cx="245.135" cy="260.13" r="2" transform="translate(-58.972 72.306) rotate(-14.999)" fill="#1796f9"/><path d="M269.861,288.936l3.036-2.547c1.621,1.178,3.627,2.159,5.43,1.676q0.12-.032.238-0.073a3.866,3.866,0,0,0,2.462-3.176c0.006-.027.011-0.054,0.015-0.082q0.24-1.585.495-3.177c0.473-3,.963-6.109,1.289-9.182,1.936-17.979-7.083-22.055-11.051-22.973-6.866-1.588-14.976,2.09-17.014,7.718-3.8,10.493,6.334,26.96,13.267,31.889A1.5,1.5,0,0,0,269.861,288.936Zm-12.28-30.794c1.536-4.243,8.106-7.069,13.518-5.817,6.74,1.559,9.927,8.75,8.744,19.731-0.319,3-.8,6.067-1.27,9.033q-0.249,1.578-.49,3.151a1.349,1.349,0,0,1-.5.915c-0.388.144-1.666-.083-3.755-1.845a1.5,1.5,0,0,0-1.931,0l-3.045,2.555a37.6,37.6,0,0,1-8.884-12.12c-2.905-6.091-3.776-11.777-2.391-15.6h0Z" transform="translate(0)" fill="#1796f9"/><path d="M267.421,266.561l2.295,8.565a1.5,1.5,0,0,0,2.9-.777h0l-2.295-8.565a7.87,7.87,0,0,0,3.369-5.163,2.886,2.886,0,0,0-1.319-2.9c-1.375-.825-3.878-0.419-5.753.071-1.85.508-4.22,1.408-5,2.81a2.885,2.885,0,0,0,.306,3.169A7.868,7.868,0,0,0,267.421,266.561Z" transform="translate(0)" fill="#1796f9"/><path d="M458.788,270.668c0.065-.165.13-0.328,0.195-0.494,3.725-9.466,7.578-19.227,15.759-22.332l3.093,11.543,0.767,2.861,1.449-.388,1.449-.388-0.776-2.9-3.106-11.591-0.776-2.9L469.852,218l-0.776-2.9-10.87-40.569-0.776-2.9-1.449.388-1.449.388,0.007,0.024c-3.569,1.071-7.25,2.566-10.844,4.05l-0.69.285c-10.274,4.247-19.978,8.258-27.532,3.9S406.54,165.9,405.08,154.879c-0.033-.246-0.066-0.493-0.1-0.74-0.512-3.855-1.057-7.79-1.915-11.416l0.025-.007-0.388-1.449-0.388-1.449-2.9.777-43.467,11.647,0.776,2.9,43.442-11.64c0.866,3.691,1.41,7.792,1.938,11.774,1.491,11.257,3.032,22.9,11.865,28,5.165,2.982,11.019,2.687,17.089,1.061a109.592,109.592,0,0,0,13.088-4.783c3.712-1.534,7.535-3.113,11.165-4.209l10.864,40.544,0.776,2.9,7.006,26.147c-9.623,3.465-13.942,14.423-17.769,24.149a88.875,88.875,0,0,1-5.152,11.55,88.875,88.875,0,0,1-7.426,10.237c-6.509,8.178-13.839,17.4-12.029,27.463l-29.045,7.783,0.776,2.9,28.978-7.765,2.9-.777,11.591-3.106,2.9-.777-0.388-1.449-0.388-1.449-2.861.767L434.5,317.545c-1.4-8.638,5.125-16.854,11.461-24.814l0.33-.415a87.049,87.049,0,0,0,7.347-10.19A87.014,87.014,0,0,0,458.788,270.668Z" transform="translate(0)" fill="#1796f9"/><path d="M86.929,379.617l-1.449.388,0.776,2.9,1.449-.388a28.532,28.532,0,0,1,34.905,20.152L123,404.117l2.9-.776-0.388-1.449A31.536,31.536,0,0,0,86.929,379.617Z" transform="translate(0)" fill="#1796f9"/><path d="M461.079,311.975l0.388,1.449,2.9-.777-0.388-1.449a28.532,28.532,0,0,1,20.152-34.905l1.449-.388-0.776-2.9-1.449.388A31.536,31.536,0,0,0,461.079,311.975Z" transform="translate(0)" fill="#1796f9"/><path d="M78.921,228.025l-0.388-1.449-2.9.777,0.388,1.449a28.532,28.532,0,0,1-20.153,34.905l-1.449.388,0.777,2.9,1.449-.388A31.536,31.536,0,0,0,78.921,228.025Z" transform="translate(0)" fill="#1796f9"/><path d="M452.294,157.485a28.532,28.532,0,0,1-34.905-20.153L417,135.884l-2.9.777,0.388,1.449a31.536,31.536,0,0,0,38.579,22.274l1.449-.388-0.776-2.9Z" transform="translate(0)" fill="#1796f9"/><path d="M137.7,384.78c-1.491-11.257-3.032-22.9-11.865-28s-19.684-.616-30.178,3.723c-3.712,1.534-7.535,3.113-11.165,4.209L73.626,324.171l-0.777-2.9-7.006-26.147c9.623-3.465,13.942-14.423,17.769-24.149a88.872,88.872,0,0,1,5.152-11.55,88.873,88.873,0,0,1,7.426-10.237c6.509-8.178,13.839-17.4,12.029-27.463l29.045-7.783-0.776-2.9-28.978,7.765-2.9.777-11.591,3.106-2.9.777,0.388,1.449,0.388,1.449,2.861-.767,11.543-3.093c1.4,8.638-5.125,16.854-11.461,24.814l-0.33.415a87.046,87.046,0,0,0-7.347,10.19,87.01,87.01,0,0,0-5.151,11.457c-0.065.165-.13,0.328-0.195,0.494-3.725,9.466-7.578,19.227-15.759,22.332l-3.093-11.543L61.2,277.807l-1.449.388-1.449.388,0.777,2.9,3.106,11.591,0.776,2.9,6.988,26.08,0.777,2.9L81.6,365.517l0.776,2.9,1.449-.388,1.449-.388-0.007-.024c3.569-1.071,7.249-2.566,10.844-4.05l0.69-.285c10.275-4.247,19.98-8.258,27.532-3.9s8.932,14.771,10.391,25.792c0.033,0.246.066,0.493,0.1,0.74,0.512,3.855,1.058,7.79,1.915,11.416l-0.024.007,0.388,1.449,0.388,1.449,2.9-.776,43.467-11.647-0.777-2.9-43.442,11.64C138.769,392.862,138.224,388.762,137.7,384.78Z" transform="translate(0)" fill="#1796f9"/><path d="M385.766,251.922l-1.449.388-1.449.388A24.028,24.028,0,0,0,410.8,270.007l2.213,8.26,2.9-.777-2.213-8.26A24,24,0,0,0,399.838,223.3a3.5,3.5,0,1,1,2.475-4.287l1.449-.388,1.449-.388a6.507,6.507,0,0,0-6.465-4.809l-3.133-11.693a18.514,18.514,0,0,1,21.189,13.4l1.449-.388,1.449-.388a21.512,21.512,0,0,0-24.863-15.518l-2.22-8.284-2.9.776,2.22,8.284A21.491,21.491,0,0,0,404.5,240.691a6,6,0,1,1-4.243,7.348l-1.449.388-1.449.388a9.007,9.007,0,0,0,9.539,6.621l3.121,11.649A21.012,21.012,0,0,1,385.766,251.922Zm24.028,2.739a8.995,8.995,0,0,0-6.073-16.868,18.492,18.492,0,0,1-11.005-35.278l3.133,11.693a6.5,6.5,0,0,0,4.767,11.993,20.988,20.988,0,0,1,12.3,40.107Z" transform="translate(0)" fill="#1796f9"/><path d="M210.372,202.63a16.4,16.4,0,0,0,5.243-2.489l0.006,0.007c0.078-.061.159-0.115,0.237-0.175s0.18-.118.267-0.185l-0.006-.008a88.635,88.635,0,0,1,65.434-17.533v0.01c0.108,0.014.215,0.014,0.323,0.026s0.2,0.02.293,0.033v-0.009a16.436,16.436,0,0,0,17.895-14.255l-2.974-.392a13.509,13.509,0,0,1-14.845,11.647,91.7,91.7,0,0,0-68.2,18.273,13.509,13.509,0,0,1-18.68-2.664l-2.38,1.827A16.526,16.526,0,0,0,210.372,202.63Z" transform="translate(0)" fill="#1796f9"/><path d="M154.844,291.939a13.009,13.009,0,0,1-1.5-3.066c-0.767-1.958-1.637-4.178-3.61-5.316s-4.33-.783-6.41-0.468a13,13,0,0,1-3.4.238,12.342,12.342,0,0,1-3.068-1.08c-1.955-.869-4.172-1.853-6.47-1.238s-3.725,2.577-4.984,4.307a12.342,12.342,0,0,1-2.117,2.469,13.009,13.009,0,0,1-3.066,1.5c-1.958.767-4.177,1.637-5.316,3.61s-0.783,4.33-.468,6.41a13,13,0,0,1,.238,3.4,12.342,12.342,0,0,1-1.08,3.068c-0.869,1.956-1.853,4.172-1.238,6.47s2.577,3.725,4.307,4.984a12.341,12.341,0,0,1,2.469,2.117,13.021,13.021,0,0,1,1.5,3.065c0.768,1.959,1.637,4.179,3.61,5.317s4.33,0.783,6.41.468a13,13,0,0,1,3.4-.238,12.342,12.342,0,0,1,3.068,1.08c1.955,0.869,4.172,1.853,6.47,1.238s3.725-2.577,4.984-4.307a12.341,12.341,0,0,1,2.117-2.469,13.009,13.009,0,0,1,3.067-1.5c1.958-.767,4.178-1.637,5.316-3.61s0.783-4.33.468-6.41a13,13,0,0,1-.238-3.4,12.342,12.342,0,0,1,1.08-3.068c0.869-1.956,1.853-4.172,1.238-6.47s-2.577-3.725-4.307-4.984A12.342,12.342,0,0,1,154.844,291.939Zm2.8,12.352a14.592,14.592,0,0,0-1.312,3.893,15.3,15.3,0,0,0,.246,4.245c0.264,1.748.514,3.4-.1,4.461s-2.168,1.672-3.813,2.316a15.306,15.306,0,0,0-3.8,1.909,14.592,14.592,0,0,0-2.715,3.083c-1.06,1.457-2.062,2.833-3.335,3.174s-2.828-.35-4.475-1.082a14.592,14.592,0,0,0-3.893-1.312,15.3,15.3,0,0,0-4.244.246c-1.748.264-3.4,0.514-4.461-.1s-1.672-2.168-2.317-3.814a15.317,15.317,0,0,0-1.909-3.8,14.592,14.592,0,0,0-3.083-2.715c-1.457-1.06-2.833-2.062-3.174-3.335s0.35-2.828,1.082-4.475a14.592,14.592,0,0,0,1.313-3.893,15.3,15.3,0,0,0-.246-4.245c-0.264-1.748-.514-3.4.1-4.461s2.168-1.672,3.813-2.316a15.306,15.306,0,0,0,3.8-1.909,14.592,14.592,0,0,0,2.715-3.083c1.06-1.457,2.062-2.833,3.335-3.174s2.828,0.35,4.475,1.082a14.592,14.592,0,0,0,3.893,1.313,15.3,15.3,0,0,0,4.245-.246c1.748-.264,3.4-0.514,4.461.1s1.672,2.168,2.316,3.813a15.306,15.306,0,0,0,1.909,3.8,14.592,14.592,0,0,0,3.083,2.715c1.457,1.06,2.833,2.062,3.174,3.335s-0.35,2.828-1.082,4.475h0Z" transform="translate(0)" fill="#1796f9"/><path d="M134.659,296.947a9,9,0,1,0,11.023,6.364A9,9,0,0,0,134.659,296.947Zm3.882,14.489a6,6,0,1,1,4.243-7.348,6,6,0,0,1-4.243,7.348h0Z" transform="translate(0)" fill="#1796f9"/><path d="M284.287,321.057l-0.663.18-0.665.176c-4.034,1.053-10.767,2.824-14.818,9.8-4.171,7.181-4.305,18.215-.4,32.795,1.327,4.953,2.745,9.721,4.214,14.173,0.009,0.027.017,0.055,0.026,0.082a1.5,1.5,0,0,0,2.867-.857c-0.008-.028-0.009-0.056-0.019-0.084-1.461-4.422-2.871-9.162-4.192-14.091-3.693-13.781-3.661-24.046.095-30.511,3.425-5.9,9.174-7.406,12.985-8.4l0.68-.18,0.679-.184c3.8-1.04,9.533-2.609,15.448.785,6.485,3.721,11.646,12.6,15.338,26.376,1.32,4.926,2.469,9.736,3.416,14.3,0.006,0.029.018,0.054,0.026,0.082a1.5,1.5,0,0,0,1.748,1.082l0.085-.02a1.5,1.5,0,0,0,1.079-1.753l-0.018-.084c-0.955-4.594-2.111-9.431-3.437-14.382-3.907-14.58-9.54-24.068-16.743-28.2C295.023,318.12,288.3,319.955,284.287,321.057Z" transform="translate(0)" fill="#1796f9"/><rect x="50" y="165" width="440" height="210" rx="9" ry="9" fill="#e1f0f8"/><path d="M487,151.5H53A16.519,16.519,0,0,0,36.5,168V372A16.519,16.519,0,0,0,53,388.5H487A16.519,16.519,0,0,0,503.5,372V168A16.519,16.519,0,0,0,487,151.5ZM490,366a9,9,0,0,1-9,9H351.067a1.5,1.5,0,0,1-2.982.185c-0.008-.062-0.018-0.123-0.025-0.185H317.629c0,0.047-.007.092-0.011,0.14l-1.494-.14H295.907c0,0.028,0,.058,0,0.086a1.5,1.5,0,0,1-1.5,1.414l-0.087,0a1.5,1.5,0,0,1-1.408-1.5H246.887a1.5,1.5,0,0,1-2.992.086c0-.028,0-0.058,0-0.086H225.369a1.5,1.5,0,0,1-1.352,1.494c-0.047,0-.095.006-0.142,0.006a1.5,1.5,0,0,1-1.492-1.36c0-.048-0.007-0.093-0.011-0.14H191.94c-0.008.062-.018,0.123-0.025,0.185a1.5,1.5,0,0,1-2.982-.185H59a9,9,0,0,1-9-9V174a9,9,0,0,1,9-9H481a9,9,0,0,1,9,9V366Z" transform="translate(0)" fill="#fff"/><path d="M324.094,215.906a76.519,76.519,0,0,0-124.581,83.871l0.584,1.381,2.763-1.169-0.585-1.382a73.5,73.5,0,1,1,135.449,0l-0.585,1.382,2.763,1.169,0.584-1.381A76.437,76.437,0,0,0,324.094,215.906Z" transform="translate(0)" fill="#84c3f9"/><path d="M461.977,224.631c3.856-.5,7.8-0.995,11.523-1.105V223.5H475A43.549,43.549,0,0,1,431.5,180v1.5h-0.025c-0.11,3.724-.6,7.667-1.105,11.523A46.676,46.676,0,0,0,461.977,224.631Z" transform="translate(0)" fill="#84c3f9"/><path d="M473.5,313.538a46.173,46.173,0,0,0-21.318,5.969,87.011,87.011,0,0,1-7.941,9.734,87.045,87.045,0,0,1-9.734,7.941,46.17,46.17,0,0,0-5.969,21.318H431.5V360A43.549,43.549,0,0,1,475,316.5h-1.5v-2.962Z" transform="translate(0)" fill="#84c3f9"/><path d="M108.3,180a43.549,43.549,0,0,1-43.5,43.5h1.5v2.962a46.173,46.173,0,0,0,21.318-5.969,87.011,87.011,0,0,1,7.941-9.734,87.047,87.047,0,0,1,9.734-7.941,46.17,46.17,0,0,0,5.969-21.318H108.3V180Z" transform="translate(0)" fill="#84c3f9"/><rect x="123.296" y="231" width="18" height="3" fill="#84c3f9"/><rect x="123.296" y="306" width="18" height="3" fill="#84c3f9"/><path d="M77.819,315.369c-3.856.5-7.8,0.995-11.523,1.105V316.5H64.8A43.549,43.549,0,0,1,108.3,360v-1.5h0.025c0.11-3.724.6-7.667,1.105-11.523A46.676,46.676,0,0,0,77.819,315.369Z" transform="translate(0)" fill="#84c3f9"/><path d="M487,148.5H53A19.522,19.522,0,0,0,33.5,168V372A19.522,19.522,0,0,0,53,391.5H487A19.522,19.522,0,0,0,506.5,372V168A19.522,19.522,0,0,0,487,148.5ZM503.5,372A16.519,16.519,0,0,1,487,388.5H53A16.519,16.519,0,0,1,36.5,372V168A16.519,16.519,0,0,1,53,151.5H487A16.519,16.519,0,0,1,503.5,168V372Z" transform="translate(0)" fill="#e1f0f8"/><path d="M398.5,282.5h-12A21.012,21.012,0,0,0,406,303.424v-12.06A9.007,9.007,0,0,1,398.5,282.5Z" transform="translate(0)" fill="#fffeff"/><path d="M407.5,261.5a6.5,6.5,0,0,1-1.5-12.818V236.576a18.492,18.492,0,0,0,1.5,36.924,8.995,8.995,0,0,1,1.5,17.865v12.06A20.988,20.988,0,0,0,407.5,261.5Z" transform="translate(0)" fill="#fffeff"/><path d="M414,255h12a18.514,18.514,0,0,0-17-18.424v12.106A6.507,6.507,0,0,1,414,255Z" transform="translate(0)" fill="#fffeff"/><path d="M275.636,253.212c-4.9-2.61-11.981-1.581-14.562,2.12-2.328,3.335-2.958,9.054-1.729,15.689a37.6,37.6,0,0,0,5.444,14.006l3.6-1.68a1.5,1.5,0,0,1,1.865.5c1.562,2.243,2.737,2.792,3.149,2.754a1.349,1.349,0,0,0,.715-0.756q0.637-1.457,1.289-2.917c1.22-2.744,2.481-5.582,3.565-8.4C282.96,264.233,281.742,256.462,275.636,253.212Zm0.353,8.683a7.87,7.87,0,0,1-4.591,4.115v8.867a1.5,1.5,0,0,1-3,0V266.01a7.868,7.868,0,0,1-4.591-4.115,2.885,2.885,0,0,1,.524-3.141c1.117-1.152,3.638-1.408,5.557-1.42,1.939,0.012,4.461.268,5.576,1.42a2.886,2.886,0,0,1,.524,3.141h0Z" transform="translate(0)" fill="#fffeff"/><path d="M150.318,262.537a15.306,15.306,0,0,1-.861-4.164c-0.2-1.756-.383-3.415-1.25-4.283s-2.527-1.054-4.283-1.251a15.3,15.3,0,0,1-4.164-.861,14.592,14.592,0,0,1-3.421-2.275c-1.4-1.133-2.725-2.2-4.043-2.2s-2.641,1.07-4.043,2.2a14.592,14.592,0,0,1-3.421,2.275,15.307,15.307,0,0,1-4.164.861c-1.756.2-3.415,0.383-4.283,1.25s-1.054,2.527-1.251,4.283a15.3,15.3,0,0,1-.861,4.164A14.592,14.592,0,0,1,112,265.957c-1.133,1.4-2.2,2.725-2.2,4.042s1.07,2.641,2.2,4.042a14.592,14.592,0,0,1,2.275,3.421,15.317,15.317,0,0,1,.86,4.163c0.2,1.756.383,3.415,1.251,4.283s2.527,1.054,4.283,1.251a15.3,15.3,0,0,1,4.164.861,14.592,14.592,0,0,1,3.421,2.275c1.4,1.133,2.725,2.2,4.043,2.2s2.641-1.07,4.043-2.2a14.592,14.592,0,0,1,3.421-2.275,15.306,15.306,0,0,1,4.164-.861c1.756-.2,3.415-0.383,4.283-1.25s1.054-2.527,1.251-4.283a15.3,15.3,0,0,1,.861-4.164,14.592,14.592,0,0,1,2.275-3.421c1.133-1.4,2.2-2.725,2.2-4.042s-1.07-2.641-2.2-4.042A14.592,14.592,0,0,1,150.318,262.537ZM132.3,279a9,9,0,1,1,9-9A9,9,0,0,1,132.3,279Z" transform="translate(0)" fill="#fffeff"/><path d="M334.7,205.3l-2.121,2.121A88.467,88.467,0,0,1,334.85,330.2c-8.755-14.541-12.864-17.863-18.571-22.466-1.453-1.172-2.952-2.38-4.667-3.892l-0.38-2.02c0.514-17.241-.017-37.4-3.971-50.951a30.354,30.354,0,0,1,4-2.84c3.843-2.425,8.2-5.174,7.848-10.945-0.174-2.87-2-5.733-5.151-8.063-3.745-2.773-8.5-4.1-11.836-3.3-4.616,1.107-7.258,4.429-8.848,8.449-4.793-1.74-10.114-2.355-16.185-2.891a118.108,118.108,0,0,0-12.8-.248c-7.789.459-13.541,1.593-18.077,3.634-1.567-4.244-4.245-7.791-9.052-8.945-3.335-.8-8.09.525-11.836,3.3-3.148,2.33-4.977,5.193-5.151,8.063-0.351,5.77,4,8.52,7.847,10.945,2.467,1.557,4.375,2.847,5.407,4.437-4.976,18.56-4.786,46.648-4.755,49.352l-0.36,2.092c-1,.874-1.974,1.692-2.951,2.511-5.486,4.6-11.129,9.33-20.143,23.84a88.465,88.465,0,0,1,2.209-122.839L205.3,205.3a91.452,91.452,0,0,0-1.706,127.609c-1.354,2.255-2.78,4.719-4.29,7.431a5.685,5.685,0,0,0-3.71,5.225,5.234,5.234,0,0,0,.369,1.925c-0.263.611-.525,1.223-0.779,1.849a102.472,102.472,0,0,0-6.246,25.478,1.459,1.459,0,0,0,0,.185,1.5,1.5,0,0,0,2.982.185c0.008-.062.018-0.123,0.025-0.185a100.7,100.7,0,0,1,6.023-24.534c0.276-.682.562-1.344,0.848-2.007l0.173-.4a1.5,1.5,0,0,0-.066-1.322,2.4,2.4,0,0,1-.324-1.172,2.731,2.731,0,0,1,2.126-2.536,1.5,1.5,0,0,0,.922-0.721c1.962-3.536,3.78-6.656,5.475-9.424,0.079-.129.156-0.25,0.234-0.378,9.01-14.633,14.548-19.277,19.93-23.786,1.127-.944,2.254-1.888,3.409-2.915a1.5,1.5,0,0,0,.482-0.867l0.473-2.749a1.522,1.522,0,0,0,.022-0.274c-0.119-8.782.425-26.619,3-41.083,0.549-3.086,1.192-6.012,1.94-8.67,0.373-1.326.773-2.58,1.2-3.754a26.937,26.937,0,0,1,2.679-5.576,11.179,11.179,0,0,1,2.294-2.625c0.5-.4,1.028-0.768,1.573-1.124a22.511,22.511,0,0,1,2.733-1.515c4.238-1.989,9.735-3.092,17.349-3.54a115.467,115.467,0,0,1,12.351.237c5.9,0.521,11.03,1.111,15.543,2.763a25.975,25.975,0,0,1,2.8,1.2,23.279,23.279,0,0,1,2.24,1.289,10.024,10.024,0,0,1,2.089,1.876,21.465,21.465,0,0,1,3.38,5.888q0.543,1.332,1.036,2.853,0.644,1.99,1.2,4.29c2.646,10.971,3.768,27.184,3.154,47.463a1.524,1.524,0,0,0,.025.323l0.506,2.684a1.5,1.5,0,0,0,.477.842c1.931,1.72,3.647,3.1,5.16,4.324,5.553,4.479,9.528,7.69,18.309,22.385,0.124,0.208.25,0.419,0.376,0.632,1.592,2.682,3.338,5.729,5.279,9.227a1.5,1.5,0,0,0,.922.721,2.731,2.731,0,0,1,2.126,2.536,2.4,2.4,0,0,1-.324,1.171,1.5,1.5,0,0,0-.066,1.323l0.15,0.347c0.294,0.681.588,1.361,0.872,2.062A100.69,100.69,0,0,1,348.06,375c0.008,0.062.018,0.123,0.025,0.185a1.5,1.5,0,0,0,2.982-.185,1.456,1.456,0,0,0,0-.185,102.464,102.464,0,0,0-6.245-25.477c-0.255-.627-0.517-1.239-0.78-1.85a5.232,5.232,0,0,0,.369-1.925,5.685,5.685,0,0,0-3.71-5.225c-1.532-2.753-2.942-5.224-4.257-7.467A91.452,91.452,0,0,0,334.7,205.3Zm-31.883,23.338c2.484-.592,6.327.553,9.351,2.792,2.387,1.767,3.824,3.893,3.942,5.833,0.242,4-2.861,5.958-6.455,8.227a40.658,40.658,0,0,0-3.393,2.31q-0.429-1.186-.9-2.282c2.889-1.973,6.094-4.19,6.433-6.034,0.385-2.094-1.955-4.94-6.051-3.807a9.158,9.158,0,0,0-4.6,3.132,12.447,12.447,0,0,0-2.139-1.8,26.64,26.64,0,0,0-2.954-1.663c1.3-3.272,3.358-5.893,6.763-6.71h0Zm-73.2,16.852c-3.594-2.268-6.7-4.227-6.455-8.227,0.118-1.94,1.555-4.066,3.942-5.833,3.025-2.24,6.87-3.389,9.351-2.792,3.657,0.877,5.761,3.835,7.039,7.446a24.156,24.156,0,0,0-2.575,1.771,12.322,12.322,0,0,0-1.992,2.041,9.744,9.744,0,0,0-5.4-4.22c-4.094-1.133-6.436,1.713-6.05,3.807,0.4,2.16,4.724,4.831,7.87,7.021q-0.478,1.221-.912,2.543A27.948,27.948,0,0,0,229.615,245.49Z" transform="translate(0)" fill="#1796f9"/><path d="M231.086,317.439a1.5,1.5,0,0,0-1.941.852v0c-3.186,8.191-6.8,17.476-7.377,40.6a135.877,135.877,0,0,0,.6,16.1c0,0.047.007,0.092,0.011,0.14a1.5,1.5,0,0,0,1.492,1.36q0.071,0,.142-0.006A1.5,1.5,0,0,0,225.369,375c0-.047.005-0.093,0-0.14a133,133,0,0,1-.6-15.888c0.566-22.6,3.925-31.239,7.174-39.59a1.5,1.5,0,0,0-.853-1.942h0Z" transform="translate(0)" fill="#1796f9"/><path d="M310.855,318.294l-2.8,1.088c3.249,8.35,6.608,16.984,7.174,39.59a132.993,132.993,0,0,1-.6,15.888l1.494,0.14,1.494,0.14c0-.048.007-0.093,0.011-0.14a135.878,135.878,0,0,0,.6-16.1C317.653,335.766,314.042,326.483,310.855,318.294Z" transform="translate(0)" fill="#1796f9"/><path d="M244.632,249.393a7.343,7.343,0,0,1,.981-1.165,8.051,8.051,0,0,1,2.844-1.825,7.18,7.18,0,0,1,2.5-.448,1.02,1.02,0,1,0,0-2.041,9.3,9.3,0,0,0-2.718.4,9.548,9.548,0,0,0-2.862,1.444,10.146,10.146,0,0,0-2.481,2.563,1.02,1.02,0,1,0,1.736,1.072h0Z" transform="translate(0)" fill="#1796f9"/><path d="M293.938,245.311a9.636,9.636,0,0,0-2.947-.66,9.251,9.251,0,0,0-2.942.288,1.02,1.02,0,1,0,.52,1.973,7.258,7.258,0,0,1,2.22-.233,7.72,7.72,0,0,1,2.943.758,7.849,7.849,0,0,1,1.835,1.191,1.02,1.02,0,1,0,1.4-1.482A10.152,10.152,0,0,0,293.938,245.311Z" transform="translate(0)" fill="#1796f9"/><circle cx="291.454" cy="254.034" r="2" fill="#1796f9"/><circle cx="248.546" cy="254.034" r="2" fill="#1796f9"/><path d="M264.965,288.255l3.592-1.675c1.261,1.557,2.945,3.024,4.811,3.024q0.124,0,.249-0.009a3.866,3.866,0,0,0,3.2-2.431c0.013-.024.024-0.05,0.036-0.075q0.642-1.469,1.3-2.94c1.234-2.779,2.511-5.652,3.622-8.536,6.523-16.865-1.133-23.137-4.728-25.05-6.221-3.311-15.006-1.857-18.432,3.052-6.388,9.151-.859,27.681,4.561,34.236A1.5,1.5,0,0,0,264.965,288.255Zm-3.891-32.923c2.581-3.7,9.659-4.73,14.563-2.12,6.106,3.25,7.324,11.021,3.339,21.322-1.084,2.815-2.345,5.653-3.565,8.4q-0.649,1.46-1.289,2.917a1.349,1.349,0,0,1-.715.756c-0.412.039-1.588-.511-3.149-2.754a1.5,1.5,0,0,0-1.865-.5l-3.6,1.68a37.6,37.6,0,0,1-5.444-14.006C258.115,264.386,258.746,258.668,261.074,255.333Z" transform="translate(0)" fill="#1796f9"/><path d="M268.4,266.01v8.867a1.5,1.5,0,1,0,3,0V266.01a7.87,7.87,0,0,0,4.591-4.115,2.886,2.886,0,0,0-.524-3.14c-1.114-1.153-3.637-1.409-5.576-1.42-1.919.012-4.44,0.268-5.557,1.42a2.885,2.885,0,0,0-.524,3.141A7.868,7.868,0,0,0,268.4,266.01Z" transform="translate(0)" fill="#1796f9"/><path d="M452.182,319.507l0.316-.426c6.048-8.18,12.3-16.611,21-17.493V316.5h3v-93h-3v0.025c-3.724.111-7.667,0.6-11.523,1.105l-0.74.1c-11.023,1.443-21.435,2.806-27.6-3.361s-4.8-16.579-3.361-27.6c0.032-.246.064-0.494,0.1-0.74,0.5-3.856.995-7.8,1.105-11.523H431.5v-3h-48v3h44.974c-0.119,3.79-.655,7.891-1.176,11.874-1.474,11.259-3,22.9,4.215,30.113,4.217,4.217,9.948,5.448,16.232,5.448a109.591,109.591,0,0,0,13.88-1.233c3.983-.521,8.085-1.057,11.874-1.176V298.57c-10.192.857-17.2,10.323-23.414,18.727a88.872,88.872,0,0,1-7.966,9.823,88.873,88.873,0,0,1-9.823,7.966c-8.4,6.214-17.87,13.222-18.727,23.414H383.5v3h48v-3H416.588c0.882-8.706,9.313-14.954,17.493-21l0.427-.316a87.045,87.045,0,0,0,9.734-7.941A87.01,87.01,0,0,0,452.182,319.507Z" transform="translate(0)" fill="#1796f9"/><path d="M64.8,328.5H63.3v3h1.5A28.532,28.532,0,0,1,93.3,360v1.5h3V360A31.536,31.536,0,0,0,64.8,328.5Z" transform="translate(0)" fill="#1796f9"/><path d="M443.7,360v1.5h3V360a28.532,28.532,0,0,1,28.5-28.5h1.5v-3h-1.5A31.536,31.536,0,0,0,443.7,360Z" transform="translate(0)" fill="#1796f9"/><path d="M96.3,180v-1.5h-3V180a28.532,28.532,0,0,1-28.5,28.5H63.3v3h1.5A31.536,31.536,0,0,0,96.3,180Z" transform="translate(0)" fill="#1796f9"/><path d="M475.2,208.5A28.532,28.532,0,0,1,446.7,180v-1.5h-3V180a31.536,31.536,0,0,0,31.5,31.5h1.5v-3h-1.5Z" transform="translate(0)" fill="#1796f9"/><path d="M112.5,346.626c1.474-11.259,3-22.9-4.215-30.113S89.429,310.824,78.17,312.3c-3.983.521-8.084,1.057-11.874,1.176V241.43c10.192-.857,17.2-10.323,23.414-18.727a88.873,88.873,0,0,1,7.966-9.823,88.872,88.872,0,0,1,9.823-7.966c8.4-6.214,17.87-13.222,18.727-23.414H156.3v-3h-48v3h14.912c-0.882,8.706-9.313,14.954-17.493,21l-0.426.316a87.047,87.047,0,0,0-9.734,7.941,87.011,87.011,0,0,0-7.941,9.734l-0.316.426c-6.048,8.18-12.3,16.611-21,17.493V223.5h-3v93h3v-0.025c3.724-.111,7.667-0.6,11.523-1.105l0.74-.1c11.024-1.442,21.436-2.805,27.6,3.361s4.8,16.579,3.361,27.6c-0.032.246-.064,0.494-0.1,0.74-0.5,3.856-.995,7.8-1.105,11.523H108.3v3h48v-3H111.322C111.441,354.71,111.977,350.609,112.5,346.626Z" transform="translate(0)" fill="#1796f9"/><path d="M386.5,282.5h-3A24.028,24.028,0,0,0,406,306.448V315h3v-8.552a24,24,0,0,0-1.5-47.948A3.5,3.5,0,1,1,411,255h3a6.507,6.507,0,0,0-5-6.318V236.576A18.514,18.514,0,0,1,426,255h3a21.512,21.512,0,0,0-20-21.424V225h-3v8.576a21.491,21.491,0,0,0,1.5,42.924,6,6,0,1,1-6,6h-3a9.007,9.007,0,0,0,7.5,8.865v12.06A21.012,21.012,0,0,1,386.5,282.5Zm22.5,8.865a8.995,8.995,0,0,0-1.5-17.865,18.492,18.492,0,0,1-1.5-36.924v12.106a6.5,6.5,0,0,0,1.5,12.818,20.988,20.988,0,0,1,1.5,41.924v-12.06h0Z" transform="translate(0)" fill="#1796f9"/><path d="M229.84,189.493a16.4,16.4,0,0,0,5.708-1.047l0,0.009c0.091-.038.184-0.07,0.274-0.108s0.2-.067.306-0.109l0-.01a88.635,88.635,0,0,1,67.743,0l0,0.01c0.1,0.042.2,0.07,0.305,0.109s0.184,0.07.275,0.108l0-.009a16.436,16.436,0,0,0,20.974-9.138l-2.772-1.148a13.509,13.509,0,0,1-17.354,7.408,91.7,91.7,0,0,0-70.6,0,13.509,13.509,0,0,1-17.354-7.408l-2.771,1.148A16.526,16.526,0,0,0,229.84,189.493Z" transform="translate(0)" fill="#1796f9"/><path d="M153.089,261.387a13.008,13.008,0,0,1-.651-3.349c-0.234-2.09-.5-4.459-2.111-6.069s-3.98-1.876-6.07-2.111a13,13,0,0,1-3.349-.651,12.342,12.342,0,0,1-2.684-1.837c-1.664-1.345-3.55-2.87-5.929-2.87s-4.265,1.525-5.929,2.87a12.342,12.342,0,0,1-2.684,1.837,13.009,13.009,0,0,1-3.349.651c-2.09.234-4.459,0.5-6.069,2.111s-1.877,3.98-2.111,6.07a13,13,0,0,1-.651,3.349,12.342,12.342,0,0,1-1.837,2.684c-1.345,1.664-2.87,3.55-2.87,5.929s1.525,4.265,2.87,5.929a12.342,12.342,0,0,1,1.837,2.684,13.021,13.021,0,0,1,.651,3.348c0.234,2.091.5,4.46,2.111,6.07s3.979,1.876,6.07,2.111a13,13,0,0,1,3.349.651,12.342,12.342,0,0,1,2.684,1.837c1.664,1.345,3.55,2.87,5.929,2.87s4.265-1.525,5.929-2.87a12.342,12.342,0,0,1,2.684-1.837,13.008,13.008,0,0,1,3.349-.651c2.09-.234,4.459-0.5,6.069-2.111s1.876-3.98,2.111-6.07a13,13,0,0,1,.651-3.349,12.342,12.342,0,0,1,1.837-2.684c1.345-1.664,2.87-3.55,2.87-5.929s-1.525-4.265-2.87-5.929A12.342,12.342,0,0,1,153.089,261.387Zm-0.5,12.655a14.592,14.592,0,0,0-2.275,3.421,15.3,15.3,0,0,0-.861,4.164c-0.2,1.756-.383,3.415-1.251,4.283s-2.526,1.054-4.283,1.25a15.307,15.307,0,0,0-4.164.861,14.592,14.592,0,0,0-3.421,2.275c-1.4,1.133-2.725,2.2-4.043,2.2s-2.641-1.07-4.043-2.2a14.592,14.592,0,0,0-3.421-2.275,15.3,15.3,0,0,0-4.164-.861c-1.756-.2-3.415-0.383-4.283-1.251s-1.054-2.527-1.251-4.283a15.317,15.317,0,0,0-.86-4.163A14.592,14.592,0,0,0,112,274.042c-1.133-1.4-2.2-2.725-2.2-4.042s1.07-2.641,2.2-4.042a14.592,14.592,0,0,0,2.275-3.421,15.3,15.3,0,0,0,.861-4.164c0.2-1.756.383-3.415,1.251-4.283s2.526-1.054,4.283-1.25a15.307,15.307,0,0,0,4.164-.861,14.592,14.592,0,0,0,3.421-2.275c1.4-1.133,2.725-2.2,4.043-2.2s2.641,1.07,4.043,2.2a14.592,14.592,0,0,0,3.421,2.275,15.3,15.3,0,0,0,4.164.861c1.756,0.2,3.415.383,4.283,1.251s1.054,2.526,1.25,4.283a15.306,15.306,0,0,0,.861,4.164,14.592,14.592,0,0,0,2.275,3.421c1.133,1.4,2.2,2.725,2.2,4.042s-1.07,2.641-2.2,4.042h0Z" transform="translate(0)" fill="#1796f9"/><path d="M132.3,261a9,9,0,1,0,9,9A9,9,0,0,0,132.3,261Zm0,15a6,6,0,1,1,6-6A6,6,0,0,1,132.3,276Z" transform="translate(0)" fill="#1796f9"/><path d="M270.586,323.016l-0.687,0-0.687,0c-4.169-.027-11.131-0.059-16.849,5.629-5.888,5.856-8.873,16.479-8.873,31.574,0,5.128.136,10.1,0.4,14.781,0,0.028,0,.058,0,0.086a1.5,1.5,0,0,0,2.991-.086c0-.029.005-0.057,0-0.086-0.267-4.649-.4-9.593-0.4-14.7,0-14.267,2.688-24.174,7.988-29.447,4.835-4.808,10.778-4.779,14.718-4.756l0.7,0,0.7,0c3.936-.022,9.883-0.053,14.718,4.756,5.3,5.273,7.989,15.18,7.989,29.447,0,5.1-.135,10.043-0.4,14.7,0,0.029,0,.057,0,0.086a1.5,1.5,0,0,0,1.408,1.5l0.087,0a1.5,1.5,0,0,0,1.5-1.414c0-.028,0-0.058,0-0.086,0.266-4.684.4-9.656,0.4-14.781,0-15.094-2.985-25.717-8.873-31.574C281.716,322.956,274.747,322.989,270.586,323.016Z" transform="translate(0)" fill="#1796f9"/><rect width="540" height="540" fill="none"/></svg>