<svg xmlns="http://www.w3.org/2000/svg" viewBox="0 0 20 20"><title>gcp</title><path d="M7.2,5.154h9.336L15.018,2.513a1.219,1.219,0,0,0-1.057-.61H6.039a1.219,1.219,0,0,0-1.057.61L2.528,6.795,7.194,14.9V5.154h0Z" style="fill:#4285f4"/><path d="M7.2,14.9L2.528,6.795,1.021,9.419a1.219,1.219,0,0,0,0,1.212l3.961,6.906a1.219,1.219,0,0,0,1.057.615h4.9l4.672-8.125Z" style="fill:#ffcd40"/><path d="M16.53,5.154H7.2l8.417,4.875L10.94,18.153h3.02a1.219,1.219,0,0,0,1.057-.61l3.961-6.906a1.219,1.219,0,0,0,0-1.212Z" style="fill:#db4437"/><polygon points="15.613 10.029 12.807 14.903 7.195 14.903 4.388 10.029 7.195 5.154 12.806 5.154 15.613 10.029" style="fill:#ebebeb"/><circle cx="9.952" cy="10.045" r="2.437" style="fill:#fff"/></svg>