<svg xmlns="http://www.w3.org/2000/svg" viewBox="0 0 548 506"><title>rocket</title><path d="M127.84,487.2656L7.66,279.1086a30,30,0,0,1,0-30L127.84,40.9516a30,30,0,0,1,25.9808-15h240.359a30,30,0,0,1,25.9808,15L540.34,249.1086a30,30,0,0,1,0,30L420.16,487.2656a30,30,0,0,1-25.9808,15H153.8205A30,30,0,0,1,127.84,487.2656Z" style="fill:#f4e9ff"/><line x1="418.5001" y1="418.8932" x2="400.5001" y2="418.8932" style="fill:none;stroke:#c192ea;stroke-linecap:round;stroke-miterlimit:10;stroke-width:3px"/><line x1="409.5001" y1="427.8932" x2="409.5001" y2="409.8932" style="fill:none;stroke:#c192ea;stroke-linecap:round;stroke-miterlimit:10;stroke-width:3px"/><line x1="466.988" y1="319.3096" x2="457.988" y2="328.3096" style="fill:none;stroke:#c192ea;stroke-linecap:round;stroke-miterlimit:10;stroke-width:3px"/><line x1="466.988" y1="328.3096" x2="457.988" y2="319.3096" style="fill:none;stroke:#c192ea;stroke-linecap:round;stroke-miterlimit:10;stroke-width:3px"/><path d="M452,201.8307a11.3669,11.3669,0,0,1,11.3669-11.3669" style="fill:none;stroke:#c192ea;stroke-linecap:round;stroke-miterlimit:10;stroke-width:3px"/><path d="M452,201.8307a11.3669,11.3669,0,0,1,16.0752,0" style="fill:none;stroke:#c192ea;stroke-linecap:round;stroke-miterlimit:10;stroke-width:3px"/><path d="M452,201.8307a11.3669,11.3669,0,0,1,11.3669,11.3669" style="fill:none;stroke:#c192ea;stroke-linecap:round;stroke-miterlimit:10;stroke-width:3px"/><circle cx="125.9325" cy="385.4121" r="7.8843" style="fill:#f4e9ff;stroke:#c192ea;stroke-linecap:round;stroke-miterlimit:10;stroke-width:3px"/><path d="M452,201.8307a11.3669,11.3669,0,0,1,0,16.0752" style="fill:none;stroke:#c192ea;stroke-linecap:round;stroke-miterlimit:10;stroke-width:3px"/><path d="M452,201.8307a11.3669,11.3669,0,0,1-11.3669,11.3669" style="fill:none;stroke:#c192ea;stroke-linecap:round;stroke-miterlimit:10;stroke-width:3px"/><path d="M452,201.8307a11.3669,11.3669,0,0,1-16.0752,0" style="fill:none;stroke:#c192ea;stroke-linecap:round;stroke-miterlimit:10;stroke-width:3px"/><path d="M452,201.8307a11.3669,11.3669,0,0,1-11.3669-11.3669" style="fill:none;stroke:#c192ea;stroke-linecap:round;stroke-miterlimit:10;stroke-width:3px"/><path d="M452,201.8307a11.3669,11.3669,0,0,1,0-16.0752" style="fill:none;stroke:#c192ea;stroke-linecap:round;stroke-miterlimit:10;stroke-width:3px"/><line x1="413.404" y1="121.1086" x2="401.404" y2="133.1086" style="fill:none;stroke:#c192ea;stroke-linecap:round;stroke-miterlimit:10;stroke-width:3px"/><line x1="413.404" y1="133.1086" x2="401.404" y2="121.1086" style="fill:none;stroke:#c192ea;stroke-linecap:round;stroke-miterlimit:10;stroke-width:3px"/><circle cx="409.576" cy="246.1206" r="5.0439" style="fill:none;stroke:#c192ea;stroke-linecap:round;stroke-miterlimit:10;stroke-width:3px"/><circle cx="374.3921" cy="63.0373" r="5.0439" style="fill:none;stroke:#c192ea;stroke-linecap:round;stroke-miterlimit:10;stroke-width:3px"/><line x1="165.2462" y1="68.1274" x2="153.2462" y2="68.1274" style="fill:none;stroke:#c192ea;stroke-linecap:round;stroke-miterlimit:10;stroke-width:3px"/><line x1="159.2462" y1="74.1274" x2="159.2462" y2="62.1274" style="fill:none;stroke:#c192ea;stroke-linecap:round;stroke-miterlimit:10;stroke-width:3px"/><line x1="142.932" y1="151.3646" x2="130.932" y2="163.3646" style="fill:none;stroke:#c192ea;stroke-linecap:round;stroke-miterlimit:10;stroke-width:3px"/><line x1="142.932" y1="163.3646" x2="130.932" y2="151.3646" style="fill:none;stroke:#c192ea;stroke-linecap:round;stroke-miterlimit:10;stroke-width:3px"/><line x1="99.3355" y1="290.3442" x2="87.3355" y2="290.3442" style="fill:none;stroke:#c192ea;stroke-linecap:round;stroke-miterlimit:10;stroke-width:3px"/><line x1="93.3355" y1="296.3442" x2="93.3355" y2="284.3442" style="fill:none;stroke:#c192ea;stroke-linecap:round;stroke-miterlimit:10;stroke-width:3px"/><line x1="204" y1="380.7888" x2="198" y2="386.7888" style="fill:none;stroke:#c192ea;stroke-linecap:round;stroke-miterlimit:10;stroke-width:3px"/><line x1="204" y1="386.7888" x2="198" y2="380.7888" style="fill:none;stroke:#c192ea;stroke-linecap:round;stroke-miterlimit:10;stroke-width:3px"/><circle cx="73" cy="198.5014" r="5.0439" style="fill:none;stroke:#c192ea;stroke-linecap:round;stroke-miterlimit:10;stroke-width:3px"/><line x1="180.7323" y1="436.9898" x2="162.7323" y2="436.9898" style="fill:none;stroke:#c192ea;stroke-linecap:round;stroke-miterlimit:10;stroke-width:3px"/><line x1="171.7323" y1="445.9898" x2="171.7323" y2="427.9898" style="fill:none;stroke:#c192ea;stroke-linecap:round;stroke-miterlimit:10;stroke-width:3px"/><circle cx="123.9904" cy="383.2721" r="1.5" style="fill:#c192ea"/><line x1="133.3624" y1="388.0299" x2="118.5027" y2="388.0299" style="fill:none;stroke:#c192ea;stroke-miterlimit:10"/><path d="M337.8736,502.2656c-25.5368-41.6183-41.2228-112.0969-41.2228-112.0969-3.4008-13.5291-8.2625-18.4546-18.4547-18.4546S262.75,376.64,259.7416,390.1687c0,0-11.5173,70.4786-35.7916,112.0969H337.8736Z" style="fill:#fffeff"/><path d="M127.84,487.2656L7.66,279.1086a30,30,0,0,1,0-30L127.84,40.9516a30,30,0,0,1,25.9808-15h240.359a30,30,0,0,1,25.9808,15L540.34,249.1086a30,30,0,0,1,0,30L420.16,487.2656a30,30,0,0,1-25.9808,15H153.8205A30,30,0,0,1,127.84,487.2656Z" style="fill:none;stroke:#f4e9ff;stroke-miterlimit:10;stroke-width:6px"/><path d="M394.1795,502.2656c-46.495,0-77.6567-166.7449-77.6567-166.7449H239.87s-36.1284,166.7449-86.0491,166.7449h240.359Z" style="fill:none"/><path d="M158.0663,323.9077H401.89A131.0553,131.0553,0,0,0,158.0663,323.9077Z" style="fill:#fffeff;stroke:#c192ea;stroke-linecap:round;stroke-miterlimit:10;stroke-width:6px"/><path d="M276.9808,337.1876a161.9957,161.9957,0,0,1,46.11,6.67,252.041,252.041,0,0,0-46.11-339.2384,252.0408,252.0408,0,0,0-46.11,339.2383A161.9974,161.9974,0,0,1,276.9808,337.1876Z" style="fill:#edd9ff;stroke:#c192ea;stroke-miterlimit:10;stroke-width:6px"/><circle cx="275.6108" cy="189.3137" r="35.9982" style="fill:#fffeff;stroke:#c192ea;stroke-miterlimit:10;stroke-width:6px"/><path d="M230.3959,55.1086h93.17a253.4217,253.4217,0,0,0-46.5849-50.49A253.4217,253.4217,0,0,0,230.3959,55.1086Z" style="fill:#fffeff;stroke:#c192ea;stroke-miterlimit:10;stroke-width:6px"/><path d="M158.0663,323.9077H401.89A131.0553,131.0553,0,0,0,158.0663,323.9077Z" style="fill:#fffeff;stroke:#c192ea;stroke-linecap:round;stroke-miterlimit:10;stroke-width:6px"/><path d="M276.9808,337.1876a161.9957,161.9957,0,0,1,46.11,6.67,252.041,252.041,0,0,0-46.11-339.2384,252.0408,252.0408,0,0,0-46.11,339.2383A161.9974,161.9974,0,0,1,276.9808,337.1876Z" style="fill:#fffeff;stroke:#c192ea;stroke-miterlimit:10;stroke-width:6px"/><circle cx="275.6108" cy="189.3137" r="35.9982" style="fill:#f4e9ff;stroke:#c192ea;stroke-miterlimit:10;stroke-width:6px"/></svg>