<svg xmlns="http://www.w3.org/2000/svg" viewBox="0 0 510 430"><title>rocket</title><path d="M62.43,201.9665l83.2621-144.218a20.7805,20.7805,0,0,1,18-10.3922L330.2164,47.36a20.7844,20.7844,0,0,1,17.9984,10.3936l83.26,144.2111a20.7845,20.7845,0,0,1,.0019,20.7839L348.2134,366.9639a20.7806,20.7806,0,0,1-18,10.3922l-166.5226-.0011a20.7845,20.7845,0,0,1-17.9984-10.3936L62.4306,222.7476A20.7845,20.7845,0,0,1,62.43,201.9665Z" style="fill:#f6edfc"/><line x1="442.8537" y1="268.3535" x2="442.8537" y2="283.3534" style="fill:#fffeff;stroke:#9e78cc;stroke-linecap:round;stroke-miterlimit:10;stroke-width:3px"/><line x1="450.3532" y1="275.8539" x2="435.3532" y2="275.8539" style="fill:#fffeff;stroke:#9e78cc;stroke-linecap:round;stroke-miterlimit:10;stroke-width:3px"/><line x1="437.755" y1="164.4279" x2="437.755" y2="174.4279" style="fill:#fffeff;stroke:#9e78cc;stroke-linecap:round;stroke-miterlimit:10;stroke-width:3px"/><line x1="442.755" y1="169.4279" x2="432.755" y2="169.4279" style="fill:#fffeff;stroke:#9e78cc;stroke-linecap:round;stroke-miterlimit:10;stroke-width:3px"/><path d="M398.73,88.1768a7.3205,7.3205,0,0,1,2.6795-10h0" style="fill:none;stroke:#dec1f7;stroke-linecap:round;stroke-miterlimit:10;stroke-width:3px"/><path d="M398.73,88.1768a7.3205,7.3205,0,0,1,8.9646-5.1783l0.0031,0.0008" style="fill:none;stroke:#dec1f7;stroke-linecap:round;stroke-miterlimit:10;stroke-width:3px"/><path d="M398.73,88.1768a7.3205,7.3205,0,0,1,10,2.6795h0" style="fill:none;stroke:#dec1f7;stroke-linecap:round;stroke-miterlimit:10;stroke-width:3px"/><circle cx="187.4069" cy="359.344" r="7.5" style="fill:none;stroke:#dec1f7;stroke-miterlimit:10;stroke-width:3px"/><path d="M398.73,88.1768a7.3205,7.3205,0,0,1,5.1784,8.9646l-0.0008.0031" style="fill:none;stroke:#dec1f7;stroke-linecap:round;stroke-miterlimit:10;stroke-width:3px"/><path d="M398.73,88.1768a7.3205,7.3205,0,0,1-2.6795,10h0" style="fill:none;stroke:#dec1f7;stroke-linecap:round;stroke-miterlimit:10;stroke-width:3px"/><path d="M398.73,88.1768a7.3205,7.3205,0,0,1-8.9646,5.1783l-0.0031-.0008" style="fill:none;stroke:#dec1f7;stroke-linecap:round;stroke-miterlimit:10;stroke-width:3px"/><path d="M398.73,88.1768a7.3205,7.3205,0,0,1-10-2.6795h0" style="fill:none;stroke:#dec1f7;stroke-linecap:round;stroke-miterlimit:10;stroke-width:3px"/><path d="M398.73,88.1768a7.3205,7.3205,0,0,1-5.1784-8.9646l0.0008-.0031" style="fill:none;stroke:#dec1f7;stroke-linecap:round;stroke-miterlimit:10;stroke-width:3px"/><line x1="327.048" y1="64.6393" x2="327.048" y2="79.6393" style="fill:#fffeff;stroke:#9e78cc;stroke-linecap:round;stroke-miterlimit:10;stroke-width:3px"/><line x1="334.548" y1="72.1393" x2="319.548" y2="72.1393" style="fill:#fffeff;stroke:#9e78cc;stroke-linecap:round;stroke-miterlimit:10;stroke-width:3px"/><circle cx="351.0368" cy="165.6612" r="7.4987" transform="translate(-35.8006 197.7128) rotate(-30)" style="fill:none;stroke:#dec1f7;stroke-miterlimit:10;stroke-width:3px"/><circle cx="360.9938" cy="344.5403" r="4.9992" transform="translate(-123.9062 226.6565) rotate(-30)" style="fill:none;stroke:#9e78cc;stroke-miterlimit:10;stroke-width:3px"/><circle cx="274.9938" cy="27.5403" r="4.9992" transform="translate(23.072 141.1866) rotate(-30)" style="fill:none;stroke:#dec1f7;stroke-miterlimit:10;stroke-width:3px"/><line x1="291.7089" y1="322.4442" x2="291.7089" y2="332.4442" style="fill:#fffeff;stroke:#9e78cc;stroke-linecap:round;stroke-miterlimit:10;stroke-width:3px"/><line x1="296.7089" y1="327.4442" x2="286.7088" y2="327.4442" style="fill:#fffeff;stroke:#9e78cc;stroke-linecap:round;stroke-miterlimit:10;stroke-width:3px"/><line x1="75.2573" y1="171.0877" x2="75.2573" y2="186.0877" style="fill:none;stroke:#9e78cc;stroke-linecap:round;stroke-miterlimit:10;stroke-width:3px"/><line x1="82.7573" y1="178.5877" x2="67.7573" y2="178.5877" style="fill:none;stroke:#9e78cc;stroke-linecap:round;stroke-miterlimit:10;stroke-width:3px"/><line x1="115.9195" y1="369.3771" x2="115.9195" y2="379.3771" style="fill:none;stroke:#9e78cc;stroke-linecap:round;stroke-miterlimit:10;stroke-width:3px"/><line x1="120.9195" y1="374.3771" x2="110.9195" y2="374.3771" style="fill:none;stroke:#9e78cc;stroke-linecap:round;stroke-miterlimit:10;stroke-width:3px"/><circle cx="66.6026" cy="277.7244" r="5" transform="translate(-176.8734 128.4388) rotate(-45)" style="fill:none;stroke:#dec1f7;stroke-linecap:round;stroke-miterlimit:10;stroke-width:3px"/><line x1="194.4746" y1="361.8353" x2="180.3393" y2="361.8353" style="fill:none;stroke:#dec1f7;stroke-miterlimit:10;stroke-width:2px"/><line x1="140.1994" y1="251.2528" x2="140.1994" y2="231.2528" style="fill:none;stroke:#9e78cc;stroke-linecap:round;stroke-miterlimit:10;stroke-width:3px"/><line x1="130.2001" y1="241.2522" x2="150.2001" y2="241.2522" style="fill:none;stroke:#9e78cc;stroke-linecap:round;stroke-miterlimit:10;stroke-width:3px"/><circle cx="185.5587" cy="357.3088" r="1.4267" style="fill:#dec1f7"/><polygon points="259.692 215.317 324.536 229.805 345.957 266.906 268.784 231.064 259.692 215.317" style="fill:#fffeff;stroke:#9e78cc;stroke-miterlimit:10;stroke-width:3px"/><polygon points="244.841 223.891 224.966 287.292 246.387 324.393 253.933 239.638 244.841 223.891" style="fill:#fffeff;stroke:#9e78cc;stroke-miterlimit:10;stroke-width:3px"/><path d="M286.2,279.875c4.0913-2.3621,7.94-6.1645,11.1663-10.0174-3.7126-14.4019-14.9443-34.7559-29.1963-59.4412-43.0481-74.5615-51.3166-71.7661-60.46-66.487S192.8287,156.39,235.0617,229.54c14.3421,24.8413,26.9189,44.5585,37.6983,54.8527A43.6054,43.6054,0,0,0,286.2,279.875Z" style="fill:#fffeff;stroke:#9e78cc;stroke-miterlimit:10;stroke-width:3px"/><path d="M234.708,190.6884A99.9148,99.9148,0,1,1,271.2793,54.2022l0,0.0008A100.0275,100.0275,0,0,1,234.708,190.6884Z" style="fill:#fffeff;stroke:#9e78cc;stroke-miterlimit:10;stroke-width:3px"/><circle cx="184.751" cy="104.1604" r="74.0584" transform="translate(-27.3283 106.3304) rotate(-30)" style="fill:none;stroke:#dec1f7;stroke-miterlimit:10;stroke-width:2px"/><circle cx="184.751" cy="104.1604" r="50.98" transform="translate(-27.3283 106.3304) rotate(-30)" style="fill:none;stroke:#dec1f7;stroke-miterlimit:10;stroke-width:2px"/><line x1="135.5752" y1="18.9853" x2="233.9265" y2="189.3348" style="fill:none;stroke:#dec1f7;stroke-miterlimit:10;stroke-width:2px"/><line x1="210.2057" y1="9.1596" x2="159.2954" y2="199.1596" style="fill:none;stroke:#dec1f7;stroke-miterlimit:10;stroke-width:2px"/><line x1="269.9262" y1="54.9845" x2="99.5759" y2="153.3363" style="fill:none;stroke:#dec1f7;stroke-miterlimit:10;stroke-width:2px"/><line x1="279.7506" y1="129.6148" x2="89.7506" y2="78.7044" style="fill:none;stroke:#dec1f7;stroke-miterlimit:10;stroke-width:2px"/><circle cx="184.751" cy="104.1604" r="24.1126" transform="translate(-27.3283 106.3304) rotate(-30)" style="fill:#f6edfc;stroke:#9e78cc;stroke-miterlimit:10;stroke-width:3px"/><circle cx="221.7863" cy="168.3073" r="8.2673" transform="translate(-54.4399 133.442) rotate(-30)" style="fill:#f6edfc;stroke:#dec1f7;stroke-miterlimit:10;stroke-width:2px"/><path d="M183.937,236.8943h0a10.3337,10.3337,0,0,1,14.1161,3.7824h0l97.9122,169.5889a10.3337,10.3337,0,0,1-3.7761,14.1178l-0.004.0023h0a10.3337,10.3337,0,0,1-14.1161-3.7824h0L180.1569,251.0144a10.3337,10.3337,0,0,1,3.7761-14.1178Z" style="fill:#fffeff;stroke:#9e78cc;stroke-miterlimit:10;stroke-width:3px"/><path d="M301.4023,169.0756h0a10.3337,10.3337,0,0,1,14.1161,3.7824h0l97.9122,169.5889a10.3337,10.3337,0,0,1-3.7761,14.1178l-0.004.0023h0a10.3337,10.3337,0,0,1-14.1161-3.7824h0L297.6222,183.1957a10.3337,10.3337,0,0,1,3.7761-14.1178Z" style="fill:#fffeff;stroke:#9e78cc;stroke-miterlimit:10;stroke-width:3px"/><path d="M183.937,236.8943h0a10.3337,10.3337,0,0,0-3.7824,14.1161h0l1.6353,2.8324,17.8985-10.3337-1.6353-2.8324a10.3337,10.3337,0,0,0-14.1161-3.7824h0Z" style="fill:#f6edfc;stroke:#9e78cc;stroke-miterlimit:10;stroke-width:3px"/><path d="M301.4023,169.0756a10.3337,10.3337,0,0,0-3.7824,14.1161h0l1.6353,2.8324L317.1537,175.69l-1.6353-2.8324a10.3337,10.3337,0,0,0-14.1161-3.7824h0Z" style="fill:#f6edfc;stroke:#9e78cc;stroke-miterlimit:10;stroke-width:3px"/><path d="M286.2,279.875a43.5914,43.5914,0,0,1-13.4375,4.5163c7.4431,7.1122,14.0335,9.7258,19.7535,6.4234,6.3642-3.6744,7.46-10.8495,4.8517-20.9546C294.14,273.7113,290.2912,277.5129,286.2,279.875Z" style="fill:#f6edfc;stroke:#9e78cc;stroke-miterlimit:10;stroke-width:3px"/></svg>