<svg id="bg" xmlns="http://www.w3.org/2000/svg" viewBox="0 0 540 540"><title>rocket</title><path d="M73.585,145.1L256.8,39.318a26.4,26.4,0,0,1,26.405,0L466.415,145.1a26.405,26.405,0,0,1,13.2,22.868V379.519a26.405,26.405,0,0,1-13.2,22.868L283.2,508.165a26.4,26.4,0,0,1-26.405,0L73.585,402.387a26.405,26.405,0,0,1-13.2-22.868V167.964A26.405,26.405,0,0,1,73.585,145.1Z" transform="translate(0 0)" fill="#f4e9ff"/><line x1="414.675" y1="401.232" x2="398.832" y2="401.232" fill="none" stroke="#c192ea" stroke-linecap="round" stroke-miterlimit="10" stroke-width="3"/><line x1="406.753" y1="409.153" x2="406.753" y2="393.31" fill="none" stroke="#c192ea" stroke-linecap="round" stroke-miterlimit="10" stroke-width="3"/><line x1="448.607" y1="335.445" x2="440.685" y2="343.367" fill="none" stroke="#c192ea" stroke-linecap="round" stroke-miterlimit="10" stroke-width="3"/><line x1="448.607" y1="343.367" x2="440.685" y2="335.445" fill="none" stroke="#c192ea" stroke-linecap="round" stroke-miterlimit="10" stroke-width="3"/><path d="M439.784,227.672a8.4,8.4,0,0,1,8.4-8.4h0" transform="translate(0 0)" fill="none" stroke="#c192ea" stroke-linecap="round" stroke-miterlimit="10" stroke-width="3"/><path d="M439.784,227.672a8.4,8.4,0,0,1,11.882,0" transform="translate(0 0)" fill="none" stroke="#c192ea" stroke-linecap="round" stroke-miterlimit="10" stroke-width="3"/><path d="M439.784,227.672a8.4,8.4,0,0,1,8.4,8.4h0" transform="translate(0 0)" fill="none" stroke="#c192ea" stroke-linecap="round" stroke-miterlimit="10" stroke-width="3"/><circle cx="139.676" cy="380.508" r="6.939" fill="#f4e9ff" stroke="#c192ea" stroke-linecap="round" stroke-miterlimit="10" stroke-width="3"/><path d="M439.784,227.672a8.4,8.4,0,0,1,0,11.882" transform="translate(0 0)" fill="none" stroke="#c192ea" stroke-linecap="round" stroke-miterlimit="10" stroke-width="3"/><path d="M439.784,227.672a8.4,8.4,0,0,1-8.4,8.4h0" transform="translate(0 0)" fill="none" stroke="#c192ea" stroke-linecap="round" stroke-miterlimit="10" stroke-width="3"/><path d="M439.784,227.672a8.4,8.4,0,0,1-11.882,0" transform="translate(0 0)" fill="none" stroke="#c192ea" stroke-linecap="round" stroke-miterlimit="10" stroke-width="3"/><path d="M439.784,227.672a8.4,8.4,0,0,1-8.4-8.4h0" transform="translate(0 0)" fill="none" stroke="#c192ea" stroke-linecap="round" stroke-miterlimit="10" stroke-width="3"/><path d="M439.784,227.672a8.4,8.4,0,0,1,0-11.882" transform="translate(0 0)" fill="none" stroke="#c192ea" stroke-linecap="round" stroke-miterlimit="10" stroke-width="3"/><line x1="423.307" y1="156.623" x2="412.745" y2="167.185" fill="none" stroke="#c192ea" stroke-linecap="round" stroke-miterlimit="10" stroke-width="3"/><line x1="423.307" y1="167.185" x2="412.745" y2="156.623" fill="none" stroke="#c192ea" stroke-linecap="round" stroke-miterlimit="10" stroke-width="3"/><circle cx="398.075" cy="288.518" r="4.44" fill="none" stroke="#c192ea" stroke-linecap="round" stroke-miterlimit="10" stroke-width="3"/><circle cx="292.123" cy="417.899" r="4.44" fill="none" stroke="#c192ea" stroke-linecap="round" stroke-miterlimit="10" stroke-width="3"/><line x1="247.377" y1="455.936" x2="236.815" y2="455.936" fill="none" stroke="#c192ea" stroke-linecap="round" stroke-miterlimit="10" stroke-width="3"/><line x1="242.096" y1="461.217" x2="242.096" y2="450.655" fill="none" stroke="#c192ea" stroke-linecap="round" stroke-miterlimit="10" stroke-width="3"/><line x1="128.402" y1="161.39" x2="117.84" y2="171.952" fill="none" stroke="#c192ea" stroke-linecap="round" stroke-miterlimit="10" stroke-width="3"/><line x1="128.402" y1="171.952" x2="117.84" y2="161.39" fill="none" stroke="#c192ea" stroke-linecap="round" stroke-miterlimit="10" stroke-width="3"/><line x1="111.894" y1="318.696" x2="101.332" y2="318.696" fill="none" stroke="#c192ea" stroke-linecap="round" stroke-miterlimit="10" stroke-width="3"/><line x1="106.613" y1="323.977" x2="106.613" y2="313.415" fill="none" stroke="#c192ea" stroke-linecap="round" stroke-miterlimit="10" stroke-width="3"/><circle cx="88.714" cy="250.978" r="4.44" fill="none" stroke="#c192ea" stroke-linecap="round" stroke-miterlimit="10" stroke-width="3"/><line x1="149.442" y1="242.782" x2="133.599" y2="242.782" fill="none" stroke="#c192ea" stroke-linecap="round" stroke-miterlimit="10" stroke-width="3"/><line x1="141.52" y1="250.703" x2="141.52" y2="234.86" fill="none" stroke="#c192ea" stroke-linecap="round" stroke-miterlimit="10" stroke-width="3"/><circle cx="137.966" cy="378.625" r="1.32" fill="#c192ea"/><line x1="146.215" y1="382.813" x2="133.137" y2="382.813" fill="none" stroke="#c192ea" stroke-miterlimit="10"/><path d="M73.585,145.1L256.8,39.318a26.4,26.4,0,0,1,26.405,0L466.415,145.1a26.405,26.405,0,0,1,13.2,22.868V379.519a26.405,26.405,0,0,1-13.2,22.868L283.2,508.165a26.4,26.4,0,0,1-26.405,0L73.585,402.387a26.405,26.405,0,0,1-13.2-22.868V167.964A26.405,26.405,0,0,1,73.585,145.1Z" transform="translate(0 0)" fill="none" stroke="#f4e9ff" stroke-miterlimit="10" stroke-width="6"/><polygon points="280.094 283.597 333.022 332.258 333.022 378.616 280.094 303.273 280.094 283.597" fill="#fffeff" stroke="#c192ea" stroke-miterlimit="10" stroke-width="6"/><polygon points="261.538 283.597 208.61 332.258 208.61 378.616 261.538 303.273 261.538 283.597" fill="#fffeff" stroke="#c192ea" stroke-miterlimit="10" stroke-width="6"/><path d="M270.006,358.438c5.112,0,10.776-1.481,15.884-3.346,4.313-15.505,4.8-40.656,4.8-71.5,0-93.164-9.261-95.018-20.686-95.018S249.317,192.2,249.317,283.6c0,31.039,1.118,56.321,5.65,71.8A47.185,47.185,0,0,0,270.006,358.438Z" transform="translate(0 0)" fill="#fffeff" stroke="#c192ea" stroke-miterlimit="10" stroke-width="6"/><path d="M270.006,247A108.117,108.117,0,1,1,378.123,138.884,108.239,108.239,0,0,1,270.006,247Z" transform="translate(0 0)" fill="#fffeff"/><path d="M270.006,33.236A105.648,105.648,0,1,1,164.358,138.884h0A105.648,105.648,0,0,1,270.006,33.236m0-4.938a110.757,110.757,0,1,0,78.54,32.734l-0.344-.344a109.862,109.862,0,0,0-78.2-32.39h0Z" transform="translate(0 0)" fill="#c192ea"/><circle cx="270.006" cy="138.884" r="80.138" fill="none" stroke="#e3caff" stroke-miterlimit="10" stroke-width="3"/><circle cx="270.006" cy="138.884" r="55.165" fill="none" stroke="#e3caff" stroke-miterlimit="10" stroke-width="3"/><line x1="270.006" y1="33.236" x2="270.006" y2="244.531" fill="none" stroke="#e3caff" stroke-miterlimit="10" stroke-width="3"/><line x1="344.71" y1="64.179" x2="195.302" y2="213.587" fill="none" stroke="#e3caff" stroke-miterlimit="10" stroke-width="3"/><line x1="375.654" y1="138.884" x2="164.358" y2="138.884" fill="none" stroke="#e3caff" stroke-miterlimit="10" stroke-width="3"/><line x1="344.71" y1="213.587" x2="195.302" y2="64.179" fill="none" stroke="#e3caff" stroke-miterlimit="10" stroke-width="3"/><circle cx="270.006" cy="138.884" r="26.092" fill="#f4e9ff" stroke="#c192ea" stroke-miterlimit="10" stroke-width="6"/><circle cx="270.006" cy="219.035" r="8.946" fill="#f4e9ff" stroke="#e3caff" stroke-miterlimit="10" stroke-width="3"/><path d="M197.428,262.831h0a11.182,11.182,0,0,1,11.182,11.182v211.9A11.182,11.182,0,0,1,197.428,497.1h0a11.182,11.182,0,0,1-11.182-11.182v-211.9A11.182,11.182,0,0,1,197.428,262.831Z" transform="translate(0 0)" fill="#fffeff" stroke="#c192ea" stroke-miterlimit="10" stroke-width="6"/><path d="M344.2,262.831h0a11.182,11.182,0,0,1,11.182,11.182v211.9A11.182,11.182,0,0,1,344.2,497.1h0a11.182,11.182,0,0,1-11.182-11.182v-211.9A11.182,11.182,0,0,1,344.2,262.831Z" transform="translate(0 0)" fill="#fffeff" stroke="#c192ea" stroke-miterlimit="10" stroke-width="6"/><path d="M197.428,262.831h0a11.182,11.182,0,0,0-11.182,11.182h0v3.539H208.61v-3.539a11.182,11.182,0,0,0-11.182-11.182h0Z" transform="translate(0 0)" fill="#f4e9ff" stroke="#c192ea" stroke-miterlimit="10" stroke-width="6"/><path d="M344.2,262.831a11.182,11.182,0,0,0-11.182,11.182v3.539h22.364v-3.539A11.182,11.182,0,0,0,344.2,262.831h0Z" transform="translate(0 0)" fill="#f4e9ff" stroke="#c192ea" stroke-miterlimit="10" stroke-width="6"/><path d="M270.006,358.438A47.17,47.17,0,0,1,254.97,355.4c3.127,10.692,7.889,16.707,15.036,16.707,7.952,0,12.861-6.131,15.884-17.012C280.782,356.958,275.118,358.438,270.006,358.438Z" transform="translate(0 0)" fill="#f4e9ff" stroke="#c192ea" stroke-miterlimit="10" stroke-width="6"/><rect width="540" height="540" fill="none"/></svg>