<svg class="text-awesome" data-name="Layer 1" xmlns="http://www.w3.org/2000/svg" viewBox="0 0 165.427 31.245"><title>text-awesome</title><path d="M12.876 21.93a33.238 33.238 0 0 1-2.856 4.306q-2.77 3.428-5.493 3.428a4.09 4.09 0 0 1-3.69-2.24A6.758 6.758 0 0 1 0 23.993 23.58 23.58 0 0 1 3.078 13.23a28.44 28.44 0 0 1 8.26-10.066A10.507 10.507 0 0 1 17.448.88a4.347 4.347 0 0 1 3.076 1.142 3.094 3.094 0 0 1 1.055 2.285 7.324 7.324 0 0 1-.747 2.68 2.933 2.933 0 0 1 .66 1.627 7.38 7.38 0 0 1-1.23 3.032 33.817 33.817 0 0 0-2.55 5.712 19.03 19.03 0 0 0-1.363 6.065 4.287 4.287 0 0 0 1.1 3.032 8.28 8.28 0 0 0 1.8 1.01 1.88 1.88 0 0 1 1.1 1.847 1.71 1.71 0 0 1-.615 1.362 2.276 2.276 0 0 1-1.538.57 5.123 5.123 0 0 1-4.087-2.108A6.563 6.563 0 0 1 12.7 24.83q0-.88.176-2.9zM18.37 7.473a4.35 4.35 0 0 0-1.144-1.428 2.153 2.153 0 0 0-1.318-.462q-3.34 0-7.25 5.845-4.31 6.455-4.31 10.938a2.805 2.805 0 0 0 .416 1.67 1.45 1.45 0 0 0 1.252.57q2.11 0 4.922-4.48a74.31 74.31 0 0 0 3.91-7.25 38.3 38.3 0 0 1 2.242-4.132 6.41 6.41 0 0 1 1.28-1.272zM36.956 16.92q-3.78 5.1-5.58 7.03a35.2 35.2 0 0 1-3.868 3.69 5.91 5.91 0 0 1-3.428 1.363 2.6 2.6 0 0 1-2.373-1.538 5.337 5.337 0 0 1-.66-2.636q0-4.79 5.713-13.184 5.185-7.6 7.69-7.6a1.892 1.892 0 0 1 1.714 1.8q0 .967-1.714 2.68a40.05 40.05 0 0 0-6.328 8.13q-2.285 3.867-2.285 5.054a.74.74 0 0 0 .79.88q2.638 0 11.427-11.426 2.856-3.69 3.472-4.263a3.443 3.443 0 0 1 2.33-1.054 2.17 2.17 0 0 1 1.36.44 1.257 1.257 0 0 1 .484.922 22.417 22.417 0 0 1-2.11 4.438q-4.79 8.437-4.79 11.38a.926.926 0 0 0 .924 1.144q1.582 0 4.35-3.647a39.843 39.843 0 0 0 4.88-8.7 31.988 31.988 0 0 0 1.713-6.02q.88-4.264 3.516-4.264a1.4 1.4 0 0 1 1.494 1.67q0 5.756-6.416 15.82-6.68 10.5-11.25 10.5-3.384 0-3.383-4.176a20.912 20.912 0 0 1 2.33-8.435zM57.638 20.742v.79a2.87 2.87 0 0 0 .483 1.67 4.03 4.03 0 0 0 3.6 1.627q5.494 0 12.7-8.438a3.4 3.4 0 0 1 2.154-1.45 1.273 1.273 0 0 1 1.143 1.143q0 1.714-4.22 5.8a31.767 31.767 0 0 1-7.03 5.23 14.728 14.728 0 0 1-6.943 2.02 6.367 6.367 0 0 1-5.186-2.285 6.675 6.675 0 0 1-1.27-4.306q0-7.427 6.986-14.545 5.67-5.8 9.888-5.8a3.324 3.324 0 0 1 2.065.7 2.958 2.958 0 0 1 1.14 2.418 11.33 11.33 0 0 1-2.153 5.713 22.912 22.912 0 0 1-13.356 9.712zm.967-3.428a17.67 17.67 0 0 0 4.834-2.373 19.524 19.524 0 0 0 4.877-5.36 3.67 3.67 0 0 0 .66-1.89.758.758 0 0 0-.836-.88q-1.142 0-3.25 1.715a22.49 22.49 0 0 0-6.285 8.79z"/><path d="M94.2 0a7.07 7.07 0 0 1 4.087.967A3.37 3.37 0 0 1 99.65 3.91a7.937 7.937 0 0 1-1.935 5.01 12.76 12.76 0 0 1-5.537 3.692 10.162 10.162 0 0 1-3.384.747q-1.846 0-1.846-1.627a1.808 1.808 0 0 1 1.055-1.67q.264-.132 2.988-.747a6.65 6.65 0 0 0 2.99-1.538 2.89 2.89 0 0 0 1.186-2.2 1.673 1.673 0 0 0-.527-1.362 2.426 2.426 0 0 0-1.583-.44 10.337 10.337 0 0 0-5.625 2.066q-3.56 2.33-3.56 5.537 0 2.284 2.33 5.71 2.592 3.736 2.592 6.33a6.85 6.85 0 0 1-3.428 6.063 8.637 8.637 0 0 1-4.79 1.362 7.427 7.427 0 0 1-6.416-3.032 8.54 8.54 0 0 1-1.538-5.1 9.285 9.285 0 0 1 1.758-5.757 3.108 3.108 0 0 1 2.373-1.538.888.888 0 0 1 1.1.88 2.492 2.492 0 0 1-.4 1.054 9.27 9.27 0 0 0-1.006 4.445 4.89 4.89 0 0 0 1.538 3.647 4.36 4.36 0 0 0 3.12 1.318 3.322 3.322 0 0 0 2.68-1.143 3.76 3.76 0 0 0 .792-2.462q0-1.846-2.11-4.79-2.9-4.043-2.9-7.338 0-4.395 4.79-7.778A16.914 16.914 0 0 1 94.2 0zM112.047.835q3.6 0 3.6 4.395 0 5.845-5.405 14.81-5.89 9.71-11.382 9.71a3.924 3.924 0 0 1-3.735-2.372 6.138 6.138 0 0 1-.615-2.856q0-5.625 3.867-12.216a29.572 29.572 0 0 1 8.48-9.492 9.38 9.38 0 0 1 5.19-1.98zm-4.57 16.61a2.407 2.407 0 0 1-1.1-1.36 5.963 5.963 0 0 1 1.406-1.934q3.955-4.437 3.955-7.162a1.318 1.318 0 0 0-.22-.7 1.164 1.164 0 0 0-1.1-.66q-1.407 0-4.13 2.726a27.72 27.72 0 0 0-5.362 7.25 16.6 16.6 0 0 0-2.153 7.075 2.26 2.26 0 0 0 .4 1.317 1.723 1.723 0 0 0 1.45.79q2.11 0 4.526-3.163a13.618 13.618 0 0 0 1.713-2.725 8.3 8.3 0 0 0 .618-1.454zM120.524 14.546a63.012 63.012 0 0 1 6.5-6.064q4.262-3.3 5.713-3.3a1.687 1.687 0 0 1 1.23.527 1.47 1.47 0 0 1 .483 1.054 5.653 5.653 0 0 1-1.538 2.725 24.58 24.58 0 0 0-3.3 5.1Q139.895 4.26 143.675 4.26a2.04 2.04 0 0 1 1.362.483 1.665 1.665 0 0 1 .615 1.318q0 1.23-1.89 3.164-8.306 8.57-8.306 14.062a5.1 5.1 0 0 0 .79 3.207l1.144 1.45a1.465 1.465 0 0 1 .352 1.01 1.914 1.914 0 0 1-.563 1.317 2 2 0 0 1-1.495.7 3.375 3.375 0 0 1-2.68-1.846 9 9 0 0 1-1.495-5.186 16.474 16.474 0 0 1 2.285-8.086 32.823 32.823 0 0 1 2.637-3.867 42.4 42.4 0 0 0-7.6 7.733 45.146 45.146 0 0 0-4.746 7.47q-1.01 1.98-2.373 1.98a1.4 1.4 0 0 1-1.494-1.67q0-1.8 2.46-7.428a67.677 67.677 0 0 1 3.472-6.767 35.1 35.1 0 0 0-11.294 15.732q-.923 2.2-2.46 2.2a1.418 1.418 0 0 1-1.144-.527 1.82 1.82 0 0 1-.483-1.274q0-2.594 2.9-9.36a77.2 77.2 0 0 1 6.856-12.876q2.637-4 4.087-4a1.206 1.206 0 0 1 1.318 1.406 9.386 9.386 0 0 1-1.625 3.076 53.887 53.887 0 0 0-3.78 6.86z"/><path d="M145.347 20.742v.79a2.87 2.87 0 0 0 .483 1.67 4.03 4.03 0 0 0 3.6 1.627q5.493 0 12.7-8.438a3.4 3.4 0 0 1 2.153-1.45 1.273 1.273 0 0 1 1.143 1.143q0 1.714-4.218 5.8a31.767 31.767 0 0 1-7.03 5.23 14.728 14.728 0 0 1-6.944 2.02 6.367 6.367 0 0 1-5.187-2.285 6.675 6.675 0 0 1-1.274-4.307q0-7.427 6.987-14.545 5.67-5.8 9.888-5.8a3.324 3.324 0 0 1 2.065.7 2.958 2.958 0 0 1 1.143 2.417 11.33 11.33 0 0 1-2.153 5.713 22.912 22.912 0 0 1-13.356 9.714zm.967-3.428a17.67 17.67 0 0 0 4.834-2.373 19.524 19.524 0 0 0 4.878-5.36 3.67 3.67 0 0 0 .66-1.89.758.758 0 0 0-.836-.88q-1.143 0-3.252 1.715a22.49 22.49 0 0 0-6.286 8.79z"/></svg>