<svg data-name="Layer 1" xmlns="http://www.w3.org/2000/svg" viewBox="0 0 187.264 233.091"><title>dockerfile</title><path d="M185.264 185.637v-125L126.632 2H8a6 6 0 0 0-6 6v177.637h183.264z" fill="#e1fbff" stroke="#394d54" stroke-linejoin="round" stroke-width="4"/><path d="M185.264 65.605h-52.632a6 6 0 0 1-6-6V6.97l58.636 53.667v4.968z" stroke="#000" stroke-linejoin="round" stroke-width="4" opacity=".12"/><path d="M185.264 60.637h-52.632a6 6 0 0 1-6-6V2z" fill="#f5feff" stroke="#394d54" stroke-linejoin="round" stroke-width="4"/><path d="M2 185.637v41.455a4 4 0 0 0 4 4h175.264a4 4 0 0 0 4-4v-41.455H2z" fill="#93e4f9" stroke="#394d54" stroke-linejoin="round" stroke-width="4"/><path d="M16.556 200.29a32.407 32.407 0 0 1 4.81-.362c3.25 0 5.564.754 7.1 2.184a8.07 8.07 0 0 1 2.47 6.292 9.27 9.27 0 0 1-2.522 6.813c-1.638 1.64-4.342 2.522-7.748 2.522a36.542 36.542 0 0 1-4.108-.21v-17.24zm2.262 15.5a14.34 14.34 0 0 0 2.288.13c4.836 0 7.462-2.7 7.462-7.436.026-4.134-2.314-6.76-7.1-6.76a12.87 12.87 0 0 0-2.652.233v13.833zM51.344 208.638c0 6.032-3.666 9.23-8.138 9.23-4.628 0-7.878-3.588-7.878-8.893 0-5.564 3.458-9.2 8.138-9.2 4.784-.004 7.878 3.662 7.878 8.863zm-13.6.286c0 3.744 2.028 7.1 5.59 7.1 3.588 0 5.616-3.3 5.616-7.28 0-3.484-1.82-7.125-5.59-7.125-3.743-.003-5.615 3.455-5.615 7.304zM69.024 217.01a11.23 11.23 0 0 1-4.628.832c-4.94 0-8.658-3.12-8.658-8.866 0-5.486 3.718-9.2 9.152-9.2a9.386 9.386 0 0 1 4.16.78l-.546 1.846a8.24 8.24 0 0 0-3.536-.73c-4.108 0-6.838 2.628-6.838 7.23 0 4.29 2.47 7.047 6.734 7.047a9.048 9.048 0 0 0 3.692-.73zM73.875 200.058h2.257v8.45h.078a44.2 44.2 0 0 1 1.378-1.872l5.356-6.578h2.808l-6.344 7.436 6.838 10.09h-2.678l-5.772-8.607-1.664 1.924v6.684H73.87v-17.526zM99.614 209.366h-6.812v6.317h7.592v1.9H90.54v-17.525h9.465v1.9h-7.2v5.538h6.812v1.873zM105.415 200.29a23.616 23.616 0 0 1 4.342-.362c2.418 0 3.98.44 5.07 1.43a4.365 4.365 0 0 1 1.378 3.328 4.6 4.6 0 0 1-3.3 4.472v.078c1.352.47 2.158 1.717 2.574 3.536a27.807 27.807 0 0 0 1.35 4.81h-2.34a22.7 22.7 0 0 1-1.17-4.186c-.52-2.418-1.455-3.328-3.51-3.406h-2.132v7.593h-2.262V200.29zm2.262 7.983h2.314c2.42 0 3.953-1.326 3.953-3.328 0-2.262-1.64-3.25-4.03-3.276a9.27 9.27 0 0 0-2.236.208v6.4zM121.852 200.058h9.438v1.9h-7.176v5.824h6.63v1.872h-6.63v7.93h-2.262V200.06zM138.58 200.058v17.524h-2.262v-17.524h2.262zM144.832 200.058h2.263v15.626h7.488v1.9h-9.75v-17.526zM168.342 209.366h-6.81v6.317h7.592v1.9h-9.854v-17.525h9.462v1.9h-7.2v5.538h6.812v1.873zM105.832 95.846h13.98v14.295h7.07a30.658 30.658 0 0 0 9.714-1.63 24.87 24.87 0 0 0 4.723-2.133 17.534 17.534 0 0 1-3.284-9.038c-.4-4.363.478-10.042 3.43-13.463l1.478-1.7 1.75 1.418c4.41 3.543 8.118 8.493 8.772 14.137a21.37 21.37 0 0 1 16.224 1.51l1.92 1.1-1.01 1.97c-3.958 7.723-12.233 10.117-20.323 9.685-12.1 30.167-38.46 44.442-70.416 44.442-16.508 0-31.655-6.172-40.28-20.82l-.142-.24-1.258-2.556a40.55 40.55 0 0 1-3.228-20.57l.2-2.114H47.11V95.846H61.09V81.864h27.965V67.88h16.775v27.966z" fill="#394d54"/><g data-name="body colors"><path d="M151.137 101.133c.937-7.286-4.515-13.01-7.9-15.726-3.9 4.5-4.5 16.314 1.61 21.285-3.41 3.03-10.6 5.777-17.96 5.777h-89.61a37.76 37.76 0 0 0 3.715 20.818l1.02 1.865a34.537 34.537 0 0 0 2.113 3.17q5.526.355 10.19.25a49.973 49.973 0 0 0 14.865-2.164 1.077 1.077 0 0 1 .7 2.033c-.5.174-1.026.337-1.566.493a46.79 46.79 0 0 1-10.276 1.675c.243 0-.254.037-.256.037-.14.008-.315.028-.456.036-1.62.09-3.367.11-5.153.11-1.954 0-3.88-.038-6.03-.146l-.056.036c7.467 8.39 19.14 13.423 33.775 13.423 30.97 0 57.24-13.73 68.872-44.552 8.253.847 16.184-1.258 19.793-8.3-5.745-3.318-13.135-2.26-17.39-.12z" fill="#00aada"/><path d="M151.137 101.133c.937-7.286-4.515-13.01-7.9-15.726-3.9 4.5-4.5 16.314 1.61 21.285-3.41 3.03-10.6 5.777-17.96 5.777h-84.3c-.367 11.767 4 20.7 11.728 26.1a49.973 49.973 0 0 0 14.866-2.165 1.077 1.077 0 0 1 .7 2.034c-.5.173-1.025.336-1.565.492a49.192 49.192 0 0 1-10.55 1.747l-.1-.1c10.54 5.405 25.823 5.386 43.342-1.344 19.652-7.55 37.937-21.93 50.69-38.377q-.287.135-.56.273z" fill="#24b8eb"/><path d="M37.445 121.805a35.834 35.834 0 0 0 3.546 11.48l1.02 1.866a34.477 34.477 0 0 0 2.114 3.17q5.526.356 10.19.25a49.973 49.973 0 0 0 14.866-2.163 1.077 1.077 0 0 1 .7 2.034c-.5.175-1.026.338-1.566.494a49.173 49.173 0 0 1-10.532 1.71c-.14.01-.387.01-.53.02-1.62.09-3.347.145-5.135.145-1.954 0-3.952-.04-6.1-.147 7.467 8.393 19.208 13.444 33.848 13.444 26.514 0 49.58-10.064 62.97-32.3H37.445z" fill="#008bb8"/><path d="M43.395 121.805A26.913 26.913 0 0 0 54.32 138.57a49.973 49.973 0 0 0 14.865-2.164 1.077 1.077 0 0 1 .7 2.034c-.5.174-1.026.337-1.566.493a49.91 49.91 0 0 1-10.607 1.71c10.54 5.407 25.775 5.328 43.3-1.4a114.457 114.457 0 0 0 29.95-17.436H43.394z" fill="#039bc6"/></g><path d="M59.592 99.19h.957v10.1h-.958v-10.1zm-1.835 0h.995v10.1h-.995v-10.1zm-1.837 0h.995v10.1h-.995v-10.1zm-1.837 0h.995v10.1h-.993v-10.1zm-1.835 0h1v10.1h-1v-10.1zm-1.806 0h.965v10.1h-.952v-10.1h-.013zm-1.01-1.01H61.55v12.117H49.44v-12.12zM73.575 85.203h.957v10.1h-.957v-10.1zm-1.835 0h.992v10.1h-.993v-10.1zm-1.837 0h.995v10.1h-.996v-10.1zm-1.837 0h.995v10.1h-.994v-10.1zm-1.835 0h.994v10.1h-.992v-10.1zm-1.805 0h.97v10.1h-.963v-10.1h-.008zm-1-1.01h12.12V96.31h-12.12V84.194z" fill="#00acd3"/><path d="M73.575 99.19h.957v10.1h-.957v-10.1zm-1.835 0h.992v10.1h-.993v-10.1zm-1.837 0h.995v10.1h-.996v-10.1zm-1.837 0h.995v10.1h-.994v-10.1zm-1.835 0h.994v10.1h-.992v-10.1zm-1.805 0h.97v10.1h-.963v-10.1h-.008zm-1-1.014h12.12v12.118h-12.12V98.176z" fill="#20c2ef"/><path d="M87.558 99.19h.955v10.1h-.955v-10.1zm-1.837 0h.996v10.1h-.995v-10.1zm-1.834 0h.995v10.1h-.994v-10.1zm-1.837 0h.994v10.1h-.993v-10.1zm-1.838 0h.995v10.1h-.995v-10.1zm-1.8 0h.955v10.1h-.954v-10.1zm-1.01-1.01h12.13v12.117H77.405v-12.12z" fill="#00acd3"/><path d="M87.558 85.203h.955v10.1h-.955v-10.1zm-1.837 0h.996v10.1h-.995v-10.1zm-1.834 0h.995v10.1h-.994v-10.1zm-1.837 0h.994v10.1h-.993v-10.1zm-1.838 0h.995v10.1h-.995v-10.1zm-1.8 0h.955v10.1h-.954v-10.1zm-1.01-1.01h12.13V96.31H77.405V84.194zM101.54 99.19h.957v10.1h-.957v-10.1zm-1.835 0h.987v10.1h-.985v-10.1zm-1.837 0h.995v10.1h-.995v-10.1zm-1.837 0h.996v10.1h-.994v-10.1zm-1.834 0h.995v10.1h-.994v-10.1zm-1.806 0h.955v10.1h-.947v-10.1h-.008zm-1.01-1.01h12.118v12.117h-12.11v-12.12z" fill="#20c2ef"/><path d="M101.54 85.203h.957v10.1h-.957v-10.1zm-1.835 0h.987v10.1h-.985v-10.1zm-1.837 0h.995v10.1h-.995v-10.1zm-1.837 0h.996v10.1h-.994v-10.1zm-1.834 0h.995v10.1h-.994v-10.1zm-1.806 0h.955v10.1h-.947v-10.1h-.008zm-1.01-1.01h12.118V96.31h-12.11V84.194h-.008z" fill="#00acd3"/><path d="M101.54 71.22h.957v10.1h-.957v-10.1zm-1.835 0h.987v10.1h-.985v-10.1zm-1.837 0h.995v10.1h-.995v-10.1zm-1.837 0h.996v10.1h-.994v-10.1zm-1.834 0h.995v10.1h-.994v-10.1zm-1.806 0h.955v10.1h-.947v-10.1h-.008zm-1.01-1.01h12.118v12.118h-12.11V70.21h-.008z" fill="#20c2ef"/><path d="M115.52 99.19h.956v10.1h-.955v-10.1zm-1.834 0h.993v10.1h-.994v-10.1zm-1.837 0h.99v10.1h-.984v-10.1h-.007zm-1.836 0h.995v10.1h-.996v-10.1zm-1.837 0h.995v10.1h-.993v-10.1zm-1.806 0h.962v10.1h-.95v-10.1h-.007zm-1.01-1.01h12.12v12.117h-12.11v-12.12z" fill="#00acd3"/><path d="M74.783 129.946a3.343 3.343 0 1 1-3.343 3.343 3.344 3.344 0 0 1 3.343-3.344" fill="#d4edf1"/><path d="M74.783 130.89a2.394 2.394 0 0 1 .867.165.977.977 0 1 0 1.345 1.313 2.4 2.4 0 1 1-2.21-1.478" fill="#394d54"/><path d="M83.67 154.033c-8.28-3.93-12.824-9.27-15.352-15.1a51.277 51.277 0 0 1-11.067 1.68q-2.427.135-5.106.137-3.088 0-6.506-.182c7.593 7.588 16.933 13.43 34.23 13.538q1.91 0 3.802-.073z" fill="#bfdbe0"/><path d="M71.393 144.312a29 29 0 0 1-3.073-5.38 51.27 51.27 0 0 1-11.07 1.68 35.233 35.233 0 0 0 14.143 3.7z" fill="#d4edf1"/></svg>