<svg data-name="Layer 3" xmlns="http://www.w3.org/2000/svg" viewBox="0 0 54.3 49.704"><title>registry</title><path fill="#20c2ef" stroke="#394d54" stroke-linejoin="round" stroke-width=".5" d="M.25 41.854h7.6v7.6H.25zM.25 34.254h7.6v7.6H.25z"/><path fill="#20c2ef" stroke="#394d54" stroke-linejoin="round" stroke-width=".5" d="M.25 26.754h7.6v7.6H.25zM7.85 41.854h7.6v7.6h-7.6zM3.55 23.454l-3.3 3.3h7.6l3.3-3.3h-7.6zM6.85 20.154l-3.3 3.3h7.6l3.2-3.3h-7.5z"/><path fill="#008bb8" stroke="#394d54" stroke-linejoin="round" stroke-width=".5" d="M11.15 23.454v7.6l-3.3 3.2v-7.5l3.3-3.3z"/><path fill="#20c2ef" stroke="#394d54" stroke-linejoin="round" stroke-width=".5" d="M7.85 34.254h7.6v7.6h-7.6zM11.15 31.054l-3.3 3.2h7.6l3.2-3.2h-7.5z"/><path fill="#008bb8" stroke="#394d54" stroke-linejoin="round" stroke-width=".5" d="M18.65 31.054v7.5l-3.2 3.3v-7.6l3.2-3.2z"/><path fill="#20c2ef" stroke="#394d54" stroke-linejoin="round" stroke-width=".5" d="M15.45 41.854h7.6v7.6h-7.6zM18.65 38.554l-3.2 3.3h7.5l3.3-3.3h-7.6z"/><path fill="#008bb8" stroke="#394d54" stroke-linejoin="round" stroke-width=".5" d="M26.25 38.554v7.6l-3.3 3.3v-7.6l3.3-3.3z"/><path fill="#20c2ef" stroke="#394d54" stroke-linejoin="round" stroke-width=".5" d="M18.65 31.054h7.6v7.6h-7.6zM22.05 20.154h7.6v7.6h-7.6zM25.25 16.954l-3.2 3.2h7.5l3.3-3.2h-7.6zM17.65 16.954l-3.3 3.2h7.6l3.3-3.2h-7.6z"/><path fill="#20c2ef" stroke="#394d54" stroke-linejoin="round" stroke-width=".5" d="M10.05 16.954l-3.3 3.2h7.6l3.3-3.2h-7.6z"/><path fill="#008bb8" stroke="#394d54" stroke-linejoin="round" stroke-width=".5" d="M32.85 16.954v7.5l-3.3 3.3v-7.6l3.3-3.2z"/><path fill="#20c2ef" stroke="#394d54" stroke-linejoin="round" stroke-width=".5" d="M21.95 27.754l-3.3 3.3h7.6l3.3-3.3h-7.6z"/><path fill="#008bb8" stroke="#394d54" stroke-linejoin="round" stroke-width=".5" d="M29.55 27.754v7.6l-3.3 3.2v-7.5l3.3-3.3z"/><path fill="#20c2ef" stroke="#394d54" stroke-linejoin="round" stroke-width=".5" d="M11.15 23.454h7.6v7.6h-7.6zM14.35 20.154l-3.2 3.3h7.5l3.3-3.3h-7.6z"/><path fill="#008bb8" stroke="#394d54" stroke-linejoin="round" stroke-width=".5" d="M21.95 20.154v7.6l-3.3 3.3v-7.6l3.3-3.3zM32.75 24.554v7.5l-3.3 3.3v-7.6l3.3-3.2zM29.55 35.454v7.6l-3.3 3.2v-7.5l3.3-3.3z"/><path fill="#008bb8" stroke="#394d54" stroke-linejoin="round" stroke-width=".5" d="M32.75 32.254v7.6l-3.3 3.2v-7.5l3.3-3.3zM18.65 31.054h-7.5v-7.6M26.25 38.554h-7.6v-7.5M29.55 27.654h-7.5v-7.5"/><path fill="#20c2ef" stroke="#394d54" stroke-linejoin="round" stroke-width=".5" d="M29.898 24.556l5.374-5.374 5.374 5.374-5.374 5.374z"/><path fill="#008bb8" stroke="#394d54" stroke-linejoin="round" stroke-width=".5" d="M39.85 19.154h-4.6l5.4 5.4h4.6l-5.4-5.4z"/><path fill="#008bb8" stroke="#394d54" stroke-linejoin="round" stroke-width=".5" d="M45.25 24.554l-5.4 5.3h-4.6l5.4-5.3h4.6z"/><path fill="#20c2ef" stroke="#394d54" stroke-linejoin="round" stroke-width=".5" d="M25.765 5.624L31.14.25l5.373 5.374-5.374 5.374z"/><path fill="#008bb8" stroke="#394d54" stroke-linejoin="round" stroke-width=".5" d="M36.45 10.254v-4.6l-5.3 5.3v4.7l5.3-5.4zM31.15 15.654l-5.4-5.4v-4.6l5.4 5.3v4.7z"/><path fill="#20c2ef" stroke="#394d54" stroke-linejoin="round" stroke-width=".5" d="M38.748 11.536l5.374-5.374 5.374 5.374-5.374 5.374z"/><path fill="#008bb8" stroke="#394d54" stroke-linejoin="round" stroke-width=".5" d="M48.75 6.254h-4.6l5.3 5.3h4.6l-5.3-5.3zM54.05 11.554l-5.3 5.4h-4.6l5.3-5.4h4.6z"/></svg>