<svg id="Layer_3" xmlns="http://www.w3.org/2000/svg" viewBox="0 0 54.3 49.6"><style>.st0{fill:#20c2ef}.st0,.st1{stroke:#394d54;stroke-width:.5;stroke-linejoin:round}.st1{fill:#008bb8}</style><title>registry</title><path class="st0" d="M.2 41.8h7.6v7.6H.2z"/><path class="st0" d="M.2 34.2h7.6v7.6H.2z"/><path class="st0" d="M.2 26.7h7.6v7.6H.2zM7.8 41.8h7.6v7.6H7.8zM3.5 23.4L.2 26.7h7.6l3.3-3.3z"/><path class="st0" d="M6.8 20.1l-3.3 3.3h7.6l3.2-3.3z"/><path class="st1" d="M11.1 23.4V31l-3.3 3.2v-7.5z"/><path class="st0" d="M7.8 34.2h7.6v7.6H7.8zM11.1 31l-3.3 3.2h7.6l3.2-3.2z"/><path class="st1" d="M18.6 31v7.5l-3.2 3.3v-7.6z"/><path class="st0" d="M15.4 41.8H23v7.6h-7.6zM18.6 38.5l-3.2 3.3h7.5l3.3-3.3z"/><path class="st1" d="M26.2 38.5v7.6l-3.3 3.3v-7.6z"/><path class="st0" d="M18.6 31h7.6v7.6h-7.6zM22 20.1h7.6v7.6H22zM25.2 16.9L22 20.1h7.5l3.3-3.2zM17.6 16.9l-3.3 3.2h7.6l3.3-3.2z"/><path class="st0" d="M10 16.9l-3.3 3.2h7.6l3.3-3.2z"/><path class="st1" d="M32.8 16.9v7.5l-3.3 3.3v-7.6z"/><path class="st0" d="M21.9 27.7L18.6 31h7.6l3.3-3.3z"/><path class="st1" d="M29.5 27.7v7.6l-3.3 3.2V31z"/><path class="st0" d="M11.1 23.4h7.6V31h-7.6z"/><path class="st0" d="M14.3 20.1l-3.2 3.3h7.5l3.3-3.3z"/><path class="st1" d="M21.9 20.1v7.6L18.6 31v-7.6zM32.7 24.5V32l-3.3 3.3v-7.6zM29.5 35.4V43l-3.3 3.2v-7.5z"/><path class="st1" d="M32.7 32.2v7.6L29.4 43v-7.5zM18.6 31h-7.5v-7.6M26.2 38.5h-7.6V31M29.5 27.6H22v-7.5"/><path class="st0" d="M29.848 24.502l5.373-5.374 5.375 5.374-5.374 5.374z"/><path class="st1" d="M39.8 19.1h-4.6l5.4 5.4h4.6zM45.2 24.5l-5.4 5.3h-4.6l5.4-5.3z"/><path class="st0" d="M25.715 5.57L31.09.196l5.373 5.374-5.374 5.374z"/><path class="st1" d="M36.4 10.2V5.6l-5.3 5.3v4.7z"/><path class="st1" d="M31.1 15.6l-5.4-5.4V5.6l5.4 5.3z"/><path class="st0" d="M38.698 11.482l5.374-5.374 5.374 5.374-5.374 5.374z"/><path class="st1" d="M48.7 6.2h-4.6l5.3 5.3H54z"/><path class="st1" d="M54 11.5l-5.3 5.4h-4.6l5.3-5.4z"/></svg>