<?xml version="1.0" encoding="utf-8"?>
<!-- Generator: Adobe Illustrator 19.2.1, SVG Export Plug-In . SVG Version: 6.00 Build 0)  -->
<!DOCTYPE svg PUBLIC "-//W3C//DTD SVG 1.1//EN" "http://www.w3.org/Graphics/SVG/1.1/DTD/svg11.dtd">
<svg version="1.1" id="Layer_1" xmlns="http://www.w3.org/2000/svg" xmlns:xlink="http://www.w3.org/1999/xlink" x="0px" y="0px"
	 viewBox="0 0 164 178.6" style="enable-background:new 0 0 164 178.6;" xml:space="preserve">
<style type="text/css">
	.st0{fill:#00ACD3;stroke:#394D54;stroke-width:2;stroke-linejoin:round;}
	.st1{fill:#20C2EF;stroke:#394D54;stroke-width:2;stroke-linejoin:round;}
	.st2{fill:#00ACD3;stroke:#394D54;stroke-width:2;stroke-miterlimit:10;}
	.st3{fill:#FFFFFF;}
	.st4{fill:none;stroke:#FFFFFF;stroke-width:6;stroke-miterlimit:10;}
	.st5{fill:#394D54;stroke:#394D54;stroke-miterlimit:10;}
	.st6{fill:#00AADA;}
	.st7{fill:#24B8EB;}
	.st8{fill:#008BB8;}
	.st9{fill:#039BC6;}
	.st10{fill:#00ACD3;}
	.st11{fill:#20C2EF;}
	.st12{fill:#D4EDF1;}
	.st13{fill:#394D54;}
	.st14{fill:#BFDBE0;}
</style>
<title>containers</title>
<rect x="1" y="90.1" class="st0" width="54" height="54"/>
<rect x="55" y="90.1" class="st1" width="54" height="54"/>
<rect x="109" y="90.1" class="st0" width="54" height="54"/>
<polygon class="st2" points="55,90.1 109,90.1 100,45.1 64,45.1 "/>
<polygon class="st1" points="1,90.1 55,90.1 64,45.1 28,45.1 "/>
<polygon class="st1" points="163,90.1 109,90.1 100,45.1 136,45.1 "/>
<rect x="78.1" y="97.4" class="st1" width="7.8" height="39.2"/>
<rect x="62.7" y="97.4" class="st1" width="7.8" height="39.2"/>
<rect x="93.6" y="97.4" class="st1" width="7.8" height="39.2"/>
<rect x="24.1" y="97.4" class="st2" width="7.8" height="39.2"/>
<rect x="8.7" y="97.4" class="st2" width="7.8" height="39.2"/>
<rect x="39.6" y="97.4" class="st2" width="7.8" height="39.2"/>
<rect x="132.1" y="97.4" class="st2" width="7.8" height="39.2"/>
<rect x="116.7" y="97.4" class="st2" width="7.8" height="39.2"/>
<rect x="147.6" y="97.4" class="st2" width="7.8" height="39.2"/>
<rect x="55" y="36.1" class="st0" width="54" height="54"/>
<polygon class="st1" points="55,36.1 109,36.1 100,1 64,1 "/>
<rect x="78.1" y="43.4" class="st2" width="7.8" height="39.2"/>
<rect x="62.7" y="43.4" class="st2" width="7.8" height="39.2"/>
<rect x="93.6" y="43.4" class="st2" width="7.8" height="39.2"/>
<image style="overflow:visible;opacity:0.2;enable-background:new    ;" width="455" height="330" xlink:href="B956E42885509A03.png"  transform="matrix(0.2384 0 0 0.2364 34.127 100.581)">
</image>
<path class="st3" d="M128.3,131.7c-3-1.6-6.6-1.9-9.9-0.9c-0.4-3.4-2.7-6.5-5.3-8.6l-1.1-0.9l-0.9,1c-1.8,2.1-2.3,5.5-2.1,8.2
	c0.1,2,0.8,3.9,2,5.5c-0.9,0.5-1.9,1-2.9,1.3c-1.9,0.6-3.9,1-5.9,1h-4.3v-8.7h-8.5v-17H79.2v8.5h-17v8.5h-8.5v8.7h-7.3l-0.1,1.3
	c-0.4,4.3,0.2,8.6,2,12.5l0.8,1.6l0.1,0.1c5.3,8.9,14.5,12.7,24.5,12.7c19.5,0,35.5-8.7,42.9-27.1c4.9,0.3,10-1.2,12.4-5.9l0.6-1.2
	L128.3,131.7z"/>
<path class="st4" d="M128.3,131.7c-3-1.6-6.6-1.9-9.9-0.9c-0.4-3.4-2.7-6.5-5.3-8.6l-1.1-0.9l-0.9,1c-1.8,2.1-2.3,5.5-2.1,8.2
	c0.1,2,0.8,3.9,2,5.5c-0.9,0.5-1.9,1-2.9,1.3c-1.9,0.6-3.9,1-5.9,1h-4.3v-8.7h-8.5v-17H79.2v8.5h-17v8.5h-8.5v8.7h-7.3l-0.1,1.3
	c-0.4,4.3,0.2,8.6,2,12.5l0.8,1.6l0.1,0.1c5.3,8.9,14.5,12.7,24.5,12.7c19.5,0,35.5-8.7,42.9-27.1c4.9,0.3,10-1.2,12.4-5.9l0.6-1.2
	L128.3,131.7z"/>
<path id="outline" class="st5" d="M89.4,129.6H98v8.7h4.3c2,0,4-0.3,5.9-1c1-0.3,2-0.8,2.9-1.3c-1.2-1.6-1.9-3.5-2-5.5
	c-0.2-2.7,0.3-6.1,2.1-8.2l0.9-1l1.1,0.9c2.7,2.2,4.9,5.2,5.3,8.6c3.3-1,6.8-0.7,9.9,0.9l1.2,0.7l-0.6,1.2
	c-2.4,4.7-7.5,6.2-12.4,5.9c-7.4,18.4-23.4,27.1-42.9,27.1c-10.1,0-19.3-3.8-24.5-12.7l-0.1-0.1l-0.8-1.6c-1.7-3.9-2.4-8.3-2-12.5
	l0.1-1.3h7.3v-8.7h8.5v-8.5h17v-8.5h10.2L89.4,129.6L89.4,129.6z"/>
<g id="body_colors">
	<path class="st6" d="M117,132.8c0.6-4.4-2.8-7.9-4.8-9.6c-2.4,2.7-2.7,9.9,1,13c-2.1,1.8-6.5,3.5-10.9,3.5H47.7
		c-0.5,4.4,0.3,8.8,2.3,12.7l0.6,1.1c0.4,0.7,0.8,1.3,1.3,1.9l0,0c2.2,0.1,4.3,0.2,6.2,0.2l0,0c3.1,0,6.1-0.4,9.1-1.3
		c0.3-0.1,0.7,0.1,0.8,0.4c0.1,0.3-0.1,0.7-0.4,0.8c-0.3,0.1-0.6,0.2-1,0.3l0,0c-2,0.6-4.1,0.9-6.3,1c0.1,0-0.2,0-0.2,0
		c-0.1,0-0.2,0-0.3,0c-1,0.1-2.1,0.1-3.1,0.1c-1.2,0-2.4,0-3.7-0.1l0,0c4.5,5.1,11.7,8.2,20.6,8.2c18.9,0,34.9-8.4,42-27.1
		c5,0.5,9.9-0.8,12.1-5.1C124.1,130.9,119.6,131.5,117,132.8z"/>
	<path class="st7" d="M117,132.8c0.6-4.4-2.8-7.9-4.8-9.6c-2.4,2.7-2.7,9.9,1,13c-2.1,1.8-6.5,3.5-10.9,3.5H50.9
		c-0.2,7.2,2.4,12.6,7.1,15.9l0,0c3.1,0,6.1-0.4,9.1-1.3c0.3-0.1,0.7,0.1,0.8,0.4c0.1,0.3-0.1,0.7-0.4,0.8c-0.3,0.1-0.6,0.2-1,0.3
		l0,0c-2.1,0.6-4.3,0.9-6.4,1.1l-0.1-0.1c6.4,3.3,15.7,3.3,26.4-0.8c12-4.6,23.1-13.4,30.9-23.4C117.3,132.7,117.1,132.8,117,132.8z
		"/>
	<path class="st8" d="M47.8,145.4c0.3,2.4,1.1,4.8,2.2,7l0.6,1.1c0.4,0.7,0.8,1.3,1.3,1.9c2.2,0.1,4.3,0.2,6.2,0.2
		c3.1,0,6.1-0.4,9.1-1.3c0.3-0.1,0.7,0.1,0.8,0.4c0.1,0.3-0.1,0.7-0.4,0.8c-0.3,0.1-0.6,0.2-1,0.3l0,0c-2.1,0.6-4.2,0.9-6.4,1
		c-0.1,0-0.2,0-0.3,0c-1,0.1-2,0.1-3.1,0.1c-1.2,0-2.4,0-3.7-0.1c4.5,5.1,11.7,8.2,20.6,8.2c16.1,0,30.2-6.1,38.4-19.7L47.8,145.4
		L47.8,145.4z"/>
	<path class="st9" d="M51.4,145.4c0.8,4.1,3.2,7.8,6.7,10.2c3.1,0,6.1-0.4,9.1-1.3c0.3-0.1,0.7,0.1,0.8,0.4c0.1,0.3-0.1,0.7-0.4,0.8
		c-0.3,0.1-0.6,0.2-1,0.3l0,0c-2.1,0.6-4.3,0.9-6.5,1c6.4,3.3,15.7,3.2,26.4-0.9c6.6-2.6,12.7-6.2,18.2-10.6L51.4,145.4L51.4,145.4z
		"/>
</g>
<g id="Containers">
	<path class="st10" d="M61.3,131.7h0.6v6.2h-0.6V131.7z M60.1,131.7h0.6v6.2h-0.6V131.7z M59,131.7h0.6v6.2H59V131.7z M57.9,131.7
		h0.6v6.2h-0.6L57.9,131.7L57.9,131.7L57.9,131.7z M56.8,131.7h0.6v6.2h-0.6C56.8,137.8,56.8,131.7,56.8,131.7z M55.7,131.7h0.6v6.2
		h-0.6L55.7,131.7L55.7,131.7L55.7,131.7z M55.1,131h7.4v7.4h-7.4L55.1,131L55.1,131z"/>
	<path class="st10" d="M69.8,123.1h0.6v6.2h-0.6V123.1z M68.7,123.1h0.6v6.2h-0.6V123.1z M67.5,123.1h0.6v6.2h-0.6V123.1z
		 M66.4,123.1H67v6.2h-0.6V123.1z M65.3,123.1h0.6v6.2h-0.6V123.1L65.3,123.1z M64.2,123.1h0.6v6.2h-0.6L64.2,123.1L64.2,123.1
		L64.2,123.1z M63.6,122.5H71v7.4h-7.4V122.5z"/>
	<path class="st11" d="M69.8,131.7h0.6v6.2h-0.6V131.7z M68.7,131.7h0.6v6.2h-0.6V131.7z M67.5,131.7h0.6v6.2h-0.6V131.7z
		 M66.4,131.7H67v6.2h-0.6V131.7z M65.3,131.7h0.6v6.2h-0.6V131.7L65.3,131.7z M64.2,131.7h0.6v6.2h-0.6L64.2,131.7L64.2,131.7
		L64.2,131.7z M63.6,131H71v7.4h-7.4V131z"/>
	<path class="st10" d="M78.3,131.7h0.6v6.2h-0.6V131.7z M77.2,131.7h0.6v6.2h-0.6V131.7z M76.1,131.7h0.6v6.2h-0.6V131.7z
		 M74.9,131.7h0.6v6.2h-0.6L74.9,131.7L74.9,131.7L74.9,131.7z M73.8,131.7h0.6v6.2h-0.6L73.8,131.7L73.8,131.7L73.8,131.7z
		 M72.7,131.7h0.6v6.2h-0.6L72.7,131.7L72.7,131.7L72.7,131.7z M72.1,131h7.4v7.4h-7.4L72.1,131L72.1,131z"/>
	<path class="st11" d="M78.3,123.1h0.6v6.2h-0.6V123.1z M77.2,123.1h0.6v6.2h-0.6V123.1z M76.1,123.1h0.6v6.2h-0.6V123.1z
		 M74.9,123.1h0.6v6.2h-0.6L74.9,123.1L74.9,123.1L74.9,123.1z M73.8,123.1h0.6v6.2h-0.6L73.8,123.1L73.8,123.1L73.8,123.1z
		 M72.7,123.1h0.6v6.2h-0.6L72.7,123.1L72.7,123.1L72.7,123.1z M72.1,122.5h7.4v7.4h-7.4L72.1,122.5L72.1,122.5L72.1,122.5z"/>
	<path class="st11" d="M86.8,131.7h0.6v6.2h-0.6V131.7z M85.7,131.7h0.6v6.2h-0.6V131.7L85.7,131.7z M84.6,131.7h0.6v6.2h-0.6V131.7
		z M83.5,131.7h0.6v6.2h-0.6V131.7z M82.3,131.7h0.6v6.2h-0.6V131.7z M81.2,131.7h0.6v6.2h-0.6L81.2,131.7L81.2,131.7L81.2,131.7z
		 M80.6,131H88v7.4h-7.4L80.6,131L80.6,131z"/>
	<path class="st10" d="M86.8,123.1h0.6v6.2h-0.6V123.1z M85.7,123.1h0.6v6.2h-0.6V123.1L85.7,123.1z M84.6,123.1h0.6v6.2h-0.6V123.1
		z M83.5,123.1h0.6v6.2h-0.6V123.1z M82.3,123.1h0.6v6.2h-0.6V123.1z M81.2,123.1h0.6v6.2h-0.6L81.2,123.1L81.2,123.1L81.2,123.1z
		 M80.6,122.5H88v7.4h-7.4L80.6,122.5L80.6,122.5L80.6,122.5z"/>
	<path class="st11" d="M86.8,114.6h0.6v6.2h-0.6V114.6z M85.7,114.6h0.6v6.2h-0.6V114.6L85.7,114.6z M84.6,114.6h0.6v6.2h-0.6V114.6
		z M83.5,114.6h0.6v6.2h-0.6V114.6z M82.3,114.6h0.6v6.2h-0.6V114.6z M81.2,114.6h0.6v6.2h-0.6L81.2,114.6L81.2,114.6L81.2,114.6z
		 M80.6,114H88v7.4h-7.4L80.6,114L80.6,114L80.6,114z"/>
	<path class="st10" d="M95.3,131.7h0.6v6.2h-0.6V131.7z M94.2,131.7h0.6v6.2h-0.6V131.7z M93.1,131.7h0.6v6.2h-0.6V131.7L93.1,131.7
		z M92,131.7h0.6v6.2H92V131.7z M90.9,131.7h0.6v6.2h-0.6L90.9,131.7L90.9,131.7L90.9,131.7z M89.8,131.7h0.6v6.2h-0.6L89.8,131.7
		L89.8,131.7L89.8,131.7z M89.1,131h7.4v7.4h-7.4L89.1,131L89.1,131z"/>
</g>
<path class="st12" d="M70.5,150.4c1.1,0,2,0.9,2,2c0,1.1-0.9,2-2,2c-1.1,0-2-0.9-2-2c0,0,0,0,0,0l0,0
	C68.5,151.3,69.4,150.4,70.5,150.4"/>
<path class="st13" d="M70.5,151c0.2,0,0.4,0,0.5,0.1c-0.3,0.2-0.4,0.5-0.2,0.8c0.2,0.3,0.5,0.4,0.8,0.2c0.1-0.1,0.2-0.1,0.3-0.3
	c0.3,0.7,0,1.6-0.8,1.9s-1.6,0-1.9-0.8s0-1.6,0.8-1.9C70.1,151,70.3,151,70.5,151"/>
<path class="st14" d="M75.9,165.1c-5-2.4-7.8-5.6-9.4-9.2c-2.2,0.6-4.5,0.9-6.7,1c-1,0.1-2,0.1-3.1,0.1c-1.3,0-2.6,0-4-0.1
	c4.6,4.6,10.3,8.2,20.8,8.2C74.4,165.1,75.2,165.1,75.9,165.1z"/>
<path class="st12" d="M68.5,159.1c-0.7-1-1.4-2.1-1.9-3.3c-2.2,0.6-4.5,0.9-6.7,1C62.5,158.2,65.5,159,68.5,159.1z"/>
</svg>
