<svg id="Layer_3" data-name="Layer 3" xmlns="http://www.w3.org/2000/svg" viewBox="0 0 54.3 49.704"><title>registry</title><rect x="0.25" y="41.854" width="7.6" height="7.6" style="fill:#20c2ef;stroke:#394d54;stroke-linejoin:round;stroke-width:0.5px"/><rect x="0.25" y="34.254" width="7.6" height="7.6" style="fill:#20c2ef;stroke:#394d54;stroke-linejoin:round;stroke-width:0.5px"/><rect x="0.25" y="26.754" width="7.6" height="7.6" style="fill:#20c2ef;stroke:#394d54;stroke-linejoin:round;stroke-width:0.5px"/><rect x="7.85" y="41.854" width="7.6" height="7.6" style="fill:#20c2ef;stroke:#394d54;stroke-linejoin:round;stroke-width:0.5px"/><polygon points="3.55 23.454 0.25 26.754 7.85 26.754 11.15 23.454 3.55 23.454" style="fill:#20c2ef;stroke:#394d54;stroke-linejoin:round;stroke-width:0.5px"/><polygon points="6.85 20.154 3.55 23.454 11.15 23.454 14.35 20.154 6.85 20.154" style="fill:#20c2ef;stroke:#394d54;stroke-linejoin:round;stroke-width:0.5px"/><polygon points="11.15 23.454 11.15 31.054 7.85 34.254 7.85 26.754 11.15 23.454" style="fill:#008bb8;stroke:#394d54;stroke-linejoin:round;stroke-width:0.5px"/><rect x="7.85" y="34.254" width="7.6" height="7.6" style="fill:#20c2ef;stroke:#394d54;stroke-linejoin:round;stroke-width:0.5px"/><polygon points="11.15 31.054 7.85 34.254 15.45 34.254 18.65 31.054 11.15 31.054" style="fill:#20c2ef;stroke:#394d54;stroke-linejoin:round;stroke-width:0.5px"/><polygon points="18.65 31.054 18.65 38.554 15.45 41.854 15.45 34.254 18.65 31.054" style="fill:#008bb8;stroke:#394d54;stroke-linejoin:round;stroke-width:0.5px"/><rect x="15.45" y="41.854" width="7.6" height="7.6" style="fill:#20c2ef;stroke:#394d54;stroke-linejoin:round;stroke-width:0.5px"/><polygon points="18.65 38.554 15.45 41.854 22.95 41.854 26.25 38.554 18.65 38.554" style="fill:#20c2ef;stroke:#394d54;stroke-linejoin:round;stroke-width:0.5px"/><polygon points="26.25 38.554 26.25 46.154 22.95 49.454 22.95 41.854 26.25 38.554" style="fill:#008bb8;stroke:#394d54;stroke-linejoin:round;stroke-width:0.5px"/><rect x="18.65" y="31.054" width="7.6" height="7.6" style="fill:#20c2ef;stroke:#394d54;stroke-linejoin:round;stroke-width:0.5px"/><rect x="22.05" y="20.154" width="7.6" height="7.6" style="fill:#20c2ef;stroke:#394d54;stroke-linejoin:round;stroke-width:0.5px"/><polygon points="25.25 16.954 22.05 20.154 29.55 20.154 32.85 16.954 25.25 16.954" style="fill:#20c2ef;stroke:#394d54;stroke-linejoin:round;stroke-width:0.5px"/><polygon points="17.65 16.954 14.35 20.154 21.95 20.154 25.25 16.954 17.65 16.954" style="fill:#20c2ef;stroke:#394d54;stroke-linejoin:round;stroke-width:0.5px"/><polygon points="10.05 16.954 6.75 20.154 14.35 20.154 17.65 16.954 10.05 16.954" style="fill:#20c2ef;stroke:#394d54;stroke-linejoin:round;stroke-width:0.5px"/><polygon points="32.85 16.954 32.85 24.454 29.55 27.754 29.55 20.154 32.85 16.954" style="fill:#008bb8;stroke:#394d54;stroke-linejoin:round;stroke-width:0.5px"/><polygon points="21.95 27.754 18.65 31.054 26.25 31.054 29.55 27.754 21.95 27.754" style="fill:#20c2ef;stroke:#394d54;stroke-linejoin:round;stroke-width:0.5px"/><polygon points="29.55 27.754 29.55 35.354 26.25 38.554 26.25 31.054 29.55 27.754" style="fill:#008bb8;stroke:#394d54;stroke-linejoin:round;stroke-width:0.5px"/><rect x="11.15" y="23.454" width="7.6" height="7.6" style="fill:#20c2ef;stroke:#394d54;stroke-linejoin:round;stroke-width:0.5px"/><polygon points="14.35 20.154 11.15 23.454 18.65 23.454 21.95 20.154 14.35 20.154" style="fill:#20c2ef;stroke:#394d54;stroke-linejoin:round;stroke-width:0.5px"/><polygon points="21.95 20.154 21.95 27.754 18.65 31.054 18.65 23.454 21.95 20.154" style="fill:#008bb8;stroke:#394d54;stroke-linejoin:round;stroke-width:0.5px"/><polygon points="32.75 24.554 32.75 32.054 29.45 35.354 29.45 27.754 32.75 24.554" style="fill:#008bb8;stroke:#394d54;stroke-linejoin:round;stroke-width:0.5px"/><polygon points="29.55 35.454 29.55 43.054 26.25 46.254 26.25 38.754 29.55 35.454" style="fill:#008bb8;stroke:#394d54;stroke-linejoin:round;stroke-width:0.5px"/><polygon points="32.75 32.254 32.75 39.854 29.45 43.054 29.45 35.554 32.75 32.254" style="fill:#008bb8;stroke:#394d54;stroke-linejoin:round;stroke-width:0.5px"/><polyline points="18.65 31.054 11.15 31.054 11.15 23.454" style="fill:#008bb8;stroke:#394d54;stroke-linejoin:round;stroke-width:0.5px"/><polyline points="26.25 38.554 18.65 38.554 18.65 31.054" style="fill:#008bb8;stroke:#394d54;stroke-linejoin:round;stroke-width:0.5px"/><polyline points="29.55 27.654 22.05 27.654 22.05 20.154" style="fill:#008bb8;stroke:#394d54;stroke-linejoin:round;stroke-width:0.5px"/><rect x="31.422" y="20.702" width="7.6" height="7.6" transform="translate(-6.959 32.136) rotate(-45)" style="fill:#20c2ef;stroke:#394d54;stroke-linejoin:round;stroke-width:0.5px"/><polygon points="39.85 19.154 35.25 19.154 40.65 24.554 45.25 24.554 39.85 19.154" style="fill:#008bb8;stroke:#394d54;stroke-linejoin:round;stroke-width:0.5px"/><polygon points="45.25 24.554 39.85 29.854 35.25 29.854 40.65 24.554 45.25 24.554" style="fill:#008bb8;stroke:#394d54;stroke-linejoin:round;stroke-width:0.5px"/><rect x="27.289" y="1.77" width="7.6" height="7.6" transform="translate(5.217 23.669) rotate(-45)" style="fill:#20c2ef;stroke:#394d54;stroke-linejoin:round;stroke-width:0.5px"/><polygon points="36.45 10.254 36.45 5.654 31.15 10.954 31.15 15.654 36.45 10.254" style="fill:#008bb8;stroke:#394d54;stroke-linejoin:round;stroke-width:0.5px"/><polygon points="31.15 15.654 25.75 10.254 25.75 5.654 31.15 10.954 31.15 15.654" style="fill:#008bb8;stroke:#394d54;stroke-linejoin:round;stroke-width:0.5px"/><rect x="40.272" y="7.682" width="7.6" height="7.6" transform="translate(4.839 34.581) rotate(-45)" style="fill:#20c2ef;stroke:#394d54;stroke-linejoin:round;stroke-width:0.5px"/><polygon points="48.75 6.254 44.15 6.254 49.45 11.554 54.05 11.554 48.75 6.254" style="fill:#008bb8;stroke:#394d54;stroke-linejoin:round;stroke-width:0.5px"/><polygon points="54.05 11.554 48.75 16.954 44.15 16.954 49.45 11.554 54.05 11.554" style="fill:#008bb8;stroke:#394d54;stroke-linejoin:round;stroke-width:0.5px"/></svg>