<?xml version="1.0" encoding="utf-8"?>
<!-- Generator: Adobe Illustrator 19.2.1, SVG Export Plug-In . SVG Version: 6.00 Build 0)  -->
<!DOCTYPE svg PUBLIC "-//W3C//DTD SVG 1.1//EN" "http://www.w3.org/Graphics/SVG/1.1/DTD/svg11.dtd">
<svg version="1.1" id="Layer_3" xmlns="http://www.w3.org/2000/svg" xmlns:xlink="http://www.w3.org/1999/xlink" x="0px" y="0px"
	 viewBox="0 0 54.3 49.6" style="enable-background:new 0 0 54.3 49.6;" xml:space="preserve">
<style type="text/css">
	.st0{fill:#20C2EF;stroke:#394D54;stroke-width:0.5;stroke-linejoin:round;}
	.st1{fill:#008BB8;stroke:#394D54;stroke-width:0.5;stroke-linejoin:round;}
</style>
<title>registry</title>
<rect x="0.2" y="41.8" class="st0" width="7.6" height="7.6"/>
<rect x="0.2" y="34.2" class="st0" width="7.6" height="7.6"/>
<rect x="0.2" y="26.7" class="st0" width="7.6" height="7.6"/>
<rect x="7.8" y="41.8" class="st0" width="7.6" height="7.6"/>
<polygon class="st0" points="3.5,23.4 0.2,26.7 7.8,26.7 11.1,23.4 "/>
<polygon class="st0" points="6.8,20.1 3.5,23.4 11.1,23.4 14.3,20.1 "/>
<polygon class="st1" points="11.1,23.4 11.1,31 7.8,34.2 7.8,26.7 "/>
<rect x="7.8" y="34.2" class="st0" width="7.6" height="7.6"/>
<polygon class="st0" points="11.1,31 7.8,34.2 15.4,34.2 18.6,31 "/>
<polygon class="st1" points="18.6,31 18.6,38.5 15.4,41.8 15.4,34.2 "/>
<rect x="15.4" y="41.8" class="st0" width="7.6" height="7.6"/>
<polygon class="st0" points="18.6,38.5 15.4,41.8 22.9,41.8 26.2,38.5 "/>
<polygon class="st1" points="26.2,38.5 26.2,46.1 22.9,49.4 22.9,41.8 "/>
<rect x="18.6" y="31" class="st0" width="7.6" height="7.6"/>
<rect x="22" y="20.1" class="st0" width="7.6" height="7.6"/>
<polygon class="st0" points="25.2,16.9 22,20.1 29.5,20.1 32.8,16.9 "/>
<polygon class="st0" points="17.6,16.9 14.3,20.1 21.9,20.1 25.2,16.9 "/>
<polygon class="st0" points="10,16.9 6.7,20.1 14.3,20.1 17.6,16.9 "/>
<polygon class="st1" points="32.8,16.9 32.8,24.4 29.5,27.7 29.5,20.1 "/>
<polygon class="st0" points="21.9,27.7 18.6,31 26.2,31 29.5,27.7 "/>
<polygon class="st1" points="29.5,27.7 29.5,35.3 26.2,38.5 26.2,31 "/>
<rect x="11.1" y="23.4" class="st0" width="7.6" height="7.6"/>
<polygon class="st0" points="14.3,20.1 11.1,23.4 18.6,23.4 21.9,20.1 "/>
<polygon class="st1" points="21.9,20.1 21.9,27.7 18.6,31 18.6,23.4 "/>
<polygon class="st1" points="32.7,24.5 32.7,32 29.4,35.3 29.4,27.7 "/>
<polygon class="st1" points="29.5,35.4 29.5,43 26.2,46.2 26.2,38.7 "/>
<polygon class="st1" points="32.7,32.2 32.7,39.8 29.4,43 29.4,35.5 "/>
<polyline class="st1" points="18.6,31 11.1,31 11.1,23.4 "/>
<polyline class="st1" points="26.2,38.5 18.6,38.5 18.6,31 "/>
<polyline class="st1" points="29.5,27.6 22,27.6 22,20.1 "/>
<rect x="31.4" y="20.7" transform="matrix(0.7071 -0.7071 0.7071 0.7071 -6.9924 32.068)" class="st0" width="7.6" height="7.6"/>
<polygon class="st1" points="39.8,19.1 35.2,19.1 40.6,24.5 45.2,24.5 "/>
<polygon class="st1" points="45.2,24.5 39.8,29.8 35.2,29.8 40.6,24.5 "/>
<rect x="27.3" y="1.8" transform="matrix(0.7071 -0.7071 0.7071 0.7071 5.1385 23.6007)" class="st0" width="7.6" height="7.6"/>
<polygon class="st1" points="36.4,10.2 36.4,5.6 31.1,10.9 31.1,15.6 "/>
<polygon class="st1" points="31.1,15.6 25.7,10.2 25.7,5.6 31.1,10.9 "/>
<rect x="40.3" y="7.7" transform="matrix(0.7071 -0.7071 0.7071 0.7071 4.7568 34.5337)" class="st0" width="7.6" height="7.6"/>
<polygon class="st1" points="48.7,6.2 44.1,6.2 49.4,11.5 54,11.5 "/>
<polygon class="st1" points="54,11.5 48.7,16.9 44.1,16.9 49.4,11.5 "/>
</svg>
