<svg id="Layer_3" data-name="Layer 3" xmlns="http://www.w3.org/2000/svg" viewBox="0 0 54.284 49.614"><title>registry</title><rect x="0.25" y="41.802" width="7.563" height="7.563" style="fill:#00ebec;stroke:#006e6f;stroke-linejoin:round;stroke-width:0.5px"/><rect x="0.25" y="34.239" width="7.563" height="7.563" style="fill:#00ebec;stroke:#006e6f;stroke-linejoin:round;stroke-width:0.5px"/><rect x="0.25" y="26.677" width="7.563" height="7.563" style="fill:#00ebec;stroke:#006e6f;stroke-linejoin:round;stroke-width:0.5px"/><rect x="7.813" y="41.802" width="7.563" height="7.563" style="fill:#00ebec;stroke:#006e6f;stroke-linejoin:round;stroke-width:0.5px"/><polygon points="3.518 23.409 0.25 26.677 7.813 26.677 11.081 23.409 3.518 23.409" style="fill:#00ebec;stroke:#006e6f;stroke-linejoin:round;stroke-width:0.5px"/><polygon points="6.786 20.141 3.518 23.409 11.081 23.409 14.349 20.141 6.786 20.141" style="fill:#00ebec;stroke:#006e6f;stroke-linejoin:round;stroke-width:0.5px"/><polygon points="11.081 23.409 11.081 30.971 7.813 34.239 7.813 26.677 11.081 23.409" style="fill:#006e6f;stroke:#006e6f;stroke-linejoin:round;stroke-width:0.5px"/><rect x="7.813" y="34.239" width="7.563" height="7.563" style="fill:#00ebec;stroke:#006e6f;stroke-linejoin:round;stroke-width:0.5px"/><polygon points="11.081 30.971 7.813 34.239 15.376 34.239 18.644 30.971 11.081 30.971" style="fill:#00ebec;stroke:#006e6f;stroke-linejoin:round;stroke-width:0.5px"/><polygon points="18.644 30.971 18.644 38.534 15.376 41.802 15.376 34.239 18.644 30.971" style="fill:#006e6f;stroke:#006e6f;stroke-linejoin:round;stroke-width:0.5px"/><rect x="15.376" y="41.802" width="7.563" height="7.563" style="fill:#00ebec;stroke:#006e6f;stroke-linejoin:round;stroke-width:0.5px"/><polygon points="18.644 38.534 15.376 41.802 22.939 41.802 26.207 38.534 18.644 38.534" style="fill:#00ebec;stroke:#006e6f;stroke-linejoin:round;stroke-width:0.5px"/><polygon points="26.207 38.534 26.207 46.096 22.939 49.364 22.939 41.802 26.207 38.534" style="fill:#006e6f;stroke:#006e6f;stroke-linejoin:round;stroke-width:0.5px"/><rect x="18.644" y="30.971" width="7.563" height="7.563" style="fill:#00ebec;stroke:#006e6f;stroke-linejoin:round;stroke-width:0.5px"/><rect x="21.977" y="20.057" width="7.563" height="7.563" style="fill:#00ebec;stroke:#006e6f;stroke-linejoin:round;stroke-width:0.5px"/><polygon points="25.245 16.873 21.977 20.141 29.54 20.141 32.808 16.873 25.245 16.873" style="fill:#00ebec;stroke:#006e6f;stroke-linejoin:round;stroke-width:0.5px"/><polygon points="17.617 16.873 14.349 20.141 21.912 20.141 25.18 16.873 17.617 16.873" style="fill:#00ebec;stroke:#006e6f;stroke-linejoin:round;stroke-width:0.5px"/><polygon points="9.992 16.873 6.724 20.141 14.287 20.141 17.555 16.873 9.992 16.873" style="fill:#00ebec;stroke:#006e6f;stroke-linejoin:round;stroke-width:0.5px"/><polygon points="32.808 16.873 32.808 24.435 29.54 27.703 29.54 20.141 32.808 16.873" style="fill:#006e6f;stroke:#006e6f;stroke-linejoin:round;stroke-width:0.5px"/><polygon points="21.912 27.703 18.644 30.971 26.207 30.971 29.475 27.703 21.912 27.703" style="fill:#00ebec;stroke:#006e6f;stroke-linejoin:round;stroke-width:0.5px"/><polygon points="29.475 27.703 29.475 35.266 26.207 38.534 26.207 30.971 29.475 27.703" style="fill:#006e6f;stroke:#006e6f;stroke-linejoin:round;stroke-width:0.5px"/><rect x="11.081" y="23.409" width="7.563" height="7.563" style="fill:#00ebec;stroke:#006e6f;stroke-linejoin:round;stroke-width:0.5px"/><polygon points="14.349 20.141 11.081 23.409 18.644 23.409 21.912 20.141 14.349 20.141" style="fill:#00ebec;stroke:#006e6f;stroke-linejoin:round;stroke-width:0.5px"/><polygon points="21.912 20.141 21.912 27.703 18.644 30.971 18.644 23.409 21.912 20.141" style="fill:#006e6f;stroke:#006e6f;stroke-linejoin:round;stroke-width:0.5px"/><polygon points="32.704 24.474 32.704 32.037 29.436 35.305 29.436 27.742 32.704 24.474" style="fill:#006e6f;stroke:#006e6f;stroke-linejoin:round;stroke-width:0.5px"/><polygon points="29.475 35.409 29.475 42.971 26.207 46.239 26.207 38.677 29.475 35.409" style="fill:#006e6f;stroke:#006e6f;stroke-linejoin:round;stroke-width:0.5px"/><polygon points="32.692 32.191 32.692 39.754 29.424 43.022 29.424 35.459 32.692 32.191" style="fill:#006e6f;stroke:#006e6f;stroke-linejoin:round;stroke-width:0.5px"/><polyline points="18.644 30.971 11.081 30.971 11.081 23.409" style="fill:#006e6f;stroke:#006e6f;stroke-linejoin:round;stroke-width:0.5px"/><polyline points="26.207 38.534 18.644 38.534 18.644 30.971" style="fill:#006e6f;stroke:#006e6f;stroke-linejoin:round;stroke-width:0.5px"/><polyline points="29.54 27.62 21.977 27.62 21.977 20.057" style="fill:#006e6f;stroke:#006e6f;stroke-linejoin:round;stroke-width:0.5px"/><rect x="209.03" y="135.284" width="7.563" height="7.563" transform="translate(-16.933 -224.34) rotate(45)" style="fill:#00ebec;stroke:#006e6f;stroke-linejoin:round;stroke-width:0.5px"/><polygon points="39.835 19.127 35.213 19.127 40.561 24.474 45.183 24.474 39.835 19.127" style="fill:#006e6f;stroke:#006e6f;stroke-linejoin:round;stroke-width:0.5px"/><polygon points="45.183 24.474 39.835 29.822 35.213 29.822 40.561 24.474 45.183 24.474" style="fill:#006e6f;stroke:#006e6f;stroke-linejoin:round;stroke-width:0.5px"/><rect x="204.875" y="116.408" width="7.563" height="7.563" transform="translate(263.587 -56.958) rotate(135)" style="fill:#00ebec;stroke:#006e6f;stroke-linejoin:round;stroke-width:0.5px"/><polygon points="36.406 10.219 36.406 5.597 31.058 10.945 31.058 15.567 36.406 10.219" style="fill:#006e6f;stroke:#006e6f;stroke-linejoin:round;stroke-width:0.5px"/><polygon points="31.058 15.567 25.711 10.219 25.711 5.598 31.058 10.945 31.058 15.567" style="fill:#006e6f;stroke:#006e6f;stroke-linejoin:round;stroke-width:0.5px"/><rect x="217.881" y="122.335" width="7.563" height="7.563" transform="translate(-23.497 -234.392) rotate(45)" style="fill:#00ebec;stroke:#006e6f;stroke-linejoin:round;stroke-width:0.5px"/><polygon points="48.686 6.177 44.064 6.177 49.412 11.525 54.034 11.525 48.686 6.177" style="fill:#006e6f;stroke:#006e6f;stroke-linejoin:round;stroke-width:0.5px"/><polygon points="54.034 11.525 48.686 16.873 44.065 16.873 49.412 11.525 54.034 11.525" style="fill:#006e6f;stroke:#006e6f;stroke-linejoin:round;stroke-width:0.5px"/></svg>