<svg id="Layer_1" data-name="Layer 1" xmlns="http://www.w3.org/2000/svg" xmlns:xlink="http://www.w3.org/1999/xlink" viewBox="0 0 30 30.029"><defs><clipPath id="clip-path" transform="translate(0 0)"><rect x="12.016" y="14.53" width="4.974" height="15.47" fill="none"/></clipPath></defs><title>dockerize</title><path d="M15,29.529V24.255H14.5a1.976,1.976,0,0,1,0-3.951H15V15.03H29.5v11.9a2.6,2.6,0,0,1-2.6,2.6H15Z" transform="translate(0 0)" fill="#ccadd2"/><path d="M29,15.53v11.4a2.1,2.1,0,0,1-2.1,2.1H15.5V23.755h-1a1.476,1.476,0,0,1,0-2.951h1V15.53H29m1-1H14.5V19.8a2.476,2.476,0,0,0,0,4.951v5.274H26.9a3.1,3.1,0,0,0,3.1-3.1V14.53h0Z" transform="translate(0 0)" fill="#52306c"/><path d="M22.251,17.475A1.978,1.978,0,0,1,20.275,15.5V15H15V0.5H26.9a2.6,2.6,0,0,1,2.6,2.6V15H24.227v0.5A1.978,1.978,0,0,1,22.251,17.475Z" transform="translate(0 0)" fill="#0ca6f2"/><path d="M26.9,1A2.1,2.1,0,0,1,29,3.1V14.5H23.726v1a1.476,1.476,0,0,1-2.951,0v-1H15.5V1H26.9m0-1H14.5V15.5h5.274a2.476,2.476,0,0,0,4.951,0H30V3.1A3.1,3.1,0,0,0,26.9,0h0Z" transform="translate(0 0)" fill="#52306c"/><path d="M0.5,15V3.1A2.6,2.6,0,0,1,3.1.5H15V5.774h0.5a1.976,1.976,0,1,1,0,3.951H15V15H0.5Z" transform="translate(0 0)" fill="#ccadd2"/><path d="M14.5,1V6.274h1a1.476,1.476,0,0,1,0,2.951h-1V14.5H1V3.1A2.1,2.1,0,0,1,3.1,1H14.5m1-1H3.1A3.1,3.1,0,0,0,0,3.1V15.5H15.5V10.225a2.476,2.476,0,0,0,0-4.951V0h0Z" transform="translate(0 0)" fill="#52306c"/><path d="M3.1,29.529a2.6,2.6,0,0,1-2.6-2.6V15.03H5.774v-0.5a1.975,1.975,0,1,1,3.951,0v0.5H15v14.5H3.1Z" transform="translate(0 0)" fill="#ccadd2"/><path d="M7.749,13.055A1.477,1.477,0,0,1,9.225,14.53v1H14.5v13.5H3.1a2.1,2.1,0,0,1-2.1-2.1V15.53H6.274v-1a1.477,1.477,0,0,1,1.476-1.475m0-1A2.476,2.476,0,0,0,5.274,14.53H0v12.4a3.1,3.1,0,0,0,3.1,3.1H15.5V14.53H10.225a2.475,2.475,0,0,0-2.475-2.475h0Z" transform="translate(0 0)" fill="#52306c"/><g clip-path="url(#clip-path)"><path d="M14.992,29.529V24.255h-0.5a1.976,1.976,0,1,1,0-3.951h0.5V15.03h14.5v11.9a2.6,2.6,0,0,1-2.6,2.6h-11.9Z" transform="translate(0 0)" fill="#ccadd2"/><path d="M28.99,15.53v11.4a2.1,2.1,0,0,1-2.1,2.1h-11.4V23.755h-1a1.476,1.476,0,0,1,0-2.951h1V15.53h13.5m1-1h-15.5V19.8a2.476,2.476,0,0,0,0,4.951v5.274h12.4a3.1,3.1,0,0,0,3.1-3.1V14.53h0Z" transform="translate(0 0)" fill="#52306c"/></g></svg>