<svg id="Layer_1" data-name="Layer 1" xmlns="http://www.w3.org/2000/svg" viewBox="0 0 60 60"><title>guide-rails</title><rect width="60" height="60" fill="none"/><path d="M52.225,37.805v2.743h4.956A2.834,2.834,0,0,0,60,37.729V36.668a2.8,2.8,0,0,0-2.819-2.819h-2.47V32.576h4.9V29.818h-4.7a2.884,2.884,0,0,0-2.834,2.864v0.955a2.833,2.833,0,0,0,2.834,2.819c3.41,0.015-.818,0,2.334,0V37.79" transform="translate(0 0)"/><path d="M25.673,37.138s2.652-.227,2.652-3.652a3.621,3.621,0,0,0-3.213-3.743H19.323V40.548h2.91V37.941l2.516,2.607h4.3Zm-1.121-2.213H22.233v-2.47h2.334a1.218,1.218,0,0,1,.652,1.228A1.251,1.251,0,0,1,24.552,34.925Z" transform="translate(0 0)"/><path d="M35.509,29.818H32.554a2.839,2.839,0,0,0-2.819,2.819v7.911H32.69V38.654h2.773v1.894h2.864V32.637A2.8,2.8,0,0,0,35.509,29.818Zm-0.045,5.774H32.675V32.97s0-.591.924-0.591h1.015a0.694,0.694,0,0,1,.834.591v2.622h0.015Z" transform="translate(0 0)"/><rect x="39.677" y="29.819" width="3.077" height="10.73"/><polygon points="47.072 37.775 47.072 29.819 44.011 29.819 44.011 37.775 44.011 40.549 47.072 40.549 51.21 40.549 51.21 37.775 47.072 37.775"/><path d="M1.061,40.548H13.034s-2.288-10.442,5.289-14.67c1.652-.8,6.911-3.8,15.519,2.561,0.273-.227.53-0.409,0.53-0.409s-7.881-7.866-16.656-6.987c-4.41.394-9.836,4.41-13.018,9.715A26.215,26.215,0,0,0,1.061,40.548Z" transform="translate(0 0)"/><path d="M1.061,40.548H13.034s-2.288-10.442,5.289-14.67c1.652-.8,6.911-3.8,15.519,2.561,0.273-.227.53-0.409,0.53-0.409s-7.881-7.866-16.656-6.987c-4.41.394-9.836,4.41-13.018,9.715A26.215,26.215,0,0,0,1.061,40.548Z" transform="translate(0 0)"/><path d="M1.061,40.548H13.034s-2.288-10.442,5.289-14.67c1.652-.8,6.911-3.8,15.519,2.561,0.273-.227.53-0.409,0.53-0.409s-7.881-7.866-16.656-6.987c-4.425.394-9.851,4.41-13.034,9.715A26,26,0,0,0,1.061,40.548Z" transform="translate(0 0)"/><path d="M26.007,21.892l0.061-1.015a7.411,7.411,0,0,0-1.47-.53l-0.061,1C25.037,21.513,25.522,21.695,26.007,21.892Z" transform="translate(0 0)"/><path d="M24.567,25.1l-0.061.955a8.451,8.451,0,0,1,1.5.182l0.061-.94A10.732,10.732,0,0,0,24.567,25.1Z" transform="translate(0 0)"/><path d="M18.959,20.376h0.152l-0.3-.924a12.093,12.093,0,0,0-1.455.091l0.288,0.894A12.8,12.8,0,0,1,18.959,20.376Z" transform="translate(0 0)"/><path d="M19.687,25.954L20.035,27a9.588,9.588,0,0,1,1.319-.53l-0.333-1A11,11,0,0,0,19.687,25.954Z" transform="translate(0 0)"/><path d="M12.806,21.968l-0.682-1.046c-0.379.2-.773,0.409-1.182,0.652l0.7,1.061C12.033,22.392,12.412,22.165,12.806,21.968Z" transform="translate(0 0)"/><path d="M15.913,28.788l0.727,1.091a8.415,8.415,0,0,1,.894-1.076l-0.682-1.031A8.384,8.384,0,0,0,15.913,28.788Z" transform="translate(0 0)"/><path d="M13.716,33.668l1.228,0.97a12.1,12.1,0,0,1,.318-1.773L14.17,32A14.409,14.409,0,0,0,13.716,33.668Z" transform="translate(0 0)"/><path d="M7.078,26.469L6,25.529c-0.394.379-.773,0.758-1.121,1.137l1.167,1A15.348,15.348,0,0,1,7.078,26.469Z" transform="translate(0 0)"/><path d="M2.5,33.243l-1.743-.637C0.47,33.258.152,34.016,0,34.425l1.743,0.637C1.94,34.547,2.258,33.8,2.5,33.243Z" transform="translate(0 0)"/><path d="M13.488,37.517a15.4,15.4,0,0,0,.182,1.91l1.819,0.652a20.031,20.031,0,0,1-.364-1.97Z" transform="translate(0 0)"/></svg>