<svg id="Layer_1" data-name="Layer 1" xmlns="http://www.w3.org/2000/svg" viewBox="0 0 60 60"><title>guide-nodejs</title><path d="M30,49.5a3.006,3.006,0,0,1-1.5-.4l-4.772-2.824c-0.711-.4-0.364-0.539-0.129-0.621a9.592,9.592,0,0,0,2.158-.982,0.369,0.369,0,0,1,.356.027l3.665,2.176a0.468,0.468,0,0,0,.443,0l14.291-8.249a0.45,0.45,0,0,0,.219-0.386V21.747a0.462,0.462,0,0,0-.222-0.394L30.22,13.112a0.447,0.447,0,0,0-.44,0L15.5,21.356a0.46,0.46,0,0,0-.226.391V38.24a0.435,0.435,0,0,0,.225.381l3.914,2.262c2.125,1.061,3.425-.191,3.425-1.446V23.154a0.411,0.411,0,0,1,.415-0.411h1.812a0.412,0.412,0,0,1,.414.411V39.439c0,2.834-1.545,4.461-4.232,4.461a6.123,6.123,0,0,1-3.292-.893l-3.748-2.159a3.017,3.017,0,0,1-1.5-2.606v-16.5a3.012,3.012,0,0,1,1.5-2.606L28.5,10.883a3.131,3.131,0,0,1,3,0l14.29,8.258a3.018,3.018,0,0,1,1.5,2.606V38.24a3.022,3.022,0,0,1-1.5,2.606L31.5,49.1A3,3,0,0,1,30,49.5h0Zm4.414-11.363c-6.254,0-7.564-2.871-7.564-5.278a0.411,0.411,0,0,1,.413-0.412h1.847a0.416,0.416,0,0,1,.411.349c0.278,1.881,1.11,2.832,4.893,2.832,3.011,0,4.292-.681,4.292-2.278,0-.921-0.363-1.6-5.043-2.064-3.91-.386-6.328-1.25-6.328-4.379,0-2.882,2.431-4.6,6.506-4.6,4.578,0,6.843,1.588,7.131,5a0.412,0.412,0,0,1-.411.45H38.7a0.412,0.412,0,0,1-.4-0.323c-0.445-1.979-1.527-2.611-4.463-2.611-3.287,0-3.67,1.146-3.67,2,0,1.039.451,1.342,4.889,1.93,4.392,0.582,6.477,1.4,6.477,4.491C41.534,36.354,38.938,38.137,34.409,38.137Z" transform="translate(0 0)"/><rect width="60" height="60" fill="none"/></svg>