<svg id="performance" xmlns="http://www.w3.org/2000/svg" viewBox="0 0 31.543 40.514"><title>icons-recycle</title><path d="M24.51,24.483c0.09-.125.2-0.105,0.247,0.041l1.231,3.594a0.2,0.2,0,0,1-.2.271H21.977c-0.154,0-.207-0.1-0.117-0.221Z" transform="translate(-5.228 -6.398)" fill="#ccc"/><path d="M20.819,26.376a4.8,4.8,0,0,1,3.414,1.414,0.587,0.587,0,0,0,.83-0.83A6,6,0,0,0,14.89,30.266a0.587,0.587,0,0,0,.491.672,0.6,0.6,0,0,0,.09.007,0.584,0.584,0,0,0,.58-0.5A4.829,4.829,0,0,1,20.819,26.376Z" transform="translate(-5.228 -6.398)" fill="#ccc"/><path d="M26.815,32.433a0.582,0.582,0,0,0-.342-0.287,0.584,0.584,0,0,0-.737.383,4.768,4.768,0,0,1-1.191,1.961,4.835,4.835,0,0,1-6.828,0,0.587,0.587,0,0,0-.83.83,6,6,0,0,0,9.969-2.438A0.584,0.584,0,0,0,26.815,32.433Z" transform="translate(-5.228 -6.398)" fill="#ccc"/><path d="M17.439,37.8c-0.09.125-.2,0.105-0.247-0.041L15.96,34.162a0.2,0.2,0,0,1,.2-0.271h3.815c0.154,0,.207.1,0.117,0.221Z" transform="translate(-5.228 -6.398)" fill="#ccc"/><path d="M34.467,15.246L30.594,42.462l-0.012.082c-0.7.855-4.766,2.368-9.582,2.368s-8.878-1.513-9.582-2.368l-0.012-.082L7.533,15.246H34.467m2.3-2H5.228l4.2,29.5v0.005c0,2.3,6.28,4.163,11.575,4.163s11.575-1.864,11.575-4.163V42.743l4.2-29.5h0Z" transform="translate(-5.228 -6.398)" fill="#ccc"/><path d="M21,19.094c-8.705,0-14.771-3.082-14.771-5.848S12.295,7.4,21,7.4s14.771,3.082,14.771,5.848S29.705,19.094,21,19.094Z" transform="translate(-5.228 -6.398)" fill="#ececec"/><path d="M21,8.4c8.279,0,13.772,2.918,13.772,4.848S29.279,18.094,21,18.094,7.228,15.176,7.228,13.246,12.721,8.4,21,8.4m0-2c-8.71,0-15.772,3.066-15.772,6.848S12.29,20.094,21,20.094s15.772-3.066,15.772-6.848S29.71,6.4,21,6.4h0Z" transform="translate(-5.228 -6.398)" fill="#b3b3b3"/><path d="M21,8.4c8.279,0,13.772,2.918,13.772,4.848a1.243,1.243,0,0,1-.1.428L34.58,13.9l-0.033.236L30.593,42.467l-0.011.077c-0.7.855-4.766,2.368-9.583,2.368s-8.879-1.513-9.583-2.368l-0.011-.077L7.453,14.131,7.42,13.9l-0.087-.221a1.243,1.243,0,0,1-.1-0.428C7.228,11.316,12.721,8.4,21,8.4m0-2c-8.71,0-15.772,3.066-15.772,6.848a3.162,3.162,0,0,0,.243,1.161L9.426,42.743v0.005c0,2.3,6.28,4.163,11.575,4.163s11.575-1.864,11.575-4.163V42.743l3.954-28.336a3.162,3.162,0,0,0,.243-1.161C36.772,9.464,29.71,6.4,21,6.4h0Z" transform="translate(-5.228 -6.398)" fill="#b3b3b3"/></svg>