<svg xmlns="http://www.w3.org/2000/svg" viewBox="0 0 330 165"><title>setup-urls</title><path d="M6,164.5A5.507,5.507,0,0,1,.5,159V30.5h329V159a5.507,5.507,0,0,1-5.5,5.5H6Z" style="fill:#311d40"/><path d="M329,31V159a5.006,5.006,0,0,1-5,5H6a5.006,5.006,0,0,1-5-5V31H329m1-1H0V159a6,6,0,0,0,6,6H324a6,6,0,0,0,6-6V30h0Z" style="fill:#261731"/><rect x="15.5" y="45.5" width="299" height="35" rx="2.5" ry="2.5" style="fill:#402754"/><path d="M312,46a2,2,0,0,1,2,2V78a2,2,0,0,1-2,2H18a2,2,0,0,1-2-2V48a2,2,0,0,1,2-2H312m0-1H18a3,3,0,0,0-3,3V78a3,3,0,0,0,3,3H312a3,3,0,0,0,3-3V48a3,3,0,0,0-3-3h0Z" style="fill:#261731"/><path d="M21.412,109v-4.484h-4.17V109h-1.2V99.136h1.2v4.272h4.17V99.136h1.2V109h-1.2Z" style="fill:#fff"/><path d="M27.38,109v-8.757H24.4V99.136h7.164v1.107h-2.98V109h-1.2Z" style="fill:#fff"/><path d="M36.034,109v-8.757h-2.98V99.136h7.164v1.107h-2.98V109h-1.2Z" style="fill:#fff"/><path d="M45.6,99.136a3.162,3.162,0,1,1,.082,6.323H43.526V109h-1.21V99.136H45.6Zm-2.071,5.25H45.3a2.094,2.094,0,1,0,0-4.177H43.526v4.177h0Z" style="fill:#fff"/><path d="M62.626,101.439c1.545,0,2.591.772,2.728,2.01H64.232a1.49,1.49,0,0,0-1.627-1.046c-0.943,0-1.552.438-1.552,1.114,0,0.567.383,0.889,1.313,1.094l1.046,0.239c1.442,0.328,2.1.957,2.1,2.03,0,1.367-1.142,2.256-2.9,2.256-1.682,0-2.8-.786-2.926-2.058h1.183a1.633,1.633,0,0,0,1.784,1.08c1.012,0,1.654-.458,1.654-1.169,0-.588-0.362-0.9-1.306-1.114l-1.1-.253c-1.34-.308-2-0.984-2-2.037C59.9,102.3,60.992,101.439,62.626,101.439Z" style="fill:#fff"/><path d="M74.384,107.086a2.767,2.767,0,0,1-2.96,2.051A2.993,2.993,0,0,1,68.2,105.8v-1.114a3.006,3.006,0,0,1,3.138-3.24c1.928,0,3.063,1.278,3.063,3.425V105.6H69.353v0.3a2.017,2.017,0,0,0,2.071,2.235,1.759,1.759,0,0,0,1.832-1.046h1.128v0Zm-5.031-2.372h3.9c0-1.415-.725-2.27-1.921-2.27C70.1,102.444,69.353,103.292,69.353,104.714Z" style="fill:#fff"/><path d="M79.75,103.477a2.424,2.424,0,0,1,2.625-2.085,3.052,3.052,0,0,1,1.073.164v1.306a3.924,3.924,0,0,0-1.224-.205c-1.641,0-2.611,1.135-2.611,3.021v2.393h2.3V109H76.981v-0.93h1.5v-5.558h-1.65v-0.93H79.6v1.894h0.15Z" style="fill:#fff"/><path d="M86.456,101.583l2.071,6.173h0.089l2.058-6.173h1.237L89.2,109H87.926l-2.714-7.417h1.244Z" style="fill:#fff"/><path d="M100.347,107.086a2.767,2.767,0,0,1-2.96,2.051,2.993,2.993,0,0,1-3.22-3.336v-1.114a3.006,3.006,0,0,1,3.138-3.24c1.928,0,3.063,1.278,3.063,3.425V105.6H95.315v0.3a2.017,2.017,0,0,0,2.071,2.235,1.759,1.759,0,0,0,1.832-1.046h1.128v0Zm-5.031-2.372h3.9c0-1.415-.725-2.27-1.921-2.27-1.234,0-1.98.848-1.98,2.27h0Z" style="fill:#fff"/><path d="M105.713,103.477a2.424,2.424,0,0,1,2.625-2.085,3.052,3.052,0,0,1,1.073.164v1.306a3.924,3.924,0,0,0-1.224-.205c-1.641,0-2.611,1.135-2.611,3.021v2.393h2.3V109h-4.929v-0.93h1.5v-5.558H102.8v-0.93h2.769v1.894h0.144Z" style="fill:#fff"/><path d="M123.206,101.439c1.545,0,2.591.772,2.728,2.01h-1.121a1.49,1.49,0,0,0-1.627-1.046c-0.943,0-1.552.438-1.552,1.114,0,0.567.383,0.889,1.313,1.094l1.046,0.239c1.442,0.328,2.1.957,2.1,2.03,0,1.367-1.142,2.256-2.9,2.256-1.682,0-2.8-.786-2.926-2.058h1.183a1.633,1.633,0,0,0,1.784,1.08c1.012,0,1.654-.458,1.654-1.169,0-.588-0.362-0.9-1.306-1.114l-1.1-.253c-1.34-.308-2-0.984-2-2.037C120.479,102.3,121.572,101.439,123.206,101.439Z" style="fill:#fff"/><path d="M131.717,99.594v2.01h3.008V102.6H131.73v4.184c0,0.807.567,1.244,1.613,1.244,0.417,0,1.162-.021,1.36-0.041v0.984c-0.185.034-1.087,0.068-1.442,0.068-1.839,0-2.693-.7-2.693-2.242v-4.2h-1.976V101.6h1.976V99.59h1.148v0Z" style="fill:#fff"/><path d="M137.377,106.895c0-1.312.943-2.092,2.632-2.181l2.037-.1v-0.67a1.377,1.377,0,0,0-1.6-1.442,1.551,1.551,0,0,0-1.647,1h-1.142c0.137-1.189,1.285-2,2.8-2,1.743,0,2.741.889,2.741,2.434v5.079h-1.107V107.9h-0.116a2.28,2.28,0,0,1-2.242,1.237A2.169,2.169,0,0,1,137.377,106.895Zm4.669-.52V105.5l-1.907.089c-1.039.048-1.586,0.492-1.586,1.265a1.3,1.3,0,0,0,1.518,1.258,1.828,1.828,0,0,0,1.971-1.673Q142.045,106.407,142.046,106.375Z" style="fill:#fff"/><path d="M148.984,103.477a2.424,2.424,0,0,1,2.625-2.085,3.052,3.052,0,0,1,1.073.164v1.306a3.924,3.924,0,0,0-1.224-.205c-1.641,0-2.611,1.135-2.611,3.021v2.393h2.3V109h-4.929v-0.93h1.5v-5.558h-1.647v-0.93h2.769v1.894h0.144Z" style="fill:#fff"/><path d="M157.68,99.594v2.01h3.008V102.6h-2.994v4.184c0,0.807.567,1.244,1.613,1.244,0.417,0,1.162-.021,1.36-0.041v0.984c-0.185.034-1.087,0.068-1.442,0.068-1.839,0-2.693-.7-2.693-2.242v-4.2h-1.976V101.6h1.976V99.59h1.148v0Z" style="fill:#fff"/><path d="M169.581,107.086a2.767,2.767,0,0,1-2.96,2.051,2.993,2.993,0,0,1-3.22-3.336v-1.114a3.006,3.006,0,0,1,3.138-3.24c1.928,0,3.063,1.278,3.063,3.425V105.6H164.55v0.3a2.017,2.017,0,0,0,2.071,2.235,1.759,1.759,0,0,0,1.832-1.046h1.128v0Zm-5.031-2.372h3.9c0-1.415-.725-2.27-1.921-2.27-1.234,0-1.979.848-1.979,2.27h0Z" style="fill:#fff"/><path d="M176.861,107.865a2.266,2.266,0,0,1-2.222,1.258c-1.716,0-2.837-1.237-2.837-3.145V104.6a2.816,2.816,0,0,1,2.837-3.138,2.174,2.174,0,0,1,2.188,1.271h0.123V98.671h1.183V109h-1.142v-1.135h-0.13Zm-3.89-2.051a2.016,2.016,0,1,0,4.006,0v-1.066a2.016,2.016,0,1,0-4.006,0v1.066Z" style="fill:#fff"/><path d="M22.67,125.8H16.8v-9.864H18v8.743h4.67V125.8Z" style="fill:#fff"/><path d="M25.076,125.8v-0.964h2.543v-5.489H25.1v-0.964h3.671v6.453h2.454V125.8H25.076Zm2.071-10.192a0.964,0.964,0,1,1,.971.957H28.111a0.939,0.939,0,0,1-.964-0.913q0-.022,0-0.045h0Z" style="fill:#fff"/><path d="M36.663,118.239c1.545,0,2.591.772,2.728,2.01H38.27a1.49,1.49,0,0,0-1.627-1.046c-0.943,0-1.552.438-1.552,1.114,0,0.567.383,0.889,1.313,1.094l1.046,0.239c1.442,0.328,2.1.957,2.1,2.03,0,1.367-1.142,2.256-2.9,2.256-1.682,0-2.8-.786-2.926-2.058h1.183a1.633,1.633,0,0,0,1.784,1.08c1.012,0,1.654-.458,1.654-1.169,0-.588-0.362-0.9-1.306-1.114l-1.1-.253c-1.34-.308-2-0.984-2-2.037C33.936,119.1,35.029,118.239,36.663,118.239Z" style="fill:#fff"/><path d="M45.174,116.394v2.01h3.008v0.991H45.188v4.184c0,0.807.567,1.244,1.613,1.244,0.417,0,1.162-.021,1.36-0.041v0.984c-0.185.034-1.087,0.068-1.442,0.068-1.839,0-2.693-.7-2.693-2.242v-4.2H42.05V118.4h1.976v-2.01h1.148v0Z" style="fill:#fff"/><path d="M57.075,123.886a2.767,2.767,0,0,1-2.96,2.051A2.993,2.993,0,0,1,50.9,122.6v-1.114a3.006,3.006,0,0,1,3.138-3.24c1.928,0,3.063,1.278,3.063,3.425V122.4H52.044v0.3a2.017,2.017,0,0,0,2.071,2.235,1.759,1.759,0,0,0,1.832-1.046h1.128v0Zm-5.031-2.372h3.9c0-1.415-.725-2.27-1.921-2.27C52.789,119.244,52.044,120.092,52.044,121.514Z" style="fill:#fff"/><path d="M59.563,118.383h1.114v1.306h0.1a2.415,2.415,0,0,1,2.372-1.442c1.613,0,2.488.964,2.488,2.741V125.8H64.472v-4.519c0-1.34-.547-1.969-1.7-1.969a1.972,1.972,0,0,0-2.044,2.119V125.8H59.563v-7.417Z" style="fill:#fff"/><path d="M68.348,125.8v-0.964h2.543v-5.489H68.368v-0.964h3.671v6.453h2.454V125.8H68.348Zm2.071-10.192a0.964,0.964,0,1,1,.971.957H71.383a0.939,0.939,0,0,1-.964-0.913q0-.022,0-0.045h0Z" style="fill:#fff"/><path d="M76.872,118.383h1.114v1.306h0.1a2.415,2.415,0,0,1,2.372-1.442c1.613,0,2.488.964,2.488,2.741V125.8H81.78v-4.519c0-1.34-.547-1.969-1.7-1.969a1.972,1.972,0,0,0-2.044,2.119V125.8H76.872v-7.417Z" style="fill:#fff"/><path d="M85.328,126.6h1.148a1.773,1.773,0,0,0,1.887,1.019,1.747,1.747,0,0,0,2.017-1.846v-1.155H90.257a2.263,2.263,0,0,1-2.229,1.251,2.821,2.821,0,0,1-2.844-3.138V121.4a2.826,2.826,0,0,1,2.871-3.138,2.217,2.217,0,0,1,2.208,1.271h0.13v-1.148h1.148V125.8c0,1.743-1.189,2.782-3.2,2.782C86.627,128.582,85.479,127.83,85.328,126.6Zm3.049-1.784a2,2,0,0,0,2.01-2.249v-1.019a2.028,2.028,0,1,0-4.033,0v1.019a2.012,2.012,0,0,0,2.023,2.248h0Z" style="fill:#fff"/><path d="M102.657,122.655v-1.121a3.214,3.214,0,1,1,6.426-.16q0,0.08,0,.16v1.121a3.214,3.214,0,1,1-6.426.16Q102.655,122.735,102.657,122.655Zm1.148-1.019v0.909a2.083,2.083,0,1,0,4.129,0v-0.909a2.083,2.083,0,1,0-4.128,0h0Z" style="fill:#fff"/><path d="M111.489,118.383H112.6v1.306h0.1a2.415,2.415,0,0,1,2.372-1.442c1.613,0,2.488.964,2.488,2.741V125.8H116.4v-4.519c0-1.34-.547-1.969-1.7-1.969a1.972,1.972,0,0,0-2.044,2.119V125.8h-1.162v-7.417h-0.005Z" style="fill:#fff"/><path d="M135.135,121.4v1.381a2.816,2.816,0,0,1-2.837,3.138,2.159,2.159,0,0,1-2.181-1.271h-0.13v3.65H128.8v-9.919h1.148v1.135h0.123a2.272,2.272,0,0,1,2.222-1.258A2.824,2.824,0,0,1,135.135,121.4Zm-5.175.164v1.066a2.016,2.016,0,1,0,4.006,0v-1.066a2.016,2.016,0,1,0-4.006,0v0Z" style="fill:#fff"/><path d="M137.274,122.655v-1.121a3.214,3.214,0,1,1,6.426-.161q0,0.08,0,.161v1.121a3.214,3.214,0,1,1-6.426.161Q137.272,122.735,137.274,122.655Zm1.148-1.019v0.909a2.083,2.083,0,1,0,4.129,0v-0.909a2.083,2.083,0,1,0-4.128,0h0Z" style="fill:#fff"/><path d="M148.984,120.276a2.424,2.424,0,0,1,2.625-2.085,3.052,3.052,0,0,1,1.073.164v1.306a3.924,3.924,0,0,0-1.224-.205c-1.641,0-2.611,1.135-2.611,3.021v2.393h2.3v0.93h-4.929v-0.93h1.5v-5.558h-1.647v-0.93h2.769v1.894h0.144Z" style="fill:#fff"/><path d="M157.68,116.394v2.01h3.008v0.991h-2.994v4.184c0,0.807.567,1.244,1.613,1.244,0.417,0,1.162-.021,1.36-0.041v0.984c-0.185.034-1.087,0.068-1.442,0.068-1.839,0-2.693-.7-2.693-2.242v-4.2h-1.976V118.4h1.976v-2.01h1.148v0Z" style="fill:#fff"/><path d="M171.659,123.161a2.544,2.544,0,0,1,2.01-2.516v-0.109a2.181,2.181,0,0,1-1.613-2.194c0-1.538,1.285-2.625,3.083-2.625s3.076,1.087,3.076,2.625a2.172,2.172,0,0,1-1.613,2.194v0.109a2.516,2.516,0,0,1,2.01,2.516c0,1.682-1.422,2.857-3.473,2.857S171.659,124.843,171.659,123.161Zm5.742-.1a2.3,2.3,0,1,0-2.263,1.907,2.008,2.008,0,0,0,2.248-1.736q0.011-.083.014-0.167v0Zm-0.369-4.621a1.911,1.911,0,1,0-1.894,1.682,1.692,1.692,0,0,0,1.894-1.678v0Z" style="fill:#fff"/><path d="M187.1,120.871c0,3.322-1.189,5.154-3.329,5.154s-3.329-1.832-3.329-5.154,1.183-5.154,3.329-5.154S187.1,117.549,187.1,120.871Zm-1.442-2.229c-0.314-1.224-.95-1.859-1.887-1.859-1.4,0-2.133,1.408-2.133,4.088a10.79,10.79,0,0,0,.048,1.087Zm-3.773,4.478c0.321,1.21.957,1.839,1.887,1.839,1.4,0,2.126-1.415,2.126-4.088,0-.4-0.014-0.759-0.048-1.1Z" style="fill:#fff"/><path d="M0.5,29.5V6A5.506,5.506,0,0,1,6,.5H324A5.507,5.507,0,0,1,329.5,6V29.5H0.5Z" style="fill:#f9f9f9"/><path d="M324,1a5.006,5.006,0,0,1,5,5V29H1V6A5.006,5.006,0,0,1,6,1H324m0-1H6A6,6,0,0,0,0,6V30H330V6a6,6,0,0,0-6-6h0Z" style="fill:#e6e6e6"/><circle cx="17.99" cy="15" r="6" style="fill:#e6e6e6"/><circle cx="38.49" cy="15" r="6" style="fill:#e6e6e6"/><circle cx="58.99" cy="15" r="6" style="fill:#e6e6e6"/><path d="M98.136,20.5l-2.4-8.665H96.93L98.586,18.9h0.051l1.733-7.065h1.085l1.727,7.065h0.058l1.657-7.065h1.193L103.684,20.5h-0.9l-1.847-7h-0.058l-1.847,7h-0.9Z" style="fill:#666"/><path d="M107.064,17.717V16.638a2.717,2.717,0,1,1,5.421,0V17.45h-4.418v0.343a1.747,1.747,0,0,0,1.783,1.936,1.461,1.461,0,0,0,1.479-.8h1.06a2.374,2.374,0,0,1-2.532,1.682A2.635,2.635,0,0,1,107.064,17.717Zm4.418-1.041V16.555a1.721,1.721,0,1,0-3.415,0v0.121h3.415Z" style="fill:#666"/><path d="M115.326,19.526h-0.051V20.5h-0.946V11.128h1V14.9h0.051a1.9,1.9,0,0,1,1.974-1.162,2.521,2.521,0,0,1,2.571,2.825V17.78a2.538,2.538,0,0,1-2.608,2.831A2.028,2.028,0,0,1,115.326,19.526Zm3.6-1.961V16.822c0-1.422-.666-2.2-1.771-2.2a1.809,1.809,0,0,0-1.828,2.038v1.181a1.812,1.812,0,0,0,1.73,1.891q0.065,0,.13,0c1.021,0,1.737-.7,1.737-2.169h0Z" style="fill:#666"/><path d="M125.032,18.187a1.923,1.923,0,0,0,2.19,1.581c1.231,0,2.038-.6,2.038-1.581,0-.736-0.451-1.162-1.429-1.416l-1.556-.413a2.342,2.342,0,0,1-2-2.253c0-1.612,1.454-2.476,2.964-2.476,1.416,0,2.927.743,2.965,2.45H129.19a1.739,1.739,0,0,0-1.92-1.537l-0.055.007c-1.1,0-1.91.527-1.91,1.485a1.366,1.366,0,0,0,1.225,1.327l1.523,0.413c1.34,0.362,2.241.978,2.241,2.342,0,1.708-1.44,2.571-3.2,2.571-2.26,0-3.047-1.39-3.085-2.5h1.023Z" style="fill:#666"/><path d="M131.776,17.717V16.638a2.717,2.717,0,1,1,5.421,0V17.45h-4.418v0.343a1.748,1.748,0,0,0,1.784,1.936,1.459,1.459,0,0,0,1.479-.8H137.1a2.376,2.376,0,0,1-2.533,1.682A2.635,2.635,0,0,1,131.776,17.717Zm4.418-1.041V16.555a1.721,1.721,0,1,0-3.415,0v0.121h3.415Z" style="fill:#666"/><path d="M139.149,13.845h1v1.022H140.2a1.832,1.832,0,0,1,1.867-1.124c0.12,0,.254.013,0.387,0.025V14.7a3.67,3.67,0,0,0-.508-0.025,1.6,1.6,0,0,0-1.8,1.625v4.2h-1V13.845h0Z" style="fill:#666"/><path d="M143.083,13.845h1.11l1.733,5.586h0.044l1.854-5.586h1.066L146.459,20.5h-1Z" style="fill:#666"/><path d="M149.947,17.717V16.638a2.717,2.717,0,1,1,5.421,0V17.45H150.95v0.343a1.747,1.747,0,0,0,1.783,1.936,1.461,1.461,0,0,0,1.479-.8h1.06a2.374,2.374,0,0,1-2.532,1.682A2.635,2.635,0,0,1,149.947,17.717Zm4.418-1.041V16.555a1.721,1.721,0,1,0-3.415,0v0.121h3.415Z" style="fill:#666"/><path d="M157.32,13.845h1v1.022h0.051a1.829,1.829,0,0,1,1.865-1.124c0.121,0,.254.013,0.388,0.025V14.7a3.679,3.679,0,0,0-.508-0.025,1.6,1.6,0,0,0-1.8,1.625v4.2h-1V13.845h0Z" style="fill:#666"/><path d="M163.725,17.393V16.5h13v0.889h-13v0Z" style="fill:#666"/><path d="M186.47,14.4a2.4,2.4,0,0,1-1.619,2.412l1.771,3.694H185.46l-1.612-3.485h-2.19V20.5h-1.009V11.839h3.079A2.475,2.475,0,0,1,186.47,14.4Zm-2.92,1.7c1.25,0,1.879-.59,1.879-1.631a1.611,1.611,0,0,0-1.828-1.708h-1.943V16.1h1.892Z" style="fill:#666"/><path d="M193.728,20.5h-1V19.4H192.67a1.988,1.988,0,0,1-1.987,1.212c-1.332,0-2.291-.578-2.291-2.114V13.845h1v4.38a1.353,1.353,0,0,0,1.523,1.5,1.732,1.732,0,0,0,1.816-1.631V13.845h1V20.5h0Z" style="fill:#666"/><path d="M195.934,13.845h1v1.219h0.051a1.885,1.885,0,0,1,2.031-1.327,2.04,2.04,0,0,1,2.271,2.2V20.5h-1V16.26a1.428,1.428,0,0,0-1.511-1.644,1.885,1.885,0,0,0-1.847,2.171V20.5h-1V13.845h0.005Z" style="fill:#666"/><path d="M203.459,13.845h1v1.219h0.051a1.885,1.885,0,0,1,2.031-1.327,2.04,2.04,0,0,1,2.271,2.2V20.5h-1V16.26a1.428,1.428,0,0,0-1.511-1.644,1.885,1.885,0,0,0-1.847,2.171V20.5h-1V13.845h0.005Z" style="fill:#666"/><path d="M210.6,18.567c0-1.155.807-1.949,2.33-1.949h1.77V15.939a1.262,1.262,0,0,0-1.479-1.32,1.235,1.235,0,0,0-1.4.813h-0.972c0.108-1.136,1.029-1.695,2.419-1.695,1.333,0,2.444.584,2.444,2.2V20.5h-0.965V19.6H214.7a2.158,2.158,0,0,1-1.936,1A2,2,0,0,1,210.6,18.567Zm4.107-.355V17.45h-1.758a1.1,1.1,0,0,0-1.32,1.1,1.225,1.225,0,0,0,1.4,1.181,1.572,1.572,0,0,0,1.669-1.469l0-.05h0.007Z" style="fill:#666"/><path d="M218.891,19.526H218.84V20.5h-0.946V11.128h1V14.9h0.051a1.9,1.9,0,0,1,1.974-1.162,2.521,2.521,0,0,1,2.571,2.825V17.78a2.538,2.538,0,0,1-2.608,2.831A2.028,2.028,0,0,1,218.891,19.526Zm3.6-1.961V16.822c0-1.422-.666-2.2-1.771-2.2a1.809,1.809,0,0,0-1.828,2.038v1.181a1.812,1.812,0,0,0,1.73,1.891q0.065,0,.13,0c1.02,0,1.737-.7,1.737-2.169h0Z" style="fill:#666"/><path d="M225.4,11.128h1V20.5h-1V11.128Z" style="fill:#666"/><path d="M228.311,17.717V16.638a2.717,2.717,0,1,1,5.421,0V17.45h-4.418v0.343a1.747,1.747,0,0,0,1.783,1.936,1.461,1.461,0,0,0,1.479-.8h1.06a2.374,2.374,0,0,1-2.532,1.682A2.635,2.635,0,0,1,228.311,17.717Zm4.418-1.041V16.555a1.721,1.721,0,1,0-3.415,0v0.121h3.415Z" style="fill:#666"/><path d="M39.418,64.5a2.241,2.241,0,0,0,4.481.095q0-.047,0-0.095V58.839h1.01V64.5a3.25,3.25,0,1,1-6.5-.025V58.84h1.009V64.5h0Z" style="fill:#9f92a9"/><path d="M53.091,61.4a2.4,2.4,0,0,1-1.618,2.412l1.77,3.688H52.082L50.47,64.019H48.28V67.5H47.271V58.839h3.078A2.475,2.475,0,0,1,53.091,61.4Zm-2.92,1.7c1.251,0,1.879-.59,1.879-1.631a1.611,1.611,0,0,0-1.828-1.708H48.279V63.1h1.892Z" style="fill:#9f92a9"/><path d="M60.314,67.5H55.262V58.839h1.01v7.744h4.043V67.5h0Z" style="fill:#9f92a9"/><path d="M62.606,61.562a0.857,0.857,0,1,1-.857.857A0.857,0.857,0,0,1,62.606,61.562Zm0,4.335a0.857,0.857,0,1,1,0,1.714h0a0.857,0.857,0,0,1,0-1.711v0Z" style="fill:#9f92a9"/><path d="M68.764,58.128h1v3.936h0.051A2,2,0,0,1,71.9,60.737a2.056,2.056,0,0,1,2.247,2.209V67.5h-1V63.276A1.467,1.467,0,0,0,71.6,61.619,1.9,1.9,0,0,0,69.76,63.79V67.5h-1V58.128h0Z" style="fill:#fff"/><path d="M76.78,59.169h1v1.676h1.511v0.832H77.777v4.018c0,0.819.26,1.022,1.1,1.022,0.152,0,.412-0.019.514-0.032v0.832a7.231,7.231,0,0,1-.768.051c-1.562,0-1.848-.622-1.848-1.923V61.676h-1.01V60.845H76.78V59.169Z" style="fill:#fff"/><path d="M81.566,59.169h1v1.676h1.511v0.832H82.563v4.018c0,0.819.26,1.022,1.1,1.022,0.152,0,.412-0.019.514-0.032v0.832a7.231,7.231,0,0,1-.768.051c-1.562,0-1.848-.622-1.848-1.923V61.676h-1.01V60.845h1.016V59.169h0Z" style="fill:#fff"/><path d="M87.07,66.526H87.02v3.307h-1V60.838h0.946V61.9H87.02a2.007,2.007,0,0,1,2.012-1.162A2.523,2.523,0,0,1,91.6,63.562V64.78a2.538,2.538,0,0,1-2.608,2.831A1.916,1.916,0,0,1,87.07,66.526Zm3.53-1.974V63.809c0-1.435-.673-2.19-1.784-2.19a1.766,1.766,0,0,0-1.8,2.006v1.244a1.765,1.765,0,0,0,1.666,1.859q0.081,0,.162,0C89.876,66.729,90.6,66.037,90.6,64.552Z" style="fill:#fff"/><path d="M95.709,60.737c1.416,0,2.336.755,2.336,1.841h-0.94a1.261,1.261,0,0,0-1.44-1.009,1.188,1.188,0,0,0-1.409,1.06c0,0.825.869,0.933,1.631,1.073,1.251,0.222,2.323.54,2.323,1.854s-1.066,2.057-2.6,2.057c-1.422,0-2.443-.635-2.443-1.828h0.978A1.251,1.251,0,0,0,95.6,66.8l0.06-.012c1.117,0,1.574-.5,1.574-1.111,0-.774-0.73-0.927-1.676-1.111-1.251-.26-2.272-0.514-2.272-1.828C93.278,61.346,94.446,60.737,95.709,60.737Z" style="fill:#fff"/><path d="M100.972,61.562a0.857,0.857,0,1,1-.857.857A0.857,0.857,0,0,1,100.972,61.562Zm0,4.335a0.857,0.857,0,0,1,0,1.714h0a0.857,0.857,0,0,1,0-1.711v0Z" style="fill:#fff"/><path d="M103.308,69.465l3.218-11.083h0.883L104.19,69.465h-0.882Z" style="fill:#fff"/><path d="M108.043,69.465l3.218-11.083h0.883l-3.219,11.083h-0.882Z" style="fill:#fff"/><path d="M113.629,60.845h1v1.047h0.051a1.694,1.694,0,0,1,1.8-1.155,1.8,1.8,0,0,1,1.86,1.25h0.044a2.055,2.055,0,0,1,2.031-1.25,1.953,1.953,0,0,1,2.209,2.069v4.7h-1V63.073a1.338,1.338,0,0,0-1.454-1.454,1.543,1.543,0,0,0-1.551,1.535q0,0.038,0,.077V67.5h-1V63.12a1.408,1.408,0,0,0-1.485-1.5,1.5,1.5,0,0,0-1.521,1.479q0,0.061,0,.121V67.5h-1V60.845h0.011Z" style="fill:#fff"/><path d="M124.54,65.567c0-1.155.807-1.949,2.33-1.949h1.777V62.939a1.262,1.262,0,0,0-1.479-1.32,1.233,1.233,0,0,0-1.4.813H124.8c0.108-1.136,1.028-1.695,2.419-1.695,1.333,0,2.443.584,2.443,2.2V67.5h-0.965V66.6h-0.044a2.158,2.158,0,0,1-1.937,1A2,2,0,0,1,124.54,65.567Zm4.107-.355V64.45h-1.759a1.1,1.1,0,0,0-1.32,1.1,1.226,1.226,0,0,0,1.4,1.181,1.572,1.572,0,0,0,1.676-1.461Q128.646,65.241,128.647,65.212Z" style="fill:#fff"/><path d="M134.056,60.737c1.415,0,2.336.755,2.336,1.841h-0.939a1.261,1.261,0,0,0-1.441-1.009,1.188,1.188,0,0,0-1.409,1.06c0,0.825.87,0.933,1.632,1.073,1.25,0.222,2.323.54,2.323,1.854s-1.066,2.057-2.6,2.057c-1.422,0-2.444-.635-2.444-1.828h0.978a1.251,1.251,0,0,0,1.451,1.012l0.06-.012c1.117,0,1.574-.5,1.574-1.111,0-.774-0.729-0.927-1.676-1.111-1.25-.26-2.272-0.514-2.272-1.828C131.624,61.346,132.792,60.737,134.056,60.737Z" style="fill:#fff"/><path d="M138.835,59.169h1v1.676h1.511v0.832h-1.511v4.018c0,0.819.26,1.022,1.1,1.022,0.152,0,.412-0.019.514-0.032v0.832a7.231,7.231,0,0,1-.768.051c-1.562,0-1.848-.622-1.848-1.923V61.676h-1.016V60.845h1.016V59.169h0Z" style="fill:#fff"/><path d="M142.955,64.717V63.638a2.717,2.717,0,1,1,5.421,0V64.45h-4.418v0.343a1.747,1.747,0,0,0,1.783,1.936,1.461,1.461,0,0,0,1.479-.8h1.06a2.374,2.374,0,0,1-2.532,1.682A2.635,2.635,0,0,1,142.955,64.717Zm4.418-1.041V63.555a1.721,1.721,0,1,0-3.415,0v0.121h3.415Z" style="fill:#fff"/><path d="M150.458,60.845h1v1.022H151.5a1.832,1.832,0,0,1,1.866-1.124c0.121,0,.254.013,0.388,0.025V61.7a3.679,3.679,0,0,0-.508-0.025,1.6,1.6,0,0,0-1.8,1.625v4.2h-1V60.845h0.012Z" style="fill:#fff"/><path d="M154.647,64.393V63.5h4v0.889h-4v0Z" style="fill:#fff"/><path d="M166.518,67.5h-0.972l-1.562-5.2h-0.025l-1.523,5.2h-0.978l-1.892-6.659H160.7l1.231,5.326h0.044l1.518-5.326h0.939L166,66.17h0.044l1.264-5.326h1Z" style="fill:#fff"/><path d="M169.456,64.717V63.638a2.717,2.717,0,1,1,5.421,0V64.45h-4.418v0.343a1.748,1.748,0,0,0,1.784,1.936,1.459,1.459,0,0,0,1.479-.8h1.061a2.376,2.376,0,0,1-2.533,1.682A2.635,2.635,0,0,1,169.456,64.717Zm4.418-1.041V63.555a1.721,1.721,0,1,0-3.415,0v0.121h3.415Z" style="fill:#fff"/><path d="M177.848,66.526H177.8V67.5h-0.945V58.128h1V61.9H177.9a1.9,1.9,0,0,1,1.975-1.162,2.521,2.521,0,0,1,2.57,2.825V64.78a2.538,2.538,0,0,1-2.608,2.831A2.029,2.029,0,0,1,177.848,66.526Zm3.6-1.961V63.822c0-1.422-.667-2.2-1.771-2.2a1.809,1.809,0,0,0-1.828,2.038v1.181a1.812,1.812,0,0,0,1.73,1.891q0.065,0,.13,0c1.02,0,1.738-.7,1.738-2.169h0Z" style="fill:#fff"/><path d="M183.948,64.393V63.5h4v0.889h-4v0Z" style="fill:#fff"/><path d="M189.9,60.845h1v1.022h0.051a1.83,1.83,0,0,1,1.866-1.124c0.12,0,.254.013,0.387,0.025V61.7a3.669,3.669,0,0,0-.508-0.025,1.6,1.6,0,0,0-1.8,1.625v4.2h-1V60.845h0Z" style="fill:#fff"/><path d="M200.059,67.5h-1V66.4H199a1.988,1.988,0,0,1-1.987,1.212c-1.333,0-2.291-.578-2.291-2.114V60.845h1v4.38a1.353,1.353,0,0,0,1.523,1.5,1.731,1.731,0,0,0,1.815-1.631V60.845h1V67.5h0Z" style="fill:#fff"/><path d="M202.4,60.845h1v1.219h0.051a1.887,1.887,0,0,1,2.031-1.327,2.04,2.04,0,0,1,2.272,2.2V67.5h-1V63.26a1.428,1.428,0,0,0-1.511-1.644,1.886,1.886,0,0,0-1.848,2.171V67.5h-1V60.845H202.4Z" style="fill:#fff"/><path d="M210.05,60.845h1v1.219h0.05a1.887,1.887,0,0,1,2.031-1.327,2.04,2.04,0,0,1,2.272,2.2V67.5h-1V63.26a1.428,1.428,0,0,0-1.511-1.644,1.886,1.886,0,0,0-1.848,2.171V67.5h-1V60.845h0.006Z" style="fill:#fff"/><path d="M217.317,65.567c0-1.155.807-1.949,2.33-1.949h1.777V62.939a1.262,1.262,0,0,0-1.479-1.32,1.233,1.233,0,0,0-1.4.813h-0.972c0.108-1.136,1.028-1.695,2.419-1.695,1.333,0,2.443.584,2.443,2.2V67.5H221.47V66.6h-0.044a2.158,2.158,0,0,1-1.937,1A2,2,0,0,1,217.317,65.567Zm4.107-.355V64.45h-1.759a1.1,1.1,0,0,0-1.32,1.1,1.226,1.226,0,0,0,1.4,1.181,1.572,1.572,0,0,0,1.677-1.459q0-.03,0-0.06h0Z" style="fill:#fff"/><path d="M225.741,66.526H225.69V67.5h-0.946V58.128h1V61.9h0.051a1.9,1.9,0,0,1,1.974-1.162,2.521,2.521,0,0,1,2.571,2.825V64.78a2.538,2.538,0,0,1-2.609,2.831A2.027,2.027,0,0,1,225.741,66.526Zm3.6-1.961V63.822c0-1.422-.666-2.2-1.771-2.2a1.808,1.808,0,0,0-1.828,2.038v1.181a1.812,1.812,0,0,0,1.73,1.891q0.065,0,.129,0c1.022,0,1.739-.7,1.739-2.169h0Z" style="fill:#fff"/><path d="M232.013,64.717V63.638a2.717,2.717,0,1,1,5.421,0V64.45h-4.418v0.343a1.747,1.747,0,0,0,1.783,1.936,1.461,1.461,0,0,0,1.479-.8h1.06a2.374,2.374,0,0,1-2.532,1.682A2.635,2.635,0,0,1,232.013,64.717Zm4.418-1.041V63.555a1.721,1.721,0,1,0-3.415,0v0.121h3.415Z" style="fill:#fff"/><path d="M239.014,65.567c0-1.155.807-1.949,2.33-1.949h1.777V62.939a1.262,1.262,0,0,0-1.479-1.32,1.233,1.233,0,0,0-1.4.813H239.27c0.108-1.136,1.028-1.695,2.419-1.695,1.333,0,2.443.584,2.443,2.2V67.5h-0.965V66.6h-0.044a2.158,2.158,0,0,1-1.937,1A2,2,0,0,1,239.014,65.567Zm4.107-.355V64.45h-1.759a1.1,1.1,0,0,0-1.32,1.1,1.226,1.226,0,0,0,1.4,1.181,1.572,1.572,0,0,0,1.676-1.461Q243.12,65.241,243.121,65.212Z" style="fill:#fff"/><path d="M246.549,60.845h1v1.022H247.6a1.832,1.832,0,0,1,1.866-1.124c0.121,0,.254.013,0.388,0.025V61.7a3.679,3.679,0,0,0-.508-0.025,1.6,1.6,0,0,0-1.8,1.625v4.2h-1V60.845h0Z" style="fill:#fff"/><path d="M251.239,65.9a0.857,0.857,0,1,1,0,1.714h0A0.857,0.857,0,0,1,251.239,65.9Z" style="fill:#fff"/><path d="M254.42,60.845h1v1.022h0.051a1.832,1.832,0,0,1,1.866-1.124c0.121,0,.254.013,0.388,0.025V61.7a3.679,3.679,0,0,0-.508-0.025,1.6,1.6,0,0,0-1.8,1.625v4.2h-1V60.845h0Z" style="fill:#fff"/><path d="M264.582,67.5h-1V66.4h-0.058a1.986,1.986,0,0,1-1.986,1.212c-1.333,0-2.292-.578-2.292-2.114V60.845h1v4.38a1.352,1.352,0,0,0,1.523,1.5,1.731,1.731,0,0,0,1.815-1.631V60.845h1V67.5h0Z" style="fill:#fff"/><path d="M266.918,60.845h1v1.219h0.051A1.885,1.885,0,0,1,270,60.737a2.04,2.04,0,0,1,2.272,2.2V67.5h-1V63.26a1.428,1.428,0,0,0-1.511-1.644,1.885,1.885,0,0,0-1.847,2.171V67.5h-1V60.845h0Z" style="fill:#fff"/><path d="M275.271,65.9a0.857,0.857,0,0,1,0,1.714h0A0.857,0.857,0,0,1,275.271,65.9Z" style="fill:#fff"/><path d="M279,58.014a0.749,0.749,0,1,1-.743.755,0.736,0.736,0,0,1,.717-0.755H279Zm-0.489,2.831h1V67.5h-1V60.845Z" style="fill:#fff"/><path d="M287.339,63.644V64.7a2.829,2.829,0,1,1-5.656.15q0-.075,0-0.15V63.644a2.736,2.736,0,0,1,2.558-2.9q0.137-.009.273,0A2.7,2.7,0,0,1,287.339,63.644Zm-4.659.114V64.6a1.852,1.852,0,1,0,3.662,0V63.758A1.853,1.853,0,1,0,282.68,63.758Z" style="fill:#fff"/><path d="M288.3,69.465l3.218-11.083H292.4l-3.219,11.083H288.3Z" style="fill:#fff"/></svg>