<svg xmlns="http://www.w3.org/2000/svg" viewBox="0 0 556 188"><title>notification</title><path d="M153.7,164.3a4.3,4.3,0,0,0,0,8.6,4.26817,4.26817,0,0,0,4.3-4.3,4.39873,4.39873,0,0,0-4.3-4.3m0,11.3a7,7,0,1,1,7-7,7.08627,7.08627,0,0,1-7,7" style="fill:#f7c78a"/><path d="M423.1,158.7c-1.4,1.5-3.1,1.1-4.9,1.7a6.96262,6.96262,0,0,0-3.5,2.3,7.11614,7.11614,0,0,0-1.7,4.1c-0.2,1.6.5,3.5-.6,4.8-1.1,1.4-2.7,1.2-4.2,1.5a8.15473,8.15473,0,0,0-4.1,2.4,7.67611,7.67611,0,0,0-1.7,3.9c-0.2,1.7.5,3.6-.6,5.1-1.6,2.3,1.6,5.3,3.2,3a8.00382,8.00382,0,0,0,1.7-4.4c0.1-1.6-.5-3.2.6-4.6,1.1-1.5,3-1.2,4.6-1.6a7.31422,7.31422,0,0,0,3.8-2.4,7.67611,7.67611,0,0,0,1.7-3.9c0.2-1.7-.5-3.7.6-5.1,1-1.4,2.7-1.2,4.2-1.5a8.15473,8.15473,0,0,0,4.1-2.4c2-1.9-1.2-4.9-3.2-2.9" style="fill:#f7c78a"/><path d="M423.7,71.9a6.7,6.7,0,1,0,6.7,6.7,6.7004,6.7004,0,0,0-6.7-6.7m0,17.7a11,11,0,1,1,11-11,11.09765,11.09765,0,0,1-11,11" style="fill:#7bc8f5"/><path d="M123.9,0.1c-1.5,1.4-3.2.9-5,1.3a6.65356,6.65356,0,0,0-3.6,2.1,7.6213,7.6213,0,0,0-2,4c-0.3,1.6.3,3.5-.9,4.8s-2.8,1-4.3,1.2a7.16559,7.16559,0,0,0-4.3,2.2,7.467,7.467,0,0,0-2,3.7c-0.3,1.7.2,3.6-1,5.1-1.8,2.2,1.2,5.4,3,3.2a8.70235,8.70235,0,0,0,2.1-4.3c0.2-1.5-.2-3.2.9-4.5,1.2-1.4,3.1-1,4.7-1.3a7.77544,7.77544,0,0,0,4-2.1,7.467,7.467,0,0,0,2-3.7c0.3-1.7-.3-3.7,1-5.1,1.1-1.3,2.8-1,4.3-1.2a8.09172,8.09172,0,0,0,4.3-2.2c2-1.9-1.1-5.1-3.2-3.2" style="fill:#f7c78a"/><path d="M104,168.1a5.54882,5.54882,0,0,1-5.5-5.5v-78a5.54882,5.54882,0,0,1,5.5-5.5H452a5.54882,5.54882,0,0,1,5.5,5.5v78a5.54882,5.54882,0,0,1-5.5,5.5H104Z" style="fill:#60cd77"/><path d="M452,79.6a4.95144,4.95144,0,0,1,5,5v78a4.95144,4.95144,0,0,1-5,5H104a4.95143,4.95143,0,0,1-5-5v-78a4.95143,4.95143,0,0,1,5-5H452m0-1H104a6.01764,6.01764,0,0,0-6,6v78a6.01764,6.01764,0,0,0,6,6H452a6.01765,6.01765,0,0,0,6-6v-78a5.954,5.954,0,0,0-6-6h0Z" style="fill:#4bbd64"/><path d="M189.6,116.6V103.9h5.1c2.4,0,3.8,1.2,3.8,3.2a2.79191,2.79191,0,0,1-2.2,2.7v0.1a3.05322,3.05322,0,0,1,2.9,3c0,2.2-1.6,3.6-4.3,3.6h-5.3v0.1Zm2-7.4h2.3c1.7,0,2.6-.6,2.6-1.8s-0.9-1.9-2.3-1.9h-2.7v3.7h0.1Zm2.8,5.7q2.7,0,2.7-2.1c0-1.3-1-2-2.8-2h-2.7v4.1h2.8Z" style="fill:#fff"/><path d="M209.5,116.6h-1.8V115h-0.1a2.85229,2.85229,0,0,1-2.9,1.7c-2.1,0-3.3-1.3-3.3-3.5V107h1.9v5.7c0,1.5.6,2.3,2,2.3a2.20794,2.20794,0,0,0,2.4-2.4V107h1.9v9.6h-0.1Z" style="fill:#fff"/><path d="M212,104.2a1.2,1.2,0,1,1,1.2,1.2A1.216,1.216,0,0,1,212,104.2Zm0.3,2.8h1.9v9.6h-1.9V107Z" style="fill:#fff"/><path d="M217,103.3h1.9v13.3H217V103.3Z" style="fill:#fff"/><path d="M224.3,104.6V107h2.1v1.6h-2.1v4.9a1.18911,1.18911,0,0,0,1.4,1.4h0.7v1.6a3.402,3.402,0,0,1-1,.1c-2.1,0-2.9-.7-2.9-2.6v-5.4H221V107h1.5v-2.4h1.8Z" style="fill:#fff"/><path d="M233,113.9c0-1.7,1.3-2.7,3.6-2.9l2.6-.1V110c0-1-.7-1.6-2-1.6a1.8263,1.8263,0,0,0-2,1.1h-1.8c0.2-1.6,1.7-2.7,3.9-2.7,2.4,0,3.8,1.2,3.8,3.2v6.5h-1.8v-1.3H239a3.16044,3.16044,0,0,1-2.9,1.5A2.81755,2.81755,0,0,1,233,113.9Zm6.1-.9v-0.8l-2.3.1c-1.3.1-1.9,0.5-1.9,1.4s0.7,1.4,1.8,1.4A2.19482,2.19482,0,0,0,239.1,113Z" style="fill:#fff"/><path d="M252.6,111.8c0,3-1.5,4.9-4,4.9a3.02515,3.02515,0,0,1-2.9-1.6h-0.1v4.6h-1.9V107h1.8v1.6h0.1a3.28733,3.28733,0,0,1,3-1.7C251.1,106.8,252.6,108.7,252.6,111.8Zm-1.9,0c0-2-1-3.2-2.6-3.2s-2.6,1.2-2.6,3.3c0,2,1,3.2,2.6,3.2C249.7,115,250.7,113.8,250.7,111.8Z" style="fill:#fff"/><path d="M254.7,104.2a1.2,1.2,0,1,1,1.2,1.2A1.216,1.216,0,0,1,254.7,104.2Zm0.2,2.8h1.9v9.6h-1.9V107Z" style="fill:#fff"/><path d="M259.7,119.3l3.8-15.4h1.7l-3.8,15.4h-1.7Z" style="fill:#fff"/><path d="M268.7,108.6h-1.6V107h1.6v-0.9c0-2,1.1-2.8,3.1-2.8a3.08286,3.08286,0,0,1,1,.1v1.5c-0.2,0-.5-0.1-0.8-0.1a1.22408,1.22408,0,0,0-1.4,1.4V107h2.1v1.6h-2.1v7.9h-1.9v-7.9h0Z" style="fill:#fff"/><path d="M282.6,114a3.90864,3.90864,0,0,1-4.1,2.8c-2.7,0-4.4-1.9-4.4-4.9s1.7-5,4.4-5,4.3,1.8,4.3,4.8v0.7H276v0.1c0.1,1.7,1,2.7,2.5,2.7a2.35569,2.35569,0,0,0,2.3-1.2h1.8Zm-6.7-3.1h4.8a2.33741,2.33741,0,0,0-2.4-2.5A2.39381,2.39381,0,0,0,275.9,110.9Z" style="fill:#fff"/><path d="M284.4,113.9c0-1.7,1.3-2.7,3.6-2.9l2.6-.1V110c0-1-.7-1.6-2-1.6a1.82631,1.82631,0,0,0-2,1.1h-1.8c0.2-1.6,1.7-2.7,3.9-2.7,2.4,0,3.8,1.2,3.8,3.2v6.5h-1.8v-1.3h-0.1a3.16044,3.16044,0,0,1-2.9,1.5C285.8,116.7,284.4,115.6,284.4,113.9Zm6.2-.9v-0.8l-2.3.1c-1.3.1-1.9,0.5-1.9,1.4s0.7,1.4,1.8,1.4A2.25424,2.25424,0,0,0,290.6,113Z" style="fill:#fff"/><path d="M297.7,104.6V107h2.1v1.6h-2.1v4.9a1.18911,1.18911,0,0,0,1.4,1.4h0.7v1.6a3.402,3.402,0,0,1-1,.1c-2.1,0-2.9-.7-2.9-2.6v-5.4h-1.5V107h1.5v-2.4h1.8Z" style="fill:#fff"/><path d="M310.1,116.6h-1.8V115h-0.1a2.85229,2.85229,0,0,1-2.9,1.7c-2.1,0-3.3-1.3-3.3-3.5V107h1.9v5.7c0,1.5.6,2.3,2,2.3a2.20794,2.20794,0,0,0,2.4-2.4V107h1.9v9.6h-0.1Z" style="fill:#fff"/><path d="M312.8,107h1.8v1.5h0.1a2.632,2.632,0,0,1,2.6-1.6,1.94941,1.94941,0,0,1,.8.1v1.9a3.42059,3.42059,0,0,0-1.1-.1,2.21092,2.21092,0,0,0-2.4,2.2v5.7h-1.9V107h0.1Z" style="fill:#fff"/><path d="M327.9,114a3.90864,3.90864,0,0,1-4.1,2.8c-2.7,0-4.4-1.9-4.4-4.9s1.7-5,4.4-5,4.3,1.8,4.3,4.8v0.7h-6.8v0.1c0.1,1.7,1,2.7,2.5,2.7a2.35569,2.35569,0,0,0,2.3-1.2h1.8Zm-6.7-3.1H326a2.33741,2.33741,0,0,0-2.4-2.5A2.3938,2.3938,0,0,0,321.2,110.9Z" style="fill:#fff"/><path d="M330.3,112.4v-1.9h5.8v1.9h-5.8Z" style="fill:#fff"/><path d="M340.9,115h-0.1v1.5H339V103.2h1.9v5.3H341a3.20559,3.20559,0,0,1,2.9-1.7c2.4,0,4,1.9,4,4.9s-1.5,4.9-4,4.9A2.95172,2.95172,0,0,1,340.9,115Zm-0.1-3.2c0,2,1,3.2,2.6,3.2s2.6-1.2,2.6-3.3c0-2-1-3.2-2.6-3.2S340.8,109.8,340.8,111.8Z" style="fill:#fff"/><path d="M350.1,107h1.8v1.5H352a2.632,2.632,0,0,1,2.6-1.6,1.94941,1.94941,0,0,1,.8.1v1.9a3.42059,3.42059,0,0,0-1.1-.1,2.21092,2.21092,0,0,0-2.4,2.2v5.7H350V107h0.1Z" style="fill:#fff"/><path d="M356.7,113.9c0-1.7,1.3-2.7,3.6-2.9l2.6-.1V110c0-1-.7-1.6-2-1.6a1.82631,1.82631,0,0,0-2,1.1h-1.8c0.2-1.6,1.7-2.7,3.9-2.7,2.4,0,3.8,1.2,3.8,3.2v6.5H363v-1.3h-0.1a3.16044,3.16044,0,0,1-2.9,1.5C358.1,116.7,356.7,115.6,356.7,113.9Zm6.2-.9v-0.8l-2.3.1c-1.3.1-1.9,0.5-1.9,1.4s0.7,1.4,1.8,1.4A2.25424,2.25424,0,0,0,362.9,113Z" style="fill:#fff"/><path d="M367.4,107h1.8v1.5h0.1a2.85229,2.85229,0,0,1,2.9-1.7c2.1,0,3.3,1.3,3.3,3.6v6.2h-1.9v-5.7c0-1.5-.7-2.3-2.1-2.3a2.18128,2.18128,0,0,0-2.3,2.4v5.6h-1.9V107h0.1Z" style="fill:#fff"/><path d="M384.5,110.1a2.15468,2.15468,0,0,0-2.3-1.6c-1.6,0-2.5,1.2-2.5,3.3s1,3.3,2.5,3.3a2.11112,2.11112,0,0,0,2.3-1.6h1.8c-0.2,1.9-1.7,3.3-4.1,3.3-2.8,0-4.5-1.9-4.5-5s1.7-4.9,4.5-4.9a3.81617,3.81617,0,0,1,4.1,3.3h-1.8v-0.1Z" style="fill:#fff"/><path d="M388.6,103.3h1.9v5.3h0.1a2.94055,2.94055,0,0,1,2.9-1.7c2,0,3.3,1.3,3.3,3.6v6.2h-1.9V111c0-1.5-.7-2.3-2-2.3a2.2568,2.2568,0,0,0-2.4,2.4v5.6h-1.9V103.3Z" style="fill:#fff"/><path d="M189.3,140.6V130h1.5l3.6,8.7h0.1l3.6-8.7h1.5v10.6h-1.2v-8.1h-0.1l-3.3,8h-1l-3.3-8h-0.1v8.1h-1.3Z" style="fill:#dff8e4"/><path d="M202.4,143.4v-1.1h0.5c0.7,0,1.1-.3,1.5-1.3l0.1-.5-2.9-7.9H203l2.2,6.5h0.1l2.2-6.5h1.3l-3.1,8.4c-0.7,1.8-1.3,2.4-2.7,2.4Z" style="fill:#dff8e4"/><path d="M210.3,139.6l4.6-5.8v-0.1h-4.5v-1.1h6v0.9l-4.5,5.8v0.1h4.6v1.1h-6.1v-0.9h-0.1Z" style="fill:#dff8e4"/><path d="M220.3,130.6v2h1.8v1.1h-1.8v4.5a1.09406,1.09406,0,0,0,1.2,1.3h0.6v1.1c-0.2,0-.5.1-0.7,0.1-1.6,0-2.3-.6-2.3-2.1v-4.8h-1.3v-1.1h1.3v-2h1.2v-0.1Z" style="fill:#dff8e4"/><path d="M223.8,130.2a0.9,0.9,0,1,1,.9.9A0.89625,0.89625,0,0,1,223.8,130.2Zm0.2,2.5h1.3v7.9H224v-7.9Z" style="fill:#dff8e4"/><path d="M233.1,134h0.1v-1.3h1.2v10.5h-1.3v-3.8H233a2.66091,2.66091,0,0,1-2.5,1.3c-2,0-3.3-1.6-3.3-4.1s1.3-4.1,3.3-4.1A2.86765,2.86765,0,0,1,233.1,134Zm0.1,2.6c0-1.8-.9-3-2.3-3s-2.3,1.1-2.3,3,0.8,3,2.3,3C232.3,139.6,233.2,138.4,233.2,136.6Z" style="fill:#dff8e4"/><path d="M248.2,136.6c0,2.5-1.3,4.1-3.3,4.1a2.86322,2.86322,0,0,1-2.5-1.3h-0.1v3.8H241V132.7h1.2V134h0.1a2.94627,2.94627,0,0,1,2.5-1.5C246.9,132.5,248.2,134.1,248.2,136.6Zm-1.3,0c0-1.8-.9-3-2.3-3s-2.3,1.1-2.3,3c0,1.8.9,3,2.3,3S246.9,138.5,246.9,136.6Z" style="fill:#dff8e4"/><path d="M256.6,140.6h-1.2v-1.2h-0.1a2.3939,2.3939,0,0,1-2.4,1.4c-1.8,0-2.7-1.1-2.7-2.9v-5.1h1.3v4.8c0,1.4.5,2.1,1.8,2.1a2.00094,2.00094,0,0,0,2.2-2.2v-4.7h1.3v7.8h-0.2Z" style="fill:#dff8e4"/><path d="M261.7,132.5c1.7,0,2.8.8,3,2.1h-1.2a1.635,1.635,0,0,0-1.7-1,1.51385,1.51385,0,0,0-1.7,1.2c0,0.5.4,0.9,1.4,1.1l1.2,0.3c1.5,0.4,2.2,1,2.2,2.1,0,1.4-1.4,2.4-3.2,2.4s-3-.8-3.1-2.2h1.3a1.69365,1.69365,0,0,0,1.9,1.1c1.1,0,1.8-.5,1.8-1.2,0-.5-0.4-0.9-1.3-1.1l-1.4-.3c-1.5-.4-2.2-1-2.2-2.1A2.73449,2.73449,0,0,1,261.7,132.5Z" style="fill:#dff8e4"/><path d="M266.9,129.5h1.3v4.4h0.1a2.39392,2.39392,0,0,1,2.4-1.4,2.58014,2.58014,0,0,1,2.7,2.9v5.1h-1.3v-4.8q0-2.1-1.8-2.1a2.04773,2.04773,0,0,0-2.2,2.2v4.7h-1.3v-11h0.1Z" style="fill:#dff8e4"/><path d="M282.2,138.5a3.12662,3.12662,0,0,1-3.3,2.2c-2.2,0-3.6-1.6-3.6-4.1s1.4-4.1,3.6-4.1c2.1,0,3.4,1.5,3.4,4V137h-5.7v0.1c0.1,1.6.9,2.5,2.3,2.5a1.99263,1.99263,0,0,0,2-1.1h1.3v0Zm-5.6-2.5H281a2.10636,2.10636,0,0,0-2.1-2.3A2.20221,2.20221,0,0,0,276.6,136Z" style="fill:#dff8e4"/><path d="M283.9,136.6c0-2.5,1.3-4.1,3.3-4.1a2.73883,2.73883,0,0,1,2.5,1.4h0.1v-4.4h1.3v11h-1.2v-1.3h-0.1a2.73883,2.73883,0,0,1-2.5,1.4C285.2,140.7,283.9,139.1,283.9,136.6Zm1.3,0c0,1.8.9,3,2.3,3s2.3-1.1,2.3-3c0-1.8-.9-3-2.3-3C286,133.7,285.2,134.8,285.2,136.6Z" style="fill:#dff8e4"/><path d="M297.2,138.3c0-1.4,1-2.2,2.9-2.3l2.3-.1v-0.7q0-1.5-1.8-1.5a1.77879,1.77879,0,0,0-1.8,1h-1.3c0.2-1.3,1.4-2.1,3.1-2.1,1.9,0,3,1,3,2.6v5.4h-1.2v-1.2h-0.1a2.81336,2.81336,0,0,1-2.4,1.3A2.45028,2.45028,0,0,1,297.2,138.3Zm5.2-.7v-0.7l-2.1.1c-1.2.1-1.7,0.5-1.7,1.3a1.41083,1.41083,0,0,0,1.6,1.3A2.11984,2.11984,0,0,0,302.4,137.6Z" style="fill:#dff8e4"/><path d="M313,132.5c1.7,0,2.8.8,3,2.1h-1.2a1.635,1.635,0,0,0-1.7-1,1.51385,1.51385,0,0,0-1.7,1.2c0,0.5.4,0.9,1.4,1.1l1.2,0.3c1.5,0.4,2.2,1,2.2,2.1,0,1.4-1.4,2.4-3.2,2.4s-3-.8-3.1-2.2h1.3a1.69365,1.69365,0,0,0,1.9,1.1c1.1,0,1.8-.5,1.8-1.2,0-.5-0.4-0.9-1.3-1.1l-1.4-.3c-1.5-.4-2.2-1-2.2-2.1C310,133.5,311.3,132.5,313,132.5Z" style="fill:#dff8e4"/><path d="M324.6,138.5a3.12662,3.12662,0,0,1-3.3,2.2c-2.2,0-3.6-1.6-3.6-4.1s1.4-4.1,3.6-4.1c2.1,0,3.4,1.5,3.4,4V137H319v0.1c0.1,1.6.9,2.5,2.3,2.5a1.99263,1.99263,0,0,0,2-1.1h1.3v0ZM319,136h4.3a2.10636,2.10636,0,0,0-2.1-2.3A2.17954,2.17954,0,0,0,319,136Z" style="fill:#dff8e4"/><path d="M331.9,135.1a1.90593,1.90593,0,0,0-2-1.4c-1.4,0-2.3,1.1-2.3,2.9s0.9,3,2.3,3a1.81459,1.81459,0,0,0,2-1.4h1.3c-0.2,1.5-1.4,2.5-3.3,2.5-2.2,0-3.6-1.6-3.6-4.1s1.4-4.1,3.6-4.1a3.12341,3.12341,0,0,1,3.3,2.6h-1.3Z" style="fill:#dff8e4"/><path d="M334.6,136.6c0-2.5,1.4-4.1,3.6-4.1s3.6,1.5,3.6,4.1c0,2.5-1.4,4.1-3.6,4.1S334.6,139.1,334.6,136.6Zm6,0c0-1.9-.8-3-2.3-3s-2.3,1.1-2.3,3,0.8,3,2.3,3S340.6,138.5,340.6,136.6Z" style="fill:#dff8e4"/><path d="M343.9,132.7h1.2v1.2h0.1a2.39392,2.39392,0,0,1,2.4-1.4,2.5613,2.5613,0,0,1,2.8,2.9v5.1h-1.3v-4.8c0-1.4-.6-2.1-1.9-2.1a1.97357,1.97357,0,0,0-2.1,2.2v4.7h-1.3v-7.8h0.1Z" style="fill:#dff8e4"/><path d="M352.3,136.6c0-2.5,1.3-4.1,3.3-4.1a2.73883,2.73883,0,0,1,2.5,1.4h0.1v-4.4h1.3v11h-1.2v-1.3h-0.1a2.73883,2.73883,0,0,1-2.5,1.4C353.6,140.7,352.3,139.1,352.3,136.6Zm1.3,0c0,1.8.9,3,2.3,3s2.3-1.1,2.3-3c0-1.8-.9-3-2.3-3C354.4,133.7,353.6,134.8,353.6,136.6Z" style="fill:#dff8e4"/><path d="M365.6,138.3c0-1.4,1-2.2,2.9-2.3l2.3-.1v-0.7q0-1.5-1.8-1.5a1.77879,1.77879,0,0,0-1.8,1h-1.3c0.2-1.3,1.4-2.1,3.1-2.1,1.9,0,3,1,3,2.6v5.4h-1.2v-1.2h-0.1a2.81336,2.81336,0,0,1-2.4,1.3A2.45028,2.45028,0,0,1,365.6,138.3Zm5.2-.7v-0.7l-2.1.1c-1.2.1-1.7,0.5-1.7,1.3a1.41083,1.41083,0,0,0,1.6,1.3A2.11984,2.11984,0,0,0,370.8,137.6Z" style="fill:#dff8e4"/><path d="M374.3,141.4h1.3c0.1,0.6.8,1.1,2,1.1,1.4,0,2.3-.7,2.3-1.9V139h-0.1a2.73883,2.73883,0,0,1-2.5,1.4c-2,0-3.3-1.6-3.3-3.9,0-2.4,1.3-4,3.3-4a2.635,2.635,0,0,1,2.5,1.4h0.1v-1.3h1.2v8c0,1.8-1.4,2.9-3.5,2.9C375.7,143.6,374.5,142.7,374.3,141.4Zm3.3-7.7c-1.5,0-2.3,1.1-2.3,2.8s0.8,2.8,2.3,2.8,2.3-1.1,2.3-2.8S379,133.7,377.6,133.7Z" style="fill:#dff8e4"/><path d="M383.1,136.6c0-2.5,1.4-4.1,3.6-4.1s3.6,1.5,3.6,4.1c0,2.5-1.4,4.1-3.6,4.1S383.1,139.1,383.1,136.6Zm6,0c0-1.9-.8-3-2.3-3s-2.3,1.1-2.3,3,0.8,3,2.3,3S389.1,138.5,389.1,136.6Z" style="fill:#dff8e4"/><path d="M143,148.6a25,25,0,1,1,25-25A25.00912,25.00912,0,0,1,143,148.6Zm0-48a23,23,0,1,0,23,23A23.00327,23.00327,0,0,0,143,100.6Z" style="fill:#3c804b"/><path d="M156.2,118a6.425,6.425,0,0,1,1.8-1.3c1.4-.9,2.9-1.8,2.8-3.8a4.04348,4.04348,0,0,0-1.8-2.8,5.40278,5.40278,0,0,0-4.2-1.2c-2,.5-2.9,2.1-3.4,3.9a26.5707,26.5707,0,0,0-6.1-1.1,3.12587,3.12587,0,0,1,.9-1.1,3.15322,3.15322,0,0,0-2.3.5,9.9584,9.9584,0,0,1,1-1.1c-1.6-.3-3.1.6-4.4,1.7a20.86862,20.86862,0,0,0-6,1,4.89517,4.89517,0,0,0-3.4-3.8,5.50255,5.50255,0,0,0-4.2,1.2,4.04351,4.04351,0,0,0-1.8,2.8c-0.1,2,1.4,3,2.8,3.8a11.09459,11.09459,0,0,1,1.6,1.2c-2.5,7.2-2.3,20.7-2.3,20.7l-0.3,2.9a23.91164,23.91164,0,0,0,31.2.8c-0.1-1.9-.1-3.7-0.1-3.7,0.1-3.2.4-14.2-1.8-20.6" style="fill:#3c804b"/><path d="M138.3,121c2.7-3.9,14.4-2.7,9.6,9.7-0.7,1.8-1.5,3.6-2.3,5.4-0.1.1-.1-0.4-0.3-0.3-0.8,1.4-1.8.7-2.7-.5a21.39555,21.39555,0,0,1-2.2,1c-2.6-3.2-4.8-11.4-2.1-15.3" style="fill:#60cd77"/><path d="M146.4,122.5c-0.5-.5-1.9-0.7-3.4-0.7a6.63314,6.63314,0,0,0-3.4.7c-1,1,1.1,3.3,2.9,3.7v3.9a0.45751,0.45751,0,0,0-.4.5,0.47238,0.47238,0,0,0,.5.5h0.8a0.47238,0.47238,0,0,0,.5-0.5,0.66443,0.66443,0,0,0-.4-0.5v-3.9c1.9-.5,3.9-2.7,2.9-3.7" style="fill:#3c804b"/><circle cx="125" cy="138.60001" r="9" style="fill:#fff"/><path d="M120.5,137.7h0a0.96668,0.96668,0,0,1,1.4,0l2.8,2.8a0.96666,0.96666,0,0,1,0,1.4h0a0.96668,0.96668,0,0,1-1.4,0l-2.8-2.8A0.96666,0.96666,0,0,1,120.5,137.7Z" style="fill:#60cd77"/><path d="M123.3,140.5l4.9-4.9a0.96667,0.96667,0,0,1,1.4,0h0a0.96667,0.96667,0,0,1,0,1.4l-4.9,4.9a0.96668,0.96668,0,0,1-1.4,0h0A0.96506,0.96506,0,0,1,123.3,140.5Z" style="fill:#60cd77"/><path d="M295,64.9a1.95159,1.95159,0,0,1-1.3-1.2,1.81244,1.81244,0,0,1,1.2-2.2l15.8-4.4L299,45.6a1.76777,1.76777,0,0,1,2.5-2.5l13.9,13.6a1.77435,1.77435,0,0,1,.5,1.7,1.95171,1.95171,0,0,1-1.2,1.3L296,64.9h-1" style="fill:#f7c78a"/><path d="M239.2,30.9a1.70269,1.70269,0,0,1-1.8.3,1.86667,1.86667,0,0,1-1.1-2.3l5.6-15.8-16.5,3.1a1.82483,1.82483,0,1,1-.6-3.6L244.4,9a1.83168,1.83168,0,0,1,1.7.6,1.93891,1.93891,0,0,1,.3,1.8l-6.7,18.8a1.79362,1.79362,0,0,1-.5.7" style="fill:#f58f99"/><path d="M517.2,164.1a1.3969,1.3969,0,0,1-1.5.3,1.70034,1.70034,0,0,1-1-2l4.8-13.6-14.2,2.6a1.57,1.57,0,0,1-.5-3.1l16.9-3.1a1.65067,1.65067,0,0,1,1.5.5,1.3968,1.3968,0,0,1,.3,1.5l-5.7,16.2a4.34984,4.34984,0,0,1-.6.7" style="fill:#f58f99"/><path d="M468.9,16.4a6.44349,6.44349,0,0,1,2.4-1.1,4.66194,4.66194,0,0,1,2.6.1,18.83219,18.83219,0,0,1,3.6,1.2,12.83455,12.83455,0,0,0,2.4.9,3.42174,3.42174,0,0,0,1.3.2,0.7786,0.7786,0,0,0,.7-0.3,5.33862,5.33862,0,0,0,.7-1,1.77944,1.77944,0,0,1,2.5-.6c1.3,0.6,1.6,1.6.9,3.2a6.13738,6.13738,0,0,1-1.7,2.4,4.58866,4.58866,0,0,1-2.5,1,5.12163,5.12163,0,0,1-2.9-.5c-1.7-.7-3-1.2-4-1.6s-1.7-.6-2-0.7a5.9708,5.9708,0,0,0-1.9,0,7.93143,7.93143,0,0,0-1.6.8,4.213,4.213,0,0,1-1.3.7,2.17717,2.17717,0,0,1-1.3-.2,2.04407,2.04407,0,0,1-1.4-1.7,14.93109,14.93109,0,0,0-.5-2.2,3.05093,3.05093,0,0,0-1-1.3,8.63588,8.63588,0,0,0-1.6-1c-0.6-.3-2.1-1-4.5-2a5.34926,5.34926,0,0,1-3-2.9,5.60456,5.60456,0,0,1,.2-4.2c0.7-1.6,1.7-2.1,2.9-1.6a2.04837,2.04837,0,0,1,1.2,1,1.46831,1.46831,0,0,1,.1,1.3,5.04938,5.04938,0,0,0-.2,1.5,1.6315,1.6315,0,0,0,.8.9c0.5,0.3,1.4.7,2.8,1.4a24.4086,24.4086,0,0,1,3.3,1.7,5.50149,5.50149,0,0,1,1.9,1.8,5.17663,5.17663,0,0,1,1.1,2.8" style="fill:#8cda9d"/><path d="M33.9,154.8a8.14578,8.14578,0,0,1,2.5.9,5.50148,5.50148,0,0,1,1.8,1.9,26.60692,26.60692,0,0,1,1.7,3.4c0.4,1.1.8,1.9,1,2.4a5.22308,5.22308,0,0,0,.8,1.1,1.32936,1.32936,0,0,0,.7.3c0.2,0,.6-0.1,1.2-0.2a1.53113,1.53113,0,0,1,1.3.2,2.474,2.474,0,0,1,1,1.2c0.5,1.3,0,2.3-1.6,3a6.01077,6.01077,0,0,1-2.9.4,4.58861,4.58861,0,0,1-2.5-1,6.13757,6.13757,0,0,1-1.7-2.4c-0.7-1.6-1.3-3-1.7-4a11.60139,11.60139,0,0,0-.9-1.9,4.62085,4.62085,0,0,0-1.4-1.4,6.86553,6.86553,0,0,0-1.7-.5,15.46737,15.46737,0,0,1-1.5-.4,1.97081,1.97081,0,0,1-.8-1.1,2.43556,2.43556,0,0,1,.2-2.2,9.26221,9.26221,0,0,0,1.2-1.9,2.85085,2.85085,0,0,0,.2-1.6,7.66758,7.66758,0,0,0-.5-1.9c-0.2-.6-0.8-2.2-1.8-4.7a5.11929,5.11929,0,0,1,0-4.2,5.29441,5.29441,0,0,1,3.2-2.8c1.6-.6,2.7-0.3,3.2,1a3.07967,3.07967,0,0,1,.2,1.6,1.58879,1.58879,0,0,1-.8,1,3.0925,3.0925,0,0,0-1.2.9,1.574,1.574,0,0,0-.1,1.2c0.1,0.5.5,1.5,1,3a27.56924,27.56924,0,0,1,1.1,3.6,6.14539,6.14539,0,0,1,0,2.7,6.759,6.759,0,0,1-1.2,2.4" style="fill:#7bc8f5"/><path d="M68.8,97.3l2.7-1.1L62.1,72.7l-2.7,1.1c-1.4.6-2.3,0.3-2.8-.9-0.5-1.1,0-2,1.4-2.6l4-1.6a2.99372,2.99372,0,0,1,1.8-.3,1.61245,1.61245,0,0,1,1.3.6,5.60477,5.60477,0,0,1,1,1.5L76,95.1a3.21991,3.21991,0,0,1,.2,2.5,3.12083,3.12083,0,0,1-1.9,1.6l-4,1.6a2.95419,2.95419,0,0,1-1.8.2,1.58925,1.58925,0,0,1-1-1.1c-0.5-1.2-.1-2,1.3-2.6" style="fill:#f58f99"/><path d="M497.7,100.7c1.3,0.8,1.6,1.7.9,2.8a1.78456,1.78456,0,0,1-1.2.9,2.38139,2.38139,0,0,1-1.7-.5l-3.7-2.3a3.11868,3.11868,0,0,1-1.6-1.9,3.88484,3.88484,0,0,1,.6-2.4l14-22.5a5.121,5.121,0,0,1,1.2-1.3,2.29587,2.29587,0,0,1,1.4-.4,4.35926,4.35926,0,0,1,1.7.6L513,76c1.3,0.8,1.6,1.7.9,2.8s-1.6,1.2-2.9.4l-2.5-1.5L495.2,99.2l2.5,1.5" style="fill:#f7c78a"/><path d="M353.7,6l-2.5.6,5.3,21.9,2.5-.6c1.3-.3,2.1.1,2.3,1.1,0.3,1.1-.3,1.8-1.6,2.1l-3.8.9a4.45439,4.45439,0,0,1-1.6.1,1.90134,1.90134,0,0,1-1.1-.7,5.22632,5.22632,0,0,1-.7-1.5L347.1,7a3.17168,3.17168,0,0,1,.1-2.2,3.12645,3.12645,0,0,1,1.9-1.2l3.8-.9a2.09686,2.09686,0,0,1,1.6.1,1.87866,1.87866,0,0,1,.8,1.1c0.2,1.1-.3,1.7-1.6,2.1" style="fill:#7bc8f5"/><path d="M10,55.1a5.8,5.8,0,1,0,5.8,5.8A5.86942,5.86942,0,0,0,10,55.1m0,15.3a9.5,9.5,0,0,1,0-19,9.5,9.5,0,0,1,0,19" style="fill:#f7c78a"/><path d="M166.9,42.8a5,5,0,1,0,5,5,4.89068,4.89068,0,0,0-5-5m0,13.3a8.3,8.3,0,1,1,8.3-8.3,8.27955,8.27955,0,0,1-8.3,8.3" style="fill:#8cda9d"/><path d="M548,50.3a4.6,4.6,0,1,0,4.6,4.6,4.5877,4.5877,0,0,0-4.6-4.6m0,12a7.5,7.5,0,1,1,7.5-7.5,7.42714,7.42714,0,0,1-7.5,7.5" style="fill:#8cda9d"/></svg>