<svg xmlns="http://www.w3.org/2000/svg" viewBox="0 0 556 188"><title>notification</title><path d="M153.7 164.3a4.3 4.3 0 0 0 0 8.6 4.268 4.268 0 0 0 4.3-4.3 4.4 4.4 0 0 0-4.3-4.3m0 11.3a7 7 0 1 1 7-7 7.086 7.086 0 0 1-7 7M423.1 158.7c-1.4 1.5-3.1 1.1-4.9 1.7a6.963 6.963 0 0 0-3.5 2.3 7.116 7.116 0 0 0-1.7 4.1c-.2 1.6.5 3.5-.6 4.8-1.1 1.4-2.7 1.2-4.2 1.5a8.155 8.155 0 0 0-4.1 2.4 7.676 7.676 0 0 0-1.7 3.9c-.2 1.7.5 3.6-.6 5.1-1.6 2.3 1.6 5.3 3.2 3a8.004 8.004 0 0 0 1.7-4.4c.1-1.6-.5-3.2.6-4.6 1.1-1.5 3-1.2 4.6-1.6a7.314 7.314 0 0 0 3.8-2.4 7.676 7.676 0 0 0 1.7-3.9c.2-1.7-.5-3.7.6-5.1 1-1.4 2.7-1.2 4.2-1.5a8.155 8.155 0 0 0 4.1-2.4c2-1.9-1.2-4.9-3.2-2.9" fill="#f7c78a"/><path d="M423.7 71.9a6.7 6.7 0 1 0 6.7 6.7 6.7 6.7 0 0 0-6.7-6.7m0 17.7a11 11 0 1 1 11-11 11.098 11.098 0 0 1-11 11" fill="#7bc8f5"/><path d="M123.9.1c-1.5 1.4-3.2.9-5 1.3a6.654 6.654 0 0 0-3.6 2.1 7.62 7.62 0 0 0-2 4c-.3 1.6.3 3.5-.9 4.8s-2.8 1-4.3 1.2a7.166 7.166 0 0 0-4.3 2.2 7.467 7.467 0 0 0-2 3.7c-.3 1.7.2 3.6-1 5.1-1.8 2.2 1.2 5.4 3 3.2a8.702 8.702 0 0 0 2.1-4.3c.2-1.5-.2-3.2.9-4.5 1.2-1.4 3.1-1 4.7-1.3a7.775 7.775 0 0 0 4-2.1 7.467 7.467 0 0 0 2-3.7c.3-1.7-.3-3.7 1-5.1 1.1-1.3 2.8-1 4.3-1.2a8.092 8.092 0 0 0 4.3-2.2c2-1.9-1.1-5.1-3.2-3.2" fill="#f7c78a"/><path d="M104 168.1a5.55 5.55 0 0 1-5.5-5.5v-78a5.55 5.55 0 0 1 5.5-5.5h348a5.55 5.55 0 0 1 5.5 5.5v78a5.55 5.55 0 0 1-5.5 5.5H104z" fill="#60cd77"/><path d="M452 79.6a4.95 4.95 0 0 1 5 5v78a4.95 4.95 0 0 1-5 5H104a4.95 4.95 0 0 1-5-5v-78a4.95 4.95 0 0 1 5-5h348m0-1H104a6.018 6.018 0 0 0-6 6v78a6.018 6.018 0 0 0 6 6h348a6.018 6.018 0 0 0 6-6v-78a5.954 5.954 0 0 0-6-6z" fill="#4bbd64"/><path d="M189.6 116.6v-12.7h5.1c2.4 0 3.8 1.2 3.8 3.2a2.792 2.792 0 0 1-2.2 2.7v.1a3.053 3.053 0 0 1 2.9 3c0 2.2-1.6 3.6-4.3 3.6h-5.3v.1zm2-7.4h2.3c1.7 0 2.6-.6 2.6-1.8s-.9-1.9-2.3-1.9h-2.7v3.7h.1zm2.8 5.7q2.7 0 2.7-2.1c0-1.3-1-2-2.8-2h-2.7v4.1h2.8zM209.5 116.6h-1.8V115h-.1a2.852 2.852 0 0 1-2.9 1.7c-2.1 0-3.3-1.3-3.3-3.5V107h1.9v5.7c0 1.5.6 2.3 2 2.3a2.208 2.208 0 0 0 2.4-2.4V107h1.9v9.6h-.1zM212 104.2a1.2 1.2 0 1 1 1.2 1.2 1.216 1.216 0 0 1-1.2-1.2zm.3 2.8h1.9v9.6h-1.9V107zM217 103.3h1.9v13.3H217v-13.3zM224.3 104.6v2.4h2.1v1.6h-2.1v4.9a1.19 1.19 0 0 0 1.4 1.4h.7v1.6a3.402 3.402 0 0 1-1 .1c-2.1 0-2.9-.7-2.9-2.6v-5.4H221V107h1.5v-2.4h1.8zM233 113.9c0-1.7 1.3-2.7 3.6-2.9l2.6-.1v-.9c0-1-.7-1.6-2-1.6a1.826 1.826 0 0 0-2 1.1h-1.8c.2-1.6 1.7-2.7 3.9-2.7 2.4 0 3.8 1.2 3.8 3.2v6.5h-1.8v-1.3h-.3a3.16 3.16 0 0 1-2.9 1.5 2.818 2.818 0 0 1-3.1-2.8zm6.1-.9v-.8l-2.3.1c-1.3.1-1.9.5-1.9 1.4s.7 1.4 1.8 1.4a2.195 2.195 0 0 0 2.4-2.1zM252.6 111.8c0 3-1.5 4.9-4 4.9a3.025 3.025 0 0 1-2.9-1.6h-.1v4.6h-1.9V107h1.8v1.6h.1a3.287 3.287 0 0 1 3-1.7c2.5-.1 4 1.8 4 4.9zm-1.9 0c0-2-1-3.2-2.6-3.2s-2.6 1.2-2.6 3.3c0 2 1 3.2 2.6 3.2 1.6-.1 2.6-1.3 2.6-3.3zM254.7 104.2a1.2 1.2 0 1 1 1.2 1.2 1.216 1.216 0 0 1-1.2-1.2zm.2 2.8h1.9v9.6h-1.9V107zM259.7 119.3l3.8-15.4h1.7l-3.8 15.4h-1.7zM268.7 108.6h-1.6V107h1.6v-.9c0-2 1.1-2.8 3.1-2.8a3.083 3.083 0 0 1 1 .1v1.5c-.2 0-.5-.1-.8-.1a1.224 1.224 0 0 0-1.4 1.4v.8h2.1v1.6h-2.1v7.9h-1.9v-7.9zM282.6 114a3.91 3.91 0 0 1-4.1 2.8c-2.7 0-4.4-1.9-4.4-4.9s1.7-5 4.4-5 4.3 1.8 4.3 4.8v.7H276v.1c.1 1.7 1 2.7 2.5 2.7a2.356 2.356 0 0 0 2.3-1.2h1.8zm-6.7-3.1h4.8a2.337 2.337 0 0 0-2.4-2.5 2.394 2.394 0 0 0-2.4 2.5zM284.4 113.9c0-1.7 1.3-2.7 3.6-2.9l2.6-.1v-.9c0-1-.7-1.6-2-1.6a1.826 1.826 0 0 0-2 1.1h-1.8c.2-1.6 1.7-2.7 3.9-2.7 2.4 0 3.8 1.2 3.8 3.2v6.5h-1.8v-1.3h-.1a3.16 3.16 0 0 1-2.9 1.5c-1.9 0-3.3-1.1-3.3-2.8zm6.2-.9v-.8l-2.3.1c-1.3.1-1.9.5-1.9 1.4s.7 1.4 1.8 1.4a2.254 2.254 0 0 0 2.4-2.1zM297.7 104.6v2.4h2.1v1.6h-2.1v4.9a1.19 1.19 0 0 0 1.4 1.4h.7v1.6a3.402 3.402 0 0 1-1 .1c-2.1 0-2.9-.7-2.9-2.6v-5.4h-1.5V107h1.5v-2.4h1.8zM310.1 116.6h-1.8V115h-.1a2.852 2.852 0 0 1-2.9 1.7c-2.1 0-3.3-1.3-3.3-3.5V107h1.9v5.7c0 1.5.6 2.3 2 2.3a2.208 2.208 0 0 0 2.4-2.4V107h1.9v9.6h-.1zM312.8 107h1.8v1.5h.1a2.632 2.632 0 0 1 2.6-1.6 1.95 1.95 0 0 1 .8.1v1.9a3.42 3.42 0 0 0-1.1-.1 2.21 2.21 0 0 0-2.4 2.2v5.7h-1.9V107h.1zM327.9 114a3.91 3.91 0 0 1-4.1 2.8c-2.7 0-4.4-1.9-4.4-4.9s1.7-5 4.4-5 4.3 1.8 4.3 4.8v.7h-6.8v.1c.1 1.7 1 2.7 2.5 2.7a2.356 2.356 0 0 0 2.3-1.2h1.8zm-6.7-3.1h4.8a2.337 2.337 0 0 0-2.4-2.5 2.394 2.394 0 0 0-2.4 2.5zM330.3 112.4v-1.9h5.8v1.9h-5.8zM340.9 115h-.1v1.5H339v-13.3h1.9v5.3h.1a3.206 3.206 0 0 1 2.9-1.7c2.4 0 4 1.9 4 4.9s-1.5 4.9-4 4.9a2.952 2.952 0 0 1-3-1.6zm-.1-3.2c0 2 1 3.2 2.6 3.2s2.6-1.2 2.6-3.3c0-2-1-3.2-2.6-3.2s-2.6 1.3-2.6 3.3zM350.1 107h1.8v1.5h.1a2.632 2.632 0 0 1 2.6-1.6 1.95 1.95 0 0 1 .8.1v1.9a3.42 3.42 0 0 0-1.1-.1 2.21 2.21 0 0 0-2.4 2.2v5.7H350V107h.1zM356.7 113.9c0-1.7 1.3-2.7 3.6-2.9l2.6-.1v-.9c0-1-.7-1.6-2-1.6a1.826 1.826 0 0 0-2 1.1h-1.8c.2-1.6 1.7-2.7 3.9-2.7 2.4 0 3.8 1.2 3.8 3.2v6.5H363v-1.3h-.1a3.16 3.16 0 0 1-2.9 1.5c-1.9 0-3.3-1.1-3.3-2.8zm6.2-.9v-.8l-2.3.1c-1.3.1-1.9.5-1.9 1.4s.7 1.4 1.8 1.4a2.254 2.254 0 0 0 2.4-2.1zM367.4 107h1.8v1.5h.1a2.852 2.852 0 0 1 2.9-1.7c2.1 0 3.3 1.3 3.3 3.6v6.2h-1.9v-5.7c0-1.5-.7-2.3-2.1-2.3a2.18 2.18 0 0 0-2.3 2.4v5.6h-1.9V107h.1zM384.5 110.1a2.155 2.155 0 0 0-2.3-1.6c-1.6 0-2.5 1.2-2.5 3.3s1 3.3 2.5 3.3a2.11 2.11 0 0 0 2.3-1.6h1.8c-.2 1.9-1.7 3.3-4.1 3.3-2.8 0-4.5-1.9-4.5-5s1.7-4.9 4.5-4.9a3.816 3.816 0 0 1 4.1 3.3h-1.8v-.1zM388.6 103.3h1.9v5.3h.1a2.94 2.94 0 0 1 2.9-1.7c2 0 3.3 1.3 3.3 3.6v6.2h-1.9V111c0-1.5-.7-2.3-2-2.3a2.257 2.257 0 0 0-2.4 2.4v5.6h-1.9v-13.4z" fill="#fff"/><path d="M189.3 140.6V130h1.5l3.6 8.7h.1l3.6-8.7h1.5v10.6h-1.2v-8.1h-.1l-3.3 8h-1l-3.3-8h-.1v8.1h-1.3zM202.4 143.4v-1.1h.5c.7 0 1.1-.3 1.5-1.3l.1-.5-2.9-7.9h1.4l2.2 6.5h.1l2.2-6.5h1.3l-3.1 8.4c-.7 1.8-1.3 2.4-2.7 2.4zM210.3 139.6l4.6-5.8v-.1h-4.5v-1.1h6v.9l-4.5 5.8v.1h4.6v1.1h-6.1v-.9h-.1zM220.3 130.6v2h1.8v1.1h-1.8v4.5a1.094 1.094 0 0 0 1.2 1.3h.6v1.1c-.2 0-.5.1-.7.1-1.6 0-2.3-.6-2.3-2.1v-4.8h-1.3v-1.1h1.3v-2h1.2v-.1zM223.8 130.2a.9.9 0 1 1 .9.9.896.896 0 0 1-.9-.9zm.2 2.5h1.3v7.9H224v-7.9zM233.1 134h.1v-1.3h1.2v10.5h-1.3v-3.8h-.1a2.66 2.66 0 0 1-2.5 1.3c-2 0-3.3-1.6-3.3-4.1s1.3-4.1 3.3-4.1a2.868 2.868 0 0 1 2.6 1.5zm.1 2.6c0-1.8-.9-3-2.3-3s-2.3 1.1-2.3 3 .8 3 2.3 3c1.4 0 2.3-1.2 2.3-3zM248.2 136.6c0 2.5-1.3 4.1-3.3 4.1a2.863 2.863 0 0 1-2.5-1.3h-.1v3.8H241v-10.5h1.2v1.3h.1a2.946 2.946 0 0 1 2.5-1.5c2.1 0 3.4 1.6 3.4 4.1zm-1.3 0c0-1.8-.9-3-2.3-3s-2.3 1.1-2.3 3c0 1.8.9 3 2.3 3s2.3-1.1 2.3-3zM256.6 140.6h-1.2v-1.2h-.1a2.394 2.394 0 0 1-2.4 1.4c-1.8 0-2.7-1.1-2.7-2.9v-5.1h1.3v4.8c0 1.4.5 2.1 1.8 2.1a2 2 0 0 0 2.2-2.2v-4.7h1.3v7.8h-.2zM261.7 132.5c1.7 0 2.8.8 3 2.1h-1.2a1.635 1.635 0 0 0-1.7-1 1.514 1.514 0 0 0-1.7 1.2c0 .5.4.9 1.4 1.1l1.2.3c1.5.4 2.2 1 2.2 2.1 0 1.4-1.4 2.4-3.2 2.4s-3-.8-3.1-2.2h1.3a1.694 1.694 0 0 0 1.9 1.1c1.1 0 1.8-.5 1.8-1.2 0-.5-.4-.9-1.3-1.1l-1.4-.3c-1.5-.4-2.2-1-2.2-2.1a2.734 2.734 0 0 1 3-2.4zM266.9 129.5h1.3v4.4h.1a2.394 2.394 0 0 1 2.4-1.4 2.58 2.58 0 0 1 2.7 2.9v5.1h-1.3v-4.8q0-2.1-1.8-2.1a2.048 2.048 0 0 0-2.2 2.2v4.7h-1.3v-11h.1zM282.2 138.5a3.127 3.127 0 0 1-3.3 2.2c-2.2 0-3.6-1.6-3.6-4.1s1.4-4.1 3.6-4.1c2.1 0 3.4 1.5 3.4 4v.5h-5.7v.1c.1 1.6.9 2.5 2.3 2.5a1.993 1.993 0 0 0 2-1.1h1.3zm-5.6-2.5h4.4a2.106 2.106 0 0 0-2.1-2.3 2.202 2.202 0 0 0-2.3 2.3zM283.9 136.6c0-2.5 1.3-4.1 3.3-4.1a2.74 2.74 0 0 1 2.5 1.4h.1v-4.4h1.3v11h-1.2v-1.3h-.1a2.74 2.74 0 0 1-2.5 1.4c-2.1.1-3.4-1.5-3.4-4zm1.3 0c0 1.8.9 3 2.3 3s2.3-1.1 2.3-3c0-1.8-.9-3-2.3-3-1.5.1-2.3 1.2-2.3 3zM297.2 138.3c0-1.4 1-2.2 2.9-2.3l2.3-.1v-.7q0-1.5-1.8-1.5a1.78 1.78 0 0 0-1.8 1h-1.3c.2-1.3 1.4-2.1 3.1-2.1 1.9 0 3 1 3 2.6v5.4h-1.2v-1.2h-.1a2.813 2.813 0 0 1-2.4 1.3 2.45 2.45 0 0 1-2.7-2.4zm5.2-.7v-.7l-2.1.1c-1.2.1-1.7.5-1.7 1.3a1.41 1.41 0 0 0 1.6 1.3 2.12 2.12 0 0 0 2.2-2zM313 132.5c1.7 0 2.8.8 3 2.1h-1.2a1.635 1.635 0 0 0-1.7-1 1.514 1.514 0 0 0-1.7 1.2c0 .5.4.9 1.4 1.1l1.2.3c1.5.4 2.2 1 2.2 2.1 0 1.4-1.4 2.4-3.2 2.4s-3-.8-3.1-2.2h1.3a1.694 1.694 0 0 0 1.9 1.1c1.1 0 1.8-.5 1.8-1.2 0-.5-.4-.9-1.3-1.1l-1.4-.3c-1.5-.4-2.2-1-2.2-2.1 0-1.4 1.3-2.4 3-2.4zM324.6 138.5a3.127 3.127 0 0 1-3.3 2.2c-2.2 0-3.6-1.6-3.6-4.1s1.4-4.1 3.6-4.1c2.1 0 3.4 1.5 3.4 4v.5H319v.1c.1 1.6.9 2.5 2.3 2.5a1.993 1.993 0 0 0 2-1.1h1.3zM319 136h4.3a2.106 2.106 0 0 0-2.1-2.3 2.18 2.18 0 0 0-2.2 2.3zM331.9 135.1a1.906 1.906 0 0 0-2-1.4c-1.4 0-2.3 1.1-2.3 2.9s.9 3 2.3 3a1.815 1.815 0 0 0 2-1.4h1.3c-.2 1.5-1.4 2.5-3.3 2.5-2.2 0-3.6-1.6-3.6-4.1s1.4-4.1 3.6-4.1a3.123 3.123 0 0 1 3.3 2.6h-1.3zM334.6 136.6c0-2.5 1.4-4.1 3.6-4.1s3.6 1.5 3.6 4.1c0 2.5-1.4 4.1-3.6 4.1s-3.6-1.6-3.6-4.1zm6 0c0-1.9-.8-3-2.3-3s-2.3 1.1-2.3 3 .8 3 2.3 3 2.3-1.1 2.3-3zM343.9 132.7h1.2v1.2h.1a2.394 2.394 0 0 1 2.4-1.4 2.56 2.56 0 0 1 2.8 2.9v5.1h-1.3v-4.8c0-1.4-.6-2.1-1.9-2.1a1.974 1.974 0 0 0-2.1 2.2v4.7h-1.3v-7.8h.1zM352.3 136.6c0-2.5 1.3-4.1 3.3-4.1a2.74 2.74 0 0 1 2.5 1.4h.1v-4.4h1.3v11h-1.2v-1.3h-.1a2.74 2.74 0 0 1-2.5 1.4c-2.1.1-3.4-1.5-3.4-4zm1.3 0c0 1.8.9 3 2.3 3s2.3-1.1 2.3-3c0-1.8-.9-3-2.3-3-1.5.1-2.3 1.2-2.3 3zM365.6 138.3c0-1.4 1-2.2 2.9-2.3l2.3-.1v-.7q0-1.5-1.8-1.5a1.78 1.78 0 0 0-1.8 1h-1.3c.2-1.3 1.4-2.1 3.1-2.1 1.9 0 3 1 3 2.6v5.4h-1.2v-1.2h-.1a2.813 2.813 0 0 1-2.4 1.3 2.45 2.45 0 0 1-2.7-2.4zm5.2-.7v-.7l-2.1.1c-1.2.1-1.7.5-1.7 1.3a1.41 1.41 0 0 0 1.6 1.3 2.12 2.12 0 0 0 2.2-2zM374.3 141.4h1.3c.1.6.8 1.1 2 1.1 1.4 0 2.3-.7 2.3-1.9V139h-.1a2.74 2.74 0 0 1-2.5 1.4c-2 0-3.3-1.6-3.3-3.9 0-2.4 1.3-4 3.3-4a2.635 2.635 0 0 1 2.5 1.4h.1v-1.3h1.2v8c0 1.8-1.4 2.9-3.5 2.9-1.9.1-3.1-.8-3.3-2.1zm3.3-7.7c-1.5 0-2.3 1.1-2.3 2.8s.8 2.8 2.3 2.8 2.3-1.1 2.3-2.8-.9-2.8-2.3-2.8zM383.1 136.6c0-2.5 1.4-4.1 3.6-4.1s3.6 1.5 3.6 4.1c0 2.5-1.4 4.1-3.6 4.1s-3.6-1.6-3.6-4.1zm6 0c0-1.9-.8-3-2.3-3s-2.3 1.1-2.3 3 .8 3 2.3 3 2.3-1.1 2.3-3z" fill="#dff8e4"/><path d="M143 148.6a25 25 0 1 1 25-25 25.01 25.01 0 0 1-25 25zm0-48a23 23 0 1 0 23 23 23.003 23.003 0 0 0-23-23z" fill="#3c804b"/><path d="M156.2 118a6.425 6.425 0 0 1 1.8-1.3c1.4-.9 2.9-1.8 2.8-3.8a4.043 4.043 0 0 0-1.8-2.8 5.403 5.403 0 0 0-4.2-1.2c-2 .5-2.9 2.1-3.4 3.9a26.57 26.57 0 0 0-6.1-1.1 3.126 3.126 0 0 1 .9-1.1 3.153 3.153 0 0 0-2.3.5 9.958 9.958 0 0 1 1-1.1c-1.6-.3-3.1.6-4.4 1.7a20.87 20.87 0 0 0-6 1 4.895 4.895 0 0 0-3.4-3.8 5.503 5.503 0 0 0-4.2 1.2 4.044 4.044 0 0 0-1.8 2.8c-.1 2 1.4 3 2.8 3.8a11.095 11.095 0 0 1 1.6 1.2c-2.5 7.2-2.3 20.7-2.3 20.7l-.3 2.9a23.912 23.912 0 0 0 31.2.8c-.1-1.9-.1-3.7-.1-3.7.1-3.2.4-14.2-1.8-20.6" fill="#3c804b"/><path d="M138.3 121c2.7-3.9 14.4-2.7 9.6 9.7-.7 1.8-1.5 3.6-2.3 5.4-.1.1-.1-.4-.3-.3-.8 1.4-1.8.7-2.7-.5a21.396 21.396 0 0 1-2.2 1c-2.6-3.2-4.8-11.4-2.1-15.3" fill="#60cd77"/><path d="M146.4 122.5c-.5-.5-1.9-.7-3.4-.7a6.633 6.633 0 0 0-3.4.7c-1 1 1.1 3.3 2.9 3.7v3.9a.458.458 0 0 0-.4.5.472.472 0 0 0 .5.5h.8a.472.472 0 0 0 .5-.5.664.664 0 0 0-.4-.5v-3.9c1.9-.5 3.9-2.7 2.9-3.7" fill="#3c804b"/><circle cx="125" cy="138.6" r="9" fill="#fff"/><path d="M120.5 137.7a.967.967 0 0 1 1.4 0l2.8 2.8a.967.967 0 0 1 0 1.4.967.967 0 0 1-1.4 0l-2.8-2.8a.967.967 0 0 1 0-1.4z" fill="#60cd77"/><path d="M123.3 140.5l4.9-4.9a.967.967 0 0 1 1.4 0 .967.967 0 0 1 0 1.4l-4.9 4.9a.967.967 0 0 1-1.4 0 .965.965 0 0 1 0-1.4z" fill="#60cd77"/><path d="M295 64.9a1.952 1.952 0 0 1-1.3-1.2 1.812 1.812 0 0 1 1.2-2.2l15.8-4.4L299 45.6a1.768 1.768 0 0 1 2.5-2.5l13.9 13.6a1.774 1.774 0 0 1 .5 1.7 1.952 1.952 0 0 1-1.2 1.3L296 64.9h-1" fill="#f7c78a"/><path d="M239.2 30.9a1.703 1.703 0 0 1-1.8.3 1.867 1.867 0 0 1-1.1-2.3l5.6-15.8-16.5 3.1a1.825 1.825 0 1 1-.6-3.6L244.4 9a1.832 1.832 0 0 1 1.7.6 1.94 1.94 0 0 1 .3 1.8l-6.7 18.8a1.794 1.794 0 0 1-.5.7M517.2 164.1a1.397 1.397 0 0 1-1.5.3 1.7 1.7 0 0 1-1-2l4.8-13.6-14.2 2.6a1.57 1.57 0 0 1-.5-3.1l16.9-3.1a1.65 1.65 0 0 1 1.5.5 1.397 1.397 0 0 1 .3 1.5l-5.7 16.2a4.35 4.35 0 0 1-.6.7" fill="#f58f99"/><path d="M468.9 16.4a6.443 6.443 0 0 1 2.4-1.1 4.662 4.662 0 0 1 2.6.1 18.832 18.832 0 0 1 3.6 1.2 12.835 12.835 0 0 0 2.4.9 3.422 3.422 0 0 0 1.3.2.78.78 0 0 0 .7-.3 5.34 5.34 0 0 0 .7-1 1.78 1.78 0 0 1 2.5-.6c1.3.6 1.6 1.6.9 3.2a6.137 6.137 0 0 1-1.7 2.4 4.59 4.59 0 0 1-2.5 1 5.122 5.122 0 0 1-2.9-.5c-1.7-.7-3-1.2-4-1.6s-1.7-.6-2-.7a5.97 5.97 0 0 0-1.9 0 7.93 7.93 0 0 0-1.6.8 4.213 4.213 0 0 1-1.3.7 2.177 2.177 0 0 1-1.3-.2 2.044 2.044 0 0 1-1.4-1.7 14.93 14.93 0 0 0-.5-2.2 3.05 3.05 0 0 0-1-1.3 8.636 8.636 0 0 0-1.6-1c-.6-.3-2.1-1-4.5-2a5.35 5.35 0 0 1-3-2.9 5.605 5.605 0 0 1 .2-4.2c.7-1.6 1.7-2.1 2.9-1.6a2.048 2.048 0 0 1 1.2 1 1.468 1.468 0 0 1 .1 1.3 5.05 5.05 0 0 0-.2 1.5 1.631 1.631 0 0 0 .8.9c.5.3 1.4.7 2.8 1.4a24.41 24.41 0 0 1 3.3 1.7 5.5 5.5 0 0 1 1.9 1.8 5.177 5.177 0 0 1 1.1 2.8" fill="#8cda9d"/><path d="M33.9 154.8a8.146 8.146 0 0 1 2.5.9 5.5 5.5 0 0 1 1.8 1.9 26.607 26.607 0 0 1 1.7 3.4c.4 1.1.8 1.9 1 2.4a5.223 5.223 0 0 0 .8 1.1 1.33 1.33 0 0 0 .7.3c.2 0 .6-.1 1.2-.2a1.53 1.53 0 0 1 1.3.2 2.474 2.474 0 0 1 1 1.2c.5 1.3 0 2.3-1.6 3a6.01 6.01 0 0 1-2.9.4 4.59 4.59 0 0 1-2.5-1 6.138 6.138 0 0 1-1.7-2.4c-.7-1.6-1.3-3-1.7-4a11.6 11.6 0 0 0-.9-1.9 4.62 4.62 0 0 0-1.4-1.4 6.866 6.866 0 0 0-1.7-.5 15.467 15.467 0 0 1-1.5-.4 1.97 1.97 0 0 1-.8-1.1 2.436 2.436 0 0 1 .2-2.2 9.262 9.262 0 0 0 1.2-1.9 2.85 2.85 0 0 0 .2-1.6 7.668 7.668 0 0 0-.5-1.9c-.2-.6-.8-2.2-1.8-4.7a5.12 5.12 0 0 1 0-4.2 5.294 5.294 0 0 1 3.2-2.8c1.6-.6 2.7-.3 3.2 1a3.08 3.08 0 0 1 .2 1.6 1.59 1.59 0 0 1-.8 1 3.092 3.092 0 0 0-1.2.9 1.574 1.574 0 0 0-.1 1.2c.1.5.5 1.5 1 3a27.57 27.57 0 0 1 1.1 3.6 6.145 6.145 0 0 1 0 2.7 6.76 6.76 0 0 1-1.2 2.4" fill="#7bc8f5"/><path d="M68.8 97.3l2.7-1.1-9.4-23.5-2.7 1.1c-1.4.6-2.3.3-2.8-.9-.5-1.1 0-2 1.4-2.6l4-1.6a2.994 2.994 0 0 1 1.8-.3 1.612 1.612 0 0 1 1.3.6 5.605 5.605 0 0 1 1 1.5L76 95.1a3.22 3.22 0 0 1 .2 2.5 3.12 3.12 0 0 1-1.9 1.6l-4 1.6a2.954 2.954 0 0 1-1.8.2 1.59 1.59 0 0 1-1-1.1c-.5-1.2-.1-2 1.3-2.6" fill="#f58f99"/><path d="M497.7 100.7c1.3.8 1.6 1.7.9 2.8a1.785 1.785 0 0 1-1.2.9 2.38 2.38 0 0 1-1.7-.5l-3.7-2.3a3.12 3.12 0 0 1-1.6-1.9 3.885 3.885 0 0 1 .6-2.4l14-22.5a5.12 5.12 0 0 1 1.2-1.3 2.296 2.296 0 0 1 1.4-.4 4.36 4.36 0 0 1 1.7.6L513 76c1.3.8 1.6 1.7.9 2.8s-1.6 1.2-2.9.4l-2.5-1.5-13.3 21.5 2.5 1.5" fill="#f7c78a"/><path d="M353.7 6l-2.5.6 5.3 21.9 2.5-.6c1.3-.3 2.1.1 2.3 1.1.3 1.1-.3 1.8-1.6 2.1l-3.8.9a4.454 4.454 0 0 1-1.6.1 1.9 1.9 0 0 1-1.1-.7 5.226 5.226 0 0 1-.7-1.5L347.1 7a3.172 3.172 0 0 1 .1-2.2 3.126 3.126 0 0 1 1.9-1.2l3.8-.9a2.097 2.097 0 0 1 1.6.1 1.88 1.88 0 0 1 .8 1.1c.2 1.1-.3 1.7-1.6 2.1" fill="#7bc8f5"/><path d="M10 55.1a5.8 5.8 0 1 0 5.8 5.8 5.87 5.87 0 0 0-5.8-5.8m0 15.3a9.5 9.5 0 0 1 0-19 9.5 9.5 0 0 1 0 19" fill="#f7c78a"/><path d="M166.9 42.8a5 5 0 1 0 5 5 4.89 4.89 0 0 0-5-5m0 13.3a8.3 8.3 0 1 1 8.3-8.3 8.28 8.28 0 0 1-8.3 8.3M548 50.3a4.6 4.6 0 1 0 4.6 4.6 4.588 4.588 0 0 0-4.6-4.6m0 12a7.5 7.5 0 1 1 7.5-7.5 7.427 7.427 0 0 1-7.5 7.5" fill="#8cda9d"/></svg>