<svg xmlns="http://www.w3.org/2000/svg" viewBox="0 0 556 188"><title>notification</title><path d="M423.677 71.87a6.69 6.69 0 1 0 6.693 6.692 6.7 6.7 0 0 0-6.693-6.693m0 17.69a11 11 0 1 1 11-10.998 11.01 11.01 0 0 1-11 10.997" fill="#7bc8f5"/><path d="M123.94.14c-1.512 1.374-3.172.9-4.995 1.33a7.523 7.523 0 0 0-3.642 2.05 7.383 7.383 0 0 0-2.012 4.016c-.27 1.573.26 3.478-.913 4.783-1.16 1.287-2.79.982-4.332 1.227a7.493 7.493 0 0 0-4.307 2.155 7.41 7.41 0 0 0-1.972 3.735c-.348 1.71.233 3.61-.958 5.067-1.767 2.16 1.242 5.357 3.025 3.178a8.13 8.13 0 0 0 2.053-4.3c.214-1.54-.24-3.214.877-4.502 1.202-1.387 3.065-.965 4.664-1.28a7.396 7.396 0 0 0 5.946-5.837c.343-1.656-.26-3.685.954-5.064 1.127-1.28 2.82-.99 4.33-1.228a7.953 7.953 0 0 0 4.307-2.154c2.093-1.902-.938-5.074-3.025-3.178" fill="#f7c78a"/><rect x="98.5" y="79.062" width="359" height="89" rx="5.5" ry="5.5" fill="#60cd77"/><path d="M452 79.562a5.006 5.006 0 0 1 5 5v78a5.006 5.006 0 0 1-5 5H104a5.006 5.006 0 0 1-5-5v-78a5.006 5.006 0 0 1 5-5h348m0-1H104a6 6 0 0 0-6 6v78a6 6 0 0 0 6 6h348a6 6 0 0 0 6-6v-78a6 6 0 0 0-6-6z" fill="#4bbd64"/><path d="M189.59 116.562V103.88h5.098c2.382 0 3.815 1.212 3.815 3.163a2.778 2.778 0 0 1-2.224 2.725v.15a2.998 2.998 0 0 1 2.856 3.05c0 2.23-1.626 3.594-4.333 3.594h-5.212zm1.97-7.313h2.337c1.74 0 2.646-.643 2.646-1.847 0-1.17-.853-1.854-2.312-1.854h-2.67v3.7zm2.847 5.642c1.776 0 2.716-.72 2.716-2.066 0-1.327-.976-2.02-2.83-2.02h-2.733v4.086h2.847zM209.507 116.562h-1.82v-1.52h-.15a2.87 2.87 0 0 1-2.89 1.704c-2.12 0-3.296-1.292-3.296-3.542v-6.214h1.89v5.722c0 1.547.624 2.285 2.013 2.285a2.173 2.173 0 0 0 2.364-2.408v-5.6h1.89v9.572zM212.003 104.16a1.224 1.224 0 1 1 1.222 1.152 1.163 1.163 0 0 1-1.222-1.152zm.28 2.83h1.882v9.572h-1.88v-9.572zM217.03 103.255h1.89v13.307h-1.89v-13.307zM224.308 104.608v2.426h2.074v1.59h-2.074v4.923a1.207 1.207 0 0 0 1.353 1.44 6.225 6.225 0 0 0 .722-.043v1.574a6.104 6.104 0 0 1-1.028.096c-2.1 0-2.936-.738-2.936-2.584v-5.405h-1.52v-1.59h1.52v-2.427h1.89zM232.982 113.855c0-1.723 1.284-2.716 3.56-2.857l2.593-.15v-.826c0-1.01-.668-1.582-1.96-1.582a1.873 1.873 0 0 0-1.995 1.064h-1.828c.193-1.644 1.74-2.698 3.91-2.698 2.4 0 3.754 1.195 3.754 3.217v6.54h-1.82v-1.346h-.15a3.22 3.22 0 0 1-2.873 1.503 2.892 2.892 0 0 1-3.19-2.865zm6.153-.818v-.8l-2.338.15c-1.318.088-1.916.536-1.916 1.38a1.512 1.512 0 0 0 1.776 1.362 2.256 2.256 0 0 0 2.48-2.093zM252.644 111.772c0 3.04-1.54 4.948-3.956 4.948a3.12 3.12 0 0 1-2.944-1.61h-.15v4.633h-1.89V106.99h1.82v1.582h.14a3.327 3.327 0 0 1 3.007-1.74c2.435 0 3.974 1.898 3.974 4.94zm-1.943 0c0-2.022-.957-3.244-2.556-3.244-1.59 0-2.584 1.248-2.584 3.252 0 1.995.993 3.243 2.575 3.243 1.608 0 2.566-1.22 2.566-3.25zM254.665 104.16a1.224 1.224 0 1 1 1.222 1.152 1.163 1.163 0 0 1-1.222-1.152zm.28 2.83h1.882v9.572h-1.88v-9.572zM259.708 119.277l3.78-15.398h1.722l-3.814 15.397h-1.688zM268.724 108.625h-1.574v-1.59h1.574v-.932c0-1.952 1.063-2.76 3.058-2.76a5.706 5.706 0 0 1 1.02.088v1.512a5.02 5.02 0 0 0-.835-.07 1.2 1.2 0 0 0-1.38 1.354v.808h2.136v1.59h-2.11v7.938h-1.89v-7.937zM282.584 113.978c-.43 1.713-1.96 2.768-4.148 2.768-2.743 0-4.42-1.88-4.42-4.94s1.713-5 4.41-5c2.664 0 4.272 1.82 4.272 4.825v.66h-6.76v.105a2.53 2.53 0 0 0 2.55 2.743 2.295 2.295 0 0 0 2.277-1.16h1.82zm-6.645-3.085h4.833a2.31 2.31 0 0 0-2.355-2.48 2.447 2.447 0 0 0-2.48 2.48zM284.42 113.855c0-1.723 1.284-2.716 3.56-2.857l2.593-.15v-.826c0-1.01-.668-1.582-1.96-1.582a1.873 1.873 0 0 0-1.995 1.064h-1.828c.193-1.644 1.74-2.698 3.91-2.698 2.4 0 3.754 1.195 3.754 3.217v6.54h-1.82v-1.346h-.15a3.22 3.22 0 0 1-2.873 1.503 2.892 2.892 0 0 1-3.19-2.865zm6.153-.818v-.8l-2.338.15c-1.318.088-1.916.536-1.916 1.38a1.512 1.512 0 0 0 1.775 1.362 2.256 2.256 0 0 0 2.478-2.093zM297.7 104.608v2.426h2.075v1.59H297.7v4.923a1.207 1.207 0 0 0 1.355 1.44 6.225 6.225 0 0 0 .72-.043v1.574a6.104 6.104 0 0 1-1.028.096c-2.1 0-2.935-.738-2.935-2.584v-5.405h-1.52v-1.59h1.52v-2.427h1.89zM310.067 116.562h-1.82v-1.52h-.148a2.87 2.87 0 0 1-2.893 1.704c-2.118 0-3.296-1.292-3.296-3.542v-6.214h1.89v5.722c0 1.547.625 2.285 2.013 2.285a2.173 2.173 0 0 0 2.365-2.408v-5.6h1.89v9.572zM312.81 106.99h1.82v1.468h.14a2.596 2.596 0 0 1 2.584-1.626 3.992 3.992 0 0 1 .843.08v1.862a5.196 5.196 0 0 0-1.054-.114 2.243 2.243 0 0 0-2.444 2.25v5.65h-1.89v-9.57zM327.865 113.978c-.43 1.713-1.96 2.768-4.148 2.768-2.742 0-4.42-1.88-4.42-4.94s1.713-5 4.41-5c2.664 0 4.272 1.82 4.272 4.825v.66h-6.76v.105a2.53 2.53 0 0 0 2.55 2.743 2.295 2.295 0 0 0 2.276-1.16h1.82zm-6.644-3.085h4.835a2.31 2.31 0 0 0-2.356-2.48 2.447 2.447 0 0 0-2.48 2.48zM330.282 112.378v-1.855h5.766v1.855h-5.766zM340.864 115.05h-.14v1.512h-1.82v-13.307h1.89v5.256h.15a3.176 3.176 0 0 1 2.944-1.678c2.425 0 3.955 1.898 3.955 4.94 0 3.032-1.538 4.948-3.955 4.948a3.315 3.315 0 0 1-3.024-1.67zm-.105-3.27c.008 2.004.992 3.243 2.583 3.243 1.6 0 2.557-1.22 2.557-3.252 0-2.01-.958-3.242-2.557-3.242-1.582 0-2.575 1.248-2.584 3.252zM350.11 106.99h1.82v1.468h.14a2.596 2.596 0 0 1 2.584-1.626 3.992 3.992 0 0 1 .844.08v1.862a5.196 5.196 0 0 0-1.055-.114 2.243 2.243 0 0 0-2.443 2.25v5.65h-1.89v-9.57zM356.71 113.855c0-1.723 1.284-2.716 3.56-2.857l2.593-.15v-.826c0-1.01-.668-1.582-1.96-1.582a1.873 1.873 0 0 0-1.995 1.064h-1.828c.193-1.644 1.74-2.698 3.91-2.698 2.4 0 3.754 1.195 3.754 3.217v6.54h-1.82v-1.346h-.15a3.22 3.22 0 0 1-2.873 1.503 2.892 2.892 0 0 1-3.19-2.865zm6.153-.818v-.8l-2.338.15c-1.318.088-1.916.536-1.916 1.38a1.512 1.512 0 0 0 1.775 1.362 2.256 2.256 0 0 0 2.478-2.093zM367.434 106.99h1.82v1.52h.14a2.866 2.866 0 0 1 2.856-1.704c2.136 0 3.313 1.283 3.313 3.56v6.196h-1.89v-5.722c0-1.538-.667-2.303-2.065-2.303a2.195 2.195 0 0 0-2.285 2.426v5.6h-1.89v-9.573zM384.484 110.12a2.135 2.135 0 0 0-2.258-1.627c-1.582 0-2.55 1.213-2.55 3.252 0 2.074.976 3.314 2.55 3.314a2.078 2.078 0 0 0 2.258-1.575h1.837c-.245 1.925-1.72 3.26-4.086 3.26-2.786 0-4.49-1.88-4.49-5 0-3.067 1.695-4.94 4.482-4.94a3.776 3.776 0 0 1 4.095 3.314h-1.836zM388.563 103.255h1.872v5.273h.15a2.947 2.947 0 0 1 2.917-1.714c2.04 0 3.296 1.292 3.296 3.57v6.178h-1.89v-5.713c0-1.53-.712-2.304-2.048-2.304a2.235 2.235 0 0 0-2.408 2.426v5.59h-1.89v-13.307z" fill="#fff"/><path d="M189.348 140.562v-10.57h1.53l3.62 8.745h.116l3.618-8.744h1.53v10.57h-1.23v-8.073h-.088l-3.332 7.998H194l-3.334-7.998h-.088v8.072h-1.23zM202.406 143.374v-1.076a3.037 3.037 0 0 0 .528.036c.725 0 1.12-.345 1.45-1.296l.147-.47-2.922-7.902h1.363l2.17 6.497h.116l2.16-6.497h1.34l-3.082 8.38c-.674 1.83-1.305 2.372-2.703 2.372a3.74 3.74 0 0 1-.564-.044zM210.258 139.64l4.556-5.802v-.117h-4.548v-1.054h6.05v.944l-4.535 5.78v.117h4.558v1.055h-6.08v-.923zM220.314 130.622v2.044h1.758v1.055h-1.758v4.468a1.077 1.077 0 0 0 1.172 1.327 5.45 5.45 0 0 0 .586-.03v1.062a4.216 4.216 0 0 1-.74.073c-1.625 0-2.277-.6-2.277-2.11v-4.79h-1.275v-1.054h1.275v-2.044h1.26zM223.757 130.183a.88.88 0 1 1 .88.88.882.882 0 0 1-.88-.88zm.25 2.483h1.26v7.896h-1.26v-7.896zM233.103 133.984h.117v-1.318h1.216v10.532h-1.275v-3.823h-.116a2.687 2.687 0 0 1-2.468 1.325c-2.014 0-3.304-1.595-3.304-4.086 0-2.476 1.304-4.088 3.304-4.088a2.848 2.848 0 0 1 2.527 1.458zm.094 2.63c0-1.81-.9-2.952-2.328-2.952-1.436 0-2.294 1.107-2.294 2.952 0 1.853.85 2.95 2.285 2.95 1.445 0 2.337-1.133 2.337-2.95zM248.205 136.614c0 2.468-1.31 4.086-3.318 4.086a2.65 2.65 0 0 1-2.468-1.325h-.118v3.823h-1.26v-10.532h1.2v1.318h.118a2.846 2.846 0 0 1 2.527-1.458c2.014 0 3.318 1.605 3.318 4.088zm-1.304 0c0-1.845-.863-2.952-2.306-2.952-1.428 0-2.328 1.136-2.328 2.952 0 1.81.9 2.95 2.32 2.95 1.45 0 2.315-1.104 2.315-2.95zM256.57 140.562h-1.202v-1.24h-.117a2.463 2.463 0 0 1-2.445 1.378c-1.773 0-2.696-1.054-2.696-2.922v-5.112h1.26v4.805c0 1.422.527 2.08 1.786 2.08a1.986 1.986 0 0 0 2.154-2.21v-4.674h1.26v7.896zM261.703 132.526c1.656 0 2.806.82 2.975 2.118h-1.246a1.608 1.608 0 0 0-1.736-1.047 1.443 1.443 0 0 0-1.67 1.178c0 .542.44.88 1.37 1.107l1.215.293c1.49.358 2.206 1.003 2.206 2.14 0 1.412-1.37 2.385-3.164 2.385-1.757 0-2.966-.842-3.105-2.152h1.297a1.738 1.738 0 0 0 1.852 1.09c1.062 0 1.824-.504 1.824-1.23a1.277 1.277 0 0 0-1.252-1.113l-1.356-.33c-1.478-.358-2.152-.995-2.152-2.138 0-1.31 1.266-2.3 2.943-2.3zM266.867 129.53h1.26v4.38h.117a2.458 2.458 0 0 1 2.432-1.384 2.606 2.606 0 0 1 2.724 2.923v5.112h-1.26v-4.805c0-1.4-.63-2.095-1.824-2.095a2.038 2.038 0 0 0-2.19 2.227v4.672h-1.26v-11.03zM282.19 138.52a3.156 3.156 0 0 1-3.326 2.18c-2.19 0-3.56-1.582-3.56-4.08 0-2.482 1.392-4.094 3.56-4.094 2.132 0 3.428 1.517 3.428 3.97v.483h-5.677v.058c.067 1.56.938 2.55 2.28 2.55a2.046 2.046 0 0 0 2.035-1.07h1.26zm-5.575-2.558h4.352a2.127 2.127 0 0 0-2.117-2.322 2.25 2.25 0 0 0-2.235 2.322zM283.874 136.614c0-2.476 1.312-4.088 3.317-4.088a2.7 2.7 0 0 1 2.478 1.385h.11v-4.38h1.26v11.032h-1.202v-1.26h-.117a2.83 2.83 0 0 1-2.53 1.398c-2.02 0-3.316-1.603-3.316-4.086zm1.304 0c0 1.846.864 2.95 2.306 2.95 1.436 0 2.323-1.126 2.323-2.95 0-1.81-.894-2.952-2.323-2.952-1.435 0-2.306 1.113-2.306 2.952zM297.248 138.35c0-1.413 1.04-2.227 2.88-2.337l2.276-.14v-.717c0-.973-.607-1.51-1.787-1.51a1.65 1.65 0 0 0-1.78.983h-1.274c.168-1.268 1.414-2.104 3.098-2.104 1.928 0 3.004.99 3.004 2.63v5.406h-1.2v-1.165h-.118a2.728 2.728 0 0 1-2.432 1.303 2.4 2.4 0 0 1-2.666-2.35zm5.156-.733v-.725l-2.124.14c-1.2.08-1.728.497-1.728 1.288a1.38 1.38 0 0 0 1.596 1.275 2.077 2.077 0 0 0 2.256-1.978zM312.988 132.526c1.655 0 2.805.82 2.973 2.118h-1.243a1.61 1.61 0 0 0-1.737-1.047 1.443 1.443 0 0 0-1.67 1.178c0 .542.44.88 1.37 1.107l1.216.293c1.487.358 2.205 1.003 2.205 2.14 0 1.412-1.37 2.385-3.163 2.385-1.758 0-2.966-.842-3.106-2.152h1.297a1.74 1.74 0 0 0 1.853 1.09c1.063 0 1.825-.504 1.825-1.23 0-.542-.41-.908-1.253-1.113l-1.355-.33c-1.48-.358-2.154-.995-2.154-2.138 0-1.31 1.268-2.3 2.945-2.3zM324.567 138.52a3.156 3.156 0 0 1-3.325 2.18c-2.19 0-3.56-1.582-3.56-4.08 0-2.482 1.392-4.094 3.56-4.094 2.13 0 3.428 1.517 3.428 3.97v.483h-5.676v.058c.066 1.56.938 2.55 2.277 2.55a2.046 2.046 0 0 0 2.038-1.07h1.26zm-5.573-2.558h4.35a2.125 2.125 0 0 0-2.116-2.322 2.25 2.25 0 0 0-2.234 2.322zM331.906 135.083a1.957 1.957 0 0 0-2.036-1.42c-1.42 0-2.314 1.135-2.314 2.922 0 1.823.908 2.98 2.314 2.98a1.9 1.9 0 0 0 2.036-1.384h1.275a3.05 3.05 0 0 1-3.303 2.52c-2.21 0-3.625-1.603-3.625-4.115 0-2.46 1.406-4.06 3.618-4.06a3.1 3.1 0 0 1 3.31 2.558h-1.274zM334.646 136.614c0-2.542 1.39-4.088 3.64-4.088 2.248 0 3.64 1.546 3.64 4.088 0 2.533-1.392 4.086-3.64 4.086-2.25 0-3.64-1.553-3.64-4.086zm5.976 0c0-1.875-.843-2.952-2.337-2.952s-2.336 1.077-2.336 2.952c0 1.867.84 2.95 2.335 2.95s2.337-1.083 2.337-2.95zM343.903 132.666h1.2v1.245h.12a2.374 2.374 0 0 1 2.372-1.384c1.772 0 2.76 1.048 2.76 2.923v5.112h-1.26v-4.805c0-1.42-.6-2.095-1.86-2.095a2.002 2.002 0 0 0-2.072 2.227v4.67h-1.26v-7.894zM352.26 136.614c0-2.476 1.31-4.088 3.318-4.088a2.698 2.698 0 0 1 2.475 1.385h.11v-4.38h1.26v11.032h-1.2v-1.26h-.12a2.83 2.83 0 0 1-2.525 1.398c-2.02 0-3.318-1.603-3.318-4.086zm1.303 0c0 1.846.865 2.95 2.308 2.95 1.437 0 2.322-1.126 2.322-2.95 0-1.81-.893-2.952-2.32-2.952-1.436 0-2.31 1.113-2.31 2.952zM365.634 138.35c0-1.413 1.04-2.227 2.878-2.337l2.278-.14v-.717c0-.973-.608-1.51-1.787-1.51a1.653 1.653 0 0 0-1.78.983h-1.274c.167-1.268 1.412-2.104 3.097-2.104 1.926 0 3.003.99 3.003 2.63v5.405h-1.2v-1.163h-.12a2.728 2.728 0 0 1-2.43 1.303 2.4 2.4 0 0 1-2.666-2.35zm5.156-.733v-.725l-2.124.14c-1.2.08-1.728.497-1.728 1.288a1.38 1.38 0 0 0 1.596 1.275 2.077 2.077 0 0 0 2.256-1.978zM374.32 141.433h1.334c.14.644.842 1.062 1.978 1.062 1.413 0 2.256-.695 2.256-1.86v-1.553h-.118a2.738 2.738 0 0 1-2.475 1.362c-2.043 0-3.31-1.582-3.31-3.947 0-2.366 1.28-3.97 3.31-3.97a2.828 2.828 0 0 1 2.534 1.392h.116v-1.254h1.2v8.034c0 1.766-1.36 2.894-3.514 2.894-1.904 0-3.12-.857-3.31-2.16zm3.253-7.77c-1.465 0-2.285 1.112-2.285 2.834 0 1.72.82 2.834 2.285 2.834s2.344-1.112 2.344-2.833c0-1.722-.886-2.835-2.344-2.835zM383.125 136.614c0-2.542 1.392-4.088 3.64-4.088 2.25 0 3.64 1.546 3.64 4.088 0 2.533-1.39 4.086-3.64 4.086-2.248 0-3.64-1.553-3.64-4.086zm5.977 0c0-1.875-.842-2.952-2.336-2.952s-2.337 1.077-2.337 2.952c0 1.867.84 2.95 2.336 2.95s2.336-1.083 2.336-2.95z" fill="#dff8e4"/><path d="M143 148.562a25 25 0 1 1 25-25 25.028 25.028 0 0 1-25 25zm0-48a23 23 0 1 0 23 23 23.026 23.026 0 0 0-23-23z" fill="#3c804b"/><path d="M156.22 117.966a7.98 7.98 0 0 1 1.772-1.35c1.36-.858 2.9-1.83 2.78-3.83a3.972 3.972 0 0 0-1.808-2.81 5.52 5.52 0 0 0-4.17-1.173c-1.96.47-2.914 2.095-3.423 3.93a24.75 24.75 0 0 0-6.085-1.074 5.075 5.075 0 0 1 .856-1.117 3.308 3.308 0 0 0-2.314.484c.33-.312.65-.832.996-1.148a5.572 5.572 0 0 0-4.403 1.686 21.565 21.565 0 0 0-6.01 1.034c-.52-1.78-1.476-3.34-3.388-3.797a5.52 5.52 0 0 0-4.17 1.172 3.972 3.972 0 0 0-1.808 2.81c-.12 2 1.42 2.972 2.78 3.83a9.13 9.13 0 0 1 1.635 1.202c-2.488 7.156-2.306 20.666-2.306 20.666l-.256 2.874a23.998 23.998 0 0 0 31.236.83 72.54 72.54 0 0 1-.125-3.704c.092-3.072.393-14.1-1.79-20.517" fill="#3c804b"/><path d="M138.284 121.032c2.703-3.873 14.428-2.736 9.632 9.663-.696 1.807-1.523 3.583-2.298 5.356a2.325 2.325 0 0 0-.315-.33c-.827 1.358-1.848.735-2.712-.505-.24.27-1.95.764-2.2 1.027-2.573-3.11-4.81-11.336-2.106-15.21" fill="#60cd77"/><path d="M146.412 122.468c-.463-.48-1.89-.723-3.41-.732-1.52.01-2.948.253-3.412.732-.997 1.03 1.073 3.283 2.947 3.75a.48.48 0 0 0-.008.08v3.833a.48.48 0 0 0 .072.954h.798a.48.48 0 0 0 .09-.95v-3.837a.475.475 0 0 0-.01-.084c1.87-.475 3.926-2.717 2.932-3.745" fill="#3c804b"/><circle cx="125" cy="138.562" r="9" fill="#fff"/><path d="M120.457 137.718a1 1 0 0 1 1.414 0l2.83 2.83a1 1 0 0 1 0 1.413 1 1 0 0 1-1.414 0l-2.83-2.827a1 1 0 0 1 0-1.415z" fill="#60cd77"/><path d="M123.286 140.547l4.95-4.95a1 1 0 0 1 1.413 0 1 1 0 0 1 0 1.414l-4.95 4.95a1 1 0 0 1-1.414 0 1 1 0 0 1 0-1.413z" fill="#60cd77"/><path d="M295.017 64.87a1.776 1.776 0 0 1-.038-3.433l15.754-4.374-11.667-11.457a1.777 1.777 0 1 1 2.492-2.533l13.856 13.61a1.772 1.772 0 0 1-.768 2.983l-18.718 5.196a1.84 1.84 0 0 1-.913.008" fill="#f7c78a"/><path d="M239.22 30.917a1.822 1.822 0 0 1-2.91-1.99l5.597-15.82-16.5 3.065a1.824 1.824 0 0 1-.662-3.586l19.6-3.637a1.82 1.82 0 0 1 2.054 2.4l-6.65 18.794a1.884 1.884 0 0 1-.53.773M517.197 164.08a1.568 1.568 0 0 1-2.502-1.712l4.815-13.608-14.193 2.635a1.57 1.57 0 0 1-.57-3.085l16.86-3.128a1.565 1.565 0 0 1 1.767 2.065l-5.72 16.167a1.62 1.62 0 0 1-.457.665" fill="#f58f99"/><path d="M468.926 16.423a6.804 6.804 0 0 1 2.36-1.116 5.84 5.84 0 0 1 2.634.052 20.642 20.642 0 0 1 3.617 1.23c1.067.453 1.868.762 2.395.932a3.29 3.29 0 0 0 1.282.2 1.17 1.17 0 0 0 .744-.302 5.86 5.86 0 0 0 .678-.956 1.637 1.637 0 0 1 1.038-.765 2.317 2.317 0 0 1 1.53.174q1.956.83.947 3.212a6.074 6.074 0 0 1-1.73 2.373 4.754 4.754 0 0 1-2.504 1.045 5.758 5.758 0 0 1-2.863-.452 405.8 405.8 0 0 0-3.99-1.585 14.868 14.868 0 0 0-1.99-.67 4.006 4.006 0 0 0-1.942.022 6.016 6.016 0 0 0-1.56.813 5.225 5.225 0 0 1-1.318.727 2 2 0 0 1-1.347-.19 2.15 2.15 0 0 1-1.398-1.705 9.822 9.822 0 0 0-.534-2.186 3.076 3.076 0 0 0-1.016-1.255 8.92 8.92 0 0 0-1.644-.978q-.934-.435-4.52-2.037a5.37 5.37 0 0 1-2.97-2.938 5.454 5.454 0 0 1 .216-4.218c.678-1.59 1.657-2.11 2.946-1.56a2.34 2.34 0 0 1 1.202.98 1.626 1.626 0 0 1 .146 1.28 3.594 3.594 0 0 0-.17 1.476 1.576 1.576 0 0 0 .8.91 27.88 27.88 0 0 0 2.818 1.373 26.076 26.076 0 0 1 3.32 1.706 6.016 6.016 0 0 1 1.908 1.828 6.66 6.66 0 0 1 .917 2.575" fill="#8cda9d"/><path d="M33.872 154.824a6.87 6.87 0 0 1 2.468.89 5.98 5.98 0 0 1 1.83 1.916 20.802 20.802 0 0 1 1.68 3.443c.44 1.086.782 1.877 1.037 2.37a3.363 3.363 0 0 0 .763 1.057 1.178 1.178 0 0 0 .744.313 6.473 6.473 0 0 0 1.165-.19 1.613 1.613 0 0 1 1.274.193 2.344 2.344 0 0 1 .962 1.215c.524 1.325-.01 2.31-1.622 2.953a5.977 5.977 0 0 1-2.915.44 4.728 4.728 0 0 1-2.522-1.04 5.717 5.717 0 0 1-1.702-2.355 725.28 725.28 0 0 0-1.695-3.968 14.53 14.53 0 0 0-.933-1.888 3.995 3.995 0 0 0-1.39-1.365 5.717 5.717 0 0 0-1.683-.537 5.44 5.44 0 0 1-1.455-.427 2.037 2.037 0 0 1-.82-1.094 2.172 2.172 0 0 1 .227-2.207 10.093 10.093 0 0 0 1.18-1.93 3.118 3.118 0 0 0 .174-1.607 9.128 9.128 0 0 0-.47-1.87q-.35-.974-1.75-4.656a5.402 5.402 0 0 1-.01-4.194 5.474 5.474 0 0 1 3.16-2.835q2.414-.965 3.195.986a2.37 2.37 0 0 1 .153 1.564 1.644 1.644 0 0 1-.806 1.004 3.376 3.376 0 0 0-1.17.924 1.558 1.558 0 0 0-.087 1.21 28.82 28.82 0 0 0 1.018 2.987 26.53 26.53 0 0 1 1.14 3.57 6.08 6.08 0 0 1 .048 2.656 6.674 6.674 0 0 1-1.187 2.474" fill="#7bc8f5"/><path d="M68.84 97.325l2.712-1.087-9.384-23.51-2.71 1.076c-1.394.557-2.326.258-2.786-.896-.455-1.145.015-2.002 1.405-2.555l4.04-1.612a3.85 3.85 0 0 1 1.764-.327 2.193 2.193 0 0 1 1.332.604 4.42 4.42 0 0 1 .956 1.528l9.783 24.522a3.373 3.373 0 0 1 .212 2.512 3.13 3.13 0 0 1-1.906 1.587l-4.034 1.61a2.466 2.466 0 0 1-1.76.158 1.74 1.74 0 0 1-1.024-1.058q-.688-1.72 1.4-2.552" fill="#f58f99"/><path d="M497.735 100.712q1.91 1.18.936 2.757a1.74 1.74 0 0 1-1.19.862 2.466 2.466 0 0 1-1.707-.46l-3.693-2.286a3.13 3.13 0 0 1-1.6-1.895 3.373 3.373 0 0 1 .642-2.436l13.894-22.452a4.42 4.42 0 0 1 1.206-1.338 2.193 2.193 0 0 1 1.416-.364 3.85 3.85 0 0 1 1.68.63l3.7 2.288c1.272.787 1.586 1.712.938 2.76q-.98 1.586-2.9.4l-2.48-1.532-13.324 21.524 2.483 1.542" fill="#f7c78a"/><path d="M353.65 5.958l-2.526.61L356.4 28.46l2.52-.61c1.297-.31 2.08.07 2.335 1.148q.388 1.602-1.556 2.07l-3.766.907a3.39 3.39 0 0 1-1.584.06 1.876 1.876 0 0 1-1.098-.7 3.952 3.952 0 0 1-.656-1.466l-5.492-22.83a3.013 3.013 0 0 1 .132-2.238 2.78 2.78 0 0 1 1.88-1.153l3.756-.908a2.195 2.195 0 0 1 1.573.087 1.567 1.567 0 0 1 .767 1.06c.253 1.065-.26 1.76-1.562 2.068" fill="#7bc8f5"/><path d="M9.967 55.09a5.78 5.78 0 1 0 5.78 5.78 5.787 5.787 0 0 0-5.78-5.78m0 15.278a9.5 9.5 0 1 1 9.5-9.497 9.51 9.51 0 0 1-9.5 9.498M153.677 164.303a4.258 4.258 0 1 0 4.26 4.26 4.264 4.264 0 0 0-4.26-4.26m0 11.257a7 7 0 1 1 7-6.998 7.007 7.007 0 0 1-7 6.998" fill="#f7c78a"/><path d="M166.934 42.795a5.024 5.024 0 1 0 5.025 5.025 5.03 5.03 0 0 0-5.026-5.025m0 13.28a8.257 8.257 0 1 1 8.258-8.255 8.267 8.267 0 0 1-8.258 8.256M548.033 50.258a4.563 4.563 0 1 0 4.564 4.563 4.57 4.57 0 0 0-4.564-4.562m0 12.062a7.5 7.5 0 1 1 7.5-7.5 7.508 7.508 0 0 1-7.5 7.5" fill="#8cda9d"/><path d="M423.108 158.74c-1.41 1.474-3.1 1.116-4.89 1.674a7.523 7.523 0 0 0-3.49 2.3 7.383 7.383 0 0 0-1.726 4.145c-.16 1.587.502 3.45-.58 4.834-1.065 1.366-2.713 1.175-4.234 1.527a7.493 7.493 0 0 0-4.146 2.45 7.41 7.41 0 0 0-1.707 3.865c-.228 1.73.484 3.586-.602 5.12-1.612 2.28 1.612 5.26 3.24 2.96a8.13 8.13 0 0 0 1.748-4.43c.106-1.554-.463-3.192.56-4.555 1.103-1.467 2.99-1.176 4.564-1.602a7.396 7.396 0 0 0 5.524-6.237c.227-1.675-.517-3.656.6-5.117 1.034-1.355 2.742-1.182 4.234-1.527a7.953 7.953 0 0 0 4.145-2.448c1.955-2.044-1.29-4.997-3.24-2.96" fill="#f7c78a"/></svg>