<svg id="time_2_" data-name="time (2)" xmlns="http://www.w3.org/2000/svg" xmlns:xlink="http://www.w3.org/1999/xlink" viewBox="0 0 127.98 126.024"><defs><clipPath id="clip-path" transform="translate(7.98 5.774)"><path d="M60,48.009c-9.992.285-15.131-34.259-21.127-34.259V71.991c7.994,0,10.563,34.259,21.127,34.259S73.133,71.991,81.127,71.991V13.75C75.131,13.75,69.992,48.295,60,48.009Z" fill="none"/></clipPath></defs><title>problem-waiting</title><g id="Layer_11" data-name="Layer 11"><g clip-path="url(#clip-path)"><line x1="66.088" y1="0.25" x2="125.774" y2="59.935" fill="none" stroke="#e1d3e5" stroke-linecap="round" stroke-linejoin="round" stroke-width="0.5"/><line x1="63.455" y1="2.884" x2="123.14" y2="62.569" fill="none" stroke="#e1d3e5" stroke-linecap="round" stroke-linejoin="round" stroke-width="0.5"/><line x1="60.821" y1="5.517" x2="120.507" y2="65.203" fill="none" stroke="#e1d3e5" stroke-linecap="round" stroke-linejoin="round" stroke-width="0.5"/><line x1="58.188" y1="8.151" x2="117.873" y2="67.836" fill="none" stroke="#e1d3e5" stroke-linecap="round" stroke-linejoin="round" stroke-width="0.5"/><line x1="55.554" y1="10.784" x2="115.24" y2="70.47" fill="none" stroke="#e1d3e5" stroke-linecap="round" stroke-linejoin="round" stroke-width="0.5"/><line x1="52.921" y1="13.418" x2="112.606" y2="73.103" fill="none" stroke="#e1d3e5" stroke-linecap="round" stroke-linejoin="round" stroke-width="0.5"/><line x1="50.287" y1="16.051" x2="109.973" y2="75.737" fill="none" stroke="#e1d3e5" stroke-linecap="round" stroke-linejoin="round" stroke-width="0.5"/><line x1="47.654" y1="18.685" x2="107.339" y2="78.37" fill="none" stroke="#e1d3e5" stroke-linecap="round" stroke-linejoin="round" stroke-width="0.5"/><line x1="45.02" y1="21.318" x2="104.705" y2="81.004" fill="none" stroke="#e1d3e5" stroke-linecap="round" stroke-linejoin="round" stroke-width="0.5"/><line x1="42.387" y1="23.952" x2="102.072" y2="83.637" fill="none" stroke="#e1d3e5" stroke-linecap="round" stroke-linejoin="round" stroke-width="0.5"/><line x1="39.753" y1="26.585" x2="99.438" y2="86.271" fill="none" stroke="#e1d3e5" stroke-linecap="round" stroke-linejoin="round" stroke-width="0.5"/><line x1="37.119" y1="29.219" x2="96.805" y2="88.904" fill="none" stroke="#e1d3e5" stroke-linecap="round" stroke-linejoin="round" stroke-width="0.5"/><line x1="34.486" y1="31.852" x2="94.171" y2="91.538" fill="none" stroke="#e1d3e5" stroke-linecap="round" stroke-linejoin="round" stroke-width="0.5"/><line x1="31.852" y1="34.486" x2="91.538" y2="94.171" fill="none" stroke="#e1d3e5" stroke-linecap="round" stroke-linejoin="round" stroke-width="0.5"/><line x1="29.219" y1="37.119" x2="88.904" y2="96.805" fill="none" stroke="#e1d3e5" stroke-linecap="round" stroke-linejoin="round" stroke-width="0.5"/><line x1="26.585" y1="39.753" x2="86.271" y2="99.438" fill="none" stroke="#e1d3e5" stroke-linecap="round" stroke-linejoin="round" stroke-width="0.5"/><line x1="23.952" y1="42.387" x2="83.637" y2="102.072" fill="none" stroke="#e1d3e5" stroke-linecap="round" stroke-linejoin="round" stroke-width="0.5"/><line x1="21.318" y1="45.02" x2="81.004" y2="104.705" fill="none" stroke="#e1d3e5" stroke-linecap="round" stroke-linejoin="round" stroke-width="0.5"/><line x1="18.685" y1="47.654" x2="78.37" y2="107.339" fill="none" stroke="#e1d3e5" stroke-linecap="round" stroke-linejoin="round" stroke-width="0.5"/><line x1="16.051" y1="50.287" x2="75.737" y2="109.973" fill="none" stroke="#e1d3e5" stroke-linecap="round" stroke-linejoin="round" stroke-width="0.5"/><line x1="13.418" y1="52.921" x2="73.103" y2="112.606" fill="none" stroke="#e1d3e5" stroke-linecap="round" stroke-linejoin="round" stroke-width="0.5"/><line x1="10.784" y1="55.554" x2="70.47" y2="115.24" fill="none" stroke="#e1d3e5" stroke-linecap="round" stroke-linejoin="round" stroke-width="0.5"/><line x1="8.151" y1="58.188" x2="67.836" y2="117.873" fill="none" stroke="#e1d3e5" stroke-linecap="round" stroke-linejoin="round" stroke-width="0.5"/><line x1="5.517" y1="60.821" x2="65.203" y2="120.507" fill="none" stroke="#e1d3e5" stroke-linecap="round" stroke-linejoin="round" stroke-width="0.5"/><line x1="2.884" y1="63.455" x2="62.569" y2="123.14" fill="none" stroke="#e1d3e5" stroke-linecap="round" stroke-linejoin="round" stroke-width="0.5"/><line x1="0.25" y1="66.088" x2="59.935" y2="125.774" fill="none" stroke="#e1d3e5" stroke-linecap="round" stroke-linejoin="round" stroke-width="0.5"/></g><path d="M81.127,13.75V71.991c-7.994,0-10.563,34.259-21.127,34.259S46.867,71.991,38.873,71.991V13.75c5.971,0,11.091,34.261,21,34.261l0.123,0,0.123,0c9.911,0,15.033-34.261,21-34.261m0-1c-3.149,0-5.27,5.261-8.748,14.559-3.283,8.778-7.369,19.7-12.255,19.7H59.877c-4.887,0-8.973-10.924-12.256-19.7-3.477-9.3-5.6-14.559-8.748-14.559a1,1,0,0,0-1,1V71.991a1,1,0,0,0,1,1c3,0,5.68,7.794,8.04,14.67,3.306,9.631,6.724,19.59,13.087,19.59s9.781-9.959,13.087-19.59c2.36-6.876,5.035-14.67,8.04-14.67a1,1,0,0,0,1-1V13.75a1,1,0,0,0-1-1h0Z" transform="translate(7.98 5.774)" fill="#52306c"/><path d="M39.873,15.3c1.8,1.814,4.026,7.767,5.874,12.709,3.682,9.844,7.855,21,14.129,21l0.123,0,0.123,0c6.274,0,10.447-11.157,14.129-21C76.1,23.068,78.327,17.115,80.127,15.3V71.122c-3.831,1.029-6.21,7.961-8.931,15.889C68.261,95.56,64.935,105.25,60,105.25s-8.261-9.69-11.2-18.239c-2.721-7.928-5.1-14.86-8.931-15.889V15.3M81.127,13.75c-5.97,0-11.093,34.261-21,34.261l-0.123,0-0.123,0c-9.912,0-15.033-34.261-21-34.261V71.991c7.994,0,10.563,34.259,21.127,34.259S73.133,71.991,81.127,71.991V13.75h0Z" transform="translate(7.98 5.774)" fill="#ccadd2"/><polygon points="67.98 104.274 63.412 98.16 67.98 98.16 72.548 98.16 67.98 104.274" fill="#fcb85d" stroke="#fcb85d" stroke-linecap="round" stroke-linejoin="round"/><rect x="66.267" y="93.562" width="3.426" height="4.598" fill="#fcb85d" stroke="#fcb85d" stroke-linecap="round" stroke-linejoin="round"/><rect x="7.98" y="5.774" width="120" height="120" fill="none"/><path d="M58.573,62.327c0,4.772-1.709,7.4-4.782,7.4s-4.782-2.632-4.782-7.4,1.7-7.4,4.782-7.4S58.573,57.554,58.573,62.327Zm-2.072-3.2c-0.452-1.758-1.365-2.671-2.71-2.671-2,0-3.064,2.023-3.064,5.872a15.5,15.5,0,0,0,.069,1.561Zm-5.421,6.432c0.462,1.738,1.375,2.642,2.71,2.642,2,0,3.054-2.033,3.054-5.872,0-.57-0.02-1.09-0.069-1.581Z" transform="translate(7.98 5.774)" fill="#fcb85d"/><path d="M71.005,62.327c0,4.772-1.709,7.4-4.782,7.4s-4.782-2.632-4.782-7.4,1.7-7.4,4.782-7.4S71.005,57.554,71.005,62.327Zm-2.072-3.2c-0.452-1.758-1.365-2.671-2.71-2.671-2,0-3.064,2.023-3.064,5.872a15.5,15.5,0,0,0,.069,1.561Zm-5.421,6.432c0.462,1.738,1.375,2.642,2.71,2.642,2,0,3.054-2.033,3.054-5.872,0-.57-0.02-1.09-0.069-1.581Z" transform="translate(7.98 5.774)" fill="#fcb85d"/></g></svg>