<svg id="configuration" xmlns="http://www.w3.org/2000/svg" viewBox="0 0 120 120"><title>problem-configuration</title><rect x="4.968" y="59" width="20.75" height="20.75" fill="#eee1f7" stroke="#52306c" stroke-linecap="round" stroke-linejoin="round"/><rect x="25.718" y="59" width="20.75" height="20.75" fill="#eee1f7" stroke="#52306c" stroke-linecap="round" stroke-linejoin="round"/><polyline points="29.868 72.475 29.868 63.15 39.193 63.15" fill="none" stroke="#52306c" stroke-linecap="round" stroke-linejoin="round"/><rect x="25.718" y="79.75" width="20.75" height="20.75" fill="#eee1f7" stroke="#52306c" stroke-linecap="round" stroke-linejoin="round"/><polyline points="29.868 93.25 29.868 83.9 39.218 83.9" fill="none" stroke="#52306c" stroke-linecap="round" stroke-linejoin="round"/><rect x="4.968" y="38.25" width="20.75" height="20.75" fill="#eee1f7" stroke="#52306c" stroke-linecap="round" stroke-linejoin="round"/><rect x="25.718" y="38.25" width="20.75" height="20.75" fill="none" stroke="#52306c" stroke-linecap="round" stroke-linejoin="round"/><polyline points="29.868 51.725 29.868 42.4 39.193 42.4" fill="none" stroke="#52306c" stroke-linecap="round" stroke-linejoin="round"/><polyline points="9.118 51.725 9.118 42.4 18.443 42.4" fill="none" stroke="#52306c" stroke-linecap="round" stroke-linejoin="round"/><polyline points="71.368 51.725 71.368 42.4 80.693 42.4" fill="none" stroke="#52306c" stroke-linecap="round" stroke-linejoin="round"/><polyline points="50.618 51.725 50.618 42.4 59.943 42.4" fill="none" stroke="#52306c" stroke-linecap="round" stroke-linejoin="round"/><polyline points="71.368 51.725 71.368 42.4 80.693 42.4" fill="none" stroke="#52306c" stroke-linecap="round" stroke-linejoin="round"/><polyline points="50.618 51.725 50.618 42.4 59.943 42.4" fill="none" stroke="#52306c" stroke-linecap="round" stroke-linejoin="round"/><polyline points="50.618 30.975 50.618 21.65 59.943 21.65" fill="none" stroke="#52306c" stroke-linecap="round" stroke-linejoin="round"/><rect x="46.468" y="38.25" width="20.75" height="20.75" fill="none" stroke="#52306c" stroke-linecap="round" stroke-linejoin="round"/><rect x="46.468" y="17.5" width="20.75" height="20.75" fill="none" stroke="#52306c" stroke-linecap="round" stroke-linejoin="round"/><rect x="67.218" y="38.25" width="20.75" height="20.75" fill="none" stroke="#52306c" stroke-linecap="round" stroke-linejoin="round"/><polyline points="9.118 72.475 9.118 63.15 18.443 63.15" fill="none" stroke="#52306c" stroke-linecap="round" stroke-linejoin="round"/><rect width="120" height="120" fill="none"/></svg>