<svg id="time_2_" data-name="time (2)" xmlns="http://www.w3.org/2000/svg" viewBox="0 0 120 120"><title>problem-waiting</title><g id="ticket"><rect width="120" height="120" fill="none"/><path d="M60,101.782c-5.987,0-9.352-8.381-12.6-16.485-2.644-6.585-5.141-12.806-8.521-12.806a0.5,0.5,0,0,1-.5-0.5V18.718a0.5,0.5,0,0,1,.5-0.5c2.935,0,5.287,5.382,8.265,12.2,3.5,8.014,7.472,17.1,12.717,17.1h0.289c5.244,0,9.215-9.083,12.717-17.1,2.979-6.814,5.331-12.2,8.267-12.2a0.5,0.5,0,0,1,.5.5V71.991a0.5,0.5,0,0,1-.5.5c-3.381,0-5.878,6.221-8.521,12.806C69.352,93.4,65.987,101.782,60,101.782Z" transform="translate(0)" fill="#eee1f7"/><path d="M81.127,18.718V71.991c-7.994,0-10.563,29.291-21.127,29.291S46.867,71.991,38.873,71.991V18.718c5.967,0,11.084,29.293,20.983,29.293l0.144,0,0.144,0c9.9,0,15.016-29.293,20.983-29.293m0-1c-3.262,0-5.672,5.514-8.724,12.5-3.271,7.484-7.342,16.8-12.259,16.8l-0.115,0H59.971l-0.115,0c-4.918,0-8.989-9.314-12.26-16.8-3.051-6.981-5.461-12.5-8.723-12.5a1,1,0,0,0-1,1V71.991a1,1,0,0,0,1,1c3.043,0,5.592,6.351,8.058,12.492,3.315,8.259,6.744,16.8,13.069,16.8s9.753-8.54,13.069-16.8c2.465-6.142,5.015-12.492,8.058-12.492a1,1,0,0,0,1-1V18.718a1,1,0,0,0-1-1h0Z" transform="translate(0)" fill="#52306c"/><polygon points="60 93.532 55.432 87.418 60 87.418 64.568 87.418 60 93.532" fill="#fcb85d" stroke="#fcb85d" stroke-linecap="round" stroke-linejoin="round"/><path d="M59.266,66.467v1.105H52.092V66.467H55.13V58.709H55.016l-2.945,1.9V59.272l3.066-1.989h1.234v9.184h2.895Z" transform="translate(0)" fill="#52306c"/><path d="M63.152,61.746h1.119a1.819,1.819,0,0,0,1.961-1.833,1.738,1.738,0,0,0-1.932-1.74,1.875,1.875,0,0,0-2.025,1.783H61.07a3,3,0,0,1,3.28-2.888c1.84,0,3.152,1.105,3.152,2.667a2.28,2.28,0,0,1-1.754,2.4v0.114a2.383,2.383,0,0,1,2.182,2.546c0,1.747-1.469,2.995-3.522,2.995-2.032,0-3.444-1.169-3.537-2.945h1.191a2.1,2.1,0,0,0,2.31,1.811c1.412,0,2.289-.727,2.289-1.89,0-1.2-.906-1.961-2.332-1.961H63.152V61.746Z" transform="translate(0)" fill="#52306c"/><rect x="52.071" y="70.75" width="15.858" height="1.25" fill="#52306c"/></g></svg>