<svg id="refresh" xmlns="http://www.w3.org/2000/svg" viewBox="0 0 150 120"><title>solution-refresh</title><line x1="101.772" y1="86.608" x2="95.292" y2="80.127" fill="none" stroke="#f5a11b" stroke-linecap="round" stroke-miterlimit="10" stroke-width="1.5"/><line x1="106.951" y1="84.246" x2="106.951" y2="77.992" fill="none" stroke="#f5a11b" stroke-linecap="round" stroke-miterlimit="10" stroke-width="1.5"/><line x1="100.075" y1="91.468" x2="93.518" y2="91.468" fill="none" stroke="#f5a11b" stroke-linecap="round" stroke-miterlimit="10" stroke-width="1.5"/><rect x="29.31" y="14.146" width="88.667" height="88.667" rx="6" ry="6" fill="none" stroke="#52306c" stroke-miterlimit="10"/><polygon points="124.664 94.05 114.566 91.344 104.467 88.638 107.173 98.737 109.879 108.835 113.813 101.72 120.928 108.835 124.664 105.098 117.549 97.984 124.664 94.05" fill="#52306c" stroke="#fff" stroke-miterlimit="10" stroke-width="2"/><path d="M85.724,48.81a17.706,17.706,0,1,1-12.081-4.762" fill="none" stroke="#52306c" stroke-linecap="round" stroke-miterlimit="10" stroke-width="2"/><path d="M83.49,43.183a1,1,0,0,1,0,1.732l-4.173,2.409-4.173,2.409a1,1,0,0,1-1.5-.866V39.23a1,1,0,0,1,1.5-.866l4.173,2.409Z" fill="#52306c"/><rect width="150" height="120" fill="none"/></svg>