<svg id="refresh" xmlns="http://www.w3.org/2000/svg" viewBox="0 0 150 120"><title>solution-refresh</title><line x1="77.43" y1="86.608" x2="70.949" y2="80.127" fill="none" stroke="#f5a11b" stroke-linecap="round" stroke-miterlimit="10" stroke-width="1.5"/><line x1="82.609" y1="84.246" x2="82.609" y2="77.992" fill="none" stroke="#f5a11b" stroke-linecap="round" stroke-miterlimit="10" stroke-width="1.5"/><line x1="75.732" y1="91.468" x2="69.175" y2="91.468" fill="none" stroke="#f5a11b" stroke-linecap="round" stroke-miterlimit="10" stroke-width="1.5"/><rect x="4.968" y="14.146" width="88.667" height="88.667" rx="6" ry="6" fill="none" stroke="#52306c" stroke-miterlimit="10"/><polygon points="100.322 94.05 90.223 91.344 80.125 88.638 82.831 98.737 85.537 108.835 89.47 101.72 96.585 108.835 100.322 105.098 93.207 97.984 100.322 94.05" fill="#52306c" stroke="#fff" stroke-miterlimit="10" stroke-width="2"/><path d="M61.382,48.81A17.706,17.706,0,1,1,49.3,44.049" fill="none" stroke="#52306c" stroke-linecap="round" stroke-miterlimit="10" stroke-width="2"/><path d="M59.147,43.183a1,1,0,0,1,0,1.732l-4.173,2.409L50.8,49.733a1,1,0,0,1-1.5-.866V39.23a1,1,0,0,1,1.5-.866l4.173,2.409Z" fill="#52306c"/><rect width="150" height="120" fill="none"/></svg>