<svg id="package" xmlns="http://www.w3.org/2000/svg" viewBox="0 0 150 120"><title>solution-stack</title><rect width="150" height="120" fill="none"/><rect x="18.074" y="55.733" width="48.277" height="48.277" rx="3" ry="3" transform="translate(68.842 -6.455) rotate(45)" fill="#fff" stroke="#52306c" stroke-miterlimit="10"/><rect x="18.074" y="35.861" width="48.277" height="48.277" rx="3" ry="3" transform="translate(54.79 -12.275) rotate(45)" fill="#fff" stroke="#52306c" stroke-miterlimit="10"/><path d="M111,52.83H90.04a3.309,3.309,0,0,0-3.309,3.309V57.23L82.756,60l3.976,2.77v1.091A3.309,3.309,0,0,0,90.04,67.17H111a3.309,3.309,0,0,0,3.309-3.309V56.139A3.309,3.309,0,0,0,111,52.83Z" fill="#71438f"/><path d="M111.7,72.9H90.745a3.309,3.309,0,0,0-3.309,3.309V77.3l-3.976,2.77,3.976,2.77v1.091a3.309,3.309,0,0,0,3.309,3.309H111.7a3.309,3.309,0,0,0,3.309-3.309V76.213A3.309,3.309,0,0,0,111.7,72.9Z" fill="#71438f"/><path d="M96.224,78.276v4.246c0,1.381,2.239,2.5,5,2.5s5-1.119,5-2.5V78.276h-10Z" fill="#fff" stroke="#71438f" stroke-miterlimit="10" stroke-width="0.75"/><path d="M93.012,63.619l2.524-7.237h1.181l2.519,7.237H98.07L97.391,61.6h-2.6l-0.679,2.02h-1.1Zm3.063-6L95.058,60.7h2.079l-1.018-3.08H96.076Z" fill="#fff"/><path d="M103.193,56.381a2.325,2.325,0,1,1,0,4.649h-1.622v2.588h-1.092V56.381h2.719Zm-1.627,3.68h1.018c1.16,0,1.845-.26,1.845-1.347a1.239,1.239,0,0,0-1.369-1.352h-1.495v2.7Z" fill="#fff"/><path d="M106.934,63.619V56.381h1.092v7.237h-1.092Z" fill="#fff"/><ellipse cx="101.224" cy="78.276" rx="5" ry="2.5" fill="#fff" stroke="#71438f" stroke-miterlimit="10" stroke-width="0.75"/><rect x="18.074" y="15.989" width="48.277" height="48.277" rx="3" ry="3" transform="translate(40.739 -18.096) rotate(45)" fill="#71438f" stroke="#52306c" stroke-miterlimit="10"/><path d="M48.693,32.318a2.816,2.816,0,0,1,2.852,2.853,2.7,2.7,0,0,1-.389,1.437,2.949,2.949,0,0,1-1.037,1.014v0.4a6.136,6.136,0,0,1-5.705,5.705,3.089,3.089,0,0,0-1.337.256,2.317,2.317,0,0,0-.847.657,2.861,2.861,0,1,1-4.947,1.939,2.69,2.69,0,0,1,.39-1.438A2.943,2.943,0,0,1,38.71,44.13V34.792a2.942,2.942,0,0,1-1.036-1.014,2.69,2.69,0,0,1-.39-1.438,2.853,2.853,0,1,1,5.705,0,2.694,2.694,0,0,1-.39,1.438,2.944,2.944,0,0,1-1.036,1.014v6.753a5.871,5.871,0,0,1,2.852-.647,3.068,3.068,0,0,0,2.853-2.852v-0.4a2.936,2.936,0,0,1-1.036-1.014,2.69,2.69,0,0,1-.39-1.437,2.816,2.816,0,0,1,2.852-2.853V32.318Zm-9.561-.981a1.4,1.4,0,1,0,2.006,0A1.4,1.4,0,0,0,39.133,31.338Zm2.006,16.269a1.4,1.4,0,1,0-2.006,0A1.4,1.4,0,0,0,41.138,47.606ZM49.7,36.2a1.4,1.4,0,1,0-2.006,0A1.4,1.4,0,0,0,49.7,36.2Z" fill="#fff"/></svg>