<svg id="Layer_2" data-name="Layer 2" xmlns="http://www.w3.org/2000/svg" viewBox="0 0 120 120"><title>tetris</title><rect x="18.5" y="60" width="20.75" height="20.75" fill="#eee1f7" stroke="#222" stroke-linecap="round" stroke-linejoin="round"/><rect x="39.25" y="60" width="20.75" height="20.75" fill="#eee1f7" stroke="#222" stroke-linecap="round" stroke-linejoin="round"/><polyline points="43.4 73.475 43.4 64.15 52.725 64.15" fill="none" stroke="#222" stroke-linecap="round" stroke-linejoin="round"/><rect x="39.25" y="80.75" width="20.75" height="20.75" fill="#eee1f7" stroke="#222" stroke-linecap="round" stroke-linejoin="round"/><polyline points="43.4 94.25 43.4 84.9 52.75 84.9" fill="none" stroke="#222" stroke-linecap="round" stroke-linejoin="round"/><rect x="18.5" y="39.25" width="20.75" height="20.75" fill="#eee1f7" stroke="#222" stroke-linecap="round" stroke-linejoin="round"/><rect x="39.25" y="39.25" width="20.75" height="20.75" fill="none" stroke="#222" stroke-linecap="round" stroke-linejoin="round"/><polyline points="43.4 52.725 43.4 43.4 52.725 43.4" fill="none" stroke="#222" stroke-linecap="round" stroke-linejoin="round"/><polyline points="22.65 52.725 22.65 43.4 31.975 43.4" fill="none" stroke="#222" stroke-linecap="round" stroke-linejoin="round"/><polyline points="84.9 52.725 84.9 43.4 94.225 43.4" fill="none" stroke="#222" stroke-linecap="round" stroke-linejoin="round"/><polyline points="64.15 52.725 64.15 43.4 73.475 43.4" fill="none" stroke="#222" stroke-linecap="round" stroke-linejoin="round"/><polyline points="84.9 52.725 84.9 43.4 94.225 43.4" fill="none" stroke="#222" stroke-linecap="round" stroke-linejoin="round"/><polyline points="64.15 52.725 64.15 43.4 73.475 43.4" fill="none" stroke="#222" stroke-linecap="round" stroke-linejoin="round"/><polyline points="64.15 31.975 64.15 22.65 73.475 22.65" fill="none" stroke="#222" stroke-linecap="round" stroke-linejoin="round"/><rect x="60" y="39.25" width="20.75" height="20.75" fill="none" stroke="#222" stroke-linecap="round" stroke-linejoin="round"/><rect x="60" y="18.5" width="20.75" height="20.75" fill="none" stroke="#222" stroke-linecap="round" stroke-linejoin="round"/><rect x="80.75" y="39.25" width="20.75" height="20.75" fill="none" stroke="#222" stroke-linecap="round" stroke-linejoin="round"/><polyline points="22.65 73.475 22.65 64.15 31.975 64.15" fill="none" stroke="#222" stroke-linecap="round" stroke-linejoin="round"/><rect width="120" height="120" fill="none"/></svg>