<svg id="watch" xmlns="http://www.w3.org/2000/svg" viewBox="0 0 120 120"><title>time-spent</title><rect width="120" height="120" fill="none"/><path d="M78.75,29.75a7.008,7.008,0,0,1,7,7V82.5a7.008,7.008,0,0,1-7,7h-37a7.008,7.008,0,0,1-7-7V36.75a7.008,7.008,0,0,1,7-7h37m0-1h-37a8,8,0,0,0-8,8V82.5a8,8,0,0,0,8,8h37a8,8,0,0,0,8-8V36.75a8,8,0,0,0-8-8h0Z"/><rect x="36.5" y="31.333" width="47.667" height="56.5" rx="6.5" ry="6.5" fill="#333"/><path d="M77.667,31.833a6.007,6.007,0,0,1,6,6v43.5a6.007,6.007,0,0,1-6,6H43a6.007,6.007,0,0,1-6-6v-43.5a6.007,6.007,0,0,1,6-6H77.667m0-1H43a7,7,0,0,0-7,7v43.5a7,7,0,0,0,7,7H77.667a7,7,0,0,0,7-7v-43.5a7,7,0,0,0-7-7h0Z" fill="#222"/><path d="M75.5,11.563a1.628,1.628,0,0,0-1.875-1.312H47.375A1.628,1.628,0,0,0,45.5,11.563c-0.187.813-2.437,16.372-3.75,17.684h37.5C77.938,27.934,75.688,12.375,75.5,11.563Z" fill="none" stroke="#222" stroke-miterlimit="10"/><line x1="43.37" y1="23.75" x2="77.63" y2="23.75" fill="none" stroke="#222" stroke-miterlimit="10"/><line x1="76.781" y1="19.25" x2="44.219" y2="19.25" fill="none" stroke="#222" stroke-miterlimit="10"/><line x1="44.936" y1="15" x2="76.064" y2="15" fill="none" stroke="#222" stroke-miterlimit="10"/><line x1="45.421" y1="12" x2="75.579" y2="12" fill="none" stroke="#222" stroke-miterlimit="10"/><path d="M45,107.721a1.628,1.628,0,0,0,1.875,1.313h26.25A1.628,1.628,0,0,0,75,107.721c0.188-.812,2.438-16.372,3.75-17.684H41.25C42.563,91.349,44.813,106.909,45,107.721Z" fill="none" stroke="#222" stroke-miterlimit="10"/><line x1="77.13" y1="95.534" x2="42.87" y2="95.534" fill="none" stroke="#222" stroke-miterlimit="10"/><line x1="43.719" y1="100.034" x2="76.281" y2="100.034" fill="none" stroke="#222" stroke-miterlimit="10"/><line x1="75.564" y1="104.284" x2="44.436" y2="104.284" fill="none" stroke="#222" stroke-miterlimit="10"/><line x1="75.079" y1="107.284" x2="44.921" y2="107.284" fill="none" stroke="#222" stroke-miterlimit="10"/><path d="M87.281,53.063a1.532,1.532,0,0,1-1.531-1.531V45.014A1.515,1.515,0,0,1,87.264,43.5h1.17a0.5,0.5,0,0,1,.5.5v8.559a0.5,0.5,0,0,1-.5.5H87.281Z" fill="#fff"/><path d="M88.434,44l0,0v8.559H87.281a1.032,1.032,0,0,1-1.031-1.031V45.014A1.015,1.015,0,0,1,87.264,44h1.17m0-1h-1.17a2.014,2.014,0,0,0-2.014,2.014v6.518a2.031,2.031,0,0,0,2.031,2.031h1.157a1,1,0,0,0,1-1V44a1,1,0,0,0-1-1h0Z" fill="#222"/><polygon points="87.25 76.688 87.25 62.063 87.282 62.063 87.313 76.657 87.282 76.688 87.25 76.688" fill="#fff"/><path d="M87.283,61.563H86.75V77.188h0.533a0.53,0.53,0,0,0,.53-0.53V62.092a0.53,0.53,0,0,0-.53-0.53h0Z" fill="#222"/><circle cx="59.521" cy="59.021" r="1.271" fill="#fff" stroke="#fff" stroke-miterlimit="10"/><path d="M74.947,48.519l-0.894-1.2a0.25,0.25,0,0,0-.35-0.052L61.961,55.967a0.164,0.164,0,0,0-.037.231l0.2,0.27-1.883,1.4,0.6,0.8,1.884-1.4,0.163,0.219a0.284,0.284,0,0,0,.36.015l11.652-8.638A0.25,0.25,0,0,0,74.947,48.519Z" fill="#fff"/><path d="M58.776,57.878l-0.88-.625,0.206-.3a0.245,0.245,0,0,0-.056-0.311c-0.158-.158-6.186-4.3-6.186-4.3a0.25,0.25,0,0,0-.348.063l-0.856,1.232a0.25,0.25,0,0,0,.063.348s5.967,4.108,6.117,4.25c0.258,0.244.344,0.045,0.344,0.045l0.147-.211L58.2,58.694Z" fill="#fff"/><line x1="59.521" y1="55.75" x2="59.521" y2="78.938" fill="none" stroke="#ae7c2e" stroke-linecap="round" stroke-miterlimit="10"/></svg>