<?xml version="1.0" encoding="utf-8"?>
<!-- Generator: Adobe Illustrator 19.2.1, SVG Export Plug-In . SVG Version: 6.00 Build 0)  -->
<svg version="1.1" id="Layer_1" xmlns="http://www.w3.org/2000/svg" xmlns:xlink="http://www.w3.org/1999/xlink" x="0px" y="0px"
	 viewBox="0 0 36 36" style="enable-background:new 0 0 36 36;" xml:space="preserve">
<style type="text/css">
	.st0{fill:#E1C5AD;stroke:#52326B;stroke-width:0.9624;stroke-linejoin:round;}
	.st1{fill:#FFFFFF;stroke:#153B60;stroke-width:0.9624;stroke-linejoin:round;}
	.st2{fill:#F69D89;}
	.st3{fill:#FFFFFF;stroke:#52326B;stroke-width:0.4812;stroke-linecap:round;stroke-linejoin:round;}
	.st4{fill:none;stroke:#52326B;stroke-width:0.9624;stroke-linejoin:round;}
</style>
<title>development</title>
<path class="st0" d="M12,4.9l22.9,22.9c0.9,0.9,0.9,2.4,0,3.3s-2.4,0.9-3.3,0L8.7,8.2c-0.9-0.9-0.9-2.4,0-3.3S11.1,4,12,4.9z"/>
<path class="st1" d="M15.4,14.9c-2.5,2.5-4,6-4.1,9.6C6.1,23,2,18.9,0.5,13.6c3.6-0.1,7-1.5,9.5-4l4.8-4.8l5.3,5.3L15.4,14.9"/>
<path class="st2" d="M3.8,13.2c-1.1,0.3-2.2,0.4-3.3,0.4C2,18.9,6.1,23,11.3,24.5c0-1.1,0.2-2.2,0.4-3.3C8,20,5,17,3.8,13.2z"/>
<path class="st3" d="M3.8,13.2c0.6,1.9,1.6,3.6,3.1,5c1.5,1.2,3.2,2.2,5,3"/>
<path class="st4" d="M15.4,14.9c-2.5,2.5-4,6-4.1,9.6C6.1,23,2,18.9,0.5,13.6c3.6-0.1,7-1.5,9.5-4l4.8-4.8l5.3,5.3L15.4,14.9"/>
</svg>
