<svg xmlns="http://www.w3.org/2000/svg" viewBox="0 0 36 36"><title>development</title><path d="M11.95974,4.93146l22.862,22.862a2.31585,2.31585,0,1,1-3.27511,3.27511l-22.862-22.862A2.31585,2.31585,0,0,1,11.95974,4.93146Z" style="fill:#e1c5ad;stroke:#153b60;stroke-linejoin:round;stroke-width:0.9624319732997616px"/><path d="M15.38375,14.90569a13.79213,13.79213,0,0,0-4.05018,9.56644A15.65881,15.65881,0,0,1,.5,13.60761a13.7873,13.7873,0,0,0,9.53579-4.04988l4.846-4.846,5.34793,5.34793-4.846,4.84606" style="fill:#fff;stroke:#153b60;stroke-linejoin:round;stroke-width:0.9624319732997616px"/><path d="M3.75483,13.16169A13.9,13.9,0,0,1,.5,13.60761,15.6589,15.6589,0,0,0,11.33357,24.47214a13.89291,13.89291,0,0,1,.44148-3.26167A12.40548,12.40548,0,0,1,3.75483,13.16169Z" style="fill:#f69d89"/><path d="M3.75643,13.16124a12.338,12.338,0,0,0,3.05246,5.0167,22.13,22.13,0,0,0,4.96673,3.03273" style="fill:#fff;stroke:#153b60;stroke-linecap:round;stroke-linejoin:round;stroke-width:0.4812159866498808px"/><path d="M15.38375,14.90569a13.79213,13.79213,0,0,0-4.05018,9.56644A15.65881,15.65881,0,0,1,.5,13.60761a13.7873,13.7873,0,0,0,9.53579-4.04988l4.846-4.846,5.34793,5.34793-4.846,4.84606" style="fill:none;stroke:#153b60;stroke-linejoin:round;stroke-width:0.9624319732997616px"/></svg>