<svg xmlns="http://www.w3.org/2000/svg" viewBox="0 0 160 18.11594"><defs><clipPath id="a"><path d="M137.585 12.085h5.395v.32a1.44 1.44 0 0 0 .763 1.47 3.81 3.81 0 0 0 1.626.245h6.87a3.025 3.025 0 0 0 1.688-.355 1.324 1.324 0 0 0 .505-1.165 1.15 1.15 0 0 0-.788-1.238 16.912 16.912 0 0 0-3.744-.306l-4.31-.074a34.603 34.603 0 0 1-4.47-.27 5.22 5.22 0 0 1-2.204-.833 3.087 3.087 0 0 1-1.06-1.57 9.594 9.594 0 0 1-.32-2.794 8.67 8.67 0 0 1 .345-2.795 3.196 3.196 0 0 1 1.233-1.568 5.677 5.677 0 0 1 2.4-.944A39.693 39.693 0 0 1 146.577 0q5.788 0 7.242.06a10.87 10.87 0 0 1 2.487.357 3.816 3.816 0 0 1 2.217 1.446 5.506 5.506 0 0 1 .74 3.187v.71h-5.37v-.416a1.27 1.27 0 0 0-.542-1.054 3.113 3.113 0 0 0-1.626-.32h-6.256a3.86 3.86 0 0 0-1.897.345 1.216 1.216 0 0 0-.566 1.127 1.074 1.074 0 0 0 .567 1.08 18.285 18.285 0 0 0 4.114.317l4.015.073q2.88.025 3.88.135a6.458 6.458 0 0 1 1.81.453 3.55 3.55 0 0 1 2.02 1.705 7.57 7.57 0 0 1 .59 3.346 7.704 7.704 0 0 1-.493 3.15 3.438 3.438 0 0 1-1.798 1.63q-1.7.786-6.405.786-8.645 0-10.123-.22a4.734 4.734 0 0 1-1.995-.785 3.174 3.174 0 0 1-1.27-1.593 10.053 10.053 0 0 1-.332-3.04v-.392zm-25.7-11.94h5.455V10.25a3.787 3.787 0 0 0 .676 2.543 2.978 2.978 0 0 0 2.298.75h5.678a3.104 3.104 0 0 0 2.298-.65 3.678 3.678 0 0 0 .602-2.447V.146h5.456v10.988a12.37 12.37 0 0 1-.332 3.32 4.355 4.355 0 0 1-1.266 1.966 5.983 5.983 0 0 1-2.9 1.376 51.423 51.423 0 0 1-7.545.32q-5.407 0-6.956-.664a5.025 5.025 0 0 1-2.68-2.212 8.937 8.937 0 0 1-.786-4.18V.145zm-18.53 13.333h6.264a3.683 3.683 0 0 0 2.593-.66 2.143 2.143 0 0 0 .55-1.27 24.702 24.702 0 0 0 .136-3.173 10.735 10.735 0 0 0-.173-2.246 1.714 1.714 0 0 0-.612-1.05 2.597 2.597 0 0 0-1.394-.49q-.587-.097-5.36-.097-2.617 0-3.266.085a2.772 2.772 0 0 0-1.26.525 2.098 2.098 0 0 0-.783 1.184 11.866 11.866 0 0 0-.195 2.625 16.802 16.802 0 0 0 .16 2.894 1.87 1.87 0 0 0 .72 1.16 4.753 4.753 0 0 0 2.62.512zm-9.152-2.275V6.545a9.484 9.484 0 0 1 .404-3.064 4.47 4.47 0 0 1 1.36-1.96A5.433 5.433 0 0 1 88.826.27 52.576 52.576 0 0 1 95.457 0q5.836 0 7.528.147a8.057 8.057 0 0 1 2.844.71 4.453 4.453 0 0 1 2.476 3.14 38.598 38.598 0 0 1 .245 5.81 27.594 27.594 0 0 1-.195 4.068 4.997 4.997 0 0 1-.883 2.06 4.523 4.523 0 0 1-2.673 1.74 26.894 26.894 0 0 1-5.86.44q-6.817 0-8.68-.11a8.007 8.007 0 0 1-2.894-.6 4.902 4.902 0 0 1-2.403-2.255 8.745 8.745 0 0 1-.76-3.947zm-19.71-6.71V8.84h8.47a3.3 3.3 0 0 0 2.03-.44 2.205 2.205 0 0 0 .514-1.71 2.254 2.254 0 0 0-.526-1.745 3.235 3.235 0 0 0-2.018-.452h-8.47zm-5.507 13.333V.146h16.298a9.7 9.7 0 0 1 2.377.23 3.916 3.916 0 0 1 1.57.82 3.616 3.616 0 0 1 1.2 1.737 11.925 11.925 0 0 1 .295 3.13 6.72 6.72 0 0 1-.576 3.314 4.14 4.14 0 0 1-2.464 1.455v.073a3.768 3.768 0 0 1 2.28 1.174 2.95 2.95 0 0 1 .55 1.344 20.51 20.51 0 0 1 .135 2.886v1.516h-5.44q.05-.587.05-1.296a5.293 5.293 0 0 0-.43-2.727 2.814 2.814 0 0 0-2.144-.55h-8.26v4.573h-5.44zm-9.79 0h-5.47V4.62h-7.64V.145h20.726V4.62h-7.615v13.206zM28.117.146h5.507v17.68h-5.507V.146zM0 17.825V.146h8.445l10.292 12.91V.147h5.466v17.68h-8.52L5.467 5.06v12.766H0z" fill="none" clip-rule="evenodd"/></clipPath></defs><title>nitrous</title><g clip-path="url(#a)"><path fill="#0099ed" d="M-.725-.725h161.45V18.84H-.726z"/></g></svg>