<svg data-name="Layer 1" xmlns="http://www.w3.org/2000/svg" viewBox="0 0 95 53.94"><title>logo-docker</title><path d="M54.934 17.033h8.516v8.707h4.306a18.674 18.674 0 0 0 5.917-.993 15.15 15.15 0 0 0 2.877-1.3 10.68 10.68 0 0 1-2-5.505c-.245-2.657.29-6.116 2.09-8.2l.9-1.036 1.065.864c2.686 2.158 4.945 5.173 5.343 8.61a13.017 13.017 0 0 1 9.882.92l1.17.67-.616 1.2c-2.41 4.705-7.45 6.163-12.38 5.9-7.372 18.375-23.426 27.07-42.89 27.07-10.056 0-19.282-3.76-24.536-12.68l-.086-.147-.766-1.557a24.7 24.7 0 0 1-1.966-12.53l.12-1.287h7.283v-8.707h8.517V8.517h17.034V0h10.22v17.033z" fill="#394d54" fill-rule="evenodd"/><g data-name="body colors"><path d="M82.527 20.254c.57-4.438-2.75-7.924-4.81-9.58-2.373 2.745-2.742 9.938.98 12.966-2.077 1.846-6.456 3.52-10.94 3.52H13.174a23 23 0 0 0 2.262 12.68l.62 1.136a21.036 21.036 0 0 0 1.288 1.93q3.366.217 6.206.153a30.44 30.44 0 0 0 9.055-1.32.656.656 0 0 1 .43 1.24c-.307.106-.626.205-.955.3a28.5 28.5 0 0 1-6.26 1.02c.15 0-.154.022-.155.022-.085.005-.192.017-.278.022a57.46 57.46 0 0 1-3.14.067c-1.19 0-2.362-.022-3.672-.088l-.034.022c4.55 5.11 11.66 8.176 20.574 8.176 18.865 0 34.866-8.363 41.95-27.137 5.028.516 9.86-.766 12.057-5.056-3.5-2.02-8-1.375-10.593-.073z" fill="#00aada"/><path d="M82.527 20.254c.57-4.438-2.75-7.924-4.81-9.58-2.373 2.745-2.742 9.938.98 12.966-2.077 1.846-6.456 3.52-10.94 3.52h-51.35c-.224 7.167 2.436 12.61 7.143 15.9a30.44 30.44 0 0 0 9.055-1.32.656.656 0 0 1 .43 1.24c-.307.106-.626.205-.955.3a29.964 29.964 0 0 1-6.426 1.064l-.062-.058c6.42 3.293 15.73 3.28 26.4-.818C63.962 38.87 75.1 30.11 82.868 20.092q-.175.078-.34.162z" fill="#24b8eb"/><path d="M13.276 32.846a21.827 21.827 0 0 0 2.16 6.993l.62 1.135a21 21 0 0 0 1.288 1.93q3.366.217 6.207.153a30.44 30.44 0 0 0 9.056-1.318.656.656 0 0 1 .43 1.24c-.307.105-.626.204-.955.3a29.952 29.952 0 0 1-6.414 1.04c-.086.006-.236.007-.323.012-.986.055-2.04.09-3.128.09a73.05 73.05 0 0 1-3.718-.09c4.548 5.112 11.7 8.19 20.617 8.19 16.15 0 30.2-6.13 38.356-19.675H13.276z" fill="#008bb8"/><path d="M16.9 32.846a16.393 16.393 0 0 0 6.654 10.212 30.44 30.44 0 0 0 9.055-1.318.656.656 0 0 1 .428 1.24c-.306.105-.625.204-.954.3a30.4 30.4 0 0 1-6.46 1.04c6.42 3.294 15.7 3.246 26.374-.853a69.717 69.717 0 0 0 18.242-10.62H16.9z" fill="#039bc6"/></g><g fill-rule="evenodd"><path d="M26.766 19.07h.583v6.15h-.584v-6.15zm-1.118 0h.606v6.15h-.606v-6.15zm-1.12 0h.607v6.15h-.606v-6.15zm-1.118 0h.606v6.15h-.605v-6.15zm-1.118 0h.608v6.15h-.608v-6.15zm-1.1 0h.588v6.15h-.58v-6.15zm-.615-.615h7.38v7.38h-7.375v-7.382zM35.283 10.55h.583v6.152h-.583v-6.15zm-1.118 0h.605v6.152h-.605v-6.15zm-1.12 0h.607v6.152h-.606v-6.15zm-1.118 0h.606v6.152h-.606v-6.15zm-1.118 0h.604v6.152h-.604v-6.15zm-1.1 0h.59v6.152h-.586v-6.15zm-.61-.614h7.382v7.38H29.1v-7.38z" fill="#00acd3"/><path d="M35.283 19.07h.583v6.15h-.583v-6.15zm-1.118 0h.605v6.15h-.605v-6.15zm-1.12 0h.607v6.15h-.606v-6.15zm-1.118 0h.606v6.15h-.606v-6.15zm-1.118 0h.604v6.15h-.604v-6.15zm-1.1 0h.59v6.15h-.586v-6.15zm-.61-.617h7.382v7.38H29.1v-7.38z" fill="#20c2ef"/><path d="M43.8 19.07h.582v6.15H43.8v-6.15zm-1.12 0h.607v6.15h-.606v-6.15zm-1.117 0h.606v6.15h-.607v-6.15zm-1.12 0h.607v6.15h-.605v-6.15zm-1.118 0h.606v6.15h-.604v-6.15zm-1.095 0h.582v6.15h-.58v-6.15zm-.615-.615H45v7.38h-7.384v-7.382z" fill="#00acd3"/><path d="M43.8 10.55h.582v6.152H43.8v-6.15zm-1.12 0h.607v6.152h-.606v-6.15zm-1.117 0h.606v6.152h-.607v-6.15zm-1.12 0h.607v6.152h-.605v-6.15zm-1.118 0h.606v6.152h-.604v-6.15zm-1.095 0h.582v6.152h-.58v-6.15zm-.615-.614H45v7.38h-7.384v-7.38zM52.317 19.07h.583v6.15h-.583v-6.15zm-1.118 0h.6v6.15h-.6v-6.15zm-1.12 0h.606v6.15h-.606v-6.15zm-1.12 0h.607v6.15h-.606v-6.15zm-1.117 0h.606v6.15h-.607v-6.15zm-1.1 0h.582v6.15h-.577v-6.15zm-.615-.615h7.38v7.38h-7.375v-7.382z" fill="#20c2ef"/><path d="M52.317 10.55h.583v6.152h-.583v-6.15zm-1.118 0h.6v6.152h-.6v-6.15zm-1.12 0h.606v6.152h-.606v-6.15zm-1.12 0h.607v6.152h-.606v-6.15zm-1.117 0h.606v6.152h-.607v-6.15zm-1.1 0h.582v6.152h-.577v-6.15zm-.615-.614h7.38v7.38h-7.375v-7.38z" fill="#00acd3"/><path d="M52.317 2.034h.583v6.15h-.583v-6.15zm-1.118 0h.6v6.15h-.6v-6.15zm-1.12 0h.606v6.15h-.606v-6.15zm-1.12 0h.607v6.15h-.606v-6.15zm-1.117 0h.606v6.15h-.607v-6.15zm-1.1 0h.582v6.15h-.577v-6.15zm-.615-.615h7.38V8.8h-7.375V1.42z" fill="#20c2ef"/><path d="M60.833 19.07h.582v6.15h-.582v-6.15zm-1.118 0h.605v6.15h-.605v-6.15zm-1.12 0h.605v6.15h-.6v-6.15zm-1.117 0h.606v6.15h-.606v-6.15zm-1.12 0h.607v6.15h-.605v-6.15zm-1.1 0h.584v6.15h-.578v-6.15zm-.614-.615h7.38v7.38H54.65v-7.382z" fill="#00acd3"/></g><path d="M36.02 37.802a2.036 2.036 0 1 1-2.037 2.036 2.037 2.037 0 0 1 2.036-2.036" fill="#d4edf1" fill-rule="evenodd"/><path d="M36.02 38.38a1.458 1.458 0 0 1 .527.1.595.595 0 1 0 .82.8 1.46 1.46 0 1 1-1.348-.9M0 33.582h94.728c-2.063-.523-6.526-1.23-5.79-3.933-3.75 4.34-12.8 3.044-15.078.9-2.542 3.69-17.34 2.29-18.372-.58-3.187 3.74-13.06 3.74-16.248 0-1.032 2.872-15.83 4.274-18.372.587-2.283 2.14-11.327 3.435-15.077-.9.737 2.7-3.726 3.41-5.79 3.933" fill="#394d54" fill-rule="evenodd"/><path d="M41.432 52.476c-5.043-2.393-7.81-5.646-9.35-9.2A31.233 31.233 0 0 1 25.34 44.3q-1.48.082-3.11.083-1.882 0-3.964-.11c4.625 4.62 10.314 8.18 20.85 8.245q1.164.002 2.316-.042z" fill="#bfdbe0"/><path d="M33.954 46.555a17.664 17.664 0 0 1-1.872-3.277 31.23 31.23 0 0 1-6.743 1.024 21.46 21.46 0 0 0 8.614 2.253z" fill="#d4edf1"/></svg>