<svg data-name="Layer 1" xmlns="http://www.w3.org/2000/svg" viewBox="0 0 114.656 49.296"><title>logo-circleci</title><circle cx="21.857" cy="25.352" r="5.336" fill="#343434"/><path d="M21.857 2.852A22.565 22.565 0 0 0 .07 19.7c0 .064-.065.193-.065.257a1.084 1.084 0 0 0 1.093 1.093h9.064a1.053 1.053 0 0 0 .964-.643v-.07a11.764 11.764 0 1 1 0 9.9v-.063a1.053 1.053 0 0 0-.964-.643h-9.07A1.084 1.084 0 0 0 0 30.625a.387.387 0 0 0 .064.257A22.492 22.492 0 1 0 21.857 2.853z" fill="#343434"/><path d="M113.62 17.416a10.452 10.452 0 0 0-.104-.854 10.223 10.223 0 0 0-1.48-1.012 19.61 19.61 0 0 0-1.778-.91 38.325 38.325 0 0 0-1.854-.8q-.468-.19-.944-.367c-.315-.124-.634-.237-.953-.354.67.11 1.334.262 1.99.43.43.112.855.236 1.278.368a19.054 19.054 0 0 0-36.125 0c.424-.132.85-.256 1.276-.367.66-.168 1.323-.32 1.993-.43-.322.115-.64.23-.956.353s-.63.24-.944.367c-.626.252-1.246.51-1.854.8a19.734 19.734 0 0 0-1.778.91 10.354 10.354 0 0 0-1.48 1.012c-.018.114-.038.236-.052.354a13.05 13.05 0 0 0-.096 1.51 14.737 14.737 0 0 0 .125 2.014 14.535 14.535 0 0 0 .4 1.976c.09.322.19.64.308.946.06.154.124.3.19.45l.1.216.042.08.15.076.3.143c.168.076.4.185.59.27a.252.252 0 0 0 .03-.027l-.557-2.115c.118-.033 1.172-.3 2.99-.65-.147-.028-.296-.06-.44-.094a9.046 9.046 0 0 1-1.22-.388 5.494 5.494 0 0 1-.573-.277 1.96 1.96 0 0 1-.506-.385c2 .65 6.122.356 9.79-.023a100.32 100.32 0 0 1 10.1-.576 100.265 100.265 0 0 1 10.1.577c3.67.38 7.8.674 9.79.023a1.937 1.937 0 0 1-.505.385 5.7 5.7 0 0 1-.573.277 9.045 9.045 0 0 1-1.218.39l-.184.04c1.993.37 3.153.67 3.278.7l-.53 2.015c.106-.048.214-.094.32-.143l.3-.143.15-.074.042-.08c.036-.07.072-.143.1-.216a8.946 8.946 0 0 0 .5-1.397 14.5 14.5 0 0 0 .4-1.976 14.738 14.738 0 0 0 .124-2.015c-.012-.334-.024-.67-.053-1.006z" fill="#eaeaea"/><path d="M93.978 45.39c-.264.04-.53.075-.792.094-.17.01-.35.025-.51.025h-.062c.2-.457.36-.81.477-1.08.24.27.545.603.888.96zM94.553 45.976a4.64 4.64 0 0 0 2.958 1.362 16.335 16.335 0 0 1-5.018 1.15 12.372 12.372 0 0 1-4.093-.44c.113-.02.2-.034.3-.046a5.63 5.63 0 0 0 3.63-1.955h.368c.182 0 .347-.015.52-.022a10.815 10.815 0 0 0 1.212-.174c.04.043.08.084.123.126z" fill="#f4f4f4"/><path d="M96.88 21.637c-.08.1-.167.216-.26.334a21.566 21.566 0 0 1-1.937 2.145q-1.378-.042-2.833-.044c-1.606 0-3.144.043-4.606.115a36.66 36.66 0 0 1 7.233-2.2 28.527 28.527 0 0 1 2.403-.348zM84.792 22.562a18.418 18.418 0 0 0-2.377 1.98c-2.067.208-3.87.458-5.36.7a40.618 40.618 0 0 1 7.737-2.68zM110.054 26.83l-.84 5.884-4.03 2.82-10.506-1.193-1.582-5.207a.345.345 0 0 0-.275-.242 5.522 5.522 0 0 0-2.042 0 .348.348 0 0 0-.275.243l-1.543 5.082-10.45 2.325-4.14-2.9-.815-6.6q.267-.15.54-.3.385-.083.865-.174l.77 6.23a.35.35 0 0 0 .144.24l2.85 2a.35.35 0 0 0 .2.062.308.308 0 0 0 .075-.01l8.59-1.91a.4.4 0 0 0 .085-.03.34.34 0 0 0 .17-.206l1.546-5.094a8.358 8.358 0 0 1 4.824 0l1.547 5.094a.346.346 0 0 0 .294.243l8.59.976a.345.345 0 0 0 .236-.06l2.85-1.995a.347.347 0 0 0 .142-.235l.76-5.323c.57.102 1.047.202 1.422.283zM111.116 23.14l-.74 2.805a80.8 80.8 0 0 0-9.357-1.428 22.834 22.834 0 0 0 4.356-2.408c2.693.38 4.666.79 5.74 1.03z" fill="#939393"/><path d="M80.82 31.917a4.767 4.767 0 0 1 2.285-.268h.346l.314-.006c1.067-.01 1.956.09 1.94-1.585s-.762-3.033-1.83-3.022-2.1 1.383-2.036 3.058a2.66 2.66 0 0 0 .184.978 1.684 1.684 0 0 0-1.2.843zm12.837-6.9a11.576 11.576 0 0 1-1.3.922l-1.515.913a13.092 13.092 0 0 0-1.82.364.3.3 0 0 0-.08.035.348.348 0 0 0-.156.2l-1.543 5.084-8.247 1.834-2.6-1.82-.755-6.12a84.24 84.24 0 0 1 5.818-.85c-.254.3-.5.623-.735.958l-1.41 2.025 2.056-1.363a33.546 33.546 0 0 1 3.477-1.93 93.76 93.76 0 0 1 7-.262c.615-.008 1.222.004 1.81.014zM102.687 31.23a1.023 1.023 0 0 0-1.228-.6 2.1 2.1 0 0 0 .128-1.047c-.13-1.673-1.1-3-2.17-2.964s-1.75 1.423-1.69 3.1.954 1.662 2.02 1.625c1.433-.022 2.22-.462 2.94-.115zm5.264-4.817l-.743 5.205-2.62 1.833-8.235-.935-1.536-5.06a.35.35 0 0 0-.235-.232 12.69 12.69 0 0 0-2.15-.4l.2-.013a32.668 32.668 0 0 0 6.4-1.53 87.874 87.874 0 0 1 8.92 1.133z" fill="#e5cba4"/><path d="M80.82 31.917a4.767 4.767 0 0 1 2.285-.268h.346l.314-.006c1.067-.01 1.956.09 1.94-1.585s-.762-3.033-1.83-3.022-2.1 1.383-2.036 3.058a2.66 2.66 0 0 0 .184.978 1.684 1.684 0 0 0-1.2.843zm12.837-6.9a11.576 11.576 0 0 1-1.3.922l-1.515.913a13.092 13.092 0 0 0-1.82.364.3.3 0 0 0-.08.035.348.348 0 0 0-.156.2l-1.543 5.084-8.247 1.834-2.6-1.82-.755-6.12a84.24 84.24 0 0 1 5.818-.85c-.254.3-.5.623-.735.958l-1.41 2.025 2.056-1.363a33.546 33.546 0 0 1 3.477-1.93 93.76 93.76 0 0 1 7-.262c.615-.008 1.222.004 1.81.014zM102.687 31.23a1.023 1.023 0 0 0-1.228-.6 2.1 2.1 0 0 0 .128-1.047c-.13-1.673-1.1-3-2.17-2.964s-1.75 1.423-1.69 3.1.954 1.662 2.02 1.625c1.433-.022 2.22-.462 2.94-.115zm5.264-4.817l-.743 5.205-2.62 1.833-8.235-.935-1.536-5.06a.35.35 0 0 0-.235-.232 12.69 12.69 0 0 0-2.15-.4l.2-.013a32.668 32.668 0 0 0 6.4-1.53 87.874 87.874 0 0 1 8.92 1.133zM75.13 35.016c.05.174.1.35.155.522a6.36 6.36 0 0 1-2.1.22 14.98 14.98 0 0 1-1.328-4.716c-.135-1.21-.04-1.472.082-1.574a10.79 10.79 0 0 1 1.14-.673l.626 5.082a.34.34 0 0 0 .145.24z" fill="#f4f4f4"/><path d="M95.11 35.086l-.037.324a5.794 5.794 0 0 1-2.97 1.292 4.816 4.816 0 0 1-3.274-.89 1.966 1.966 0 0 0 .56 1.014 13.194 13.194 0 0 0-1.57-.1c-.2 0-.4.005-.6.015-1.128.06-2.714 1.765-3.83 3.483-.547.173-2.26.716-4.24 1.3a22.52 22.52 0 0 1-2.85-5.45 7.227 7.227 0 0 1-.11-.315l.477.333 1.175.823.392.274a.344.344 0 0 0 .2.063.45.45 0 0 0 .076-.008l10.794-2.4a.343.343 0 0 0 .255-.236l1.54-5.066a4.542 4.542 0 0 1 1.4 0l1.583 5.218a.343.343 0 0 0 .29.243z" fill="#f4f4f4"/><path d="M107.43 34.807l.35-.245c-.057.242-.12.482-.185.72a24.9 24.9 0 0 1-1.69 4.138c-.142.01-.29.015-.448.015-.49 0-.99-.04-1.544-.092-.96-.088-2.487-.263-2.97-.32-.414-.33-1.834-1.458-3.015-2.388l-.126-.1a1.278 1.278 0 0 0-.923-.376 10.923 10.923 0 0 0-2.608.622 1.863 1.863 0 0 0 .8-1.366l.038-.324 10.125 1.15a.35.35 0 0 0 .237-.06l1.017-.712z" fill="#f4f4f4"/><path d="M99.98 13.5a14.286 14.286 0 0 1-.412 4.062.33.33 0 0 0 0 .174c-.534-.056-1.067-.1-1.6-.147a8.74 8.74 0 0 0 .758-3.065A14.394 14.394 0 0 0 99.98 13.5zM84.7 14.528a8.715 8.715 0 0 0 .758 3.06q-.8.064-1.6.15a.332.332 0 0 0 0-.173 14.34 14.34 0 0 1-.41-4.065 13.9 13.9 0 0 0 1.253 1.028z" fill="#bcbcbc"/><path d="M102.687 31.23c-.718-.347-1.506.093-2.94.12-1.066.038-1.962.05-2.02-1.626s.623-3.063 1.69-3.1 2.04 1.293 2.17 2.964a2.122 2.122 0 0 1-.13 1.047 1.023 1.023 0 0 1 1.23.595zm-3.35-2.454a.546.546 0 1 0-.557-.536.547.547 0 0 0 .556.536z" fill="#464646"/><circle cx="123.054" cy="32.726" r=".545" transform="rotate(-1.05 -134.662 1326.585)" fill="#eef7fa"/><path d="M85.702 30.057c.015 1.676-.872 1.575-1.94 1.585-.107 0-.21 0-.312.005h-.346a4.794 4.794 0 0 0-2.284.268 1.687 1.687 0 0 1 1.2-.845 2.66 2.66 0 0 1-.184-.978c-.064-1.675.97-3.05 2.037-3.058s1.813 1.346 1.83 3.023zm-1.648-.877a.545.545 0 1 0-.56-.53.545.545 0 0 0 .56.53z" fill="#464646"/><circle cx="107.772" cy="33.137" r=".545" transform="rotate(-1.473 -79.173 953.9)" fill="#eef7fa"/><path d="M77.553 18.675a14.89 14.89 0 0 1 .5-2.987c.174-.427 1.242-.7 2.056-.893s2.113-.582 2.365.562a6.734 6.734 0 0 0 .93 2.347l-.348-4.714-5.607 1.358-.368 4.17.174.33.29-.173M105.923 18.675a14.945 14.945 0 0 0-.5-2.987c-.174-.427-1.242-.7-2.056-.893s-2.115-.582-2.367.562a6.71 6.71 0 0 1-.932 2.347l.35-4.714 5.607 1.358.368 4.17-.174.33-.292-.173M97.998 4.567s-.148 11.3-2.79 11.3h-6.864c-2.64 0-2.854-11.3-2.854-11.3l-1.3 3.837.02 5.264.922.732.418 2.26.586 1.32 11.3.02.523-.942.44-1.59.062-1 1.248-3.565z" fill="#bcbcbc"/><path d="M106.314 15.108s.544 3.9 1.982 4.6l-2.013-.608zM77.11 15.108s-.544 3.9-1.982 4.6l2.014-.608z" fill="#bcbcbc"/><path d="M106.7 19.085a10.182 10.182 0 0 1 2 .827 7.922 7.922 0 0 0-1.03-.312 18.165 18.165 0 0 0-1.044-.23c-.7-.132-1.4-.244-2.112-.33s-1.413-.168-2.124-.23-1.418-.12-2.13-.16c-2.844-.174-5.7-.22-8.55-.222s-5.707.055-8.552.223c-.71.042-1.42.1-2.13.162s-1.42.137-2.124.23-1.41.2-2.112.33c-.35.065-.7.14-1.046.228a7.974 7.974 0 0 0-1.025.312 10.206 10.206 0 0 1 2-.828l.175-.053c0-.014-.008-.027-.01-.043a16.683 16.683 0 0 1 .176-4.633.335.335 0 0 1 .24-.268l.725-.207c.157-5.623 2.473-8.267 2.545-8.35a15.445 15.445 0 0 0-2.014 8.2l4.505-1.28h.012a.335.335 0 0 1 .056-.008h.018a.29.29 0 0 1 .074.007h.013a.413.413 0 0 1 .055.017.215.215 0 0 0 .022.012c.014.008.03.016.044.027a.048.048 0 0 1 .012.01l.008.007.013.01s.122.123.313.3a18.6 18.6 0 0 1 2.053-9.27 26.07 26.07 0 0 0-1.1 10.1c.18.143.37.285.554.41a.335.335 0 0 1 .145.27 8.106 8.106 0 0 0 .782 3.128.41.41 0 0 1 .025.066c1.845-.126 3.7-.177 5.543-.178s3.7.054 5.543.182a.35.35 0 0 1 .027-.07 8.064 8.064 0 0 0 .78-3.128.338.338 0 0 1 .148-.27c.185-.126.372-.266.554-.41a26.032 26.032 0 0 0-1.1-10.1 18.628 18.628 0 0 1 2.053 9.27c.19-.177.31-.3.313-.3a.138.138 0 0 0 .013-.01l.01-.008.026-.016.043-.03a.127.127 0 0 0 .02-.01.337.337 0 0 1 .06-.02h.012a.283.283 0 0 1 .064-.004h.016a.52.52 0 0 1 .057.008h.01l4.506 1.28a15.44 15.44 0 0 0-2.015-8.2c.072.082 2.388 2.727 2.544 8.35l.725.206a.336.336 0 0 1 .24.268 16.7 16.7 0 0 1 .175 4.633.31.31 0 0 1-.01.047l.18.058zm-.818-.24a16.564 16.564 0 0 0-.147-4.176l-5.1-1.45a15.084 15.084 0 0 1-.424 4.522.39.39 0 0 1-.024.064l.15.016a42.53 42.53 0 0 1 4.272.7c.426.103.852.208 1.273.323zm-6.313-1.28a14.32 14.32 0 0 0 .41-4.065 14.076 14.076 0 0 1-1.255 1.025 8.74 8.74 0 0 1-.758 3.064c.534.042 1.068.09 1.6.146a.33.33 0 0 1 .002-.172zm-14.11.024a8.74 8.74 0 0 1-.757-3.062 13.922 13.922 0 0 1-1.257-1.028 14.38 14.38 0 0 0 .41 4.062.332.332 0 0 1 0 .172q.8-.08 1.603-.145zm-2.22.214a.348.348 0 0 1-.024-.062 15.137 15.137 0 0 1-.426-4.523l-5.1 1.45a16.64 16.64 0 0 0-.148 4.173c.424-.115.847-.22 1.275-.32.7-.155 1.415-.286 2.126-.406s1.428-.21 2.143-.3z" fill="#464646"/><path fill="#464646" d="M97.087 4.714v4.23h-3V7.71h-.675v5.71h1.02v3.192h-5.245V13.42h1.016V7.71h-.672v1.234h-2.996v-4.23h10.553z" data-name="&amp;lt;Group&amp;gt;"/><path d="M76.705 21.513s-7.736 5.443-8.036 7.516l.58-.12s9.26-6.138 16.6-6.886l.166-.932zM88.843 20.735l-6.09 4.32.328.264c.25-.2 10.82-3.43 10.82-3.43l2.23-1.4c-1.495.19-7.287.245-7.287.245zM94.137 25.96c4.325 0 10.808-4.234 10.808-4.234l-2.1-.4c-.1.1-3.38-.115-3.38-.115l-1.554-.43-3.714 4.232-.3.735c.273-.11.24.214.24.214zM108.25 39.47l-1.335.375-6.174-.133-3.86-3-4.67 1.168-5.4-.467-3.022 3.3-5.673 1.695-2.832-.88a9.85 9.85 0 0 0-.143-.12l1.27 3.112s2.88 3.087 4.49 3.45 4.513-.026 6.692-.364 3.917-1.116 4.618-2.386a10.683 10.683 0 0 0 .8-1.635s2.076 2.932 3.866 3.27 7.108-1.48 7.108-1.48 3.243-.882 3.814-2 2.076-4.774 2.076-4.774zm-32.37 2.535l-.09-.04-.5-.432zm16.764.58l-.04-.037c.048-.052.1-.105.145-.157l.228.17-.04.054.025.03-.236-.18z" fill="#696a6a"/><path d="M72.584 23.14c.437-.1 1.028-.225 1.752-.365-.445.3-.972.685-1.546 1.142z" fill="#939393"/><path d="M88.59 34.735a1.1 1.1 0 0 1-.977 1.123c-1.1.337-8.072 2.414-8.867 2.3a12.177 12.177 0 0 1-2.814-1.458l-.49-1.74 2.986 1.86zM94.836 34.582a1.1 1.1 0 0 0 1.026 1.08c1.114.288 8.17 2.06 8.958 1.915A12.246 12.246 0 0 0 107.57 36l.412-1.76-2.745 1.636z" fill="#c3c3c3"/><path d="M72.017 33.288s.965 1.932 2.527 1.263l1.115.41-.113.817-2.34.3-.632-.377z" fill="#c3c3c3"/><path d="M108.328 34.223c-.054.19-.11.816-.168 1a8.1 8.1 0 0 0 2.514.038c.44-.44 1.258-3.486 1.438-5.1a2.338 2.338 0 0 0-.326-1.94 11.67 11.67 0 0 0-1.235-.728l-.806 5.37a.37.37 0 0 1-.157.26z" fill="#f4f4f4"/><path d="M111.697 32.353s-1.046 2.09-2.734 1.367l-1.206.442.12.885 2.533.322.684-.4zM87.142 47.936a13.18 13.18 0 0 0 12.2-1.04l-2.08-.143s-4.542 1.8-8.136.8z" fill="#c3c3c3"/><path fill="#696a6a" d="M96.184 8.046V5.613H87.43v2.433h1.196V6.81h2.476v7.51h-1.02v1.394h3.447V14.32h-1.02V6.81h2.478v1.236h1.196z"/><path d="M92.944 42.62l.4.472c.01.012.888 1.06 1.964 2.125a3.54 3.54 0 0 0 2.57 1.068 4.5 4.5 0 0 0 1.052-.13l1.065-.256c1.338-.32 2.853-.684 3.587-.89.145-.04.308-.077.478-.116a3.96 3.96 0 0 0 3.028-1.96 213.05 213.05 0 0 1 1.79-3.47 30.3 30.3 0 0 0-1.294.627 4.554 4.554 0 0 1-2.127.415c-.535 0-1.06-.046-1.642-.1a158.023 158.023 0 0 1-3.148-.34l-.15-.017-.12-.1c-.017-.013-1.74-1.386-3.132-2.48l-.154-.128a.275.275 0 0 0-.233-.125A31.436 31.436 0 0 0 92.29 38.5l-.175.054-.172-.054a13.19 13.19 0 0 0-4.12-.7c-.184 0-.366 0-.544.014-.225.012-1.48.608-3.09 3.15l-.1.165-.183.06c-.027.008-2.792.9-5.726 1.74l-.19.054-.18-.083c-.02-.007-1.167-.54-2.26-1.04.6.88 1.36 1.976 2.028 2.838a6.42 6.42 0 0 0 5.475 2.9 9.878 9.878 0 0 0 1.12-.066c2.877-.325 3.618-.456 4.017-.527.135-.023.242-.042.378-.06.022 0 2.378-.308 3.04-1.79.68-1.525.818-1.888.824-1.9l.24-.642-.064-.06c.048-.052.1-.106.144-.158.076.054.152.112.228.17zM75.02 13.844c-.624.252-1.245.51-1.853.8s-1.207.576-1.778.91a10.272 10.272 0 0 0-1.48 1.012c-.02.113-.038.236-.053.353-.02.165-.04.33-.052.5-.03.334-.04.67-.044 1.008a14.912 14.912 0 0 0 .126 2.015 14.535 14.535 0 0 0 .4 1.976c.09.32.19.638.31.944.056.155.12.306.19.452l.1.215.04.082c.05.026.1.05.152.075l.3.143.588.272a.258.258 0 0 0 .03-.028l-.555-2.115c.118-.034 1.173-.3 2.99-.652-.146-.027-.3-.06-.44-.094a9.183 9.183 0 0 1-1.218-.388 5.61 5.61 0 0 1-.574-.278 1.955 1.955 0 0 1-.506-.385c2 .652 6.122.356 9.79-.022a100.64 100.64 0 0 1 10.1-.577 100.6 100.6 0 0 1 10.1.578c3.67.38 7.8.675 9.793.023a1.973 1.973 0 0 1-.5.385 5.85 5.85 0 0 1-.574.278 9.09 9.09 0 0 1-1.217.388l-.184.04c1.992.37 3.152.672 3.275.7l-.53 2.015c.106-.05.214-.094.32-.144l.3-.143.15-.075.04-.08c.037-.07.07-.143.1-.216.068-.147.132-.3.192-.452.117-.306.22-.624.307-.945a14.307 14.307 0 0 0 .4-1.976 14.738 14.738 0 0 0 .125-2.016 12.12 12.12 0 0 0-.097-1.51 7.47 7.47 0 0 0-.053-.352 10.24 10.24 0 0 0-1.48-1.013 19.884 19.884 0 0 0-1.78-.91 37.77 37.77 0 0 0-1.853-.8q-.47-.19-.945-.367c-.315-.122-.634-.237-.953-.353a25.514 25.514 0 0 1 3.268.8 19.052 19.052 0 0 0-36.124 0c.423-.132.848-.257 1.276-.368a23.5 23.5 0 0 1 1.993-.432c-.32.116-.638.232-.955.353s-.644.244-.957.37zM114.64 18.4a13.445 13.445 0 0 1-.064 2.17 13.868 13.868 0 0 1-.4 2.14 11 11 0 0 1-.35 1.042q-.1.258-.22.515a4.39 4.39 0 0 1-.13.255l-.07.127c-.026.046-.047.08-.087.142l-.073.114-.115.06c-.123.062-.223.11-.335.162l-.323.145q-.325.138-.65.264c-.153.06-.287.114-.414.168l-.36 1.363c-.008 0-.116-.03-.318-.078l-.02.143a12.11 12.11 0 0 1 1.44.845c.534.44.57 1.14.453 2.445a23.21 23.21 0 0 1-.592 3.172c-.532 2.062-.815 2.3-1.18 2.4a3.2 3.2 0 0 1-.748.1 8.985 8.985 0 0 1-1.846-.11 19.738 19.738 0 0 1-1.26 3.222l.11-.05c.922-.486 2.7-1.26 2.773-1.293l1.4-.61-.72 1.35c-.015.03-1.556 2.926-2.5 4.817a4.98 4.98 0 0 1-3.742 2.523c-.158.038-.31.073-.43.105-.754.212-2.28.576-3.628.9a.393.393 0 0 1-.05.01 15.91 15.91 0 0 1-2.72 1.346 15.467 15.467 0 0 1-10.896.023c-.562.073-1.3.16-2.284.273a11.216 11.216 0 0 1-1.238.073 7.474 7.474 0 0 1-6.318-3.312C75.37 43.607 73.7 41 73.63 40.893l-.97-1.51 1.636.736c.783.352 3.112 1.43 3.778 1.74.054-.016.107-.03.16-.048a20.05 20.05 0 0 1-2.66-5.376 7.956 7.956 0 0 1-2.038.29 2.87 2.87 0 0 1-.618-.055c-.365-.084-.782-.437-1.35-2.435a21.95 21.95 0 0 1-.647-3.078c-.14-1.272-.115-1.955.414-2.395a14.364 14.364 0 0 1 1.617-.947l-.048-.393a40.138 40.138 0 0 0-5.506 3.82l-2.443 2.143 1.74-2.746a26.7 26.7 0 0 1 4.435-5.29c-.06-.024-.117-.05-.177-.073l-.322-.145c-.11-.052-.21-.1-.333-.163l-.11-.07-.075-.114c-.04-.062-.06-.1-.087-.143l-.073-.127a7.67 7.67 0 0 1-.35-.77c-.135-.344-.25-.69-.35-1.042a13.594 13.594 0 0 1-.4-2.14 13.445 13.445 0 0 1-.063-2.17q.03-.542.1-1.08a8.547 8.547 0 0 1 .218-1.092l.04-.14.1-.08a9.625 9.625 0 0 1 1.81-1.085c.515-.242 1.04-.455 1.568-.65A22.38 22.38 0 0 1 79.98 4a19.2 19.2 0 0 1 23.465 0 22.373 22.373 0 0 1 7.353 10.265c.53.2 1.053.407 1.57.65a9.617 9.617 0 0 1 1.81 1.087l.1.08.038.14c.056.2.092.368.13.55s.064.36.088.54c.05.36.087.722.104 1.088zm-2.98 11.935c.113-1.256.013-1.526-.114-1.628a9.16 9.16 0 0 0-.977-.58l-.69 4.838a.346.346 0 0 1-.144.234l-.988.69c-.078.4-.106.583-.2.97a6.076 6.076 0 0 0 1.932.147 14.5 14.5 0 0 0 1.18-4.676zm-1.283-4.385l.74-2.805a71.894 71.894 0 0 0-5.74-1.03 22.8 22.8 0 0 1-4.356 2.41 80.643 80.643 0 0 1 9.356 1.42zm-1.164 6.768l.842-5.883c-.374-.08-.853-.18-1.424-.29l-.76 5.318a.35.35 0 0 1-.142.234l-2.85 1.994a.348.348 0 0 1-.236.062l-8.59-.976a.345.345 0 0 1-.294-.242L94.21 27.84a8.355 8.355 0 0 0-4.823 0l-1.547 5.094a.346.346 0 0 1-.17.2.366.366 0 0 1-.085.03l-8.59 1.912a.37.37 0 0 1-.077.01.343.343 0 0 1-.2-.063l-2.85-1.99a.346.346 0 0 1-.144-.24l-.768-6.23c-.32.06-.607.12-.865.173l-.54.3.815 6.6 4.14 2.9 10.45-2.324 1.542-5.082a.345.345 0 0 1 .275-.243 5.516 5.516 0 0 1 2.042 0 .343.343 0 0 1 .275.243l1.58 5.207 10.508 1.2zm-2.005-1.1l.743-5.205a87.858 87.858 0 0 0-8.92-1.13 32.557 32.557 0 0 1-6.4 1.53l-.2.013a12.623 12.623 0 0 1 2.152.4.35.35 0 0 1 .235.232l1.537 5.06 8.235.936zm.573 2.943l-.35.245-.938.66-1.017.712a.355.355 0 0 1-.237.06l-10.125-1.15-.736-.084a.345.345 0 0 1-.29-.243l-1.586-5.218a4.535 4.535 0 0 0-1.4 0l-1.54 5.068a.344.344 0 0 1-.254.235l-10.794 2.4a.367.367 0 0 1-.076.008.342.342 0 0 1-.2-.063l-.392-.273-1.173-.817-.476-.332c.034.107.072.21.11.315a22.477 22.477 0 0 0 2.85 5.45c1.98-.585 3.692-1.128 4.238-1.3 1.115-1.72 2.7-3.425 3.83-3.483.195-.01.4-.015.6-.015a13.437 13.437 0 0 1 1.57.1 1.958 1.958 0 0 1-.56-1.015 4.82 4.82 0 0 0 3.27.89 5.8 5.8 0 0 0 2.973-1.293 1.868 1.868 0 0 1-.8 1.367 10.95 10.95 0 0 1 2.607-.624 1.27 1.27 0 0 1 .923.377l.126.1c1.182.93 2.6 2.06 3.017 2.39.48.055 2.007.23 2.968.318.555.05 1.055.092 1.545.092.158 0 .307-.007.446-.015a24.83 24.83 0 0 0 1.69-4.138c.063-.24.126-.484.184-.723zm-3.736-12.82h-.008q-1.22-.09-2.442-.16a225.538 225.538 0 0 0-3.4-.166c-.066.1-.2.29-.39.553a21.53 21.53 0 0 1-3.406 3.66 24.435 24.435 0 0 0 9.394-3.7c.09-.067.17-.127.254-.186zm-7.424.23c.093-.116.18-.23.26-.332-.816.082-1.62.2-2.4.35a36.64 36.64 0 0 0-7.234 2.2c1.463-.07 3-.113 4.607-.113.972 0 1.917.016 2.834.043a21.446 21.446 0 0 0 1.936-2.148zm.89 25.37a4.632 4.632 0 0 1-2.957-1.362l-.124-.127a10.814 10.814 0 0 1-1.212.175c-.173.007-.338.022-.52.022h-.37a5.635 5.635 0 0 1-3.63 1.956c-.1.012-.18.026-.3.047a12.372 12.372 0 0 0 4.094.44 16.36 16.36 0 0 0 5.022-1.152zm-4.322-1.855c.262-.02.527-.054.79-.094a33.88 33.88 0 0 1-.885-.958c-.116.27-.27.623-.476 1.078h.06c.164 0 .343-.018.513-.025zm-.834-19.54a11.86 11.86 0 0 0 1.3-.922 91.992 91.992 0 0 0-8.808.245A33.3 33.3 0 0 0 81.37 27.2l-2.055 1.37 1.41-2.024c.234-.336.48-.656.736-.96-2.37.265-4.342.58-5.816.852l.755 6.12 2.6 1.82 8.246-1.833 1.544-5.085a.35.35 0 0 1 .156-.2.28.28 0 0 1 .078-.035 13.17 13.17 0 0 1 1.822-.364zm.95-4.67q-.862-.012-1.724-.014-1.263 0-2.532.028l-1.558.738-.022.012a18.3 18.3 0 0 0-4.2 2.987 42.994 42.994 0 0 1 7.244-3.01c.89-.274 1.827-.527 2.792-.74zm-10.89 3.267a18.46 18.46 0 0 1 2.378-1.98 40.558 40.558 0 0 0-7.735 2.678c1.49-.24 3.292-.49 5.36-.698zm.537-2.47c.95-.268 1.93-.5 2.934-.696q-2.162.08-4.322.2-1.255.07-2.5.166c-.417.033-.83.065-1.244.11-.118.013-.234.025-.352.04a34.88 34.88 0 0 0-8.11 6.683A46.323 46.323 0 0 1 82.95 22.07zm-7.666 13.465a18.416 18.416 0 0 1-.154-.522l-1.283-.9a.345.345 0 0 1-.145-.24l-.626-5.075a10.675 10.675 0 0 0-1.14.673c-.125.1-.22.363-.084 1.573a14.965 14.965 0 0 0 1.33 4.716 6.33 6.33 0 0 0 2.102-.225zm-.948-12.763a59.69 59.69 0 0 0-1.752.365l.206.776c.58-.457 1.1-.838 1.546-1.142z" fill="#464646"/></svg>