<svg id="Layer_1" data-name="Layer 1" xmlns="http://www.w3.org/2000/svg" viewBox="0 0 100 100"><title>logo-slack</title><path d="M61.137,17.118A6.681,6.681,0,1,0,48.43,21.247L65.705,74.4a6.682,6.682,0,0,0,12.7-4.127L61.137,17.118" style="fill:#dfa22f"/><path d="M34.37,25.815a6.681,6.681,0,1,0-12.708,4.129L38.937,83.1a6.682,6.682,0,0,0,12.7-4.128L34.37,25.815" style="fill:#3cb187"/><path d="M82.882,61.138A6.681,6.681,0,0,0,78.753,48.43L25.6,65.706a6.682,6.682,0,0,0,4.127,12.7l53.153-17.27" style="fill:#ce1e5b"/><path d="M36.68,76.15l12.7-4.128-4.128-12.7-12.7,4.129,4.129,12.7" style="fill:#392538"/><path d="M63.448,67.452l12.7-4.128L72.023,50.617l-12.7,4.129,4.129,12.705" style="fill:#bb242a"/><path d="M74.185,34.37a6.681,6.681,0,1,0-4.129-12.708L16.9,38.938a6.682,6.682,0,0,0,4.128,12.7L74.185,34.37" style="fill:#72c5cd"/><path d="M27.98,49.383l12.705-4.128c-1.56-4.8-3.011-9.267-4.128-12.7L23.851,36.68l4.129,12.7" style="fill:#248c73"/><path d="M54.747,40.685l12.706-4.129L63.325,23.849l-12.707,4.13,4.129,12.706" style="fill:#62803a"/><rect width="100" height="100" style="fill:none"/></svg>