<svg id="Layer_1" data-name="Layer 1" xmlns="http://www.w3.org/2000/svg" viewBox="0 0 114.656 49.296"><title>logo-circleci</title><circle cx="21.857" cy="25.352" r="5.336" style="fill:#343434"/><path d="M45.588,7.352A22.565,22.565,0,0,0,23.8,24.2c0,0.064-.064.193-0.064,0.257a1.084,1.084,0,0,0,1.093,1.093h9.064a1.053,1.053,0,0,0,.964-0.643V24.838a11.764,11.764,0,1,1,0,9.9V34.674a1.053,1.053,0,0,0-.964-0.643H24.824a1.084,1.084,0,0,0-1.093,1.093,0.387,0.387,0,0,0,.064.257A22.492,22.492,0,1,0,45.588,7.352Z" transform="translate(-23.731 -4.5)" style="fill:#343434"/><path d="M137.352,21.916c-0.013-.167-0.031-0.334-0.052-0.5-0.014-.117-0.034-0.241-0.053-0.354a10.223,10.223,0,0,0-1.479-1.012,19.611,19.611,0,0,0-1.779-.91c-0.606-.286-1.228-0.544-1.854-0.8q-0.468-.19-0.944-0.367c-0.315-.124-0.634-0.237-0.953-0.354,0.671,0.112,1.334.263,1.991,0.432,0.428,0.111.854,0.235,1.277,0.367a19.054,19.054,0,0,0-36.125,0c0.424-.132.849-0.256,1.276-0.367,0.659-.169,1.323-0.322,1.993-0.432-0.321.116-.638,0.231-0.955,0.354s-0.631.241-.944,0.367c-0.626.252-1.246,0.511-1.854,0.8a19.734,19.734,0,0,0-1.778.91,10.354,10.354,0,0,0-1.48,1.012c-0.018.114-.038,0.236-0.052,0.354-0.021.166-.039,0.333-0.052,0.5-0.029.335-.041,0.672-0.044,1.009a14.737,14.737,0,0,0,.125,2.015,14.535,14.535,0,0,0,.4,1.976c0.09,0.322.191,0.639,0.308,0.946,0.059,0.154.124,0.3,0.19,0.451,0.034,0.073.068,0.145,0.1,0.215l0.042,0.081,0.151,0.075,0.3,0.143c0.167,0.076.4,0.185,0.588,0.271a0.252,0.252,0,0,0,.03-0.028l-0.556-2.115c0.118-.033,1.172-0.3,2.989-0.65-0.146-.028-0.295-0.06-0.44-0.094a9.046,9.046,0,0,1-1.218-.389,5.494,5.494,0,0,1-.574-0.277,1.96,1.96,0,0,1-.506-0.385c2,0.651,6.123.356,9.79-.023a100.32,100.32,0,0,1,10.1-.576,100.265,100.265,0,0,1,10.1.576c3.67,0.379,7.8.674,9.792,0.023a1.937,1.937,0,0,1-.506.385,5.7,5.7,0,0,1-.573.277,9.045,9.045,0,0,1-1.218.389c-0.062.015-.124,0.028-0.184,0.041,1.993,0.369,3.153.671,3.278,0.7l-0.531,2.015c0.107-.048.215-0.094,0.321-0.143l0.3-.143,0.151-.075,0.041-.081c0.036-.069.072-0.142,0.1-0.215,0.067-.147.131-0.3,0.19-0.451,0.117-.307.219-0.624,0.309-0.946a14.5,14.5,0,0,0,.4-1.976,14.738,14.738,0,0,0,.125-2.015C137.393,22.588,137.381,22.251,137.352,21.916Z" transform="translate(-23.731 -4.5)" style="fill:#eaeaea"/><path d="M117.709,49.891c-0.264.04-.529,0.074-0.792,0.093-0.169.009-.349,0.025-0.511,0.025h-0.061c0.2-.456.36-0.81,0.477-1.078C117.061,49.2,117.366,49.533,117.709,49.891Z" transform="translate(-23.731 -4.5)" style="fill:#f4f4f4"/><path d="M118.284,50.476a4.639,4.639,0,0,0,2.958,1.362,16.335,16.335,0,0,1-5.019,1.151,12.372,12.372,0,0,1-4.093-.44c0.114-.021.2-0.035,0.3-0.047a5.629,5.629,0,0,0,3.63-1.955l0.1,0,0.269,0c0.182,0,.347-0.015.52-0.022a10.815,10.815,0,0,0,1.212-.174C118.2,50.393,118.241,50.434,118.284,50.476Z" transform="translate(-23.731 -4.5)" style="fill:#f4f4f4"/><path d="M120.611,26.137c-0.079.1-.167,0.216-0.26,0.334a21.566,21.566,0,0,1-1.937,2.144q-1.378-.042-2.833-0.044c-1.606,0-3.144.042-4.606,0.114a36.661,36.661,0,0,1,7.233-2.2C118.992,26.338,119.795,26.219,120.611,26.137Z" transform="translate(-23.731 -4.5)" style="fill:#939393"/><path d="M108.523,27.062a18.418,18.418,0,0,0-2.377,1.981c-2.067.207-3.871,0.457-5.359,0.7A40.618,40.618,0,0,1,108.523,27.062Z" transform="translate(-23.731 -4.5)" style="fill:#939393"/><path d="M133.785,31.33l-0.841,5.884-4.028,2.821-10.507-1.194-1.582-5.208a0.345,0.345,0,0,0-.275-0.242,5.522,5.522,0,0,0-2.043,0,0.348,0.348,0,0,0-.275.242l-1.543,5.082L102.242,41.04l-4.14-2.9-0.816-6.6q0.267-.151.541-0.3,0.384-.083.864-0.174l0.769,6.23a0.349,0.349,0,0,0,.145.241l2.849,2a0.35,0.35,0,0,0,.2.061,0.308,0.308,0,0,0,.076-0.009l8.59-1.911a0.4,0.4,0,0,0,.086-0.03,0.341,0.341,0,0,0,.169-0.206l1.547-5.094a8.358,8.358,0,0,1,4.823,0l1.547,5.094a0.346,0.346,0,0,0,.293.243l8.59,0.976a0.345,0.345,0,0,0,.236-0.061l2.85-1.995a0.347,0.347,0,0,0,.142-0.235l0.761-5.323C132.932,31.149,133.41,31.249,133.785,31.33Z" transform="translate(-23.731 -4.5)" style="fill:#939393"/><path d="M134.847,27.64l-0.74,2.805a80.8,80.8,0,0,0-9.357-1.428,22.834,22.834,0,0,0,4.357-2.408C131.8,26.989,133.773,27.4,134.847,27.64Z" transform="translate(-23.731 -4.5)" style="fill:#939393"/><path d="M104.552,36.417a4.767,4.767,0,0,1,2.284-.268c0.112,0,.225,0,0.346,0l0.313-.005c1.067-.011,1.956.091,1.939-1.585s-0.761-3.032-1.828-3.021-2.1,1.383-2.037,3.058a2.659,2.659,0,0,0,.184.978A1.684,1.684,0,0,0,104.552,36.417Zm12.836-6.9a11.576,11.576,0,0,1-1.3.922l-1.515.914a13.092,13.092,0,0,0-1.821.364,0.3,0.3,0,0,0-.079.035,0.348,0.348,0,0,0-.156.2l-1.543,5.084-8.247,1.834-2.6-1.819-0.755-6.122c1.475-.271,3.448-0.584,5.817-0.849-0.254.3-.5,0.623-0.735,0.958l-1.411,2.025L105.1,31.7a33.546,33.546,0,0,1,3.478-1.929c2.132-.16,4.486-0.263,7-0.263C116.193,29.5,116.8,29.512,117.388,29.522Z" transform="translate(-23.731 -4.5)" style="fill:#e5cba4"/><path d="M126.418,35.73a1.023,1.023,0,0,0-1.228-.6,2.1,2.1,0,0,0,.129-1.047c-0.131-1.673-1.1-3-2.17-2.964s-1.75,1.424-1.691,3.1,0.955,1.663,2.021,1.626C124.912,35.823,125.7,35.383,126.418,35.73Zm5.264-4.817-0.744,5.205-2.619,1.833-8.236-.936-1.536-5.06a0.35,0.35,0,0,0-.235-0.232,12.689,12.689,0,0,0-2.152-.4l0.2-.013a32.668,32.668,0,0,0,6.4-1.53A87.874,87.874,0,0,1,131.682,30.913Z" transform="translate(-23.731 -4.5)" style="fill:#e5cba4"/><path d="M104.552,36.417a4.767,4.767,0,0,1,2.284-.268c0.112,0,.225,0,0.346,0l0.313-.005c1.067-.011,1.956.091,1.939-1.585s-0.761-3.032-1.828-3.021-2.1,1.383-2.037,3.058a2.659,2.659,0,0,0,.184.978A1.684,1.684,0,0,0,104.552,36.417Zm12.836-6.9a11.576,11.576,0,0,1-1.3.922l-1.515.914a13.092,13.092,0,0,0-1.821.364,0.3,0.3,0,0,0-.079.035,0.348,0.348,0,0,0-.156.2l-1.543,5.084-8.247,1.834-2.6-1.819-0.755-6.122c1.475-.271,3.448-0.584,5.817-0.849-0.254.3-.5,0.623-0.735,0.958l-1.411,2.025L105.1,31.7a33.546,33.546,0,0,1,3.478-1.929c2.132-.16,4.486-0.263,7-0.263C116.193,29.5,116.8,29.512,117.388,29.522Z" transform="translate(-23.731 -4.5)" style="fill:#f4f4f4"/><path d="M126.418,35.73a1.023,1.023,0,0,0-1.228-.6,2.1,2.1,0,0,0,.129-1.047c-0.131-1.673-1.1-3-2.17-2.964s-1.75,1.424-1.691,3.1,0.955,1.663,2.021,1.626C124.912,35.823,125.7,35.383,126.418,35.73Zm5.264-4.817-0.744,5.205-2.619,1.833-8.236-.936-1.536-5.06a0.35,0.35,0,0,0-.235-0.232,12.689,12.689,0,0,0-2.152-.4l0.2-.013a32.668,32.668,0,0,0,6.4-1.53A87.874,87.874,0,0,1,131.682,30.913Z" transform="translate(-23.731 -4.5)" style="fill:#f4f4f4"/><path d="M98.861,39.516c0.05,0.174.1,0.35,0.155,0.522a6.361,6.361,0,0,1-2.1.22,14.98,14.98,0,0,1-1.328-4.716c-0.135-1.21-.04-1.472.082-1.574a10.79,10.79,0,0,1,1.141-.673l0.626,5.082a0.341,0.341,0,0,0,.145.241Z" transform="translate(-23.731 -4.5)" style="fill:#f4f4f4"/><path d="M118.842,39.586l-0.038.324a5.794,5.794,0,0,1-2.971,1.292,4.816,4.816,0,0,1-3.273-.891,1.966,1.966,0,0,0,.56,1.015,13.194,13.194,0,0,0-1.569-.1c-0.2,0-.4.005-0.6,0.015-1.128.059-2.714,1.764-3.83,3.482-0.547.173-2.259,0.716-4.24,1.3a22.519,22.519,0,0,1-2.85-5.45h0c-0.037-.1-0.075-0.208-0.109-0.315l0.476,0.333h0l1.175,0.822,0.392,0.274a0.344,0.344,0,0,0,.2.063,0.45,0.45,0,0,0,.076-0.008l10.794-2.4a0.343,0.343,0,0,0,.255-0.236l1.54-5.066a4.542,4.542,0,0,1,1.4,0l1.584,5.218a0.343,0.343,0,0,0,.291.243Z" transform="translate(-23.731 -4.5)" style="fill:#f4f4f4"/><path d="M131.162,39.307l0.349-.245c-0.057.242-.12,0.482-0.185,0.719a24.9,24.9,0,0,1-1.691,4.139c-0.141.01-.288,0.015-0.447,0.015-0.49,0-.99-0.041-1.544-0.092-0.961-.088-2.487-0.263-2.969-0.319-0.415-.33-1.835-1.459-3.016-2.389l-0.126-.1a1.278,1.278,0,0,0-.923-0.376,10.923,10.923,0,0,0-2.607.623,1.863,1.863,0,0,0,.8-1.366l0.038-.324,10.125,1.151a0.35,0.35,0,0,0,.237-0.06l1.017-.713Z" transform="translate(-23.731 -4.5)" style="fill:#f4f4f4"/><path d="M123.711,18a14.286,14.286,0,0,1-.412,4.062,0.329,0.329,0,0,0,0,.174c-0.534-.056-1.067-0.1-1.6-0.147a8.741,8.741,0,0,0,.758-3.064A14.394,14.394,0,0,0,123.711,18Z" transform="translate(-23.731 -4.5)" style="fill:#bcbcbc"/><path d="M108.432,19.028a8.715,8.715,0,0,0,.757,3.061q-0.8.063-1.6,0.148a0.332,0.332,0,0,0,0-.172A14.341,14.341,0,0,1,107.179,18,13.9,13.9,0,0,0,108.432,19.028Z" transform="translate(-23.731 -4.5)" style="fill:#bcbcbc"/><path d="M126.418,35.73c-0.718-.347-1.506.093-2.94,0.12-1.066.038-1.962,0.049-2.021-1.626s0.624-3.063,1.691-3.1,2.039,1.293,2.17,2.964a2.122,2.122,0,0,1-.129,1.047A1.023,1.023,0,0,1,126.418,35.73Zm-3.351-2.454a0.546,0.546,0,1,0-.556-0.536A0.547,0.547,0,0,0,123.067,33.276Z" transform="translate(-23.731 -4.5)" style="fill:#464646"/><circle cx="123.054" cy="32.726" r="0.545" transform="translate(-24.309 -2.243) rotate(-1.049)" style="fill:#eef7fa"/><path d="M109.433,34.557c0.015,1.676-.872,1.575-1.939,1.585-0.108,0-.21,0-0.313.005-0.12,0-.235,0-0.346,0a4.794,4.794,0,0,0-2.284.268,1.687,1.687,0,0,1,1.2-.845,2.659,2.659,0,0,1-.184-0.978c-0.064-1.675.969-3.049,2.037-3.058S109.417,32.88,109.433,34.557Zm-1.648-.877a0.545,0.545,0,1,0-.561-0.531A0.545,0.545,0,0,0,107.785,33.68Z" transform="translate(-23.731 -4.5)" style="fill:#464646"/><circle cx="107.772" cy="33.137" r="0.545" transform="translate(-24.547 -1.72) rotate(-1.473)" style="fill:#eef7fa"/><path d="M101.284,23.175a14.889,14.889,0,0,1,.5-2.987c0.174-.427,1.242-0.7,2.056-0.893s2.114-.582,2.366.562a6.734,6.734,0,0,0,.931,2.347l-0.349-4.714-5.607,1.358-0.368,4.171,0.174,0.329,0.291-.173" transform="translate(-23.731 -4.5)" style="fill:#bcbcbc"/><path d="M129.654,23.175a14.945,14.945,0,0,0-.5-2.987c-0.174-.427-1.242-0.7-2.056-0.893s-2.115-.582-2.367.562a6.709,6.709,0,0,1-.932,2.347l0.35-4.714,5.607,1.358,0.368,4.171-0.174.329-0.291-.173" transform="translate(-23.731 -4.5)" style="fill:#bcbcbc"/><path d="M121.729,9.067s-0.148,11.3-2.789,11.3h-6.865c-2.64,0-2.854-11.3-2.854-11.3l-1.3,3.837,0.021,5.264,0.921,0.732,0.418,2.26,0.586,1.319,11.3,0.021,0.523-.942,0.44-1.591,0.063-1,1.248-3.564Z" transform="translate(-23.731 -4.5)" style="fill:#bcbcbc"/><path d="M130.045,19.608s0.544,3.9,1.982,4.6h0l-2.013-.608Z" transform="translate(-23.731 -4.5)" style="fill:#bcbcbc"/><path d="M100.841,19.608s-0.544,3.9-1.982,4.6h0l2.014-.608Z" transform="translate(-23.731 -4.5)" style="fill:#bcbcbc"/><path d="M130.432,23.585a10.182,10.182,0,0,1,2,.827A7.922,7.922,0,0,0,131.4,24.1c-0.346-.088-0.695-0.163-1.043-0.23-0.7-.132-1.4-0.244-2.112-0.329s-1.413-.169-2.124-0.23-1.418-.12-2.13-0.161c-2.844-.174-5.7-0.219-8.551-0.222s-5.706.055-8.551,0.223c-0.711.041-1.42,0.1-2.13,0.161s-1.419.137-2.124,0.23-1.411.2-2.112,0.329c-0.35.066-.7,0.142-1.046,0.229a7.974,7.974,0,0,0-1.025.312,10.206,10.206,0,0,1,2-.828l0.174-.053c0-.015-0.008-0.028-0.011-0.044a16.683,16.683,0,0,1,.177-4.633,0.335,0.335,0,0,1,.239-0.268l0.725-.207c0.157-5.622,2.473-8.266,2.545-8.348a15.445,15.445,0,0,0-2.014,8.2l4.505-1.281,0.011,0a0.335,0.335,0,0,1,.056-0.008h0.018a0.291,0.291,0,0,1,.074.007l0.013,0a0.413,0.413,0,0,1,.055.018,0.215,0.215,0,0,0,.022.012c0.014,0.009.029,0.017,0.044,0.028a0.048,0.048,0,0,1,.012.009l0.008,0.008,0.013,0.011s0.122,0.122.313,0.3a18.6,18.6,0,0,1,2.053-9.272,26.069,26.069,0,0,0-1.1,10.1c0.18,0.144.369,0.286,0.554,0.41a0.335,0.335,0,0,1,.145.271,8.106,8.106,0,0,0,.782,3.128,0.411,0.411,0,0,1,.025.066c1.846-.126,3.7-0.177,5.544-0.178s3.7,0.054,5.543.182a0.35,0.35,0,0,1,.027-0.07,8.064,8.064,0,0,0,.781-3.128,0.338,0.338,0,0,1,.147-0.271c0.184-.125.371-0.265,0.553-0.41a26.032,26.032,0,0,0-1.1-10.1,18.628,18.628,0,0,1,2.053,9.272c0.19-.178.31-0.3,0.313-0.3a0.138,0.138,0,0,0,.013-0.011l0.009-.008L123.8,17l0.044-.029a0.127,0.127,0,0,0,.021-0.011,0.337,0.337,0,0,1,.059-0.02l0.012,0A0.283,0.283,0,0,1,124,16.936h0.017a0.521,0.521,0,0,1,.057.008l0.011,0,4.505,1.281a15.441,15.441,0,0,0-2.014-8.2c0.072,0.081,2.388,2.726,2.544,8.348l0.726,0.207a0.336,0.336,0,0,1,.239.268,16.7,16.7,0,0,1,.176,4.633,0.31,0.31,0,0,1-.011.046C130.316,23.548,130.373,23.566,130.432,23.585Zm-0.819-.241a16.564,16.564,0,0,0-.147-4.175l-5.1-1.45a15.084,15.084,0,0,1-.424,4.523,0.389,0.389,0,0,1-.025.064c0.051,0.005.1,0.009,0.151,0.016a42.529,42.529,0,0,1,4.271.7C128.765,23.125,129.191,23.23,129.612,23.345ZM123.3,22.064A14.319,14.319,0,0,0,123.711,18a14.076,14.076,0,0,1-1.255,1.025,8.741,8.741,0,0,1-.758,3.064c0.534,0.043,1.068.091,1.6,0.147A0.329,0.329,0,0,1,123.3,22.064Zm-14.109.025a8.739,8.739,0,0,1-.757-3.061A13.922,13.922,0,0,1,107.177,18a14.381,14.381,0,0,0,.411,4.062,0.332,0.332,0,0,1,0,.172Q108.388,22.153,109.19,22.089Zm-2.22.215a0.348,0.348,0,0,1-.024-0.062,15.137,15.137,0,0,1-.426-4.523l-5.1,1.45a16.641,16.641,0,0,0-.148,4.174c0.424-.115.847-0.22,1.275-0.319,0.7-.156,1.415-0.287,2.126-0.407s1.428-.209,2.143-0.3Z" transform="translate(-23.731 -4.5)" style="fill:#464646"/><g id="_Group_" data-name="&lt;Group&gt;"><polygon points="97.087 4.714 97.087 8.944 94.088 8.944 94.088 7.709 93.412 7.709 93.412 13.419 94.432 13.419 94.432 16.612 89.187 16.612 89.187 13.419 90.203 13.419 90.203 7.709 89.531 7.709 89.531 8.944 86.534 8.944 86.534 4.714 97.087 4.714" style="fill:#464646"/></g><path d="M100.436,26.013S92.7,31.456,92.4,33.529l0.581-.119s9.26-6.138,16.6-6.886l0.166-.932Z" transform="translate(-23.731 -4.5)" style="fill:#696a6a"/><path d="M112.574,25.235l-6.091,4.32,0.329,0.264c0.248-.2,10.819-3.429,10.819-3.429l2.229-1.4C118.366,25.18,112.574,25.235,112.574,25.235Z" transform="translate(-23.731 -4.5)" style="fill:#696a6a"/><path d="M117.868,30.461c4.325,0,10.808-4.235,10.808-4.235l-2.1-.4c-0.1.1-3.379-.115-3.379-0.115l-1.555-.432-3.715,4.233-0.3.735C117.9,30.138,117.868,30.461,117.868,30.461Z" transform="translate(-23.731 -4.5)" style="fill:#696a6a"/><path d="M131.982,43.969l-1.336.376-6.174-.133-3.862-3-4.668,1.168-5.4-.467-3.023,3.3-5.673,1.695-2.832-.879c-0.09-.078-0.143-0.122-0.143-0.122l1.271,3.113s2.88,3.087,4.488,3.45,4.514-.026,6.693-0.364,3.917-1.116,4.618-2.386a10.683,10.683,0,0,0,.8-1.635s2.076,2.932,3.866,3.269,7.108-1.479,7.108-1.479,3.243-.882,3.814-2,2.076-4.774,2.076-4.774ZM99.61,46.505l-0.09-.041-0.5-.431Zm16.765,0.579-0.039-.036h0c0.047-.052.1-0.105,0.144-0.157h0l0,0c0.076,0.054.152,0.112,0.229,0.169l-0.04.054h0l0.025,0.029-0.236-.179Z" transform="translate(-23.731 -4.5)" style="fill:#696a6a"/><path d="M96.315,27.64c0.437-.1,1.028-0.225,1.752-0.365-0.445.3-.972,0.685-1.546,1.142Z" transform="translate(-23.731 -4.5)" style="fill:#939393"/><path d="M112.322,39.235a1.1,1.1,0,0,1-.978,1.123c-1.1.337-8.072,2.414-8.867,2.3A12.177,12.177,0,0,1,99.663,41.2l-0.49-1.74,2.986,1.861Z" transform="translate(-23.731 -4.5)" style="fill:#c3c3c3"/><path d="M118.567,39.082a1.1,1.1,0,0,0,1.026,1.08c1.114,0.288,8.17,2.061,8.958,1.915A12.246,12.246,0,0,0,131.3,40.5l0.413-1.761-2.745,1.637Z" transform="translate(-23.731 -4.5)" style="fill:#c3c3c3"/><path d="M95.748,37.788s0.965,1.932,2.527,1.263l1.115,0.408-0.112.818-2.34.3L96.306,40.2Z" transform="translate(-23.731 -4.5)" style="fill:#c3c3c3"/><path d="M132.059,38.723c-0.054.19-.109,0.816-0.168,1a8.1,8.1,0,0,0,2.514.038c0.439-.442,1.258-3.487,1.438-5.1a2.338,2.338,0,0,0-.326-1.941,11.669,11.669,0,0,0-1.235-.728l-0.807,5.37a0.37,0.37,0,0,1-.157.26Z" transform="translate(-23.731 -4.5)" style="fill:#f4f4f4"/><path d="M135.428,36.853s-1.046,2.091-2.734,1.367l-1.206.442,0.12,0.885,2.533,0.322,0.684-.4Z" transform="translate(-23.731 -4.5)" style="fill:#c3c3c3"/><path d="M110.873,52.436a13.18,13.18,0,0,0,12.2-1.041l-2.081-.142s-4.541,1.8-8.135.8Z" transform="translate(-23.731 -4.5)" style="fill:#c3c3c3"/><polygon points="96.184 8.046 96.184 5.613 94.879 5.613 92.511 5.613 87.432 5.613 87.432 8.046 88.628 8.046 88.628 6.81 91.104 6.81 91.104 14.321 90.085 14.321 90.085 15.714 93.531 15.714 93.531 14.321 92.511 14.321 92.511 6.81 94.988 6.81 94.988 8.046 96.184 8.046" style="fill:#696a6a"/><path d="M116.675,47.12l0.4,0.472c0.009,0.012.888,1.059,1.964,2.125a3.54,3.54,0,0,0,2.57,1.068,4.5,4.5,0,0,0,1.052-.13c0.333-.081.695-0.167,1.065-0.256,1.338-.32,2.853-0.683,3.587-0.888,0.145-.041.308-0.078,0.478-0.117a3.96,3.96,0,0,0,3.028-1.96c0.534-1.067,1.255-2.454,1.789-3.469-0.463.213-.948,0.445-1.293,0.626a4.554,4.554,0,0,1-2.127.414c-0.535,0-1.06-.046-1.642-0.1-1.162-.107-3.128-0.338-3.148-0.341l-0.151-.016-0.119-.1c-0.017-.013-1.74-1.386-3.132-2.48-0.056-.047-0.108-0.089-0.154-0.128a0.275,0.275,0,0,0-.234-0.125,31.436,31.436,0,0,0-4.588,1.284l-0.174.055L115.674,43a13.19,13.19,0,0,0-4.121-.7c-0.183,0-.365,0-0.543.014-0.224.012-1.48,0.608-3.088,3.151l-0.1.164-0.184.06c-0.027.009-2.792,0.9-5.726,1.741l-0.191.054-0.18-.083c-0.02-.008-1.167-0.541-2.259-1.042,0.6,0.88,1.358,1.977,2.027,2.839a6.419,6.419,0,0,0,5.475,2.9,9.878,9.878,0,0,0,1.119-.066c2.878-.325,3.619-0.456,4.018-0.527,0.135-.023.242-0.042,0.378-0.06,0.022,0,2.378-.308,3.039-1.791,0.682-1.524.819-1.887,0.825-1.9l0.241-.641-0.065-.061c0.048-.051.1-0.105,0.144-0.157h0l0,0c0.076,0.054.152,0.112,0.228,0.17ZM98.752,18.344c-0.625.252-1.246,0.511-1.854,0.8s-1.207.576-1.778,0.909a10.272,10.272,0,0,0-1.48,1.013c-0.02.113-.037,0.236-0.052,0.353-0.02.166-.039,0.332-0.052,0.5-0.029.335-.041,0.672-0.044,1.009a14.912,14.912,0,0,0,.125,2.015,14.535,14.535,0,0,0,.4,1.976c0.09,0.322.191,0.639,0.309,0.945,0.057,0.155.122,0.306,0.19,0.452,0.034,0.073.068,0.145,0.1,0.215l0.042,0.081c0.05,0.026.1,0.051,0.151,0.075l0.3,0.143c0.167,0.077.4,0.186,0.588,0.272a0.258,0.258,0,0,0,.03-0.028l-0.555-2.115c0.117-.033,1.172-0.3,2.989-0.651-0.146-.027-0.3-0.06-0.441-0.094a9.183,9.183,0,0,1-1.217-.388,5.609,5.609,0,0,1-.574-0.278,1.955,1.955,0,0,1-.506-0.385c2,0.652,6.122.356,9.79-.022a100.64,100.64,0,0,1,10.1-.578,100.6,100.6,0,0,1,10.1.578c3.67,0.378,7.8.674,9.793,0.022a1.973,1.973,0,0,1-.5.385,5.85,5.85,0,0,1-.574.278,9.09,9.09,0,0,1-1.218.388l-0.184.041c1.993,0.369,3.153.671,3.276,0.7l-0.531,2.014c0.107-.048.215-0.093,0.32-0.143l0.3-.143c0.049-.024.1-0.049,0.151-0.075l0.041-.081c0.036-.069.07-0.142,0.1-0.215,0.067-.147.131-0.3,0.191-0.452,0.117-.306.219-0.624,0.307-0.945a14.307,14.307,0,0,0,.4-1.976,14.738,14.738,0,0,0,.125-2.015c0-.337-0.015-0.674-0.043-1.009-0.014-.167-0.033-0.334-0.053-0.5-0.014-.117-0.034-0.241-0.053-0.353a10.239,10.239,0,0,0-1.48-1.013,19.884,19.884,0,0,0-1.779-.909c-0.606-.286-1.229-0.545-1.854-0.8q-0.47-.19-0.945-0.367c-0.315-.122-0.634-0.237-0.953-0.353,0.67,0.111,1.334.263,1.991,0.432,0.428,0.111.856,0.235,1.277,0.368a19.052,19.052,0,0,0-36.123,0c0.423-.132.848-0.257,1.276-0.368,0.659-.168,1.323-0.322,1.993-0.432-0.321.116-.638,0.232-0.955,0.353S99.065,18.217,98.752,18.344ZM138.369,22.9a13.445,13.445,0,0,1-.064,2.17,13.868,13.868,0,0,1-.4,2.139c-0.1.351-.213,0.7-0.349,1.043q-0.1.258-.221,0.515c-0.04.085-.082,0.168-0.13,0.255l-0.07.127c-0.026.047-.047,0.081-0.087,0.143l-0.073.114-0.115.059c-0.122.063-.222,0.111-0.334,0.163l-0.323.145q-0.325.138-.651,0.264c-0.152.06-.286,0.114-0.413,0.168l-0.359,1.363c-0.009,0-.117-0.03-0.319-0.078l-0.02.143a12.111,12.111,0,0,1,1.44.845c0.534,0.441.571,1.14,0.453,2.445a23.209,23.209,0,0,1-.592,3.172c-0.533,2.062-.816,2.3-1.181,2.4a3.2,3.2,0,0,1-.748.1,8.985,8.985,0,0,1-1.846-.109,19.738,19.738,0,0,1-1.259,3.221c0.038-.018.075-0.034,0.108-0.051,0.923-.485,2.7-1.258,2.774-1.292l1.4-.609-0.718,1.35c-0.016.029-1.557,2.925-2.5,4.816a4.979,4.979,0,0,1-3.743,2.522c-0.158.038-.309,0.073-0.43,0.105-0.754.212-2.281,0.576-3.628,0.9a0.393,0.393,0,0,1-.049.011,15.911,15.911,0,0,1-2.722,1.345,15.467,15.467,0,0,1-10.895.023c-0.562.073-1.3,0.16-2.284,0.273a11.216,11.216,0,0,1-1.238.073,7.474,7.474,0,0,1-6.318-3.312c-1.365-1.755-3.035-4.36-3.105-4.469l-0.969-1.51,1.636,0.736c0.783,0.352,3.112,1.43,3.778,1.739,0.054-.015.107-0.03,0.159-0.047a20.051,20.051,0,0,1-2.658-5.376,7.956,7.956,0,0,1-2.039.291,2.871,2.871,0,0,1-.618-0.056c-0.365-.083-0.782-0.436-1.35-2.434a21.949,21.949,0,0,1-.647-3.078c-0.142-1.272-.116-1.955.413-2.395a14.364,14.364,0,0,1,1.617-.947l-0.049-.393a40.138,40.138,0,0,0-5.506,3.819l-2.443,2.144,1.741-2.746a26.7,26.7,0,0,1,4.434-5.289c-0.061-.024-0.117-0.049-0.177-0.073l-0.323-.145c-0.111-.052-0.211-0.1-0.333-0.163L93.915,29.4l-0.074-.114c-0.041-.062-0.06-0.1-0.087-0.143l-0.073-.127c-0.046-.087-0.089-0.17-0.129-0.255-0.081-.171-0.154-0.342-0.221-0.515-0.135-.345-0.249-0.691-0.349-1.043a13.594,13.594,0,0,1-.4-2.139,13.445,13.445,0,0,1-.064-2.17q0.029-.543.1-1.082c0.026-.18.053-0.361,0.089-0.54s0.074-.352.129-0.552l0.039-.14,0.1-.079a9.625,9.625,0,0,1,1.811-1.086c0.515-.242,1.039-0.455,1.568-0.65A22.38,22.38,0,0,1,103.71,8.5a19.2,19.2,0,0,1,23.466,0,22.373,22.373,0,0,1,7.353,10.265c0.53,0.2,1.053.407,1.57,0.651a9.617,9.617,0,0,1,1.809,1.086l0.1,0.079,0.039,0.14c0.056,0.2.092,0.369,0.129,0.552s0.065,0.359.089,0.54C138.316,22.172,138.352,22.534,138.369,22.9Zm-2.981,11.935c0.114-1.256.014-1.526-.113-1.628a9.16,9.16,0,0,0-.977-0.579l-0.69,4.837a0.346,0.346,0,0,1-.144.234l-0.988.691c-0.078.4-.106,0.583-0.2,0.97a6.076,6.076,0,0,0,1.932.147A14.5,14.5,0,0,0,135.389,34.831Zm-1.282-4.385,0.74-2.805c-1.073-.243-3.049-0.65-5.74-1.03a22.8,22.8,0,0,1-4.356,2.409A80.643,80.643,0,0,1,134.107,30.446Zm-1.164,6.768,0.841-5.883c-0.374-.081-0.853-0.181-1.424-0.29L131.6,36.363a0.35,0.35,0,0,1-.143.234l-2.851,1.994a0.348,0.348,0,0,1-.235.061l-8.591-.976a0.345,0.345,0,0,1-.293-0.242l-1.547-5.095a8.355,8.355,0,0,0-4.822,0l-1.547,5.095a0.346,0.346,0,0,1-.169.2,0.366,0.366,0,0,1-.086.031l-8.591,1.911a0.37,0.37,0,0,1-.076.009,0.343,0.343,0,0,1-.2-0.062L99.6,37.533a0.346,0.346,0,0,1-.145-0.241l-0.768-6.23c-0.319.062-.607,0.121-0.865,0.174l-0.541.3,0.815,6.6,4.141,2.9,10.448-2.324,1.543-5.082a0.345,0.345,0,0,1,.275-0.243,5.516,5.516,0,0,1,2.042,0,0.343,0.343,0,0,1,.275.243l1.582,5.207,10.507,1.2Zm-2.006-1.1,0.743-5.205a87.858,87.858,0,0,0-8.92-1.131,32.557,32.557,0,0,1-6.4,1.53l-0.2.014a12.623,12.623,0,0,1,2.152.4,0.35,0.35,0,0,1,.235.232l1.537,5.061,8.235,0.935Zm0.573,2.943-0.349.244-0.939.659-1.017.713a0.355,0.355,0,0,1-.237.061l-10.125-1.152-0.737-.083a0.345,0.345,0,0,1-.291-0.243l-1.585-5.218a4.535,4.535,0,0,0-1.4,0l-1.539,5.068a0.344,0.344,0,0,1-.255.235l-10.794,2.4a0.367,0.367,0,0,1-.076.008,0.342,0.342,0,0,1-.2-0.063l-0.392-.273L100.4,40.6v0l-0.475-.332c0.034,0.107.072,0.211,0.109,0.315h0a22.477,22.477,0,0,0,2.85,5.449c1.98-.584,3.693-1.127,4.239-1.3,1.115-1.718,2.7-3.424,3.831-3.482,0.194-.009.4-0.015,0.6-0.015a13.437,13.437,0,0,1,1.568.1,1.958,1.958,0,0,1-.56-1.015,4.819,4.819,0,0,0,3.272.891,5.8,5.8,0,0,0,2.972-1.294,1.868,1.868,0,0,1-.8,1.367,10.95,10.95,0,0,1,2.607-.624,1.27,1.27,0,0,1,.923.377l0.126,0.1c1.181,0.93,2.6,2.059,3.016,2.389,0.481,0.056,2.007.23,2.968,0.319,0.555,0.05,1.055.092,1.545,0.092,0.158,0,.307-0.007.446-0.015a24.83,24.83,0,0,0,1.691-4.138C131.39,39.544,131.453,39.3,131.511,39.061Zm-3.736-12.82-0.008,0q-1.219-.091-2.442-0.161c-1.132-.065-2.265-0.118-3.4-0.166-0.066.1-.2,0.29-0.391,0.553a21.53,21.53,0,0,1-3.405,3.66,24.435,24.435,0,0,0,9.394-3.7C127.61,26.36,127.692,26.3,127.775,26.241Zm-7.424.23c0.093-.117.181-0.23,0.259-0.333-0.815.082-1.619,0.2-2.4,0.35a36.641,36.641,0,0,0-7.233,2.2c1.463-.07,3-0.113,4.607-0.113,0.971,0,1.916.016,2.833,0.043A21.446,21.446,0,0,0,120.351,26.47Zm0.891,25.368a4.632,4.632,0,0,1-2.958-1.361l-0.125-.127a10.814,10.814,0,0,1-1.212.174c-0.173.007-.338,0.022-0.52,0.022l-0.269,0-0.1,0a5.635,5.635,0,0,1-3.63,1.956c-0.1.012-.182,0.026-0.3,0.047a12.372,12.372,0,0,0,4.093.44A16.36,16.36,0,0,0,121.241,51.838Zm-4.323-1.854c0.262-.021.527-0.054,0.791-0.094-0.343-.358-0.647-0.689-0.886-0.959-0.117.269-.272,0.623-0.477,1.078h0.061C116.569,50.011,116.748,49.992,116.918,49.985Zm-0.834-19.54a11.861,11.861,0,0,0,1.3-.922c-0.593-.01-1.2-0.018-1.808-0.018-2.519,0-4.872.1-7,.263A33.3,33.3,0,0,0,105.1,31.7l-2.054,1.371,1.411-2.025c0.233-.336.48-0.656,0.735-0.959-2.37.264-4.343,0.579-5.817,0.851l0.755,6.121,2.6,1.819,8.247-1.833,1.544-5.085a0.35,0.35,0,0,1,.156-0.2,0.281,0.281,0,0,1,.078-0.035,13.169,13.169,0,0,1,1.822-.364Zm0.949-4.669q-0.861-.013-1.723-0.015h0q-1.263,0-2.532.027l-1.558.738-0.022.012a18.3,18.3,0,0,0-4.2,2.987,42.994,42.994,0,0,1,7.244-3.011C115.13,26.241,116.068,25.988,117.033,25.776Zm-10.888,3.266a18.46,18.46,0,0,1,2.377-1.98,40.558,40.558,0,0,0-7.735,2.678C102.276,29.5,104.078,29.25,106.145,29.042Zm0.536-2.471c0.95-.267,1.931-0.5,2.935-0.695q-2.162.08-4.322,0.2-1.255.07-2.5,0.166c-0.417.033-.831,0.065-1.244,0.111-0.118.012-.234,0.024-0.352,0.04a34.879,34.879,0,0,0-8.109,6.682A46.323,46.323,0,0,1,106.681,26.57ZM99.015,40.037c-0.054-.172-0.105-0.348-0.154-0.522l-1.283-.9a0.345,0.345,0,0,1-.145-0.241L96.807,33.3a10.675,10.675,0,0,0-1.141.673c-0.124.1-.218,0.363-0.083,1.573a14.965,14.965,0,0,0,1.329,4.716A6.331,6.331,0,0,0,99.015,40.037ZM98.067,27.274c-0.725.14-1.315,0.267-1.752,0.365l0.206,0.777C97.1,27.959,97.622,27.578,98.067,27.274Z" transform="translate(-23.731 -4.5)" style="fill:#464646"/></svg>