<svg data-name="Layer 1" xmlns="http://www.w3.org/2000/svg" viewBox="0 0 100 100"><title>logo-slack</title><path d="M61.137 17.118a6.68 6.68 0 1 0-12.707 4.13L65.705 74.4a6.682 6.682 0 0 0 12.7-4.127L61.137 17.118" fill="#dfa22f"/><path d="M34.37 25.815a6.68 6.68 0 1 0-12.708 4.13L38.937 83.1a6.682 6.682 0 0 0 12.7-4.128L34.37 25.815" fill="#3cb187"/><path d="M82.882 61.138a6.68 6.68 0 0 0-4.13-12.708L25.6 65.706a6.682 6.682 0 0 0 4.127 12.7l53.153-17.27" fill="#ce1e5b"/><path d="M36.68 76.15l12.7-4.128-4.128-12.7-12.7 4.13 4.13 12.7" fill="#392538"/><path d="M63.448 67.452l12.7-4.128-4.125-12.707-12.7 4.13 4.13 12.704" fill="#bb242a"/><path d="M74.185 34.37a6.68 6.68 0 1 0-4.13-12.708L16.9 38.938a6.682 6.682 0 0 0 4.128 12.7L74.185 34.37" fill="#72c5cd"/><path d="M27.98 49.383l12.705-4.128c-1.56-4.8-3.01-9.267-4.128-12.7L23.85 36.68l4.13 12.7" fill="#248c73"/><path d="M54.747 40.685l12.706-4.13-4.128-12.706-12.707 4.13 4.13 12.705" fill="#62803a"/><path fill="none" d="M0 0h100v100H0z"/></svg>