<svg xmlns="http://www.w3.org/2000/svg" xmlns:xlink="http://www.w3.org/1999/xlink" viewBox="0 0 160 18.11594"><defs><clipPath id="a"><path d="M137.58549,12.08547h5.39426v0.31868a1.43971,1.43971,0,0,0,.76357,1.47085,3.81024,3.81024,0,0,0,1.62567.24514h6.87217a3.02532,3.02532,0,0,0,1.68724-.35546,1.32372,1.32372,0,0,0,.50493-1.16442,1.15091,1.15091,0,0,0-.78826-1.238,16.91168,16.91168,0,0,0-3.74391-.30643l-4.31044-.07354a34.60259,34.60259,0,0,1-4.47064-.26965,5.21955,5.21955,0,0,1-2.2045-.83348,3.08729,3.08729,0,0,1-1.05915-1.5689,9.59392,9.59392,0,0,1-.3202-2.79461,8.66911,8.66911,0,0,1,.34484-2.79461,3.196,3.196,0,0,1,1.23157-1.56891,5.6766,5.6766,0,0,1,2.40155-.94378A39.6934,39.6934,0,0,1,146.57595,0q5.78826,0,7.24158.06129a10.87135,10.87135,0,0,1,2.48783.35545,3.81624,3.81624,0,0,1,2.21681,1.44633,5.50627,5.50627,0,0,1,.73884,3.18684V5.76082h-5.36957V5.34408A1.2689,1.2689,0,0,0,153.34957,4.29a3.11315,3.11315,0,0,0-1.62566-.31868h-6.25638a3.85871,3.85871,0,0,0-1.89663.3432,1.2156,1.2156,0,0,0-.56652,1.12765,1.07427,1.07427,0,0,0,.56652,1.07862,18.28489,18.28489,0,0,0,4.11343.31868L151.69927,6.913q2.88174,0.02452,3.87943.13483a6.45839,6.45839,0,0,1,1.81043.45351,3.55089,3.55089,0,0,1,2.01972,1.70373A7.57083,7.57083,0,0,1,160,12.55123a7.70424,7.70424,0,0,1-.49262,3.15007,3.43815,3.43815,0,0,1-1.79811,1.63019q-1.69956.78446-6.4042,0.78445-8.64543,0-10.12341-.22063a4.73377,4.73377,0,0,1-1.99513-.78445,3.17375,3.17375,0,0,1-1.26852-1.59342,10.05257,10.05257,0,0,1-.33252-3.03975V12.08547ZM111.88406,0.14493h5.45619V10.249a3.787,3.787,0,0,0,.67588,2.54446,2.97826,2.97826,0,0,0,2.298.74982h5.67738a3.1036,3.1036,0,0,0,2.298-.65148,3.67762,3.67762,0,0,0,.60214-2.44612V0.14493h5.45619V11.134a12.37,12.37,0,0,1-.3318,3.31886,4.35474,4.35474,0,0,1-1.26574,1.96673,5.98272,5.98272,0,0,1-2.90013,1.37671,51.42321,51.42321,0,0,1-7.54528.31959q-5.40706,0-6.95541-.66377a5.02542,5.02542,0,0,1-2.67894-2.21257,8.93662,8.93662,0,0,1-.78648-4.17931V0.14493ZM93.35454,13.47826h6.2648a3.68278,3.68278,0,0,0,2.594-.65926,2.14326,2.14326,0,0,0,.55063-1.26969,24.70227,24.70227,0,0,0,.1346-3.17423,10.73485,10.73485,0,0,0-.17131-2.24638,1.714,1.714,0,0,0-.61179-1.04994,2.59669,2.59669,0,0,0-1.39488-.48834q-0.58733-.09767-5.35934-0.09767-2.6185,0-3.267.08546a2.77245,2.77245,0,0,0-1.26031.525,2.09771,2.09771,0,0,0-.7831,1.18423,11.86614,11.86614,0,0,0-.19577,2.62484,16.80155,16.80155,0,0,0,.15907,2.89343,1.86861,1.86861,0,0,0,.72191,1.15981A4.75334,4.75334,0,0,0,93.35454,13.47826ZM84.2029,11.203V6.54527A9.48447,9.48447,0,0,1,84.60746,3.481,4.47143,4.47143,0,0,1,85.9683,1.51987,5.433,5.433,0,0,1,88.82481.26965,52.57567,52.57567,0,0,1,95.45733,0q5.83565,0,7.52748.14709A8.05721,8.05721,0,0,1,105.82906.858a4.45274,4.45274,0,0,1,2.47648,3.1378,38.59794,38.59794,0,0,1,.24518,5.80985,27.59367,27.59367,0,0,1-.19616,4.06934,4.99656,4.99656,0,0,1-.88269,2.05919,4.52317,4.52317,0,0,1-2.67262,1.7405,26.89363,26.89363,0,0,1-5.86014.44125q-6.81646,0-8.6799-.11031a8.00665,8.00665,0,0,1-2.89329-.6006,4.90248,4.90248,0,0,1-2.40292-2.2553A8.74466,8.74466,0,0,1,84.2029,11.203ZM64.49275,4.49275V8.84058h8.46893a3.29916,3.29916,0,0,0,2.03155-.43967,2.20505,2.20505,0,0,0,.514-1.70982A2.25449,2.25449,0,0,0,74.981,4.94463a3.2347,3.2347,0,0,0-2.01932-.45188H64.49275ZM58.98551,17.82609V0.14493H75.28373a9.699,9.699,0,0,1,2.37734.23232,3.91586,3.91586,0,0,1,1.56855.81926,3.61552,3.61552,0,0,1,1.20092,1.73632,11.92526,11.92526,0,0,1,.2941,3.13028,6.72076,6.72076,0,0,1-.576,3.31369,4.14021,4.14021,0,0,1-2.46311,1.45509v0.07337a3.76833,3.76833,0,0,1,2.27931,1.17385,2.95087,2.95087,0,0,1,.55145,1.345,20.5096,20.5096,0,0,1,.13479,2.88572v1.51623H75.2102q0.049-.58693.049-1.29613a5.29261,5.29261,0,0,0-.42889-2.72676,2.81384,2.81384,0,0,0-2.14451-.55024H64.42642v4.57313H58.98551Zm-9.78855,0H43.72624V4.62024H36.087V0.14493H56.81159V4.62024H49.197V17.82609ZM28.11594,0.14493h5.50725V17.82609H28.11594V0.14493ZM0,17.82609V0.14493H8.44516L18.73693,13.05731V0.14493h5.466V17.82609h-8.519L5.466,5.06044V17.82609H0Z" style="fill:none;clip-rule:evenodd"/></clipPath></defs><title>nitrous</title><g style="clip-path:url(#a)"><rect x="-0.72464" y="-0.72464" width="161.44928" height="19.56522" style="fill:#0099ed"/></g></svg>