<svg id="Layer_1" data-name="Layer 1" xmlns="http://www.w3.org/2000/svg" viewBox="0 0 60 60"><title>icons-dockerize</title><circle cx="29.835" cy="30" r="23.884" fill="#20c2ef" stroke="#52306c" stroke-linecap="round" stroke-linejoin="round" stroke-width="2"/><g opacity="0.15"><path d="M118.961,308.447a23.876,23.876,0,0,1-33.68,33.68A23.878,23.878,0,1,0,118.961,308.447Z" transform="translate(-73.333 -296.5)"/></g><g opacity="0.5"><path d="M109.332,322.883v-2.142l-2.635-.807a7.21,7.21,0,0,0-.722-1.747l1.215-2.264a8.087,8.087,0,0,0-1.606-1.606l-2.264,1.215a7.21,7.21,0,0,0-1.747-.722l-0.807-2.635H98.623l-0.807,2.635a7.2,7.2,0,0,0-1.746.722L93.8,314.316a8.084,8.084,0,0,0-1.606,1.606l1.216,2.264a7.17,7.17,0,0,0-.723,1.748l-2.635.807v2.142l2.635,0.807a7.164,7.164,0,0,0,.723,1.747L92.2,327.7a8.091,8.091,0,0,0,1.606,1.606l2.264-1.215a7.21,7.21,0,0,0,1.747.722l0.807,2.635h2.142l0.807-2.635a7.2,7.2,0,0,0,1.748-.723l2.264,1.216a8.1,8.1,0,0,0,1.606-1.606l-1.215-2.265a7.206,7.206,0,0,0,.722-1.747Zm-9.638,1.606a2.677,2.677,0,1,1,2.677-2.677A2.677,2.677,0,0,1,99.694,324.489Z" transform="translate(-73.333 -296.5)" fill="#4f76af"/></g><g opacity="0.5"><path d="M119.487,330.822v-1.35l-1.66-.509a4.543,4.543,0,0,0-.455-1.1l0.766-1.427a5.1,5.1,0,0,0-1.012-1.012l-1.427.766a4.543,4.543,0,0,0-1.1-.455l-0.509-1.66h-1.35l-0.509,1.66a4.536,4.536,0,0,0-1.1.455l-1.428-.766a5.094,5.094,0,0,0-1.012,1.012l0.766,1.426a4.519,4.519,0,0,0-.456,1.1l-1.66.509v1.35l1.66,0.509a4.515,4.515,0,0,0,.456,1.1l-0.766,1.427a5.1,5.1,0,0,0,1.012,1.012l1.427-.766a4.543,4.543,0,0,0,1.1.455l0.509,1.66h1.35l0.509-1.66a4.537,4.537,0,0,0,1.1-.456l1.426,0.766a5.107,5.107,0,0,0,1.012-1.012l-0.766-1.427a4.541,4.541,0,0,0,.455-1.1Zm-6.073,1.012a1.687,1.687,0,1,1,1.687-1.687A1.687,1.687,0,0,1,113.413,331.834Z" transform="translate(-73.333 -296.5)" fill="#4f76af"/></g><g opacity="0.5"><path d="M109.438,337.136v-1.35l-1.66-.509a4.543,4.543,0,0,0-.455-1.1l0.766-1.427a5.1,5.1,0,0,0-1.012-1.012l-1.427.766a4.543,4.543,0,0,0-1.1-.455l-0.509-1.66h-1.35l-0.509,1.66a4.536,4.536,0,0,0-1.1.455l-1.428-.766a5.094,5.094,0,0,0-1.012,1.012l0.766,1.426a4.519,4.519,0,0,0-.456,1.1l-1.66.509v1.35l1.66,0.509a4.515,4.515,0,0,0,.456,1.1l-0.766,1.427a5.1,5.1,0,0,0,1.012,1.012l1.427-.766a4.543,4.543,0,0,0,1.1.455l0.509,1.66h1.35l0.509-1.66a4.537,4.537,0,0,0,1.1-.456l1.426,0.766a5.107,5.107,0,0,0,1.012-1.012l-0.766-1.427a4.541,4.541,0,0,0,.455-1.1Zm-6.073,1.012a1.687,1.687,0,1,1,1.687-1.687A1.687,1.687,0,0,1,103.365,338.148Z" transform="translate(-73.333 -296.5)" fill="#4f76af"/></g><path d="M92.126,310.057a18.016,18.016,0,0,0-7.836,11.481" transform="translate(-73.333 -296.5)" fill="none" stroke="#fff" stroke-linecap="round" stroke-linejoin="round" stroke-width="1.073" opacity="0.4"/><path d="M97.278,307.764a17.866,17.866,0,0,0-2.679.948" transform="translate(-73.333 -296.5)" fill="none" stroke="#fff" stroke-linecap="round" stroke-linejoin="round" stroke-width="1.073" opacity="0.4"/><rect width="60" height="60" fill="none"/></svg>