<svg id="Layer_1" data-name="Layer 1" xmlns="http://www.w3.org/2000/svg" viewBox="0 0 60 60"><title>icons-swap-commits</title><rect x="82.179" y="231.571" width="33.166" height="33.166" rx="6.242" ry="6.242" transform="translate(152.042 -207.679) rotate(50)" fill="#77d7ed" stroke="#52306c" stroke-linecap="round" stroke-linejoin="round" stroke-width="2"/><path d="M106.087,231.084L87.2,237.958a6.613,6.613,0,0,0-3.952,8.476l5.8,15.948,3.653,4.353a6.242,6.242,0,0,0,8.794.769l15.844-13.294a6.242,6.242,0,0,0,.769-8.794Z" transform="translate(-73.333 -220.667)" opacity="0.15"/><rect x="88.143" y="234.542" width="33.166" height="33.166" rx="6.242" ry="6.242" transform="translate(231.554 -153.841) rotate(70)" fill="#f4c27a" stroke="#52306c" stroke-linecap="round" stroke-linejoin="round" stroke-width="2"/><path d="M117.531,237.821H97.9a6.616,6.616,0,0,0-6.616,6.616V262.67l1.4,3.844a6.242,6.242,0,0,0,8,3.731l19.435-7.074a6.242,6.242,0,0,0,3.731-8Z" transform="translate(-73.333 -220.667)" opacity="0.15"/><rect x="93.268" y="239.56" width="33.166" height="33.166" rx="6.242" ry="6.242" transform="translate(292.661 -74.374) rotate(90)" fill="#3ccb5a" stroke="#52306c" stroke-linecap="round" stroke-linejoin="round" stroke-width="2"/><path d="M96.351,246a3.109,3.109,0,0,1,3.109-3.109h3.874" transform="translate(-73.333 -220.667)" fill="none" stroke="#fff" stroke-linecap="round" stroke-miterlimit="10" opacity="0.4"/><path d="M96.351,249.5v-1.254" transform="translate(-73.333 -220.667)" fill="none" stroke="#fff" stroke-linecap="round" stroke-miterlimit="10" opacity="0.4"/><path d="M101.591,256.293V256.5l6.546,3.027v3.191l-9.562-5.079v-2.483l9.562-5.089v3.2Z" transform="translate(-73.333 -220.667)" fill="#52306c"/><path d="M111.564,253.267v-3.2l9.562,5.089v2.483l-9.562,5.079v-3.191l6.546-3.027v-0.205Z" transform="translate(-73.333 -220.667)" fill="#52306c"/><rect width="60" height="60" fill="none"/></svg>