<svg id="Layer_1" data-name="Layer 1" xmlns="http://www.w3.org/2000/svg" viewBox="0 0 60 60"><title>icons-button</title><ellipse cx="30" cy="36.967" rx="27.642" ry="12.631" fill="#dbdbdb"/><path d="M30,271.265c-16.061,0-28.643-5.987-28.643-13.631S13.939,244,30,244s28.643,5.988,28.643,13.632S46.061,271.265,30,271.265ZM30,246c-14.442,0-26.643,5.327-26.643,11.632S15.558,269.265,30,269.265s26.643-5.326,26.643-11.631S44.442,246,30,246Z" transform="translate(0 -220.667)" fill="#52306c"/><path d="M30,235.157c-11.9,0-21.545,4.408-21.545,9.845v9.845c0,5.437,9.646,9.845,21.545,9.845s21.545-4.408,21.545-9.845V245C51.545,239.565,41.9,235.157,30,235.157Z" transform="translate(0 -220.667)" fill="#cc5261" stroke="#52306c" stroke-linecap="round" stroke-linejoin="round" stroke-width="2"/><ellipse cx="30" cy="24.335" rx="20.619" ry="9.422" fill="#ef606e"/><path d="M30,254.924c-11.842,0-21.119-4.358-21.119-9.922S18.158,235.08,30,235.08,51.119,239.438,51.119,245,41.842,254.924,30,254.924Zm0-18.844c-11.093,0-20.119,4-20.119,8.922s9.025,8.922,20.119,8.922,20.119-4,20.119-8.922S41.094,236.08,30,236.08Z" transform="translate(0 -220.667)" fill="#52306c"/><path d="M14.151,242.117c2.383-2.137,6.895-3.7,12.259-4.093" transform="translate(0 -220.667)" fill="none" stroke="#fff" stroke-linecap="round" stroke-linejoin="round" stroke-width="1.073" opacity="0.4"/><rect width="60" height="60" fill="none"/></svg>