<svg id="Layer_1" data-name="Layer 1" xmlns="http://www.w3.org/2000/svg" viewBox="0 0 60 60"><title>icons-slack</title><path d="M192.367,112.766a21.655,21.655,0,1,0-5.516,6.2l3.573,0.957,4.158,1.114-1.114-4.158Z" transform="translate(-143.793 -71.793)" fill="#20c2ef" stroke="#52306c" stroke-linecap="round" stroke-linejoin="round" stroke-width="2"/><path d="M169.145,84.4a18.027,18.027,0,0,0-12.988,13.774" transform="translate(-143.793 -71.793)" fill="none" stroke="#fff" stroke-linecap="round" stroke-linejoin="round" stroke-width="1.073" opacity="0.4"/><rect x="172.313" y="100.369" width="2.959" height="2.848" transform="translate(-167.124 -11.325) rotate(-18.518)" fill="#fff"/><path d="M183.414,98.906c-2.165-7.216-5.292-8.9-12.508-6.735s-8.9,5.292-6.735,12.508,5.292,8.9,12.508,6.735S185.579,106.122,183.414,98.906Zm-3.65,4.684-1.361.456,0.472,1.408a1.088,1.088,0,1,1-2.064.691l-0.472-1.408-2.806.94,0.472,1.408a1.088,1.088,0,1,1-2.064.691l-0.472-1.408-1.361.456a1.089,1.089,0,0,1-.691-2.064l1.361-.456-0.9-2.7-1.361.456a1.089,1.089,0,0,1-.691-2.064l1.36-.456-0.472-1.408a1.088,1.088,0,1,1,2.064-.691l0.472,1.408,2.806-.94L173.581,96.5a1.088,1.088,0,1,1,2.064-.691l0.472,1.408,1.361-.456a1.089,1.089,0,0,1,.691,2.064l-1.361.456,0.9,2.7,1.361-.456A1.089,1.089,0,0,1,179.764,103.591Z" transform="translate(-143.793 -71.793)" fill="#fff"/><rect width="60" height="60" fill="none"/></svg>