<svg xmlns="http://www.w3.org/2000/svg" viewBox="0 0 261.094 182.357"><title>logo-mulesoft</title><polygon points="22.323 162.927 7.63 131.635 0 131.635 0 181.932 7.63 181.932 7.63 148.305 19.498 172.825 25.149 172.825 36.733 148.305 36.733 181.932 44.361 181.932 44.361 131.635 36.733 131.635 22.323 162.927" style="fill:#fff"/><path d="M73.022,167.944c0,5.514-3.4,7.982-7.418,7.982s-7.206-2.4-7.206-7.982V146.116H51.191V169c0,4.032.848,7.421,3.6,10.107a12.45,12.45,0,0,0,8.83,3.247,12.792,12.792,0,0,0,9.537-4.027v3.6h7.067V146.116H73.022v21.828Z" style="fill:#fff"/><path d="M94.343,171.62V131.635H87.137v40.4c0,5.3,2.965,9.893,9.82,9.893H101.4v-6.143H98.227C95.328,175.789,94.343,174.37,94.343,171.62Z" style="fill:#fff"/><path d="M118.731,145.7c-9.183,0-15.185,6.714-15.185,18.293,0,13.633,7.133,18.367,16.107,18.367,6.285,0,9.746-1.911,13.418-5.578l-4.591-4.315a10.671,10.671,0,0,1-8.688,3.671c-5.863,0-9.112-3.881-9.112-10.029h23.24v-3.179C133.919,152.756,128.341,145.7,118.731,145.7Zm-8.052,15.392a11.351,11.351,0,0,1,.919-4.871,7.479,7.479,0,0,1,7.133-4.52,7.378,7.378,0,0,1,7.067,4.52,11.19,11.19,0,0,1,.987,4.871H110.679Z" style="fill:#fff"/><path d="M169.484,157.276c-2.118-1.9-4.732-3.038-9.4-3.745l-5.724-.844a11.242,11.242,0,0,1-5.651-2.331,6.007,6.007,0,0,1-1.9-4.661c0-4.451,3.247-7.845,9.184-7.845,4.234,0,7.842.917,10.946,3.881l4.876-4.8c-4.308-4.022-8.967-5.719-15.609-5.719-10.456,0-16.814,6-16.814,14.763,0,4.1,1.2,7.275,3.678,9.61a17.181,17.181,0,0,0,9.53,4.023l5.934,0.853c2.972,0.419,4.242.917,5.514,2.121a6.752,6.752,0,0,1,1.977,5.227c0,4.871-3.818,7.694-10.383,7.694-5.161,0-9.183-1.131-12.857-4.8l-5.088,5.017c4.8,4.876,10.244,6.641,17.8,6.641,10.527,0,18.084-5.51,18.084-14.764C173.58,163.278,172.237,159.68,169.484,157.276Z" style="fill:#fff"/><path d="M192.586,145.7a14.333,14.333,0,0,0-10.668,4.237c-3.388,3.525-4.234,8.054-4.234,14.056,0,6.075.846,10.6,4.234,14.125a14.335,14.335,0,0,0,10.668,4.242,14.487,14.487,0,0,0,10.739-4.242c3.389-3.525,4.235-8.05,4.235-14.125,0-6-.846-10.531-4.235-14.056A14.484,14.484,0,0,0,192.586,145.7Zm5.3,28.113a7.369,7.369,0,0,1-5.3,2.116,7.17,7.17,0,0,1-5.222-2.116c-2.2-2.189-2.474-5.939-2.474-9.82s0.278-7.63,2.474-9.82a7.122,7.122,0,0,1,5.222-2.052,7.321,7.321,0,0,1,5.3,2.052c2.189,2.189,2.474,5.934,2.474,9.82S200.075,171.62,197.886,173.809Z" style="fill:#fff"/><path d="M214.847,141.245v5.5h-4.1v5.514h4.1v29.668h7.206V152.264h7.133V146.75h-7.133V141.6c0-2.613,1.263-4.169,3.949-4.169h3.184v-6.148h-4.527C217.95,131.279,214.847,136.091,214.847,141.245Z" style="fill:#fff"/><path d="M244.934,135.877h-7.2V146.75h-4.1v5.514h4.1v19.7c0,5.163,3.1,9.966,9.812,9.966h4.308v-6.143h-2.965c-2.679,0-3.957-1.555-3.957-4.169V152.264h6.921V146.75h-6.921V135.877Z" style="fill:#fff"/><path d="M260.785,141.428a3.836,3.836,0,0,0-2.064-2.028,3.957,3.957,0,0,0-3,0,3.917,3.917,0,0,0-1.239.81,3.827,3.827,0,0,0-.841,1.218,3.717,3.717,0,0,0-.31,1.518,3.8,3.8,0,0,0,.31,1.543,3.872,3.872,0,0,0,.841,1.228,3.809,3.809,0,0,0,1.239.81,4.032,4.032,0,0,0,3,0,3.773,3.773,0,0,0,1.229-.81,3.939,3.939,0,0,0,.836-1.228,3.8,3.8,0,0,0,.309-1.543A3.717,3.717,0,0,0,260.785,141.428Zm-0.635,2.833a3.219,3.219,0,0,1-.671,1.048,3.131,3.131,0,0,1-1.006.7,3.078,3.078,0,0,1-1.249.253,3.124,3.124,0,0,1-2.275-.949,3.226,3.226,0,0,1-.671-1.048,3.5,3.5,0,0,1-.243-1.315,3.408,3.408,0,0,1,.243-1.29,3.136,3.136,0,0,1,2.946-1.982,3.092,3.092,0,0,1,1.249.253,3.138,3.138,0,0,1,1.677,1.729,3.394,3.394,0,0,1,.243,1.29A3.486,3.486,0,0,1,260.15,144.261Z" style="fill:#fff"/><path d="M258.7,142.888a1.1,1.1,0,0,0,.34-0.893,1.184,1.184,0,0,0-.387-0.97,1.846,1.846,0,0,0-1.192-.32h-1.745v4.51h0.7v-1.94h0.743l1.228,1.94h0.753l-1.29-1.992A1.535,1.535,0,0,0,258.7,142.888Zm-1.549-.181h-0.732v-1.435h0.929a2.465,2.465,0,0,1,.356.026,1,1,0,0,1,.32.1,0.607,0.607,0,0,1,.227.207,0.651,0.651,0,0,1,.088.361,0.76,0.76,0,0,1-.1.418,0.593,0.593,0,0,1-.263.222,1.151,1.151,0,0,1-.377.088C257.46,142.7,257.311,142.708,257.152,142.708Z" style="fill:#fff"/><path d="M186.473,59.508a59.785,59.785,0,1,0-59.788,59.5A59.718,59.718,0,0,0,186.473,59.508Zm-114.323.359A54.539,54.539,0,1,1,126.691,114.4,54.541,54.541,0,0,1,72.149,59.867Z" style="fill:#fff"/><path d="M120.617,74.934H132.5l19.665-29.305a28.171,28.171,0,0,1,4.711,15.693,27.5,27.5,0,0,1-13.487,23.95l3.78,14.5a44.755,44.755,0,0,0,2.36-78.283l-22.841,35.24-22.611-35.37a44.753,44.753,0,0,0,3.707,79.189l3.74-14.348A27.353,27.353,0,0,1,96.238,61.321a28.173,28.173,0,0,1,4.714-15.693Z" style="fill:#fff"/></svg>