<?xml version="1.0" encoding="utf-8"?>
<!-- Generator: Adobe Illustrator 19.2.1, SVG Export Plug-In . SVG Version: 6.00 Build 0)  -->
<svg version="1.1" id="Layer_1" xmlns="http://www.w3.org/2000/svg" xmlns:xlink="http://www.w3.org/1999/xlink" x="0px" y="0px"
	 viewBox="0 0 54 54" style="enable-background:new 0 0 54 54;" xml:space="preserve">
<style type="text/css">
	.st0{fill:#8DD5E7;}
	.st1{fill:#52306C;}
	.st2{fill:#CCAFD0;}
	.st3{fill:#53316D;}
</style>
<title>contact-chat</title>
<path class="st0" d="M4.1,50L8,45.1V36c0-1.7,1.4-3.1,3.1-3.1H45c1.7,0,3,1.3,3,3v11c0,1.7-1.3,3-3,3L4.1,50L4.1,50z"/>
<path class="st1" d="M45,34c1.1,0,2,0.9,2,2v11c0,1.1-0.9,2-2,2H6.2l2.4-3L9,45.5v-9.4c0-1.2,0.9-2.1,2.1-2.1H45 M45,32H11.1
	C8.9,32,7,33.8,7,36c0,0,0,0.1,0,0.1v8.7L2,51h43c2.2,0,4-1.8,4-4V36C49,33.8,47.2,32,45,32L45,32z"/>
<path class="st2" d="M10,28c-1.7,0-3-1.3-3-3V7c0-1.7,1.3-3,3-3h33.9C45.6,4,47,5.4,47,7.1v16.1l3.9,4.9H10V28z"/>
<path class="st1" d="M43.9,5C45,5,46,5.9,46,7c0,0,0,0.1,0,0.1v16.4l0.4,0.5l2.4,3H10c-1.1,0-2-0.9-2-2V7c0-1.1,0.9-2,2-2H43.9
	 M43.9,3H10C7.8,3,6,4.8,6,7v18c0,2.2,1.8,4,4,4h43l-5-6.2V7.1C48,4.9,46.2,3,43.9,3C44,3,43.9,3,43.9,3L43.9,3z"/>
<path class="st1" d="M27,23c-1.1,0-2-0.9-2-2c0-1.1,0.9-2,2-2c1.1,0,2,0.9,2,2c0,0,0,0.1,0,0.1C28.9,22.2,28.1,23,27,23z M25.5,18.5
	c-0.1,0-0.3-0.1-0.3-0.2c0,0,0,0,0-0.1v-0.4c-0.3-1.4,0.4-2.8,1.7-3.4c1.2-0.7,1.4-1,1.4-1.7c0-0.6-0.4-1-1-1c0,0-0.1,0-0.1,0h-0.1
	c-0.6,0-1.2,0.4-1.2,1.1c0,0,0,0,0,0v0.1c0,0.1-0.1,0.3-0.2,0.3c0,0,0,0-0.1,0h-3c-0.1,0-0.3-0.1-0.3-0.2c0,0,0,0,0-0.1l0,0
	c0-2.6,1.9-4.3,5-4.3c2.9,0,4.9,1.6,4.9,4c0,1.4-0.8,2.7-2.1,3.3c-1.3,0.7-1.4,1-1.4,1.7V18c0,0.1-0.1,0.3-0.2,0.3c0,0,0,0-0.1,0
	L25.5,18.5C25.5,18.5,25.5,18.5,25.5,18.5z"/>
<circle class="st3" cx="28" cy="42" r="2"/>
<circle class="st3" cx="36" cy="42" r="2"/>
<circle class="st3" cx="20" cy="42" r="2"/>
</svg>
