<svg id="Layer_1" data-name="Layer 1" xmlns="http://www.w3.org/2000/svg" viewBox="0 0 54 54"><defs><style>.cls-1{fill:#8dd5e7;}.cls-2{fill:#52306c;}.cls-3{fill:#ccafd0;}.cls-4{fill:#53316d;}</style></defs><title>contact-chat</title><path class="cls-1" d="M6.1,50L10,45.1V36a3.12,3.12,0,0,1,3.1-3.1H47a3,3,0,0,1,3,3v11a3,3,0,0,1-3,3L6.1,50h0Z"/><path class="cls-2" d="M47,34a2,2,0,0,1,2,2V47a2,2,0,0,1-2,2H8.2l2.4-3,0.4-.5V36.1A2.11,2.11,0,0,1,13.1,34H47m0-2H13.1A4.06,4.06,0,0,0,9,36.1v8.7L4,51H47a4,4,0,0,0,4-4V36a4,4,0,0,0-4-4h0Z"/><path class="cls-3" d="M7,28a3,3,0,0,1-3-3V7A3,3,0,0,1,7,4H40.9A3.12,3.12,0,0,1,44,7.1V23.2l3.9,4.9H7V28Z"/><path class="cls-2" d="M40.9,5A2.05,2.05,0,0,1,43,7.1V23.5L43.4,24l2.4,3H7a2,2,0,0,1-2-2V7A2,2,0,0,1,7,5H40.9m0-2H7A4,4,0,0,0,3,7V25a4,4,0,0,0,4,4H50l-5-6.2V7.1A4.06,4.06,0,0,0,40.9,3h0Z"/><path class="cls-2" d="M24,23a2,2,0,1,1,2-1.9A2,2,0,0,1,24,23Zm-1.5-4.5a0.27,0.27,0,0,1-.3-0.3V17.8a3,3,0,0,1,1.7-3.4c1.2-.7,1.4-1,1.4-1.7a1,1,0,0,0-1.1-1H24.1a1.13,1.13,0,0,0-1.2,1.1v0.1a0.27,0.27,0,0,1-.3.3h-3a0.27,0.27,0,0,1-.3-0.3h0c0-2.6,1.9-4.3,5-4.3,2.9,0,4.9,1.6,4.9,4a3.56,3.56,0,0,1-2.1,3.3c-1.3.7-1.4,1-1.4,1.7V18a0.27,0.27,0,0,1-.3.3l-2.9.2h0Z"/><circle class="cls-4" cx="30" cy="42" r="2"/><circle class="cls-4" cx="38" cy="42" r="2"/><circle class="cls-4" cx="22" cy="42" r="2"/></svg>