<?xml version="1.0" encoding="utf-8"?>
<!-- Generator: Adobe Illustrator 19.2.1, SVG Export Plug-In . SVG Version: 6.00 Build 0)  -->
<svg version="1.1" id="Layer_1" xmlns="http://www.w3.org/2000/svg" xmlns:xlink="http://www.w3.org/1999/xlink" x="0px" y="0px"
	 viewBox="0 0 54 54" style="enable-background:new 0 0 54 54;" xml:space="preserve">
<style type="text/css">
	.st0{fill:#8DD5E7;}
	.st1{fill:#53316D;}
</style>
<g>
	<path class="st0" d="M42,45.7c-0.1,0-0.2,0-0.4-0.1L32.3,42H15.8c-2.6,0-4.8-2.1-4.8-4.8V14.8c0-2.6,2.1-4.8,4.8-4.8h22.5
		c2.6,0,4.7,2.1,4.8,4.7v30c0,0.3-0.2,0.6-0.4,0.8C42.4,45.7,42.2,45.7,42,45.7z"/>
	<path class="st1" d="M38.2,11c2.1,0,3.7,1.7,3.8,3.7v22.5v7.5L32.5,41H15.8c-2.1,0-3.8-1.7-3.8-3.8V14.7c0-2.1,1.7-3.8,3.8-3.8
		H38.2 M38.2,9H15.8c-3.2,0-5.8,2.6-5.8,5.8v22.5c0,3.2,2.6,5.8,5.8,5.8h16.4l9.1,3.6c0.2,0.1,0.5,0.1,0.7,0.1
		c0.4,0,0.8-0.1,1.1-0.3c0.5-0.4,0.9-1,0.9-1.7v-7.5V14.7C44,11.6,41.4,9,38.2,9L38.2,9z"/>
</g>
<title>contact</title>
<path class="st1" d="M37.6,33.7C37.5,33.9,33.8,37,27,37s-10.5-3.1-10.6-3.2c-0.4-0.4-0.5-1-0.1-1.4c0.4-0.4,1-0.5,1.4-0.1
	c0.1,0,3.4,2.8,9.4,2.8c6.1,0,9.3-2.7,9.3-2.8c0.4-0.4,1.1-0.3,1.4,0.1C38.1,32.7,38.1,33.4,37.6,33.7L37.6,33.7z"/>
</svg>
