<svg id="Layer_1" data-name="Layer 1" xmlns="http://www.w3.org/2000/svg" xmlns:xlink="http://www.w3.org/1999/xlink" viewBox="0 0 54 54"><defs><style>.cls-1,.cls-6,.cls-7,.cls-8{fill:none;}.cls-2{fill:#ffebd9;}.cls-3{clip-path:url(#clip-path);}.cls-4{fill:#e84344;}.cls-5{fill:#52306c;}.cls-6{stroke:#52306c;stroke-linejoin:round;stroke-width:2px;}.cls-6,.cls-7,.cls-8{stroke-linecap:round;}.cls-7,.cls-8{stroke:#fff7f2;stroke-miterlimit:10;}.cls-8{opacity:0.5;isolation:isolate;}</style><clipPath id="clip-path"><path class="cls-1" d="M27,3A24,24,0,1,0,51,27,23.94,23.94,0,0,0,27,3Zm0,36A12,12,0,1,1,39,27,12,12,0,0,1,27,39Z"/></clipPath></defs><title>contact-help</title><path class="cls-2" d="M27,3A24,24,0,1,0,51,27,23.94,23.94,0,0,0,27,3Zm0,36A12,12,0,1,1,39,27,12,12,0,0,1,27,39Z"/><g class="cls-3"><path class="cls-4" d="M22.8,51.5a0.47,0.47,0,0,1-.5-0.5V31.7H3a0.47,0.47,0,0,1-.5-0.5V22.8A0.47,0.47,0,0,1,3,22.3H22.3V3a0.47,0.47,0,0,1,.5-0.5h8.4a0.47,0.47,0,0,1,.5.5V22.3H51a0.47,0.47,0,0,1,.5.5v8.4a0.47,0.47,0,0,1-.5.5H31.7V51a0.47,0.47,0,0,1-.5.5H22.8Z"/><path class="cls-5" d="M31.2,3V22.8H51v8.4H31.2V51H22.8V31.2H3V22.8H22.8V3h8.4m0-1H22.8a0.94,0.94,0,0,0-1,1V21.8H3a0.94,0.94,0,0,0-1,1v8.4a0.94,0.94,0,0,0,1,1H21.8V51a0.94,0.94,0,0,0,1,1h8.4a0.94,0.94,0,0,0,1-1V32.2H51a0.94,0.94,0,0,0,1-1V22.8a0.94,0.94,0,0,0-1-1H32.2V3a0.94,0.94,0,0,0-1-1h0Z"/></g><path class="cls-6" d="M27,3A24,24,0,1,0,51,27,23.94,23.94,0,0,0,27,3Zm0,36A12,12,0,1,1,39,27,12,12,0,0,1,27,39Z"/><path class="cls-7" d="M19.4,8.1a20.38,20.38,0,0,0-11,10.6"/><path class="cls-8" d="M27,6.6a28.25,28.25,0,0,0-2.9.2"/></svg>