<?xml version="1.0" encoding="utf-8"?>
<!-- Generator: Adobe Illustrator 19.2.1, SVG Export Plug-In . SVG Version: 6.00 Build 0)  -->
<svg version="1.1" id="Layer_1" xmlns="http://www.w3.org/2000/svg" xmlns:xlink="http://www.w3.org/1999/xlink" x="0px" y="0px"
	 viewBox="0 0 54 54" style="enable-background:new 0 0 54 54;" xml:space="preserve">
<style type="text/css">
	.st0{fill:#FFEBD9;}
	.st1{clip-path:url(#SVGID_2_);}
	.st2{fill:#E84344;}
	.st3{fill:#52306C;}
	.st4{fill:none;stroke:#52306C;stroke-width:2;stroke-linecap:round;stroke-linejoin:round;}
	.st5{fill:none;stroke:#FFF7F2;stroke-linecap:round;stroke-miterlimit:10;}
	.st6{opacity:0.5;fill:none;stroke:#FFF7F2;stroke-linecap:round;stroke-miterlimit:10;enable-background:new    ;}
</style>
<title>contact</title>
<path class="st0" d="M27,3C13.7,3,3,13.7,3,27s10.7,24,24,24s24-10.7,24-24S40.3,3,27,3z M27,39c-6.6,0-12-5.4-12-12s5.4-12,12-12
	s12,5.4,12,12S33.6,39,27,39z"/>
<g>
	<defs>
		<path id="SVGID_1_" d="M27,3C13.7,3,3,13.7,3,27s10.7,24,24,24s24-10.7,24-24S40.3,3,27,3z M27,39c-6.6,0-12-5.4-12-12
			s5.4-12,12-12s12,5.4,12,12S33.6,39,27,39z"/>
	</defs>
	<clipPath id="SVGID_2_">
		<use xlink:href="#SVGID_1_"  style="overflow:visible;"/>
	</clipPath>
	<g class="st1">
		<path class="st2" d="M22.8,51.5c-0.3,0-0.5-0.2-0.5-0.5V31.7H3c-0.3,0-0.5-0.2-0.5-0.5v-8.4c0-0.3,0.2-0.5,0.5-0.5h19.3V3
			c0-0.3,0.2-0.5,0.5-0.5h8.4c0.3,0,0.5,0.2,0.5,0.5v19.3H51c0.3,0,0.5,0.2,0.5,0.5v8.4c0,0.3-0.2,0.5-0.5,0.5H31.7V51
			c0,0.3-0.2,0.5-0.5,0.5H22.8z"/>
		<path class="st3" d="M31.2,3v19.8H51v8.4H31.2V51h-8.4V31.2H3v-8.4h19.8V3H31.2 M31.2,2h-8.4c-0.6,0-1,0.4-1,1v18.8H3
			c-0.6,0-1,0.4-1,1v8.4c0,0.6,0.4,1,1,1h18.8V51c0,0.6,0.4,1,1,1h8.4c0.6,0,1-0.4,1-1V32.2H51c0.6,0,1-0.4,1-1v-8.4
			c0-0.6-0.4-1-1-1H32.2V3C32.2,2.4,31.8,2,31.2,2C31.2,2,31.2,2,31.2,2z"/>
	</g>
</g>
<path class="st4" d="M27,3C13.7,3,3,13.7,3,27s10.7,24,24,24s24-10.7,24-24S40.3,3,27,3z M27,39c-6.6,0-12-5.4-12-12s5.4-12,12-12
	s12,5.4,12,12S33.6,39,27,39z"/>
<path class="st5" d="M19.4,8.1c-4.9,2-8.8,5.7-11,10.6"/>
<path class="st6" d="M27,6.6c-1,0-1.9,0.1-2.9,0.2"/>
</svg>
