<svg id="Layer_1" data-name="Layer 1" xmlns="http://www.w3.org/2000/svg" xmlns:xlink="http://www.w3.org/1999/xlink" viewBox="0 0 18 30"><defs><style>.cls-1{fill:url(#linear-gradient);}</style><linearGradient id="linear-gradient" x1="9" y1="30" x2="9" gradientUnits="userSpaceOnUse"><stop offset="0" stop-color="#475497"/><stop offset="1" stop-color="#8251a1"/></linearGradient></defs><title>contact-pin</title><path class="cls-1" d="M18,8.85A8.92,8.92,0,0,0,9,0,9.06,9.06,0,0,0,7.19.19h0A9,9,0,0,0,.72,5.47C0.63,5.69.55,5.91,0.47,6.14l0,0.09A9,9,0,0,0,5.76,17.4a2.48,2.48,0,0,1,1.56,2.19l0.5,9.12A1.38,1.38,0,0,0,8.9,30H9.2a1.38,1.38,0,0,0,1.09-1.29l0.59-9.32a2.44,2.44,0,0,1,1.56-2.08A9,9,0,0,0,18,9s0,0,0-.07S18,8.88,18,8.85ZM9,11a2,2,0,1,1,2-2A2,2,0,0,1,9,11Z"/></svg>