<?xml version="1.0" encoding="utf-8"?>
<!-- Generator: Adobe Illustrator 19.2.1, SVG Export Plug-In . SVG Version: 6.00 Build 0)  -->
<svg version="1.1" id="Layer_1" xmlns="http://www.w3.org/2000/svg" xmlns:xlink="http://www.w3.org/1999/xlink" x="0px" y="0px"
	 viewBox="0 0 54 54" style="enable-background:new 0 0 54 54;" xml:space="preserve">
<style type="text/css">
	.st0{fill:#9AD1E3;}
	.st1{fill:#52306C;}
	.st2{fill:#CCAFD0;}
	.st3{fill:#53316D;}
</style>
<g>
	<path class="st0" d="M6.1,50l3.9-4.9v-9.1c0-1.7,1.4-3.1,3.1-3.1H47c1.7,0,3,1.3,3,3v11c0,1.7-1.3,3-3,3H6.1z"/>
	<path class="st1" d="M47,34c1.1,0,2,0.9,2,2v11c0,1.1-0.9,2-2,2H8.2l2.4-3l0.4-0.5v-0.7v-8.7c0-1.1,0.9-2.1,2.1-2.1H47 M47,32H13.1
		C10.8,32,9,33.8,9,36.1v8.7L4,51h43c2.2,0,4-1.8,4-4V36C51,33.8,49.2,32,47,32L47,32z"/>
</g>
<g>
	<path class="st2" d="M7,28c-1.7,0-3-1.3-3-3V7c0-1.7,1.3-3,3-3h33.9C42.6,4,44,5.4,44,7.1v16.1l3.9,4.9H7z"/>
	<g>
		<path class="st1" d="M40.9,5C42.1,5,43,5.9,43,7.1v15.7v0.7l0.4,0.5l2.4,3H7c-1.1,0-2-0.9-2-2V7c0-1.1,0.9-2,2-2H40.9 M40.9,3H7
			C4.8,3,3,4.8,3,7v18c0,2.2,1.8,4,4,4h43l-5-6.2V7.1C45,4.8,43.2,3,40.9,3L40.9,3z"/>
	</g>
</g>
<path class="st1" d="M24,23c-1.1,0-1.9-1-1.9-2c0-1.1,1-1.9,2-1.9c1,0,1.9,0.9,1.9,2C26,22.1,25.1,23,24,23z M22.5,18.5
	c-0.2,0-0.3-0.1-0.3-0.3v-0.4c-0.3-1.4,0.4-2.8,1.7-3.4c1.2-0.7,1.4-1,1.4-1.7c0-0.6-0.5-1-1.1-1c0,0-0.1,0-0.1,0
	c-0.6,0-1.2,0.4-1.2,1.1c0,0,0,0.1,0,0.1c0,0.2-0.1,0.3-0.3,0.3h-3c-0.2,0-0.3-0.1-0.3-0.3c0,0,0,0,0,0c0-2.6,1.9-4.3,5-4.3
	c2.9,0,4.9,1.6,4.9,4c0,1.5-0.7,2.5-2.1,3.3c-1.3,0.7-1.4,1-1.4,1.7v0.4c0,0.2-0.1,0.3-0.3,0.3L22.5,18.5L22.5,18.5z"/>
<circle class="st3" cx="30" cy="42" r="2"/>
<circle class="st3" cx="38" cy="42" r="2"/>
<circle class="st3" cx="22" cy="42" r="2"/>
</svg>
