<?xml version="1.0" encoding="utf-8"?>
<!-- Generator: Adobe Illustrator 19.2.1, SVG Export Plug-In . SVG Version: 6.00 Build 0)  -->
<svg version="1.1" id="Layer_1" xmlns="http://www.w3.org/2000/svg" xmlns:xlink="http://www.w3.org/1999/xlink" x="0px" y="0px"
	 viewBox="0 0 54 54" style="enable-background:new 0 0 54 54;" xml:space="preserve">
<style type="text/css">
	.st0{fill:#CDAED2;}
	.st1{fill:#53316D;}
	.st2{fill:#8DD5E7;}
	.st3{fill:#E84344;}
	.st4{fill:#52306C;}
</style>
<title>contact</title>
<g>
	<path class="st0" d="M49.3,49.5c-0.1,0-0.1,0-0.1,0l-7.9-6H20.6c-1.2,0-2.1-0.9-2.1-2.1V20.6c0-1.2,0.9-2.1,2.1-2.1h26.8
		c1.2,0,2.1,0.9,2.1,2.1v28.7c0,0.1,0,0.1-0.1,0.2C49.4,49.5,49.3,49.5,49.3,49.5L49.3,49.5z"/>
	<path class="st1" d="M47.4,19c0.9,0,1.6,0.7,1.6,1.6l0,28.2l-7.4-5.5L41.3,43H41H20.6c-0.9,0-1.6-0.7-1.6-1.6V20.6
		c0-0.9,0.7-1.6,1.6-1.6H47.4 M47.4,18H20.6c-1.4,0-2.6,1.2-2.6,2.6v20.8c0,1.4,1.2,2.6,2.6,2.6H41l7.8,5.9c0.1,0.1,0.3,0.1,0.4,0.1
		c0,0,0,0,0,0c0.2,0,0.4-0.1,0.5-0.2c0.1-0.1,0.2-0.3,0.2-0.5V20.6C50,19.2,48.8,18,47.4,18L47.4,18z M18,41.4
		C18,41.4,18,41.4,18,41.4C18,41.4,18,41.4,18,41.4L18,41.4z M18,41.4c0,0,0,0.1,0,0.1c0,0,0,0,0,0L18,41.4C18,41.4,18,41.4,18,41.4
		L18,41.4z"/>
</g>
<g>
	<path class="st2" d="M5.5,39.7c-0.2,0-0.3-0.2-0.3-0.4V7.5C5.2,6.1,6.3,5,7.6,5h29.9C38.9,5,40,6.1,40,7.5v23.1
		c0,1.4-1.1,2.5-2.5,2.5H14.9c-0.2,0-0.4,0.1-0.6,0.2l-8.6,6.4C5.7,39.7,5.6,39.7,5.5,39.7L5.5,39.7z"/>
	<path class="st1" d="M37.5,6C38.3,6,39,6.7,39,7.4v23.1c0,0.8-0.7,1.4-1.5,1.4H14.9c-0.4,0-0.9,0.1-1.2,0.4l-7.6,5.7V7.4
		C6.2,6.7,6.8,6,7.6,6H37.5 M37.5,4H7.6C5.7,4,4.2,5.5,4.2,7.4v31.9c0,0.7,0.6,1.4,1.3,1.4c0,0,0,0,0,0c0.3,0,0.6-0.1,0.8-0.3
		l8.6-6.4h22.6c1.9,0,3.5-1.5,3.5-3.4V7.4C41,5.5,39.5,4,37.5,4L37.5,4z"/>
</g>
<g>
	<path class="st3" d="M23.6,26.4C23.6,26.4,23.6,26.4,23.6,26.4c-1.6-0.3-3-0.8-4.3-1.5c-3-1.7-4.7-4-5-6.8
		c-0.2-1.3,0.1-2.6,0.8-3.7c0.8-1.1,2-1.9,3.4-2.2c0.1,0,0.2,0,0.3,0c0.1,0,0.3,0,0.4,0c1.1,0,2.3,0.4,3.1,1.1
		c0.1,0.1,0.2,0.2,0.3,0.2c0.1-0.1,0.2-0.2,0.3-0.3c0.8-0.9,2-1.5,3.2-1.7c0.2,0,0.4,0,0.5,0c2.3,0,4.8,1.6,5,5
		c0.2,2.7-1,5.3-3.6,7.5c-1.2,1-2.5,1.7-3.9,2.3l-0.4,0.1C23.7,26.4,23.7,26.4,23.6,26.4z"/>
	<path class="st4" d="M26.7,12c2.2,0,4.3,1.5,4.5,4.5c0.2,2.6-1,5.1-3.4,7.1c-1.1,0.9-2.4,1.7-3.8,2.2l-0.4,0.1
		c-1.4-0.3-2.8-0.8-4.1-1.5c-2.8-1.6-4.5-3.7-4.7-6.4c-0.5-2.5,1.3-4.9,3.8-5.3c0.1,0,0.2,0,0.3,0c0.1,0,0.2,0,0.3,0
		c1,0,2,0.3,2.8,1c0.3,0.2,0.5,0.4,0.6,0.7c0.1-0.3,0.3-0.6,0.6-0.8c0.7-0.9,1.8-1.4,2.9-1.5C26.4,12,26.5,12,26.7,12 M26.7,11
		C26.7,11,26.7,11,26.7,11c-0.2,0-0.4,0-0.6,0c-1.4,0.1-2.6,0.8-3.5,1.8c-0.9-0.7-2.1-1.1-3.4-1.1c-0.1,0-0.3,0-0.4,0
		c-0.2,0-0.3,0-0.4,0.1c-1.5,0.3-2.9,1.1-3.7,2.4c-0.8,1.2-1.2,2.7-0.9,4.1c0.3,2.9,2.1,5.4,5.2,7.1c1.4,0.7,2.8,1.3,4.4,1.6
		c0.1,0,0.1,0,0.2,0c0.1,0,0.2,0,0.3,0l0.4-0.1c0,0,0.1,0,0.1,0c1.5-0.6,2.8-1.3,4-2.3c2.8-2.3,4.1-5,3.8-7.9
		C32,12.7,29.2,11,26.7,11L26.7,11z"/>
</g>
</svg>
