<svg id="Layer_1" data-name="Layer 1" xmlns="http://www.w3.org/2000/svg" xmlns:xlink="http://www.w3.org/1999/xlink" viewBox="0 0 54 54"><defs><style>.cls-1,.cls-10{fill:none;}.cls-2{fill:#cdaed2;}.cls-3{fill:#54336f;}.cls-4{opacity:0.3;}.cls-5{clip-path:url(#clip-path);}.cls-6{fill:#53316d;}.cls-7{opacity:0.25;}.cls-8{fill:#8dd5e7;stroke:#53316d;stroke-width:2px;}.cls-10,.cls-8{stroke-linecap:round;}.cls-10,.cls-8,.cls-9{stroke-linejoin:round;}.cls-9{fill:#e84344;stroke:#52306c;}.cls-10{stroke:#afe0f0;}</style><clipPath id="clip-path"><path class="cls-1" d="M46,16.63H18.84a3.13,3.13,0,0,0-3.13,3.13V41a3.13,3.13,0,0,0,3.13,3.13H39.36L47.14,50a1.23,1.23,0,0,0,2-1V19.76A3.13,3.13,0,0,0,46,16.63Z"/></clipPath></defs><title>contact</title><path class="cls-2" d="M47.87,49.72a0.7,0.7,0,0,1-.43-0.15l-7.91-5.93H18.83A2.63,2.63,0,0,1,16.2,41V19.76a2.63,2.63,0,0,1,2.63-2.63H46a2.63,2.63,0,0,1,2.63,2.63V49a0.7,0.7,0,0,1-.22.52A0.75,0.75,0,0,1,47.87,49.72Z"/><path class="cls-3" d="M46,17.63a2.13,2.13,0,0,1,2.13,2.13V49a0.23,0.23,0,0,1-.23.23,0.21,0.21,0,0,1-.13,0L40,43.34l-0.27-.2H18.84A2.13,2.13,0,0,1,16.7,41V19.76a2.13,2.13,0,0,1,2.13-2.13H46m0-1H18.84a3.13,3.13,0,0,0-3.13,3.13V41a3.13,3.13,0,0,0,3.13,3.13H39.36L47.14,50a1.21,1.21,0,0,0,.73.25A1.23,1.23,0,0,0,49.1,49V19.76A3.13,3.13,0,0,0,46,16.63h0Z"/><g class="cls-4"><g class="cls-5"><path class="cls-6" d="M39.28,7.79H9.35A3.45,3.45,0,0,0,5.9,11.24V43.47a1.35,1.35,0,0,0,2.17,1.08l8.58-6.43H39.28a3.45,3.45,0,0,0,3.45-3.45V11.24A3.45,3.45,0,0,0,39.28,7.79Z"/></g></g><g class="cls-5"><g class="cls-7"><path class="cls-6" d="M35.59,8.47H10.06A3.93,3.93,0,0,0,6.13,12.4V39.22a2,2,0,0,0,3.24,1.62l6.28-4.71A0.8,0.8,0,0,1,16.13,36H35.59A3.93,3.93,0,0,0,39.52,32V12.4A3.93,3.93,0,0,0,35.59,8.47Z"/></g></g><path class="cls-8" d="M38.28,4.79H8.35A3.45,3.45,0,0,0,4.9,8.24V40.47a1.35,1.35,0,0,0,2.17,1.08l8.58-6.43H38.28a3.45,3.45,0,0,0,3.45-3.45V8.24A3.45,3.45,0,0,0,38.28,4.79Z"/><path class="cls-9" d="M23.93,27.34l-0.24-.08a14.4,14.4,0,0,1-4.08-1.52c-2.8-1.6-4.48-3.84-4.72-6.56A4.72,4.72,0,0,1,19,13.66a4.41,4.41,0,0,1,3.12,1,2.76,2.76,0,0,1,.64.72,2.87,2.87,0,0,1,.56-0.8A4.45,4.45,0,0,1,26.25,13c2.32-.24,4.8,1.28,5,4.64,0.24,2.72-1,5.2-3.44,7.28a13.44,13.44,0,0,1-3.76,2.24Z"/><path class="cls-10" d="M16.16,8.47H10A1.37,1.37,0,0,0,8.58,9.84v5.79"/><line class="cls-10" x1="21.17" y1="8.47" x2="18.3" y2="8.47"/></svg>