<svg id="Layer_1" data-name="Layer 1" xmlns="http://www.w3.org/2000/svg" xmlns:xlink="http://www.w3.org/1999/xlink" viewBox="0 0 54 54"><defs><style>.cls-1,.cls-5{fill:none;}.cls-2{fill:#ededf3;}.cls-3,.cls-4{fill:#53316d;}.cls-4{opacity:0.25;}.cls-5{stroke:#325b6d;stroke-linecap:round;stroke-linejoin:round;stroke-width:2px;opacity:0.4;}.cls-6{fill:#cdaed2;}.cls-7{fill:#54336f;}.cls-8{clip-path:url(#clip-path);}.cls-9{opacity:0.3;}.cls-10{fill:#e6cee3;}</style><clipPath id="clip-path"><rect class="cls-1" x="18" y="11" width="18" height="30"/></clipPath></defs><title>contact</title><rect class="cls-2" x="14" y="5" width="26" height="44" rx="4" ry="4"/><path class="cls-3" d="M36,6a3,3,0,0,1,3,3V45a3,3,0,0,1-3,3H18a3,3,0,0,1-3-3V9a3,3,0,0,1,3-3H36m0-2H18a5,5,0,0,0-5,5V45a5,5,0,0,0,5,5H36a5,5,0,0,0,5-5V9a5,5,0,0,0-5-5h0Z"/><circle class="cls-3" cx="27" cy="45" r="2"/><circle class="cls-4" cx="27" cy="8" r="1"/><line class="cls-5" x1="10" y1="28" x2="5" y2="28"/><line class="cls-5" x1="9.27" y1="21.77" x2="5.73" y2="18.23"/><line class="cls-5" x1="9.27" y1="34.23" x2="5.73" y2="37.77"/><line class="cls-5" x1="44" y1="28" x2="49" y2="28"/><line class="cls-5" x1="44.73" y1="21.77" x2="48.27" y2="18.23"/><line class="cls-5" x1="44.73" y1="34.23" x2="48.27" y2="37.77"/><rect class="cls-6" x="17.5" y="10.5" width="19" height="31"/><path class="cls-7" d="M36,11V41H18V11H36m1-1H17V42H37V10h0Z"/><g class="cls-8"><g class="cls-9"><rect class="cls-10" x="5.4" y="28.32" width="39.06" height="3.5" transform="translate(-13.96 26.43) rotate(-45)"/></g><g class="cls-9"><rect class="cls-10" x="4.9" y="35.41" width="39.06" height="2.09" transform="translate(-18.62 27.95) rotate(-45)"/></g></g></svg>