<svg id="Layer_1" data-name="Layer 1" xmlns="http://www.w3.org/2000/svg" xmlns:xlink="http://www.w3.org/1999/xlink" viewBox="0 0 54 54"><defs><style>.cls-1,.cls-13,.cls-6{fill:none;}.cls-2{fill:#8ac984;}.cls-3{fill:#53316d;}.cls-4{clip-path:url(#clip-path);}.cls-5{opacity:0.25;}.cls-13,.cls-6{stroke:#53316d;stroke-linecap:round;stroke-linejoin:round;}.cls-7{fill:#fdeb43;}.cls-8{clip-path:url(#clip-path-2);}.cls-9{opacity:0.7;}.cls-10{fill:#fff5cc;}.cls-11{fill:#ffde1b;}.cls-12{fill:#52306c;}.cls-13{stroke-width:2px;}</style><clipPath id="clip-path"><rect class="cls-1" x="8" y="5" width="34" height="42"/></clipPath><clipPath id="clip-path-2"><path class="cls-1" d="M36,22A14,14,0,1,0,50,36,14,14,0,0,0,36,22Z"/></clipPath></defs><title>contact</title><rect class="cls-2" x="7" y="4" width="36" height="44" rx="1" ry="1"/><path class="cls-3" d="M42,5V47H8V5H42m0-2H8A2,2,0,0,0,6,5V47a2,2,0,0,0,2,2H42a2,2,0,0,0,2-2V5a2,2,0,0,0-2-2h0Z"/><g class="cls-4"><g class="cls-5"><path class="cls-3" d="M33,23A14,14,0,1,0,47,37,14,14,0,0,0,33,23Z"/></g></g><line class="cls-6" x1="8" y1="14" x2="42.51" y2="14"/><line class="cls-6" x1="8" y1="17" x2="42.51" y2="17"/><line class="cls-6" x1="8" y1="20" x2="42.51" y2="20"/><line class="cls-6" x1="8" y1="23" x2="42.51" y2="23"/><line class="cls-6" x1="8" y1="26" x2="42.51" y2="26"/><line class="cls-6" x1="8" y1="29" x2="42.51" y2="29"/><line class="cls-6" x1="8" y1="32" x2="42.51" y2="32"/><line class="cls-6" x1="8" y1="35" x2="42.51" y2="35"/><line class="cls-6" x1="8" y1="38" x2="42.51" y2="38"/><line class="cls-6" x1="8" y1="41" x2="42.51" y2="41"/><line class="cls-6" x1="8" y1="44" x2="42.51" y2="44"/><path class="cls-7" d="M36,22A14,14,0,1,0,50,36,14,14,0,0,0,36,22Z"/><g class="cls-8"><g class="cls-9"><rect class="cls-10" x="18.97" y="32.01" width="30.37" height="3.5" transform="translate(-13.87 34.04) rotate(-45)"/></g><g class="cls-9"><rect class="cls-10" x="23.71" y="37.57" width="30.37" height="1.85" transform="translate(-15.83 38.78) rotate(-45)"/></g></g><path class="cls-11" d="M36,45.5A9.5,9.5,0,1,1,45.5,36,9.51,9.51,0,0,1,36,45.5Z"/><path class="cls-12" d="M36,27a9,9,0,1,1-9,9,9,9,0,0,1,9-9m0-1A10,10,0,1,0,46,36,10,10,0,0,0,36,26h0Z"/><path class="cls-13" d="M36,22A14,14,0,1,0,50,36,14,14,0,0,0,36,22Z"/><path class="cls-10" d="M35.75,41.44a0.5,0.5,0,0,1-.5-0.5V40.7c-1.92-.24-3-1.3-3.05-2.92a0.5,0.5,0,0,1,.5-0.5h2a0.5,0.5,0,0,1,.5.47,0.41,0.41,0,0,0,.08.21V37.3L35,37.24a2.89,2.89,0,0,1-2.61-2.87c0-1.61,1.07-2.7,2.9-3V31.06a0.5,0.5,0,0,1,.5-0.5h0.82a0.5,0.5,0,0,1,.5.5V31.4a3,3,0,0,1,2.78,2.9,0.5,0.5,0,0,1-.5.51H37.43C39.56,35.25,40,36.59,40,37.65c0,1.65-1.06,2.74-2.94,3v0.27a0.5,0.5,0,0,1-.5.5H35.75Zm1.51-6.67a0.5,0.5,0,0,1-.19-0.13Z"/><path class="cls-3" d="M36.57,31.06v0.78C38.26,32,39.34,33,39.35,34.31H37.44a1,1,0,0,0-.87-0.92v1.77l0.68,0.13c1.5,0.29,2.26,1.08,2.26,2.36,0,1.5-1,2.43-2.94,2.58v0.72H35.75V40.24c-1.93-.1-3-1-3.05-2.46h2a1.1,1.1,0,0,0,1.08,1V36.9l-0.68-.15a2.4,2.4,0,0,1-2.22-2.39c0-1.48,1.06-2.4,2.9-2.53V31.06h0.82M35.75,35V33.37a0.86,0.86,0,0,0-.9.8,0.91,0.91,0,0,0,.9.82m0.82,3.74a0.91,0.91,0,0,0,1-.85,1,1,0,0,0-1-.84v1.7m0-8.68H35.75a1,1,0,0,0-1,.92,3.4,3.4,0,0,0-2.9,3.39,3.14,3.14,0,0,0,1,2.41H32.7a1,1,0,0,0-1,1,3.39,3.39,0,0,0,3.07,3.34,1,1,0,0,0,1,.82h0.82a1,1,0,0,0,1-.86,3.41,3.41,0,0,0,2.95-3.44,3.18,3.18,0,0,0-1-2.36,1,1,0,0,0,.8-1A3.43,3.43,0,0,0,37.57,31a1,1,0,0,0-1-.94h0Z"/><line class="cls-6" x1="8" y1="11" x2="42.51" y2="11"/><line class="cls-6" x1="8" y1="8" x2="42.51" y2="8"/></svg>