<svg id="Layer_1" data-name="Layer 1" xmlns="http://www.w3.org/2000/svg" viewBox="0 0 54 54"><defs><style>.cls-1{fill:#8dd5e7;}.cls-2{fill:#53316d;}</style></defs><title>contact-chat</title><path class="cls-1" d="M42,46.7a1.75,1.75,0,0,1-.85-0.21l-9-3.49H15.8A5.81,5.81,0,0,1,10,37.2V14.8A5.81,5.81,0,0,1,15.8,9H38.3a5.83,5.83,0,0,1,5.8,5.66v30a2.21,2.21,0,0,1-.69,1.51l-0.07.07-0.08.05A2.06,2.06,0,0,1,42,46.7Z"/><path class="cls-2" d="M38.3,10a4.85,4.85,0,0,1,4.8,4.7v30a1.23,1.23,0,0,1-.4.8,1.08,1.08,0,0,1-.7.2,0.76,0.76,0,0,1-.4-0.1L32.3,42H15.8A4.8,4.8,0,0,1,11,37.2V14.8A4.8,4.8,0,0,1,15.8,10H38.3m0-2H15.8A6.81,6.81,0,0,0,9,14.8V37.2A6.81,6.81,0,0,0,15.8,44H31.93l8.88,3.44A2.72,2.72,0,0,0,42,47.7a3,3,0,0,0,1.81-.54L44,47.05l0.14-.14a3.2,3.2,0,0,0,1-2.21V14.62A6.82,6.82,0,0,0,38.3,8h0Z"/><path class="cls-2" d="M37.6,33.7C37.5,33.9,33.8,37,27,37s-10.5-3.1-10.6-3.2a1,1,0,1,1,1.3-1.5,15.94,15.94,0,0,0,9.4,2.8c6.1,0,9.3-2.7,9.3-2.8a1,1,0,0,1,1.4.1,0.88,0.88,0,0,1-.2,1.3h0Z"/></svg>