<svg id="Layer_1" xmlns="http://www.w3.org/2000/svg" viewBox="0 0 54 54"><style>.st0{fill:#8dd5e7}.st1{fill:#52306c}.st2{fill:#ccafd0}.st3{fill:#53316d}</style><title>contact-chat</title><path class="st0" d="M4.1 50L8 45.1V36c0-1.7 1.4-3.1 3.1-3.1H45c1.7 0 3 1.3 3 3v11c0 1.7-1.3 3-3 3L4.1 50z"/><path class="st1" d="M45 34c1.1 0 2 .9 2 2v11c0 1.1-.9 2-2 2H6.2l2.4-3 .4-.5v-9.4c0-1.2.9-2.1 2.1-2.1H45m0-2H11.1C8.9 32 7 33.8 7 36V44.8L2 51h43c2.2 0 4-1.8 4-4V36c0-2.2-1.8-4-4-4z"/><path class="st2" d="M10 28c-1.7 0-3-1.3-3-3V7c0-1.7 1.3-3 3-3h33.9C45.6 4 47 5.4 47 7.1v16.1l3.9 4.9H10V28z"/><path class="st1" d="M43.9 5C45 5 46 5.9 46 7v16.5l.4.5 2.4 3H10c-1.1 0-2-.9-2-2V7c0-1.1.9-2 2-2h33.9m0-2H10C7.8 3 6 4.8 6 7v18c0 2.2 1.8 4 4 4h43l-5-6.2V7.1C48 4.9 46.2 3 43.9 3c.1 0 0 0 0 0z"/><path class="st1" d="M27 23c-1.1 0-2-.9-2-2s.9-2 2-2 2 .9 2 2v.1c-.1 1.1-.9 1.9-2 1.9zm-1.5-4.5c-.1 0-.3-.1-.3-.2v-.5c-.3-1.4.4-2.8 1.7-3.4 1.2-.7 1.4-1 1.4-1.7 0-.6-.4-1-1-1h-.2c-.6 0-1.2.4-1.2 1.1v.1c0 .1-.1.3-.2.3h-3.1c-.1 0-.3-.1-.3-.2v-.1c0-2.6 1.9-4.3 5-4.3 2.9 0 4.9 1.6 4.9 4 0 1.4-.8 2.7-2.1 3.3-1.3.7-1.4 1-1.4 1.7v.4c0 .1-.1.3-.2.3h-.1l-2.9.2z"/><circle class="st3" cx="28" cy="42" r="2"/><circle class="st3" cx="36" cy="42" r="2"/><circle class="st3" cx="20" cy="42" r="2"/></svg>
