<svg id="Layer_1" data-name="Layer 1" xmlns="http://www.w3.org/2000/svg" viewBox="0 0 48 48"><defs><style>.cls-1{fill:#feec44;}.cls-2{fill:#53316d;}.cls-3{fill:#fff0b3;}.cls-4{fill:#54326e;}.cls-5,.cls-6{fill:none;stroke-miterlimit:10;}.cls-5{stroke:#eacf5e;}.cls-6{stroke:#fdf8c9;}</style></defs><title>contact</title><rect class="cls-1" x="5" y="5" width="38" height="38" rx="7" ry="7"/><path class="cls-2" d="M36,6a6,6,0,0,1,6,6V36a6,6,0,0,1-6,6H12a6,6,0,0,1-6-6V12a6,6,0,0,1,6-6H36m0-2H12a8,8,0,0,0-8,8V36a8,8,0,0,0,8,8H36a8,8,0,0,0,8-8V12a8,8,0,0,0-8-8h0Z"/><path class="cls-3" d="M23.54,35.19a3.44,3.44,0,0,1-1.27-6.69h-1a1,1,0,0,1-1-.92l0-.55a5.06,5.06,0,0,1,2.83-5.61C25,20.33,25,20,25,19.41a1,1,0,0,0-1.19-.87,1.16,1.16,0,0,0-1.26,1.23,1,1,0,0,1-1,1H17.05a1,1,0,0,1-1-1c0-4.2,3.2-6.91,8-6.91s7.87,2.6,7.87,6.47c0,2.35-1.1,4.09-3.46,5.45-1.82,1-1.9,1.41-1.9,2.12V27.5a1,1,0,0,1-1,1H24.81a3.46,3.46,0,0,1,2.32,3.23A3.53,3.53,0,0,1,23.54,35.19Z"/><path class="cls-4" d="M24.07,13.81c4.16,0,6.87,2.19,6.87,5.47,0,2-.94,3.42-3,4.59s-2.4,1.7-2.4,3V27.5H21.32l0-.55a4.11,4.11,0,0,1,2.33-4.67C25.47,21.19,26,20.61,26,19.41a2,2,0,0,0-2.19-1.87,2.15,2.15,0,0,0-2.26,2.2H17.05c0-3.59,2.64-5.93,7-5.93M23.54,29.28A2.46,2.46,0,1,1,21,31.73a2.51,2.51,0,0,1,2.59-2.45m0.53-17.47c-5.42,0-9,3.1-9,7.9a2,2,0,0,0,2,2H21a6,6,0,0,0-1.7,5.4l0,0.51A2,2,0,0,0,20,29a4.35,4.35,0,0,0-1,2.77,4.59,4.59,0,0,0,9.17,0,4.35,4.35,0,0,0-1.08-2.86,2,2,0,0,0,.54-1.37V26.85a0.93,0.93,0,0,1,0-.28,4.11,4.11,0,0,1,1.37-1c2.66-1.54,4-3.61,4-6.32,0-4.4-3.65-7.47-8.87-7.47h0Zm-0.53,7.76a0.42,0.42,0,0,1,.21,0l0.18,0a0.44,0.44,0,0,1,0,.07,2.11,2.11,0,0,1-.45.37q0-.1,0-0.2a0.46,0.46,0,0,1,0-.23h0Z"/><circle class="cls-4" cx="36" cy="12" r="2.5"/><circle class="cls-4" cx="12" cy="12" r="2.5"/><circle class="cls-4" cx="36" cy="36.13" r="2.5"/><circle class="cls-4" cx="12" cy="36.13" r="2.5"/><line class="cls-5" x1="33.23" y1="14.77" x2="38.77" y2="9.23"/><line class="cls-5" x1="9.23" y1="14.77" x2="14.77" y2="9.23"/><line class="cls-5" x1="33.23" y1="38.89" x2="38.77" y2="33.36"/><line class="cls-5" x1="9.23" y1="38.89" x2="14.77" y2="33.36"/><path class="cls-6" d="M14.5,7.5H11.91A4.41,4.41,0,0,0,7.5,11.91V24"/><line class="cls-6" x1="20" y1="7.5" x2="16" y2="7.5"/></svg>