<svg id="Layer_1" data-name="Layer 1" xmlns="http://www.w3.org/2000/svg" viewBox="0 0 48 48"><defs><style>.cls-1{fill:#feec44;}.cls-2{fill:#53316d;}.cls-3{fill:#8ed6e7;}.cls-4{fill:#54326e;}.cls-5{fill:#e94444;stroke:#53316d;stroke-linejoin:round;stroke-width:2px;}</style></defs><title>contact</title><path class="cls-1" d="M34.4,37h-17A1.55,1.55,0,0,1,15.8,35.5V18.2a1.55,1.55,0,0,1,1.55-1.55h22.1A1.55,1.55,0,0,1,41,18.2V42Z"/><path class="cls-2" d="M39.45,17.65a0.55,0.55,0,0,1,.55.55V40l-4.73-3.55-0.53-.4H17.35a0.55,0.55,0,0,1-.55-0.55V18.2a0.55,0.55,0,0,1,.55-0.55h22.1m0-2H17.35A2.55,2.55,0,0,0,14.8,18.2V35.5a2.55,2.55,0,0,0,2.55,2.55H34.07L40.4,42.8a1,1,0,0,0,.6.2,1,1,0,0,0,1-1V18.2a2.55,2.55,0,0,0-2.55-2.55h0Z"/><path class="cls-3" d="M7,22.15V8.55A1.55,1.55,0,0,1,8.55,7h22.1A1.55,1.55,0,0,1,32.2,8.55v17.3a1.55,1.55,0,0,1-1.55,1.55H13.93a1,1,0,0,0-.6.2L7,32.35V22.15Z"/><path class="cls-4" d="M30.65,8a0.55,0.55,0,0,1,.55.55v17.3a0.55,0.55,0,0,1-.55.55H13.93a2,2,0,0,0-1.2.4L8,30.35V8.55A0.55,0.55,0,0,1,8.55,8h22.1m0-2H8.55A2.55,2.55,0,0,0,6,8.55v23.8a1,1,0,0,0,1,1,1,1,0,0,0,.6-0.2l6.33-4.75H30.65a2.55,2.55,0,0,0,2.55-2.55V8.55A2.55,2.55,0,0,0,30.65,6h0Z"/><path class="cls-5" d="M20.05,22.66l-0.18-.06a10.64,10.64,0,0,1-3-1.12,6.25,6.25,0,0,1-3.49-4.85,3.48,3.48,0,0,1,3.07-4.08,3.26,3.26,0,0,1,2.3.71,2,2,0,0,1,.47.53,2.12,2.12,0,0,1,.41-0.59,3.29,3.29,0,0,1,2.13-1.12,3.39,3.39,0,0,1,3.72,3.43,6.2,6.2,0,0,1-2.54,5.38,9.93,9.93,0,0,1-2.78,1.65Z"/></svg>