<svg id="Layer_1" data-name="Layer 1" xmlns="http://www.w3.org/2000/svg" xmlns:xlink="http://www.w3.org/1999/xlink" viewBox="0 0 48 48"><defs><style>.cls-1,.cls-6,.cls-7{fill:none;}.cls-2{fill:#8bca85;}.cls-3{fill:#54326e;}.cls-4{opacity:0.5;}.cls-5{clip-path:url(#clip-path);}.cls-6{stroke:#a6d59d;}.cls-6,.cls-7{stroke-linecap:round;stroke-linejoin:round;stroke-width:2px;}.cls-7{stroke:#54326e;}.cls-8{opacity:0.1;}.cls-9{fill:#0d1a2b;}.cls-10{fill:#feec44;}.cls-11{clip-path:url(#clip-path-3);}.cls-12{opacity:0.7;}.cls-13{fill:#fff5cc;}.cls-14{fill:#fdeb44;}</style><clipPath id="clip-path"><rect class="cls-1" x="6" y="6" width="30" height="36"/></clipPath><clipPath id="clip-path-3"><path class="cls-1" d="M31,17A14,14,0,1,0,45,31,14,14,0,0,0,31,17Z"/></clipPath></defs><title>contact</title><rect class="cls-2" x="5" y="5" width="32" height="38" rx="1" ry="1"/><path class="cls-3" d="M36,6V42H6V6H36m0-2H6A2,2,0,0,0,4,6V42a2,2,0,0,0,2,2H36a2,2,0,0,0,2-2V6a2,2,0,0,0-2-2h0Z"/><g class="cls-4"><g class="cls-5"><line class="cls-6" x1="6" y1="20.75" x2="36" y2="20.75"/><line class="cls-6" x1="6" y1="11.25" x2="36" y2="11.25"/><line class="cls-6" x1="6" y1="30.25" x2="36" y2="30.25"/><line class="cls-6" x1="6" y1="16" x2="36" y2="16"/><line class="cls-6" x1="6" y1="6.5" x2="36" y2="6.5"/><line class="cls-6" x1="6" y1="25.5" x2="36" y2="25.5"/><line class="cls-6" x1="6" y1="35" x2="36" y2="35"/></g></g><line class="cls-7" x1="6" y1="23.75" x2="36" y2="23.75"/><line class="cls-7" x1="6" y1="14.25" x2="36" y2="14.25"/><line class="cls-7" x1="6" y1="33.25" x2="36" y2="33.25"/><line class="cls-7" x1="6" y1="19" x2="36" y2="19"/><line class="cls-7" x1="6" y1="9.5" x2="36" y2="9.5"/><line class="cls-7" x1="6" y1="28.5" x2="36" y2="28.5"/><line class="cls-7" x1="6" y1="38" x2="36" y2="38"/><g class="cls-5"><g class="cls-8"><path class="cls-9" d="M28,18A14,14,0,1,0,42,32,14,14,0,0,0,28,18Z"/></g></g><path class="cls-10" d="M31,17A14,14,0,1,0,45,31,14,14,0,0,0,31,17Z"/><g class="cls-11"><g class="cls-12"><rect class="cls-13" x="13.97" y="27.01" width="30.37" height="3.5" transform="translate(-11.79 29.04) rotate(-45)"/></g><g class="cls-12"><rect class="cls-13" x="18.71" y="32.57" width="30.37" height="1.85" transform="translate(-13.76 33.78) rotate(-45)"/></g></g><circle class="cls-14" cx="31" cy="31" r="8"/><path class="cls-3" d="M31,24a7,7,0,1,1-7,7,7,7,0,0,1,7-7m0-2a9,9,0,1,0,9,9,9,9,0,0,0-9-9h0Z"/><path class="cls-7" d="M31,17A14,14,0,1,0,45,31,14,14,0,0,0,31,17Z"/><path class="cls-3" d="M30.75,35.94V35.24c-1.93-.1-3-1-3.05-2.46h2a1.1,1.1,0,0,0,1.08,1V31.9l-0.68-.15a2.4,2.4,0,0,1-2.22-2.39c0-1.48,1.06-2.4,2.9-2.53V26.06h0.82v0.78C33.26,27,34.34,28,34.35,29.31H32.44a1,1,0,0,0-.87-0.92v1.77l0.68,0.13c1.5,0.29,2.26,1.08,2.26,2.36,0,1.5-1,2.43-2.94,2.58v0.72H30.75Zm0-6V28.37a0.86,0.86,0,0,0-.9.8A0.91,0.91,0,0,0,30.75,30Zm0.82,2v1.7a0.91,0.91,0,0,0,1-.85A1,1,0,0,0,31.57,32Z"/></svg>