<svg id="Layer_1" data-name="Layer 1" xmlns="http://www.w3.org/2000/svg" xmlns:xlink="http://www.w3.org/1999/xlink" viewBox="0 0 159 97"><defs><style>.cls-1,.cls-12,.cls-13,.cls-21,.cls-22,.cls-24,.cls-27,.cls-6{fill:none;}.cls-2{fill:#ffecda;}.cls-3{clip-path:url(#clip-path);}.cls-4{fill:#ef737f;}.cls-5{fill:#53316d;}.cls-31,.cls-6{stroke:#53316d;}.cls-12,.cls-13,.cls-21,.cls-22,.cls-24,.cls-6{stroke-linecap:round;}.cls-12,.cls-13,.cls-24,.cls-31,.cls-6{stroke-linejoin:round;}.cls-7{fill:#8ed6e7;}.cls-8{fill:#54326e;}.cls-9{fill:#8bca85;}.cls-10,.cls-22{opacity:0.5;}.cls-11{clip-path:url(#clip-path-2);}.cls-12{stroke:#a6d59d;}.cls-13,.cls-26{stroke:#54326e;}.cls-14{opacity:0.1;}.cls-15{fill:#0d1a2b;}.cls-16{fill:#feec44;}.cls-17{clip-path:url(#clip-path-4);}.cls-18{opacity:0.7;}.cls-19{fill:#fff5cc;}.cls-20{fill:#fdeb44;}.cls-21,.cls-22{stroke:#fff8f3;}.cls-21,.cls-22,.cls-26,.cls-27{stroke-miterlimit:10;}.cls-23{fill:#eeeef3;}.cls-24{stroke:#335b6d;stroke-width:2px;opacity:0.4;}.cls-25{fill:#fafafa;}.cls-26{fill:#fafbfb;}.cls-27{stroke:#fdf8c9;}.cls-28{fill:#ceafd3;}.cls-29{clip-path:url(#clip-path-5);}.cls-30{opacity:0.25;}.cls-31{fill:#e94444;}.cls-32{clip-path:url(#clip-path-6);}.cls-33{clip-path:url(#clip-path-7);}.cls-34{clip-path:url(#clip-path-8);}.cls-35{clip-path:url(#clip-path-9);}</style><clipPath id="clip-path" transform="translate(-3 -3)"><path class="cls-1" d="M24,4A20,20,0,1,0,44,24,20,20,0,0,0,24,4Zm0,30A10,10,0,1,1,34,24,10,10,0,0,1,24,34Z"/></clipPath><clipPath id="clip-path-2" transform="translate(-3 -3)"><rect class="cls-1" x="62" y="6" width="30" height="36"/></clipPath><clipPath id="clip-path-4" transform="translate(-3 -3)"><path class="cls-1" d="M87,17a14,14,0,1,0,14,14A14,14,0,0,0,87,17Z"/></clipPath><clipPath id="clip-path-5" transform="translate(-3 -3)"><path class="cls-1" d="M95.45,71.65H73.35A2.55,2.55,0,0,0,70.8,74.2V91.5a2.55,2.55,0,0,0,2.55,2.55H90.07L96.4,98.8A1,1,0,0,0,98,98V74.2A2.55,2.55,0,0,0,95.45,71.65Z"/></clipPath><clipPath id="clip-path-6" transform="translate(-3 -3)"><circle class="cls-1" cx="36" cy="68" r="2"/></clipPath><clipPath id="clip-path-7" transform="translate(-3 -3)"><circle class="cls-1" cx="12" cy="68" r="2"/></clipPath><clipPath id="clip-path-8" transform="translate(-3 -3)"><circle class="cls-1" cx="36" cy="92.1" r="2"/></clipPath><clipPath id="clip-path-9" transform="translate(-3 -3)"><circle class="cls-1" cx="12" cy="92.1" r="2"/></clipPath></defs><title>contact</title><path class="cls-2" d="M24,4A20,20,0,1,0,44,24,20,20,0,0,0,24,4Zm0,30A10,10,0,1,1,34,24,10,10,0,0,1,24,34Z" transform="translate(-3 -3)"/><g class="cls-3"><path class="cls-4" d="M20.5,44.5A0.5,0.5,0,0,1,20,44V28H4a0.5,0.5,0,0,1-.5-0.5v-7A0.5,0.5,0,0,1,4,20H20V4a0.5,0.5,0,0,1,.5-0.5h7A0.5,0.5,0,0,1,28,4V20H44a0.5,0.5,0,0,1,.5.5v7a0.5,0.5,0,0,1-.5.5H28V44a0.5,0.5,0,0,1-.5.5h-7Z" transform="translate(-3 -3)"/><path class="cls-5" d="M27.5,4V20.5H44v7H27.5V44h-7V27.5H4v-7H20.5V4h7m0-1h-7a1,1,0,0,0-1,1V19.5H4a1,1,0,0,0-1,1v7a1,1,0,0,0,1,1H19.5V44a1,1,0,0,0,1,1h7a1,1,0,0,0,1-1V28.5H44a1,1,0,0,0,1-1v-7a1,1,0,0,0-1-1H28.5V4a1,1,0,0,0-1-1h0Z" transform="translate(-3 -3)"/></g><path class="cls-6" d="M24,4A20,20,0,1,0,44,24,20,20,0,0,0,24,4Zm0,30A10,10,0,1,1,34,24,10,10,0,0,1,24,34Z" transform="translate(-3 -3)"/><path class="cls-7" d="M23.47,36.28A3.35,3.35,0,1,1,27,32.92,3.43,3.43,0,0,1,23.47,36.28ZM20.9,28.52a0.5,0.5,0,0,1-.5-0.46l0-.63c-0.31-2.83.51-4.48,2.95-5.88,2.12-1.25,2.46-1.79,2.46-2.9a1.78,1.78,0,0,0-2-1.67A2,2,0,0,0,21.6,19a0.5,0.5,0,0,1-.5.48H15.95a0.5,0.5,0,0,1-.5-0.51c0.05-4.54,3.36-7.37,8.64-7.37,5.06,0,8.47,2.75,8.47,6.85,0,2.5-1.13,4.28-3.68,5.75-2.18,1.26-2.53,1.83-2.53,3V28a0.5,0.5,0,0,1-.5.5h-5Z" transform="translate(-3 -3)"/><path class="cls-8" d="M24.09,12.15c4.82,0,8,2.54,8,6.35,0,2.35-1.09,4-3.43,5.32-2.17,1.25-2.78,2-2.78,3.46V28h-5l0-.63c-0.3-2.71.49-4.14,2.7-5.41s2.71-1.94,2.71-3.33a2.27,2.27,0,0,0-2.54-2.17A2.49,2.49,0,0,0,21.1,19H15.95c0-4.16,3.06-6.87,8.14-6.87M23.47,30.08a2.85,2.85,0,1,1-3,2.84,2.92,2.92,0,0,1,3-2.84m0.62-18.93c-5.5,0-9.09,3.09-9.14,7.86a1,1,0,0,0,1,1H21.1a1,1,0,0,0,1-1,1.5,1.5,0,0,1,1.62-1.59,1.33,1.33,0,0,1,1.54,1.17c0,0.81-.09,1.22-2.22,2.47-2.6,1.49-3.52,3.34-3.19,6.38l0,0.6a1,1,0,0,0,1,.92h5a1,1,0,0,0,1-1V27.27c0-.93.2-1.39,2.28-2.59,2.68-1.55,3.93-3.51,3.93-6.18,0-4.39-3.6-7.35-9-7.35h0ZM23.47,29.08a3.85,3.85,0,1,0,4,3.84,3.93,3.93,0,0,0-4-3.84h0Z" transform="translate(-3 -3)"/><rect class="cls-9" x="58.5" y="2.5" width="31" height="37" rx="0.5" ry="0.5"/><path class="cls-8" d="M92,6V42H62V6H92m0-1H62a1,1,0,0,0-1,1V42a1,1,0,0,0,1,1H92a1,1,0,0,0,1-1V6a1,1,0,0,0-1-1h0Z" transform="translate(-3 -3)"/><g class="cls-10"><g class="cls-11"><line class="cls-12" x1="59" y1="17.75" x2="89" y2="17.75"/><line class="cls-12" x1="59" y1="8.25" x2="89" y2="8.25"/><line class="cls-12" x1="59" y1="27.25" x2="89" y2="27.25"/><line class="cls-12" x1="59" y1="13" x2="89" y2="13"/><line class="cls-12" x1="59" y1="3.5" x2="89" y2="3.5"/><line class="cls-12" x1="59" y1="22.5" x2="89" y2="22.5"/><line class="cls-12" x1="59" y1="32" x2="89" y2="32"/></g></g><line class="cls-13" x1="59" y1="20.75" x2="89" y2="20.75"/><line class="cls-13" x1="59" y1="11.25" x2="89" y2="11.25"/><line class="cls-13" x1="59" y1="30.25" x2="89" y2="30.25"/><line class="cls-13" x1="59" y1="16" x2="89" y2="16"/><line class="cls-13" x1="59" y1="6.5" x2="89" y2="6.5"/><line class="cls-13" x1="59" y1="25.5" x2="89" y2="25.5"/><line class="cls-13" x1="59" y1="35" x2="89" y2="35"/><g class="cls-11"><g class="cls-14"><path class="cls-15" d="M84,18A14,14,0,1,0,98,32,14,14,0,0,0,84,18Z" transform="translate(-3 -3)"/></g></g><path class="cls-16" d="M87,17a14,14,0,1,0,14,14A14,14,0,0,0,87,17Z" transform="translate(-3 -3)"/><g class="cls-17"><g class="cls-18"><rect class="cls-19" x="69.97" y="27.01" width="30.37" height="3.5" transform="translate(1.61 65.64) rotate(-45)"/></g><g class="cls-18"><rect class="cls-19" x="74.71" y="32.57" width="30.37" height="1.85" transform="translate(-0.36 70.38) rotate(-45)"/></g></g><path class="cls-20" d="M87,40.5A9.5,9.5,0,1,1,96.5,31,9.51,9.51,0,0,1,87,40.5Z" transform="translate(-3 -3)"/><path class="cls-8" d="M87,22a9,9,0,1,1-9,9,9,9,0,0,1,9-9m0-1A10,10,0,1,0,97,31,10,10,0,0,0,87,21h0Z" transform="translate(-3 -3)"/><path class="cls-13" d="M87,17a14,14,0,1,0,14,14A14,14,0,0,0,87,17Z" transform="translate(-3 -3)"/><path class="cls-8" d="M86.75,35.94V35.24c-1.93-.1-3-1-3.05-2.46h2a1.1,1.1,0,0,0,1.08,1V31.9l-0.68-.15a2.4,2.4,0,0,1-2.22-2.39c0-1.48,1.06-2.4,2.9-2.53V26.06h0.82v0.78C89.26,27,90.34,28,90.35,29.31H88.44a1,1,0,0,0-.87-0.92v1.77l0.68,0.13c1.5,0.29,2.26,1.08,2.26,2.36,0,1.5-1,2.43-2.94,2.58v0.72H86.75Zm0-6V28.37a0.86,0.86,0,0,0-.9.8A0.91,0.91,0,0,0,86.75,30Zm0.82,2v1.7a0.91,0.91,0,0,0,1-.85A1,1,0,0,0,87.57,32Z" transform="translate(-3 -3)"/><path class="cls-21" d="M17.68,8.21A17.06,17.06,0,0,0,8.5,17" transform="translate(-3 -3)"/><path class="cls-22" d="M24,7a17.14,17.14,0,0,0-2.43.17" transform="translate(-3 -3)"/><rect class="cls-23" x="124.5" y="1.5" width="25" height="39" rx="3.5" ry="3.5"/><path class="cls-8" d="M149,5a3,3,0,0,1,3,3V40a3,3,0,0,1-3,3H131a3,3,0,0,1-3-3V8a3,3,0,0,1,3-3h18m0-1H131a4,4,0,0,0-4,4V40a4,4,0,0,0,4,4h18a4,4,0,0,0,4-4V8a4,4,0,0,0-4-4h0Z" transform="translate(-3 -3)"/><rect class="cls-8" x="127" y="6" width="20" height="28"/><circle class="cls-8" cx="137" cy="37" r="2"/><circle class="cls-8" cx="137" cy="4" r="1"/><line class="cls-24" x1="121" y1="21" x2="116" y2="21"/><line class="cls-24" x1="120.27" y1="14.77" x2="116.73" y2="11.23"/><line class="cls-24" x1="120.27" y1="27.23" x2="116.73" y2="30.77"/><line class="cls-24" x1="153" y1="21" x2="158" y2="21"/><line class="cls-24" x1="153.73" y1="14.77" x2="157.27" y2="11.23"/><line class="cls-24" x1="153.73" y1="27.23" x2="157.27" y2="30.77"/><rect class="cls-16" x="1.5" y="57.5" width="39" height="39" rx="7.5" ry="7.5"/><path class="cls-5" d="M36,61a7,7,0,0,1,7,7V92a7,7,0,0,1-7,7H12a7,7,0,0,1-7-7V68a7,7,0,0,1,7-7H36m0-1H12a8,8,0,0,0-8,8V92a8,8,0,0,0,8,8H36a8,8,0,0,0,8-8V68a8,8,0,0,0-8-8h0Z" transform="translate(-3 -3)"/><path class="cls-25" d="M23.54,90.69a3,3,0,1,1,3.09-3A3,3,0,0,1,23.54,90.69ZM21.32,84a0.5,0.5,0,0,1-.5-0.46l0-.55a4.58,4.58,0,0,1,2.58-5.14c1.82-1.07,2.09-1.5,2.09-2.44A1.47,1.47,0,0,0,23.76,74,1.65,1.65,0,0,0,22,75.75a0.5,0.5,0,0,1-.5.48H17.05a0.5,0.5,0,0,1-.5-0.51c0-4,2.93-6.42,7.52-6.42,4.41,0,7.37,2.4,7.37,6,0,2.16-1,3.75-3.21,5-1.85,1.07-2.14,1.55-2.14,2.55V83.5a0.5,0.5,0,0,1-.5.5H21.32Z" transform="translate(-3 -3)"/><path class="cls-8" d="M24.07,69.81c4.16,0,6.87,2.19,6.87,5.47,0,2-.94,3.42-3,4.59s-2.4,1.7-2.4,3V83.5H21.32l0-.55a4.11,4.11,0,0,1,2.33-4.67C25.47,77.19,26,76.61,26,75.41a2,2,0,0,0-2.19-1.87,2.15,2.15,0,0,0-2.26,2.2H17.05c0-3.59,2.64-5.93,7-5.93M23.54,85.28A2.46,2.46,0,1,1,21,87.73a2.51,2.51,0,0,1,2.59-2.45m0.53-16.47c-4.82,0-8,2.71-8,6.91a1,1,0,0,0,1,1H21.5a1,1,0,0,0,1-1,1.16,1.16,0,0,1,1.26-1.23,1,1,0,0,1,1.19.87c0,0.6,0,.93-1.85,2a5.07,5.07,0,0,0-2.81,5.64l0,0.51a1,1,0,0,0,1,.92h1a3.44,3.44,0,0,0,1.26,6.69,3.53,3.53,0,0,0,3.59-3.46,3.46,3.46,0,0,0-2.32-3.23h0.79a1,1,0,0,0,1-1V82.85c0-.71.08-1.07,1.89-2.12,2.36-1.36,3.46-3.1,3.46-5.45,0-3.87-3.16-6.47-7.87-6.47h0Z" transform="translate(-3 -3)"/><circle class="cls-26" cx="33" cy="65" r="2"/><circle class="cls-26" cx="9" cy="65" r="2"/><circle class="cls-26" cx="33" cy="89.13" r="2"/><circle class="cls-26" cx="9" cy="89.13" r="2"/><path class="cls-27" d="M14.5,63.5H11.91A4.41,4.41,0,0,0,7.5,67.91V80" transform="translate(-3 -3)"/><line class="cls-27" x1="17" y1="60.5" x2="13" y2="60.5"/><path class="cls-28" d="M97,98.5a0.48,0.48,0,0,1-.3-0.1l-6.47-4.85H73.35a2.05,2.05,0,0,1-2-2V74.2a2.05,2.05,0,0,1,2-2h22.1a2.05,2.05,0,0,1,2,2V98a0.48,0.48,0,0,1-.15.36,0.52,0.52,0,0,1-.35.14h0Z" transform="translate(-3 -3)"/><path class="cls-8" d="M95.45,72.65A1.55,1.55,0,0,1,97,74.2V98l-6.33-4.75-0.27-.2H73.35A1.55,1.55,0,0,1,71.8,91.5V74.2a1.55,1.55,0,0,1,1.55-1.55h22.1m0-1H73.35A2.55,2.55,0,0,0,70.8,74.2V91.5a2.55,2.55,0,0,0,2.55,2.55H90.07L96.4,98.8a1,1,0,0,0,.6.2,1,1,0,0,0,1-1V74.2a2.55,2.55,0,0,0-2.55-2.55h0Z" transform="translate(-3 -3)"/><g class="cls-29"><g class="cls-30"><path class="cls-8" d="M87,65H66.2A3.2,3.2,0,0,0,63,68.2V90a1.65,1.65,0,0,0,2.64,1.32l5.12-3.84a0.65,0.65,0,0,1,.39-0.13H87a3.2,3.2,0,0,0,3.2-3.2v-16A3.2,3.2,0,0,0,87,65Z" transform="translate(-3 -3)"/></g></g><path class="cls-7" d="M63,88.85a0.5,0.5,0,0,1-.5-0.5V64.55a2.05,2.05,0,0,1,2-2h22.1a2.05,2.05,0,0,1,2,2v17.3a2.05,2.05,0,0,1-2,2.05H69.93a0.5,0.5,0,0,0-.3.1L63.3,88.75A0.48,0.48,0,0,1,63,88.85Z" transform="translate(-3 -3)"/><path class="cls-8" d="M86.65,63a1.55,1.55,0,0,1,1.55,1.55v17.3a1.55,1.55,0,0,1-1.55,1.55H69.93a1,1,0,0,0-.6.2L63,88.35V64.55A1.55,1.55,0,0,1,64.55,63h22.1m0-1H64.55A2.55,2.55,0,0,0,62,64.55v23.8a1,1,0,0,0,1,1,1,1,0,0,0,.6-0.2l6.33-4.75H86.65a2.55,2.55,0,0,0,2.55-2.55V64.55A2.55,2.55,0,0,0,86.65,62h0Z" transform="translate(-3 -3)"/><path class="cls-31" d="M76.05,78.66l-0.18-.06a10.64,10.64,0,0,1-3-1.12,6.25,6.25,0,0,1-3.49-4.85,3.48,3.48,0,0,1,3.07-4.08,3.26,3.26,0,0,1,2.3.71,2,2,0,0,1,.47.53,2.12,2.12,0,0,1,.41-0.59,3.29,3.29,0,0,1,2.13-1.12,3.39,3.39,0,0,1,3.72,3.43,6.2,6.2,0,0,1-2.54,5.38,9.93,9.93,0,0,1-2.78,1.65Z" transform="translate(-3 -3)"/><g class="cls-32"><rect class="cls-8" x="32.09" y="67.5" width="7.83" height="1" transform="translate(-40.54 42.37) rotate(-45)"/></g><g class="cls-33"><rect class="cls-8" x="8.09" y="67.5" width="7.83" height="1" transform="translate(-47.57 25.4) rotate(-45)"/></g><g class="cls-34"><rect class="cls-8" x="32.09" y="91.6" width="7.83" height="1" transform="translate(-57.58 49.43) rotate(-45)"/></g><g class="cls-35"><rect class="cls-8" x="8.09" y="91.6" width="7.83" height="1" transform="translate(-64.61 32.46) rotate(-45)"/></g></svg>