<svg id="Layer_1" data-name="Layer 1" xmlns="http://www.w3.org/2000/svg" xmlns:xlink="http://www.w3.org/1999/xlink" viewBox="0 0 54 54"><defs><style>.cls-1,.cls-12{fill:none;}.cls-2{fill:#fdeb43;}.cls-3{fill:#52306c;}.cls-4{fill:#ffde1b;}.cls-5{fill:#fff5cc;}.cls-6{fill:#53316d;}.cls-7{fill:#f9fafb;stroke:#53316d;}.cls-12,.cls-7{stroke-miterlimit:10;}.cls-8{clip-path:url(#clip-path);}.cls-9{clip-path:url(#clip-path-2);}.cls-10{clip-path:url(#clip-path-3);}.cls-11{clip-path:url(#clip-path-4);}.cls-12{stroke:#fffceb;}</style><clipPath id="clip-path"><circle class="cls-1" cx="40.2" cy="13.8" r="2.2"/></clipPath><clipPath id="clip-path-2"><circle class="cls-1" cx="13.8" cy="13.8" r="2.2"/></clipPath><clipPath id="clip-path-3"><circle class="cls-1" cx="40.2" cy="40.32" r="2.2"/></clipPath><clipPath id="clip-path-4"><circle class="cls-1" cx="13.8" cy="40.32" r="2.2"/></clipPath></defs><title>contact</title><rect class="cls-2" x="4" y="4" width="46" height="46" rx="9.8" ry="9.8"/><path class="cls-3" d="M40.2,5A8.83,8.83,0,0,1,49,13.8V40.2A8.83,8.83,0,0,1,40.2,49H13.8A8.83,8.83,0,0,1,5,40.2V13.8A8.83,8.83,0,0,1,13.8,5H40.2m0-2H13.8A10.81,10.81,0,0,0,3,13.8V40.2A10.81,10.81,0,0,0,13.8,51H40.2A10.81,10.81,0,0,0,51,40.2V13.8A10.81,10.81,0,0,0,40.2,3h0Z"/><rect class="cls-4" x="9.5" y="9.5" width="35" height="35" rx="4.41" ry="4.41"/><path class="cls-3" d="M40.09,10A3.92,3.92,0,0,1,44,13.91V40.09A3.92,3.92,0,0,1,40.09,44H13.91A3.92,3.92,0,0,1,10,40.09V13.91A3.92,3.92,0,0,1,13.91,10H40.09m0-1H13.91A4.93,4.93,0,0,0,9,13.91V40.09A4.93,4.93,0,0,0,13.91,45H40.09A4.93,4.93,0,0,0,45,40.09V13.91A4.93,4.93,0,0,0,40.09,9h0Z"/><path class="cls-5" d="M26.5,38.71a3.21,3.21,0,1,1,3.34-3.21A3.28,3.28,0,0,1,26.5,38.71Zm-2.44-7.36a0.5,0.5,0,0,1-.5-0.46l0-.6a5,5,0,0,1,2.81-5.6c2-1.18,2.32-1.69,2.32-2.73a1.67,1.67,0,0,0-1.91-1.56,1.88,1.88,0,0,0-2,1.94,0.5,0.5,0,0,1-.5.48H19.36a0.5,0.5,0,0,1-.5-0.51c0-4.33,3.2-7,8.22-7,4.82,0,8.06,2.62,8.06,6.52,0,2.39-1.08,4.08-3.5,5.48-2.06,1.19-2.38,1.72-2.38,2.85v0.71a0.5,0.5,0,0,1-.5.5h-4.7Z"/><path class="cls-6" d="M27.08,15.79c4.58,0,7.56,2.41,7.56,6,0,2.23-1,3.76-3.25,5-2.06,1.19-2.63,1.87-2.63,3.28v0.71h-4.7l0-.6c-0.29-2.57.47-3.93,2.56-5.13s2.57-1.84,2.57-3.16a2.16,2.16,0,0,0-2.41-2.06,2.36,2.36,0,0,0-2.48,2.42H19.36c0-3.94,2.91-6.52,7.72-6.52m-0.59,17a2.71,2.71,0,1,1-2.85,2.7,2.77,2.77,0,0,1,2.85-2.7m0.59-18c-5.25,0-8.67,2.95-8.72,7.51a1,1,0,0,0,1,1h4.89a1,1,0,0,0,1-1,1.38,1.38,0,0,1,1.49-1.45,1.21,1.21,0,0,1,1.41,1.06c0,0.75-.08,1.13-2.08,2.3-2.48,1.43-3.37,3.2-3,6.11l0,0.57a1,1,0,0,0,1,.92h1.85a3.85,3.85,0,1,0,1.18,0h1.67a1,1,0,0,0,1-1V30.14c0-.82.09-1.23,2.13-2.42,2.56-1.48,3.75-3.36,3.75-5.91,0-4.2-3.44-7-8.56-7h0Z"/><circle class="cls-7" cx="40.2" cy="13.8" r="2.2"/><circle class="cls-7" cx="13.8" cy="13.8" r="2.2"/><circle class="cls-7" cx="40.2" cy="40.34" r="2.2"/><circle class="cls-7" cx="13.8" cy="40.34" r="2.2"/><g class="cls-8"><rect class="cls-6" x="35.89" y="13.25" width="8.61" height="1.1" transform="translate(2.02 32.47) rotate(-45)"/></g><g class="cls-9"><rect class="cls-6" x="9.49" y="13.25" width="8.61" height="1.1" transform="translate(-5.72 13.8) rotate(-45)"/></g><g class="cls-10"><rect class="cls-6" x="35.89" y="39.77" width="8.61" height="1.1" transform="translate(-16.73 40.23) rotate(-45)"/></g><g class="cls-11"><rect class="cls-6" x="9.49" y="39.77" width="8.61" height="1.1" transform="translate(-24.47 21.57) rotate(-45)"/></g><path class="cls-12" d="M16,6.65H13.72a7.09,7.09,0,0,0-7.07,7.07V22.6"/><line class="cls-12" x1="23.64" y1="6.65" x2="19.36" y2="6.65"/></svg>