<svg id="Layer_1" data-name="Layer 1" xmlns="http://www.w3.org/2000/svg" xmlns:xlink="http://www.w3.org/1999/xlink" viewBox="0 0 48 48"><defs><style>.cls-1,.cls-10,.cls-6,.cls-9{fill:none;}.cls-2{fill:#ffecda;}.cls-3{clip-path:url(#clip-path);}.cls-4{fill:#ef737f;}.cls-5{fill:#53316d;}.cls-6{stroke:#53316d;stroke-linejoin:round;stroke-width:2px;}.cls-10,.cls-6,.cls-9{stroke-linecap:round;}.cls-7{fill:#8ed6e7;}.cls-8{fill:#54326e;}.cls-10,.cls-9{stroke:#fff8f3;stroke-miterlimit:10;}.cls-10{opacity:0.5;}</style><clipPath id="clip-path"><path class="cls-1" d="M24,4A20,20,0,1,0,44,24,20,20,0,0,0,24,4Zm0,30A10,10,0,1,1,34,24,10,10,0,0,1,24,34Z"/></clipPath></defs><title>contact</title><path class="cls-2" d="M24,4A20,20,0,1,0,44,24,20,20,0,0,0,24,4Zm0,30A10,10,0,1,1,34,24,10,10,0,0,1,24,34Z"/><g class="cls-3"><path class="cls-4" d="M20.5,45a1,1,0,0,1-1-1V28.5H4a1,1,0,0,1-1-1v-7a1,1,0,0,1,1-1H19.5V4a1,1,0,0,1,1-1h7a1,1,0,0,1,1,1V19.5H44a1,1,0,0,1,1,1v7a1,1,0,0,1-1,1H28.5V44a1,1,0,0,1-1,1h-7Z"/><path class="cls-5" d="M27.5,4V20.5H44v7H27.5V44h-7V27.5H4v-7H20.5V4h7m0-2h-7a2,2,0,0,0-2,2V18.5H4a2,2,0,0,0-2,2v7a2,2,0,0,0,2,2H18.5V44a2,2,0,0,0,2,2h7a2,2,0,0,0,2-2V29.5H44a2,2,0,0,0,2-2v-7a2,2,0,0,0-2-2H29.5V4a2,2,0,0,0-2-2h0Z"/></g><path class="cls-6" d="M24,4A20,20,0,1,0,44,24,20,20,0,0,0,24,4Zm0,30A10,10,0,1,1,34,24,10,10,0,0,1,24,34Z"/><path class="cls-7" d="M23.47,36.78a3.85,3.85,0,1,1,4-3.86A3.93,3.93,0,0,1,23.47,36.78ZM20.9,29a1,1,0,0,1-1-.92l0-.63A5.73,5.73,0,0,1,23,21.1c2.12-1.25,2.21-1.66,2.21-2.47a1.33,1.33,0,0,0-1.54-1.17A1.5,1.5,0,0,0,22.1,19a1,1,0,0,1-1,1H15.95a1,1,0,0,1-1-1c0.06-4.77,3.64-7.86,9.14-7.86s9,3,9,7.35c0,2.67-1.25,4.63-3.93,6.18-2.08,1.2-2.28,1.66-2.28,2.59V28a1,1,0,0,1-1,1h-5Z"/><path class="cls-8" d="M24.09,12.15c4.82,0,8,2.54,8,6.35,0,2.35-1.09,4-3.43,5.32-2.17,1.25-2.78,2-2.78,3.46V28h-5l0-.63c-0.3-2.71.49-4.14,2.7-5.41s2.71-1.94,2.71-3.33a2.27,2.27,0,0,0-2.54-2.17A2.49,2.49,0,0,0,21.1,19H15.95c0-4.16,3.06-6.87,8.14-6.87M23.47,30.08a2.85,2.85,0,1,1-3,2.84,2.92,2.92,0,0,1,3-2.84m0.62-19.93C18,10.15,14,13.62,13.95,19a2,2,0,0,0,2,2H21.1l0.29,0c-2.09,1.59-2.86,3.62-2.54,6.57l0,0.6a2,2,0,0,0,.87,1.5,4.74,4.74,0,0,0-1.3,3.25,5,5,0,0,0,10,0,4.74,4.74,0,0,0-1.38-3.33A2,2,0,0,0,27.85,28V27.27c0-.48,0-0.7,1.78-1.73,3-1.72,4.43-4,4.43-7,0-5-4-8.35-10-8.35h0Zm-1.3,9.95a2,2,0,0,0,.31-1,0.52,0.52,0,0,1,.62-0.62,0.81,0.81,0,0,1,.54.13c0,0.42,0,.61-1.47,1.5h0Z"/><path class="cls-9" d="M17.68,8.21A17.06,17.06,0,0,0,8.5,17"/><path class="cls-10" d="M24,7a17.14,17.14,0,0,0-2.43.17"/></svg>