<svg id="Layer_1" data-name="Layer 1" xmlns="http://www.w3.org/2000/svg" viewBox="0 0 48 48"><defs><style>.cls-1{fill:#eeeef3;}.cls-2{fill:#54326e;}.cls-3{fill:none;stroke:#335b6d;stroke-linecap:round;stroke-linejoin:round;stroke-width:2px;opacity:0.4;}</style></defs><title>contact</title><rect class="cls-1" x="11" y="4" width="26" height="40" rx="4" ry="4"/><path class="cls-2" d="M33,5a3,3,0,0,1,3,3V40a3,3,0,0,1-3,3H15a3,3,0,0,1-3-3V8a3,3,0,0,1,3-3H33m0-2H15a5,5,0,0,0-5,5V40a5,5,0,0,0,5,5H33a5,5,0,0,0,5-5V8a5,5,0,0,0-5-5h0Z"/><rect class="cls-2" x="14" y="9" width="20" height="28"/><circle class="cls-2" cx="24" cy="40" r="2"/><circle class="cls-2" cx="24" cy="7" r="1"/><line class="cls-3" x1="7" y1="24" x2="2" y2="24"/><line class="cls-3" x1="6.27" y1="17.77" x2="2.73" y2="14.23"/><line class="cls-3" x1="6.27" y1="30.23" x2="2.73" y2="33.77"/><line class="cls-3" x1="41" y1="24" x2="46" y2="24"/><line class="cls-3" x1="41.73" y1="17.77" x2="45.27" y2="14.23"/><line class="cls-3" x1="41.73" y1="30.23" x2="45.27" y2="33.77"/><path class="cls-1" d="M30,16a1,1,0,0,1,1,1V29a1,1,0,0,1-1,1H18a1,1,0,0,1-1-1V17a1,1,0,0,1,1-1H30m0-1H18a2,2,0,0,0-2,2V29a2,2,0,0,0,2,2H30a2,2,0,0,0,2-2V17a2,2,0,0,0-2-2h0Z"/><rect class="cls-1" x="21" y="18" width="6" height="6" rx="3" ry="3"/><path class="cls-1" d="M26,25H22a3,3,0,0,0-3,3h0v1H29V28h0A3,3,0,0,0,26,25Z"/></svg>