<svg xmlns="http://www.w3.org/2000/svg" viewBox="0 0 54 54"><title>Asset 1</title><g id="Layer_2" data-name="Layer 2"><g id="Layer_1-2" data-name="Layer 1"><path d="M3.812,49.186l3.209-4.031a.2.2,0,0,0,.044-.125V36a3.109,3.109,0,0,1,3.1-3.1l33.644.1a3,3,0,0,1,3,3V47a2.946,2.946,0,0,1-3,3H4.2A.5.5,0,0,1,3.812,49.186Z" fill="#8dd5e7" stroke="#53316d" stroke-miterlimit="10" stroke-width="2"/><path d="M9.934,28a2.946,2.946,0,0,1-3-3V7a3,3,0,0,1,3-3h33.9a3.109,3.109,0,0,1,3.1,3.1V23.13a.2.2,0,0,0,.044.125l3.211,4.034a.5.5,0,0,1-.391.811Z" fill="#ccafd0" stroke="#53316d" stroke-miterlimit="10" stroke-width="2"/><path d="M14.437,7h1.937" fill="none" stroke="#fff" stroke-linecap="round" stroke-linejoin="round" stroke-width="1.073" opacity="0.4"/><path d="M9.934,11V8a1,1,0,0,1,1-1H12.5" fill="none" stroke="#fff" stroke-linecap="round" stroke-linejoin="round" stroke-width="1.073" opacity="0.4"/><path d="M9.934,40V37a1,1,0,0,1,1-1h2.221" fill="none" stroke="#fff" stroke-linecap="round" stroke-linejoin="round" stroke-width="1.073" opacity="0.4"/><circle cx="26.934" cy="42" r="2" fill="#53316d"/><circle cx="34.934" cy="42" r="2" fill="#53316d"/><circle cx="18.934" cy="42" r="2" fill="#53316d"/><path d="M27.945,8.106c2.6,0,4.872,1.308,4.872,4a4.023,4.023,0,0,1-2.18,3.509c-1.275.894-1.766,1.242-1.766,2.441v.556H26.125L26.1,18a3.7,3.7,0,0,1,1.918-3.553c1.024-.708,1.678-1.177,1.678-2.18a1.731,1.731,0,0,0-1.929-1.755,1.9,1.9,0,0,0-1.994,2.049H22.954C22.845,9.326,25.417,8.106,27.945,8.106Zm-.4,12.2a1.6,1.6,0,1,1-1.733,1.591A1.628,1.628,0,0,1,27.542,20.3Z" fill="#52306c"/><rect width="54" height="54" fill="none"/></g></g></svg>