<svg id="Layer_1" data-name="Layer 1" xmlns="http://www.w3.org/2000/svg" viewBox="0 0 95 53.94"><title>logo-docker</title><path id="outline" d="M57.434,40.063H65.95V48.77h4.306a18.674,18.674,0,0,0,5.917-.993,15.149,15.149,0,0,0,2.877-1.3,10.68,10.68,0,0,1-2-5.505c-0.245-2.657.291-6.116,2.089-8.2l0.9-1.036L81.105,32.6c2.686,2.158,4.945,5.173,5.343,8.611a13.017,13.017,0,0,1,9.882.919L97.5,42.8,96.884,44c-2.411,4.705-7.451,6.163-12.379,5.9C77.132,68.275,61.078,76.97,41.614,76.97c-10.056,0-19.282-3.759-24.536-12.681l-0.086-.146-0.766-1.557A24.7,24.7,0,0,1,14.26,50.057l0.12-1.288h7.283V40.063H30.18V31.547H47.214V23.03h10.22V40.063Z" transform="translate(-2.5 -23.03)" style="fill:#394d54;fill-rule:evenodd"/><g id="body_colors" data-name="body colors"><path d="M85.027,43.284c0.571-4.438-2.75-7.924-4.81-9.579-2.373,2.744-2.742,9.937.981,12.965-2.078,1.846-6.457,3.519-10.941,3.519H15.674a23,23,0,0,0,2.262,12.681l0.621,1.136a21.036,21.036,0,0,0,1.287,1.931h0q3.366,0.216,6.206.152h0a30.439,30.439,0,0,0,9.055-1.318,0.656,0.656,0,0,1,.429,1.239c-0.306.106-.625,0.205-0.954,0.3h0a28.5,28.5,0,0,1-6.259,1.02c0.148,0-.155.022-0.156,0.022-0.085.005-.192,0.017-0.278,0.022-0.986.055-2.051,0.067-3.139,0.067-1.19,0-2.363-.023-3.673-0.089l-0.034.022C25.589,72.485,32.7,75.55,41.614,75.55c18.865,0,34.866-8.363,41.951-27.137,5.027,0.516,9.858-.766,12.056-5.056C92.12,41.337,87.619,41.982,85.027,43.284Z" transform="translate(-2.5 -23.03)" style="fill:#00aada"/><path d="M85.027,43.284c0.571-4.438-2.75-7.924-4.81-9.579-2.373,2.744-2.742,9.937.981,12.965-2.078,1.846-6.457,3.519-10.941,3.519H18.906c-0.223,7.168,2.437,12.61,7.144,15.9h0a30.439,30.439,0,0,0,9.055-1.318,0.656,0.656,0,0,1,.429,1.239c-0.306.106-.625,0.205-0.954,0.3h0a29.964,29.964,0,0,1-6.426,1.064l-0.062-.058c6.42,3.293,15.729,3.281,26.4-.818C66.462,61.9,77.6,53.14,85.368,43.122Q85.193,43.2,85.027,43.284Z" transform="translate(-2.5 -23.03)" style="fill:#24b8eb"/><path d="M15.776,55.876a21.827,21.827,0,0,0,2.16,6.993l0.621,1.136a21,21,0,0,0,1.287,1.931q3.366,0.216,6.207.152a30.439,30.439,0,0,0,9.055-1.318,0.656,0.656,0,0,1,.429,1.239c-0.306.106-.625,0.205-0.954,0.3h0a29.952,29.952,0,0,1-6.415,1.042c-0.086.005-.236,0.006-0.323,0.011-0.986.055-2.039,0.089-3.128,0.089-1.19,0-2.407-.023-3.718-0.089,4.548,5.112,11.7,8.189,20.617,8.189,16.15,0,30.2-6.13,38.356-19.674H15.776Z" transform="translate(-2.5 -23.03)" style="fill:#008bb8"/><path d="M19.4,55.876a16.393,16.393,0,0,0,6.654,10.212,30.439,30.439,0,0,0,9.055-1.318,0.656,0.656,0,0,1,.429,1.239c-0.306.106-.625,0.205-0.954,0.3h0a30.4,30.4,0,0,1-6.46,1.042c6.42,3.293,15.7,3.245,26.374-.854A69.717,69.717,0,0,0,72.74,55.876H19.4Z" transform="translate(-2.5 -23.03)" style="fill:#039bc6"/></g><g id="Containers"><path d="M29.266,42.1h0.583v6.151H29.266V42.1Zm-1.118,0h0.606v6.151H28.148V42.1Zm-1.119,0h0.606v6.151H27.029V42.1Zm-1.119,0h0.606v6.151H25.911V42.1Zm-1.118,0H25.4v6.151H24.792V42.1Zm-1.1,0H24.28v6.151H23.7V42.1Zm-0.615-.615h7.381v7.381H23.082V41.483Z" transform="translate(-2.5 -23.03)" style="fill:#00acd3;fill-rule:evenodd"/><path d="M37.783,33.581h0.583v6.151H37.783V33.581Zm-1.118,0H37.27v6.151H36.665V33.581Zm-1.119,0h0.606v6.151H35.546V33.581Zm-1.119,0h0.606v6.151H34.427V33.581Zm-1.118,0h0.605v6.151H33.31V33.581Zm-1.1,0H32.8v6.151H32.214V33.581ZM31.6,32.966h7.382v7.381H31.6V32.966Z" transform="translate(-2.5 -23.03)" style="fill:#00acd3;fill-rule:evenodd"/><path d="M37.783,42.1h0.583v6.151H37.783V42.1Zm-1.118,0H37.27v6.151H36.665V42.1Zm-1.119,0h0.606v6.151H35.546V42.1Zm-1.119,0h0.606v6.151H34.427V42.1Zm-1.118,0h0.605v6.151H33.31V42.1Zm-1.1,0H32.8v6.151H32.214V42.1ZM31.6,41.483h7.382v7.381H31.6V41.483Z" transform="translate(-2.5 -23.03)" style="fill:#20c2ef;fill-rule:evenodd"/><path d="M46.3,42.1h0.582v6.151H46.3V42.1Zm-1.119,0h0.606v6.151H45.181V42.1Zm-1.118,0h0.606v6.151H44.063V42.1Zm-1.119,0H43.55v6.151H42.945V42.1Zm-1.119,0h0.606v6.151H41.826V42.1Zm-1.095,0h0.582v6.151H40.731V42.1Zm-0.615-.615H47.5v7.381H40.116V41.483Z" transform="translate(-2.5 -23.03)" style="fill:#00acd3;fill-rule:evenodd"/><path d="M46.3,33.581h0.582v6.151H46.3V33.581Zm-1.119,0h0.606v6.151H45.181V33.581Zm-1.118,0h0.606v6.151H44.063V33.581Zm-1.119,0H43.55v6.151H42.945V33.581Zm-1.119,0h0.606v6.151H41.826V33.581Zm-1.095,0h0.582v6.151H40.731V33.581Zm-0.615-.615H47.5v7.381H40.116V32.966Z" transform="translate(-2.5 -23.03)" style="fill:#20c2ef;fill-rule:evenodd"/><path d="M54.817,42.1H55.4v6.151H54.817V42.1Zm-1.118,0H54.3v6.151H53.7V42.1Zm-1.119,0h0.606v6.151H52.58V42.1Zm-1.119,0h0.606v6.151H51.461V42.1Zm-1.118,0h0.606v6.151H50.343V42.1Zm-1.1,0h0.582v6.151H49.248V42.1Zm-0.615-.615h7.381v7.381H48.633V41.483Z" transform="translate(-2.5 -23.03)" style="fill:#20c2ef;fill-rule:evenodd"/><path d="M54.817,33.581H55.4v6.151H54.817V33.581Zm-1.118,0H54.3v6.151H53.7V33.581Zm-1.119,0h0.606v6.151H52.58V33.581Zm-1.119,0h0.606v6.151H51.461V33.581Zm-1.118,0h0.606v6.151H50.343V33.581Zm-1.1,0h0.582v6.151H49.248V33.581Zm-0.615-.615h7.381v7.381H48.633V32.966Z" transform="translate(-2.5 -23.03)" style="fill:#00acd3;fill-rule:evenodd"/><path d="M54.817,25.064H55.4v6.151H54.817V25.064Zm-1.118,0H54.3v6.151H53.7V25.064Zm-1.119,0h0.606v6.151H52.58V25.064Zm-1.119,0h0.606v6.151H51.461V25.064Zm-1.118,0h0.606v6.151H50.343V25.064Zm-1.1,0h0.582v6.151H49.248V25.064Zm-0.615-.615h7.381v7.381H48.633V24.449Z" transform="translate(-2.5 -23.03)" style="fill:#20c2ef;fill-rule:evenodd"/><path d="M63.333,42.1h0.582v6.151H63.333V42.1Zm-1.118,0h0.605v6.151H62.215V42.1Zm-1.119,0H61.7v6.151H61.1V42.1Zm-1.118,0h0.606v6.151H59.978V42.1Zm-1.119,0h0.606v6.151H58.86V42.1Zm-1.1,0h0.583v6.151H57.764V42.1Zm-0.615-.615h7.381v7.381H57.15V41.483Z" transform="translate(-2.5 -23.03)" style="fill:#00acd3;fill-rule:evenodd"/></g><path d="M38.519,60.832a2.036,2.036,0,1,1-2.036,2.036,2.037,2.037,0,0,1,2.036-2.036" transform="translate(-2.5 -23.03)" style="fill:#d4edf1;fill-rule:evenodd"/><path d="M38.519,61.41a1.458,1.458,0,0,1,.528.1,0.595,0.595,0,1,0,.819.8,1.459,1.459,0,1,1-1.347-.9" transform="translate(-2.5 -23.03)" style="fill:#394d54;fill-rule:evenodd"/><path d="M2.5,56.612H97.228c-2.063-.523-6.526-1.23-5.79-3.933-3.75,4.34-12.8,3.045-15.078.9C73.818,57.27,59.02,55.869,57.988,53c-3.187,3.74-13.061,3.74-16.248,0-1.032,2.872-15.83,4.274-18.372.587-2.283,2.14-11.327,3.435-15.077-.9,0.736,2.7-3.727,3.41-5.79,3.933" transform="translate(-2.5 -23.03)" style="fill:#394d54;fill-rule:evenodd"/><path d="M43.932,75.506c-5.043-2.393-7.811-5.646-9.351-9.2a31.233,31.233,0,0,1-6.741,1.023q-1.479.083-3.111,0.084-1.881,0-3.963-.111c4.625,4.622,10.314,8.181,20.849,8.246Q42.78,75.55,43.932,75.506Z" transform="translate(-2.5 -23.03)" style="fill:#bfdbe0"/><path d="M36.454,69.585a17.664,17.664,0,0,1-1.872-3.277,31.229,31.229,0,0,1-6.743,1.024A21.461,21.461,0,0,0,36.454,69.585Z" transform="translate(-2.5 -23.03)" style="fill:#d4edf1"/></svg>