<svg id="dockerfile" xmlns="http://www.w3.org/2000/svg" viewBox="0 0 29.998 30"><title>dockerfile</title><rect width="29.998" height="29.998" fill="none"/><path d="M7.034,29.41a4.722,4.722,0,0,1-4.752-4.559V5.067A4.835,4.835,0,0,1,7.139.545h9.64l10.94,10.94V24.978A4.6,4.6,0,0,1,23.088,29.5Z" transform="translate(-0.001)" fill="#fff"/><path d="M7.139,1.045h9.432L27.219,11.692V24.974A4.1,4.1,0,0,1,23.074,29l-16.04-.09a4.216,4.216,0,0,1-4.253-4.061V5.071A4.324,4.324,0,0,1,7.139,1.045m0-1A5.322,5.322,0,0,0,1.781,5.067V24.849A5.24,5.24,0,0,0,7.031,29.91L23.068,30h0.02a5.119,5.119,0,0,0,5.131-5.022v-13.7L16.986,0.045H7.139Z" transform="translate(-0.001)" fill="#52306c"/><polygon points="17.321 10.828 17.321 1.117 27.229 10.828 17.321 10.828" fill="#52306c"/><path d="M17.772,2.188l8.356,8.191H17.772V2.188m-0.9-2.142V11.278h11.46L16.872,0.045h0Z" transform="translate(-0.001)" fill="#52306c"/><path d="M23.467,17.716a2.721,2.721,0,0,0-2.065-.192,2.835,2.835,0,0,0-1.117-1.8l-0.223-.179-0.187.216a2.43,2.43,0,0,0-.437,1.713,2.232,2.232,0,0,0,.417,1.151,3.166,3.166,0,0,1-.6.272,3.9,3.9,0,0,1-1.237.207H6.339l-0.025.269a5.163,5.163,0,0,0,.411,2.619l0.16,0.325L6.9,22.348A5.643,5.643,0,0,0,12.031,25C16.1,25,19.454,23.181,21,19.342a2.574,2.574,0,0,0,2.587-1.234l0.129-.251Z" transform="translate(-0.001)" fill="#158cb6"/><polygon points="17.116 17.284 15.336 17.284 15.336 13.724 13.2 13.724 13.2 15.504 9.64 15.504 9.64 17.284 7.86 17.284 7.86 19.104 17.116 19.104 17.116 17.284" fill="#00acd3"/></svg>