<svg id="Layer_1" data-name="Layer 1" xmlns="http://www.w3.org/2000/svg" viewBox="0 0 29.999 30.001"><title>dockerfile</title><rect width="29.999" height="29.999" fill="none"/><path d="M7.033,29.411A4.926,4.926,0,0,1,3.7,28.058,4.379,4.379,0,0,1,2.28,24.853V5.067A4.836,4.836,0,0,1,7.138.545l9.64-.044,10.94,10.984V24.979A4.6,4.6,0,0,1,23.088,29.5Z" transform="translate(0 0)" fill="#fff"/><path d="M16.572,1l10.647,10.69V24.975A4.1,4.1,0,0,1,23.074,29l-16.04-.09A4.42,4.42,0,0,1,4.045,27.7,3.889,3.889,0,0,1,2.78,24.85V5.071A4.33,4.33,0,0,1,7.163,1.045L16.572,1m0.413-1-9.827.045H7.138A5.322,5.322,0,0,0,1.78,5.068V24.85a5.24,5.24,0,0,0,5.25,5.061L23.068,30h0.02a5.119,5.119,0,0,0,5.131-5.022v-13.7L16.985,0h0Z" transform="translate(0 0)" fill="#b3b3b3"/><path d="M17.563,11.188a0.5,0.5,0,0,1-.5-0.5v-9.9l10.358,10.4H17.563Z" transform="translate(0 0)" fill="#f2f2f2"/><path d="M17.563,2l8.656,8.69H17.563V2M16.985,0L16.563,0V10.688a1,1,0,0,0,1,1H28.219V11.279L16.985,0h0Z" transform="translate(0 0)" fill="#b3b3b3"/><path d="M23.467,17.717a2.721,2.721,0,0,0-2.066-.192,2.835,2.835,0,0,0-1.117-1.8l-0.223-.179-0.187.216a2.431,2.431,0,0,0-.437,1.713,2.232,2.232,0,0,0,.417,1.151,3.166,3.166,0,0,1-.6.272,3.9,3.9,0,0,1-1.237.207H6.338l-0.025.269a5.163,5.163,0,0,0,.411,2.619l0.16,0.325L6.9,22.349A5.643,5.643,0,0,0,12.03,25C16.1,25,19.454,23.182,21,19.343a2.574,2.574,0,0,0,2.587-1.234l0.129-.251Z" transform="translate(0 0)" fill="#158cb6"/><polygon points="17.117 17.285 15.337 17.285 15.337 13.725 13.201 13.725 13.201 15.505 9.64 15.505 9.64 17.285 7.86 17.285 7.86 19.105 17.117 19.105 17.117 17.285" fill="#00acd3"/></svg>