<svg id="Layer_1" data-name="Layer 1" xmlns="http://www.w3.org/2000/svg" viewBox="0 0 60 60"><title>guide-python</title><rect width="60" height="60" fill="none"/><g id="Layer_7" data-name="Layer 7"><path id="path1948" d="M29.774,10.79a26.178,26.178,0,0,0-4.38.374c-3.879.685-4.583,2.119-4.583,4.764v3.493h9.166v1.164H17.371a5.723,5.723,0,0,0-5.726,4.647,17.13,17.13,0,0,0,0,9.316C12.3,37.262,13.853,39.2,16.517,39.2h3.151V35.008a5.825,5.825,0,0,1,5.726-5.694h9.155a4.618,4.618,0,0,0,4.583-4.658V15.929c0-2.484-2.1-4.35-4.583-4.764A28.557,28.557,0,0,0,29.774,10.79ZM24.817,13.6a1.747,1.747,0,1,1-1.72,1.752A1.739,1.739,0,0,1,24.817,13.6Z"/><path id="path1950" d="M40.275,20.586v4.07a5.878,5.878,0,0,1-5.726,5.811H25.394a4.676,4.676,0,0,0-4.583,4.658v8.728c0,2.484,2.16,3.945,4.583,4.657a15.331,15.331,0,0,0,9.155,0c2.307-.668,4.583-2.013,4.583-4.657V40.36H29.977V39.2H43.714c2.664,0,3.657-1.858,4.583-4.647,0.957-2.871.916-5.633,0-9.316-0.658-2.652-1.916-4.647-4.583-4.647h-3.44Zm-5.149,22.1a1.747,1.747,0,1,1-1.72,1.741A1.73,1.73,0,0,1,35.126,42.689Z"/></g></svg>