<svg id="Layer_1" data-name="Layer 1" xmlns="http://www.w3.org/2000/svg" viewBox="0 0 60 60"><title>guide-mysql</title><path d="M55.254,46.124a18.732,18.732,0,0,0-7.91,1.117c-0.607.256-1.576,0.263-1.675,1.024a7.291,7.291,0,0,1,.651,1.3,10.276,10.276,0,0,0,2.141,2.513c0.84,0.634,1.706,1.312,2.606,1.861,1.6,0.977,3.39,1.534,4.932,2.513,0.909,0.577,1.812,1.3,2.7,1.954A5.238,5.238,0,0,0,60,59.433V59.34c-0.3-.381-0.376-0.905-0.651-1.3l-1.21-1.21a19.852,19.852,0,0,0-4.281-4.095c-1.273-.914-4.122-2.148-4.653-3.629l-0.093-.093a20.456,20.456,0,0,0,2.792-.651c1.4-.375,2.65-0.278,4.095-0.651l1.954-.558V46.776c-0.731-.75-1.251-1.741-2.048-2.42a59.738,59.738,0,0,0-6.7-5.026c-1.3-.82-2.9-1.353-4.281-2.048a4.938,4.938,0,0,1-1.583-.745,19.7,19.7,0,0,1-1.675-3.164c-1.168-2.25-2.316-4.706-3.35-7.073a38.116,38.116,0,0,0-2.047-4.653C32.043,14.7,27.495,10.507,20.449,6.385A18.964,18.964,0,0,0,15.237,4.71l-3.071-.186a16.338,16.338,0,0,1-1.861-1.4C7.97,1.653,1.983-1.554.254,2.663-0.838,5.324,1.885,7.922,2.859,9.27a19.973,19.973,0,0,1,2.047,3.071c0.321,0.7.377,1.4,0.652,2.141A49.265,49.265,0,0,0,7.7,19.973a19.448,19.448,0,0,0,1.489,2.513,2.9,2.9,0,0,1,1.023,1.4c-0.575.8-.607,2.052-0.93,3.071-1.454,4.586-.906,10.287,1.21,13.681,0.649,1.042,2.178,3.277,4.281,2.42,1.839-.749,1.428-3.071,1.954-5.119A3,3,0,0,1,17,36.818v0.093l1.675,3.35a22.8,22.8,0,0,0,5.3,5.491c0.967,0.73,1.728,1.993,2.978,2.42V48.079H26.87a5.237,5.237,0,0,0-.93-0.838,21.328,21.328,0,0,1-2.141-2.42,56.633,56.633,0,0,1-4.56-7.445c-0.652-1.252-1.219-2.634-1.769-3.909-0.212-.492-0.209-1.234-0.651-1.489a18.6,18.6,0,0,0-1.954,2.792,23.9,23.9,0,0,0-1.117,6.142,0.322,0.322,0,0,0-.187.093c-1.3-.313-1.752-1.647-2.233-2.792a17.593,17.593,0,0,1-.373-10.889c0.277-.862,1.531-3.578,1.024-4.374a6.881,6.881,0,0,0-1.489-1.862A14.644,14.644,0,0,1,9,18.484c-1-2.257-1.463-4.791-2.513-7.073A20.651,20.651,0,0,0,4.441,8.247,18.451,18.451,0,0,1,2.208,5.082a1.9,1.9,0,0,1-.186-1.675A0.737,0.737,0,0,1,2.58,2.849c0.54-.416,2.043.138,2.605,0.372a22.682,22.682,0,0,1,4,2.048,8.56,8.56,0,0,0,1.954,1.4h0.838c1.31,0.3,2.778.094,4,.465a24.2,24.2,0,0,1,5.863,2.792,36.3,36.3,0,0,1,12.75,13.96c0.483,0.926.692,1.81,1.117,2.792,0.858,1.981,1.938,4.019,2.792,5.956a27.814,27.814,0,0,0,2.885,5.491c0.633,0.845,3.077,1.3,4.188,1.768a24.674,24.674,0,0,1,2.792,1.117c1.409,0.85,2.774,1.862,4.1,2.792C53.123,44.263,55.153,45.284,55.254,46.124Z" transform="translate(0)"/><rect width="60" height="60" fill="none"/></svg>