<svg id="Layer_1" data-name="Layer 1" xmlns="http://www.w3.org/2000/svg" viewBox="0 0 60 60"><title>guide-python</title><rect width="60" height="60" fill="none"/><path d="M34.071,27.2a4.071,4.071,0,0,0,4.071-4.071v-6.7s-0.014-2.729-1.357-4.071C35.415,10.986,31.357,11,31.357,11H24.571A7.776,7.776,0,0,0,20.5,13.714c-1.37,2.055-1.357,5.428-1.357,5.428H29.321a0.679,0.679,0,0,1,0,1.358H17.786S11,20.415,11,30l5.429,9.5V33.987A6.786,6.786,0,0,1,23.215,27.2H34.071ZM23.511,17.022a1.654,1.654,0,1,1,1.654-1.654A1.654,1.654,0,0,1,23.511,17.022ZM43.571,20.5v5.429a6.786,6.786,0,0,1-6.786,6.786H25.929a4.071,4.071,0,0,0-4.071,4.071v6.786s0.014,2.729,1.357,4.071C24.585,49.014,27.286,49,27.286,49h8.143A7.776,7.776,0,0,0,39.5,46.286c1.37-2.055,1.357-5.429,1.357-5.429H30.679a0.679,0.679,0,0,1,0-1.358H42.215S49,39.584,49,30ZM36.489,42.978a1.654,1.654,0,1,1-1.654,1.654A1.654,1.654,0,0,1,36.489,42.978Z" transform="translate(0 0)"/></svg>