<svg id="simple_setup" data-name="simple setup" xmlns="http://www.w3.org/2000/svg" xmlns:xlink="http://www.w3.org/1999/xlink" viewBox="0 0 750 264.315"><defs><clipPath id="clip-path" transform="translate(0 0)"><rect id="mask" width="750" height="262" fill="none"/></clipPath></defs><title>setup-simple</title><g clip-path="url(#clip-path)"><g id="ui"><g id="modal_bg" data-name="modal bg"><path d="M1,262.815V6A5.006,5.006,0,0,1,6,1H744a5.006,5.006,0,0,1,5,5V262.815H1Z" transform="translate(0 0)" fill="#fff"/><path d="M744,2a4,4,0,0,1,4,4V261.815H2V6A4,4,0,0,1,6,2H744m0-2H6A6,6,0,0,0,0,6V263.815H750V6a6,6,0,0,0-6-6h0Z" transform="translate(0 0)" fill="#e6e6e5"/></g><rect id="modal_body" data-name="modal body" x="2" y="128" width="746" height="135.339" fill="#fafafa"/><g id="close"><line x1="722.939" y1="17.333" x2="733.606" y2="28" fill="none" stroke="#e0e0e0" stroke-linecap="round" stroke-miterlimit="10" stroke-width="2"/><line x1="733.606" y1="17.333" x2="722.939" y2="28" fill="none" stroke="#e0e0e0" stroke-linecap="round" stroke-miterlimit="10" stroke-width="2"/></g><line id="border" x1="1" y1="128" x2="749" y2="128" fill="none" stroke="#e6e6e5" stroke-miterlimit="10"/><g id="title"><circle cx="297.901" cy="22.667" r="4.5" fill="#75c37f"/><path id="Rectangle-236-Copy-4" d="M318.1,18.167h134a4.481,4.481,0,0,1,4.5,4.463q0,0.019,0,.037h0a4.481,4.481,0,0,1-4.463,4.5H318.1a4.481,4.481,0,0,1-4.5-4.463q0-.019,0-0.037h0a4.481,4.481,0,0,1,4.463-4.5H318.1Z" transform="translate(0 0)" fill="#eee"/></g><text transform="translate(38.659 191.936)" font-size="18" fill="#9c9c9c" font-family="San Francisco Display">E<tspan x="10.095" y="0">x</tspan><tspan x="19.208" y="0">p</tspan><tspan x="29.565" y="0">o</tspan><tspan x="39.576" y="0">s</tspan><tspan x="48.524" y="0">e</tspan><tspan x="58.201" y="0">d </tspan><tspan x="72.329" y="0">P</tspan><tspan x="82.667" y="0">o</tspan><tspan x="92.625" y="0">r</tspan><tspan x="99.434" y="0">t</tspan><tspan x="105.849" y="0">s</tspan></text><g id="ports_input" data-name="ports input"><path d="M243.478,163.031H708.5a3,3,0,0,1,3,3v97.784a0,0,0,0,1,0,0H240.478a0,0,0,0,1,0,0V166.031A3,3,0,0,1,243.478,163.031Z" fill="#fff" stroke="#e6e6e5" stroke-miterlimit="10"/><text transform="translate(426.366 191.525)" font-size="16" fill="#b6b6b7" font-family="San Francisco Display">A<tspan x="9.241" y="0">d</tspan><tspan x="18.292" y="0">d </tspan><tspan x="30.687" y="0">p</tspan><tspan x="39.707" y="0">o</tspan><tspan x="48.477" y="0">r</tspan><tspan x="54.288" y="0">t</tspan><tspan x="59.677" y="0">s </tspan><tspan x="70.728" y="0">h</tspan><tspan x="79.705" y="0">e</tspan><tspan x="88.143" y="0">r</tspan><tspan x="93.464" y="0">e</tspan></text><g id="ports"><rect x="249.478" y="173.531" width="42" height="24" rx="3" ry="3" fill="none" stroke="#8151a1" stroke-miterlimit="10"/><text transform="translate(254.026 191.525)" font-size="16" fill="#8151a1" font-family="San Francisco Display">8<tspan x="9.158" y="0">0</tspan></text><line x1="280.519" y1="183.281" x2="285.019" y2="187.781" fill="none" stroke="#8151a1" stroke-linecap="round" stroke-miterlimit="10"/><line x1="285.019" y1="183.281" x2="280.519" y2="187.781" fill="none" stroke="#8151a1" stroke-linecap="round" stroke-miterlimit="10"/><rect x="296.446" y="173.531" width="57.807" height="24" rx="3.52" ry="3.52" fill="none" stroke="#8151a1" stroke-miterlimit="10" stroke-width="1.173"/><text transform="translate(300.994 191.525)" font-size="16" fill="#8151a1" font-family="San Francisco Display">3<tspan x="8.841" y="0">00</tspan><tspan x="27.024" y="0">0</tspan></text><line x1="343.295" y1="183.281" x2="347.795" y2="187.781" fill="none" stroke="#8151a1" stroke-linecap="round" stroke-miterlimit="10"/><line x1="347.795" y1="183.281" x2="343.295" y2="187.781" fill="none" stroke="#8151a1" stroke-linecap="round" stroke-miterlimit="10"/><rect x="359.221" y="173.531" width="57.807" height="24" rx="3.52" ry="3.52" fill="none" stroke="#8151a1" stroke-miterlimit="10" stroke-width="1.173"/><text transform="translate(363.769 191.525)" font-size="16" fill="#8151a1" font-family="San Francisco Display">3<tspan x="8.841" y="0">0</tspan><tspan x="17.933" y="0">0</tspan><tspan x="26.896" y="0">1</tspan></text><line x1="406.07" y1="183.281" x2="410.57" y2="187.781" fill="none" stroke="#8151a1" stroke-linecap="round" stroke-miterlimit="10"/><line x1="410.57" y1="183.281" x2="406.07" y2="187.781" fill="none" stroke="#8151a1" stroke-linecap="round" stroke-miterlimit="10"/></g></g><g id="exposed_ports" data-name="exposed ports"><rect x="340.099" y="41.583" width="90" height="72" rx="3" ry="3" fill="#fbf9fc" stroke="#8151a1" stroke-miterlimit="10" stroke-width="2"/><path d="M377.787,70.169a2.241,2.241,0,0,1-2.234-2.251L375.6,55.351a2.247,2.247,0,0,1,2.243-2.234l12.574,0.048a2.242,2.242,0,0,1,2.234,2.251L392.6,67.982a2.247,2.247,0,0,1-2.242,2.234Z" transform="translate(0 0)" fill="#b3b3b3"/><path d="M377.843,52.667l0.007,0.9,12.566,0.048a1.793,1.793,0,0,1,1.786,1.8l-0.048,12.566a1.8,1.8,0,0,1-1.8,1.786l-12.566-.048a1.8,1.8,0,0,1-1.786-1.8l0.048-12.566a1.8,1.8,0,0,1,1.793-1.786v-0.9m0,0a2.693,2.693,0,0,0-2.693,2.683L375.1,67.916a2.693,2.693,0,0,0,2.683,2.7l12.566,0.048h0.01a2.693,2.693,0,0,0,2.693-2.683L393.1,55.418a2.693,2.693,0,0,0-2.683-2.7l-12.566-.048h-0.01Z" transform="translate(0 0)" fill="gray"/><rect x="378.103" y="65.667" width="2" height="2" fill="#3ccb5a"/><polygon points="381.553 66.216 381.553 64.216 380.553 64.216 380.553 63.216 378.553 63.216 378.553 56.117 389.652 56.117 389.652 63.216 387.652 63.216 387.652 64.216 386.652 64.216 386.652 66.216 381.553 66.216" fill="gray"/><path d="M389.2,56.567v6.2h-2v1h-1v2H382v-2h-1v-1h-2v-6.2h10.2m0.9-.9h-12v8h2v1h1v2h6v-2h1v-1h2v-8h0Z" transform="translate(0 0)" fill="#666"/><rect x="379.103" y="56.667" width="10" height="1" fill="#db970d"/><text transform="translate(359.384 90.102)" font-size="13" fill="#8151a1" font-family="San Francisco Display">E<tspan x="7.092" y="0">x</tspan><tspan x="13.752" y="0">posed</tspan><tspan x="9.367" y="14">Po</tspan><tspan x="24.078" y="14">r</tspan><tspan x="29.101" y="14">ts</tspan></text></g><g id="security"><rect x="240.163" y="41.583" width="90" height="72" rx="3" ry="3" fill="none"/><path d="M285.131,70.447a8.418,8.418,0,1,1,.033,0h-0.033Z" transform="translate(0 0)" fill="#b3b3b3"/><path d="M285.163,52.945l0.032,0.9a8.076,8.076,0,1,1-.032,0v-0.9m0,0a8.976,8.976,0,0,0-8.975,8.942h0a8.976,8.976,0,0,0,8.942,9.01h0.035a8.976,8.976,0,0,0,8.975-8.942h0a8.976,8.976,0,0,0-8.942-9.01h-0.035Z" transform="translate(0 0)" fill="gray"/><circle cx="285.163" cy="59.922" r="3" fill="#414042"/><path d="M285.163,59.922h0a1,1,0,0,1,1,1l0.763,4.577a1.222,1.222,0,0,1-1.205,1.423h-1.115A1.222,1.222,0,0,1,283.4,65.5l0.763-4.577A1,1,0,0,1,285.163,59.922Z" transform="translate(0 0)" fill="#414042"/><text transform="translate(261.096 95.495)" font-size="13" fill="#afafb0" font-family="San Francisco Display">Secu<tspan x="28.666" y="0">r</tspan><tspan x="33.498" y="0">i</tspan><tspan x="36.8" y="0">t</tspan><tspan x="41.81" y="0">y</tspan></text></g><g id="environment_vars" data-name="environment vars"><path d="M478.72,70.093a2.242,2.242,0,0,1-2.235-2.252l0.048-12.566a2.248,2.248,0,0,1,2.243-2.235l12.575,0.048a2.243,2.243,0,0,1,2.235,2.252l-0.048,12.566a2.249,2.249,0,0,1-2.244,2.236Z" transform="translate(0 0)" fill="#414042"/><path d="M478.776,52.59l0.007,0.9,12.566,0.048a1.8,1.8,0,0,1,1.788,1.8L493.09,67.9a1.8,1.8,0,0,1-1.8,1.788l-12.566-.048a1.8,1.8,0,0,1-1.788-1.8l0.048-12.566a1.8,1.8,0,0,1,1.8-1.788v-0.9m0,0a2.693,2.693,0,0,0-2.693,2.683l-0.048,12.566a2.693,2.693,0,0,0,2.683,2.7l12.566,0.048h0.01a2.693,2.693,0,0,0,2.693-2.683l0.048-12.566a2.693,2.693,0,0,0-2.683-2.7l-12.566-.048h-0.01Z" transform="translate(0 0)" fill="#a7a9ac"/><path d="M481.67,59.572c0.863-1.224,1.725-1.982,2.345-1.982,0.534,0,.776.6,1.155,1.742l0.293,0.862c1.345-1.949,2.035-2.6,2.793-2.6a0.777,0.777,0,0,1,.793.862,0.964,0.964,0,0,1-.81.914,0.444,0.444,0,0,1-.31-0.173,0.483,0.483,0,0,0-.4-0.207,1.417,1.417,0,0,0-.828.586,11.768,11.768,0,0,0-1.018,1.276l0.638,2.034c0.241,0.845.483,1.259,0.707,1.259a2.408,2.408,0,0,0,1.207-1l0.327,0.4c-0.931,1.482-1.845,2.052-2.465,2.052-0.534,0-.914-0.483-1.259-1.638L484.394,62.5c-1.4,2.259-2.086,3.086-2.965,3.086a0.863,0.863,0,0,1-.863-0.931,0.931,0.931,0,0,1,.793-0.948,0.411,0.411,0,0,1,.31.173,0.512,0.512,0,0,0,.414.173c0.413,0,1.155-.828,2.086-2.259l-0.5-1.638c-0.293-.948-0.449-1.1-0.6-1.1a1.953,1.953,0,0,0-1.035.931Z" transform="translate(0 0)" fill="#fff"/><text transform="translate(448.255 90.102)" font-size="13" fill="#afafb0" font-family="San Francisco Display">E<tspan x="7.092" y="0">n</tspan><tspan x="14.514" y="0">vironment</tspan><tspan x="10.098" y="14">V</tspan><tspan x="17.329" y="14">a</tspan><tspan x="24.167" y="14">r</tspan><tspan x="28.999" y="14">iables</tspan></text><rect x="440.035" y="41.583" width="90" height="72" rx="3" ry="3" fill="none"/></g><g id="repository"><rect x="140.227" y="41.583" width="90" height="72" rx="3" ry="3" fill="none"/><text transform="translate(153.891 95.495)" font-size="13" fill="#afafb0" font-family="San Francisco Display">Repos<tspan x="36.063" y="0">i</tspan><tspan x="39.364" y="0">to</tspan><tspan x="51.206" y="0">r</tspan><tspan x="56.35" y="0">y</tspan></text><path d="M180.613,69.037c-1.213,0-2.9-.659-2.9-1.733V65.5c0-1.442,2.229-1.484,2.484-1.484h10.629c0.4,0,.418,0,0.6-0.012,0.128-.007.339-0.019,0.835-0.039l0.085,0,0.079-.033a2.329,2.329,0,0,0,.322-0.167V66.5c0,0.941-.317,2.534-1.5,2.534H180.613Z" transform="translate(0 0)" fill="#e6e6e6"/><path d="M192.28,64.435V66.5c0,0.715-.217,2.068-1.039,2.068H180.613c-1.1,0-2.439-.585-2.439-1.268V65.5c0-1.007,1.936-1.018,2.018-1.018h10.629c0.419,0,.437,0,0.632-0.012,0.127-.007.337-0.019,0.825-0.038h0m0.932-2.235a1.531,1.531,0,0,1-.971,1.3c-1.187.047-.759,0.049-1.421,0.049H180.192c-1.419,0-2.951.531-2.951,1.951v1.8c0,1.419,1.952,2.2,3.371,2.2h10.629c1.419,0,1.971-1.581,1.971-3V62.2h0Z" transform="translate(0 0)" fill="gray"/><path d="M177.708,55.5a2.708,2.708,0,0,1,2.524-2.534h10.134a2.425,2.425,0,0,1,2.379,2.461v7.926a1.145,1.145,0,0,1-.614.678c-0.435.017-.632,0.028-0.754,0.035-0.173.009-.187,0.01-0.556,0.01h-10.58a4.39,4.39,0,0,0-2.534.671V55.5Z" transform="translate(0 0)" fill="#b3b3b3"/><path d="M180.232,53.436h10.131a1.96,1.96,0,0,1,1.917,2v7.843a0.661,0.661,0,0,1-.274.3c-0.366.015-.543,0.025-0.655,0.031-0.164.009-.178,0.009-0.529,0.009H180.192a5.4,5.4,0,0,0-2.018.36V55.506a2.243,2.243,0,0,1,2.058-2.071m0-.932a3.16,3.16,0,0,0-2.99,3V66.49l0.347-.994a3.351,3.351,0,0,1,2.6-.951h10.629c0.662,0,.233,0,1.42-0.049a1.609,1.609,0,0,0,.971-1.076V55.433a2.889,2.889,0,0,0-2.846-2.93H180.232Z" transform="translate(0 0)" fill="gray"/><path d="M183.527,68.6a0.5,0.5,0,0,0-.6,0l-1.181.885L181.769,65h2.971l-0.022,4.486Z" transform="translate(0 0)" fill="#ef9ca4"/><path d="M184.237,65.5l-0.015,2.989-0.4-.3a1,1,0,0,0-1.2,0l-0.376.282,0.015-2.975h1.971m1-1h-3.971l-0.027,5.579a0.2,0.2,0,0,0,.2.2,0.2,0.2,0,0,0,.119-0.04L183.227,69l1.667,1.25a0.2,0.2,0,0,0,.119.04,0.2,0.2,0,0,0,.2-0.2l0.027-5.584h0Z" transform="translate(0 0)" fill="#f25058"/></g><g id="dockerfile"><text transform="translate(555.509 95.07)" font-size="13" fill="#afafb0" font-family="San Francisco Display">Doc<tspan x="22.329" y="0">k</tspan><tspan x="28.717" y="0">e</tspan><tspan x="35.72" y="0">r</tspan><tspan x="40.742" y="0">f</tspan><tspan x="45.352" y="0">ile</tspan></text><rect x="539.991" y="41.583" width="90" height="72" rx="3" ry="3" fill="none"/><rect x="575.959" y="54.098" width="18" height="18" fill="none"/><path d="M580.18,71.6a2.8,2.8,0,0,1-1.9-.771,2.478,2.478,0,0,1-.806-1.814V57.139a2.746,2.746,0,0,1,2.764-2.563h5.723l6.477,6.477v8.034a2.606,2.606,0,0,1-2.628,2.563Z" transform="translate(0 0)" fill="#fff"/><path d="M580.242,55.025h5.536l6.213,6.213v7.844a2.185,2.185,0,0,1-2.185,2.117l-9.625-.054a2.254,2.254,0,0,1-2.253-2.137V57.142a2.287,2.287,0,0,1,2.315-2.117m0-.9a3.194,3.194,0,0,0-3.215,3.014v11.87a3.144,3.144,0,0,0,3.15,3.037L589.8,72.1h0.012a3.072,3.072,0,0,0,3.079-3.014v-8.22l-6.74-6.74h-5.908Z" transform="translate(0 0)" fill="#b3b3b3"/><polygon points="586.532 60.416 586.532 55.197 591.857 60.416 586.532 60.416" fill="#f2f2f2"/><path d="M586.983,56.268l3.773,3.7h-3.773v-3.7m-0.9-2.142v6.74h6.877l-6.877-6.74h0Z" transform="translate(0 0)" fill="#b3b3b3"/><path d="M590.04,64.729a1.633,1.633,0,0,0-1.239-.115,1.7,1.7,0,0,0-.67-1.08L588,63.426l-0.112.13a1.458,1.458,0,0,0-.262,1.028,1.339,1.339,0,0,0,.25.69,1.9,1.9,0,0,1-.361.163,2.342,2.342,0,0,1-.742.124h-7.008l-0.015.161a3.1,3.1,0,0,0,.247,1.571l0.1,0.2,0.011,0.018a3.386,3.386,0,0,0,3.077,1.59,5.408,5.408,0,0,0,5.379-3.394,1.544,1.544,0,0,0,1.553-.741l0.077-.151Z" transform="translate(0 0)" fill="#158cb6"/><polygon points="586.23 64.47 585.161 64.47 585.161 62.333 583.88 62.333 583.88 63.401 581.743 63.401 581.743 64.47 580.675 64.47 580.675 65.561 586.23 65.561 586.23 64.47" fill="#00acd3"/></g></g></g></svg>