<svg id="outlined_dockerfile_setup" data-name="outlined dockerfile setup" xmlns="http://www.w3.org/2000/svg" viewBox="0 0 750 262.5"><title>setup-dockerfile</title><g id="modal_bg" data-name="modal bg"><path d="M1,261V5.979A4.985,4.985,0,0,1,5.979,1H744.021A4.985,4.985,0,0,1,749,5.979V261H1Z" transform="translate(0 0)" fill="#fff"/><path d="M744.021,2A3.984,3.984,0,0,1,748,5.979V260H2V5.979A3.984,3.984,0,0,1,5.979,2H744.021m0-2H5.979A5.979,5.979,0,0,0,0,5.979V262H750V5.979A5.979,5.979,0,0,0,744.021,0h0Z" transform="translate(0 0)" fill="#e6e6e5"/></g><rect id="modal_body" data-name="modal body" x="2" y="126.661" width="746" height="135.339" fill="#fafafa"/><rect x="38.506" y="176.509" width="212" height="85.491" fill="#fff" stroke="#e6e6e6" stroke-miterlimit="10"/><path d="M41.506,163.065h209a0,0,0,0,1,0,0v39a0,0,0,0,1,0,0h-212a0,0,0,0,1,0,0v-36A3,3,0,0,1,41.506,163.065Z" fill="#f3f3f3" stroke="#e6e6e6" stroke-miterlimit="10"/><path d="M250.506,163.065H709.733a1.761,1.761,0,0,1,1.761,1.761V262a0,0,0,0,1,0,0H250.506a0,0,0,0,1,0,0V163.065A0,0,0,0,1,250.506,163.065Z" fill="#311d40" stroke="#311d40" stroke-miterlimit="10"/><rect x="250.506" y="163.065" width="51" height="98.935" fill="#291835"/><path d="M281.392,180.053v0.807H274.6v-0.807h3V172.11h-0.1L274.57,174v-1.039L277.6,171h0.923v9.058h2.864Z" transform="translate(0 0)" fill="#7d6692"/><path d="M277.639,189.79a2.69,2.69,0,0,1,2.919,2.721c0,1-.424,1.771-1.962,3.541l-2.468,2.851v0.109h4.594v0.848h-5.975v-0.595l3.384-3.951c1.21-1.429,1.49-1.955,1.49-2.789a1.837,1.837,0,0,0-2-1.914,1.907,1.907,0,0,0-1.989,2.071v0.041h-0.923v-0.041A2.819,2.819,0,0,1,277.639,189.79Z" transform="translate(0 0)" fill="#7d6692"/><path d="M276.5,213.363h1.046a1.884,1.884,0,0,0,1.976-1.928,1.789,1.789,0,0,0-1.948-1.825,1.917,1.917,0,0,0-2.037,1.846H274.6a2.793,2.793,0,0,1,3.021-2.666,2.636,2.636,0,0,1,2.892,2.529,2.206,2.206,0,0,1-1.654,2.317v0.1a2.325,2.325,0,0,1,2.078,2.488,3.306,3.306,0,0,1-6.528.109h0.9a2.177,2.177,0,0,0,2.358,1.907c1.436,0,2.324-.766,2.324-2a2.091,2.091,0,0,0-2.379-2.078H276.5v-0.807Z" transform="translate(0 0)" fill="#7d6692"/><path d="M279,235.679h-4.525v-0.718L277.954,228h0.957l-3.452,6.815v0.068H279v-2.967h0.854v2.933h1.565v0.834H279.84v2.181H279v-2.181Z" transform="translate(0 0)" fill="#7d6692"/><path d="M274.495,254.31h0.9a2.18,2.18,0,0,0,2.3,1.928,2.219,2.219,0,0,0,2.249-2.44,2.254,2.254,0,0,0-2.249-2.481,2.37,2.37,0,0,0-2.153,1.189h-0.868l0.513-5.51h5.154v0.841h-4.423l-0.294,3.486h0.1a2.609,2.609,0,0,1,2.044-.861,3.3,3.3,0,0,1-.157,6.6A2.918,2.918,0,0,1,274.495,254.31Z" transform="translate(0 0)" fill="#7d6692"/><path d="M312.338,180.86V171H318v0.848h-4.73v3.705h4.334v0.834h-4.334v4.478h-0.937Z" transform="translate(0 0)" fill="#fcd04a"/><path d="M321.486,176.792v4.067H320.57V171h3.213a2.777,2.777,0,0,1,3.069,2.885,2.7,2.7,0,0,1-1.873,2.7L327,180.86H325.95l-1.873-4.067h-2.591Zm0-.807h2.167a2.084,2.084,0,1,0,.068-4.156h-2.235v4.156Z" transform="translate(0 0)" fill="#fcd04a"/><path d="M332.282,181.065c-2.194,0-3.548-1.6-3.548-4.32V175.11c0-2.721,1.354-4.32,3.548-4.32s3.548,1.6,3.548,4.32v1.634C335.83,179.465,334.476,181.065,332.282,181.065Zm2.611-4.32V175.11c0-2.187-1-3.452-2.611-3.452s-2.611,1.265-2.611,3.452v1.634c0,2.188,1,3.452,2.611,3.452S334.893,178.932,334.893,176.744Z" transform="translate(0 0)" fill="#fcd04a"/><path d="M338.265,180.86H337.39V171h1.073l2.509,6.316h0.075l2.5-6.316h1.08v9.864h-0.875v-8.046h-0.068l-2.27,5.729H340.6l-2.27-5.729h-0.068v8.046Z" transform="translate(0 0)" fill="#fcd04a"/><path d="M355.542,173.5H356.4v1.326h0.089a2.452,2.452,0,0,1,2.406-1.449c1.606,0,2.475.95,2.475,2.7v4.785h-0.9V176.3c0-1.442-.581-2.119-1.818-2.119a2.149,2.149,0,0,0-2.215,2.3v4.375h-0.9V173.5Z" transform="translate(0 0)" fill="#fff"/><path d="M364.062,177.729v-1.094a3.12,3.12,0,1,1,6.234,0v1.094A3.12,3.12,0,1,1,364.062,177.729Zm0.9-.978v0.861c0,1.593.854,2.57,2.222,2.57s2.222-.978,2.222-2.57v-0.861c0-1.593-.854-2.57-2.222-2.57S364.957,175.158,364.957,176.751Z" transform="translate(0 0)" fill="#fff"/><path d="M377.838,179.8a2.417,2.417,0,0,1-2.263,1.183,2.842,2.842,0,0,1-2.871-3.1v-1.415a2.842,2.842,0,0,1,2.871-3.1,2.269,2.269,0,0,1,2.222,1.21h0.123v-4.02h0.9V180.86h-0.854V179.8h-0.123Zm-4.238-2.126a2.193,2.193,0,1,0,4.341,0V176.69a2.193,2.193,0,1,0-4.341,0v0.984Z" transform="translate(0 0)" fill="#fff"/><path d="M387.656,179.041a2.678,2.678,0,0,1-2.851,1.941c-1.982,0-3.131-1.224-3.131-3.322v-1.073a2.94,2.94,0,0,1,3.028-3.213c1.9,0,2.987,1.258,2.987,3.459v0.581h-5.12v0.253a2.227,2.227,0,0,0,2.235,2.516,1.872,1.872,0,0,0,1.962-1.142h0.889Zm-5.086-2.365h4.211c0-1.565-.779-2.509-2.078-2.509C383.37,174.167,382.57,175.1,382.57,176.676Z" transform="translate(0 0)" fill="#fff"/><path d="M392.217,174.441a1.135,1.135,0,1,1,1.135,1.135A1.141,1.141,0,0,1,392.217,174.441Zm0,5.284a1.135,1.135,0,1,1,1.135,1.135A1.141,1.141,0,0,1,392.217,179.725Z" transform="translate(0 0)" fill="#fff"/><path d="M399.075,178.781c0-1.292.923-2.064,2.55-2.14l2.133-.1v-0.7a1.516,1.516,0,0,0-1.736-1.634,1.658,1.658,0,0,0-1.777,1.107h-0.889a2.46,2.46,0,0,1,2.666-1.887c1.668,0,2.639.875,2.639,2.372v5.059H403.8V179.7h-0.1a2.273,2.273,0,0,1-2.276,1.285A2.15,2.15,0,0,1,399.075,178.781Zm4.683-.465v-1.025l-2.071.089c-1.1.048-1.688,0.54-1.688,1.4a1.429,1.429,0,0,0,1.647,1.415A1.978,1.978,0,0,0,403.758,178.317Z" transform="translate(0 0)" fill="#fff"/><path d="M410.527,175.37a2.468,2.468,0,0,1,2.659-2.058,3,3,0,0,1,1.073.164v0.978a3.871,3.871,0,0,0-1.21-.205c-1.586,0-2.6,1.285-2.6,3.3v2.584h2.338v0.725h-4.751v-0.725h1.518v-5.913h-1.668V173.5h2.543v1.873h0.1Z" transform="translate(0 0)" fill="#fff"/><path d="M416.414,181.721h0.9a2.237,2.237,0,0,0,4.163-.909V179.8H421.35a2.3,2.3,0,0,1-2.222,1.183,2.842,2.842,0,0,1-2.871-3.1v-1.415a2.842,2.842,0,0,1,2.871-3.1,2.269,2.269,0,0,1,2.222,1.21h0.123V173.5h0.9v7.362c0,1.743-1.128,2.762-3.062,2.762C417.679,183.621,416.578,182.9,416.414,181.721Zm2.912-1.538a2.209,2.209,0,0,0,2.167-2.509V176.69a2.193,2.193,0,1,0-4.341,0v0.984A2.213,2.213,0,0,0,419.326,180.183Z" transform="translate(0 0)" fill="#fff"/><path d="M425.132,177.729v-1.094a3.12,3.12,0,1,1,6.234,0v1.094A3.12,3.12,0,1,1,425.132,177.729Zm0.9-.978v0.861c0,1.593.854,2.57,2.222,2.57s2.222-.978,2.222-2.57v-0.861c0-1.593-.854-2.57-2.222-2.57S426.027,175.158,426.027,176.751Z" transform="translate(0 0)" fill="#fff"/><path d="M434.062,173.5h0.854v1.326H435a2.452,2.452,0,0,1,2.406-1.449c1.606,0,2.475.95,2.475,2.7v4.785h-0.9V176.3c0-1.442-.581-2.119-1.818-2.119a2.149,2.149,0,0,0-2.215,2.3v4.375h-0.9V173.5Z" transform="translate(0 0)" fill="#fff"/><path d="M317.431,216.05h0.937a3.056,3.056,0,0,1-3.309,3.015c-2.27,0-3.582-1.579-3.582-4.32V213.11c0-2.741,1.313-4.32,3.582-4.32a3.072,3.072,0,0,1,3.315,3.22h-0.937a2.307,2.307,0,0,0-2.379-2.352c-1.736,0-2.646,1.189-2.646,3.452v1.634c0,2.263.909,3.452,2.646,3.452A2.136,2.136,0,0,0,317.431,216.05Z" transform="translate(0 0)" fill="#fcd04a"/><path d="M323.557,219.065c-2.194,0-3.548-1.6-3.548-4.32V213.11c0-2.721,1.354-4.32,3.548-4.32s3.548,1.6,3.548,4.32v1.634C327.1,217.465,325.751,219.065,323.557,219.065Zm2.611-4.32V213.11c0-2.187-1-3.452-2.611-3.452s-2.611,1.265-2.611,3.452v1.634c0,2.188,1,3.452,2.611,3.452S326.168,216.932,326.168,214.744Z" transform="translate(0 0)" fill="#fcd04a"/><path d="M332.589,209a3.069,3.069,0,1,1,0,6.139h-2.222v3.726h-0.937V209h3.158Zm-2.222,5.3h2a2.239,2.239,0,1,0,0-4.471h-2V214.3Z" transform="translate(0 0)" fill="#fcd04a"/><path d="M340.541,218.86v-4.266l-3.336-5.6h1.073l2.687,4.648h0.082L343.733,209h1.073l-3.336,5.6v4.266h-0.93Z" transform="translate(0 0)" fill="#fcd04a"/><path d="M357.32,217.725a1.135,1.135,0,1,1,1.135,1.135A1.141,1.141,0,0,1,357.32,217.725Z" transform="translate(0 0)" fill="#fff"/><path d="M364.321,219.536l4.86-11.218h0.854l-4.86,11.218h-0.854Z" transform="translate(0 0)" fill="#a1f0f2"/><path d="M372.9,216.781c0-1.292.923-2.064,2.55-2.14l2.133-.1v-0.7a1.516,1.516,0,0,0-1.736-1.634,1.658,1.658,0,0,0-1.777,1.107h-0.889a2.46,2.46,0,0,1,2.666-1.887c1.668,0,2.639.875,2.639,2.372v5.059h-0.861V217.7h-0.1a2.273,2.273,0,0,1-2.276,1.285A2.15,2.15,0,0,1,372.9,216.781Zm4.683-.465v-1.025l-2.071.089c-1.1.048-1.688,0.54-1.688,1.4a1.429,1.429,0,0,0,1.647,1.415A1.978,1.978,0,0,0,377.585,216.317Z" transform="translate(0 0)" fill="#fff"/><path d="M387.827,214.471v1.415a2.842,2.842,0,0,1-2.871,3.1,2.269,2.269,0,0,1-2.222-1.21h-0.123v3.582h-0.9V211.5h0.854v1.06h0.123a2.417,2.417,0,0,1,2.263-1.183A2.842,2.842,0,0,1,387.827,214.471Zm-5.236.219v0.984a2.193,2.193,0,1,0,4.341,0V214.69A2.193,2.193,0,1,0,382.591,214.69Z" transform="translate(0 0)" fill="#fff"/><path d="M396.551,214.471v1.415a2.842,2.842,0,0,1-2.871,3.1,2.269,2.269,0,0,1-2.222-1.21h-0.123v3.582h-0.9V211.5h0.854v1.06h0.123a2.417,2.417,0,0,1,2.263-1.183A2.842,2.842,0,0,1,396.551,214.471Zm-5.236.219v0.984a2.193,2.193,0,1,0,4.341,0V214.69A2.193,2.193,0,1,0,391.314,214.69Z" transform="translate(0 0)" fill="#fff"/><path d="M399.219,219.536l4.86-11.218h0.854l-4.86,11.218h-0.854Z" transform="translate(0 0)" fill="#a1f0f2"/><path d="M414,214.471v1.415a2.842,2.842,0,0,1-2.871,3.1,2.269,2.269,0,0,1-2.222-1.21h-0.123v3.582h-0.9V211.5h0.854v1.06h0.123a2.417,2.417,0,0,1,2.263-1.183A2.842,2.842,0,0,1,414,214.471Zm-5.236.219v0.984a2.193,2.193,0,1,0,4.341,0V214.69A2.193,2.193,0,1,0,408.764,214.69Z" transform="translate(0 0)" fill="#fff"/><path d="M416.523,216.781c0-1.292.923-2.064,2.55-2.14l2.133-.1v-0.7a1.516,1.516,0,0,0-1.736-1.634,1.658,1.658,0,0,0-1.777,1.107H416.8a2.46,2.46,0,0,1,2.666-1.887c1.668,0,2.639.875,2.639,2.372v5.059h-0.861V217.7h-0.1a2.273,2.273,0,0,1-2.276,1.285A2.15,2.15,0,0,1,416.523,216.781Zm4.683-.465v-1.025l-2.071.089c-1.1.048-1.688,0.54-1.688,1.4a1.429,1.429,0,0,0,1.647,1.415A1.978,1.978,0,0,0,421.206,216.317Z" transform="translate(0 0)" fill="#fff"/><path d="M430.327,213.664a1.894,1.894,0,0,0-1.969-1.483c-1.4,0-2.181.937-2.181,2.625v0.745c0,1.688.779,2.625,2.181,2.625a1.894,1.894,0,0,0,1.969-1.483h0.889a2.674,2.674,0,0,1-2.837,2.29c-1.935,0-3.1-1.23-3.1-3.281v-1.046c0-2.051,1.162-3.281,3.1-3.281a2.674,2.674,0,0,1,2.837,2.29h-0.889Z" transform="translate(0 0)" fill="#fff"/><path d="M439.359,218.86l-2.666-3.9-1.135,1.107v2.789h-0.9V208.565h0.9v6.4h0.082L439.1,211.5h1.135l-2.912,2.851,3.117,4.512h-1.08Z" transform="translate(0 0)" fill="#fff"/><path d="M442.7,216.781c0-1.292.923-2.064,2.55-2.14l2.133-.1v-0.7a1.516,1.516,0,0,0-1.736-1.634,1.658,1.658,0,0,0-1.777,1.107h-0.889a2.46,2.46,0,0,1,2.666-1.887c1.668,0,2.639.875,2.639,2.372v5.059H447.42V217.7h-0.1a2.273,2.273,0,0,1-2.276,1.285A2.15,2.15,0,0,1,442.7,216.781Zm4.683-.465v-1.025l-2.071.089c-1.1.048-1.688,0.54-1.688,1.4a1.429,1.429,0,0,0,1.647,1.415A1.978,1.978,0,0,0,447.379,216.317Z" transform="translate(0 0)" fill="#fff"/><path d="M451.312,219.721h0.9a2.237,2.237,0,0,0,4.163-.909V217.8h-0.123a2.3,2.3,0,0,1-2.222,1.183,2.842,2.842,0,0,1-2.871-3.1v-1.415a2.842,2.842,0,0,1,2.871-3.1,2.269,2.269,0,0,1,2.222,1.21h0.123V211.5h0.9v7.362c0,1.743-1.128,2.762-3.062,2.762C452.576,221.621,451.476,220.9,451.312,219.721Zm2.912-1.538a2.209,2.209,0,0,0,2.167-2.509V214.69a2.193,2.193,0,1,0-4.341,0v0.984A2.213,2.213,0,0,0,454.224,218.183Z" transform="translate(0 0)" fill="#fff"/><path d="M466.175,217.041a2.678,2.678,0,0,1-2.851,1.941c-1.982,0-3.131-1.224-3.131-3.322v-1.073a2.94,2.94,0,0,1,3.028-3.213c1.9,0,2.987,1.258,2.987,3.459v0.581h-5.12v0.253a2.227,2.227,0,0,0,2.235,2.516,1.872,1.872,0,0,0,1.962-1.142h0.889Zm-5.086-2.365H465.3c0-1.565-.779-2.509-2.078-2.509C461.889,212.167,461.089,213.1,461.089,214.676Z" transform="translate(0 0)" fill="#fff"/><path d="M470.735,217.725a1.135,1.135,0,1,1,1.135,1.135A1.141,1.141,0,0,1,470.735,217.725Z" transform="translate(0 0)" fill="#fff"/><path d="M482.167,218.942c0,1.463-.841,2.071-2.851,2.071-0.622,0-1.155-.021-1.743-0.075v-0.752c0.424,0.041,1.176.068,1.723,0.068,1.538,0,1.976-.335,1.976-1.518v-6.515h-3.493V211.5h4.389v7.444Zm-1.395-10.24a0.848,0.848,0,1,1,.848.848A0.852,0.852,0,0,1,480.772,208.7Z" transform="translate(0 0)" fill="#fff"/><path d="M489.36,211.374a2.37,2.37,0,0,1,2.618,1.907H491.1a1.63,1.63,0,0,0-1.764-1.162c-1.025,0-1.682.492-1.682,1.258,0,0.643.4,1,1.408,1.23l1,0.232c1.415,0.335,2.058.957,2.058,2,0,1.3-1.1,2.146-2.775,2.146-1.593,0-2.68-.759-2.816-1.969h0.93a1.777,1.777,0,0,0,1.928,1.2c1.1,0,1.8-.52,1.8-1.326,0-.67-0.39-1.025-1.395-1.265l-1.087-.26c-1.312-.308-1.955-0.95-1.955-1.955C486.749,212.2,487.809,211.374,489.36,211.374Z" transform="translate(0 0)" fill="#fff"/><path d="M494.927,215.729v-1.094a3.12,3.12,0,1,1,6.234,0v1.094A3.12,3.12,0,1,1,494.927,215.729Zm0.9-.978v0.861c0,1.593.854,2.57,2.222,2.57s2.222-.978,2.222-2.57v-0.861c0-1.593-.854-2.57-2.222-2.57S495.822,213.158,495.822,214.751Z" transform="translate(0 0)" fill="#fff"/><path d="M503.855,211.5h0.854v1.326H504.8a2.452,2.452,0,0,1,2.406-1.449c1.606,0,2.475.95,2.475,2.7v4.785h-0.9V214.3c0-1.442-.581-2.119-1.818-2.119a2.149,2.149,0,0,0-2.215,2.3v4.375h-0.9V211.5Z" transform="translate(0 0)" fill="#fff"/><path d="M521.359,219.536l4.86-11.218h0.854l-4.86,11.218h-0.854Z" transform="translate(0 0)" fill="#a1f0f2"/><path d="M529.939,216.781c0-1.292.923-2.064,2.55-2.14l2.133-.1v-0.7a1.516,1.516,0,0,0-1.736-1.634,1.658,1.658,0,0,0-1.777,1.107H530.22a2.46,2.46,0,0,1,2.666-1.887c1.668,0,2.639.875,2.639,2.372v5.059h-0.861V217.7h-0.1a2.273,2.273,0,0,1-2.276,1.285A2.15,2.15,0,0,1,529.939,216.781Zm4.683-.465v-1.025l-2.071.089c-1.1.048-1.688,0.54-1.688,1.4a1.429,1.429,0,0,0,1.647,1.415A1.978,1.978,0,0,0,534.622,216.317Z" transform="translate(0 0)" fill="#fff"/><path d="M544.864,214.471v1.415a2.842,2.842,0,0,1-2.871,3.1,2.269,2.269,0,0,1-2.222-1.21h-0.123v3.582h-0.9V211.5h0.854v1.06h0.123a2.417,2.417,0,0,1,2.263-1.183A2.842,2.842,0,0,1,544.864,214.471Zm-5.236.219v0.984a2.193,2.193,0,1,0,4.341,0V214.69A2.193,2.193,0,1,0,539.628,214.69Z" transform="translate(0 0)" fill="#fff"/><path d="M553.589,214.471v1.415a2.842,2.842,0,0,1-2.871,3.1,2.269,2.269,0,0,1-2.222-1.21h-0.123v3.582h-0.9V211.5h0.854v1.06h0.123a2.417,2.417,0,0,1,2.263-1.183A2.842,2.842,0,0,1,553.589,214.471Zm-5.236.219v0.984a2.193,2.193,0,1,0,4.341,0V214.69A2.193,2.193,0,1,0,548.353,214.69Z" transform="translate(0 0)" fill="#fff"/><path d="M556.256,219.536l4.86-11.218h0.854l-4.86,11.218h-0.854Z" transform="translate(0 0)" fill="#a1f0f2"/><path d="M314.8,231.6l-1.613,6.255h-0.923L310.506,228h0.909l0.67,4.2,0.67,4.2h0.062l1.552-6.152h0.93l1.552,6.152h0.062l0.67-4.2,0.67-4.2h0.909L317.4,237.86H316.48l-1.613-6.255H314.8Z" transform="translate(0 0)" fill="#fcd04a"/><path d="M323.557,238.065c-2.194,0-3.548-1.6-3.548-4.32V232.11c0-2.721,1.354-4.32,3.548-4.32s3.548,1.6,3.548,4.32v1.634C327.1,236.465,325.751,238.065,323.557,238.065Zm2.611-4.32V232.11c0-2.187-1-3.452-2.611-3.452s-2.611,1.265-2.611,3.452v1.634c0,2.188,1,3.452,2.611,3.452S326.168,235.932,326.168,233.744Z" transform="translate(0 0)" fill="#fcd04a"/><path d="M330.21,233.792v4.067h-0.916V228h3.213a2.777,2.777,0,0,1,3.069,2.885,2.7,2.7,0,0,1-1.873,2.7l2.023,4.279h-1.053l-1.873-4.067H330.21Zm0-.807h2.167a2.084,2.084,0,1,0,.068-4.156H330.21v4.156Z" transform="translate(0 0)" fill="#fcd04a"/><path d="M338.306,237.86V228h0.937v5.1h0.082l4.19-5.1h1.169l-3.739,4.361,4.143,5.5h-1.21l-3.555-4.785-1.08,1.265v3.521h-0.937Z" transform="translate(0 0)" fill="#fcd04a"/><path d="M349.21,228q4.2,0,4.2,4.936t-4.2,4.929h-2.618V228h2.618Zm-1.682,9.017h1.627c2.235,0,3.3-1.312,3.3-4.081s-1.066-4.088-3.3-4.088h-1.627v8.169Z" transform="translate(0 0)" fill="#fcd04a"/><path d="M356.007,237.86v-0.807h1.982V228.8h-1.982V228H360.9V228.8h-1.982v8.251H360.9v0.807h-4.895Z" transform="translate(0 0)" fill="#fcd04a"/><path d="M365.107,233.792v4.067h-0.916V228H367.4a2.777,2.777,0,0,1,3.069,2.885,2.7,2.7,0,0,1-1.873,2.7l2.023,4.279h-1.053l-1.873-4.067h-2.591Zm0-.807h2.167a2.084,2.084,0,1,0,.068-4.156h-2.235v4.156Z" transform="translate(0 0)" fill="#fcd04a"/><path d="M381.771,238.536l4.86-11.218h0.854l-4.86,11.218h-0.854Z" transform="translate(0 0)" fill="#a1f0f2"/><path d="M390.351,235.781c0-1.292.923-2.064,2.55-2.14l2.133-.1v-0.7a1.516,1.516,0,0,0-1.736-1.634,1.658,1.658,0,0,0-1.777,1.107h-0.889a2.46,2.46,0,0,1,2.666-1.887c1.668,0,2.639.875,2.639,2.372v5.059h-0.861V236.7h-0.1a2.273,2.273,0,0,1-2.276,1.285A2.15,2.15,0,0,1,390.351,235.781Zm4.683-.465v-1.025l-2.071.089c-1.1.048-1.688,0.54-1.688,1.4a1.429,1.429,0,0,0,1.647,1.415A1.978,1.978,0,0,0,395.033,235.317Z" transform="translate(0 0)" fill="#fff"/><path d="M405.275,233.471v1.415a2.842,2.842,0,0,1-2.871,3.1,2.269,2.269,0,0,1-2.222-1.21H400.06v3.582h-0.9V230.5h0.854v1.06h0.123a2.417,2.417,0,0,1,2.263-1.183A2.842,2.842,0,0,1,405.275,233.471Zm-5.236.219v0.984a2.193,2.193,0,1,0,4.341,0V233.69A2.193,2.193,0,1,0,400.039,233.69Z" transform="translate(0 0)" fill="#fff"/><path d="M414,233.471v1.415a2.842,2.842,0,0,1-2.871,3.1,2.269,2.269,0,0,1-2.222-1.21h-0.123v3.582h-0.9V230.5h0.854v1.06h0.123a2.417,2.417,0,0,1,2.263-1.183A2.842,2.842,0,0,1,414,233.471Zm-5.236.219v0.984a2.193,2.193,0,1,0,4.341,0V233.69A2.193,2.193,0,1,0,408.764,233.69Z" transform="translate(0 0)" fill="#fff"/><path d="M312.762,252.792v4.067h-0.916V247h3.213a2.777,2.777,0,0,1,3.069,2.885,2.7,2.7,0,0,1-1.873,2.7l2.023,4.279h-1.053l-1.873-4.067h-2.591Zm0-.807h2.167a2.084,2.084,0,1,0,.068-4.156h-2.235v4.156Z" transform="translate(0 0)" fill="#fcd04a"/><path d="M326.032,253.407V247h0.93v6.474c0,2.242-1.278,3.6-3.4,3.6s-3.4-1.354-3.4-3.6V247h0.93v6.412c0,1.757.916,2.8,2.475,2.8S326.032,255.164,326.032,253.407Z" transform="translate(0 0)" fill="#fcd04a"/><path d="M329.062,256.86V247h0.95l4.525,8.189h0.089V247H335.5v9.864h-0.93l-4.546-8.2h-0.089v8.2h-0.875Z" transform="translate(0 0)" fill="#fcd04a"/><path d="M346.818,249.5h0.854v1.326h0.089a2.452,2.452,0,0,1,2.406-1.449c1.606,0,2.475.95,2.475,2.7v4.785h-0.9V252.3c0-1.442-.581-2.119-1.818-2.119a2.149,2.149,0,0,0-2.215,2.3v4.375h-0.9V249.5Z" transform="translate(0 0)" fill="#fff"/><path d="M361.654,252.471v1.415a2.842,2.842,0,0,1-2.871,3.1,2.269,2.269,0,0,1-2.222-1.21h-0.123v3.582h-0.9V249.5H356.4v1.06h0.123a2.417,2.417,0,0,1,2.263-1.183A2.842,2.842,0,0,1,361.654,252.471Zm-5.236.219v0.984a2.193,2.193,0,1,0,4.341,0V252.69A2.193,2.193,0,1,0,356.417,252.69Z" transform="translate(0 0)" fill="#fff"/><path d="M370.665,256.86h-0.841V251.78c0-1.06-.355-1.6-1.046-1.6-0.725,0-1.162.656-1.162,1.75v4.929h-0.841v-5.086c0-1.053-.355-1.593-1.053-1.593-0.738,0-1.189.663-1.189,1.75v4.929h-0.841V249.5h0.813v0.984h0.1a1.434,1.434,0,0,1,1.408-1.107,1.324,1.324,0,0,1,1.36,1.107h0.1a1.587,1.587,0,0,1,1.579-1.107c1.073,0,1.62.745,1.62,2.2v5.284Z" transform="translate(0 0)" fill="#fff"/><path d="M381.825,256.86v-0.725h2.591v-5.913h-2.6V249.5h3.5v6.638h2.522v0.725h-6.009Zm2.092-10.158a0.848,0.848,0,1,1,.848.848A0.852,0.852,0,0,1,383.917,246.7Z" transform="translate(0 0)" fill="#fff"/><path d="M390.439,249.5h0.854v1.326h0.089a2.452,2.452,0,0,1,2.406-1.449c1.606,0,2.475.95,2.475,2.7v4.785h-0.9V252.3c0-1.442-.581-2.119-1.818-2.119a2.149,2.149,0,0,0-2.215,2.3v4.375h-0.9V249.5Z" transform="translate(0 0)" fill="#fff"/><path d="M402.117,249.374a2.37,2.37,0,0,1,2.618,1.907h-0.882a1.63,1.63,0,0,0-1.764-1.162c-1.025,0-1.682.492-1.682,1.258,0,0.643.4,1,1.408,1.23l1,0.232c1.415,0.335,2.058.957,2.058,2,0,1.3-1.1,2.146-2.775,2.146-1.593,0-2.68-.759-2.816-1.969h0.93a1.777,1.777,0,0,0,1.928,1.2c1.1,0,1.8-.52,1.8-1.326,0-.67-0.39-1.025-1.395-1.265l-1.087-.26c-1.312-.308-1.955-0.95-1.955-1.955C399.506,250.2,400.565,249.374,402.117,249.374Z" transform="translate(0 0)" fill="#fff"/><path d="M410.541,247.583V249.5h3.083v0.759h-3.083v4.45c0,0.909.629,1.4,1.8,1.4a11.846,11.846,0,0,0,1.285-.055v0.766a10.973,10.973,0,0,1-1.333.082c-1.771,0-2.646-.718-2.646-2.167v-4.478h-1.982V249.5h1.982v-1.914h0.9Z" transform="translate(0 0)" fill="#fff"/><path d="M416.523,254.781c0-1.292.923-2.064,2.55-2.14l2.133-.1v-0.7a1.516,1.516,0,0,0-1.736-1.634,1.658,1.658,0,0,0-1.777,1.107H416.8a2.46,2.46,0,0,1,2.666-1.887c1.668,0,2.639.875,2.639,2.372v5.059h-0.861V255.7h-0.1a2.273,2.273,0,0,1-2.276,1.285A2.15,2.15,0,0,1,416.523,254.781Zm4.683-.465v-1.025l-2.071.089c-1.1.048-1.688,0.54-1.688,1.4a1.429,1.429,0,0,0,1.647,1.415A1.978,1.978,0,0,0,421.206,254.317Z" transform="translate(0 0)" fill="#fff"/><path d="M425.446,256.86v-0.725h2.591v-8.846h-2.6v-0.725h3.5v9.57h2.522v0.725h-6.009Z" transform="translate(0 0)" fill="#fff"/><path d="M434.171,256.86v-0.725h2.591v-8.846h-2.6v-0.725h3.5v9.57h2.522v0.725h-6.009Z" transform="translate(0 0)" fill="#fff"/><rect x="219.054" y="170.565" width="24" height="24" rx="3" ry="3" fill="#fafafa" stroke="#e6e6e6" stroke-miterlimit="10"/><line x1="231.054" y1="176.565" x2="231.054" y2="188.565" fill="none" stroke="#888" stroke-linecap="round" stroke-miterlimit="10"/><line x1="237.054" y1="182.565" x2="225.054" y2="182.565" fill="none" stroke="#888" stroke-linecap="round" stroke-miterlimit="10"/><path d="M76.858,218.684a0.749,0.749,0,1,1-.743.756A0.736,0.736,0,0,1,76.858,218.684Zm-0.489,2.832h1v6.658h-1v-6.658Z" transform="translate(0 0)" fill="#424242"/><path d="M84.218,222.486h0.051V218.8h1v9.375H84.319v-1.061H84.268a1.971,1.971,0,0,1-2.019,1.162,2.5,2.5,0,0,1-2.577-2.742V224.15a2.528,2.528,0,0,1,2.609-2.749A1.93,1.93,0,0,1,84.218,222.486Zm-3.548,1.91v0.87c0,1.358.686,2.126,1.784,2.126a1.792,1.792,0,0,0,1.815-2.006v-1.244a1.8,1.8,0,0,0-1.854-1.859C81.336,222.283,80.669,223.065,80.669,224.4Z" transform="translate(0 0)" fill="#424242"/><path d="M86.575,229.621v-0.793h5.688v0.793H86.575Z" transform="translate(0 0)" fill="#424242"/><path d="M93.669,221.516h1v1.021h0.051a1.831,1.831,0,0,1,1.866-1.123c0.121,0,.254.012,0.387,0.025v0.926a3.754,3.754,0,0,0-.508-0.025,1.6,1.6,0,0,0-1.8,1.625v4.209h-1v-6.658Z" transform="translate(0 0)" fill="#424242"/><path d="M100.775,221.407c1.416,0,2.336.755,2.336,1.841h-0.939a1.262,1.262,0,0,0-1.441-1.01,1.188,1.188,0,0,0-1.409,1.061c0,0.825.87,0.934,1.631,1.072,1.25,0.223,2.323.54,2.323,1.854s-1.066,2.057-2.6,2.057c-1.422,0-2.444-.635-2.444-1.828h0.978a1.251,1.251,0,0,0,1.511,1c1.117,0,1.574-.5,1.574-1.111,0-.774-0.73-0.927-1.676-1.111-1.25-.26-2.272-0.514-2.272-1.828C98.344,222.017,99.512,221.407,100.775,221.407Z" transform="translate(0 0)" fill="#424242"/><path d="M104.961,226.238c0-1.156.806-1.949,2.33-1.949h1.777v-0.68a1.262,1.262,0,0,0-1.479-1.32,1.235,1.235,0,0,0-1.4.813h-0.971c0.108-1.136,1.028-1.694,2.418-1.694,1.333,0,2.444.584,2.444,2.2v4.57h-0.965v-0.895h-0.044a2.159,2.159,0,0,1-1.936,1A2,2,0,0,1,104.961,226.238Zm4.107-.355v-0.762H107.31a1.1,1.1,0,0,0-1.32,1.1,1.226,1.226,0,0,0,1.4,1.181A1.571,1.571,0,0,0,109.068,225.883Z" transform="translate(0 0)" fill="#424242"/><path d="M78.978,244.315c2.787,0,3.8,1.809,3.8,4.335,0,2.463-.952,4.329-3.8,4.329H76.261v-8.664h2.717Zm-1.708,7.744H78.94c1.949,0,2.787-1.232,2.787-3.409,0-2.114-.787-3.421-2.787-3.421H77.27v6.83Z" transform="translate(0 0)" fill="#424242"/><path d="M90.343,249.12v1.054a2.829,2.829,0,1,1-5.656,0V249.12a2.736,2.736,0,0,1,2.831-2.907A2.7,2.7,0,0,1,90.343,249.12Zm-4.659.114v0.838a1.853,1.853,0,1,0,3.663,0v-0.838A1.854,1.854,0,1,0,85.684,249.234Z" transform="translate(0 0)" fill="#424242"/><path d="M92.149,249.057a2.6,2.6,0,0,1,2.729-2.844,2.231,2.231,0,0,1,2.5,1.948h-1a1.338,1.338,0,0,0-1.492-1.041,1.707,1.707,0,0,0-1.746,1.98v1.137a1.721,1.721,0,0,0,1.746,1.942,1.351,1.351,0,0,0,1.542-.958h1c-0.044.895-.812,1.865-2.552,1.865a2.6,2.6,0,0,1-2.729-2.862v-1.168Z" transform="translate(0 0)" fill="#424242"/><path d="M100.455,252.979h-1V243.6h1v5.77h0.038l2.818-3.053h1.168l-2.66,2.895,2.831,3.764h-1.2l-2.355-3.129-0.641.641v2.488Z" transform="translate(0 0)" fill="#424242"/><path d="M105.714,250.192v-1.078a2.717,2.717,0,1,1,5.421,0v0.813h-4.418v0.342A1.747,1.747,0,0,0,108.5,252.2a1.461,1.461,0,0,0,1.479-.8h1.06a2.374,2.374,0,0,1-2.533,1.682A2.635,2.635,0,0,1,105.714,250.192Zm4.418-1.041v-0.12a1.721,1.721,0,1,0-3.415,0v0.12h3.415Z" transform="translate(0 0)" fill="#424242"/><path d="M113.346,246.321h1v1.021h0.051a1.831,1.831,0,0,1,1.866-1.123c0.121,0,.254.012,0.387,0.025v0.926a3.754,3.754,0,0,0-.508-0.025,1.6,1.6,0,0,0-1.8,1.625v4.209h-1v-6.658Z" transform="translate(0 0)" fill="#424242"/><path d="M119.24,247.152h-1.13v-0.831h1.13v-0.667c0-1.263.59-1.86,2.031-1.86a7.1,7.1,0,0,1,.711.039v0.844c-0.1-.013-0.432-0.025-0.59-0.025a0.933,0.933,0,0,0-1.155,1.079v0.591h1.555v0.831h-1.555v5.827h-1v-5.827Z" transform="translate(0 0)" fill="#424242"/><path d="M124.48,243.489a0.749,0.749,0,1,1-.743.756A0.736,0.736,0,0,1,124.48,243.489Zm-0.489,2.832h1v6.658h-1v-6.658Z" transform="translate(0 0)" fill="#424242"/><path d="M127.663,243.6h1v9.375h-1V243.6Z" transform="translate(0 0)" fill="#424242"/><path d="M130.834,250.192v-1.078a2.717,2.717,0,1,1,5.421,0v0.813h-4.418v0.342a1.747,1.747,0,0,0,1.784,1.937,1.461,1.461,0,0,0,1.479-.8h1.06a2.374,2.374,0,0,1-2.533,1.682A2.635,2.635,0,0,1,130.834,250.192Zm4.418-1.041v-0.12a1.721,1.721,0,1,0-3.415,0v0.12h3.415Z" transform="translate(0 0)" fill="#424242"/><path d="M55.6,230.16a2.242,2.242,0,0,1-2.235-2.251V217.34a2.272,2.272,0,0,1,2.292-2.232h5.072l5.736,5.736v7.131a2.27,2.27,0,0,1-2.29,2.232Z" transform="translate(0 0)" fill="#fff"/><path d="M55.656,215.558h4.887l5.473,5.473v6.941a1.844,1.844,0,0,1-1.846,1.786L55.6,229.71a1.8,1.8,0,0,1-1.786-1.8V217.344a1.843,1.843,0,0,1,1.841-1.786m0-.9a2.734,2.734,0,0,0-2.741,2.683v10.566a2.693,2.693,0,0,0,2.683,2.7l8.566,0.048h0.011a2.734,2.734,0,0,0,2.741-2.683v-7.317l-6-6H55.656Z" transform="translate(0 0)" fill="#b3b3b3"/><polygon points="61.365 220.208 61.365 215.744 65.829 220.208 61.365 220.208" fill="#f2f2f2"/><path d="M61.815,216.831l2.927,2.927H61.815v-2.927m-0.9-2.173v6h6l-6-6h0Z" transform="translate(0 0)" fill="#b3b3b3"/><rect x="50.915" y="239.822" width="18" height="18" fill="none"/><path d="M55.136,257.319a2.682,2.682,0,0,1-2.7-2.585V242.862A2.748,2.748,0,0,1,55.2,240.3H60.92l6.477,6.476v8.034a2.607,2.607,0,0,1-2.63,2.563Z" transform="translate(0 0)" fill="#fff"/><path d="M55.2,240.749h5.536l6.213,6.213v7.844a2.185,2.185,0,0,1-2.185,2.117l-9.625-.054a2.349,2.349,0,0,1-1.588-.647,2.037,2.037,0,0,1-.665-1.489V242.866a2.287,2.287,0,0,1,2.315-2.117m0-.9a3.194,3.194,0,0,0-3.215,3.014v11.87a3.144,3.144,0,0,0,3.15,3.037l9.623,0.054h0.012a3.072,3.072,0,0,0,3.079-3.014v-8.22l-6.74-6.74H55.2Z" transform="translate(0 0)" fill="#b3b3b3"/><polygon points="61.489 246.139 61.489 240.92 66.813 246.139 61.489 246.139" fill="#f2f2f2"/><path d="M61.939,241.991l3.773,3.7H61.939v-3.7m-0.9-2.142v6.74h6.877l-6.877-6.74h0Z" transform="translate(0 0)" fill="#b3b3b3"/><path d="M65,250.452a1.633,1.633,0,0,0-1.239-.115,1.7,1.7,0,0,0-.67-1.08l-0.134-.108-0.112.13a1.458,1.458,0,0,0-.262,1.028,1.339,1.339,0,0,0,.25.69,1.9,1.9,0,0,1-.361.163,2.342,2.342,0,0,1-.742.124H54.718l-0.015.161a3.1,3.1,0,0,0,.247,1.571l0.1,0.2,0.011,0.018a3.386,3.386,0,0,0,3.077,1.59,5.408,5.408,0,0,0,5.379-3.394,1.544,1.544,0,0,0,1.553-.741l0.077-.151Z" transform="translate(0 0)" fill="#158cb6"/><polygon points="61.186 250.193 60.118 250.193 60.118 248.057 58.836 248.057 58.836 249.125 56.699 249.125 56.699 250.193 55.631 250.193 55.631 251.285 61.186 251.285 61.186 250.193" fill="#00acd3"/><g id="close"><line x1="722.939" y1="17.118" x2="733.606" y2="27.784" fill="none" stroke="#e0e0e0" stroke-linecap="round" stroke-miterlimit="10" stroke-width="2"/><line x1="733.606" y1="17.118" x2="722.939" y2="27.784" fill="none" stroke="#e0e0e0" stroke-linecap="round" stroke-miterlimit="10" stroke-width="2"/></g><line id="border" x1="1" y1="127.784" x2="749" y2="127.784" fill="none" stroke="#e6e6e5" stroke-miterlimit="10"/><g id="title"><circle cx="297.901" cy="22.451" r="4.5" fill="#75c37f"/><path id="Rectangle-236-Copy-4" d="M318.1,17.951h134a4.481,4.481,0,0,1,4.5,4.463q0,0.019,0,.037h0a4.481,4.481,0,0,1-4.463,4.5H318.1a4.481,4.481,0,0,1-4.5-4.463q0-.019,0-0.037h0a4.481,4.481,0,0,1,4.463-4.5H318.1Z" transform="translate(0 0)" fill="#eee"/></g><g id="exposed_ports" data-name="exposed ports"><rect x="340.099" y="41.368" width="90" height="72" rx="3" ry="3" fill="none"/><path d="M377.787,69.953a2.241,2.241,0,0,1-2.234-2.251L375.6,55.135a2.247,2.247,0,0,1,2.243-2.234l12.574,0.048a2.242,2.242,0,0,1,2.234,2.251L392.6,67.766A2.247,2.247,0,0,1,390.362,70Z" transform="translate(0 0)" fill="#b3b3b3"/><path d="M377.843,52.451l0.007,0.9L390.417,53.4a1.793,1.793,0,0,1,1.786,1.8l-0.048,12.566a1.8,1.8,0,0,1-1.8,1.786L377.789,69.5A1.793,1.793,0,0,1,376,67.7l0.048-12.566a1.8,1.8,0,0,1,1.793-1.786v-0.9m0,0a2.693,2.693,0,0,0-2.693,2.683L375.1,67.7a2.693,2.693,0,0,0,2.683,2.7l12.566,0.048h0.01a2.693,2.693,0,0,0,2.693-2.683L393.1,55.2a2.693,2.693,0,0,0-2.683-2.7l-12.566-.048h-0.01Z" transform="translate(0 0)" fill="gray"/><rect x="378.103" y="65.451" width="2" height="2" fill="#3ccb5a"/><polygon points="381.553 66.001 381.553 64.001 380.553 64.001 380.553 63.001 378.553 63.001 378.553 55.901 389.652 55.901 389.652 63.001 387.652 63.001 387.652 64.001 386.652 64.001 386.652 66.001 381.553 66.001" fill="gray"/><path d="M389.2,56.351v6.2h-2v1h-1v2H382v-2h-1v-1h-2v-6.2h10.2m0.9-.9h-12v8h2v1h1v2h6v-2h1v-1h2v-8h0Z" transform="translate(0 0)" fill="#666"/><rect x="379.103" y="56.451" width="10" height="1" fill="#db970d"/><path d="M365.706,89.886h-5.319V81.222h5.319v1.124h-4.018v2.59h3.789v1.079h-3.789v2.749h4.018v1.124Z" transform="translate(0 0)" fill="#afafb0"/><path d="M369.662,87.443h-0.019l-1.581,2.444h-1.422l2.241-3.352L366.673,83.2h1.517l1.536,2.45h0.013l1.536-2.45h1.447l-2.234,3.339,2.26,3.352h-1.485Z" transform="translate(0 0)" fill="#afafb0"/><path d="M375.4,88.972h-0.044v3.212h-1.282V83.2h1.244v0.971h0.045a2.2,2.2,0,0,1,1.961-1.073c1.5,0,2.59,1.149,2.59,3.142v0.6c0,1.974-1.072,3.148-2.628,3.148A2.129,2.129,0,0,1,375.4,88.972Zm3.219-2.215V86.281c0-1.339-.6-2.12-1.6-2.12-1.035,0-1.676.838-1.676,2.114v0.482c0,1.314.647,2.152,1.7,2.152C377.985,88.909,378.62,88.16,378.62,86.757Z" transform="translate(0 0)" fill="#afafb0"/><path d="M387.166,86.243v0.565c0,1.86-1.022,3.193-2.927,3.193s-2.945-1.333-2.945-3.193V86.249A2.944,2.944,0,1,1,387.166,86.243Zm-4.583.032v0.514c0,1.263.564,2.146,1.65,2.146s1.645-.876,1.645-2.146V86.275c0-1.282-.559-2.139-1.645-2.139S382.583,85,382.583,86.275Z" transform="translate(0 0)" fill="#afafb0"/><path d="M391.1,83.082c1.58,0,2.438.863,2.438,2.019h-1.168a1.126,1.126,0,0,0-1.308-1.035,1.063,1.063,0,0,0-1.27.939c0,0.724.914,0.863,1.676,1,1.251,0.222,2.253.59,2.253,1.873,0,1.346-1.072,2.12-2.717,2.12-1.555,0-2.57-.743-2.57-1.942h1.25a1.235,1.235,0,0,0,1.41.952c0.945,0,1.377-.444,1.377-0.971,0-.717-0.768-0.851-1.676-1.028-1.231-.254-2.24-0.66-2.24-1.879C388.558,83.7,389.776,83.082,391.1,83.082Z" transform="translate(0 0)" fill="#afafb0"/><path d="M394.989,86.846v-0.7a2.754,2.754,0,0,1,2.83-3.06c1.771,0,2.818,1.257,2.818,3.123V86.84h-4.373v0.14a1.718,1.718,0,0,0,1.631,1.987A1.377,1.377,0,0,0,399.317,88h1.238a2.511,2.511,0,0,1-2.686,2C396.1,90,394.989,88.795,394.989,86.846Zm4.386-.946V85.881a1.569,1.569,0,1,0-3.11,0V85.9h3.11Z" transform="translate(0 0)" fill="#afafb0"/><path d="M406.55,84.135h0.044V80.765h1.282v9.122h-1.244V88.871h-0.038a2.115,2.115,0,0,1-1.962,1.111c-1.707,0-2.634-1.257-2.634-3.148v-0.6c0-1.854.978-3.148,2.634-3.148A2.124,2.124,0,0,1,406.55,84.135Zm-3.25,2.146V86.8c0,1.409.679,2.107,1.625,2.107,1.041,0,1.682-.749,1.682-2.1V86.281c0-1.289-.647-2.114-1.7-2.114C403.979,84.167,403.3,84.865,403.3,86.281Z" transform="translate(0 0)" fill="#afafb0"/><path d="M373.011,95.222a2.756,2.756,0,1,1-.007,5.51h-1.948v3.155h-1.3V95.222h3.257Zm-1.955,4.412h1.219c1.39,0,2.209-.311,2.209-1.65a1.5,1.5,0,0,0-1.639-1.65h-1.789v3.3Z" transform="translate(0 0)" fill="#afafb0"/><path d="M382.736,100.243v0.565c0,1.86-1.022,3.193-2.927,3.193s-2.945-1.333-2.945-3.193v-0.559A2.944,2.944,0,1,1,382.736,100.243Zm-4.583.032v0.514c0,1.263.564,2.146,1.65,2.146s1.645-.876,1.645-2.146v-0.514c0-1.282-.559-2.139-1.645-2.139S378.153,99,378.153,100.275Z" transform="translate(0 0)" fill="#afafb0"/><path d="M384.389,97.2h1.282v0.851h0.045a1.69,1.69,0,0,1,1.618-.952,3.189,3.189,0,0,1,.45.032v1.149a3.4,3.4,0,0,0-.57-0.038,1.4,1.4,0,0,0-1.53,1.612v4.037h-1.295V97.2Z" transform="translate(0 0)" fill="#afafb0"/><path d="M389.862,95.546h1.263V97.2h1.313v1.041h-1.313v3.707c0,0.762.272,0.965,1.054,0.965,0.114,0,.216-0.006.3-0.013v1a4.2,4.2,0,0,1-.622.044c-1.612,0-2.013-.6-2.013-1.93V98.237h-0.914V97.2h0.928v-1.65Z" transform="translate(0 0)" fill="#afafb0"/><path d="M396.287,97.082c1.581,0,2.438.863,2.438,2.019h-1.168a1.126,1.126,0,0,0-1.308-1.035,1.064,1.064,0,0,0-1.27.939c0,0.724.914,0.863,1.676,1,1.25,0.222,2.254.59,2.254,1.873,0,1.346-1.073,2.12-2.717,2.12-1.556,0-2.571-.743-2.571-1.942h1.251a1.232,1.232,0,0,0,1.408.952c0.946,0,1.378-.444,1.378-0.971,0-.717-0.769-0.851-1.676-1.028-1.231-.254-2.241-0.66-2.241-1.879C393.741,97.7,394.96,97.082,396.287,97.082Z" transform="translate(0 0)" fill="#afafb0"/></g><g id="security"><rect x="240.163" y="41.368" width="90" height="72" rx="3" ry="3" fill="none"/><path d="M285.131,70.232a8.418,8.418,0,1,1,.033,0h-0.033Z" transform="translate(0 0)" fill="#b3b3b3"/><path d="M285.163,52.73l0.032,0.9a8.076,8.076,0,1,1-.032,0v-0.9m0,0a8.976,8.976,0,0,0-8.975,8.942h0a8.976,8.976,0,0,0,8.942,9.01h0.035a8.976,8.976,0,0,0,8.975-8.942h0a8.976,8.976,0,0,0-8.942-9.01h-0.035Z" transform="translate(0 0)" fill="gray"/><circle cx="285.163" cy="59.706" r="3" fill="#414042"/><path d="M285.163,59.706h0a1,1,0,0,1,1,1l0.763,4.577a1.222,1.222,0,0,1-1.205,1.423h-1.115a1.222,1.222,0,0,1-1.205-1.423l0.763-4.577A1,1,0,0,1,285.163,59.706Z" transform="translate(0 0)" fill="#414042"/><path d="M262.765,92.9a1.776,1.776,0,0,0,2.025,1.454c1.155,0,1.866-.552,1.866-1.422,0-.686-0.444-1.06-1.39-1.295l-1.461-.368a2.371,2.371,0,0,1-2.082-2.311c0-1.644,1.447-2.539,3.079-2.539,1.6,0,3.034.857,3.065,2.5h-1.263a1.6,1.6,0,0,0-1.821-1.4c-1.029,0-1.746.489-1.746,1.346a1.288,1.288,0,0,0,1.213,1.206l1.447,0.368c1.313,0.33,2.278.946,2.278,2.387,0,1.7-1.4,2.634-3.3,2.634-2.361,0-3.167-1.4-3.2-2.558h1.288Z" transform="translate(0 0)" fill="#afafb0"/><path d="M269.255,92.239v-0.7a2.754,2.754,0,0,1,2.83-3.06c1.771,0,2.818,1.257,2.818,3.123v0.635h-4.373v0.14a1.718,1.718,0,0,0,1.631,1.987,1.377,1.377,0,0,0,1.422-.965h1.238a2.511,2.511,0,0,1-2.686,2C270.366,95.394,269.255,94.188,269.255,92.239Zm4.386-.946V91.274a1.569,1.569,0,1,0-3.11,0v0.019h3.11Z" transform="translate(0 0)" fill="#afafb0"/><path d="M276.257,91.591a2.808,2.808,0,0,1,2.844-3.117,2.415,2.415,0,0,1,2.622,2.152h-1.231a1.355,1.355,0,0,0-1.314-1.066c-1.027,0-1.631.781-1.631,2.063v0.6c0,1.27.635,2.082,1.638,2.082a1.257,1.257,0,0,0,1.353-.971h1.225a2.4,2.4,0,0,1-2.66,2.063c-1.8,0-2.844-1.339-2.844-3.18V91.591Z" transform="translate(0 0)" fill="#afafb0"/><path d="M288.77,95.279h-1.263V94.372h-0.051a1.964,1.964,0,0,1-1.937,1.016,2.155,2.155,0,0,1-2.343-2.342V88.589h1.283v4.1a1.364,1.364,0,0,0,1.5,1.568,1.452,1.452,0,0,0,1.529-1.587V88.589h1.282v6.69Z" transform="translate(0 0)" fill="#afafb0"/><path d="M290.689,88.589h1.282V89.44h0.044a1.692,1.692,0,0,1,1.619-.952,3.214,3.214,0,0,1,.451.032v1.149a3.414,3.414,0,0,0-.572-0.038,1.4,1.4,0,0,0-1.529,1.612v4.037h-1.295v-6.69Z" transform="translate(0 0)" fill="#afafb0"/><path d="M296.226,86.2a0.756,0.756,0,1,1-.781.755A0.759,0.759,0,0,1,296.226,86.2Zm-0.642,2.387h1.282v6.69h-1.282v-6.69Z" transform="translate(0 0)" fill="#afafb0"/><path d="M299.273,86.939h1.264v1.65h1.314V89.63h-1.314v3.707c0,0.762.273,0.965,1.054,0.965,0.114,0,.216-0.006.3-0.013v1a4.219,4.219,0,0,1-.622.044c-1.612,0-2.012-.6-2.012-1.93V89.63h-0.914V88.589h0.926v-1.65Z" transform="translate(0 0)" fill="#afafb0"/><path d="M306.816,95.241l-0.172.463c-0.4,1.06-.92,2-2.418,2a5.6,5.6,0,0,1-.756-0.057v-1a3.807,3.807,0,0,0,.508.032,1.154,1.154,0,0,0,1.283-1.016l0.088-.317-2.418-6.76h1.422l1.682,5.383h0.045l1.7-5.383h1.364S306.822,95.216,306.816,95.241Z" transform="translate(0 0)" fill="#afafb0"/></g><g id="environment_vars" data-name="environment vars"><path d="M478.72,69.877a2.242,2.242,0,0,1-2.235-2.252l0.048-12.566a2.248,2.248,0,0,1,2.243-2.236l12.575,0.048a2.243,2.243,0,0,1,2.235,2.252L493.538,67.69a2.249,2.249,0,0,1-2.244,2.236Z" transform="translate(0 0)" fill="#414042"/><path d="M478.776,52.374l0.007,0.9,12.566,0.048a1.8,1.8,0,0,1,1.788,1.8L493.09,67.688a1.8,1.8,0,0,1-1.8,1.788l-12.566-.048a1.8,1.8,0,0,1-1.788-1.8l0.048-12.566a1.8,1.8,0,0,1,1.8-1.788v-0.9m0,0a2.693,2.693,0,0,0-2.693,2.683l-0.048,12.566a2.693,2.693,0,0,0,2.683,2.7l12.566,0.048h0.01a2.693,2.693,0,0,0,2.693-2.683l0.048-12.566a2.693,2.693,0,0,0-2.683-2.7l-12.566-.048h-0.01Z" transform="translate(0 0)" fill="#a7a9ac"/><path d="M481.67,59.356c0.863-1.224,1.725-1.982,2.345-1.982,0.534,0,.776.6,1.155,1.742l0.293,0.862c1.345-1.949,2.035-2.6,2.793-2.6a0.777,0.777,0,0,1,.793.862,0.964,0.964,0,0,1-.81.914,0.444,0.444,0,0,1-.31-0.173,0.483,0.483,0,0,0-.4-0.207,1.417,1.417,0,0,0-.828.586,11.768,11.768,0,0,0-1.018,1.276l0.638,2.034c0.241,0.845.483,1.259,0.707,1.259a2.408,2.408,0,0,0,1.207-1l0.327,0.4c-0.931,1.482-1.845,2.052-2.465,2.052-0.534,0-.914-0.483-1.259-1.638l-0.449-1.448c-1.4,2.259-2.086,3.086-2.965,3.086a0.863,0.863,0,0,1-.863-0.931,0.931,0.931,0,0,1,.793-0.948,0.411,0.411,0,0,1,.31.173,0.512,0.512,0,0,0,.414.173c0.413,0,1.155-.828,2.086-2.259l-0.5-1.638c-0.293-.948-0.449-1.1-0.6-1.1a1.953,1.953,0,0,0-1.035.931Z" transform="translate(0 0)" fill="#fff"/><path d="M454.577,89.886h-5.319V81.222h5.319v1.124H450.56v2.59h3.789v1.079H450.56v2.749h4.018v1.124Z" transform="translate(0 0)" fill="#afafb0"/><path d="M456.273,83.2h1.263V84.11h0.045a2.129,2.129,0,0,1,1.949-1.022,2.261,2.261,0,0,1,2.367,2.5v4.3h-1.275V85.83a1.439,1.439,0,0,0-1.53-1.612,1.485,1.485,0,0,0-1.542,1.644v4.024h-1.276V83.2Z" transform="translate(0 0)" fill="#afafb0"/><path d="M462.788,83.2h1.357l1.625,5.262h0.045l1.752-5.262h1.3l-2.373,6.69h-1.41Z" transform="translate(0 0)" fill="#afafb0"/><path d="M470.591,80.809a0.756,0.756,0,1,1-.781.755A0.759,0.759,0,0,1,470.591,80.809ZM469.949,83.2h1.282v6.69h-1.282V83.2Z" transform="translate(0 0)" fill="#afafb0"/><path d="M473.214,83.2H474.5v0.851h0.044a1.692,1.692,0,0,1,1.619-.952,3.214,3.214,0,0,1,.451.032v1.149a3.414,3.414,0,0,0-.572-0.038,1.4,1.4,0,0,0-1.529,1.612v4.037h-1.295V83.2Z" transform="translate(0 0)" fill="#afafb0"/><path d="M483.435,86.243v0.565c0,1.86-1.021,3.193-2.926,3.193s-2.945-1.333-2.945-3.193V86.249A2.944,2.944,0,1,1,483.435,86.243Zm-4.583.032v0.514c0,1.263.565,2.146,1.65,2.146s1.644-.876,1.644-2.146V86.275c0-1.282-.559-2.139-1.644-2.139S478.852,85,478.852,86.275Z" transform="translate(0 0)" fill="#afafb0"/><path d="M485.087,83.2h1.264V84.11h0.044a2.13,2.13,0,0,1,1.948-1.022,2.261,2.261,0,0,1,2.368,2.5v4.3h-1.276V85.83a1.438,1.438,0,0,0-1.529-1.612,1.486,1.486,0,0,0-1.543,1.644v4.024h-1.275V83.2Z" transform="translate(0 0)" fill="#afafb0"/><path d="M492.534,83.2H493.8v0.863h0.063a2.107,2.107,0,0,1,3.625.127h0.057a2.107,2.107,0,0,1,2.045-1.1,2.065,2.065,0,0,1,2.228,2.241v4.558h-1.276V85.627a1.28,1.28,0,0,0-1.352-1.422,1.346,1.346,0,0,0-1.384,1.511v4.17h-1.257v-4.17a1.308,1.308,0,0,0-1.365-1.511,1.347,1.347,0,0,0-1.371,1.5v4.183h-1.275V83.2Z" transform="translate(0 0)" fill="#afafb0"/><path d="M503.429,86.846v-0.7a2.754,2.754,0,0,1,2.83-3.06c1.771,0,2.818,1.257,2.818,3.123V86.84H504.7v0.14a1.718,1.718,0,0,0,1.631,1.987A1.377,1.377,0,0,0,507.757,88H509a2.511,2.511,0,0,1-2.686,2C504.539,90,503.429,88.795,503.429,86.846Zm4.386-.946V85.881a1.569,1.569,0,1,0-3.11,0V85.9h3.11Z" transform="translate(0 0)" fill="#afafb0"/><path d="M510.7,83.2h1.264V84.11h0.044a2.13,2.13,0,0,1,1.948-1.022,2.261,2.261,0,0,1,2.368,2.5v4.3h-1.276V85.83a1.438,1.438,0,0,0-1.529-1.612,1.486,1.486,0,0,0-1.543,1.644v4.024H510.7V83.2Z" transform="translate(0 0)" fill="#afafb0"/><path d="M518.6,81.546h1.263V83.2h1.313v1.041h-1.313v3.707c0,0.762.272,0.965,1.054,0.965,0.114,0,.216-0.006.3-0.013v1a4.2,4.2,0,0,1-.622.044c-1.612,0-2.013-.6-2.013-1.93V84.237h-0.914V83.2H518.6v-1.65Z" transform="translate(0 0)" fill="#afafb0"/><path d="M461.488,103.886l-3.047-8.665h1.5l2.267,7.071h0.051l2.246-7.071h1.467l-3.041,8.665h-1.44Z" transform="translate(0 0)" fill="#afafb0"/><path d="M468.326,103.994a1.992,1.992,0,0,1-2.184-2.031c0-1.181.819-1.93,2.354-1.936h1.721V99.373a1.328,1.328,0,0,0-2.621-.222H466.39c0.064-1.149.838-2.063,2.559-2.063,1.46,0,2.545.755,2.545,2.215v4.583h-1.225v-0.825h-0.045A2.056,2.056,0,0,1,468.326,103.994Zm1.892-2.323v-0.755h-1.543a1.019,1.019,0,0,0-1.237.984,1.123,1.123,0,0,0,1.263,1.085A1.381,1.381,0,0,0,470.218,101.671Z" transform="translate(0 0)" fill="#afafb0"/><path d="M473.349,97.2h1.282v0.851h0.044a1.692,1.692,0,0,1,1.619-.952,3.214,3.214,0,0,1,.451.032v1.149a3.414,3.414,0,0,0-.572-0.038,1.4,1.4,0,0,0-1.529,1.612v4.037h-1.295V97.2Z" transform="translate(0 0)" fill="#afafb0"/><path d="M478.886,94.809a0.756,0.756,0,1,1-.781.755A0.759,0.759,0,0,1,478.886,94.809ZM478.244,97.2h1.282v6.69h-1.282V97.2Z" transform="translate(0 0)" fill="#afafb0"/><path d="M483.324,103.994a1.992,1.992,0,0,1-2.184-2.031c0-1.181.819-1.93,2.354-1.936h1.721V99.373a1.328,1.328,0,0,0-2.621-.222h-1.207c0.064-1.149.838-2.063,2.559-2.063,1.46,0,2.545.755,2.545,2.215v4.583h-1.225v-0.825h-0.045A2.056,2.056,0,0,1,483.324,103.994Zm1.892-2.323v-0.755h-1.543a1.019,1.019,0,0,0-1.237.984,1.123,1.123,0,0,0,1.263,1.085A1.381,1.381,0,0,0,485.216,101.671Z" transform="translate(0 0)" fill="#afafb0"/><path d="M489.654,102.871H489.61v1.016h-1.244V94.765h1.281v3.364h0.045a2.234,2.234,0,0,1,1.949-1.035c1.549,0,2.621,1.1,2.621,3.123v0.635c0,1.955-1.041,3.136-2.628,3.136A2.116,2.116,0,0,1,489.654,102.871Zm3.308-2.076v-0.508c0-1.371-.654-2.114-1.588-2.114-1.078,0-1.738.736-1.738,2.114v0.5c0,1.384.653,2.126,1.738,2.126C492.313,102.909,492.962,102.16,492.962,100.8Z" transform="translate(0 0)" fill="#afafb0"/><path d="M495.958,94.765h1.276v9.122h-1.276V94.765Z" transform="translate(0 0)" fill="#afafb0"/><path d="M498.925,100.846v-0.7a2.754,2.754,0,0,1,2.83-3.06c1.771,0,2.818,1.257,2.818,3.123v0.635H500.2v0.14a1.718,1.718,0,0,0,1.631,1.987,1.377,1.377,0,0,0,1.422-.965h1.238a2.511,2.511,0,0,1-2.686,2C500.035,104,498.925,102.795,498.925,100.846Zm4.386-.946V99.881a1.569,1.569,0,1,0-3.11,0V99.9h3.11Z" transform="translate(0 0)" fill="#afafb0"/><path d="M508.485,97.082c1.58,0,2.438.863,2.438,2.019h-1.168a1.126,1.126,0,0,0-1.308-1.035,1.063,1.063,0,0,0-1.27.939c0,0.724.914,0.863,1.676,1,1.251,0.222,2.253.59,2.253,1.873,0,1.346-1.072,2.12-2.717,2.12-1.555,0-2.57-.743-2.57-1.942h1.25a1.235,1.235,0,0,0,1.41.952c0.945,0,1.377-.444,1.377-0.971,0-.717-0.768-0.851-1.676-1.028-1.231-.254-2.24-0.66-2.24-1.879C505.94,97.7,507.159,97.082,508.485,97.082Z" transform="translate(0 0)" fill="#afafb0"/><rect x="440.035" y="41.368" width="90" height="72" rx="3" ry="3" fill="none"/></g><g id="repository"><rect x="140.227" y="41.368" width="90" height="72" rx="3" ry="3" fill="none"/><path d="M161,89.249a2.452,2.452,0,0,1-1.6,2.418l1.759,3.612H159.68L158.105,91.9h-1.917v3.377h-1.295V86.615h3.237A2.563,2.563,0,0,1,161,89.249Zm-3.085,1.581a1.473,1.473,0,0,0,1.732-1.523,1.506,1.506,0,0,0-1.694-1.593h-1.765V90.83h1.727Z" transform="translate(0 0)" fill="#afafb0"/><path d="M162.405,92.239v-0.7a2.754,2.754,0,0,1,2.83-3.06c1.771,0,2.818,1.257,2.818,3.123v0.635h-4.373v0.14a1.718,1.718,0,0,0,1.631,1.987,1.377,1.377,0,0,0,1.422-.965h1.238a2.511,2.511,0,0,1-2.686,2C163.516,95.394,162.405,94.188,162.405,92.239Zm4.386-.946V91.274a1.569,1.569,0,1,0-3.11,0v0.019h3.11Z" transform="translate(0 0)" fill="#afafb0"/><path d="M171.021,94.365h-0.045v3.212h-1.282V88.589h1.244V89.56h0.044a2.206,2.206,0,0,1,1.962-1.073c1.5,0,2.59,1.149,2.59,3.142v0.6c0,1.974-1.073,3.148-2.628,3.148A2.126,2.126,0,0,1,171.021,94.365Zm3.218-2.215V91.674c0-1.339-.6-2.12-1.6-2.12-1.034,0-1.676.838-1.676,2.114V92.15c0,1.314.647,2.152,1.7,2.152C173.6,94.3,174.238,93.553,174.238,92.15Z" transform="translate(0 0)" fill="#afafb0"/><path d="M182.783,91.636V92.2c0,1.86-1.022,3.193-2.927,3.193s-2.945-1.333-2.945-3.193V91.642A2.944,2.944,0,1,1,182.783,91.636Zm-4.583.032v0.514c0,1.263.564,2.146,1.65,2.146s1.645-.876,1.645-2.146V91.668c0-1.282-.559-2.139-1.645-2.139S178.2,90.392,178.2,91.668Z" transform="translate(0 0)" fill="#afafb0"/><path d="M186.721,88.475c1.581,0,2.438.863,2.438,2.019H187.99a1.126,1.126,0,0,0-1.308-1.035,1.064,1.064,0,0,0-1.27.939c0,0.724.914,0.863,1.676,1,1.25,0.222,2.254.59,2.254,1.873,0,1.346-1.073,2.12-2.717,2.12-1.556,0-2.571-.743-2.571-1.942h1.251a1.232,1.232,0,0,0,1.408.952c0.946,0,1.378-.444,1.378-0.971,0-.717-0.769-0.851-1.676-1.028-1.231-.254-2.241-0.66-2.241-1.879C184.175,89.09,185.394,88.475,186.721,88.475Z" transform="translate(0 0)" fill="#afafb0"/><path d="M191.585,86.2a0.756,0.756,0,1,1-.781.755A0.759,0.759,0,0,1,191.585,86.2Zm-0.642,2.387h1.282v6.69h-1.282v-6.69Z" transform="translate(0 0)" fill="#afafb0"/><path d="M194.632,86.939H195.9v1.65h1.314V89.63H195.9v3.707c0,0.762.273,0.965,1.054,0.965,0.114,0,.216-0.006.3-0.013v1a4.219,4.219,0,0,1-.622.044c-1.612,0-2.012-.6-2.012-1.93V89.63h-0.914V88.589h0.926v-1.65Z" transform="translate(0 0)" fill="#afafb0"/><path d="M204.371,91.636V92.2c0,1.86-1.022,3.193-2.927,3.193S198.5,94.061,198.5,92.2V91.642A2.944,2.944,0,1,1,204.371,91.636Zm-4.583.032v0.514c0,1.263.564,2.146,1.65,2.146s1.645-.876,1.645-2.146V91.668c0-1.282-.559-2.139-1.645-2.139S199.788,90.392,199.788,91.668Z" transform="translate(0 0)" fill="#afafb0"/><path d="M206.023,88.589h1.282V89.44h0.045a1.69,1.69,0,0,1,1.618-.952,3.189,3.189,0,0,1,.45.032v1.149a3.4,3.4,0,0,0-.57-0.038,1.4,1.4,0,0,0-1.53,1.612v4.037h-1.295v-6.69Z" transform="translate(0 0)" fill="#afafb0"/><path d="M214.15,95.241l-0.171.463c-0.4,1.06-.921,2-2.419,2a5.553,5.553,0,0,1-.755-0.057v-1a3.8,3.8,0,0,0,.508.032,1.152,1.152,0,0,0,1.281-1.016l0.09-.317-2.419-6.76h1.422l1.683,5.383h0.044l1.694-5.383h1.365S214.157,95.216,214.15,95.241Z" transform="translate(0 0)" fill="#afafb0"/><path d="M180.613,68.821c-1.213,0-2.9-.659-2.9-1.733v-1.8c0-1.442,2.229-1.484,2.484-1.484h10.629c0.4,0,.418,0,0.6-0.012,0.128-.007.339-0.019,0.835-0.039l0.085,0,0.079-.033a2.329,2.329,0,0,0,.322-0.167v2.738c0,0.941-.317,2.534-1.5,2.534H180.613Z" transform="translate(0 0)" fill="#e6e6e6"/><path d="M192.28,64.219v2.068c0,0.715-.217,2.068-1.039,2.068H180.613c-1.1,0-2.439-.585-2.439-1.268v-1.8c0-1.007,1.936-1.018,2.018-1.018h10.629c0.419,0,.437,0,0.632-0.012,0.127-.007.337-0.019,0.825-0.038h0m0.932-2.235a1.531,1.531,0,0,1-.971,1.3c-1.187.047-.759,0.049-1.421,0.049H180.192c-1.419,0-2.951.531-2.951,1.951v1.8c0,1.419,1.952,2.2,3.371,2.2h10.629c1.419,0,1.971-1.581,1.971-3v-4.3h0Z" transform="translate(0 0)" fill="gray"/><path d="M177.708,55.287a2.708,2.708,0,0,1,2.524-2.534h10.134a2.425,2.425,0,0,1,2.379,2.461v7.926a1.145,1.145,0,0,1-.614.678c-0.435.017-.632,0.028-0.754,0.035-0.173.009-.187,0.01-0.556,0.01h-10.58a4.39,4.39,0,0,0-2.534.671V55.287Z" transform="translate(0 0)" fill="#b3b3b3"/><path d="M180.232,53.22h10.131a1.96,1.96,0,0,1,1.917,2V63.06a0.661,0.661,0,0,1-.274.3c-0.366.015-.543,0.025-0.655,0.031-0.164.009-.178,0.009-0.529,0.009H180.192a5.4,5.4,0,0,0-2.018.36V55.291a2.243,2.243,0,0,1,2.058-2.071m0-.932a3.16,3.16,0,0,0-2.99,3V66.275l0.347-.994a3.351,3.351,0,0,1,2.6-.951h10.629c0.662,0,.233,0,1.42-0.049a1.609,1.609,0,0,0,.971-1.076V55.217a2.889,2.889,0,0,0-2.846-2.93H180.232Z" transform="translate(0 0)" fill="gray"/><path d="M183.527,68.381a0.5,0.5,0,0,0-.6,0l-1.181.885,0.022-4.478h2.971l-0.022,4.486Z" transform="translate(0 0)" fill="#ef9ca4"/><path d="M184.237,65.287l-0.015,2.989-0.4-.3a1,1,0,0,0-1.2,0l-0.376.282,0.015-2.975h1.971m1-1h-3.971l-0.027,5.579a0.2,0.2,0,0,0,.2.2,0.2,0.2,0,0,0,.119-0.04l1.663-1.247,1.667,1.25a0.2,0.2,0,0,0,.119.04,0.2,0.2,0,0,0,.2-0.2l0.027-5.584h0Z" transform="translate(0 0)" fill="#f25058"/></g><g id="dockerfile"><rect x="539.991" y="41.368" width="90" height="72" rx="3" ry="3" fill="#fbf9fc" stroke="#8151a1" stroke-miterlimit="10" stroke-width="2"/><path d="M559.412,86.19c2.793,0,3.834,1.79,3.834,4.323,0,2.495-1,4.342-3.834,4.342h-2.9V86.19h2.9Zm-1.593,7.541H559.3c1.752,0,2.6-1.047,2.6-3.2,0-1.942-.686-3.218-2.6-3.218h-1.479v6.417Z" transform="translate(0 0)" fill="#8151a1"/><path d="M570.37,91.211v0.565c0,1.86-1.022,3.193-2.927,3.193s-2.945-1.333-2.945-3.193V91.217A2.944,2.944,0,1,1,570.37,91.211Zm-4.583.032v0.514c0,1.263.564,2.146,1.65,2.146s1.645-.876,1.645-2.146V91.242c0-1.282-.559-2.139-1.645-2.139S565.787,89.966,565.787,91.242Z" transform="translate(0 0)" fill="#8151a1"/><path d="M571.75,91.166a2.807,2.807,0,0,1,2.844-3.117,2.413,2.413,0,0,1,2.621,2.152h-1.231a1.354,1.354,0,0,0-1.313-1.066c-1.029,0-1.632.781-1.632,2.063v0.6c0,1.27.635,2.082,1.638,2.082a1.255,1.255,0,0,0,1.352-.971h1.226a2.4,2.4,0,0,1-2.659,2.063c-1.8,0-2.844-1.339-2.844-3.18V91.166Z" transform="translate(0 0)" fill="#8151a1"/><path d="M580.06,94.854h-1.282V85.733h1.282v5.319h0.058l2.507-2.888h1.542l-2.576,2.9,2.742,3.79h-1.549l-2.152-3.009-0.571.635v2.374Z" transform="translate(0 0)" fill="#8151a1"/><path d="M584.879,91.814v-0.7a2.755,2.755,0,0,1,2.832-3.06c1.771,0,2.818,1.257,2.818,3.123v0.635h-4.374v0.14a1.718,1.718,0,0,0,1.632,1.987,1.378,1.378,0,0,0,1.422-.965h1.237a2.51,2.51,0,0,1-2.685,2C585.99,94.968,584.879,93.762,584.879,91.814Zm4.387-.946V90.849a1.569,1.569,0,1,0-3.11,0v0.019h3.11Z" transform="translate(0 0)" fill="#8151a1"/><path d="M592.155,88.164h1.282v0.851h0.045a1.69,1.69,0,0,1,1.618-.952,3.189,3.189,0,0,1,.45.032v1.149a3.4,3.4,0,0,0-.57-0.038,1.4,1.4,0,0,0-1.53,1.612v4.037h-1.295v-6.69Z" transform="translate(0 0)" fill="#8151a1"/><path d="M597.629,89.2h-0.921V88.164h0.921V87.5c0-1.308.66-1.879,2.094-1.879a3.454,3.454,0,0,1,.565.038v0.99a2.316,2.316,0,0,0-.362-0.025,0.852,0.852,0,0,0-1.034.978v0.565H600.2V89.2H598.9v5.649h-1.275V89.2Z" transform="translate(0 0)" fill="#8151a1"/><path d="M602.492,85.777a0.756,0.756,0,1,1-.781.755A0.759,0.759,0,0,1,602.492,85.777Zm-0.642,2.387h1.282v6.69h-1.282v-6.69Z" transform="translate(0 0)" fill="#8151a1"/><path d="M605.16,85.733h1.275v9.122H605.16V85.733Z" transform="translate(0 0)" fill="#8151a1"/><path d="M608.125,91.814v-0.7a2.755,2.755,0,0,1,2.832-3.06c1.771,0,2.818,1.257,2.818,3.123v0.635H609.4v0.14a1.718,1.718,0,0,0,1.632,1.987,1.378,1.378,0,0,0,1.422-.965h1.237a2.51,2.51,0,0,1-2.685,2C609.236,94.968,608.125,93.762,608.125,91.814Zm4.387-.946V90.849a1.569,1.569,0,1,0-3.11,0v0.019h3.11Z" transform="translate(0 0)" fill="#8151a1"/><rect x="575.959" y="53.883" width="18" height="18" fill="none"/><path d="M580.18,71.38a2.8,2.8,0,0,1-1.9-.771,2.478,2.478,0,0,1-.806-1.814V56.923a2.747,2.747,0,0,1,2.765-2.563h5.722l6.477,6.477V68.87a2.605,2.605,0,0,1-2.627,2.563Z" transform="translate(0 0)" fill="#fff"/><path d="M580.242,54.81h5.536l6.213,6.213v7.844a2.185,2.185,0,0,1-2.185,2.117l-9.625-.054a2.254,2.254,0,0,1-2.253-2.137V56.927a2.287,2.287,0,0,1,2.315-2.117m0-.9a3.194,3.194,0,0,0-3.215,3.013v11.87a3.144,3.144,0,0,0,3.15,3.037l9.623,0.054h0.012a3.072,3.072,0,0,0,3.079-3.014V60.65l-6.74-6.74h-5.908Z" transform="translate(0 0)" fill="#b3b3b3"/><polygon points="586.532 60.2 586.532 54.981 591.857 60.2 586.532 60.2" fill="#f2f2f2"/><path d="M586.983,56.052l3.773,3.7h-3.773v-3.7m-0.9-2.142v6.74h6.877l-6.877-6.74h0Z" transform="translate(0 0)" fill="#b3b3b3"/><path d="M590.04,64.513A1.633,1.633,0,0,0,588.8,64.4a1.7,1.7,0,0,0-.67-1.08L588,63.21l-0.112.13a1.458,1.458,0,0,0-.262,1.028,1.339,1.339,0,0,0,.25.69,1.9,1.9,0,0,1-.361.163,2.342,2.342,0,0,1-.742.124h-7.008l-0.015.161a3.1,3.1,0,0,0,.247,1.571l0.1,0.2,0.011,0.018a3.386,3.386,0,0,0,3.077,1.59,5.408,5.408,0,0,0,5.379-3.394,1.544,1.544,0,0,0,1.553-.741l0.077-.151Z" transform="translate(0 0)" fill="#158cb6"/><polygon points="586.23 64.254 585.161 64.254 585.161 62.118 583.88 62.118 583.88 63.186 581.743 63.186 581.743 64.254 580.675 64.254 580.675 65.346 586.23 65.346 586.23 64.254" fill="#00acd3"/></g></svg>