<svg id="outlined_ui" data-name="outlined ui" xmlns="http://www.w3.org/2000/svg" viewBox="0 0 330 273"><title>setup-branches</title><rect x="0.5" y="0.5" width="329" height="272" rx="11.5" ry="11.5" fill="#fff"/><path d="M318,1a11.012,11.012,0,0,1,11,11V261a11.012,11.012,0,0,1-11,11H12A11.012,11.012,0,0,1,1,261V12A11.012,11.012,0,0,1,12,1H318m0-1H12A12,12,0,0,0,0,12V261a12,12,0,0,0,12,12H318a12,12,0,0,0,12-12V12A12,12,0,0,0,318,0h0Z" fill="#e6e6e6"/><rect x="15" y="15" width="300" height="60" rx="3" ry="3" fill="#fafafa" stroke="#e6e6e6" stroke-miterlimit="10"/><path d="M30.343,39.994l3.11-8.665h0.984l3.11,8.665H36.462l-0.9-2.666H32.285l-0.908,2.666H30.343ZM33.9,32.58L32.571,36.5h2.7L33.942,32.58H33.9Z" fill="#888"/><path d="M44.339,39.994h-1v-1.1H43.286A1.987,1.987,0,0,1,41.3,40.1c-1.333,0-2.292-.578-2.292-2.114V33.335h1v4.38a1.353,1.353,0,0,0,1.523,1.5,1.731,1.731,0,0,0,1.815-1.631V33.335h1v6.659Z" fill="#888"/><path d="M47.012,31.659h1v1.676h1.511v0.832H48.008v4.018c0,0.819.26,1.022,1.1,1.022,0.152,0,.413-0.019.514-0.032v0.832a7.233,7.233,0,0,1-.768.051c-1.562,0-1.847-.622-1.847-1.923V34.167H46V33.335h1.016V31.659Z" fill="#888"/><path d="M56.787,36.134v1.054a2.829,2.829,0,1,1-5.656,0V36.134a2.736,2.736,0,0,1,2.831-2.907A2.7,2.7,0,0,1,56.787,36.134Zm-4.659.114v0.838a1.853,1.853,0,1,0,3.663,0V36.249A1.853,1.853,0,1,0,52.128,36.249Z" fill="#888"/><path d="M58.793,33.335h1v1.047H59.84a1.694,1.694,0,0,1,1.8-1.155,1.805,1.805,0,0,1,1.86,1.25h0.044a2.055,2.055,0,0,1,2.031-1.25A1.953,1.953,0,0,1,67.788,35.3v4.7h-1V35.563a1.337,1.337,0,0,0-1.454-1.454,1.543,1.543,0,0,0-1.549,1.612v4.272h-1v-4.38a1.407,1.407,0,0,0-1.485-1.5,1.5,1.5,0,0,0-1.517,1.6v4.285h-1V33.335Z" fill="#888"/><path d="M69.7,38.058c0-1.155.806-1.949,2.33-1.949h1.777V35.43a1.262,1.262,0,0,0-1.479-1.32,1.234,1.234,0,0,0-1.4.813H69.958c0.108-1.136,1.028-1.695,2.418-1.695,1.333,0,2.444.584,2.444,2.2v4.57H73.856V39.1H73.812a2.158,2.158,0,0,1-1.936,1A2,2,0,0,1,69.7,38.058Zm4.107-.355V36.94H72.053a1.1,1.1,0,0,0-1.32,1.1,1.226,1.226,0,0,0,1.4,1.181A1.572,1.572,0,0,0,73.812,37.7Z" fill="#888"/><path d="M77.461,31.659h1v1.676h1.511v0.832H78.458v4.018c0,0.819.26,1.022,1.1,1.022,0.152,0,.413-0.019.514-0.032v0.832a7.233,7.233,0,0,1-.768.051c-1.562,0-1.847-.622-1.847-1.923V34.167H76.446V33.335h1.016V31.659Z" fill="#888"/><path d="M82.571,30.5a0.749,0.749,0,1,1-.743.755A0.735,0.735,0,0,1,82.571,30.5Zm-0.489,2.831h1v6.659h-1V33.335Z" fill="#888"/><path d="M85.256,36.071a2.6,2.6,0,0,1,2.729-2.844,2.231,2.231,0,0,1,2.5,1.949h-1A1.338,1.338,0,0,0,88,34.135a1.707,1.707,0,0,0-1.746,1.98v1.136A1.721,1.721,0,0,0,88,39.194a1.35,1.35,0,0,0,1.542-.958h1c-0.044.9-.812,1.866-2.552,1.866a2.6,2.6,0,0,1-2.729-2.863V36.071Z" fill="#888"/><path d="M92.029,38.058c0-1.155.806-1.949,2.33-1.949h1.777V35.43a1.262,1.262,0,0,0-1.479-1.32,1.234,1.234,0,0,0-1.4.813H92.283c0.108-1.136,1.028-1.695,2.418-1.695,1.333,0,2.444.584,2.444,2.2v4.57H96.181V39.1H96.136a2.158,2.158,0,0,1-1.936,1A2,2,0,0,1,92.029,38.058Zm4.107-.355V36.94H94.378a1.1,1.1,0,0,0-1.32,1.1,1.226,1.226,0,0,0,1.4,1.181A1.572,1.572,0,0,0,96.136,37.7Z" fill="#888"/><path d="M99.488,30.618h1v9.375h-1V30.618Z" fill="#888"/><path d="M102.9,30.618h1v9.375h-1V30.618Z" fill="#888"/><path d="M109.168,40.063L109,40.527c-0.355.965-.8,1.911-2.146,1.911a4.61,4.61,0,0,1-.641-0.051V41.542a3.543,3.543,0,0,0,.482.032,1.242,1.242,0,0,0,1.32-1.092l0.108-.381-2.482-6.767h1.111l1.86,5.624h0.044l1.86-5.624h1.06Z" fill="#888"/><path d="M115.814,38.058c0-1.155.806-1.949,2.33-1.949h1.777V35.43a1.262,1.262,0,0,0-1.479-1.32,1.234,1.234,0,0,0-1.4.813h-0.971c0.108-1.136,1.028-1.695,2.418-1.695,1.333,0,2.444.584,2.444,2.2v4.57h-0.965V39.1h-0.044a2.158,2.158,0,0,1-1.936,1A2,2,0,0,1,115.814,38.058Zm4.107-.355V36.94h-1.758a1.1,1.1,0,0,0-1.32,1.1,1.226,1.226,0,0,0,1.4,1.181A1.572,1.572,0,0,0,119.921,37.7Z" fill="#888"/><path d="M127.449,34.306H127.5V30.618h1v9.375h-0.946v-1.06H127.5a1.972,1.972,0,0,1-2.019,1.162,2.5,2.5,0,0,1-2.577-2.742V35.969a2.528,2.528,0,0,1,2.609-2.749A1.93,1.93,0,0,1,127.449,34.306ZM123.9,36.217v0.87c0,1.358.686,2.126,1.784,2.126a1.792,1.792,0,0,0,1.815-2.006V35.963a1.8,1.8,0,0,0-1.854-1.86C124.567,34.1,123.9,34.884,123.9,36.217Z" fill="#888"/><path d="M135.066,34.306h0.051V30.618h1v9.375h-0.946v-1.06h-0.051A1.972,1.972,0,0,1,133.1,40.1a2.5,2.5,0,0,1-2.577-2.742V35.969a2.528,2.528,0,0,1,2.609-2.749A1.93,1.93,0,0,1,135.066,34.306Zm-3.548,1.911v0.87c0,1.358.686,2.126,1.784,2.126a1.792,1.792,0,0,0,1.815-2.006V35.963a1.8,1.8,0,0,0-1.854-1.86C132.185,34.1,131.518,34.884,131.518,36.217Z" fill="#888"/><path d="M142.423,39.016h-0.051v0.978h-0.946V30.618h1v3.771h0.051a1.9,1.9,0,0,1,1.974-1.162,2.521,2.521,0,0,1,2.571,2.825v1.219A2.538,2.538,0,0,1,144.41,40.1,2.028,2.028,0,0,1,142.423,39.016Zm3.6-1.961V36.312c0-1.422-.667-2.2-1.771-2.2a1.808,1.808,0,0,0-1.828,2.038v1.181a1.812,1.812,0,0,0,1.86,1.892C145.305,39.219,146.022,38.527,146.022,37.055Z" fill="#888"/><path d="M149.139,33.335h1v1.022h0.051a1.831,1.831,0,0,1,1.866-1.124c0.121,0,.254.013,0.387,0.025v0.927a3.675,3.675,0,0,0-.508-0.025,1.6,1.6,0,0,0-1.8,1.625v4.208h-1V33.335Z" fill="#888"/><path d="M153.633,38.058c0-1.155.806-1.949,2.33-1.949h1.777V35.43a1.262,1.262,0,0,0-1.479-1.32,1.234,1.234,0,0,0-1.4.813h-0.971c0.108-1.136,1.028-1.695,2.418-1.695,1.333,0,2.444.584,2.444,2.2v4.57h-0.965V39.1H157.74a2.158,2.158,0,0,1-1.936,1A2,2,0,0,1,153.633,38.058Zm4.107-.355V36.94h-1.758a1.1,1.1,0,0,0-1.32,1.1,1.226,1.226,0,0,0,1.4,1.181A1.572,1.572,0,0,0,157.74,37.7Z" fill="#888"/><path d="M161.054,33.335h1v1.219H162.1a1.886,1.886,0,0,1,2.031-1.327,2.04,2.04,0,0,1,2.272,2.2v4.57h-1v-4.24a1.428,1.428,0,0,0-1.511-1.644,1.886,1.886,0,0,0-1.847,2.171v3.713h-1V33.335Z" fill="#888"/><path d="M168.379,36.071a2.6,2.6,0,0,1,2.729-2.844,2.231,2.231,0,0,1,2.5,1.949h-1a1.338,1.338,0,0,0-1.492-1.041,1.707,1.707,0,0,0-1.746,1.98v1.136a1.722,1.722,0,0,0,1.746,1.942,1.35,1.35,0,0,0,1.543-.958h1c-0.045.9-.812,1.866-2.552,1.866a2.6,2.6,0,0,1-2.729-2.863V36.071Z" fill="#888"/><path d="M175.559,30.618h1v3.936h0.051a2,2,0,0,1,2.082-1.327,2.056,2.056,0,0,1,2.247,2.209v4.558h-1V35.766a1.467,1.467,0,0,0-1.549-1.657,1.894,1.894,0,0,0-1.834,2.171v3.713h-1V30.618Z" fill="#888"/><path d="M182.908,37.207V36.128a2.717,2.717,0,1,1,5.422,0V36.94h-4.418v0.343a1.747,1.747,0,0,0,1.783,1.936,1.459,1.459,0,0,0,1.479-.8h1.061A2.375,2.375,0,0,1,185.7,40.1,2.635,2.635,0,0,1,182.908,37.207Zm4.418-1.041V36.045a1.721,1.721,0,1,0-3.414,0v0.121h3.414Z" fill="#888"/><path d="M192.393,33.227c1.415,0,2.336.755,2.336,1.841h-0.939a1.263,1.263,0,0,0-1.441-1.009,1.188,1.188,0,0,0-1.409,1.06c0,0.825.87,0.933,1.632,1.073,1.25,0.222,2.322.54,2.322,1.854s-1.066,2.057-2.6,2.057c-1.422,0-2.444-.635-2.444-1.828h0.978a1.251,1.251,0,0,0,1.511,1c1.117,0,1.574-.5,1.574-1.111,0-.774-0.729-0.927-1.676-1.111-1.251-.26-2.272-0.514-2.272-1.828C189.961,33.836,191.129,33.227,192.393,33.227Z" fill="#888"/><path d="M199.4,38.058c0-1.155.806-1.949,2.329-1.949h1.777V35.43a1.262,1.262,0,0,0-1.479-1.32,1.234,1.234,0,0,0-1.4.813h-0.971c0.107-1.136,1.027-1.695,2.418-1.695,1.333,0,2.443.584,2.443,2.2v4.57h-0.965V39.1h-0.044a2.158,2.158,0,0,1-1.937,1A2,2,0,0,1,199.4,38.058Zm4.106-.355V36.94h-1.759a1.1,1.1,0,0,0-1.32,1.1,1.226,1.226,0,0,0,1.4,1.181A1.572,1.572,0,0,0,203.507,37.7Z" fill="#888"/><path d="M208.915,33.227c1.415,0,2.336.755,2.336,1.841h-0.939a1.261,1.261,0,0,0-1.44-1.009,1.189,1.189,0,0,0-1.41,1.06c0,0.825.87,0.933,1.632,1.073,1.251,0.222,2.323.54,2.323,1.854s-1.066,2.057-2.6,2.057c-1.422,0-2.444-.635-2.444-1.828h0.979a1.25,1.25,0,0,0,1.51,1c1.117,0,1.574-.5,1.574-1.111,0-.774-0.729-0.927-1.676-1.111-1.25-.26-2.271-0.514-2.271-1.828C206.484,33.836,207.652,33.227,208.915,33.227Z" fill="#888"/><path d="M31.5,51.659h1v1.676h1.511v0.832H32.5v4.018c0,0.819.26,1.022,1.1,1.022,0.152,0,.413-0.019.514-0.032v0.832a7.233,7.233,0,0,1-.768.051c-1.562,0-1.847-.622-1.847-1.923V54.167H30.489V53.335H31.5V51.659Z" fill="#888"/><path d="M35.973,50.618h1v3.936h0.051A2,2,0,0,1,39.1,53.227a2.057,2.057,0,0,1,2.247,2.209v4.558h-1V55.766A1.467,1.467,0,0,0,38.8,54.109,1.894,1.894,0,0,0,36.97,56.28v3.713h-1V50.618Z" fill="#888"/><path d="M43.324,57.207V56.128a2.717,2.717,0,1,1,5.421,0V56.94H44.327v0.343a1.747,1.747,0,0,0,1.784,1.936,1.46,1.46,0,0,0,1.479-.8h1.06A2.375,2.375,0,0,1,46.117,60.1,2.635,2.635,0,0,1,43.324,57.207Zm4.418-1.041V56.045a1.721,1.721,0,1,0-3.415,0v0.121h3.415Z" fill="#888"/><path d="M53.486,60.063l-0.171.463c-0.355.965-.8,1.911-2.146,1.911a4.61,4.61,0,0,1-.641-0.051V61.542a3.543,3.543,0,0,0,.482.032,1.242,1.242,0,0,0,1.32-1.092l0.108-.381-2.482-6.767h1.111l1.86,5.624h0.044l1.86-5.624h1.06Z" fill="#888"/><path d="M57.416,54.763l0.793-3.434h1.238L58.26,54.763H57.416Z" fill="#888"/><path d="M61.3,53.335h1v1.022h0.051a1.831,1.831,0,0,1,1.866-1.124c0.121,0,.254.013,0.387,0.025v0.927a3.675,3.675,0,0,0-.508-0.025,1.6,1.6,0,0,0-1.8,1.625v4.208h-1V53.335Z" fill="#888"/><path d="M65.852,57.207V56.128a2.717,2.717,0,1,1,5.421,0V56.94H66.854v0.343a1.747,1.747,0,0,0,1.784,1.936,1.46,1.46,0,0,0,1.479-.8h1.06A2.375,2.375,0,0,1,68.645,60.1,2.635,2.635,0,0,1,65.852,57.207Zm4.418-1.041V56.045a1.721,1.721,0,1,0-3.415,0v0.121H70.27Z" fill="#888"/><path d="M81.473,59.994h-1v-1.1H80.419A1.987,1.987,0,0,1,78.433,60.1c-1.333,0-2.292-.578-2.292-2.114V53.335h1v4.38a1.353,1.353,0,0,0,1.523,1.5,1.731,1.731,0,0,0,1.815-1.631V53.335h1v6.659Z" fill="#888"/><path d="M84.863,59.016H84.812v3.307h-1V53.329h0.946v1.06h0.051a2.008,2.008,0,0,1,2.012-1.162,2.523,2.523,0,0,1,2.564,2.825v1.219A2.538,2.538,0,0,1,86.78,60.1,1.916,1.916,0,0,1,84.863,59.016Zm3.529-1.974V56.3c0-1.435-.673-2.19-1.784-2.19a1.766,1.766,0,0,0-1.8,2.006v1.244a1.765,1.765,0,0,0,1.828,1.86C87.668,59.219,88.392,58.527,88.392,57.042Z" fill="#888"/><path d="M95.622,54.306h0.051V50.618h1v9.375H95.724v-1.06H95.673A1.972,1.972,0,0,1,93.654,60.1a2.5,2.5,0,0,1-2.577-2.742V55.969a2.528,2.528,0,0,1,2.609-2.749A1.93,1.93,0,0,1,95.622,54.306Zm-3.548,1.911v0.87c0,1.358.686,2.126,1.784,2.126a1.792,1.792,0,0,0,1.815-2.006V55.963a1.8,1.8,0,0,0-1.854-1.86C92.74,54.1,92.074,54.884,92.074,56.217Z" fill="#888"/><path d="M98.637,58.058c0-1.155.806-1.949,2.33-1.949h1.777V55.43a1.262,1.262,0,0,0-1.479-1.32,1.234,1.234,0,0,0-1.4.813H98.891c0.108-1.136,1.028-1.695,2.418-1.695,1.333,0,2.444.584,2.444,2.2v4.57h-0.965V59.1h-0.044a2.158,2.158,0,0,1-1.936,1A2,2,0,0,1,98.637,58.058Zm4.107-.355V56.94h-1.758a1.1,1.1,0,0,0-1.32,1.1,1.226,1.226,0,0,0,1.4,1.181A1.572,1.572,0,0,0,102.744,57.7Z" fill="#888"/><path d="M106.394,51.659h1v1.676H108.9v0.832h-1.511v4.018c0,0.819.26,1.022,1.1,1.022,0.152,0,.413-0.019.514-0.032v0.832a7.233,7.233,0,0,1-.768.051c-1.562,0-1.847-.622-1.847-1.923V54.167h-1.016V53.335h1.016V51.659Z" fill="#888"/><path d="M110.514,57.207V56.128a2.717,2.717,0,1,1,5.421,0V56.94h-4.418v0.343a1.747,1.747,0,0,0,1.784,1.936,1.46,1.46,0,0,0,1.479-.8h1.06a2.375,2.375,0,0,1-2.533,1.682A2.635,2.635,0,0,1,110.514,57.207Zm4.418-1.041V56.045a1.721,1.721,0,1,0-3.415,0v0.121h3.415Z" fill="#888"/><path d="M122.117,54.306h0.051V50.618h1v9.375h-0.946v-1.06h-0.051a1.972,1.972,0,0,1-2.019,1.162,2.5,2.5,0,0,1-2.577-2.742V55.969a2.528,2.528,0,0,1,2.609-2.749A1.93,1.93,0,0,1,122.117,54.306Zm-3.548,1.911v0.87c0,1.358.686,2.126,1.784,2.126a1.792,1.792,0,0,0,1.815-2.006V55.963a1.8,1.8,0,0,0-1.854-1.86C119.235,54.1,118.569,54.884,118.569,56.217Z" fill="#888"/><path d="M133.8,56.134v1.054a2.829,2.829,0,1,1-5.656,0V56.134a2.736,2.736,0,0,1,2.831-2.907A2.7,2.7,0,0,1,133.8,56.134Zm-4.659.114v0.838a1.853,1.853,0,1,0,3.663,0V56.249A1.853,1.853,0,1,0,129.138,56.249Z" fill="#888"/><path d="M135.8,53.335h1v1.219h0.051a1.886,1.886,0,0,1,2.031-1.327,2.04,2.04,0,0,1,2.272,2.2v4.57h-1v-4.24a1.428,1.428,0,0,0-1.511-1.644A1.886,1.886,0,0,0,136.8,56.28v3.713h-1V53.335Z" fill="#888"/><path d="M151.716,53.944a2.042,2.042,0,0,0-2.177-1.879c-1.295,0-2.4.857-2.4,2.971v1.206c0,1.885.819,3.015,2.368,3.015a2.037,2.037,0,0,0,2.247-1.955V56.414h-2.311V55.5h3.3v1.8a2.937,2.937,0,0,1-3.218,2.875c-2.247,0-3.4-1.5-3.4-3.936V55.036c0-2.482,1.384-3.891,3.434-3.891a2.951,2.951,0,0,1,3.155,2.8h-1Z" fill="#888"/><path d="M155.461,50.5a0.749,0.749,0,1,1-.743.755A0.735,0.735,0,0,1,155.461,50.5Zm-0.489,2.831h1v6.659h-1V53.335Z" fill="#888"/><path d="M158.813,51.659h1v1.676h1.511v0.832H159.81v4.018c0,0.819.26,1.022,1.1,1.022,0.152,0,.413-0.019.514-0.032v0.832a7.233,7.233,0,0,1-.768.051c-1.562,0-1.847-.622-1.847-1.923V54.167H157.8V53.335h1.016V51.659Z" fill="#888"/><path d="M168.816,59.994V55.957h-4.481v4.037h-1.009V51.329h1.009v3.713h4.481V51.329h1.01v8.665h-1.01Z" fill="#888"/><path d="M177.507,59.994h-1v-1.1h-0.057a1.986,1.986,0,0,1-1.986,1.212c-1.334,0-2.292-.578-2.292-2.114V53.335h1v4.38a1.352,1.352,0,0,0,1.523,1.5,1.73,1.73,0,0,0,1.814-1.631V53.335h1v6.659Z" fill="#888"/><path d="M180.846,59.016h-0.051v0.978H179.85V50.618h1v3.771H180.9a1.9,1.9,0,0,1,1.975-1.162,2.521,2.521,0,0,1,2.57,2.825v1.219a2.538,2.538,0,0,1-2.609,2.831A2.028,2.028,0,0,1,180.846,59.016Zm3.6-1.961V56.312c0-1.422-.667-2.2-1.771-2.2a1.808,1.808,0,0,0-1.828,2.038v1.181a1.812,1.812,0,0,0,1.859,1.892C183.728,59.219,184.445,58.527,184.445,57.055Z" fill="#888"/><path d="M188.146,58.388a0.857,0.857,0,1,1,0,1.714A0.857,0.857,0,0,1,188.146,58.388Z" fill="#888"/><path d="M276.167,56.5a11.5,11.5,0,0,1,0-23h10.5a11.5,11.5,0,0,1,0,23h-10.5Z" fill="#5fd477"/><path d="M286.667,34a11,11,0,0,1,0,22h-10.5a11,11,0,0,1,0-22h10.5m0-1h-10.5a12,12,0,0,0-12,12h0a12,12,0,0,0,12,12h10.5a12,12,0,0,0,12-12h0a12,12,0,0,0-12-12h0Z" fill="#3fcc5d"/><rect x="277.667" y="35" width="20" height="20" rx="10" ry="10" fill="#fff"/><path d="M27,113.5a11.5,11.5,0,0,1,0-23H303a11.5,11.5,0,0,1,0,23H27Z" fill="#fff"/><path d="M303,91a11,11,0,0,1,0,22H27a11,11,0,0,1,0-22H303m0-1H27a12,12,0,0,0,0,24H303a12,12,0,0,0,0-24h0Z" fill="#e6e6e6"/><circle cx="27.387" cy="101.579" r="5.11" transform="translate(-63.806 49.117) rotate(-45)" fill="none" stroke="#e6e6e6" stroke-linecap="round" stroke-miterlimit="10"/><path d="M29.071,104.008a3.157,3.157,0,0,1-4.344-2.925" fill="none" stroke="#e6e6e6" stroke-linecap="round" stroke-miterlimit="10"/><line x1="31" y1="105.193" x2="33.338" y2="107.531" fill="none" stroke="#e6e6e6" stroke-linecap="round" stroke-miterlimit="10"/><g id="title"><path id="Rectangle-236-Copy-4" d="M48.3,97.5H97.833a4.481,4.481,0,0,1,4.5,4.463q0,0.019,0,.037h0a4.481,4.481,0,0,1-4.463,4.5H48.3a4.481,4.481,0,0,1-4.5-4.463q0-.019,0-0.037h0a4.481,4.481,0,0,1,4.463-4.5H48.3Z" fill="#eee"/></g><g id="branches"><g id="title-2" data-name="title"><path id="Rectangle-236-Copy-4-2" data-name="Rectangle-236-Copy-4" d="M48.3,136.5h134a4.481,4.481,0,0,1,4.5,4.463q0,0.019,0,.037h0a4.481,4.481,0,0,1-4.463,4.5H48.3a4.481,4.481,0,0,1-4.5-4.463q0-.019,0-0.037h0a4.481,4.481,0,0,1,4.463-4.5H48.3Z" fill="#eee"/></g><path d="M31.753,134.555a2.54,2.54,0,0,1,2.576,2.574,2.426,2.426,0,0,1-.352,1.3,2.647,2.647,0,0,1-.934.915V139.7a5.539,5.539,0,0,1-5.15,5.148,2.792,2.792,0,0,0-1.207.231,2.087,2.087,0,0,0-.765.594,2.6,2.6,0,0,1-.06,3.579,2.575,2.575,0,0,1-4.4-1.829,2.431,2.431,0,0,1,.352-1.3,2.661,2.661,0,0,1,.935-0.915v-8.426a2.665,2.665,0,0,1-.935-0.916,2.426,2.426,0,0,1-.352-1.3,2.574,2.574,0,1,1,5.148,0,2.437,2.437,0,0,1-.351,1.3,2.665,2.665,0,0,1-.935.916v6.093a5.287,5.287,0,0,1,2.574-.583,2.765,2.765,0,0,0,2.574-2.574v-0.361a2.661,2.661,0,0,1-.934-0.916,2.426,2.426,0,0,1-.352-1.3,2.54,2.54,0,0,1,2.573-2.574v-0.02Zm-8.627-.886a1.266,1.266,0,1,0,1.81,0A1.262,1.262,0,0,0,23.127,133.669Zm1.81,14.682a1.268,1.268,0,1,0-1.81,0A1.262,1.262,0,0,0,24.936,148.351Zm7.723-10.3a1.267,1.267,0,1,0-1.808,0A1.26,1.26,0,0,0,32.659,138.054Z" fill="#ddd"/><g id="title-3" data-name="title"><path id="Rectangle-236-Copy-4-3" data-name="Rectangle-236-Copy-4" d="M48.3,172.5H244.833a4.481,4.481,0,0,1,4.5,4.463q0,0.019,0,.037h0a4.481,4.481,0,0,1-4.463,4.5H48.3a4.481,4.481,0,0,1-4.5-4.463q0-.019,0-0.037h0a4.481,4.481,0,0,1,4.463-4.5H48.3Z" fill="#eee"/></g><path d="M31.753,170.555a2.54,2.54,0,0,1,2.576,2.574,2.426,2.426,0,0,1-.352,1.3,2.647,2.647,0,0,1-.934.915V175.7a5.539,5.539,0,0,1-5.15,5.148,2.792,2.792,0,0,0-1.207.231,2.087,2.087,0,0,0-.765.594,2.6,2.6,0,0,1-.06,3.579,2.575,2.575,0,0,1-4.4-1.829,2.431,2.431,0,0,1,.352-1.3,2.661,2.661,0,0,1,.935-0.915v-8.426a2.665,2.665,0,0,1-.935-0.916,2.426,2.426,0,0,1-.352-1.3,2.574,2.574,0,1,1,5.148,0,2.437,2.437,0,0,1-.351,1.3,2.665,2.665,0,0,1-.935.916v6.093a5.287,5.287,0,0,1,2.574-.583,2.765,2.765,0,0,0,2.574-2.574v-0.361a2.661,2.661,0,0,1-.934-0.916,2.426,2.426,0,0,1-.352-1.3,2.54,2.54,0,0,1,2.573-2.574v-0.02Zm-8.627-.886a1.266,1.266,0,1,0,1.81,0A1.262,1.262,0,0,0,23.126,169.669Zm1.81,14.682a1.268,1.268,0,1,0-1.81,0A1.262,1.262,0,0,0,24.936,184.351Zm7.723-10.3a1.267,1.267,0,1,0-1.808,0A1.26,1.26,0,0,0,32.659,174.054Z" fill="#ddd"/><g id="title-4" data-name="title"><path id="Rectangle-236-Copy-4-4" data-name="Rectangle-236-Copy-4" d="M48.3,208.5h88.259a4.481,4.481,0,0,1,4.5,4.463q0,0.019,0,.037h0a4.481,4.481,0,0,1-4.463,4.5H48.3a4.481,4.481,0,0,1-4.5-4.463q0-.019,0-0.037h0a4.481,4.481,0,0,1,4.463-4.5H48.3Z" fill="#eee"/></g><path d="M31.753,206.555a2.54,2.54,0,0,1,2.576,2.574,2.426,2.426,0,0,1-.352,1.3,2.647,2.647,0,0,1-.934.915V211.7a5.539,5.539,0,0,1-5.15,5.148,2.792,2.792,0,0,0-1.207.231,2.087,2.087,0,0,0-.765.594,2.6,2.6,0,0,1-.06,3.579,2.575,2.575,0,0,1-4.4-1.829,2.431,2.431,0,0,1,.352-1.3,2.661,2.661,0,0,1,.935-0.915v-8.426a2.665,2.665,0,0,1-.935-0.916,2.426,2.426,0,0,1-.352-1.3,2.574,2.574,0,1,1,5.148,0,2.437,2.437,0,0,1-.351,1.3,2.665,2.665,0,0,1-.935.916v6.093a5.287,5.287,0,0,1,2.574-.583,2.765,2.765,0,0,0,2.574-2.574v-0.361a2.661,2.661,0,0,1-.934-0.916,2.426,2.426,0,0,1-.352-1.3,2.54,2.54,0,0,1,2.573-2.574v-0.02Zm-8.627-.886a1.266,1.266,0,1,0,1.81,0A1.262,1.262,0,0,0,23.126,205.669Zm1.81,14.682a1.268,1.268,0,1,0-1.81,0A1.262,1.262,0,0,0,24.936,220.351Zm7.723-10.3a1.267,1.267,0,1,0-1.808,0A1.26,1.26,0,0,0,32.659,210.054Z" fill="#ddd"/><g id="title-5" data-name="title"><path id="Rectangle-236-Copy-4-5" data-name="Rectangle-236-Copy-4" d="M48.3,244.5H179.5a4.481,4.481,0,0,1,4.5,4.463q0,0.019,0,.037h0a4.481,4.481,0,0,1-4.463,4.5H48.3a4.481,4.481,0,0,1-4.5-4.463q0-.019,0-0.037h0a4.481,4.481,0,0,1,4.463-4.5H48.3Z" fill="#eee"/></g><path d="M31.753,242.555a2.54,2.54,0,0,1,2.576,2.574,2.426,2.426,0,0,1-.352,1.3,2.647,2.647,0,0,1-.934.915V247.7a5.539,5.539,0,0,1-5.15,5.148,2.792,2.792,0,0,0-1.207.231,2.087,2.087,0,0,0-.765.594,2.6,2.6,0,0,1-.06,3.579,2.575,2.575,0,0,1-4.4-1.829,2.431,2.431,0,0,1,.352-1.3,2.661,2.661,0,0,1,.935-0.915v-8.426a2.665,2.665,0,0,1-.935-0.916,2.426,2.426,0,0,1-.352-1.3,2.574,2.574,0,1,1,5.148,0,2.437,2.437,0,0,1-.351,1.3,2.665,2.665,0,0,1-.935.916v6.093a5.287,5.287,0,0,1,2.574-.583,2.765,2.765,0,0,0,2.574-2.574v-0.361a2.661,2.661,0,0,1-.934-0.916,2.426,2.426,0,0,1-.352-1.3,2.54,2.54,0,0,1,2.573-2.574v-0.02Zm-8.627-.886a1.266,1.266,0,1,0,1.81,0A1.262,1.262,0,0,0,23.126,241.669Zm1.81,14.682a1.268,1.268,0,1,0-1.81,0A1.262,1.262,0,0,0,24.936,256.351Zm7.723-10.3a1.267,1.267,0,1,0-1.808,0A1.26,1.26,0,0,0,32.659,246.054Z" fill="#ddd"/></g><g id="add_buttons" data-name="add buttons"><rect x="276.167" y="129" width="38.833" height="24" rx="3" ry="3" fill="none" stroke="#ccc" stroke-miterlimit="10"/><path d="M284.106,145.5l3.021-8.665h1.416l3.016,8.665h-1.4l-0.812-2.418h-3.111l-0.812,2.418h-1.32Zm3.67-7.186L286.558,142h2.488l-1.219-3.688h-0.051Z" fill="#ccc"/><path d="M297.157,139.793h0.064v-3.605H298.5V145.5h-1.237v-1.066H297.2a1.953,1.953,0,0,1-2,1.155c-1.535,0-2.551-1.079-2.551-2.856v-1.174a2.55,2.55,0,0,1,2.576-2.863A1.912,1.912,0,0,1,297.157,139.793Zm-3.211,1.968v0.755c0,1.25.635,1.942,1.625,1.942a1.638,1.638,0,0,0,1.65-1.854v-1.035a1.639,1.639,0,0,0-1.683-1.739C294.562,139.832,293.946,140.53,293.946,141.761Z" fill="#ccc"/><path d="M304.907,139.793h0.064v-3.605h1.281V145.5h-1.237v-1.066h-0.063a1.953,1.953,0,0,1-2,1.155c-1.535,0-2.551-1.079-2.551-2.856v-1.174a2.55,2.55,0,0,1,2.576-2.863A1.912,1.912,0,0,1,304.907,139.793Zm-3.211,1.968v0.755c0,1.25.635,1.942,1.625,1.942a1.638,1.638,0,0,0,1.65-1.854v-1.035a1.639,1.639,0,0,0-1.683-1.739C302.312,139.832,301.7,140.53,301.7,141.761Z" fill="#ccc"/><rect x="276.167" y="165" width="38.833" height="24" rx="3" ry="3" fill="none" stroke="#ccc" stroke-miterlimit="10"/><path d="M284.106,181.5l3.021-8.665h1.416l3.016,8.665h-1.4l-0.812-2.418h-3.111l-0.812,2.418h-1.32Zm3.67-7.186L286.558,178h2.488l-1.219-3.688h-0.051Z" fill="#ccc"/><path d="M297.157,175.793h0.064v-3.605H298.5V181.5h-1.237v-1.066H297.2a1.953,1.953,0,0,1-2,1.155c-1.535,0-2.551-1.079-2.551-2.856v-1.174a2.55,2.55,0,0,1,2.576-2.863A1.912,1.912,0,0,1,297.157,175.793Zm-3.211,1.968v0.755c0,1.25.635,1.942,1.625,1.942a1.638,1.638,0,0,0,1.65-1.854v-1.035a1.639,1.639,0,0,0-1.683-1.739C294.562,175.832,293.946,176.53,293.946,177.761Z" fill="#ccc"/><path d="M304.907,175.793h0.064v-3.605h1.281V181.5h-1.237v-1.066h-0.063a1.953,1.953,0,0,1-2,1.155c-1.535,0-2.551-1.079-2.551-2.856v-1.174a2.55,2.55,0,0,1,2.576-2.863A1.912,1.912,0,0,1,304.907,175.793Zm-3.211,1.968v0.755c0,1.25.635,1.942,1.625,1.942a1.638,1.638,0,0,0,1.65-1.854v-1.035a1.639,1.639,0,0,0-1.683-1.739C302.312,175.832,301.7,176.53,301.7,177.761Z" fill="#ccc"/><rect x="276.167" y="201" width="38.833" height="24" rx="3" ry="3" fill="none" stroke="#ccc" stroke-miterlimit="10"/><path d="M284.106,217.5l3.021-8.665h1.416l3.016,8.665h-1.4l-0.812-2.418h-3.111l-0.812,2.418h-1.32Zm3.67-7.186L286.558,214h2.488l-1.219-3.688h-0.051Z" fill="#ccc"/><path d="M297.157,211.793h0.064v-3.605H298.5V217.5h-1.237v-1.066H297.2a1.953,1.953,0,0,1-2,1.155c-1.535,0-2.551-1.079-2.551-2.856v-1.174a2.55,2.55,0,0,1,2.576-2.863A1.912,1.912,0,0,1,297.157,211.793Zm-3.211,1.968v0.755c0,1.25.635,1.942,1.625,1.942a1.638,1.638,0,0,0,1.65-1.854v-1.035a1.639,1.639,0,0,0-1.683-1.739C294.562,211.832,293.946,212.53,293.946,213.761Z" fill="#ccc"/><path d="M304.907,211.793h0.064v-3.605h1.281V217.5h-1.237v-1.066h-0.063a1.953,1.953,0,0,1-2,1.155c-1.535,0-2.551-1.079-2.551-2.856v-1.174a2.55,2.55,0,0,1,2.576-2.863A1.912,1.912,0,0,1,304.907,211.793Zm-3.211,1.968v0.755c0,1.25.635,1.942,1.625,1.942a1.638,1.638,0,0,0,1.65-1.854v-1.035a1.639,1.639,0,0,0-1.683-1.739C302.312,211.832,301.7,212.53,301.7,213.761Z" fill="#ccc"/><rect x="276.167" y="237" width="38.833" height="24" rx="3" ry="3" fill="none" stroke="#ccc" stroke-miterlimit="10"/><path d="M284.106,253.5l3.021-8.665h1.416l3.016,8.665h-1.4l-0.812-2.418h-3.111l-0.812,2.418h-1.32Zm3.67-7.186L286.558,250h2.488l-1.219-3.688h-0.051Z" fill="#ccc"/><path d="M297.157,247.793h0.064v-3.605H298.5V253.5h-1.237v-1.066H297.2a1.953,1.953,0,0,1-2,1.155c-1.535,0-2.551-1.079-2.551-2.856v-1.174a2.55,2.55,0,0,1,2.576-2.863A1.912,1.912,0,0,1,297.157,247.793Zm-3.211,1.968v0.755c0,1.25.635,1.942,1.625,1.942a1.638,1.638,0,0,0,1.65-1.854v-1.035a1.639,1.639,0,0,0-1.683-1.739C294.562,247.832,293.946,248.53,293.946,249.761Z" fill="#ccc"/><path d="M304.907,247.793h0.064v-3.605h1.281V253.5h-1.237v-1.066h-0.063a1.953,1.953,0,0,1-2,1.155c-1.535,0-2.551-1.079-2.551-2.856v-1.174a2.55,2.55,0,0,1,2.576-2.863A1.912,1.912,0,0,1,304.907,247.793Zm-3.211,1.968v0.755c0,1.25.635,1.942,1.625,1.942a1.638,1.638,0,0,0,1.65-1.854v-1.035a1.639,1.639,0,0,0-1.683-1.739C302.312,247.832,301.7,248.53,301.7,249.761Z" fill="#ccc"/></g></svg>