<svg id="outlined_simple_setup" data-name="outlined simple setup" xmlns="http://www.w3.org/2000/svg" viewBox="0 0 750 300"><title>setup-dockerize</title><g id="modal_bg" data-name="modal bg"><path d="M1,299V6A5.006,5.006,0,0,1,6,1H744a5.006,5.006,0,0,1,5,5V299H1Z" transform="translate(0 0)" fill="#fff"/><path d="M744,2a4,4,0,0,1,4,4V298H2V6A4,4,0,0,1,6,2H744m0-2H6A6,6,0,0,0,0,6V300H750V6a6,6,0,0,0-6-6h0Z" transform="translate(0 0)" fill="#e6e6e5"/></g><rect id="modal_body" data-name="modal body" x="2" y="127.96" width="746" height="172.04" fill="#fafafa"/><g id="close"><line x1="722.939" y1="17.293" x2="733.606" y2="27.96" fill="none" stroke="#e0e0e0" stroke-linecap="round" stroke-miterlimit="10" stroke-width="2"/><line x1="733.606" y1="17.293" x2="722.939" y2="27.96" fill="none" stroke="#e0e0e0" stroke-linecap="round" stroke-miterlimit="10" stroke-width="2"/></g><line id="border" x1="1" y1="127.96" x2="749" y2="127.96" fill="none" stroke="#e6e6e5" stroke-miterlimit="10"/><g id="title"><circle cx="297.901" cy="22.627" r="4.5" fill="#75c37f"/><path id="Rectangle-236-Copy-4" d="M318.1,18.127h134a4.481,4.481,0,0,1,4.5,4.463q0,0.019,0,.037h0a4.481,4.481,0,0,1-4.463,4.5H318.1a4.481,4.481,0,0,1-4.5-4.463q0-.019,0-0.037h0a4.481,4.481,0,0,1,4.463-4.5H318.1Z" transform="translate(0 0)" fill="#eee"/></g><path d="M47.413,191.9H40.048v-12h7.365v1.556H41.85v3.586H47.1v1.494H41.85v3.806h5.563V191.9Z" transform="translate(0 0)" fill="#9c9c9c"/><path d="M53.166,188.512H53.14L50.951,191.9H48.982l3.1-4.641-3.059-4.623h2.1l2.127,3.393h0.018l2.127-3.393h2l-3.094,4.623,3.129,4.641H55.381Z" transform="translate(0 0)" fill="#9c9c9c"/><path d="M61.005,190.63H60.944v4.447H59.168V182.632h1.723v1.345h0.062a3.052,3.052,0,0,1,2.716-1.485c2.074,0,3.586,1.591,3.586,4.351v0.835c0,2.733-1.485,4.359-3.639,4.359A2.946,2.946,0,0,1,61.005,190.63Zm4.456-3.067V186.9c0-1.854-.826-2.936-2.215-2.936-1.433,0-2.32,1.16-2.32,2.927v0.668c0,1.819.9,2.979,2.355,2.979C64.583,190.542,65.461,189.505,65.461,187.563Z" transform="translate(0 0)" fill="#9c9c9c"/><path d="M77.259,186.851v0.782c0,2.575-1.415,4.421-4.052,4.421s-4.078-1.846-4.078-4.421V186.86c0-2.5,1.433-4.386,4.078-4.386C75.835,182.474,77.259,184.346,77.259,186.851Zm-6.346.044v0.712c0,1.749.782,2.971,2.285,2.971s2.276-1.213,2.276-2.971v-0.712c0-1.775-.773-2.962-2.276-2.962S70.914,185.128,70.914,186.895Z" transform="translate(0 0)" fill="#9c9c9c"/><path d="M82.682,182.474c2.188,0,3.375,1.2,3.375,2.795H84.44a1.56,1.56,0,0,0-1.811-1.433c-1.028,0-1.758.466-1.758,1.3,0,1,1.266,1.2,2.32,1.389,1.731,0.308,3.12.817,3.12,2.593,0,1.863-1.485,2.936-3.762,2.936-2.153,0-3.56-1.028-3.56-2.689h1.731a1.708,1.708,0,0,0,1.951,1.318c1.31,0,1.907-.615,1.907-1.345,0-.993-1.063-1.178-2.32-1.424-1.705-.352-3.1-0.914-3.1-2.6C79.158,183.327,80.845,182.474,82.682,182.474Z" transform="translate(0 0)" fill="#9c9c9c"/><path d="M88.088,187.686V186.71c0-2.54,1.477-4.236,3.92-4.236s3.9,1.74,3.9,4.324v0.879H89.855v0.193c0,1.644.861,2.751,2.259,2.751a1.907,1.907,0,0,0,1.969-1.336H95.8a3.476,3.476,0,0,1-3.718,2.769C89.626,192.054,88.088,190.384,88.088,187.686Zm6.073-1.31V186.35a2.173,2.173,0,1,0-4.307,0v0.026h4.307Z" transform="translate(0 0)" fill="#9c9c9c"/><path d="M104.076,183.933h0.062v-4.667h1.775V191.9H104.19V190.49h-0.053a2.929,2.929,0,0,1-2.716,1.538c-2.364,0-3.647-1.74-3.647-4.359v-0.826c0-2.566,1.354-4.359,3.647-4.359A2.938,2.938,0,0,1,104.076,183.933Zm-4.5,2.971v0.712c0,1.951.94,2.918,2.25,2.918,1.441,0,2.329-1.037,2.329-2.909V186.9c0-1.784-.9-2.927-2.347-2.927C100.516,183.977,99.576,184.944,99.576,186.9Z" transform="translate(0 0)" fill="#9c9c9c"/><path d="M116.885,179.9a3.815,3.815,0,1,1-.009,7.629h-2.7V191.9h-1.8v-12h4.509Zm-2.707,6.108h1.688c1.925,0,3.059-.431,3.059-2.285a2.073,2.073,0,0,0-2.268-2.285h-2.479v4.57Z" transform="translate(0 0)" fill="#9c9c9c"/><path d="M130.361,186.851v0.782c0,2.575-1.415,4.421-4.052,4.421s-4.078-1.846-4.078-4.421V186.86c0-2.5,1.433-4.386,4.078-4.386C128.938,182.474,130.361,184.346,130.361,186.851Zm-6.346.044v0.712c0,1.749.782,2.971,2.285,2.971s2.276-1.213,2.276-2.971v-0.712c0-1.775-.773-2.962-2.276-2.962S124.016,185.128,124.016,186.895Z" transform="translate(0 0)" fill="#9c9c9c"/><path d="M132.567,182.632h1.775v1.178H134.4a2.342,2.342,0,0,1,2.241-1.318,4.433,4.433,0,0,1,.624.044v1.591a4.715,4.715,0,0,0-.791-0.053,1.94,1.94,0,0,0-2.118,2.232v5.59h-1.793v-9.264Z" transform="translate(0 0)" fill="#9c9c9c"/><path d="M140,180.347h1.749v2.285h1.819v1.441H141.75v5.133c0,1.055.378,1.336,1.459,1.336,0.158,0,.3-0.009.422-0.018v1.38a5.825,5.825,0,0,1-.861.062c-2.232,0-2.786-.826-2.786-2.672v-5.221h-1.266v-1.441H140v-2.285Z" transform="translate(0 0)" fill="#9c9c9c"/><path d="M148.955,182.474c2.188,0,3.375,1.2,3.375,2.795h-1.617a1.56,1.56,0,0,0-1.811-1.433c-1.028,0-1.758.466-1.758,1.3,0,1,1.266,1.2,2.32,1.389,1.731,0.308,3.12.817,3.12,2.593,0,1.863-1.485,2.936-3.762,2.936-2.153,0-3.56-1.028-3.56-2.689H147a1.708,1.708,0,0,0,1.951,1.318c1.31,0,1.907-.615,1.907-1.345,0-.993-1.063-1.178-2.32-1.424-1.705-.352-3.1-0.914-3.1-2.6C145.431,183.327,147.118,182.474,148.955,182.474Z" transform="translate(0 0)" fill="#9c9c9c"/><g id="ports_input" data-name="ports input"><rect x="240.478" y="162.991" width="471.021" height="100.784" rx="3" ry="3" fill="#fff" stroke="#e6e6e5" stroke-miterlimit="10"/><path d="M361.608,191.485l3.828-10.656h1.141l3.828,10.656h-1.25l-1.133-3.32h-4.086l-1.133,3.32h-1.2Zm4.359-9.219-1.7,4.938h3.422l-1.7-4.937h-0.031Z" transform="translate(0 0)" fill="#b6b6b7"/><path d="M377.178,184.477h0.031v-4.219h1.148v11.227h-1.086v-1.273H377.24a2.692,2.692,0,0,1-2.454,1.4c-2.125,0-3.273-1.547-3.273-3.8v-0.836c0-2.219,1.242-3.8,3.273-3.8A2.688,2.688,0,0,1,377.178,184.477Zm-4.516,2.547v0.742c0,1.875.945,2.82,2.242,2.82,1.461,0,2.329-1.055,2.329-2.812v-0.758c0-1.687-.891-2.828-2.344-2.828C373.623,184.188,372.662,185.118,372.662,187.024Z" transform="translate(0 0)" fill="#b6b6b7"/><path d="M386.229,184.477h0.031v-4.219h1.148v11.227h-1.086v-1.273h-0.031a2.691,2.691,0,0,1-2.453,1.4c-2.125,0-3.273-1.547-3.273-3.8v-0.836c0-2.219,1.242-3.8,3.273-3.8A2.687,2.687,0,0,1,386.229,184.477Zm-4.516,2.547v0.742c0,1.875.945,2.82,2.242,2.82,1.461,0,2.328-1.055,2.328-2.812v-0.758c0-1.687-.891-2.828-2.344-2.828C382.674,184.188,381.713,185.118,381.713,187.024Z" transform="translate(0 0)" fill="#b6b6b7"/><path d="M394.49,190.344h-0.031v3.977h-1.141V183.305H394.4v1.219h0.031a2.818,2.818,0,0,1,2.461-1.352c1.836,0,3.211,1.414,3.211,3.8v0.852c0,2.375-1.367,3.8-3.266,3.8A2.7,2.7,0,0,1,394.49,190.344Zm4.469-2.633v-0.7c0-1.781-.828-2.836-2.2-2.836-1.453,0-2.32,1.18-2.32,2.828v0.7c0,1.719.883,2.883,2.352,2.883C398.068,190.594,398.959,189.594,398.959,187.711Z" transform="translate(0 0)" fill="#b6b6b7"/><path d="M408.893,186.985v0.8c0,2.2-1.219,3.828-3.453,3.828s-3.461-1.625-3.461-3.828v-0.8c0-2.2,1.234-3.812,3.461-3.812S408.893,184.789,408.893,186.985Zm-5.766.055v0.688c0,1.773.852,2.867,2.313,2.867s2.3-1.086,2.3-2.867v-0.687c0-1.773-.852-2.859-2.3-2.859S403.127,185.266,403.127,187.039Z" transform="translate(0 0)" fill="#b6b6b7"/><path d="M411.085,183.305h1.148v1.055h0.031a2.14,2.14,0,0,1,2.07-1.18c0.164,0,.336.016,0.492,0.031v1.07a4.575,4.575,0,0,0-.633-0.031,1.846,1.846,0,0,0-1.961,2.148v5.086h-1.148v-8.18Z" transform="translate(0 0)" fill="#b6b6b7"/><path d="M417.373,181.25h1.148v2.055h1.672v0.977h-1.672v5.039c0,1.008.328,1.258,1.367,1.258a2.828,2.828,0,0,0,.375-0.016v0.945a3.975,3.975,0,0,1-.664.055c-1.867,0-2.227-.734-2.227-2.312v-4.969h-1.117v-0.977h1.117V181.25Z" transform="translate(0 0)" fill="#b6b6b7"/><path d="M424.9,183.172c1.93,0,2.852,1.133,2.852,2.414h-1.086a1.553,1.553,0,0,0-1.812-1.43c-1.023,0-1.781.445-1.781,1.32,0,0.945,1.039,1.172,2.031,1.367,1.523,0.281,2.852.664,2.852,2.273s-1.32,2.5-3.18,2.5c-1.789,0-2.992-.9-2.992-2.3h1.125a1.721,1.721,0,0,0,1.961,1.32c1.3,0,1.945-.609,1.945-1.383,0-.969-0.891-1.156-2.094-1.406-1.539-.336-2.781-0.781-2.781-2.242C421.941,183.922,423.348,183.172,424.9,183.172Z" transform="translate(0 0)" fill="#b6b6b7"/><path d="M433.359,180.258H434.5v4.164h0.031a2.687,2.687,0,0,1,2.422-1.25,2.8,2.8,0,0,1,2.945,3.055v5.258H438.75V186.4a1.962,1.962,0,0,0-2.1-2.172,2.056,2.056,0,0,0-2.148,2.25v5.008h-1.141V180.258Z" transform="translate(0 0)" fill="#b6b6b7"/><path d="M441.977,187.805v-0.937c0-2.164,1.188-3.7,3.313-3.7,2.094,0,3.313,1.516,3.313,3.789v0.719h-5.469v0.164c0,1.664.828,2.781,2.25,2.781a1.886,1.886,0,0,0,1.938-1.312h1.164a2.974,2.974,0,0,1-3.141,2.3C443.242,191.618,441.977,190.118,441.977,187.805Zm5.469-1.117v-0.023a2.18,2.18,0,1,0-4.312,0v0.023h4.313Z" transform="translate(0 0)" fill="#b6b6b7"/><path d="M450.751,183.305H451.9v1.055h0.031a2.14,2.14,0,0,1,2.07-1.18c0.164,0,.336.016,0.492,0.031v1.07a4.575,4.575,0,0,0-.633-0.031A1.846,1.846,0,0,0,451.9,186.4v5.086h-1.148v-8.18Z" transform="translate(0 0)" fill="#b6b6b7"/><path d="M455.736,187.805v-0.937c0-2.164,1.188-3.7,3.313-3.7,2.094,0,3.313,1.516,3.313,3.789v0.719h-5.469v0.164c0,1.664.828,2.781,2.25,2.781a1.886,1.886,0,0,0,1.938-1.312h1.164a2.974,2.974,0,0,1-3.141,2.3C457,191.618,455.736,190.118,455.736,187.805Zm5.469-1.117v-0.023a2.18,2.18,0,1,0-4.312,0v0.023h4.313Z" transform="translate(0 0)" fill="#b6b6b7"/><g id="ports"><rect x="249.478" y="173.491" width="42" height="24" rx="3" ry="3" fill="none" stroke="#8151a1" stroke-miterlimit="10"/><path d="M254.877,188.594a2.785,2.785,0,0,1,2.164-2.727v-0.016a2.509,2.509,0,0,1-1.742-2.414,3.306,3.306,0,0,1,6.547,0,2.544,2.544,0,0,1-1.758,2.414v0.016a2.781,2.781,0,0,1,2.156,2.711c0,1.852-1.578,3.133-3.711,3.133S254.877,190.446,254.877,188.594Zm6.242-.039a2.593,2.593,0,1,0-2.547,2.148A2.29,2.29,0,0,0,261.119,188.555Zm-0.414-5.055a2.159,2.159,0,0,0-4.281,0A2.154,2.154,0,0,0,260.705,183.5Z" transform="translate(0 0)" fill="#8151a1"/><path d="M263.973,185.75c0-3.164,1.32-5.156,3.68-5.156s3.664,1.984,3.664,5.156v0.828c0,3.172-1.3,5.133-3.664,5.133s-3.68-1.961-3.68-5.133V185.75Zm1.148,0.82c0,2.617.977,4.109,2.531,4.109s2.516-1.492,2.516-4.109v-0.812c0-2.625-.961-4.133-2.516-4.133s-2.531,1.508-2.531,4.133v0.813Z" transform="translate(0 0)" fill="#8151a1"/><line x1="280.519" y1="183.241" x2="285.019" y2="187.741" fill="none" stroke="#8151a1" stroke-linecap="round" stroke-miterlimit="10"/><line x1="285.019" y1="183.241" x2="280.519" y2="187.741" fill="none" stroke="#8151a1" stroke-linecap="round" stroke-miterlimit="10"/><rect x="296.446" y="173.491" width="50.852" height="24" rx="3.52" ry="3.52" fill="none" stroke="#8151a1" stroke-miterlimit="10" stroke-width="1.173"/><path d="M308.025,180.829v7.313h1.43v1.047h-1.43v2.3h-1.117v-2.3h-5.18v-1.016c1.211-2.18,3.156-5.211,4.617-7.344h1.68Zm-1.117,7.313v-6.266h-0.016c-1.187,1.719-2.922,4.453-3.961,6.25v0.016h3.977Z" transform="translate(0 0)" fill="#8151a1"/><path d="M317.34,180.829v7.313h1.43v1.047h-1.43v2.3h-1.117v-2.3h-5.18v-1.016c1.211-2.18,3.156-5.211,4.617-7.344h1.68Zm-1.117,7.313v-6.266h-0.016c-1.187,1.719-2.922,4.453-3.961,6.25v0.016h3.977Z" transform="translate(0 0)" fill="#8151a1"/><path d="M322.75,185.469h1.008a1.988,1.988,0,0,0,2.172-1.969,1.882,1.882,0,0,0-2.094-1.875,1.919,1.919,0,0,0-2.062,1.813h-1.125a2.967,2.967,0,0,1,3.188-2.844c1.977,0,3.242,1.188,3.281,2.711a2.577,2.577,0,0,1-1.977,2.625v0.016a2.634,2.634,0,0,1,2.391,2.6c0.031,1.813-1.523,3.172-3.711,3.172-2.25,0-3.375-1.352-3.445-2.953h1.109a2.161,2.161,0,0,0,2.375,1.93c1.586,0,2.5-.906,2.484-2.133-0.016-1.25-.961-2.055-2.516-2.055H322.75v-1.039Z" transform="translate(0 0)" fill="#8151a1"/><line x1="336.339" y1="183.241" x2="340.839" y2="187.741" fill="none" stroke="#8151a1" stroke-linecap="round" stroke-miterlimit="10"/><line x1="340.839" y1="183.241" x2="336.339" y2="187.741" fill="none" stroke="#8151a1" stroke-linecap="round" stroke-miterlimit="10"/></g></g><path id="Rectangle-236-Copy-4-2" data-name="Rectangle-236-Copy-4" d="M244.663,273.747H424.116a4.481,4.481,0,0,1,4.5,4.463q0,0.019,0,.037h0a4.481,4.481,0,0,1-4.463,4.5H244.663a4.481,4.481,0,0,1-4.5-4.463q0-.019,0-0.037h0a4.481,4.481,0,0,1,4.463-4.5h0.037Z" transform="translate(0 0)" fill="#eee"/><g id="exposed_ports" data-name="exposed ports"><rect x="340.099" y="41.543" width="90" height="72" rx="3" ry="3" fill="#fbf9fc" stroke="#8151a1" stroke-miterlimit="10" stroke-width="2"/><path d="M377.787,70.128a2.241,2.241,0,0,1-2.234-2.251L375.6,55.311a2.247,2.247,0,0,1,2.243-2.234l12.574,0.048a2.241,2.241,0,0,1,2.234,2.251L392.6,67.942a2.247,2.247,0,0,1-2.242,2.234Z" transform="translate(0 0)" fill="#b3b3b3"/><path d="M377.843,52.627l0.007,0.9,12.566,0.048a1.793,1.793,0,0,1,1.786,1.8l-0.048,12.566a1.8,1.8,0,0,1-1.8,1.786l-12.566-.048a1.8,1.8,0,0,1-1.786-1.8l0.048-12.566a1.8,1.8,0,0,1,1.793-1.786v-0.9m0,0a2.693,2.693,0,0,0-2.693,2.683L375.1,67.875a2.693,2.693,0,0,0,2.683,2.7l12.566,0.048h0.01a2.693,2.693,0,0,0,2.693-2.683L393.1,55.378a2.693,2.693,0,0,0-2.683-2.7l-12.566-.048h-0.01Z" transform="translate(0 0)" fill="gray"/><rect x="378.103" y="65.627" width="2" height="2" fill="#3ccb5a"/><polygon points="381.553 66.176 381.553 64.176 380.553 64.176 380.553 63.176 378.553 63.176 378.553 56.077 389.652 56.077 389.652 63.176 387.652 63.176 387.652 64.176 386.652 64.176 386.652 66.176 381.553 66.176" fill="gray"/><path d="M389.2,56.527v6.2h-2v1h-1v2H382v-2h-1v-1h-2v-6.2h10.2m0.9-.9h-12v8h2v1h1v2h6v-2h1v-1h2v-8h0Z" transform="translate(0 0)" fill="#666"/><rect x="379.103" y="56.627" width="10" height="1" fill="#db970d"/><path d="M365.706,90.062h-5.319V81.4h5.319v1.124h-4.018v2.59h3.789V86.19h-3.789v2.749h4.018v1.124Z" transform="translate(0 0)" fill="#8151a1"/><path d="M369.662,87.619h-0.019l-1.581,2.444h-1.422l2.241-3.352-2.209-3.339h1.517l1.536,2.45h0.013l1.536-2.45h1.447l-2.234,3.339,2.26,3.352h-1.485Z" transform="translate(0 0)" fill="#8151a1"/><path d="M375.4,89.148h-0.044V92.36h-1.282V83.372h1.244v0.971h0.045a2.2,2.2,0,0,1,1.961-1.073c1.5,0,2.59,1.149,2.59,3.142v0.6c0,1.974-1.072,3.148-2.628,3.148A2.129,2.129,0,0,1,375.4,89.148Zm3.219-2.215V86.457c0-1.339-.6-2.12-1.6-2.12-1.035,0-1.676.838-1.676,2.114v0.482c0,1.314.647,2.152,1.7,2.152C377.985,89.085,378.62,88.336,378.62,86.933Z" transform="translate(0 0)" fill="#8151a1"/><path d="M387.166,86.419v0.565c0,1.86-1.022,3.193-2.927,3.193s-2.945-1.333-2.945-3.193V86.425A2.944,2.944,0,1,1,387.166,86.419Zm-4.583.032v0.514c0,1.263.564,2.146,1.65,2.146s1.645-.876,1.645-2.146V86.451c0-1.282-.559-2.139-1.645-2.139S382.583,85.175,382.583,86.451Z" transform="translate(0 0)" fill="#8151a1"/><path d="M391.1,83.258c1.58,0,2.438.863,2.438,2.019h-1.168a1.126,1.126,0,0,0-1.308-1.035,1.063,1.063,0,0,0-1.27.939c0,0.724.914,0.863,1.676,1,1.251,0.222,2.253.59,2.253,1.873,0,1.346-1.072,2.12-2.717,2.12-1.555,0-2.57-.743-2.57-1.942h1.25a1.235,1.235,0,0,0,1.41.952c0.945,0,1.377-.444,1.377-0.971,0-.717-0.768-0.851-1.676-1.028-1.231-.254-2.24-0.66-2.24-1.879C388.558,83.873,389.776,83.258,391.1,83.258Z" transform="translate(0 0)" fill="#8151a1"/><path d="M394.989,87.022v-0.7a2.754,2.754,0,0,1,2.83-3.06c1.771,0,2.818,1.257,2.818,3.123v0.635h-4.373v0.14a1.718,1.718,0,0,0,1.631,1.987,1.377,1.377,0,0,0,1.422-.965h1.238a2.511,2.511,0,0,1-2.686,2C396.1,90.177,394.989,88.971,394.989,87.022Zm4.386-.946V86.057a1.569,1.569,0,1,0-3.11,0v0.019h3.11Z" transform="translate(0 0)" fill="#8151a1"/><path d="M406.55,84.311h0.044V80.941h1.282v9.122h-1.244V89.047h-0.038a2.115,2.115,0,0,1-1.962,1.111c-1.707,0-2.634-1.257-2.634-3.148v-0.6c0-1.854.978-3.148,2.634-3.148A2.124,2.124,0,0,1,406.55,84.311Zm-3.25,2.146v0.514c0,1.409.679,2.107,1.625,2.107,1.041,0,1.682-.749,1.682-2.1V86.457c0-1.289-.647-2.114-1.7-2.114C403.979,84.343,403.3,85.041,403.3,86.457Z" transform="translate(0 0)" fill="#8151a1"/><path d="M373.011,95.4a2.756,2.756,0,1,1-.007,5.51h-1.948v3.155h-1.3V95.4h3.257Zm-1.955,4.412h1.219c1.39,0,2.209-.311,2.209-1.65a1.5,1.5,0,0,0-1.639-1.65h-1.789v3.3Z" transform="translate(0 0)" fill="#8151a1"/><path d="M382.736,100.419v0.565c0,1.86-1.022,3.193-2.927,3.193s-2.945-1.333-2.945-3.193v-0.559A2.944,2.944,0,1,1,382.736,100.419Zm-4.583.032v0.514c0,1.263.564,2.146,1.65,2.146s1.645-.876,1.645-2.146v-0.514c0-1.282-.559-2.139-1.645-2.139S378.153,99.175,378.153,100.451Z" transform="translate(0 0)" fill="#8151a1"/><path d="M384.389,97.372h1.282v0.851h0.045a1.69,1.69,0,0,1,1.618-.952,3.189,3.189,0,0,1,.45.032v1.149a3.4,3.4,0,0,0-.57-0.038,1.4,1.4,0,0,0-1.53,1.612v4.037h-1.295v-6.69Z" transform="translate(0 0)" fill="#8151a1"/><path d="M389.862,95.722h1.263v1.65h1.313v1.041h-1.313v3.707c0,0.762.272,0.965,1.054,0.965,0.114,0,.216-0.006.3-0.013v1a4.2,4.2,0,0,1-.622.044c-1.612,0-2.013-.6-2.013-1.93V98.413h-0.914V97.372h0.928v-1.65Z" transform="translate(0 0)" fill="#8151a1"/><path d="M396.287,97.258c1.581,0,2.438.863,2.438,2.019h-1.168a1.126,1.126,0,0,0-1.308-1.035,1.064,1.064,0,0,0-1.27.939c0,0.724.914,0.863,1.676,1,1.25,0.222,2.254.59,2.254,1.873,0,1.346-1.073,2.12-2.717,2.12-1.556,0-2.571-.743-2.571-1.942h1.251a1.232,1.232,0,0,0,1.408.952c0.946,0,1.378-.444,1.378-0.971,0-.717-0.769-0.851-1.676-1.028-1.231-.254-2.241-0.66-2.241-1.879C393.741,97.873,394.96,97.258,396.287,97.258Z" transform="translate(0 0)" fill="#8151a1"/></g><g id="security"><rect x="240.163" y="41.543" width="90" height="72" rx="3" ry="3" fill="none"/><path d="M285.131,70.407a8.418,8.418,0,1,1,.033,0h-0.033Z" transform="translate(0 0)" fill="#b3b3b3"/><path d="M285.163,52.905l0.032,0.9a8.076,8.076,0,1,1-.032,0v-0.9m0,0a8.976,8.976,0,0,0-8.975,8.942h0a8.976,8.976,0,0,0,8.942,9.01h0.035a8.976,8.976,0,0,0,8.975-8.942h0a8.976,8.976,0,0,0-8.942-9.01h-0.035Z" transform="translate(0 0)" fill="gray"/><circle cx="285.163" cy="59.881" r="3" fill="#414042"/><path d="M285.163,59.881h0a1,1,0,0,1,1,1l0.763,4.577a1.222,1.222,0,0,1-1.205,1.423h-1.115a1.222,1.222,0,0,1-1.205-1.423l0.763-4.577A1,1,0,0,1,285.163,59.881Z" transform="translate(0 0)" fill="#414042"/><path d="M262.765,93.075a1.775,1.775,0,0,0,2.025,1.453c1.155,0,1.866-.552,1.866-1.422,0-.686-0.444-1.06-1.39-1.295l-1.461-.368a2.371,2.371,0,0,1-2.082-2.311c0-1.644,1.447-2.539,3.079-2.539,1.6,0,3.034.857,3.065,2.5h-1.263a1.6,1.6,0,0,0-1.821-1.4c-1.029,0-1.746.488-1.746,1.346a1.289,1.289,0,0,0,1.213,1.206l1.447,0.368c1.313,0.33,2.278.945,2.278,2.387,0,1.7-1.4,2.634-3.3,2.634-2.361,0-3.167-1.4-3.2-2.558h1.288Z" transform="translate(0 0)" fill="#afafb0"/><path d="M269.255,92.415V91.71a2.755,2.755,0,0,1,2.83-3.06c1.771,0,2.818,1.257,2.818,3.123v0.635h-4.373v0.14a1.718,1.718,0,0,0,1.631,1.987,1.377,1.377,0,0,0,1.422-.965h1.238a2.51,2.51,0,0,1-2.686,2C270.366,95.569,269.255,94.363,269.255,92.415Zm4.386-.946V91.45a1.569,1.569,0,1,0-3.11,0v0.019h3.11Z" transform="translate(0 0)" fill="#afafb0"/><path d="M276.257,91.767A2.808,2.808,0,0,1,279.1,88.65a2.415,2.415,0,0,1,2.622,2.152h-1.231a1.354,1.354,0,0,0-1.314-1.066c-1.027,0-1.631.78-1.631,2.063v0.6c0,1.27.635,2.082,1.638,2.082a1.257,1.257,0,0,0,1.353-.971h1.225a2.4,2.4,0,0,1-2.66,2.063c-1.8,0-2.844-1.339-2.844-3.18V91.767Z" transform="translate(0 0)" fill="#afafb0"/><path d="M288.77,95.455h-1.263V94.548h-0.051a1.965,1.965,0,0,1-1.937,1.016,2.155,2.155,0,0,1-2.343-2.343V88.765h1.283v4.1a1.365,1.365,0,0,0,1.5,1.568,1.452,1.452,0,0,0,1.529-1.587V88.765h1.282v6.69Z" transform="translate(0 0)" fill="#afafb0"/><path d="M290.689,88.765h1.282v0.851h0.044a1.692,1.692,0,0,1,1.619-.952,3.138,3.138,0,0,1,.451.032v1.148a3.414,3.414,0,0,0-.572-0.038,1.4,1.4,0,0,0-1.529,1.612v4.037h-1.295v-6.69Z" transform="translate(0 0)" fill="#afafb0"/><path d="M296.226,86.378a0.756,0.756,0,1,1-.781.756A0.759,0.759,0,0,1,296.226,86.378Zm-0.642,2.387h1.282v6.69h-1.282v-6.69Z" transform="translate(0 0)" fill="#afafb0"/><path d="M299.273,87.114h1.264v1.65h1.314v1.041h-1.314v3.707c0,0.762.273,0.965,1.054,0.965,0.114,0,.216-0.006.3-0.013v1a4.305,4.305,0,0,1-.622.044c-1.612,0-2.012-.6-2.012-1.93V89.806h-0.914V88.765h0.926v-1.65Z" transform="translate(0 0)" fill="#afafb0"/><path d="M306.816,95.417l-0.172.464c-0.4,1.06-.92,2-2.418,2a5.607,5.607,0,0,1-.756-0.057v-1a3.719,3.719,0,0,0,.508.032,1.154,1.154,0,0,0,1.283-1.016l0.088-.317-2.418-6.761h1.422l1.682,5.383h0.045l1.7-5.383h1.364S306.822,95.392,306.816,95.417Z" transform="translate(0 0)" fill="#afafb0"/></g><g id="environment_vars" data-name="environment vars"><path d="M478.72,70.053a2.243,2.243,0,0,1-2.235-2.252l0.048-12.566A2.248,2.248,0,0,1,478.775,53l12.575,0.048a2.243,2.243,0,0,1,2.235,2.252l-0.048,12.566a2.249,2.249,0,0,1-2.244,2.236Z" transform="translate(0 0)" fill="#414042"/><path d="M478.776,52.55l0.007,0.9L491.349,53.5a1.8,1.8,0,0,1,1.788,1.8L493.09,67.864a1.8,1.8,0,0,1-1.8,1.788L478.721,69.6a1.8,1.8,0,0,1-1.788-1.8l0.048-12.566a1.8,1.8,0,0,1,1.8-1.788v-0.9m0,0a2.693,2.693,0,0,0-2.693,2.683L476.035,67.8a2.693,2.693,0,0,0,2.683,2.7l12.566,0.048h0.01a2.693,2.693,0,0,0,2.693-2.683L494.035,55.3a2.693,2.693,0,0,0-2.683-2.7l-12.566-.048h-0.01Z" transform="translate(0 0)" fill="#a7a9ac"/><path d="M481.67,59.532c0.863-1.224,1.725-1.982,2.345-1.982,0.534,0,.776.6,1.155,1.742l0.293,0.862c1.345-1.949,2.035-2.6,2.793-2.6a0.777,0.777,0,0,1,.793.862,0.964,0.964,0,0,1-.81.914,0.444,0.444,0,0,1-.31-0.173,0.483,0.483,0,0,0-.4-0.207,1.417,1.417,0,0,0-.828.586,11.768,11.768,0,0,0-1.018,1.276l0.638,2.034c0.241,0.845.483,1.259,0.707,1.259a2.408,2.408,0,0,0,1.207-1l0.327,0.4c-0.931,1.482-1.845,2.052-2.465,2.052-0.534,0-.914-0.483-1.259-1.638l-0.449-1.448c-1.4,2.259-2.086,3.086-2.965,3.086a0.863,0.863,0,0,1-.863-0.931,0.931,0.931,0,0,1,.793-0.948,0.411,0.411,0,0,1,.31.173,0.512,0.512,0,0,0,.414.173c0.413,0,1.155-.828,2.086-2.259l-0.5-1.638c-0.293-.948-0.449-1.1-0.6-1.1a1.953,1.953,0,0,0-1.035.931Z" transform="translate(0 0)" fill="#fff"/><path d="M454.577,90.062h-5.319V81.4h5.319v1.124H450.56v2.59h3.789V86.19H450.56v2.749h4.018v1.124Z" transform="translate(0 0)" fill="#afafb0"/><path d="M456.273,83.371h1.263v0.914h0.045a2.129,2.129,0,0,1,1.949-1.022,2.261,2.261,0,0,1,2.367,2.5v4.3h-1.275V86.006a1.439,1.439,0,0,0-1.53-1.612,1.485,1.485,0,0,0-1.542,1.644v4.024h-1.276v-6.69Z" transform="translate(0 0)" fill="#afafb0"/><path d="M462.788,83.371h1.357l1.625,5.262h0.045l1.752-5.262h1.3l-2.373,6.69h-1.41Z" transform="translate(0 0)" fill="#afafb0"/><path d="M470.591,80.985a0.756,0.756,0,1,1-.781.755A0.759,0.759,0,0,1,470.591,80.985Zm-0.642,2.387h1.282v6.69h-1.282v-6.69Z" transform="translate(0 0)" fill="#afafb0"/><path d="M473.214,83.371H474.5v0.851h0.044a1.692,1.692,0,0,1,1.619-.952,3.214,3.214,0,0,1,.451.032v1.149a3.414,3.414,0,0,0-.572-0.038,1.4,1.4,0,0,0-1.529,1.612v4.037h-1.295v-6.69Z" transform="translate(0 0)" fill="#afafb0"/><path d="M483.435,86.418v0.565c0,1.86-1.021,3.193-2.926,3.193s-2.945-1.333-2.945-3.193V86.425A2.944,2.944,0,1,1,483.435,86.418Zm-4.583.032v0.514c0,1.263.565,2.146,1.65,2.146s1.644-.876,1.644-2.146V86.45c0-1.282-.559-2.139-1.644-2.139S478.852,85.174,478.852,86.45Z" transform="translate(0 0)" fill="#afafb0"/><path d="M485.087,83.371h1.264v0.914h0.044a2.13,2.13,0,0,1,1.948-1.022,2.261,2.261,0,0,1,2.368,2.5v4.3h-1.276V86.006a1.438,1.438,0,0,0-1.529-1.612,1.486,1.486,0,0,0-1.543,1.644v4.024h-1.275v-6.69Z" transform="translate(0 0)" fill="#afafb0"/><path d="M492.534,83.371H493.8v0.863h0.063a2.107,2.107,0,0,1,3.625.127h0.057a2.107,2.107,0,0,1,2.045-1.1,2.065,2.065,0,0,1,2.228,2.241v4.558h-1.276V85.8a1.28,1.28,0,0,0-1.352-1.422,1.346,1.346,0,0,0-1.384,1.511v4.17h-1.257v-4.17a1.308,1.308,0,0,0-1.365-1.511,1.347,1.347,0,0,0-1.371,1.5v4.183h-1.275v-6.69Z" transform="translate(0 0)" fill="#afafb0"/><path d="M503.429,87.021v-0.7a2.754,2.754,0,0,1,2.83-3.06c1.771,0,2.818,1.257,2.818,3.123v0.635H504.7v0.14a1.718,1.718,0,0,0,1.631,1.987,1.377,1.377,0,0,0,1.422-.965H509a2.511,2.511,0,0,1-2.686,2C504.539,90.176,503.429,88.97,503.429,87.021Zm4.386-.946V86.057a1.569,1.569,0,1,0-3.11,0v0.019h3.11Z" transform="translate(0 0)" fill="#afafb0"/><path d="M510.7,83.371h1.264v0.914h0.044a2.13,2.13,0,0,1,1.948-1.022,2.261,2.261,0,0,1,2.368,2.5v4.3h-1.276V86.006a1.438,1.438,0,0,0-1.529-1.612,1.486,1.486,0,0,0-1.543,1.644v4.024H510.7v-6.69Z" transform="translate(0 0)" fill="#afafb0"/><path d="M518.6,81.721h1.263v1.65h1.313v1.041h-1.313V88.12c0,0.762.272,0.965,1.054,0.965,0.114,0,.216-0.006.3-0.013v1a4.2,4.2,0,0,1-.622.044c-1.612,0-2.013-.6-2.013-1.93V84.413h-0.914V83.371H518.6v-1.65Z" transform="translate(0 0)" fill="#afafb0"/><path d="M461.488,104.062L458.441,95.4h1.5l2.267,7.071h0.051L464.5,95.4h1.467l-3.041,8.665h-1.44Z" transform="translate(0 0)" fill="#afafb0"/><path d="M468.326,104.17a1.992,1.992,0,0,1-2.184-2.031c0-1.181.819-1.93,2.354-1.936h1.721V99.549a1.328,1.328,0,0,0-2.621-.222H466.39c0.064-1.149.838-2.063,2.559-2.063,1.46,0,2.545.755,2.545,2.215v4.583h-1.225v-0.825h-0.045A2.056,2.056,0,0,1,468.326,104.17Zm1.892-2.323v-0.755h-1.543a1.019,1.019,0,0,0-1.237.984,1.123,1.123,0,0,0,1.263,1.085A1.381,1.381,0,0,0,470.218,101.847Z" transform="translate(0 0)" fill="#afafb0"/><path d="M473.349,97.371h1.282v0.851h0.044a1.692,1.692,0,0,1,1.619-.952,3.214,3.214,0,0,1,.451.032v1.149a3.414,3.414,0,0,0-.572-0.038,1.4,1.4,0,0,0-1.529,1.612v4.037h-1.295v-6.69Z" transform="translate(0 0)" fill="#afafb0"/><path d="M478.886,94.985a0.756,0.756,0,1,1-.781.755A0.759,0.759,0,0,1,478.886,94.985Zm-0.642,2.387h1.282v6.69h-1.282v-6.69Z" transform="translate(0 0)" fill="#afafb0"/><path d="M483.324,104.17a1.992,1.992,0,0,1-2.184-2.031c0-1.181.819-1.93,2.354-1.936h1.721V99.549a1.328,1.328,0,0,0-2.621-.222h-1.207c0.064-1.149.838-2.063,2.559-2.063,1.46,0,2.545.755,2.545,2.215v4.583h-1.225v-0.825h-0.045A2.056,2.056,0,0,1,483.324,104.17Zm1.892-2.323v-0.755h-1.543a1.019,1.019,0,0,0-1.237.984,1.123,1.123,0,0,0,1.263,1.085A1.381,1.381,0,0,0,485.216,101.847Z" transform="translate(0 0)" fill="#afafb0"/><path d="M489.654,103.046H489.61v1.016h-1.244V94.94h1.281V98.3h0.045a2.234,2.234,0,0,1,1.949-1.035c1.549,0,2.621,1.1,2.621,3.123v0.635c0,1.955-1.041,3.136-2.628,3.136A2.116,2.116,0,0,1,489.654,103.046Zm3.308-2.076v-0.508c0-1.371-.654-2.114-1.588-2.114-1.078,0-1.738.736-1.738,2.114v0.5c0,1.384.653,2.126,1.738,2.126C492.313,103.084,492.962,102.335,492.962,100.971Z" transform="translate(0 0)" fill="#afafb0"/><path d="M495.958,94.94h1.276v9.122h-1.276V94.94Z" transform="translate(0 0)" fill="#afafb0"/><path d="M498.925,101.021v-0.7a2.754,2.754,0,0,1,2.83-3.06c1.771,0,2.818,1.257,2.818,3.123v0.635H500.2v0.14a1.718,1.718,0,0,0,1.631,1.987,1.377,1.377,0,0,0,1.422-.965h1.238a2.511,2.511,0,0,1-2.686,2C500.035,104.176,498.925,102.97,498.925,101.021Zm4.386-.946v-0.019a1.569,1.569,0,1,0-3.11,0v0.019h3.11Z" transform="translate(0 0)" fill="#afafb0"/><path d="M508.485,97.257c1.58,0,2.438.863,2.438,2.019h-1.168a1.126,1.126,0,0,0-1.308-1.035,1.063,1.063,0,0,0-1.27.939c0,0.724.914,0.863,1.676,1,1.251,0.222,2.253.59,2.253,1.873,0,1.346-1.072,2.12-2.717,2.12-1.555,0-2.57-.743-2.57-1.942h1.25a1.235,1.235,0,0,0,1.41.952c0.945,0,1.377-.444,1.377-0.971,0-.717-0.768-0.851-1.676-1.028-1.231-.254-2.24-0.66-2.24-1.879C505.94,97.873,507.159,97.257,508.485,97.257Z" transform="translate(0 0)" fill="#afafb0"/><rect x="440.035" y="41.543" width="90" height="72" rx="3" ry="3" fill="none"/></g><g id="repository"><rect x="140.227" y="41.543" width="90" height="72" rx="3" ry="3" fill="none"/><path d="M161,89.425a2.452,2.452,0,0,1-1.6,2.418l1.759,3.612H159.68l-1.574-3.377h-1.917v3.377h-1.295V86.79h3.237A2.563,2.563,0,0,1,161,89.425Zm-3.085,1.581a1.473,1.473,0,0,0,1.732-1.523,1.506,1.506,0,0,0-1.694-1.593h-1.765v3.117h1.727Z" transform="translate(0 0)" fill="#afafb0"/><path d="M162.405,92.414v-0.7a2.754,2.754,0,0,1,2.83-3.06c1.771,0,2.818,1.257,2.818,3.123v0.635h-4.373v0.14a1.718,1.718,0,0,0,1.631,1.987,1.377,1.377,0,0,0,1.422-.965h1.238a2.511,2.511,0,0,1-2.686,2C163.516,95.569,162.405,94.363,162.405,92.414Zm4.386-.946V91.45a1.569,1.569,0,1,0-3.11,0v0.019h3.11Z" transform="translate(0 0)" fill="#afafb0"/><path d="M171.021,94.541h-0.045v3.212h-1.282V88.765h1.244v0.971h0.044a2.206,2.206,0,0,1,1.962-1.073c1.5,0,2.59,1.149,2.59,3.142v0.6c0,1.974-1.073,3.148-2.628,3.148A2.126,2.126,0,0,1,171.021,94.541Zm3.218-2.215V91.85c0-1.339-.6-2.12-1.6-2.12-1.034,0-1.676.838-1.676,2.114v0.482c0,1.314.647,2.152,1.7,2.152C173.6,94.477,174.238,93.728,174.238,92.326Z" transform="translate(0 0)" fill="#afafb0"/><path d="M182.783,91.811v0.565c0,1.86-1.022,3.193-2.927,3.193s-2.945-1.333-2.945-3.193V91.818A2.944,2.944,0,1,1,182.783,91.811Zm-4.583.032v0.514c0,1.263.564,2.146,1.65,2.146s1.645-.876,1.645-2.146V91.843c0-1.282-.559-2.139-1.645-2.139S178.2,90.567,178.2,91.843Z" transform="translate(0 0)" fill="#afafb0"/><path d="M186.721,88.65c1.581,0,2.438.863,2.438,2.019H187.99a1.126,1.126,0,0,0-1.308-1.035,1.064,1.064,0,0,0-1.27.939c0,0.724.914,0.863,1.676,1,1.25,0.222,2.254.59,2.254,1.873,0,1.346-1.073,2.12-2.717,2.12-1.556,0-2.571-.743-2.571-1.942h1.251a1.232,1.232,0,0,0,1.408.952c0.946,0,1.378-.444,1.378-0.971,0-.717-0.769-0.851-1.676-1.028-1.231-.254-2.241-0.66-2.241-1.879C184.175,89.266,185.394,88.65,186.721,88.65Z" transform="translate(0 0)" fill="#afafb0"/><path d="M191.585,86.378a0.756,0.756,0,1,1-.781.755A0.759,0.759,0,0,1,191.585,86.378Zm-0.642,2.387h1.282v6.69h-1.282v-6.69Z" transform="translate(0 0)" fill="#afafb0"/><path d="M194.632,87.114H195.9v1.65h1.314v1.041H195.9v3.707c0,0.762.273,0.965,1.054,0.965,0.114,0,.216-0.006.3-0.013v1a4.219,4.219,0,0,1-.622.044c-1.612,0-2.012-.6-2.012-1.93V89.806h-0.914V88.765h0.926v-1.65Z" transform="translate(0 0)" fill="#afafb0"/><path d="M204.371,91.811v0.565c0,1.86-1.022,3.193-2.927,3.193s-2.945-1.333-2.945-3.193V91.818A2.944,2.944,0,1,1,204.371,91.811Zm-4.583.032v0.514c0,1.263.564,2.146,1.65,2.146s1.645-.876,1.645-2.146V91.843c0-1.282-.559-2.139-1.645-2.139S199.788,90.567,199.788,91.843Z" transform="translate(0 0)" fill="#afafb0"/><path d="M206.023,88.765h1.282v0.851h0.045a1.69,1.69,0,0,1,1.618-.952,3.189,3.189,0,0,1,.45.032v1.149a3.4,3.4,0,0,0-.57-0.038,1.4,1.4,0,0,0-1.53,1.612v4.037h-1.295v-6.69Z" transform="translate(0 0)" fill="#afafb0"/><path d="M214.15,95.417l-0.171.463c-0.4,1.06-.921,2-2.419,2a5.553,5.553,0,0,1-.755-0.057v-1a3.8,3.8,0,0,0,.508.032,1.152,1.152,0,0,0,1.281-1.016l0.09-.317-2.419-6.76h1.422l1.683,5.383h0.044l1.694-5.383h1.365S214.157,95.392,214.15,95.417Z" transform="translate(0 0)" fill="#afafb0"/><path d="M180.613,69c-1.213,0-2.9-.66-2.9-1.734v-1.8c0-1.443,2.229-1.484,2.484-1.484h10.629c0.4,0,.418,0,0.607-0.012,0.128-.007.917-0.042,0.917-0.042l0.079-.033a2.329,2.329,0,0,0,.322-0.167v2.738c0,0.941-.317,2.534-1.5,2.534H180.613Z" transform="translate(0 0)" fill="#e6e6e6"/><path d="M192.28,64.395v2.068c0,0.715-.217,2.068-1.039,2.068H180.613c-1.1,0-2.439-.585-2.439-1.268v-1.8c0-1.007,1.936-1.018,2.018-1.018h10.629c0.419,0,.437,0,0.632-0.012,0.127-.007.337-0.019,0.825-0.038h0m0.932-2.235a1.531,1.531,0,0,1-.971,1.3c-1.187.047-.759,0.049-1.421,0.049H180.192c-1.419,0-2.951.531-2.951,1.951v1.8c0,1.419,1.952,2.2,3.371,2.2h10.629c1.419,0,1.971-1.581,1.971-3v-4.3h0Z" transform="translate(0 0)" fill="gray"/><path d="M177.708,55.463a2.708,2.708,0,0,1,2.523-2.534h10.135a2.346,2.346,0,0,1,1.683.721,2.465,2.465,0,0,1,.7,1.74v7.926a1.145,1.145,0,0,1-.614.678c-0.439.018-.637,0.028-0.759,0.035-0.169.01-.186,0.01-0.552,0.01h-10.58a4.385,4.385,0,0,0-2.534.671V55.463Z" transform="translate(0 0)" fill="#b3b3b3"/><path d="M180.232,53.4h10.131a1.96,1.96,0,0,1,1.917,2v7.843a0.661,0.661,0,0,1-.274.3c-0.366.015-.543,0.025-0.655,0.031-0.164.009-.178,0.009-0.529,0.009H180.192a5.4,5.4,0,0,0-2.018.36V55.466a2.243,2.243,0,0,1,2.058-2.071m0-.932a3.16,3.16,0,0,0-2.99,3V66.45l0.347-.994a3.351,3.351,0,0,1,2.6-.951h10.629c0.662,0,.233,0,1.42-0.049a1.609,1.609,0,0,0,.971-1.076V55.393a2.889,2.889,0,0,0-2.846-2.93H180.232Z" transform="translate(0 0)" fill="gray"/><path d="M183.527,68.556a0.5,0.5,0,0,0-.6,0l-1.181.885,0.022-4.478h2.971l-0.022,4.485Z" transform="translate(0 0)" fill="#ef9ca4"/><path d="M184.237,65.463l-0.015,2.989-0.4-.3a1,1,0,0,0-1.2,0l-0.376.282,0.015-2.975h1.971m1-1h-3.971l-0.027,5.579a0.2,0.2,0,0,0,.2.2,0.2,0.2,0,0,0,.119-0.04l1.663-1.247,1.667,1.25a0.2,0.2,0,0,0,.119.04,0.2,0.2,0,0,0,.2-0.2l0.027-5.584h0Z" transform="translate(0 0)" fill="#f25058"/></g><g id="dockerfile"><path d="M559.412,86.366c2.793,0,3.834,1.79,3.834,4.323,0,2.495-1,4.342-3.834,4.342h-2.9V86.366h2.9Zm-1.593,7.541H559.3c1.752,0,2.6-1.047,2.6-3.2,0-1.942-.686-3.218-2.6-3.218h-1.479v6.417Z" transform="translate(0 0)" fill="#afafb0"/><path d="M570.37,91.387v0.565c0,1.86-1.022,3.193-2.927,3.193s-2.945-1.333-2.945-3.193V91.393A2.944,2.944,0,1,1,570.37,91.387Zm-4.583.032v0.514c0,1.263.564,2.146,1.65,2.146s1.645-.876,1.645-2.146V91.418c0-1.282-.559-2.139-1.645-2.139S565.787,90.142,565.787,91.418Z" transform="translate(0 0)" fill="#afafb0"/><path d="M571.75,91.342a2.807,2.807,0,0,1,2.844-3.117,2.413,2.413,0,0,1,2.621,2.152h-1.231a1.354,1.354,0,0,0-1.313-1.066c-1.029,0-1.632.781-1.632,2.063v0.6c0,1.27.635,2.082,1.638,2.082a1.255,1.255,0,0,0,1.352-.971h1.226a2.4,2.4,0,0,1-2.659,2.063c-1.8,0-2.844-1.339-2.844-3.18V91.342Z" transform="translate(0 0)" fill="#afafb0"/><path d="M580.06,95.03h-1.282V85.909h1.282v5.319h0.058l2.507-2.888h1.542l-2.576,2.9,2.742,3.79h-1.549l-2.152-3.009-0.571.635V95.03Z" transform="translate(0 0)" fill="#afafb0"/><path d="M584.879,91.99v-0.7a2.755,2.755,0,0,1,2.832-3.06c1.771,0,2.818,1.257,2.818,3.123v0.635h-4.374v0.14a1.718,1.718,0,0,0,1.632,1.987,1.378,1.378,0,0,0,1.422-.965h1.237a2.51,2.51,0,0,1-2.685,2C585.99,95.144,584.879,93.938,584.879,91.99Zm4.387-.946V91.025a1.569,1.569,0,1,0-3.11,0v0.019h3.11Z" transform="translate(0 0)" fill="#afafb0"/><path d="M592.155,88.34h1.282V89.19h0.045a1.69,1.69,0,0,1,1.618-.952,3.189,3.189,0,0,1,.45.032v1.149a3.4,3.4,0,0,0-.57-0.038,1.4,1.4,0,0,0-1.53,1.612V95.03h-1.295V88.34Z" transform="translate(0 0)" fill="#afafb0"/><path d="M597.629,89.381h-0.921V88.34h0.921V87.673c0-1.308.66-1.879,2.094-1.879a3.454,3.454,0,0,1,.565.038v0.99a2.316,2.316,0,0,0-.362-0.025,0.852,0.852,0,0,0-1.034.978V88.34H600.2v1.041H598.9V95.03h-1.275V89.381Z" transform="translate(0 0)" fill="#afafb0"/><path d="M602.492,85.953a0.756,0.756,0,1,1-.781.755A0.759,0.759,0,0,1,602.492,85.953Zm-0.642,2.387h1.282v6.69h-1.282V88.34Z" transform="translate(0 0)" fill="#afafb0"/><path d="M605.16,85.909h1.275V95.03H605.16V85.909Z" transform="translate(0 0)" fill="#afafb0"/><path d="M608.125,91.99v-0.7a2.755,2.755,0,0,1,2.832-3.06c1.771,0,2.818,1.257,2.818,3.123v0.635H609.4v0.14a1.718,1.718,0,0,0,1.632,1.987,1.378,1.378,0,0,0,1.422-.965h1.237a2.51,2.51,0,0,1-2.685,2C609.236,95.144,608.125,93.938,608.125,91.99Zm4.387-.946V91.025a1.569,1.569,0,1,0-3.11,0v0.019h3.11Z" transform="translate(0 0)" fill="#afafb0"/><rect x="539.991" y="41.543" width="90" height="72" rx="3" ry="3" fill="none"/><rect x="575.959" y="54.058" width="18" height="18" fill="none"/><path d="M580.18,71.555a2.8,2.8,0,0,1-1.9-.771,2.478,2.478,0,0,1-.806-1.814V57.1a2.747,2.747,0,0,1,2.765-2.563h5.722l6.477,6.477v8.034a2.606,2.606,0,0,1-2.628,2.563Z" transform="translate(0 0)" fill="#fff"/><path d="M580.242,54.985h5.536l6.213,6.213v7.844a2.185,2.185,0,0,1-2.185,2.117l-9.625-.054a2.254,2.254,0,0,1-2.253-2.137V57.1a2.287,2.287,0,0,1,2.315-2.117m0-.9a3.194,3.194,0,0,0-3.215,3.014v11.87a3.144,3.144,0,0,0,3.15,3.037l9.623,0.054h0.012a3.072,3.072,0,0,0,3.079-3.014v-8.22l-6.74-6.74h-5.908Z" transform="translate(0 0)" fill="#b3b3b3"/><polygon points="586.532 60.375 586.532 55.157 591.857 60.375 586.532 60.375" fill="#f2f2f2"/><path d="M586.983,56.228l3.773,3.7h-3.773v-3.7m-0.9-2.142v6.74h6.877l-6.877-6.74h0Z" transform="translate(0 0)" fill="#b3b3b3"/><path d="M590.04,64.688a1.633,1.633,0,0,0-1.239-.115,1.7,1.7,0,0,0-.67-1.08L588,63.386l-0.112.13a1.458,1.458,0,0,0-.262,1.028,1.339,1.339,0,0,0,.25.69,1.9,1.9,0,0,1-.361.163,2.342,2.342,0,0,1-.742.124h-7.008l-0.015.161a3.1,3.1,0,0,0,.247,1.571l0.1,0.2,0.011,0.018a3.386,3.386,0,0,0,3.077,1.59,5.408,5.408,0,0,0,5.379-3.394,1.544,1.544,0,0,0,1.553-.741l0.077-.151Z" transform="translate(0 0)" fill="#158cb6"/><polygon points="586.23 64.429 585.161 64.429 585.161 62.293 583.88 62.293 583.88 63.361 581.743 63.361 581.743 64.429 580.675 64.429 580.675 65.521 586.23 65.521 586.23 64.429" fill="#00acd3"/></g></svg>