<svg xmlns="http://www.w3.org/2000/svg" viewBox="0 0 750 300"><title>setup-dockerfile</title><path d="M0.5,299.5V6A5.506,5.506,0,0,1,6,.5H744A5.507,5.507,0,0,1,749.5,6V299.5H0.5Z" style="fill:#fff"/><path d="M744,1a5.006,5.006,0,0,1,5,5V299H1V6A5.006,5.006,0,0,1,6,1H744m0-1H6A6,6,0,0,0,0,6V300H750V6a6,6,0,0,0-6-6h0Z" style="fill:#e6e6e5"/><rect x="1" y="128" width="748" height="172" style="fill:#fafafa"/><polyline points="38.506 300 38.506 202.065 250.506 202.065 250.506 300" style="fill:#fff;stroke:#e6e6e6;stroke-miterlimit:10"/><path d="M41.506,163.065h209v39h-212v-36a3,3,0,0,1,3-3h0Z" style="fill:#f3f3f3;stroke:#e6e6e6;stroke-miterlimit:10"/><path d="M250.506,300h0V163.065H709.422a2.072,2.072,0,0,1,2.072,2.072h0V300" style="fill:#311d40;stroke:#311d40;stroke-miterlimit:10"/><rect x="250.506" y="163.065" width="51" height="136.935" style="fill:#291835"/><path d="M281.392,180.053v0.807H274.6v-0.807h3V172.11h-0.1L274.57,174v-1.039L277.6,171h0.923v9.058h2.864Z" style="fill:#7d6692"/><path d="M277.639,189.79a2.69,2.69,0,0,1,2.919,2.721c0,1-.424,1.771-1.962,3.541l-2.468,2.851v0.109h4.594v0.848h-5.975v-0.6l3.384-3.951c1.21-1.429,1.49-1.955,1.49-2.789a1.837,1.837,0,0,0-2-1.914,1.907,1.907,0,0,0-1.989,2.071v0.041h-0.923v-0.041a2.819,2.819,0,0,1,2.743-2.893h0Z" style="fill:#7d6692"/><path d="M276.5,213.363h1.046a1.884,1.884,0,0,0,1.974-1.789v-0.139a1.789,1.789,0,0,0-1.948-1.825,1.917,1.917,0,0,0-2.034,1.792v0.054H274.6a2.793,2.793,0,0,1,2.908-2.673l0.113,0.007a2.636,2.636,0,0,1,2.881,2.366h0q0.008,0.081.011,0.163a2.206,2.206,0,0,1-1.654,2.317v0.1a2.325,2.325,0,0,1,2.078,2.488,3.306,3.306,0,0,1-6.528.109h0.9a2.177,2.177,0,0,0,2.358,1.907c1.436,0,2.324-.766,2.324-2a2.091,2.091,0,0,0-2.379-2.078H276.5v-0.8h0Z" style="fill:#7d6692"/><path d="M279,235.679h-4.525v-0.718L277.954,228h0.957l-3.452,6.815v0.068H279v-2.967h0.854v2.933h1.565v0.834H279.84v2.181H279v-2.185Z" style="fill:#7d6692"/><path d="M274.495,254.309h0.9a2.18,2.18,0,0,0,2.3,1.928,2.219,2.219,0,0,0,2.249-2.44,2.254,2.254,0,0,0-2.249-2.481,2.37,2.37,0,0,0-2.153,1.189h-0.868l0.513-5.51h5.154v0.841h-4.423l-0.294,3.486h0.1a2.609,2.609,0,0,1,2.044-.861,3.3,3.3,0,1,1-.157,6.6,2.918,2.918,0,0,1-3.113-2.709h0Z" style="fill:#7d6692"/><path d="M277.7,276.064a3.126,3.126,0,0,1-3.194-3.056h0v-0.19a6.023,6.023,0,0,1,1.313-3.521l2.256-3.3h1.087l-2.769,3.883a2.429,2.429,0,0,0-.28.424l0.089,0.068a2.212,2.212,0,0,1,1.654-.725,3,3,0,0,1,3.07,2.928v0.182a3.142,3.142,0,0,1-2.97,3.3A2.056,2.056,0,0,1,277.7,276.064Zm2.338-3.254a2.321,2.321,0,1,0-2.317,2.447,2.346,2.346,0,0,0,2.32-2.372h0V272.81h0Z" style="fill:#7d6692"/><path d="M280.011,285.911v-0.075h-5.469V285h6.426v0.875l-4.519,8.989h-1Z" style="fill:#7d6692"/><path d="M312.338,180.859V171H318v0.848h-4.73v3.705h4.33v0.834h-4.33v4.478h-0.937Z" style="fill:#fcd04a"/><path d="M321.486,176.792v4.067H320.57V171h3.213a2.777,2.777,0,0,1,3.069,2.885,2.7,2.7,0,0,1-1.873,2.7L327,180.859h-1.05l-1.873-4.067h-2.591Zm0-.807h2.167a2.084,2.084,0,1,0,.068-4.156h-2.235v4.156Z" style="fill:#fcd04a"/><path d="M332.282,181.064c-2.194,0-3.548-1.6-3.548-4.32V175.11c0-2.721,1.354-4.32,3.548-4.32s3.548,1.6,3.548,4.32v1.634C335.83,179.465,334.476,181.064,332.282,181.064Zm2.611-4.32V175.11c0-2.187-1-3.452-2.611-3.452s-2.611,1.265-2.611,3.452v1.634c0,2.188,1,3.452,2.611,3.452s2.611-1.264,2.611-3.452h0Z" style="fill:#fcd04a"/><path d="M338.265,180.859H337.39V171h1.073l2.509,6.316h0.075l2.5-6.316h1.08v9.864h-0.875v-8.046h-0.068l-2.27,5.729H340.6l-2.27-5.729h-0.068v8.046Z" style="fill:#fcd04a"/><path d="M355.542,173.5H356.4v1.326h0.089a2.452,2.452,0,0,1,2.406-1.449c1.606,0,2.475.95,2.475,2.7v4.785h-0.9V176.3c0-1.442-.581-2.119-1.818-2.119a2.149,2.149,0,0,0-2.215,2.3v4.375h-0.9V173.5h0Z" style="fill:#fff"/><path d="M364.062,177.728v-1.094a3.12,3.12,0,0,1,6.233-.287v0.014q0.006,0.137,0,.273v1.094a3.12,3.12,0,0,1-6.233.287V178Q364.056,177.865,364.062,177.728Zm0.9-.978v0.861c0,1.593.854,2.57,2.222,2.57s2.222-.978,2.222-2.57V176.75c0-1.593-.854-2.57-2.222-2.57s-2.227.978-2.227,2.571h0.005Z" style="fill:#fff"/><path d="M377.838,179.8a2.417,2.417,0,0,1-2.263,1.183,2.842,2.842,0,0,1-2.871-3.1v-1.415a2.842,2.842,0,0,1,2.871-3.1,2.269,2.269,0,0,1,2.222,1.21h0.123v-4.02h0.9v10.295h-0.854V179.8h-0.128Zm-4.238-2.126a2.193,2.193,0,1,0,4.341,0V176.69a2.193,2.193,0,1,0-4.341,0v0.984Z" style="fill:#fff"/><path d="M387.656,179.041a2.678,2.678,0,0,1-2.851,1.941c-1.982,0-3.131-1.224-3.131-3.322v-1.073a2.94,2.94,0,0,1,3.028-3.213c1.9,0,2.987,1.258,2.987,3.459v0.581h-5.12v0.253a2.227,2.227,0,0,0,2.235,2.516,1.872,1.872,0,0,0,1.962-1.142h0.89Zm-5.086-2.365h4.211c0-1.565-.779-2.509-2.078-2.509C383.37,174.167,382.57,175.1,382.57,176.676Z" style="fill:#fff"/><path d="M392.217,174.44a1.135,1.135,0,1,1,1.135,1.135,1.135,1.135,0,0,1-1.135-1.135h0Zm0,5.284a1.135,1.135,0,1,1,1.135,1.135,1.135,1.135,0,0,1-1.135-1.135h0Z" style="fill:#fff"/><path d="M399.075,178.781c0-1.292.923-2.064,2.55-2.14l2.133-.1v-0.7a1.516,1.516,0,0,0-1.736-1.634,1.658,1.658,0,0,0-1.777,1.107h-0.889a2.46,2.46,0,0,1,2.666-1.887c1.668,0,2.639.875,2.639,2.372v5.059H403.8V179.7h-0.1a2.273,2.273,0,0,1-2.276,1.285A2.15,2.15,0,0,1,399.075,178.781Zm4.683-.465v-1.025l-2.071.089c-1.1.048-1.688,0.54-1.688,1.4a1.429,1.429,0,0,0,1.647,1.415,1.978,1.978,0,0,0,2.11-1.837h0v-0.042h0Z" style="fill:#fff"/><path d="M410.527,175.37a2.468,2.468,0,0,1,2.659-2.058,3,3,0,0,1,1.073.164v0.978a3.871,3.871,0,0,0-1.21-.205c-1.586,0-2.6,1.285-2.6,3.3v2.584h2.338v0.725h-4.751v-0.725h1.518V174.22h-1.668V173.5h2.543v1.873h0.1Z" style="fill:#fff"/><path d="M416.414,181.721h0.9a2.237,2.237,0,0,0,4.163-.909V179.8H421.35a2.3,2.3,0,0,1-2.222,1.183,2.842,2.842,0,0,1-2.871-3.1v-1.415a2.842,2.842,0,0,1,2.871-3.1,2.269,2.269,0,0,1,2.222,1.21h0.123V173.5h0.9v7.362c0,1.743-1.128,2.762-3.062,2.762C417.679,183.621,416.578,182.9,416.414,181.721Zm2.912-1.538a2.209,2.209,0,0,0,2.167-2.509V176.69a2.193,2.193,0,1,0-4.341,0v0.984A2.213,2.213,0,0,0,419.326,180.183Z" style="fill:#fff"/><path d="M425.132,177.728v-1.094a3.12,3.12,0,0,1,6.233-.287v0.014q0.006,0.137,0,.273v1.094a3.12,3.12,0,0,1-6.233.287V178Q425.126,177.865,425.132,177.728Zm0.9-.978v0.861c0,1.593.854,2.57,2.222,2.57s2.222-.978,2.222-2.57V176.75c0-1.593-.854-2.57-2.222-2.57s-2.227.978-2.227,2.571h0.005Z" style="fill:#fff"/><path d="M434.062,173.5h0.854v1.326H435a2.452,2.452,0,0,1,2.406-1.449c1.606,0,2.475.95,2.475,2.7v4.785h-0.9V176.3c0-1.442-.581-2.119-1.818-2.119a2.149,2.149,0,0,0-2.215,2.3v4.375h-0.9V173.5h0.014Z" style="fill:#fff"/><path d="M317.431,216.05h0.937a3.056,3.056,0,0,1-3.086,3.025q-0.112,0-.223-0.01c-2.27,0-3.582-1.579-3.582-4.32V213.11c0-2.741,1.313-4.32,3.582-4.32a3.072,3.072,0,0,1,3.315,3.22h-0.937a2.307,2.307,0,0,0-2.26-2.353h-0.119c-1.736,0-2.646,1.189-2.646,3.452v1.634c0,2.263.909,3.452,2.646,3.452A2.136,2.136,0,0,0,317.431,216.05Z" style="fill:#fcd04a"/><path d="M323.557,219.064c-2.194,0-3.548-1.6-3.548-4.32V213.11c0-2.721,1.354-4.32,3.548-4.32s3.548,1.6,3.548,4.32v1.634C327.1,217.465,325.751,219.064,323.557,219.064Zm2.611-4.32V213.11c0-2.187-1-3.452-2.611-3.452s-2.611,1.265-2.611,3.452v1.634c0,2.188,1,3.452,2.611,3.452s2.611-1.264,2.611-3.452h0Z" style="fill:#fcd04a"/><path d="M332.589,209a3.07,3.07,0,1,1,.11,6.139h-2.332v3.726H329.43V209h3.159Zm-2.222,5.3h2a2.239,2.239,0,1,0,0-4.471h-2V214.3Z" style="fill:#fcd04a"/><path d="M340.541,218.859v-4.266l-3.336-5.6h1.073l2.687,4.648h0.082L343.733,209h1.073l-3.336,5.6v4.266h-0.93v-0.007h0Z" style="fill:#fcd04a"/><path d="M357.32,217.725a1.135,1.135,0,1,1,1.135,1.135,1.135,1.135,0,0,1-1.135-1.135h0Z" style="fill:#fff"/><path d="M364.321,219.536l4.86-11.218h0.854l-4.86,11.218h-0.854Z" style="fill:#a1f0f2"/><path d="M372.9,216.781c0-1.292.923-2.064,2.55-2.14l2.133-.1v-0.7a1.516,1.516,0,0,0-1.736-1.634,1.658,1.658,0,0,0-1.777,1.107h-0.889a2.46,2.46,0,0,1,2.666-1.887c1.668,0,2.639.875,2.639,2.372v5.059h-0.861V217.7h-0.1a2.273,2.273,0,0,1-2.276,1.285A2.15,2.15,0,0,1,372.9,216.781Zm4.683-.465v-1.025l-2.071.089c-1.1.048-1.688,0.54-1.688,1.4a1.429,1.429,0,0,0,1.647,1.415,1.978,1.978,0,0,0,2.111-1.835v-0.044h0Z" style="fill:#fff"/><path d="M387.827,214.471v1.415a2.842,2.842,0,0,1-2.871,3.1,2.269,2.269,0,0,1-2.222-1.21h-0.123v3.582h-0.9V211.5h0.854v1.06h0.123a2.417,2.417,0,0,1,2.263-1.183A2.842,2.842,0,0,1,387.827,214.471Zm-5.236.219v0.984a2.193,2.193,0,1,0,4.341,0V214.69a2.193,2.193,0,1,0-4.341,0h0Z" style="fill:#fff"/><path d="M396.551,214.471v1.415a2.842,2.842,0,0,1-2.871,3.1,2.269,2.269,0,0,1-2.222-1.21h-0.123v3.582h-0.9V211.5h0.854v1.06h0.123a2.417,2.417,0,0,1,2.263-1.183A2.842,2.842,0,0,1,396.551,214.471Zm-5.236.219v0.984a2.193,2.193,0,1,0,4.341,0V214.69a2.193,2.193,0,1,0-4.342,0h0Z" style="fill:#fff"/><path d="M399.219,219.536l4.86-11.218h0.854l-4.86,11.218h-0.854Z" style="fill:#a1f0f2"/><path d="M414,214.471v1.415a2.842,2.842,0,0,1-2.871,3.1,2.269,2.269,0,0,1-2.222-1.21h-0.123v3.582h-0.9V211.5h0.854v1.06h0.123a2.417,2.417,0,0,1,2.263-1.183A2.842,2.842,0,0,1,414,214.471Zm-5.236.219v0.984a2.193,2.193,0,1,0,4.341,0V214.69a2.193,2.193,0,1,0-4.341,0h0Z" style="fill:#fff"/><path d="M416.523,216.781c0-1.292.923-2.064,2.55-2.14l2.133-.1v-0.7a1.516,1.516,0,0,0-1.736-1.634,1.658,1.658,0,0,0-1.777,1.107H416.8a2.46,2.46,0,0,1,2.666-1.887c1.668,0,2.639.875,2.639,2.372v5.059h-0.861V217.7h-0.1a2.273,2.273,0,0,1-2.276,1.285A2.15,2.15,0,0,1,416.523,216.781Zm4.683-.465v-1.025l-2.071.089c-1.1.048-1.688,0.54-1.688,1.4a1.429,1.429,0,0,0,1.647,1.415,1.978,1.978,0,0,0,2.11-1.837h0v-0.042h0Z" style="fill:#fff"/><path d="M430.327,213.664a1.894,1.894,0,0,0-1.969-1.483c-1.4,0-2.181.937-2.181,2.625v0.745c0,1.688.779,2.625,2.181,2.625a1.894,1.894,0,0,0,1.969-1.483h0.889a2.674,2.674,0,0,1-2.837,2.29,2.939,2.939,0,0,1-3.1-3.281v-1.046a2.938,2.938,0,0,1,3.1-3.281,2.674,2.674,0,0,1,2.837,2.29h-0.889Z" style="fill:#fff"/><path d="M439.359,218.859l-2.666-3.9-1.135,1.107v2.789h-0.9V208.564h0.9v6.4h0.082l3.46-3.464h1.135l-2.912,2.851,3.117,4.512h-1.08v0Z" style="fill:#fff"/><path d="M442.7,216.781c0-1.292.923-2.064,2.55-2.14l2.133-.1v-0.7a1.516,1.516,0,0,0-1.736-1.634,1.658,1.658,0,0,0-1.777,1.107h-0.889a2.46,2.46,0,0,1,2.666-1.887c1.668,0,2.639.875,2.639,2.372v5.059H447.42V217.7h-0.1a2.273,2.273,0,0,1-2.276,1.285A2.15,2.15,0,0,1,442.7,216.781Zm4.683-.465v-1.025l-2.071.089c-1.1.048-1.688,0.54-1.688,1.4a1.429,1.429,0,0,0,1.647,1.415,1.978,1.978,0,0,0,2.106-1.841v-0.038h0.006Z" style="fill:#fff"/><path d="M451.312,219.721h0.9a2.237,2.237,0,0,0,4.163-.909V217.8h-0.123a2.3,2.3,0,0,1-2.222,1.183,2.842,2.842,0,0,1-2.871-3.1v-1.415a2.842,2.842,0,0,1,2.871-3.1,2.269,2.269,0,0,1,2.222,1.21h0.123V211.5h0.9v7.362c0,1.743-1.128,2.762-3.062,2.762C452.576,221.621,451.476,220.9,451.312,219.721Zm2.912-1.538a2.209,2.209,0,0,0,2.167-2.509V214.69a2.193,2.193,0,1,0-4.341,0v0.984A2.213,2.213,0,0,0,454.224,218.183Z" style="fill:#fff"/><path d="M466.175,217.041a2.678,2.678,0,0,1-2.851,1.941c-1.982,0-3.131-1.224-3.131-3.322v-1.073a2.94,2.94,0,0,1,3.028-3.213c1.9,0,2.987,1.258,2.987,3.459v0.581h-5.12v0.253a2.227,2.227,0,0,0,2.235,2.516,1.872,1.872,0,0,0,1.962-1.142h0.89Zm-5.086-2.365H465.3c0-1.565-.779-2.509-2.078-2.509C461.889,212.167,461.089,213.1,461.089,214.676Z" style="fill:#fff"/><path d="M470.735,217.725a1.135,1.135,0,1,1,1.135,1.135,1.135,1.135,0,0,1-1.135-1.135h0Z" style="fill:#fff"/><path d="M482.167,218.941c0,1.463-.841,2.071-2.851,2.071-0.622,0-1.155-.021-1.743-0.075v-0.752c0.424,0.041,1.176.068,1.723,0.068,1.538,0,1.976-.335,1.976-1.518V212.22h-3.493V211.5h4.389v7.441h0Zm-1.395-10.24a0.848,0.848,0,1,1,.848.848h0a0.852,0.852,0,0,1-.848-0.849h0Z" style="fill:#fff"/><path d="M489.36,211.374a2.37,2.37,0,0,1,2.618,1.907H491.1a1.63,1.63,0,0,0-1.764-1.162c-1.025,0-1.682.492-1.682,1.258,0,0.643.4,1,1.408,1.23l1,0.232c1.415,0.335,2.058.957,2.058,2,0,1.3-1.1,2.146-2.775,2.146-1.593,0-2.68-.759-2.816-1.969h0.93a1.777,1.777,0,0,0,1.928,1.2c1.1,0,1.8-.52,1.8-1.326,0-.67-0.39-1.025-1.395-1.265l-1.087-.26c-1.312-.308-1.955-0.95-1.955-1.955C486.749,212.2,487.809,211.374,489.36,211.374Z" style="fill:#fff"/><path d="M494.927,215.728v-1.094a3.12,3.12,0,0,1,6.233-.287v0.014q0.006,0.137,0,.273v1.094a3.12,3.12,0,0,1-6.233.287V216Q494.921,215.865,494.927,215.728Zm0.9-.978v0.861c0,1.593.854,2.57,2.222,2.57s2.222-.978,2.222-2.57V214.75c0-1.593-.854-2.57-2.222-2.57s-2.227.978-2.227,2.571h0.005Z" style="fill:#fff"/><path d="M503.855,211.5h0.854v1.326H504.8a2.452,2.452,0,0,1,2.406-1.449c1.606,0,2.475.95,2.475,2.7v4.785h-0.9V214.3c0-1.442-.581-2.119-1.818-2.119a2.149,2.149,0,0,0-2.215,2.3v4.375h-0.9V211.5h0.007Z" style="fill:#fff"/><path d="M521.359,219.536l4.86-11.218h0.854l-4.86,11.218h-0.854Z" style="fill:#a1f0f2"/><path d="M529.939,216.781c0-1.292.923-2.064,2.55-2.14l2.133-.1v-0.7a1.516,1.516,0,0,0-1.736-1.634,1.658,1.658,0,0,0-1.777,1.107H530.22a2.46,2.46,0,0,1,2.666-1.887c1.668,0,2.639.875,2.639,2.372v5.059h-0.861V217.7h-0.1a2.273,2.273,0,0,1-2.276,1.285A2.15,2.15,0,0,1,529.939,216.781Zm4.683-.465v-1.025l-2.071.089c-1.1.048-1.688,0.54-1.688,1.4a1.429,1.429,0,0,0,1.647,1.415,1.978,1.978,0,0,0,2.11-1.837h0v-0.042h0Z" style="fill:#fff"/><path d="M544.864,214.471v1.415a2.842,2.842,0,0,1-2.871,3.1,2.269,2.269,0,0,1-2.222-1.21h-0.123v3.582h-0.9V211.5H539.6v1.06h0.123a2.417,2.417,0,0,1,2.263-1.183A2.842,2.842,0,0,1,544.864,214.471Zm-5.236.219v0.984a2.193,2.193,0,1,0,4.341,0V214.69a2.193,2.193,0,1,0-4.341,0h0Z" style="fill:#fff"/><path d="M553.589,214.471v1.415a2.842,2.842,0,0,1-2.871,3.1,2.269,2.269,0,0,1-2.222-1.21h-0.123v3.582h-0.9V211.5h0.854v1.06h0.123a2.417,2.417,0,0,1,2.263-1.183A2.842,2.842,0,0,1,553.589,214.471Zm-5.236.219v0.984a2.193,2.193,0,1,0,4.341,0V214.69a2.193,2.193,0,1,0-4.341,0h0Z" style="fill:#fff"/><path d="M556.256,219.536l4.86-11.218h0.854l-4.86,11.218h-0.854Z" style="fill:#a1f0f2"/><path d="M314.8,231.6l-1.613,6.255h-0.923L310.506,228h0.909l0.67,4.2,0.67,4.2h0.062l1.552-6.152h0.93l1.552,6.152h0.062l0.67-4.2,0.67-4.2h0.909l-1.757,9.864H316.48l-1.613-6.255H314.8V231.6Z" style="fill:#fcd04a"/><path d="M323.557,238.064c-2.194,0-3.548-1.6-3.548-4.32V232.11c0-2.721,1.354-4.32,3.548-4.32s3.548,1.6,3.548,4.32v1.634C327.1,236.465,325.751,238.064,323.557,238.064Zm2.611-4.32V232.11c0-2.187-1-3.452-2.611-3.452s-2.611,1.265-2.611,3.452v1.634c0,2.188,1,3.452,2.611,3.452s2.611-1.264,2.611-3.452h0Z" style="fill:#fcd04a"/><path d="M330.21,233.792v4.067h-0.916V228h3.213a2.777,2.777,0,0,1,3.069,2.885,2.7,2.7,0,0,1-1.873,2.7l2.023,4.279h-1.053L332.8,233.8h-2.59v-0.008Zm0-.807h2.167a2.084,2.084,0,1,0,.068-4.156H330.21v4.156Z" style="fill:#fcd04a"/><path d="M338.306,237.859V228h0.937v5.1h0.082l4.19-5.1h1.169l-3.739,4.361,4.143,5.5h-1.21l-3.555-4.785-1.08,1.265v3.521h-0.937v0Z" style="fill:#fcd04a"/><path d="M349.21,228q4.2,0,4.2,4.936t-4.2,4.929h-2.618V228h2.618Zm-1.682,9.017h1.627c2.235,0,3.3-1.312,3.3-4.081s-1.066-4.088-3.3-4.088h-1.627v8.169h0Z" style="fill:#fcd04a"/><path d="M356.007,237.859v-0.807h1.982V228.8h-1.982V228H360.9v0.8h-1.982v8.251H360.9v0.807h-4.893Z" style="fill:#fcd04a"/><path d="M365.107,233.792v4.067h-0.916V228H367.4a2.777,2.777,0,0,1,3.069,2.885,2.7,2.7,0,0,1-1.873,2.7l2.023,4.279h-1.053l-1.873-4.067H365.1Zm0-.807h2.167a2.084,2.084,0,1,0,.068-4.156h-2.235v4.156Z" style="fill:#fcd04a"/><path d="M381.771,238.536l4.86-11.218h0.854l-4.86,11.218h-0.854Z" style="fill:#a1f0f2"/><path d="M390.351,235.781c0-1.292.923-2.064,2.55-2.14l2.133-.1v-0.7a1.516,1.516,0,0,0-1.736-1.634,1.658,1.658,0,0,0-1.777,1.107h-0.889a2.46,2.46,0,0,1,2.666-1.887c1.668,0,2.639.875,2.639,2.372v5.059h-0.861V236.7h-0.1a2.273,2.273,0,0,1-2.276,1.285A2.15,2.15,0,0,1,390.351,235.781Zm4.683-.465v-1.025l-2.071.089c-1.1.048-1.688,0.54-1.688,1.4a1.429,1.429,0,0,0,1.647,1.415,1.978,1.978,0,0,0,2.109-1.838h0v-0.041h0Z" style="fill:#fff"/><path d="M405.275,233.471v1.415a2.842,2.842,0,0,1-2.871,3.1,2.269,2.269,0,0,1-2.222-1.21H400.06v3.582h-0.9V230.5h0.854v1.06h0.123a2.417,2.417,0,0,1,2.263-1.183A2.842,2.842,0,0,1,405.275,233.471Zm-5.236.219v0.984a2.193,2.193,0,1,0,4.341,0V233.69a2.193,2.193,0,1,0-4.341,0h0Z" style="fill:#fff"/><path d="M414,233.471v1.415a2.842,2.842,0,0,1-2.871,3.1,2.269,2.269,0,0,1-2.222-1.21h-0.123v3.582h-0.9V230.5h0.854v1.06h0.123a2.417,2.417,0,0,1,2.263-1.183A2.842,2.842,0,0,1,414,233.471Zm-5.236.219v0.984a2.193,2.193,0,1,0,4.341,0V233.69a2.193,2.193,0,1,0-4.341,0h0Z" style="fill:#fff"/><path d="M312.762,252.792v4.067h-0.916V247h3.213a2.777,2.777,0,0,1,3.069,2.885,2.7,2.7,0,0,1-1.873,2.7l2.023,4.279h-1.053l-1.873-4.067h-2.591v0Zm0-.807h2.167a2.084,2.084,0,1,0,.068-4.156h-2.235v4.156Z" style="fill:#fcd04a"/><path d="M326.032,253.407V247h0.93v6.474c0,2.242-1.278,3.6-3.4,3.6s-3.4-1.354-3.4-3.6V247h0.93v6.412c0,1.757.916,2.8,2.475,2.8S326.032,255.164,326.032,253.407Z" style="fill:#fcd04a"/><path d="M329.062,256.859V247h0.95l4.525,8.189h0.089V247H335.5v9.864h-0.93l-4.546-8.2h-0.089v8.2H329.06Z" style="fill:#fcd04a"/><path d="M346.818,249.5h0.854v1.326h0.089a2.452,2.452,0,0,1,2.406-1.449c1.606,0,2.475.95,2.475,2.7v4.785h-0.9V252.3c0-1.442-.581-2.119-1.818-2.119a2.149,2.149,0,0,0-2.215,2.3v4.375h-0.9V249.5h0.009Z" style="fill:#fff"/><path d="M361.654,252.471v1.415a2.842,2.842,0,0,1-2.871,3.1,2.269,2.269,0,0,1-2.222-1.21h-0.123v3.582h-0.9V249.5H356.4v1.06h0.123a2.417,2.417,0,0,1,2.263-1.183A2.842,2.842,0,0,1,361.654,252.471Zm-5.236.219v0.984a2.193,2.193,0,1,0,4.341,0V252.69a2.193,2.193,0,1,0-4.342,0h0Z" style="fill:#fff"/><path d="M370.665,256.859h-0.841V251.78c0-1.06-.355-1.6-1.046-1.6-0.725,0-1.162.656-1.162,1.75v4.929h-0.841v-5.086c0-1.053-.355-1.593-1.053-1.593-0.738,0-1.189.663-1.189,1.75v4.929h-0.841V249.5h0.813v0.984h0.1a1.434,1.434,0,0,1,1.408-1.107,1.324,1.324,0,0,1,1.36,1.107h0.1a1.587,1.587,0,0,1,1.579-1.107c1.073,0,1.62.745,1.62,2.2v5.284Z" style="fill:#fff"/><path d="M381.825,256.859v-0.725h2.591v-5.913h-2.6V249.5h3.5v6.638h2.522v0.725h-6.009Zm2.092-10.158a0.848,0.848,0,1,1,.848.848h0a0.852,0.852,0,0,1-.848-0.849h0Z" style="fill:#fff"/><path d="M390.439,249.5h0.854v1.326h0.089a2.452,2.452,0,0,1,2.406-1.449c1.606,0,2.475.95,2.475,2.7v4.785h-0.9V252.3c0-1.442-.581-2.119-1.818-2.119a2.149,2.149,0,0,0-2.215,2.3v4.375h-0.9V249.5h0.009Z" style="fill:#fff"/><path d="M402.117,249.374a2.37,2.37,0,0,1,2.618,1.907h-0.882a1.63,1.63,0,0,0-1.764-1.162c-1.025,0-1.682.492-1.682,1.258,0,0.643.4,1,1.408,1.23l1,0.232c1.415,0.335,2.058.957,2.058,2,0,1.3-1.1,2.146-2.775,2.146-1.593,0-2.68-.759-2.816-1.969h0.93a1.777,1.777,0,0,0,1.928,1.2c1.1,0,1.8-.52,1.8-1.326,0-.67-0.39-1.025-1.395-1.265l-1.087-.26c-1.312-.308-1.955-0.95-1.955-1.955C399.506,250.2,400.565,249.374,402.117,249.374Z" style="fill:#fff"/><path d="M410.541,247.583V249.5h3.083v0.759h-3.083v4.45c0,0.909.629,1.4,1.8,1.4a11.846,11.846,0,0,0,1.285-.055v0.766a10.972,10.972,0,0,1-1.333.082c-1.771,0-2.646-.718-2.646-2.167v-4.478h-1.982V249.5h1.982v-1.914h0.9Z" style="fill:#fff"/><path d="M416.523,254.781c0-1.292.923-2.064,2.55-2.14l2.133-.1v-0.7a1.516,1.516,0,0,0-1.736-1.634,1.658,1.658,0,0,0-1.777,1.107H416.8a2.46,2.46,0,0,1,2.666-1.887c1.668,0,2.639.875,2.639,2.372v5.059h-0.861V255.7h-0.1a2.273,2.273,0,0,1-2.276,1.285A2.15,2.15,0,0,1,416.523,254.781Zm4.683-.465v-1.025l-2.071.089c-1.1.048-1.688,0.54-1.688,1.4a1.429,1.429,0,0,0,1.647,1.415,1.978,1.978,0,0,0,2.11-1.837h0v-0.042h0Z" style="fill:#fff"/><path d="M425.446,256.859v-0.725h2.591v-8.846h-2.6v-0.725h3.5v9.57h2.522v0.725h-6.013Z" style="fill:#fff"/><path d="M434.171,256.859v-0.725h2.591v-8.846h-2.6v-0.725h3.5v9.57h2.522v0.725h-6.013Z" style="fill:#fff"/><path d="M317.834,275.859H312.16V266h5.674v0.848H313.1V270.4h4.484v0.834H313.1v3.787h4.737v0.848Z" style="fill:#fcd04a"/><path d="M323.024,270.91L319.845,266h1.08l2.659,4.163h0.034L326.3,266h1l-3.233,4.949,3.179,4.915h-1.073l-2.646-4.143h-0.034l-2.68,4.143h-0.991Z" style="fill:#fcd04a"/><path d="M332.589,266a3.07,3.07,0,1,1,.11,6.139h-2.332v3.726H329.43V266h3.159Zm-2.222,5.3h2a2.239,2.239,0,1,0,0-4.471h-2V271.3Z" style="fill:#fcd04a"/><path d="M341.006,276.064c-2.194,0-3.548-1.6-3.548-4.32V270.11c0-2.721,1.354-4.32,3.548-4.32s3.548,1.6,3.548,4.32v1.634C344.554,274.465,343.2,276.064,341.006,276.064Zm2.611-4.32V270.11c0-2.187-1-3.452-2.611-3.452s-2.611,1.265-2.611,3.452v1.634c0,2.188,1,3.452,2.611,3.452S343.617,273.932,343.617,271.744Z" style="fill:#fcd04a"/><path d="M347.4,273.3a2.2,2.2,0,0,0,2.447,1.914c1.408,0,2.331-.766,2.331-1.935,0-.943-0.622-1.531-2.03-1.894l-0.772-.2c-1.853-.485-2.666-1.326-2.666-2.741,0-1.606,1.237-2.652,3.138-2.652a2.825,2.825,0,0,1,3.108,2.51h0q0.006,0.054.009,0.107h-0.937a1.973,1.973,0,0,0-2.16-1.766h-0.021c-1.367,0-2.181.67-2.181,1.8,0,0.923.588,1.47,1.955,1.825l0.8,0.212c1.921,0.5,2.714,1.319,2.714,2.8,0,1.682-1.306,2.789-3.288,2.789-1.962,0-3.268-1.066-3.384-2.769H347.4Z" style="fill:#fcd04a"/><path d="M361.456,275.859h-5.674V266h5.674v0.848h-4.737V270.4H361.2v0.834h-4.484v3.787h4.737v0.848Z" style="fill:#fcd04a"/><path d="M372.622,273.227a2.528,2.528,0,0,1,1.955-2.522v-0.1a2.213,2.213,0,0,1-1.559-2.222,2.945,2.945,0,0,1,5.852,0,2.2,2.2,0,0,1-1.57,2.217v0.1a2.5,2.5,0,0,1,1.962,2.522c0,1.675-1.374,2.857-3.322,2.857S372.622,274.9,372.622,273.227Zm5.729-.055a2.433,2.433,0,1,0-2.406,2.071,2.154,2.154,0,0,0,2.392-1.886q0.011-.092.014-0.184h0Zm-0.39-4.724a2.027,2.027,0,1,0-2.017,1.818,1.813,1.813,0,0,0,2.017-1.817h0Z" style="fill:#fff"/><path d="M387.82,270.931c0,3.336-1.128,5.161-3.186,5.161s-3.186-1.825-3.186-5.161,1.128-5.161,3.186-5.161S387.82,267.6,387.82,270.931Zm-1.183-2.352c-0.335-1.312-1-1.989-2-1.989-1.477,0-2.249,1.49-2.249,4.341a11.922,11.922,0,0,0,.082,1.463Zm-4,4.73c0.335,1.292,1,1.962,2,1.962,1.477,0,2.249-1.49,2.249-4.341a12.187,12.187,0,0,0-.082-1.483Z" style="fill:#fff"/><path d="M403.368,273.679h-4.525v-0.718L402.322,266h0.957l-3.452,6.815v0.068h3.541v-2.967h0.854v2.933h1.565v0.834h-1.579v2.181h-0.841v-2.185h0Z" style="fill:#fff"/><path d="M412.093,273.679h-4.525v-0.718L411.047,266H412l-3.452,6.815v0.068h3.541v-2.967h0.854v2.933h1.565v0.834h-1.579v2.181h-0.841v-2.181Z" style="fill:#fff"/><path d="M418.321,270.363h1.046a1.884,1.884,0,0,0,1.974-1.789q0-.069,0-0.139a1.789,1.789,0,0,0-1.948-1.825,1.917,1.917,0,0,0-2.034,1.792v0.054h-0.937a2.793,2.793,0,0,1,2.908-2.673l0.113,0.007a2.636,2.636,0,0,1,2.881,2.366h0q0.008,0.081.011,0.163a2.206,2.206,0,0,1-1.654,2.317v0.1a2.325,2.325,0,0,1,2.078,2.488,3.306,3.306,0,0,1-6.528.109h0.9a2.177,2.177,0,0,0,2.358,1.907c1.436,0,2.324-.766,2.324-2a2.091,2.091,0,0,0-2.379-2.078h-1.107v-0.807Z" style="fill:#fff"/><rect x="219.054" y="170.565" width="24" height="24" rx="3" ry="3" style="fill:#fafafa;stroke:#e6e6e6;stroke-miterlimit:10"/><line x1="231.054" y1="176.565" x2="231.054" y2="188.565" style="fill:none;stroke:#888;stroke-linecap:round;stroke-miterlimit:10"/><line x1="237.054" y1="182.565" x2="225.054" y2="182.565" style="fill:none;stroke:#888;stroke-linecap:round;stroke-miterlimit:10"/><path d="M52.506,223.688v-4.55a0.507,0.507,0,0,1,.122-0.393,0.57,0.57,0,0,1,.428-0.157h6a0.518,0.518,0,0,1,.55.448v0.131a1.292,1.292,0,0,0,1.449,1.421h6a0.52,0.52,0,0,1,.55.571v2.528h-15.1Z" style="fill:#ddd"/><path d="M59.059,218.138v0.9c0.03,0,.062.011,0.08,0.011a0.012,0.012,0,0,0,.014-0.009v0.16a1.727,1.727,0,0,0,1.9,1.841h6a0.2,0.2,0,0,1,.072.01,0.212,0.212,0,0,1,.028.09v2.1h-14.2v-4.182a0.216,0.216,0,0,1,.1-0.018h6v-0.9m0,0h-6a0.933,0.933,0,0,0-1,1v5h16v-3a0.967,0.967,0,0,0-.933-1H61.053a0.857,0.857,0,0,1-1-1v-0.1a0.956,0.956,0,0,0-.994-0.9H59.053Z" style="fill:#b3b3b3"/><path d="M54.056,231.688c-1.25,0-1.554-.309-1.549-1.548v-7a0.792,0.792,0,0,1,.048-0.471,0.814,0.814,0,0,1,.5-0.079h14c0.45,0.021.53,0.1,0.55,0.569v6.98c0,1.231-.318,1.55-1.525,1.55H54.056Z" style="fill:#f2f2f2"/><path d="M67.031,223.038a0.776,0.776,0,0,1,.114.01c0,0.024.007,0.054,0.009,0.09v7c0,0.99-.114,1.1-1.1,1.1h-12c-0.993,0-1.107-.117-1.1-1.1v-7.1H67.031m0.022-.9h-14c-0.844,0-1.031.25-1,1v7c-0.006,1.487.513,1.994,2,2H66.077c1.468,0,1.97-.521,1.976-2v-7a0.88,0.88,0,0,0-1-1h0Z" style="fill:#b3b3b3"/><path d="M69.815,225.945a1.764,1.764,0,0,0-1.738-1.789H61.893a1.929,1.929,0,0,0-1.832,1.832v7.206c0,0.867,1.192,1.344,2.059,1.344h6.491c0.867,0,1.221-.965,1.221-1.832Z" style="fill:#fff"/><path d="M62.745,233.182a1.2,1.2,0,0,1-1.218-.633l-0.006-1.956c0.62,0.023,1.717.024,3.7,0.024H65.3c1.777,0,2.738,0,3.271-.009,0,0.319.006,0.8,0.015,1.536a0.936,0.936,0,0,1-.533,1.038H62.745Z" style="fill:#e6e6e6"/><path d="M68.109,231.077c0,0.283.007,0.631,0.012,1.061a1.226,1.226,0,0,1-.121.577H62.745a1.33,1.33,0,0,1-.752-0.231v-1.406H65.3c1.32,0,2.206,0,2.81-.006m0.936-.939h0Zm-7.992,0h0Zm0,0,0.008,2.411c0,0.709.975,1.1,1.684,1.1h5.309a1.291,1.291,0,0,0,1-1.51s-0.024-1.976-.008-2c-0.013.009-1.841,0.013-3.746,0.013-2.076,0-4.241,0-4.246-.013h0Z" style="fill:gray"/><path d="M61.52,230.668l0.007-4.013a1.119,1.119,0,0,1,1.027-1.033h5.063a0.984,0.984,0,0,1,.97,1v4.046c-1.042,0-3.617.012-5.467,0.012Z" style="fill:#b3b3b3"/><path d="M62.555,226.089h5.059a0.525,0.525,0,0,1,.507.531v3.58c-1.217,0-3.386.011-5,.011H61.988l0.006-3.546a0.664,0.664,0,0,1,.561-0.569m0-.932a1.578,1.578,0,0,0-1.494,1.5s-0.008,4.454-.008,4.469,0.886,0.014,2.067.014c2.363,0,5.912-.014,5.933-0.014h0v-4.5a1.455,1.455,0,0,0-1.436-1.463H62.555v-0.006Zm-1.5,5.968h0Z" style="fill:gray"/><polygon points="64.052 232.43 63.565 232.92 63.571 231.647 64.557 231.641 64.555 232.933 64.052 232.43" style="fill:#ef9ca4"/><polygon points="65.057 231.138 63.074 231.15 63.059 234.138 64.053 233.138 65.053 234.138 65.057 231.138 65.057 231.138" style="fill:#f25058"/><path d="M56.628,262.137a2.242,2.242,0,0,1-2.235-2.249h0V249.317a2.271,2.271,0,0,1,2.29-2.232h5.073l5.736,5.736v7.131a2.271,2.271,0,0,1-2.29,2.232Z" style="fill:#fff"/><path d="M56.683,247.535H61.57l5.473,5.473v6.941a1.844,1.844,0,0,1-1.846,1.786l-8.568-.048a1.8,1.8,0,0,1-1.786-1.8V249.321a1.843,1.843,0,0,1,1.841-1.786m0-.9a2.734,2.734,0,0,0-2.741,2.683v10.566a2.693,2.693,0,0,0,2.683,2.7l8.566,0.048H65.2a2.734,2.734,0,0,0,2.741-2.683v-7.317l-6-6H56.683v0Z" style="fill:#b3b3b3"/><polygon points="62.393 252.184 62.393 247.721 66.856 252.184 62.393 252.184" style="fill:#f2f2f2"/><path d="M62.843,248.808l2.927,2.927H62.843v-2.927m-0.9-2.173v6h6l-6-6h0Z" style="fill:#b3b3b3"/><rect x="51.943" y="276.767" width="18" height="18" style="fill:none"/><path d="M56.163,294.264a2.8,2.8,0,0,1-1.9-.77,2.48,2.48,0,0,1-.805-1.814V279.808a2.748,2.748,0,0,1,2.766-2.563h5.721l6.477,6.477v8.034a2.606,2.606,0,0,1-2.627,2.563Z" style="fill:#fff"/><path d="M56.226,277.694h5.536l6.213,6.213v7.844a2.185,2.185,0,0,1-2.185,2.117l-9.625-.054a2.254,2.254,0,0,1-2.253-2.137V279.811a2.287,2.287,0,0,1,2.315-2.117m0-.9a3.194,3.194,0,0,0-3.215,3.014v11.87a3.144,3.144,0,0,0,3.15,3.037l9.623,0.054H65.8a3.072,3.072,0,0,0,3.079-3.014v-8.22l-6.74-6.74H56.227Z" style="fill:#b3b3b3"/><polygon points="62.517 283.084 62.517 277.865 67.841 283.084 62.517 283.084" style="fill:#f2f2f2"/><path d="M62.966,278.936l3.773,3.7H62.966v-3.7m-0.9-2.142v6.74h6.877l-6.877-6.74h0Z" style="fill:#b3b3b3"/><path d="M66.023,287.4a1.633,1.633,0,0,0-1.239-.115,1.7,1.7,0,0,0-.67-1.08L63.98,286.1l-0.112.13a1.458,1.458,0,0,0-.262,1.028,1.339,1.339,0,0,0,.25.69,1.9,1.9,0,0,1-.361.163,2.341,2.341,0,0,1-.742.124H55.746l-0.015.161a3.1,3.1,0,0,0,.247,1.571l0.1,0.2,0.011,0.018a3.386,3.386,0,0,0,3.077,1.59,5.408,5.408,0,0,0,5.379-3.394,1.544,1.544,0,0,0,1.553-.741l0.077-.151Z" style="fill:#158cb6"/><polygon points="62.213 287.138 61.145 287.138 61.145 285.002 59.863 285.002 59.863 286.07 57.727 286.07 57.727 287.138 56.659 287.138 56.659 288.23 62.213 288.23 62.213 287.138" style="fill:#00acd3"/><path d="M82.782,221.153H117.5a4.481,4.481,0,0,1,4.5,4.462h0v0.037a4.481,4.481,0,0,1-4.462,4.5H82.782a4.481,4.481,0,0,1-4.5-4.462h0v-0.037h0a4.481,4.481,0,0,1,4.462-4.5h0.038Z" style="fill:#eee"/><path d="M82.782,251.21H138a4.481,4.481,0,0,1,4.5,4.462h0v0.037a4.481,4.481,0,0,1-4.462,4.5H82.782a4.481,4.481,0,0,1-4.5-4.462h0V255.71h0a4.481,4.481,0,0,1,4.462-4.5h0.038Z" style="fill:#eee"/><path d="M82.782,281.267H129.5a4.481,4.481,0,0,1,4.5,4.462h0v0.037a4.481,4.481,0,0,1-4.462,4.5H82.782a4.481,4.481,0,0,1-4.5-4.462h0v-0.037h0a4.481,4.481,0,0,1,4.462-4.5h0.038Z" style="fill:#eee"/><line x1="722.939" y1="17.333" x2="733.606" y2="28" style="fill:none;stroke:#e0e0e0;stroke-linecap:round;stroke-miterlimit:10;stroke-width:2px"/><line x1="733.606" y1="17.333" x2="722.939" y2="28" style="fill:none;stroke:#e0e0e0;stroke-linecap:round;stroke-miterlimit:10;stroke-width:2px"/><line x1="1" y1="128" x2="749" y2="128" style="fill:none;stroke:#e6e6e5;stroke-miterlimit:10"/><circle cx="297.901" cy="22.667" r="4.5" style="fill:#75c37f"/><path d="M318.1,18.167h134a4.481,4.481,0,0,1,4.5,4.462h0v0.037h0a4.481,4.481,0,0,1-4.462,4.5H318.1a4.481,4.481,0,0,1-4.5-4.462h0V22.667h0a4.481,4.481,0,0,1,4.462-4.5H318.1Z" style="fill:#eee"/><path d="M377.787,70.168a2.241,2.241,0,0,1-2.234-2.248h0L375.6,55.351a2.247,2.247,0,0,1,2.242-2.234l12.575,0.048a2.241,2.241,0,0,1,2.234,2.248h0L392.6,67.982a2.247,2.247,0,0,1-2.243,2.234Z" style="fill:#b3b3b3"/><path d="M377.843,52.667l0.007,0.9,12.566,0.048a1.793,1.793,0,0,1,1.786,1.8h0l-0.048,12.566a1.8,1.8,0,0,1-1.8,1.786l-12.566-.048a1.8,1.8,0,0,1-1.786-1.8l0.048-12.566a1.8,1.8,0,0,1,1.793-1.786v-0.9m0,0a2.693,2.693,0,0,0-2.693,2.683L375.1,67.916a2.693,2.693,0,0,0,2.683,2.7l12.566,0.048h0.01a2.693,2.693,0,0,0,2.693-2.683L393.1,55.418a2.693,2.693,0,0,0-2.683-2.7l-12.566-.048h-0.01Z" style="fill:gray"/><rect x="378.103" y="65.667" width="2" height="2" style="fill:#3ccb5a"/><polygon points="381.553 66.217 381.553 64.217 380.553 64.217 380.553 63.217 378.553 63.217 378.553 56.117 389.652 56.117 389.652 63.217 387.652 63.217 387.652 64.217 386.652 64.217 386.652 66.217 381.553 66.217" style="fill:gray"/><path d="M389.2,56.567v6.2h-2v1h-1v2H382v-2h-1v-1h-2v-6.2h10.2m0.9-.9h-12v8h2v1h1v2h6v-2h1v-1h2v-8h0Z" style="fill:#666"/><rect x="379.103" y="56.667" width="10" height="1" style="fill:#db970d"/><path d="M365.706,90.1h-5.319V81.438h5.319v1.124h-4.018v2.59h3.789V86.23h-3.789v2.749h4.018V90.1Z" style="fill:#afafb0"/><path d="M369.662,87.659h-0.019L368.062,90.1H366.64l2.241-3.352-2.209-3.339h1.517l1.536,2.45h0.013l1.536-2.45h1.447l-2.234,3.339,2.26,3.352h-1.485Z" style="fill:#afafb0"/><path d="M375.4,89.188h-0.044V92.4h-1.282V83.412h1.244v0.971h0.045a2.2,2.2,0,0,1,1.961-1.073c1.5,0,2.59,1.149,2.59,3.142v0.6c0,1.974-1.072,3.148-2.628,3.148A2.129,2.129,0,0,1,375.4,89.188Zm3.219-2.215V86.5c0-1.339-.6-2.12-1.6-2.12-1.035,0-1.676.838-1.676,2.114v0.482c0,1.314.647,2.152,1.7,2.152,0.942,0,1.577-.752,1.577-2.155h0Z" style="fill:#afafb0"/><path d="M387.166,86.459v0.565c0,1.86-1.022,3.193-2.927,3.193s-2.945-1.333-2.945-3.193V86.465A2.944,2.944,0,1,1,387.166,86.459Zm-4.583.032V87c0,1.263.564,2.146,1.65,2.146s1.645-.876,1.645-2.146V86.491c0-1.282-.559-2.139-1.645-2.139s-1.65.863-1.65,2.139h0Z" style="fill:#afafb0"/><path d="M391.1,83.3c1.58,0,2.438.863,2.438,2.019H392.37a1.126,1.126,0,0,0-1.2-1.048h0a0.464,0.464,0,0,0-.109.013,1.063,1.063,0,0,0-1.27.939c0,0.724.914,0.863,1.676,1,1.251,0.222,2.253.59,2.253,1.873,0,1.346-1.072,2.12-2.717,2.12-1.555,0-2.57-.743-2.57-1.942h1.25a1.235,1.235,0,0,0,1.41.952c0.945,0,1.377-.444,1.377-0.971,0-.717-0.768-0.851-1.676-1.028-1.231-.254-2.24-0.66-2.24-1.879C388.558,83.913,389.776,83.3,391.1,83.3Z" style="fill:#afafb0"/><path d="M394.989,87.062v-0.7a2.754,2.754,0,0,1,2.83-3.06c1.771,0,2.818,1.257,2.818,3.123V87.06h-4.373V87.2a1.718,1.718,0,0,0,1.631,1.987,1.377,1.377,0,0,0,1.422-.965h1.238a2.511,2.511,0,0,1-2.686,2C396.1,90.217,394.989,89.011,394.989,87.062Zm4.386-.946V86.1a1.569,1.569,0,1,0-3.11,0v0.019h3.11v0Z" style="fill:#afafb0"/><path d="M406.55,84.351h0.044v-3.37h1.282V90.1h-1.244V89.087h-0.038a2.115,2.115,0,0,1-1.962,1.111c-1.707,0-2.634-1.257-2.634-3.148v-0.6c0-1.854.978-3.148,2.634-3.148A2.124,2.124,0,0,1,406.55,84.351ZM403.3,86.5v0.514c0,1.409.679,2.107,1.625,2.107,1.041,0,1.682-.749,1.682-2.1V86.5c0-1.289-.647-2.114-1.7-2.114C403.979,84.383,403.3,85.081,403.3,86.5Z" style="fill:#afafb0"/><path d="M373.011,95.438a2.756,2.756,0,0,1,.141,5.51h-2.1V104.1h-1.3V95.438h3.255Zm-1.955,4.412h1.219c1.39,0,2.209-.311,2.209-1.65a1.5,1.5,0,0,0-1.639-1.65h-1.789v3.3Z" style="fill:#afafb0"/><path d="M382.736,100.459v0.565c0,1.86-1.022,3.193-2.927,3.193s-2.945-1.333-2.945-3.193v-0.559A2.944,2.944,0,1,1,382.736,100.459Zm-4.583.032V101c0,1.263.564,2.146,1.65,2.146s1.645-.876,1.645-2.146v-0.514c0-1.282-.559-2.139-1.645-2.139s-1.65.868-1.65,2.144h0Z" style="fill:#afafb0"/><path d="M384.389,97.412h1.282v0.851h0.045a1.69,1.69,0,0,1,1.618-.952,3.189,3.189,0,0,1,.45.032v1.149a3.4,3.4,0,0,0-.57-0.038,1.4,1.4,0,0,0-1.53,1.612V104.1h-1.3V97.412h0Z" style="fill:#afafb0"/><path d="M389.862,95.762h1.263v1.65h1.313v1.041h-1.313v3.707c0,0.762.272,0.965,1.054,0.965,0.114,0,.216-0.006.3-0.013v1a4.2,4.2,0,0,1-.622.044c-1.612,0-2.013-.6-2.013-1.93V98.453H388.93V97.412h0.928v-1.65h0Z" style="fill:#afafb0"/><path d="M396.287,97.3c1.581,0,2.438.863,2.438,2.019h-1.168a1.126,1.126,0,0,0-1.2-1.048h0a0.464,0.464,0,0,0-.109.013,1.064,1.064,0,0,0-1.27.939c0,0.724.914,0.863,1.676,1,1.25,0.222,2.254.59,2.254,1.873,0,1.346-1.073,2.12-2.717,2.12-1.556,0-2.571-.743-2.571-1.942h1.251a1.232,1.232,0,0,0,1.408.952c0.946,0,1.378-.444,1.378-0.971,0-.717-0.769-0.851-1.676-1.028-1.231-.254-2.241-0.66-2.241-1.879C393.741,97.913,394.96,97.3,396.287,97.3Z" style="fill:#afafb0"/><path d="M285.131,70.447a8.418,8.418,0,1,1,.033,0h-0.033Z" style="fill:#b3b3b3"/><path d="M285.163,52.945l0.032,0.9a8.075,8.075,0,1,1-.032,0v-0.9m0,0a8.976,8.976,0,0,0-8.975,8.942h0a8.976,8.976,0,0,0,8.942,9.01h0.035a8.976,8.976,0,0,0,8.975-8.942h0a8.976,8.976,0,0,0-8.942-9.01h-0.035Z" style="fill:gray"/><circle cx="285.163" cy="59.922" r="3" style="fill:#414042"/><path d="M285.163,59.922h0a1,1,0,0,1,1,1l0.763,4.577a1.222,1.222,0,0,1-1.2,1.423h-1.115A1.222,1.222,0,0,1,283.4,65.5l0.763-4.577a1,1,0,0,1,1-1h0Z" style="fill:#414042"/><path d="M262.765,93.115a1.776,1.776,0,0,0,2.025,1.454c1.155,0,1.866-.552,1.866-1.422,0-.686-0.444-1.06-1.39-1.295l-1.461-.368a2.371,2.371,0,0,1-2.082-2.311c0-1.644,1.447-2.539,3.079-2.539,1.6,0,3.034.857,3.065,2.5H266.6a1.6,1.6,0,0,0-1.773-1.406h0l-0.048.006c-1.029,0-1.746.489-1.746,1.346a1.288,1.288,0,0,0,1.213,1.206l1.447,0.368c1.313,0.33,2.278.946,2.278,2.387,0,1.7-1.4,2.634-3.3,2.634-2.361,0-3.167-1.4-3.2-2.558h1.288Z" style="fill:#afafb0"/><path d="M269.255,92.455v-0.7a2.754,2.754,0,0,1,2.83-3.06c1.771,0,2.818,1.257,2.818,3.123v0.635H270.53v0.14a1.718,1.718,0,0,0,1.631,1.987,1.377,1.377,0,0,0,1.422-.965h1.238a2.511,2.511,0,0,1-2.686,2C270.366,95.61,269.255,94.4,269.255,92.455Zm4.386-.946V91.49a1.569,1.569,0,1,0-3.11,0v0.019h3.11Z" style="fill:#afafb0"/><path d="M276.257,91.808a2.808,2.808,0,0,1,2.844-3.117,2.415,2.415,0,0,1,2.622,2.152h-1.231a1.355,1.355,0,0,0-1.314-1.066c-1.027,0-1.631.781-1.631,2.063v0.6c0,1.27.635,2.082,1.638,2.082a1.257,1.257,0,0,0,1.353-.971h1.225a2.4,2.4,0,0,1-2.66,2.063c-1.8,0-2.844-1.339-2.844-3.18V91.808h0Z" style="fill:#afafb0"/><path d="M288.77,95.5h-1.263V94.588h-0.051A1.964,1.964,0,0,1,285.52,95.6a2.155,2.155,0,0,1-2.343-2.342V88.805h1.283v4.1a1.364,1.364,0,0,0,1.5,1.568,1.452,1.452,0,0,0,1.529-1.587V88.805h1.282V95.5h0Z" style="fill:#afafb0"/><path d="M290.689,88.805h1.282v0.851h0.044a1.692,1.692,0,0,1,1.619-.952,3.214,3.214,0,0,1,.451.032v1.149a3.414,3.414,0,0,0-.572-0.038,1.4,1.4,0,0,0-1.529,1.612V95.5h-1.3V88.805h0Z" style="fill:#afafb0"/><path d="M296.226,86.418a0.759,0.759,0,1,1-.018,0h0.018Zm-0.642,2.387h1.282V95.5h-1.282V88.805Z" style="fill:#afafb0"/><path d="M299.273,87.155h1.264v1.65h1.314v1.041h-1.314v3.707c0,0.762.273,0.965,1.054,0.965,0.114,0,.216-0.006.3-0.013v1a4.219,4.219,0,0,1-.622.044c-1.612,0-2.012-.6-2.012-1.93V89.846h-0.914V88.805h0.926v-1.65h0Z" style="fill:#afafb0"/><path d="M306.816,95.457l-0.172.463c-0.4,1.06-.92,2-2.418,2a5.6,5.6,0,0,1-.756-0.057v-1a3.807,3.807,0,0,0,.508.032,1.154,1.154,0,0,0,1.282-1.01h0V95.879l0.088-.317L302.93,88.8h1.422l1.682,5.383h0.045l1.7-5.383h1.364S306.822,95.432,306.816,95.457Z" style="fill:#afafb0"/><path d="M478.72,70.093a2.243,2.243,0,0,1-2.235-2.251h0l0.048-12.566a2.248,2.248,0,0,1,2.243-2.236l12.575,0.048a2.243,2.243,0,0,1,2.235,2.251h0L493.538,67.9a2.248,2.248,0,0,1-2.243,2.236Z" style="fill:#414042"/><path d="M478.776,52.59l0.007,0.9,12.566,0.048a1.8,1.8,0,0,1,1.788,1.8L493.09,67.9a1.8,1.8,0,0,1-1.8,1.788l-12.566-.048a1.8,1.8,0,0,1-1.788-1.8l0.048-12.566a1.8,1.8,0,0,1,1.8-1.788v-0.9m0,0a2.693,2.693,0,0,0-2.693,2.683l-0.048,12.566a2.693,2.693,0,0,0,2.683,2.7l12.566,0.048h0.01A2.693,2.693,0,0,0,494,67.9l0.048-12.566a2.693,2.693,0,0,0-2.683-2.7L478.8,52.586h-0.015Z" style="fill:#a7a9ac"/><path d="M481.67,59.572c0.863-1.224,1.725-1.982,2.345-1.982,0.534,0,.776.6,1.155,1.742l0.293,0.862c1.345-1.949,2.035-2.6,2.793-2.6a0.777,0.777,0,0,1,.793.862,0.964,0.964,0,0,1-.81.914,0.444,0.444,0,0,1-.31-0.173,0.483,0.483,0,0,0-.4-0.207,1.417,1.417,0,0,0-.828.586,11.766,11.766,0,0,0-1.018,1.276l0.638,2.034c0.241,0.845.483,1.259,0.707,1.259a2.408,2.408,0,0,0,1.207-1l0.327,0.4c-0.931,1.482-1.845,2.052-2.465,2.052-0.534,0-.914-0.483-1.259-1.638L484.394,62.5c-1.4,2.259-2.086,3.086-2.965,3.086a0.863,0.863,0,0,1-.866-0.86h0V64.655a0.931,0.931,0,0,1,.793-0.948,0.411,0.411,0,0,1,.31.173,0.512,0.512,0,0,0,.414.173c0.413,0,1.155-.828,2.086-2.259l-0.5-1.638c-0.293-.948-0.449-1.1-0.6-1.1a1.953,1.953,0,0,0-1.035.931Z" style="fill:#fff"/><path d="M454.577,90.1h-5.319V81.437h5.319v1.124H450.56v2.59h3.789V86.23H450.56v2.749h4.018V90.1h0Z" style="fill:#afafb0"/><path d="M456.273,83.412h1.263v0.914h0.045A2.129,2.129,0,0,1,459.53,83.3a2.261,2.261,0,0,1,2.367,2.5v4.3h-1.275V86.046a1.439,1.439,0,0,0-1.53-1.612,1.485,1.485,0,0,0-1.542,1.644V90.1h-1.276V83.412h0Z" style="fill:#afafb0"/><path d="M462.788,83.412h1.357l1.625,5.262h0.045l1.752-5.262h1.3L466.5,90.1h-1.41Z" style="fill:#afafb0"/><path d="M470.591,81.025a0.759,0.759,0,1,1-.018,0h0.018Zm-0.642,2.387h1.282V90.1h-1.282V83.412Z" style="fill:#afafb0"/><path d="M473.214,83.412H474.5v0.851h0.044a1.692,1.692,0,0,1,1.619-.952,3.214,3.214,0,0,1,.451.032v1.149a3.414,3.414,0,0,0-.572-0.038,1.4,1.4,0,0,0-1.529,1.612V90.1h-1.3V83.412Z" style="fill:#afafb0"/><path d="M483.435,86.458v0.565c0,1.86-1.021,3.193-2.926,3.193s-2.945-1.333-2.945-3.193V86.465A2.944,2.944,0,1,1,483.435,86.458Zm-4.583.032V87c0,1.263.565,2.146,1.65,2.146s1.644-.876,1.644-2.146V86.49c0-1.282-.559-2.139-1.644-2.139S478.852,85.214,478.852,86.49Z" style="fill:#afafb0"/><path d="M485.087,83.412h1.264v0.914H486.4a2.13,2.13,0,0,1,1.948-1.022,2.261,2.261,0,0,1,2.368,2.5v4.3H489.44V86.046a1.438,1.438,0,0,0-1.529-1.612,1.486,1.486,0,0,0-1.543,1.644V90.1h-1.275V83.412h-0.006Z" style="fill:#afafb0"/><path d="M492.534,83.412H493.8v0.863h0.063a2.107,2.107,0,0,1,3.625.127h0.057a2.107,2.107,0,0,1,2.045-1.1,2.065,2.065,0,0,1,2.228,2.241V90.1h-1.276V85.843a1.28,1.28,0,0,0-1.352-1.422,1.346,1.346,0,0,0-1.384,1.511V90.1h-1.257V85.93a1.308,1.308,0,0,0-1.365-1.511,1.347,1.347,0,0,0-1.371,1.5V90.1h-1.275V83.41Z" style="fill:#afafb0"/><path d="M503.429,87.061v-0.7a2.754,2.754,0,0,1,2.83-3.06c1.771,0,2.818,1.257,2.818,3.123v0.635H504.7V87.2a1.718,1.718,0,0,0,1.631,1.987,1.377,1.377,0,0,0,1.422-.965H509a2.511,2.511,0,0,1-2.686,2C504.539,90.216,503.429,89.01,503.429,87.061Zm4.386-.946V86.1a1.569,1.569,0,1,0-3.11,0v0.019h3.11v0Z" style="fill:#afafb0"/><path d="M510.7,83.412h1.264v0.914h0.044A2.13,2.13,0,0,1,513.96,83.3a2.261,2.261,0,0,1,2.368,2.5v4.3h-1.276V86.046a1.438,1.438,0,0,0-1.529-1.612,1.486,1.486,0,0,0-1.543,1.644V90.1H510.7V83.412Z" style="fill:#afafb0"/><path d="M518.6,81.761h1.263v1.65h1.313v1.041h-1.313V88.16c0,0.762.272,0.965,1.054,0.965,0.114,0,.216-0.006.3-0.013v1a4.2,4.2,0,0,1-.622.044c-1.612,0-2.013-.6-2.013-1.93V84.453h-0.914V83.412H518.6v-1.65h0Z" style="fill:#afafb0"/><path d="M461.488,104.1l-3.047-8.665h1.5l2.267,7.071h0.051l2.246-7.071h1.467l-3.041,8.665h-1.443Z" style="fill:#afafb0"/><path d="M468.326,104.21a1.992,1.992,0,0,1-2.184-2.031c0-1.181.819-1.93,2.354-1.936h1.721V99.589a1.328,1.328,0,0,0-2.621-.222H466.39c0.064-1.149.838-2.063,2.559-2.063,1.46,0,2.545.755,2.545,2.215V104.1h-1.225v-0.825h-0.045A2.056,2.056,0,0,1,468.326,104.21Zm1.892-2.323v-0.755h-1.543a1.019,1.019,0,0,0-1.237.984,1.124,1.124,0,0,0,1.155,1.092,0.715,0.715,0,0,0,.107-0.008,1.381,1.381,0,0,0,1.512-1.236Q470.216,101.926,470.218,101.887Z" style="fill:#afafb0"/><path d="M473.349,97.412h1.282v0.851h0.044a1.692,1.692,0,0,1,1.619-.952,3.214,3.214,0,0,1,.451.032v1.149a3.414,3.414,0,0,0-.572-0.038,1.4,1.4,0,0,0-1.529,1.612V104.1h-1.3V97.412h0Z" style="fill:#afafb0"/><path d="M478.886,95.025a0.759,0.759,0,1,1-.018,0h0.018Zm-0.642,2.387h1.282v6.69h-1.282v-6.69Z" style="fill:#afafb0"/><path d="M483.324,104.21a1.992,1.992,0,0,1-2.184-2.031c0-1.181.819-1.93,2.354-1.936h1.721V99.589a1.328,1.328,0,0,0-2.621-.222h-1.207c0.064-1.149.838-2.063,2.559-2.063,1.46,0,2.545.755,2.545,2.215V104.1h-1.225v-0.825h-0.045A2.056,2.056,0,0,1,483.324,104.21Zm1.892-2.323v-0.755h-1.543a1.019,1.019,0,0,0-1.237.984,1.123,1.123,0,0,0,1.152,1.093h0a0.687,0.687,0,0,0,.111-0.009,1.381,1.381,0,0,0,1.511-1.237h0Q485.214,101.925,485.216,101.887Z" style="fill:#afafb0"/><path d="M489.654,103.086H489.61V104.1h-1.244V94.98h1.281v3.364h0.045a2.234,2.234,0,0,1,1.949-1.035c1.549,0,2.621,1.1,2.621,3.123v0.635c0,1.955-1.041,3.136-2.628,3.136A2.116,2.116,0,0,1,489.654,103.086Zm3.308-2.076V100.5c0-1.371-.654-2.114-1.588-2.114-1.078,0-1.738.736-1.738,2.114V101c0,1.384.653,2.126,1.738,2.126,0.939,0,1.588-.751,1.588-2.115h0Z" style="fill:#afafb0"/><path d="M495.958,94.98h1.276v9.12h-1.276V94.98Z" style="fill:#afafb0"/><path d="M498.925,101.061v-0.7a2.754,2.754,0,0,1,2.83-3.06c1.771,0,2.818,1.257,2.818,3.123v0.635H500.2v0.14a1.718,1.718,0,0,0,1.631,1.987,1.377,1.377,0,0,0,1.422-.965h1.238a2.511,2.511,0,0,1-2.686,2C500.035,104.216,498.925,103.01,498.925,101.061Zm4.386-.946V100.1a1.569,1.569,0,1,0-3.11,0v0.019h3.11v0Z" style="fill:#afafb0"/><path d="M508.485,97.3c1.58,0,2.438.863,2.438,2.019h-1.168a1.126,1.126,0,0,0-1.2-1.048h0a0.464,0.464,0,0,0-.109.013,1.063,1.063,0,0,0-1.27.939c0,0.724.914,0.863,1.676,1,1.251,0.222,2.253.59,2.253,1.873,0,1.346-1.072,2.12-2.717,2.12-1.555,0-2.57-.743-2.57-1.942h1.25a1.235,1.235,0,0,0,1.41.952c0.945,0,1.377-.444,1.377-0.971,0-.717-0.768-0.851-1.676-1.028-1.231-.254-2.24-0.66-2.24-1.879C505.94,97.913,507.159,97.3,508.485,97.3Z" style="fill:#afafb0"/><path d="M161,89.465a2.452,2.452,0,0,1-1.6,2.418l1.759,3.612H159.68l-1.574-3.377h-1.917V95.5h-1.295V86.831h3.237A2.563,2.563,0,0,1,161,89.465Zm-3.085,1.581a1.473,1.473,0,0,0,1.732-1.523,1.506,1.506,0,0,0-1.694-1.593h-1.765v3.117h1.727Z" style="fill:#afafb0"/><path d="M162.4,92.455v-0.7a2.754,2.754,0,0,1,2.83-3.06c1.771,0,2.818,1.257,2.818,3.123v0.635H163.68v0.14a1.718,1.718,0,0,0,1.631,1.987,1.377,1.377,0,0,0,1.422-.965h1.238a2.511,2.511,0,0,1-2.686,2C163.516,95.61,162.4,94.4,162.4,92.455Zm4.386-.946V91.49a1.569,1.569,0,1,0-3.11,0v0.019h3.11Z" style="fill:#afafb0"/><path d="M171.021,94.581h-0.045v3.212h-1.282V88.805h1.244v0.971h0.044a2.206,2.206,0,0,1,1.962-1.073c1.5,0,2.59,1.149,2.59,3.142v0.6c0,1.974-1.073,3.148-2.628,3.148A2.126,2.126,0,0,1,171.021,94.581Zm3.218-2.215V91.89c0-1.339-.6-2.12-1.6-2.12-1.034,0-1.676.838-1.676,2.114v0.482c0,1.314.647,2.152,1.7,2.152,0.937,0,1.575-.749,1.575-2.152h0Z" style="fill:#afafb0"/><path d="M182.783,91.852v0.565c0,1.86-1.022,3.193-2.927,3.193s-2.945-1.333-2.945-3.193V91.858A2.944,2.944,0,1,1,182.783,91.852Zm-4.583.032V92.4c0,1.263.564,2.146,1.65,2.146s1.65-.876,1.65-2.146V91.884c0-1.282-.559-2.139-1.645-2.139s-1.65.863-1.65,2.139h0Z" style="fill:#afafb0"/><path d="M186.721,88.691c1.581,0,2.438.863,2.438,2.019H187.99a1.126,1.126,0,0,0-1.2-1.048h0a0.465,0.465,0,0,0-.109.013,1.064,1.064,0,0,0-1.27.939c0,0.724.914,0.863,1.676,1,1.25,0.222,2.254.59,2.254,1.873,0,1.346-1.073,2.12-2.717,2.12-1.556,0-2.571-.743-2.571-1.942H185.3a1.232,1.232,0,0,0,1.408.952c0.946,0,1.378-.444,1.378-0.971,0-.717-0.769-0.851-1.676-1.028-1.231-.254-2.241-0.66-2.241-1.879C184.175,89.307,185.394,88.691,186.721,88.691Z" style="fill:#afafb0"/><path d="M191.585,86.418a0.759,0.759,0,1,1-.018,0h0.018Zm-0.642,2.387h1.282V95.5h-1.282V88.805Z" style="fill:#afafb0"/><path d="M194.632,87.155H195.9v1.65h1.314v1.041H195.9v3.707c0,0.762.273,0.965,1.054,0.965,0.114,0,.216-0.006.3-0.013v1a4.219,4.219,0,0,1-.622.044c-1.612,0-2.012-.6-2.012-1.93V89.846h-0.914V88.805h0.926v-1.65Z" style="fill:#afafb0"/><path d="M204.371,91.852v0.565c0,1.86-1.022,3.193-2.927,3.193s-2.945-1.333-2.945-3.193V91.858A2.944,2.944,0,1,1,204.371,91.852Zm-4.583.032V92.4c0,1.263.564,2.146,1.65,2.146s1.645-.876,1.645-2.146V91.884c0-1.282-.559-2.139-1.645-2.139S199.788,90.608,199.788,91.884Z" style="fill:#afafb0"/><path d="M206.023,88.805H207.3v0.851h0.045a1.69,1.69,0,0,1,1.618-.952,3.189,3.189,0,0,1,.45.032v1.149a3.4,3.4,0,0,0-.57-0.038,1.4,1.4,0,0,0-1.53,1.612V95.5h-1.295V88.805h0.005Z" style="fill:#afafb0"/><path d="M214.15,95.457l-0.171.463c-0.4,1.06-.921,2-2.419,2a5.553,5.553,0,0,1-.755-0.057v-1a3.8,3.8,0,0,0,.508.032,1.152,1.152,0,0,0,1.28-1.008h0V95.879l0.09-.317-2.419-6.76h1.422l1.683,5.383h0.044l1.694-5.383h1.365S214.157,95.432,214.15,95.457Z" style="fill:#afafb0"/><path d="M180.613,69.037c-1.213,0-2.9-.66-2.9-1.734V65.5c0-1.443,2.229-1.484,2.484-1.484h10.629c0.4,0,.418,0,0.607-0.012,0.128-.007.917-0.042,0.917-0.042l0.079-.033a2.329,2.329,0,0,0,.322-0.167V66.5c0,0.941-.317,2.534-1.5,2.534H180.613v0Z" style="fill:#e6e6e6"/><path d="M192.28,64.435V66.5c0,0.715-.217,2.068-1.039,2.068H180.613c-1.1,0-2.439-.585-2.439-1.268V65.5c0-1.007,1.936-1.018,2.018-1.018h10.629c0.419,0,.437,0,0.632-0.012,0.127-.007.337-0.019,0.825-0.038h0M193.21,62.2a1.531,1.531,0,0,1-.971,1.3c-1.187.047-.759,0.049-1.421,0.049H180.192c-1.419,0-2.951.531-2.951,1.951v1.8c0,1.419,1.952,2.2,3.371,2.2h10.629c1.419,0,1.971-1.581,1.971-3V62.2h0Z" style="fill:gray"/><path d="M177.708,55.5a2.708,2.708,0,0,1,2.523-2.534h10.135a2.346,2.346,0,0,1,1.683.721,2.465,2.465,0,0,1,.7,1.74v7.926a1.15,1.15,0,0,1-.614.678c-0.435.017-.632,0.028-0.754,0.035-0.173.009-.187,0.01-0.556,0.01h-10.58a4.385,4.385,0,0,0-2.534.671V55.5h0Z" style="fill:#b3b3b3"/><path d="M180.232,53.436h10.131a1.96,1.96,0,0,1,1.917,2v7.843a0.661,0.661,0,0,1-.274.3c-0.366.015-.543,0.025-0.655,0.031-0.164.009-.178,0.009-0.529,0.009h-10.63a5.4,5.4,0,0,0-2.018.36V55.506a2.243,2.243,0,0,1,2.058-2.071m0-.932a3.16,3.16,0,0,0-2.99,3V66.49l0.347-.994a3.351,3.351,0,0,1,2.6-.951h10.629c0.662,0,.233,0,1.42-0.049a1.609,1.609,0,0,0,.971-1.076V55.433a2.889,2.889,0,0,0-2.846-2.93H180.232Z" style="fill:gray"/><path d="M183.527,68.6a0.5,0.5,0,0,0-.6,0l-1.181.885L181.769,65h2.971l-0.022,4.486Z" style="fill:#ef9ca4"/><path d="M184.237,65.5l-0.015,2.989-0.4-.3a1,1,0,0,0-1.2,0l-0.376.282,0.015-2.975h1.971m1-1h-3.971l-0.027,5.579a0.2,0.2,0,0,0,.319.16L183.227,69l1.667,1.25a0.2,0.2,0,0,0,.319-0.16l0.027-5.584h0Z" style="fill:#f25058"/><rect x="539.991" y="41.583" width="90" height="72" rx="3" ry="3" style="fill:#fbf9fc;stroke:#8151a1;stroke-miterlimit:10;stroke-width:2px"/><path d="M559.412,86.406c2.793,0,3.834,1.79,3.834,4.323,0,2.5-1,4.342-3.834,4.342h-2.9V86.406h2.9Zm-1.593,7.541H559.3c1.752,0,2.6-1.047,2.6-3.2,0-1.942-.686-3.218-2.6-3.218h-1.479v6.417h0Z" style="fill:#8151a1"/><path d="M570.37,91.427v0.565c0,1.86-1.022,3.193-2.927,3.193s-2.945-1.333-2.945-3.193V91.433A2.944,2.944,0,1,1,570.37,91.427Zm-4.583.032v0.514c0,1.263.564,2.146,1.65,2.146s1.645-.876,1.645-2.146V91.458c0-1.282-.559-2.139-1.645-2.139s-1.65.864-1.65,2.139h0Z" style="fill:#8151a1"/><path d="M571.75,91.382a2.807,2.807,0,0,1,2.844-3.117,2.413,2.413,0,0,1,2.621,2.152h-1.231a1.354,1.354,0,0,0-1.313-1.066c-1.029,0-1.632.781-1.632,2.063v0.6c0,1.27.635,2.082,1.638,2.082a1.255,1.255,0,0,0,1.352-.971h1.226a2.4,2.4,0,0,1-2.659,2.063c-1.8,0-2.844-1.339-2.844-3.18V91.382h0Z" style="fill:#8151a1"/><path d="M580.06,95.07h-1.282V85.949h1.282v5.319h0.058l2.507-2.888h1.542l-2.576,2.9,2.742,3.79h-1.549l-2.152-3.009-0.571.635V95.07h0Z" style="fill:#8151a1"/><path d="M584.879,92.03v-0.7a2.755,2.755,0,0,1,2.832-3.06c1.771,0,2.818,1.257,2.818,3.123v0.635h-4.374v0.14a1.718,1.718,0,0,0,1.632,1.987,1.378,1.378,0,0,0,1.422-.965h1.237a2.51,2.51,0,0,1-2.685,2C585.99,95.184,584.879,93.978,584.879,92.03Zm4.387-.946V91.065a1.569,1.569,0,1,0-3.11,0v0.019h3.11Z" style="fill:#8151a1"/><path d="M592.155,88.38h1.282v0.85h0.045a1.69,1.69,0,0,1,1.618-.952,3.189,3.189,0,0,1,.45.032v1.149a3.4,3.4,0,0,0-.57-0.038,1.4,1.4,0,0,0-1.53,1.612V95.07h-1.295V88.38h0Z" style="fill:#8151a1"/><path d="M597.629,89.421h-0.921V88.38h0.921V87.713c0-1.308.66-1.879,2.094-1.879a3.454,3.454,0,0,1,.565.038v0.99a2.316,2.316,0,0,0-.362-0.025,0.852,0.852,0,0,0-1.034.978V88.38H600.2v1.041h-1.3V95.07h-1.275V89.421h0Z" style="fill:#8151a1"/><path d="M602.492,85.993a0.759,0.759,0,1,1-.018,0h0.018ZM601.85,88.38h1.282v6.69H601.85V88.38Z" style="fill:#8151a1"/><path d="M605.16,85.949h1.275V95.07H605.16V85.949Z" style="fill:#8151a1"/><path d="M608.125,92.03v-0.7a2.755,2.755,0,0,1,2.832-3.06c1.771,0,2.818,1.257,2.818,3.123v0.635H609.4v0.14a1.718,1.718,0,0,0,1.632,1.987,1.378,1.378,0,0,0,1.422-.965h1.237a2.51,2.51,0,0,1-2.685,2C609.236,95.184,608.125,93.978,608.125,92.03Zm4.387-.946V91.065a1.569,1.569,0,1,0-3.11,0v0.019h3.11Z" style="fill:#8151a1"/><rect x="575.959" y="54.098" width="18" height="18" style="fill:none"/><path d="M580.18,71.6a2.8,2.8,0,0,1-1.9-.771,2.477,2.477,0,0,1-.806-1.813V57.139a2.747,2.747,0,0,1,2.765-2.563h5.722l6.477,6.477v8.034a2.606,2.606,0,0,1-2.628,2.563Z" style="fill:#fff"/><path d="M580.242,55.025h5.536l6.213,6.213v7.844a2.185,2.185,0,0,1-2.185,2.117l-9.625-.054a2.254,2.254,0,0,1-2.253-2.137V57.142a2.287,2.287,0,0,1,2.315-2.117m0-.9a3.194,3.194,0,0,0-3.215,3.014v11.87a3.144,3.144,0,0,0,3.15,3.037L589.8,72.1h0.012a3.072,3.072,0,0,0,3.079-3.013v-8.22l-6.74-6.74h-5.908v0Z" style="fill:#b3b3b3"/><polygon points="586.532 60.415 586.532 55.197 591.857 60.415 586.532 60.415" style="fill:#f2f2f2"/><path d="M586.983,56.268l3.773,3.7h-3.773v-3.7m-0.9-2.142v6.74h6.877l-6.877-6.74h0Z" style="fill:#b3b3b3"/><path d="M590.04,64.729a1.633,1.633,0,0,0-1.239-.115,1.7,1.7,0,0,0-.67-1.08L588,63.426l-0.112.13a1.458,1.458,0,0,0-.262,1.028,1.339,1.339,0,0,0,.25.69,1.9,1.9,0,0,1-.361.163,2.342,2.342,0,0,1-.742.124h-7.008l-0.015.161a3.1,3.1,0,0,0,.25,1.571l0.1,0.2,0.011,0.018a3.386,3.386,0,0,0,3.077,1.59,5.408,5.408,0,0,0,5.379-3.394,1.544,1.544,0,0,0,1.553-.741l0.077-.151Z" style="fill:#158cb6"/><polygon points="586.23 64.47 585.161 64.47 585.161 62.333 583.88 62.333 583.88 63.401 581.743 63.401 581.743 64.47 580.675 64.47 580.675 65.562 586.23 65.562 586.23 64.47" style="fill:#00acd3"/><path d="M180.2,68.93a2.5,2.5,0,0,1,0-5h10a2.5,2.5,0,0,0,2.45-2h0.05v4.5a2.5,2.5,0,0,1-2.5,2.5h-10Z" style="fill:#e6e6e6;stroke:gray;stroke-miterlimit:10"/><polyline points="184.7 64.43 184.7 69.68 183.2 68.68 181.7 69.68 181.7 64.43" style="fill:#ef9ca4;stroke:#f25058;stroke-linejoin:round"/><path d="M181.7,63.93v-11h8.5a2.5,2.5,0,0,1,2.5,2.5v8.5h-11Z" style="fill:#bbb;stroke:#888;stroke-miterlimit:10"/><path d="M177.7,65.93V55.43a2.5,2.5,0,0,1,2.5-2.5h1.5v13h-4Z" style="fill:#a1a1a1;stroke:#888;stroke-miterlimit:10"/><path d="M180.2,68.93a2.5,2.5,0,0,1,0-5h10a2.5,2.5,0,0,0,2.45-2h0.05v4.5a2.5,2.5,0,0,1-2.5,2.5h-10Z" style="fill:#e6e6e6;stroke:#888;stroke-miterlimit:10"/><polyline points="184.7 64.43 184.7 69.68 183.2 68.68 181.7 69.68 181.7 64.43" style="fill:#ef9ca4;stroke:#f25058;stroke-linejoin:round"/></svg>