<svg id="Layer_1" data-name="Layer 1" xmlns="http://www.w3.org/2000/svg" xmlns:xlink="http://www.w3.org/1999/xlink" viewBox="0 0 46.602 35.328"><defs><clipPath id="clip-path"><polygon points="12.39 14.558 25.159 7.138 34.34 12.439 21.572 19.859 12.39 14.558" style="fill:none"/></clipPath></defs><title>always-integrating</title><path d="M2.15,10.117L21.562,0.411a3.889,3.889,0,0,1,3.478,0l19.412,9.706a3.889,3.889,0,0,1,2.15,3.478v8.138a3.889,3.889,0,0,1-2.15,3.478L25.04,34.917a3.889,3.889,0,0,1-3.478,0L2.15,25.211A3.889,3.889,0,0,1,0,21.733V13.595A3.889,3.889,0,0,1,2.15,10.117Z" style="fill:#e6e6e6"/><g style="isolation:isolate"><g style="clip-path:url(#clip-path)"><path d="M14.952,15.2a0.79,0.79,0,0,1-.449-0.641,0.75,0.75,0,0,1,.455-0.627,2.335,2.335,0,0,1,2.176,0,0.659,0.659,0,0,1,0,1.257,2.122,2.122,0,0,1-1.08.265,2.327,2.327,0,0,1-1.1-.254m12.811-1.062a0.79,0.79,0,0,1-.449-0.641,0.742,0.742,0,0,1,.455-0.627,2.082,2.082,0,0,1,1.08-.265,2.167,2.167,0,0,1,1.1.265,0.757,0.757,0,0,1,.455.63,0.735,0.735,0,0,1-.455.627,2.1,2.1,0,0,1-1.08.265,2.327,2.327,0,0,1-1.1-.254m-3.67-4.25a0.766,0.766,0,0,1-.468-0.63,0.755,0.755,0,0,1,.461-0.63,2.1,2.1,0,0,1,1.08-.265,2.329,2.329,0,0,1,1.109.258,0.785,0.785,0,0,1,.443.638,0.742,0.742,0,0,1-.455.627,2.336,2.336,0,0,1-2.17,0M27,8.2a3.961,3.961,0,0,0-3.659,0,1.494,1.494,0,0,0-.671.678,0.891,0.891,0,0,0,.023.763L16.7,13.117a4.553,4.553,0,0,0-1.324-.007,3.166,3.166,0,0,0-1.169.391,1.273,1.273,0,0,0-.764,1.058,1.3,1.3,0,0,0,.782,1.062,3.963,3.963,0,0,0,3.653,0,1.3,1.3,0,0,0,.758-1c0.1,0.011.255,0.022,0.484,0.029s0.388,0.026.484,0.037a3.445,3.445,0,0,1,1.021.405,7.724,7.724,0,0,0,3.67.8,8.724,8.724,0,0,0,2.118-.269,7.829,7.829,0,0,0,1.778-.671l-0.013-.007a4.689,4.689,0,0,0,1.343.011,3.194,3.194,0,0,0,1.169-.391,1.278,1.278,0,0,0,.77-1.062,1.309,1.309,0,0,0-.776-1.058,3.727,3.727,0,0,0-1.835-.45,3.642,3.642,0,0,0-1.83.45,1.494,1.494,0,0,0-.671.678,0.891,0.891,0,0,0,.023.763l-0.273.159a3.835,3.835,0,0,1-1.831.4,3.9,3.9,0,0,1-1.829-.4,6.861,6.861,0,0,0-2.257-.818L24.524,10.7a4.385,4.385,0,0,0,1.317.011,3.194,3.194,0,0,0,1.169-.391,1.273,1.273,0,0,0,.764-1.058A1.291,1.291,0,0,0,27,8.2" style="fill:#555"/></g></g><polygon points="45.802 11.285 45.802 11.285 45.802 11.286 45.802 11.285" style="fill:#bbb"/><polygon points="0.8 11.285 0.8 11.285 0.8 11.286 0.8 11.285" style="fill:#bbb"/><path d="M3.232,12.5a1.279,1.279,0,0,0-.643,1.093v1.48l19.417,9.709v7.461L22.72,32.6a1.3,1.3,0,0,0,1.163,0l0.713-.357V24.784l19.417-9.709v-1.48A1.279,1.279,0,0,0,43.37,12.5L23.3,22.536Z" style="fill:#bbb"/><polygon points="46.602 13.594 46.602 13.595 46.602 13.595 46.602 13.594" style="fill:#bbb"/><path d="M46.39,12.385c-0.008-.023-0.021-0.044-0.03-0.067C46.369,12.341,46.383,12.362,46.39,12.385Z" style="fill:#bbb"/><polygon points="0 13.595 0 13.595 0 13.594 0 13.595" style="fill:#bbb"/><path d="M0.212,12.385c0.008-.023.021-0.044,0.03-0.067C0.233,12.341.22,12.362,0.212,12.385Z" style="fill:#bbb"/><path d="M23.3,2.589a1.307,1.307,0,0,1,.581.137l19.412,9.706a1.293,1.293,0,0,1,.719,1.163v8.138a1.293,1.293,0,0,1-.719,1.163L23.882,32.6a1.3,1.3,0,0,1-1.163,0L3.308,22.9a1.293,1.293,0,0,1-.719-1.163V13.595a1.293,1.293,0,0,1,.719-1.163L22.72,2.726A1.307,1.307,0,0,1,23.3,2.589M23.3,0a3.888,3.888,0,0,0-1.739.411L2.15,10.117A3.889,3.889,0,0,0,0,13.595v8.138a3.889,3.889,0,0,0,2.15,3.478l19.412,9.706a3.889,3.889,0,0,0,3.478,0l19.412-9.706a3.889,3.889,0,0,0,2.15-3.478V13.595a3.889,3.889,0,0,0-2.15-3.478L25.04,0.411A3.888,3.888,0,0,0,23.3,0h0Z" style="fill:#999"/></svg>