<svg id="Layer_1" data-name="Layer 1" xmlns="http://www.w3.org/2000/svg" viewBox="0 0 118.578 132.011"><title>always-integrating</title><path d="M74.966,69.79a0.745,0.745,0,0,0,.745-0.745V52.534a0.745,0.745,0,0,0-.745-0.744H44.455a0.745,0.745,0,0,0-.744.744V69.045a0.745,0.745,0,0,0,.744.745h8.6a1.5,1.5,0,0,1,1.1.483l5.55,6.021,5.55-6.021a1.5,1.5,0,0,1,1.1-.483h8.6Z" transform="translate(-40.711 -37.147)" style="fill:#ccadd2"/><polyline points="19 76.613 59.301 56.009 99.578 99.714" style="fill:none;stroke:#44275e;stroke-linecap:round;stroke-miterlimit:10;stroke-width:3px;stroke-dasharray:3,8"/><circle cx="19" cy="53.512" r="4.45" style="fill:#cce8e0"/><path d="M74.966,48.79H44.455a3.748,3.748,0,0,0-3.744,3.744V69.045a3.749,3.749,0,0,0,3.744,3.745H52.4l5.81,6.3v4.267a7.451,7.451,0,0,0,0,14.6v8.5a7.451,7.451,0,0,0,0,14.6v8.5a7.45,7.45,0,1,0,3,0v-8.5a7.451,7.451,0,0,0,0-14.6v-8.5a7.451,7.451,0,0,0,0-14.6V79.094l5.811-6.3h7.945a3.749,3.749,0,0,0,3.745-3.745V52.534A3.749,3.749,0,0,0,74.966,48.79ZM64.161,136.861a4.45,4.45,0,1,1-5.95-4.172,4.878,4.878,0,0,1,.714-0.2,3.927,3.927,0,0,1,1.572,0,4.872,4.872,0,0,1,.713.2A4.443,4.443,0,0,1,64.161,136.861Zm0-23.1a4.443,4.443,0,0,1-2.951,4.171,4.876,4.876,0,0,1-.713.2,3.926,3.926,0,0,1-1.572,0,4.878,4.878,0,0,1-.714-0.2,4.424,4.424,0,0,1,0-8.342,4.878,4.878,0,0,1,.714-0.2,3.927,3.927,0,0,1,1.572,0,4.872,4.872,0,0,1,.713.2A4.443,4.443,0,0,1,64.161,113.76Zm0-23.1a4.444,4.444,0,0,1-2.95,4.172,4.876,4.876,0,0,1-.714.2,3.926,3.926,0,0,1-1.572,0,4.879,4.879,0,0,1-.714-0.2h0a4.424,4.424,0,0,1,0-8.342,4.878,4.878,0,0,1,.714-0.2,3.926,3.926,0,0,1,1.572,0,4.876,4.876,0,0,1,.713.2A4.443,4.443,0,0,1,64.161,90.659Zm11.55-21.614a0.745,0.745,0,0,1-.745.745h-8.6a1.5,1.5,0,0,0-1.1.483l-5.55,6.021-5.55-6.021a1.5,1.5,0,0,0-1.1-.483h-8.6a0.745,0.745,0,0,1-.744-0.745V52.534a0.745,0.745,0,0,1,.744-0.744H74.966a0.745,0.745,0,0,1,.745.744V69.045Z" transform="translate(-40.711 -37.147)" style="fill:#44275e"/><path d="M155.544,69.79a0.745,0.745,0,0,0,.745-0.745V52.534a0.745,0.745,0,0,0-.745-0.744H125.033a0.745,0.745,0,0,0-.744.744V69.045a0.745,0.745,0,0,0,.744.745h8.6a1.5,1.5,0,0,1,1.1.483l5.55,6.021,5.55-6.021a1.5,1.5,0,0,1,1.1-.483h8.6Z" transform="translate(-40.711 -37.147)" style="fill:#ccadd2"/><circle cx="19" cy="76.613" r="4.45" style="fill:#85c996"/><circle cx="19" cy="99.714" r="4.45" style="fill:#f59d87"/><circle cx="99.578" cy="53.512" r="4.45" style="fill:#ffe1a5"/><path d="M155.544,48.79H125.033a3.748,3.748,0,0,0-3.744,3.744V69.045a3.749,3.749,0,0,0,3.744,3.745h7.945l5.81,6.3v4.267a7.451,7.451,0,0,0,0,14.6v8.5a7.451,7.451,0,0,0,0,14.6v8.5a7.45,7.45,0,1,0,3,0v-8.5a7.451,7.451,0,0,0,0-14.6v-8.5a7.451,7.451,0,0,0,0-14.6V79.094l5.811-6.3h7.945a3.749,3.749,0,0,0,3.745-3.745V52.534A3.749,3.749,0,0,0,155.544,48.79Zm-10.806,88.071a4.45,4.45,0,1,1-5.95-4.172,4.878,4.878,0,0,1,.714-0.2,3.927,3.927,0,0,1,1.572,0,4.872,4.872,0,0,1,.713.2A4.443,4.443,0,0,1,144.739,136.861Zm0-23.1a4.443,4.443,0,0,1-2.951,4.171,4.876,4.876,0,0,1-.713.2,3.926,3.926,0,0,1-1.572,0,4.878,4.878,0,0,1-.714-0.2,4.424,4.424,0,0,1,0-8.342,4.878,4.878,0,0,1,.714-0.2,3.927,3.927,0,0,1,1.572,0,4.872,4.872,0,0,1,.713.2A4.443,4.443,0,0,1,144.739,113.76Zm0-23.1a4.444,4.444,0,0,1-2.95,4.172,4.876,4.876,0,0,1-.714.2,3.926,3.926,0,0,1-1.572,0,4.879,4.879,0,0,1-.714-0.2h0a4.424,4.424,0,0,1,0-8.342,4.878,4.878,0,0,1,.714-0.2,3.926,3.926,0,0,1,1.572,0,4.876,4.876,0,0,1,.713.2A4.443,4.443,0,0,1,144.739,90.659Zm11.55-21.614a0.745,0.745,0,0,1-.745.745h-8.6a1.5,1.5,0,0,0-1.1.483l-5.55,6.021-5.55-6.021a1.5,1.5,0,0,0-1.1-.483h-8.6a0.745,0.745,0,0,1-.744-0.745V52.534a0.745,0.745,0,0,1,.744-0.744h30.511a0.745,0.745,0,0,1,.745.744V69.045Z" transform="translate(-40.711 -37.147)" style="fill:#44275e"/><line x1="59.301" y1="38.103" x2="59.301" y2="121.782" style="fill:none;stroke:#44275e;stroke-linecap:round;stroke-miterlimit:10;stroke-width:3px"/><circle cx="99.578" cy="76.613" r="4.45" style="fill:#cce8e0"/><circle cx="99.578" cy="99.714" r="4.45" style="fill:#85c996"/><path d="M121.806,38.647H78.219a3.206,3.206,0,0,0-3.206,3.206V65.44a3.206,3.206,0,0,0,3.206,3.206H90.508L95.26,73.8l4.752,5.156,4.752-5.156,4.752-5.156h12.29a3.206,3.206,0,0,0,3.206-3.206V41.853A3.206,3.206,0,0,0,121.806,38.647Z" transform="translate(-40.711 -37.147)" style="fill:#dac1e0;stroke:#44275e;stroke-linejoin:round;stroke-width:3px"/><path d="M88.033,57.624l-1.008,3.632H83.708L88.033,47.1h4.2L96.62,61.256H93.177l-1.092-3.632H88.033Zm3.59-2.395-0.882-3c-0.252-.84-0.5-1.89-0.714-2.729H89.985c-0.21.84-.42,1.911-0.651,2.729l-0.84,3h3.128Z" transform="translate(-40.711 -37.147)" style="fill:#44275e"/><path d="M98.235,47.294A26.175,26.175,0,0,1,102.561,47a6.789,6.789,0,0,1,4.325,1.135,4.136,4.136,0,0,1,1.512,3.275,4.526,4.526,0,0,1-1.3,3.359,6.565,6.565,0,0,1-4.6,1.49,8.229,8.229,0,0,1-1.092-.062v5.06h-3.17V47.294Zm3.17,6.424a4.869,4.869,0,0,0,1.071.084c1.7,0,2.75-.86,2.75-2.309,0-1.3-.9-2.079-2.5-2.079a5.482,5.482,0,0,0-1.323.126v4.178Z" transform="translate(-40.711 -37.147)" style="fill:#44275e"/><path d="M113.287,47.1V61.256h-3.212V47.1h3.212Z" transform="translate(-40.711 -37.147)" style="fill:#44275e"/><circle cx="59.301" cy="56.009" r="8.5" style="fill:#85c996;stroke:#44275e;stroke-miterlimit:10;stroke-width:3px"/><circle cx="59.301" cy="89.01" r="8.5" style="fill:#f59d87;stroke:#44275e;stroke-miterlimit:10;stroke-width:3px"/><circle cx="59.301" cy="122.011" r="8.5" style="fill:#ffe1a5;stroke:#44275e;stroke-miterlimit:10;stroke-width:3px"/></svg>