<svg viewBox="0 0 192 60">
  <polyline fill="none" stroke="#555555" stroke-width="2" stroke-linecap="round" stroke-linejoin="round" stroke-miterlimit="10" points="6.625,7.5 51.978,52.5 96.875,7.5 141.875,52.5 186.875,7.5"/>
  <polyline fill="none" stroke="#555555" stroke-width="2" stroke-linecap="round" stroke-linejoin="round" stroke-miterlimit="10" points="6.625,52.5 51.978,7.5 96.875,52.5 141.875,7.5 186.875,52.5"/>
  <!-- 1 -->
  <g>
    <circle fill="#3FC95D" cx="6.875" cy="7.5" r="3.5"/>
    <path fill="#555555" d="M6.875,5c1.379,0,2.5,1.122,2.5,2.5S8.254,10,6.875,10s-2.5-1.122-2.5-2.5S5.496,5,6.875,5 M6.875,3c-2.485,0-4.5,2.015-4.5,4.5S4.39,12,6.875,12s4.5-2.015,4.5-4.5S9.36,3,6.875,3L6.875,3z"/>
  </g>
  <g>
    <circle fill="#1CA5F5" cx="6.625" cy="52.5" r="5"/>
    <path fill="#555555" d="M6.625,48.5c2.206,0,4,1.794,4,4s-1.794,4-4,4s-4-1.794-4-4S4.419,48.5,6.625,48.5 M6.625,46.5c-3.314,0-6,2.686-6,6s2.686,6,6,6s6-2.686,6-6S9.939,46.5,6.625,46.5L6.625,46.5z"/>
  </g>
  <!-- 2 -->
  <g>
    <circle fill="#F6AA32" cx="28.875" cy="30" r="3.5"/>
    <path fill="#555555" d="M28.875,27.5c1.379,0,2.5,1.122,2.5,2.5s-1.121,2.5-2.5,2.5s-2.5-1.122-2.5-2.5S27.497,27.5,28.875,27.5M28.875,25.5c-2.485,0-4.5,2.015-4.5,4.5s2.015,4.5,4.5,4.5s4.5-2.015,4.5-4.5S31.36,25.5,28.875,25.5L28.875,25.5z"/>
  </g>
  <!-- 3 -->
  <g>
    <circle fill="#3FC95D" cx="51.75" cy="52.5" r="5"/>
    <path fill="#555555" d="M51.75,48.5c2.206,0,4,1.794,4,4s-1.794,4-4,4s-4-1.794-4-4S49.544,48.5,51.75,48.5 M51.75,46.5c-3.314,0-6,2.686-6,6s2.686,6,6,6s6-2.686,6-6S55.064,46.5,51.75,46.5L51.75,46.5z"/>
  </g>
  <g>
    <circle fill="#F54D58" cx="51.875" cy="7.5" r="3.5"/>
    <path fill="#555555" d="M51.875,5c1.379,0,2.5,1.122,2.5,2.5s-1.121,2.5-2.5,2.5s-2.5-1.122-2.5-2.5S50.496,5,51.875,5 M51.875,3c-2.485,0-4.5,2.015-4.5,4.5s2.015,4.5,4.5,4.5s4.5-2.015,4.5-4.5S54.36,3,51.875,3L51.875,3z"/>
  </g>
  <!-- 4 -->
  <g>
    <circle fill="#1CA5F5" cx="74.375" cy="30" r="3.5"/>
    <path fill="#555555" d="M74.375,27.5c1.379,0,2.5,1.122,2.5,2.5s-1.121,2.5-2.5,2.5s-2.5-1.122-2.5-2.5S72.996,27.5,74.375,27.5M74.375,25.5c-2.485,0-4.5,2.015-4.5,4.5s2.015,4.5,4.5,4.5c2.485,0,4.5-2.015,4.5-4.5S76.86,25.5,74.375,25.5L74.375,25.5z"/>
  </g>
  <!-- 5 -->
  <g>
    <circle fill="#F6AA32" cx="96.875" cy="7.5" r="5"/>
    <path fill="#555555" d="M96.875,3.5c2.206,0,4,1.794,4,4s-1.794,4-4,4s-4-1.794-4-4S94.669,3.5,96.875,3.5 M96.875,1.5
      c-3.314,0-6,2.686-6,6s2.686,6,6,6s6-2.686,6-6S100.189,1.5,96.875,1.5L96.875,1.5z"/>
  </g>
  <g>
    <circle fill="#F54D58" cx="96.875" cy="52.5" r="3.5"/>
    <path fill="#555555" d="M96.875,50c1.379,0,2.5,1.121,2.5,2.5s-1.121,2.5-2.5,2.5s-2.5-1.121-2.5-2.5S95.496,50,96.875,50M96.875,48c-2.485,0-4.5,2.015-4.5,4.5s2.015,4.5,4.5,4.5s4.5-2.015,4.5-4.5S99.36,48,96.875,48L96.875,48z"/>
  </g>
  <!-- 6 -->
  <g>
    <circle fill="#3FC95D" cx="119.375" cy="30" r="3.5"/>
    <path fill="#555555" d="M119.375,27.5c1.379,0,2.5,1.122,2.5,2.5s-1.121,2.5-2.5,2.5s-2.5-1.122-2.5-2.5S117.996,27.5,119.375,27.5 M119.375,25.5c-2.485,0-4.5,2.015-4.5,4.5s2.015,4.5,4.5,4.5c2.485,0,4.5-2.015,4.5-4.5S121.86,25.5,119.375,25.5L119.375,25.5z"/>
  </g>
  <!-- 7 -->
  <g>
    <circle fill="#F6AA32" cx="141.875" cy="52.5" r="3.5"/>
    <path fill="#555555" d="M141.875,50c1.379,0,2.5,1.121,2.5,2.5s-1.121,2.5-2.5,2.5c-1.378,0-2.5-1.121-2.5-2.5S140.497,50,141.875,50 M141.875,48c-2.485,0-4.5,2.015-4.5,4.5s2.015,4.5,4.5,4.5s4.5-2.015,4.5-4.5S144.36,48,141.875,48L141.875,48z"/>
  </g>
  <g>
    <circle fill="#1CA5F5" cx="141.875" cy="7.5" r="3.5"/>
    <path fill="#555555" d="M141.875,5c1.379,0,2.5,1.122,2.5,2.5s-1.121,2.5-2.5,2.5c-1.378,0-2.5-1.122-2.5-2.5S140.497,5,141.875,5M141.875,3c-2.485,0-4.5,2.015-4.5,4.5s2.015,4.5,4.5,4.5s4.5-2.015,4.5-4.5S144.36,3,141.875,3L141.875,3z"/>
  </g>
  <!-- 8 -->
  <g>
    <circle fill="#F54D58" cx="164.375" cy="30" r="5"/>
    <path fill="#555555" d="M164.375,26c2.206,0,4,1.794,4,4s-1.794,4-4,4s-4-1.794-4-4S162.169,26,164.375,26 M164.375,24c-3.314,0-6,2.686-6,6s2.686,6,6,6c3.314,0,6-2.686,6-6S167.689,24,164.375,24L164.375,24z"/>
  </g>
  <!-- 9 -->
  <g>
    <circle fill="#1CA5F5" cx="186.875" cy="52.5" r="3.5"/>
    <path fill="#555555" d="M186.875,50c1.379,0,2.5,1.121,2.5,2.5s-1.121,2.5-2.5,2.5c-1.378,0-2.5-1.121-2.5-2.5S185.497,50,186.875,50 M186.875,48c-2.485,0-4.5,2.015-4.5,4.5s2.015,4.5,4.5,4.5c2.485,0,4.5-2.015,4.5-4.5S189.36,48,186.875,48L186.875,48z"/>
  </g>
  <g>
    <circle fill="#3FC95D" cx="186.875" cy="7.5" r="3.5"/>
    <path fill="#555555" d="M186.875,5c1.379,0,2.5,1.122,2.5,2.5s-1.121,2.5-2.5,2.5c-1.378,0-2.5-1.122-2.5-2.5S185.497,5,186.875,5M186.875,3c-2.485,0-4.5,2.015-4.5,4.5s2.015,4.5,4.5,4.5c2.485,0,4.5-2.015,4.5-4.5S189.36,3,186.875,3L186.875,3z"/>
  </g>
</svg>