<?xml version="1.0" encoding="UTF-8" standalone="no"?>
<svg width="261px" height="162px" viewBox="0 0 261 162" version="1.1" xmlns="http://www.w3.org/2000/svg" xmlns:xlink="http://www.w3.org/1999/xlink" xmlns:sketch="http://www.bohemiancoding.com/sketch/ns">
    <!-- Generator: Sketch 3.5.1 (25234) - http://www.bohemiancoding.com/sketch -->
    <title>Page 1</title>
    <desc>Created with Sketch.</desc>
    <defs></defs>
    <g id="Page-1" stroke="none" stroke-width="1" fill="none" fill-rule="evenodd" sketch:type="MSPage">
        <g sketch:type="MSLayerGroup">
            <path d="M106.9942,48.1172 C105.9522,63.2452 92.8442,74.6652 77.7152,73.6232 C62.5872,72.5822 51.1672,59.4732 52.2092,44.3452" id="Stroke-1" stroke="#F2F2F2" stroke-width="3" stroke-linecap="round" sketch:type="MSShapeGroup"></path>
            <path d="M17.25,63.75 L30.75,77.25" id="Stroke-3" stroke="#F2F2F2" stroke-width="3" stroke-linecap="round" sketch:type="MSShapeGroup"></path>
            <path d="M24,61.5 L33,70.5" id="Stroke-5" stroke="#F2F2F2" stroke-width="3" stroke-linecap="round" sketch:type="MSShapeGroup"></path>
            <path d="M15,70.5 L24,79.5" id="Stroke-7" stroke="#F2F2F2" stroke-width="3" stroke-linecap="round" sketch:type="MSShapeGroup"></path>
            <path d="M35.25,63.75 L48.75,77.25" id="Stroke-9" stroke="#F2F2F2" stroke-width="3" stroke-linecap="round" sketch:type="MSShapeGroup"></path>
            <path d="M42,61.5 L51,70.5" id="Stroke-11" stroke="#F2F2F2" stroke-width="3" stroke-linecap="round" sketch:type="MSShapeGroup"></path>
            <path d="M33,70.5 L42,79.5" id="Stroke-13" stroke="#F2F2F2" stroke-width="3" stroke-linecap="round" sketch:type="MSShapeGroup"></path>
            <path d="M43,88.5 L43,151.5" id="Stroke-15" stroke="#F2F2F2" stroke-width="3" stroke-linecap="round" sketch:type="MSShapeGroup"></path>
            <path d="M29,88.5 L29,151.5" id="Stroke-17" stroke="#F2F2F2" stroke-width="3" stroke-linecap="round" sketch:type="MSShapeGroup"></path>
            <path d="M15,88.5 L15,151.5" id="Stroke-19" stroke="#F2F2F2" stroke-width="3" stroke-linecap="round" sketch:type="MSShapeGroup"></path>
            <path d="M57,88.5 L57,151.5" id="Stroke-21" stroke="#F2F2F2" stroke-width="3" stroke-linecap="round" sketch:type="MSShapeGroup"></path>
            <path d="M19.5,131 C19.5,133.485 17.485,135.5 15,135.5 C12.515,135.5 10.5,133.485 10.5,131 C10.5,128.515 12.515,126.5 15,126.5 C17.485,126.5 19.5,128.515 19.5,131" id="Fill-23" fill="#FFFFFF" sketch:type="MSShapeGroup"></path>
            <path d="M19.5,131 C19.5,133.485 17.485,135.5 15,135.5 C12.515,135.5 10.5,133.485 10.5,131 C10.5,128.515 12.515,126.5 15,126.5 C17.485,126.5 19.5,128.515 19.5,131 L19.5,131 Z" id="Stroke-25" stroke="#F2F2F2" stroke-width="3" stroke-linecap="round" sketch:type="MSShapeGroup"></path>
            <path d="M33.5,120 C33.5,122.485 31.485,124.5 29,124.5 C26.515,124.5 24.5,122.485 24.5,120 C24.5,117.515 26.515,115.5 29,115.5 C31.485,115.5 33.5,117.515 33.5,120" id="Fill-27" fill="#FFFFFF" sketch:type="MSShapeGroup"></path>
            <path d="M33.5,120 C33.5,122.485 31.485,124.5 29,124.5 C26.515,124.5 24.5,122.485 24.5,120 C24.5,117.515 26.515,115.5 29,115.5 C31.485,115.5 33.5,117.515 33.5,120 L33.5,120 Z" id="Stroke-29" stroke="#F2F2F2" stroke-width="3" stroke-linecap="round" sketch:type="MSShapeGroup"></path>
            <path d="M47.5,131 C47.5,133.485 45.485,135.5 43,135.5 C40.515,135.5 38.5,133.485 38.5,131 C38.5,128.515 40.515,126.5 43,126.5 C45.485,126.5 47.5,128.515 47.5,131" id="Fill-31" fill="#FFFFFF" sketch:type="MSShapeGroup"></path>
            <path d="M47.5,131 C47.5,133.485 45.485,135.5 43,135.5 C40.515,135.5 38.5,133.485 38.5,131 C38.5,128.515 40.515,126.5 43,126.5 C45.485,126.5 47.5,128.515 47.5,131 L47.5,131 Z" id="Stroke-33" stroke="#F2F2F2" stroke-width="3" stroke-linecap="round" sketch:type="MSShapeGroup"></path>
            <path d="M71,88.5 L71,151.5" id="Stroke-35" stroke="#F2F2F2" stroke-width="3" stroke-linecap="round" sketch:type="MSShapeGroup"></path>
            <path d="M75.5,131 C75.5,133.485 73.485,135.5 71,135.5 C68.515,135.5 66.5,133.485 66.5,131 C66.5,128.515 68.515,126.5 71,126.5 C73.485,126.5 75.5,128.515 75.5,131" id="Fill-37" fill="#FFFFFF" sketch:type="MSShapeGroup"></path>
            <path d="M75.5,131 C75.5,133.485 73.485,135.5 71,135.5 C68.515,135.5 66.5,133.485 66.5,131 C66.5,128.515 68.515,126.5 71,126.5 C73.485,126.5 75.5,128.515 75.5,131 L75.5,131 Z" id="Stroke-39" stroke="#F2F2F2" stroke-width="3" stroke-linecap="round" sketch:type="MSShapeGroup"></path>
            <path d="M61.5,120 C61.5,122.485 59.485,124.5 57,124.5 C54.515,124.5 52.5,122.485 52.5,120 C52.5,117.515 54.515,115.5 57,115.5 C59.485,115.5 61.5,117.515 61.5,120" id="Fill-41" fill="#FFFFFF" sketch:type="MSShapeGroup"></path>
            <path d="M61.5,120 C61.5,122.485 59.485,124.5 57,124.5 C54.515,124.5 52.5,122.485 52.5,120 C52.5,117.515 54.515,115.5 57,115.5 C59.485,115.5 61.5,117.515 61.5,120 L61.5,120 Z" id="Stroke-43" stroke="#F2F2F2" stroke-width="3" stroke-linecap="round" sketch:type="MSShapeGroup"></path>
            <g id="Group-48" sketch:type="MSShapeGroup">
                <path d="M175.5,160.5 C175.5,135.647 155.353,115.5 130.5,115.5 C105.647,115.5 85.5,135.647 85.5,160.5" id="Fill-45" fill="#FFFFFF"></path>
                <path d="M175.5,160.5 C175.5,135.647 155.353,115.5 130.5,115.5 C105.647,115.5 85.5,135.647 85.5,160.5" id="Stroke-47" stroke="#F2F2F2" stroke-width="3"></path>
            </g>
            <g id="Group-52" sketch:type="MSShapeGroup">
                <path d="M118.5,160.5 C118.5,153.873 123.873,148.5 130.5,148.5 C137.127,148.5 142.5,153.873 142.5,160.5" id="Fill-49" fill="#FFFFFF"></path>
                <path d="M118.5,160.5 C118.5,153.873 123.873,148.5 130.5,148.5 C137.127,148.5 142.5,153.873 142.5,160.5" id="Stroke-51" stroke="#F2F2F2" stroke-width="3"></path>
            </g>
            <g id="Group-56" sketch:type="MSShapeGroup">
                <path d="M118.5,160.5 C118.5,153.873 123.873,148.5 130.5,148.5 C137.127,148.5 142.5,153.873 142.5,160.5" id="Fill-53" fill="#FFFFFF"></path>
                <path d="M118.5,160.5 C118.5,153.873 123.873,148.5 130.5,148.5 C137.127,148.5 142.5,153.873 142.5,160.5" id="Stroke-55" stroke="#F2F2F2" stroke-width="3"></path>
            </g>
            <path d="M181.5,52.5 L1.5,52.5 L1.5,43.5 C1.5,41.843 2.843,40.5 4.5,40.5 L178.5,40.5 C180.157,40.5 181.5,41.843 181.5,43.5 L181.5,52.5 Z" id="Fill-57" fill="#FFFFFF" sketch:type="MSShapeGroup"></path>
            <path d="M181,52.5 L2,52.5 L1.5,52.5 L2,52.5 L181,52.5 L181.5,52.5 L181,52.5 L181,52.5 Z" id="Stroke-59" stroke="#E6E6E6" stroke-width="3" stroke-linejoin="round" sketch:type="MSShapeGroup"></path>
            <path d="M13.5,46.5 C13.5,47.743 12.493,48.75 11.25,48.75 C10.007,48.75 9,47.743 9,46.5 C9,45.257 10.007,44.25 11.25,44.25 C12.493,44.25 13.5,45.257 13.5,46.5" id="Fill-61" fill="#E6E6E6" sketch:type="MSShapeGroup"></path>
            <path d="M20.25,46.5 C20.25,47.743 19.243,48.75 18,48.75 C16.757,48.75 15.75,47.743 15.75,46.5 C15.75,45.257 16.757,44.25 18,44.25 C19.243,44.25 20.25,45.257 20.25,46.5" id="Fill-63" fill="#E6E6E6" sketch:type="MSShapeGroup"></path>
            <path d="M27,46.5 C27,47.743 25.993,48.75 24.75,48.75 C23.507,48.75 22.5,47.743 22.5,46.5 C22.5,45.257 23.507,44.25 24.75,44.25 C25.993,44.25 27,45.257 27,46.5" id="Fill-65" fill="#E6E6E6" sketch:type="MSShapeGroup"></path>
            <path d="M178.5,160.5 L4.5,160.5 C2.843,160.5 1.5,159.157 1.5,157.5 L1.5,43.5 C1.5,41.843 2.843,40.5 4.5,40.5 L178.5,40.5 C180.157,40.5 181.5,41.843 181.5,43.5 L181.5,157.5 C181.5,159.157 180.157,160.5 178.5,160.5 L178.5,160.5 Z" id="Stroke-67" stroke="#E6E6E6" stroke-width="3" stroke-linejoin="round" sketch:type="MSShapeGroup"></path>
            <path d="M256.5,91.5 L142.5,91.5 C140.843,91.5 139.5,90.157 139.5,88.5 L139.5,4.5 C139.5,2.843 140.843,1.5 142.5,1.5 L256.5,1.5 C258.157,1.5 259.5,2.843 259.5,4.5 L259.5,88.5 C259.5,90.157 258.157,91.5 256.5,91.5" id="Fill-69" fill="#FFFFFF" sketch:type="MSShapeGroup"></path>
            <path d="M256.5,91.5 L142.5,91.5 C140.843,91.5 139.5,90.157 139.5,88.5 L139.5,4.5 C139.5,2.843 140.843,1.5 142.5,1.5 L256.5,1.5 C258.157,1.5 259.5,2.843 259.5,4.5 L259.5,88.5 C259.5,90.157 258.157,91.5 256.5,91.5 L256.5,91.5 Z" id="Stroke-71" stroke="#E6E6E6" stroke-width="3" stroke-linejoin="round" sketch:type="MSShapeGroup"></path>
            <path d="M145.5,70.5 C145.5,78.784 152.216,85.5 160.5,85.5 C168.784,85.5 175.5,78.784 175.5,70.5 C175.5,62.216 168.784,55.5 160.5,55.5 C152.216,55.5 145.5,62.216 145.5,70.5 L145.5,70.5 Z" id="Stroke-73" stroke="#F2F2F2" stroke-width="3" sketch:type="MSShapeGroup"></path>
            <path d="M154.5,70.5 C154.5,73.814 157.186,76.5 160.5,76.5 C163.814,76.5 166.5,73.814 166.5,70.5 C166.5,67.186 163.814,64.5 160.5,64.5 C157.186,64.5 154.5,67.186 154.5,70.5 L154.5,70.5 Z" id="Stroke-75" stroke="#F2F2F2" stroke-width="3" sketch:type="MSShapeGroup"></path>
            <path d="M186,75 C186,77.485 188.015,79.5 190.5,79.5 C192.985,79.5 195,77.485 195,75 C195,72.515 192.985,70.5 190.5,70.5 C188.015,70.5 186,72.515 186,75 L186,75 Z" id="Stroke-77" stroke="#F2F2F2" stroke-width="3" sketch:type="MSShapeGroup"></path>
            <path d="M175.5,70.5 L175.5,159" id="Stroke-79" stroke="#F2F2F2" stroke-width="3" sketch:type="MSShapeGroup"></path>
            <path d="M148.5,61.5 L94.5,133.5" id="Stroke-81" stroke="#F2F2F2" stroke-width="3" sketch:type="MSShapeGroup"></path>
            <path d="M123.8194,46.5 L59.1804,46.5 L59.0004,46.5 L59.1804,46.5 L123.8194,46.5 L124.0004,46.5 L123.8194,46.5 L123.8194,46.5 Z" id="Stroke-83" stroke="#F2F2F2" stroke-width="3" stroke-linecap="round" stroke-linejoin="round" sketch:type="MSShapeGroup"></path>
            <path d="M257.675,13.5 L141.325,13.5 L141,13.5 L141.325,13.5 L257.675,13.5 L258,13.5 L257.675,13.5 L257.675,13.5 Z" id="Stroke-85" stroke="#E6E6E6" stroke-width="3" stroke-linejoin="round" sketch:type="MSShapeGroup"></path>
            <path d="M151.5,7.5 C151.5,8.743 150.493,9.75 149.25,9.75 C148.007,9.75 147,8.743 147,7.5 C147,6.257 148.007,5.25 149.25,5.25 C150.493,5.25 151.5,6.257 151.5,7.5" id="Fill-87" fill="#E6E6E6" sketch:type="MSShapeGroup"></path>
            <path d="M158.25,7.5 C158.25,8.743 157.243,9.75 156,9.75 C154.757,9.75 153.75,8.743 153.75,7.5 C153.75,6.257 154.757,5.25 156,5.25 C157.243,5.25 158.25,6.257 158.25,7.5" id="Fill-89" fill="#E6E6E6" sketch:type="MSShapeGroup"></path>
            <path d="M165,7.5 C165,8.743 163.993,9.75 162.75,9.75 C161.507,9.75 160.5,8.743 160.5,7.5 C160.5,6.257 161.507,5.25 162.75,5.25 C163.993,5.25 165,6.257 165,7.5" id="Fill-91" fill="#E6E6E6" sketch:type="MSShapeGroup"></path>
            <path d="M175.5,34.5 C175.5,42.784 168.784,49.5 160.5,49.5 C152.216,49.5 145.5,42.784 145.5,34.5 L175.5,34.5 L175.5,34.5 Z" id="Stroke-93" stroke="#F2F2F2" stroke-width="3" stroke-linecap="round" sketch:type="MSShapeGroup"></path>
            <path d="M175.5,34.5 C175.5,26.216 168.784,19.5 160.5,19.5 C152.216,19.5 145.5,26.216 145.5,34.5 L175.5,34.5 L175.5,34.5 Z" id="Stroke-95" stroke="#F2F2F2" stroke-width="3" stroke-linecap="round" sketch:type="MSShapeGroup"></path>
            <path d="M163,34.5 C163,35.881 161.881,37 160.5,37 C159.119,37 158,35.881 158,34.5 C158,33.119 159.119,32 160.5,32 C161.881,32 163,33.119 163,34.5 L163,34.5 Z" id="Stroke-97" stroke="#F2F2F2" stroke-width="3" stroke-linecap="round" sketch:type="MSShapeGroup"></path>
            <path d="M160.5,34.5 L165.5,25.84" id="Stroke-99" stroke="#F2F2F2" stroke-width="3" stroke-linecap="round" sketch:type="MSShapeGroup"></path>
            <path d="M256.5,91.5 L142.5,91.5 C140.843,91.5 139.5,90.157 139.5,88.5 L139.5,4.5 C139.5,2.843 140.843,1.5 142.5,1.5 L256.5,1.5 C258.157,1.5 259.5,2.843 259.5,4.5 L259.5,88.5 C259.5,90.157 258.157,91.5 256.5,91.5 L256.5,91.5 Z" id="Stroke-101" stroke="#E6E6E6" stroke-width="3" stroke-linejoin="round" sketch:type="MSShapeGroup"></path>
            <path d="M247.5,64.5 L187.5,64.5 C185.843,64.5 184.5,63.157 184.5,61.5 L184.5,22.5 C184.5,20.843 185.843,19.5 187.5,19.5 L247.5,19.5 C249.157,19.5 250.5,20.843 250.5,22.5 L250.5,61.5 C250.5,63.157 249.157,64.5 247.5,64.5" id="Fill-103" fill="#FFFFFF" sketch:type="MSShapeGroup"></path>
            <path d="M247.5,64.5 L187.5,64.5 C185.843,64.5 184.5,63.157 184.5,61.5 L184.5,22.5 C184.5,20.843 185.843,19.5 187.5,19.5 L247.5,19.5 C249.157,19.5 250.5,20.843 250.5,22.5 L250.5,61.5 C250.5,63.157 249.157,64.5 247.5,64.5 L247.5,64.5 Z" id="Stroke-105" stroke="#F2F2F2" stroke-width="3" stroke-linecap="round" sketch:type="MSShapeGroup"></path>
            <g id="Group-110" sketch:type="MSShapeGroup">
                <path d="M187.8,34.5 L247.2,34.5" id="Fill-107" fill="#FFFFFF"></path>
                <path d="M187.8,34.5 L247.2,34.5" id="Stroke-109" stroke="#F2F2F2" stroke-width="3" stroke-linecap="round"></path>
            </g>
            <g id="Group-114" sketch:type="MSShapeGroup">
                <path d="M187.8,49.5 L247.2,49.5" id="Fill-111" fill="#FFFFFF"></path>
                <path d="M187.8,49.5 L247.2,49.5" id="Stroke-113" stroke="#F2F2F2" stroke-width="3" stroke-linecap="round"></path>
            </g>
            <path d="M187.8,49.5 C218.002,80.083 219.002,2.583 247.2,34.5" id="Stroke-115" stroke="#F2F2F2" stroke-width="3" stroke-linecap="round" sketch:type="MSShapeGroup"></path>
            <path d="M186,85.5 L195,85.5" id="Stroke-117" stroke="#F2F2F2" stroke-width="3" stroke-linecap="round" sketch:type="MSShapeGroup"></path>
            <path d="M204,75 C204,77.485 206.015,79.5 208.5,79.5 C210.985,79.5 213,77.485 213,75 C213,72.515 210.985,70.5 208.5,70.5 C206.015,70.5 204,72.515 204,75 L204,75 Z" id="Stroke-119" stroke="#F2F2F2" stroke-width="3" sketch:type="MSShapeGroup"></path>
            <path d="M204,85.5 L213,85.5" id="Stroke-121" stroke="#F2F2F2" stroke-width="3" stroke-linecap="round" sketch:type="MSShapeGroup"></path>
            <path d="M222,75 C222,77.485 224.015,79.5 226.5,79.5 C228.985,79.5 231,77.485 231,75 C231,72.515 228.985,70.5 226.5,70.5 C224.015,70.5 222,72.515 222,75 L222,75 Z" id="Stroke-123" stroke="#F2F2F2" stroke-width="3" sketch:type="MSShapeGroup"></path>
            <path d="M222,85.5 L231,85.5" id="Stroke-125" stroke="#F2F2F2" stroke-width="3" stroke-linecap="round" sketch:type="MSShapeGroup"></path>
            <path d="M240,75 C240,77.485 242.015,79.5 244.5,79.5 C246.985,79.5 249,77.485 249,75 C249,72.515 246.985,70.5 244.5,70.5 C242.015,70.5 240,72.515 240,75 L240,75 Z" id="Stroke-127" stroke="#F2F2F2" stroke-width="3" sketch:type="MSShapeGroup"></path>
            <path d="M240,85.5 L249,85.5" id="Stroke-129" stroke="#F2F2F2" stroke-width="3" stroke-linecap="round" sketch:type="MSShapeGroup"></path>
            <path d="M126.3008,71.745 C125.9878,76.284 122.0558,79.709 117.5168,79.397 C112.9788,79.084 109.5528,75.152 109.8648,70.613 C110.1778,66.075 114.1108,62.649 118.6488,62.961 C123.1878,63.274 126.6138,67.206 126.3008,71.745 L126.3008,71.745 Z" id="Stroke-131" stroke="#F2F2F2" stroke-width="3" stroke-linecap="round" sketch:type="MSShapeGroup"></path>
            <path d="M109.2311,93.9264 C108.7101,101.4904 102.1561,107.2004 94.5921,106.6794 C87.0271,106.1584 81.3181,99.6044 81.8381,92.0404 C82.3591,84.4764 88.9141,78.7664 96.4781,79.2874 C104.0421,79.8074 109.7521,86.3624 109.2311,93.9264 L109.2311,93.9264 Z" id="Stroke-133" stroke="#F2F2F2" stroke-width="3" stroke-linecap="round" sketch:type="MSShapeGroup"></path>
        </g>
    </g>
</svg>