<svg xmlns="http://www.w3.org/2000/svg" viewBox="0 0 60 60"><title>icons-deploy</title><path d="M48.783,39.568H31.72A1.72,1.72,0,0,1,30,37.848h0V20.784a1.72,1.72,0,0,1,2.937-1.216L50,36.628A1.72,1.72,0,0,1,48.783,39.568Z" style="fill:#f59aaa;stroke:#52306c;stroke-linecap:round;stroke-linejoin:round;stroke-width:2px"/><path d="M11.217,39.568H28.28A1.72,1.72,0,0,0,30,37.848h0V20.784a1.72,1.72,0,0,0-2.937-1.216L10,36.628A1.72,1.72,0,0,0,11.217,39.568Z" style="fill:#f59aaa;stroke:#52306c;stroke-linecap:round;stroke-linejoin:round;stroke-width:2px"/><path d="M43.458,31.015c0-6.287-8.914-22.275-8.914-22.275a4.961,4.961,0,0,0-9.088,0s-8.914,15.988-8.914,22.275v2.249c0,8.343,6.025,10.458,13.458,10.458s13.458-2.115,13.458-10.458V31.015h0Z" style="fill:#ccb29e;stroke:#52306c;stroke-linecap:round;stroke-linejoin:round;stroke-width:2px"/><path d="M43.458,28.261c0-5.6-8.914-19.845-8.914-19.845a5.225,5.225,0,0,0-9.088,0s-8.914,14.243-8.914,19.845v2c0,7.433,6.025,9.317,13.458,9.317s13.458-1.885,13.458-9.317v-2h0Z" style="fill:#ffe2c0;stroke:#52306c;stroke-linecap:round;stroke-linejoin:round;stroke-width:2px"/><path d="M29.141,8.422a2.435,2.435,0,0,0-1.288,1.1s-0.374.6-.9,1.5" style="fill:none;stroke:#fff;stroke-linecap:round;stroke-linejoin:round;opacity:0.7;isolation:isolate"/><circle cx="30" cy="22.659" r="5.538" style="fill:#a2dfed;stroke:#52306c;stroke-linecap:round;stroke-linejoin:round;stroke-width:2px"/><path d="M27,22.659a3,3,0,0,1,3-3" style="fill:none;stroke:#fff;stroke-linecap:round;stroke-linejoin:round;opacity:0.7;isolation:isolate"/><line x1="26" y1="47.183" x2="26" y2="51.059" style="fill:none;stroke:#52306c;stroke-linecap:round;stroke-miterlimit:10;stroke-width:2px"/><line x1="34" y1="47.183" x2="34" y2="51.059" style="fill:none;stroke:#52306c;stroke-linecap:round;stroke-miterlimit:10;stroke-width:2px"/><line x1="30" y1="47.683" x2="30" y2="55.059" style="fill:none;stroke:#52306c;stroke-linecap:round;stroke-miterlimit:10;stroke-width:2px"/><rect width="60" height="60" style="fill:none"/></svg>
