<?xml version="1.0" encoding="utf-8"?>
<!-- Generator: Adobe Illustrator 19.2.1, SVG Export Plug-In . SVG Version: 6.00 Build 0)  -->
<!DOCTYPE svg PUBLIC "-//W3C//DTD SVG 1.1//EN" "http://www.w3.org/Graphics/SVG/1.1/DTD/svg11.dtd">
<svg version="1.1" id="open" xmlns="http://www.w3.org/2000/svg" xmlns:xlink="http://www.w3.org/1999/xlink" x="0px" y="0px"
	 viewBox="0 0 55 60" style="enable-background:new 0 0 55 60;" xml:space="preserve">
<style type="text/css">
	.st0{fill:#E6E6E6;}
	.st1{fill:#999999;}
	.st2{fill:#394D54;stroke:#394D54;stroke-width:1.963;stroke-miterlimit:10;}
	.st3{fill:#00AADA;}
	.st4{fill:#24B8EB;}
	.st5{fill:#008BB8;}
	.st6{fill:#039BC6;}
	.st7{fill:#00ACD3;}
	.st8{fill:#20C2EF;}
	.st9{fill:#D4EDF1;}
	.st10{fill:#394D54;}
	.st11{fill:#BFDBE0;}
</style>
<title>icons-open</title>
<g>
	<path class="st0" d="M22.1,31.9c-0.1,0-0.1,0-0.2,0l-2.9-1.6c-0.1-0.1-0.2-0.2-0.2-0.4v-3.1c0-0.2,0.1-0.3,0.2-0.4l2.9-1.6h0.3
		l2.9,1.6c0.1,0.1,0.2,0.2,0.2,0.4v3.1c0,0.2-0.1,0.3-0.2,0.4l-2.9,1.6L22.1,31.9z"/>
	<path class="st1" d="M22.1,24.9L22.1,24.9l3,1.6c0.1,0,0.1,0.1,0.1,0.2v3.1c0,0.1,0,0.2-0.1,0.2l-2.9,1.6l0.2,0.4l-0.3-0.4
		l-2.9-1.6c-0.1,0-0.1-0.1-0.1-0.2v-3.1c0-0.1,0-0.2,0.1-0.2L22.1,24.9C22.1,24.9,22.1,24.9,22.1,24.9 M22.1,24.5
		c-0.1,0-0.2,0-0.3,0.1L19,26.2c-0.2,0.1-0.3,0.3-0.3,0.6v3.1c0,0.2,0.1,0.5,0.3,0.6l2.9,1.6c0.2,0.1,0.4,0.1,0.5,0l2.9-1.6
		c0.2-0.1,0.3-0.3,0.3-0.6v-3.1c0-0.2-0.1-0.5-0.3-0.6l-2.9-1.6C22.3,24.5,22.2,24.5,22.1,24.5C22.1,24.5,22.1,24.5,22.1,24.5z"/>
	<path id="outline" class="st2" d="M28.5,23.7h5.4v5.5h2.7c1.3,0,2.5-0.2,3.8-0.6c0.6-0.2,1.2-0.5,1.8-0.8c-0.7-1-1.2-2.2-1.3-3.5
		c-0.2-1.8,0.2-3.7,1.3-5.2l0.6-0.7l0.7,0.5c1.8,1.3,3,3.3,3.4,5.5c2.1-0.6,4.3-0.4,6.3,0.6l0.8,0.4l-0.4,0.8
		c-1.5,3-4.7,3.9-7.9,3.8c-4.7,11.7-14.9,17.2-27.3,17.2c-6.4,0-12.3-2.4-15.6-8.1L2.8,39l-0.5-1c-1.1-2.5-1.5-5.2-1.2-8l0.1-0.8
		h4.6v-5.5h5.4v-5.4H22v-5.4h6.5L28.5,23.7L28.5,23.7z"/>
	<g id="body_colors">
		<path class="st3" d="M46.1,25.7c0.1-2.4-1.1-4.7-3.1-6.1c-1.5,1.7-1.7,6.3,0.6,8.2c-2,1.5-4.5,2.3-7,2.2H2
			c-0.3,2.8,0.2,5.6,1.4,8.1l0.4,0.7c0.3,0.4,0.5,0.8,0.8,1.2l0,0c1.4,0.1,2.7,0.1,3.9,0.1l0,0c1.9,0,3.9-0.3,5.8-0.8
			c0.2-0.1,0.5,0,0.5,0.3c0.1,0.2,0,0.5-0.3,0.5c-0.2,0.1-0.4,0.1-0.6,0.2l0,0c-1.3,0.4-2.6,0.6-4,0.6c0.1,0-0.1,0-0.1,0l-0.2,0
			c-0.6,0-1.3,0-2,0c-0.8,0-1.5,0-2.3-0.1l0,0c3.4,3.5,8.2,5.4,13.1,5.2c12,0,22.2-5.3,26.7-17.2c3.2,0.3,6.3-0.5,7.7-3.2
			C50.7,24.7,48.2,24.7,46.1,25.7z"/>
		<path class="st4" d="M46.1,25.7c0.1-2.4-1.1-4.7-3.1-6.1c-1.5,1.7-1.7,6.3,0.6,8.2c-2,1.5-4.5,2.3-7,2.2H4
			c-0.4,3.9,1.4,7.8,4.5,10.1l0,0c1.9,0,3.9-0.3,5.8-0.8c0.2-0.1,0.5,0,0.5,0.3c0.1,0.2,0,0.5-0.3,0.5c-0.2,0.1-0.4,0.1-0.6,0.2l0,0
			c-1.3,0.4-2.7,0.6-4.1,0.7l0,0c4.1,2.1,10,2.1,16.8-0.5c7.7-3.1,14.5-8.3,19.6-14.9C46.2,25.7,46.1,25.7,46.1,25.7z"/>
		<path class="st5" d="M2.1,33.7c0.2,1.5,0.7,3.1,1.4,4.4l0.4,0.7c0.3,0.4,0.5,0.8,0.8,1.2c1.4,0.1,2.7,0.1,3.9,0.1
			c1.9,0,3.9-0.3,5.8-0.8c0.2-0.1,0.5,0,0.5,0.3c0.1,0.2,0,0.5-0.3,0.5c-0.2,0.1-0.4,0.1-0.6,0.2l0,0c-1.3,0.4-2.7,0.6-4.1,0.7H9.7
			c-0.6,0-1.3,0.1-2,0.1c-0.8,0-1.5,0-2.4-0.1c3.4,3.5,8.2,5.4,13.1,5.2c10.3,0,19.2-3.9,24.4-12.5L2.1,33.7L2.1,33.7z"/>
		<path class="st6" d="M4.3,33.7c0.5,2.6,2,5,4.2,6.5c1.9,0,3.9-0.3,5.8-0.8c0.2-0.1,0.5,0,0.5,0.3c0.1,0.2,0,0.5-0.3,0.5
			c-0.2,0.1-0.4,0.1-0.6,0.2l0,0c-1.3,0.4-2.7,0.6-4.1,0.7c4.1,2.1,10,2.1,16.8-0.5c4.2-1.6,8.1-3.9,11.6-6.8L4.3,33.7L4.3,33.7z"/>
	</g>
	<g id="Containers">
		<path class="st7" d="M6.7,24.6h4.7v4.7H6.7V24.6z"/>
		<path class="st7" d="M12.1,19.2h4.7v4.7h-4.7V19.2z"/>
		<path class="st8" d="M12.1,24.6h4.7v4.7h-4.7V24.6z"/>
		<path class="st7" d="M17.5,24.6h4.7v4.7h-4.7V24.6z"/>
		<path class="st8" d="M17.5,19.2h4.7v4.7h-4.7V19.2z"/>
		<path class="st8" d="M22.9,24.6h4.7v4.7h-4.7C22.9,29.3,22.9,24.6,22.9,24.6z"/>
		<path class="st7" d="M22.9,19.2h4.7v4.7h-4.7C22.9,23.9,22.9,19.2,22.9,19.2z"/>
		<path class="st8" d="M22.9,13.8h4.7v4.7h-4.7C22.9,18.5,22.9,13.8,22.9,13.8z"/>
		<path class="st7" d="M28.4,24.6H33v4.7h-4.7V24.6z"/>
	</g>
	<path class="st9" d="M16.5,36.9c0.7,0,1.3,0.6,1.3,1.3s-0.6,1.3-1.3,1.3c-0.7,0-1.3-0.6-1.3-1.3l0,0C15.2,37.5,15.8,36.9,16.5,36.9
		"/>
	<path class="st10" d="M16.5,37.3c0.1,0,0.2,0,0.3,0.1c-0.2,0.1-0.2,0.3-0.1,0.5c0.1,0.2,0.3,0.2,0.5,0.1c0.1,0,0.1-0.1,0.1-0.2
		c0.2,0.5,0,1-0.5,1.2c-0.5,0.2-1,0-1.2-0.5c-0.2-0.5,0-1,0.5-1.2C16.3,37.3,16.4,37.2,16.5,37.3"/>
	<path class="st11" d="M19.9,46.2c-2.6-1.1-4.8-3.2-5.9-5.8c-1.4,0.4-2.8,0.6-4.3,0.7c-0.6,0-1.3,0.1-2,0.1c-0.8,0-1.6,0-2.5-0.1
		c3.4,3.6,8.3,5.5,13.3,5.2C19,46.2,19.5,46.2,19.9,46.2z"/>
	<path class="st9" d="M15.2,42.4c-0.5-0.6-0.9-1.3-1.2-2.1c-1.4,0.4-2.8,0.6-4.3,0.7C11.4,41.9,13.3,42.4,15.2,42.4z"/>
</g>
</svg>
