<svg id="flexible" xmlns="http://www.w3.org/2000/svg" viewBox="0 0 55 60"><title>icons-flexible</title><rect width="55" height="60" style="fill:none"/><path d="M6.6,18.2L6.5,44.6a6.274,6.274,0,0,0,6.3,6.3L42.1,51a6.274,6.274,0,0,0,6.3-6.3l0.1-26.5H6.6Z" style="fill:#5e5e5e"/><path d="M42.2,9.1L12.9,9a6.274,6.274,0,0,0-6.3,6.3v3H48.5V15.5A6.3,6.3,0,0,0,42.2,9.1Z" style="fill:#bcbcbc"/><path d="M18.6,27l-5.1,3.1V28.6l3.6-2.1-3.6-1.9V22.9l5.1,3.2V27Z" style="fill:#f1f2f2"/><path d="M24.8,30.1v1H19.7v-1h5.1Z" style="fill:#f1f2f2"/><g style="opacity:0.20000000298023224"><path d="M12.9,9v3l29.3,0.1a2.9,2.9,0,0,1,2.3,1,3.255,3.255,0,0,1,1,2.3v3.9h0v3L45.4,44.7A3.329,3.329,0,0,1,42.1,48l-29.3-.1a2.9,2.9,0,0,1-2.3-1,3.255,3.255,0,0,1-1-2.3L9.6,22.9h0V15.3A3.329,3.329,0,0,1,12.9,12V9m0,0a6.274,6.274,0,0,0-6.3,6.3v4.6h0L6.5,44.6a6.274,6.274,0,0,0,6.3,6.3L42.1,51h0a6.274,6.274,0,0,0,6.3-6.3l0.1-22.4h0V15.4a6.274,6.274,0,0,0-6.3-6.3L12.9,9h0Z"/></g></svg>