<svg id="performance" xmlns="http://www.w3.org/2000/svg" viewBox="0 0 42 51.5"><title>icons-performance</title><g style="opacity:0.75"><path d="M27.5,49.4a2.958,2.958,0,0,1-1-.2L9,40.4a2.332,2.332,0,0,1-1.3-2.1V21.7A2.332,2.332,0,0,1,9,19.6l17.5-8.7a1.8,1.8,0,0,1,1-.2,2.959,2.959,0,0,1,1,.2L46,19.6a2.332,2.332,0,0,1,1.3,2.1V38.4A2.332,2.332,0,0,1,46,40.5L28.5,49.2A2.959,2.959,0,0,1,27.5,49.4Z" transform="translate(-6.5 -4.3)" style="fill:#e6e6e6"/><path d="M27.5,11.7a0.749,0.749,0,0,1,.5.1l17.5,8.7a1.1,1.1,0,0,1,.6,1V38.2a1.1,1.1,0,0,1-.6,1L28,48.1a0.9,0.9,0,0,1-.5.1,0.749,0.749,0,0,1-.5-0.1L9.5,39.4a1.1,1.1,0,0,1-.6-1V21.7a1.1,1.1,0,0,1,.6-1L27,11.9a0.764,0.764,0,0,1,.5-0.2m0-2.3a3.167,3.167,0,0,0-1.6.4L8.4,18.5a3.433,3.433,0,0,0-1.9,3.1V38.3a3.625,3.625,0,0,0,1.9,3.1l17.5,8.7a4.193,4.193,0,0,0,1.6.4,2.934,2.934,0,0,0,1.6-.4l17.5-8.7a3.433,3.433,0,0,0,1.9-3.1V21.7a3.625,3.625,0,0,0-1.9-3.1L29.1,9.8a3.167,3.167,0,0,0-1.6-.4h0Z" transform="translate(-6.5 -4.3)" style="fill:#999"/><path d="M46.2,24.3V21.7L27.5,31,8.8,21.7v2.6L26.3,33v6.1L8.8,30.4V33l17.5,8.8v6l0.6,0.3a0.9,0.9,0,0,0,.5.1,0.749,0.749,0,0,0,.5-0.1l0.6-.3v-6L46,33V30.4L28.5,39.2V33.1Z" transform="translate(-6.5 -4.3)" style="fill:#bbb"/></g><path d="M23.6,54.2a2.665,2.665,0,0,1-2-.9,2.145,2.145,0,0,1-.5-2l2.5-13.9H15.5a2.606,2.606,0,0,1-2.2-1.3,2.754,2.754,0,0,1,0-2.5L29.2,7a2.467,2.467,0,0,1,2.1-1.2,2.665,2.665,0,0,1,2,.9,2.145,2.145,0,0,1,.5,2L31.3,22.6h8.1a2.606,2.606,0,0,1,2.2,1.3,2.754,2.754,0,0,1,0,2.5L25.8,53a2.748,2.748,0,0,1-2.2,1.2h0Z" transform="translate(-6.5 -4.3)" style="fill:#3fef58"/><path d="M31.4,7.3a1.009,1.009,0,0,1,1,1.2L29.8,23a1.055,1.055,0,0,0,1,1.2h8.7a1,1,0,0,1,.9,1.5L24.5,52.2a1.02,1.02,0,0,1-.8.5,1.009,1.009,0,0,1-1-1.2L25.3,37a1.055,1.055,0,0,0-1-1.2H15.6a1,1,0,0,1-.9-1.5L30.5,7.8a0.874,0.874,0,0,1,.9-0.5m0-3h0a3.792,3.792,0,0,0-3.4,2L12.1,32.8a4,4,0,0,0,3.5,6h6.3L19.7,51a4,4,0,0,0,3.9,4.8,3.792,3.792,0,0,0,3.4-2L42.8,27.2a4,4,0,0,0-3.5-6H33L35.3,9a4.242,4.242,0,0,0-.8-3.3,4.1,4.1,0,0,0-3.1-1.4h0Z" transform="translate(-6.5 -4.3)" style="fill:#fff"/></svg>