<?xml version="1.0" encoding="utf-8"?>
<!-- Generator: Adobe Illustrator 19.2.1, SVG Export Plug-In . SVG Version: 6.00 Build 0)  -->
<!DOCTYPE svg PUBLIC "-//W3C//DTD SVG 1.1//EN" "http://www.w3.org/Graphics/SVG/1.1/DTD/svg11.dtd">
<svg version="1.1" id="security" xmlns="http://www.w3.org/2000/svg" xmlns:xlink="http://www.w3.org/1999/xlink" x="0px" y="0px"
	 viewBox="0 0 55 60" style="enable-background:new 0 0 55 60;" xml:space="preserve">
<style type="text/css">
	.st0{fill:#F2C172;}
	.st1{fill:#AD8850;}
	.st2{fill:#D1A156;}
	.st3{fill:#414042;}
</style>
<g>
	<path class="st0" d="M27.5,52.5C15.1,52.5,5,42.4,5,30C5,17.6,15.1,7.5,27.5,7.5C39.9,7.5,50,17.6,50,30
		C50,42.4,39.9,52.5,27.5,52.5z"/>
	<path class="st1" d="M27.5,9c11.6,0,21,9.4,21,21s-9.4,21-21,21s-21-9.4-21-21S15.9,9,27.5,9 M27.5,6c-13.2,0-24,10.8-24,24
		s10.8,24,24,24s24-10.8,24-24S40.7,6,27.5,6L27.5,6z"/>
</g>
<circle class="st2" cx="27.5" cy="30" r="9.9"/>
<title>icons-security</title>
<path class="st3" d="M31.1,27.6c0-2-1.6-3.6-3.6-3.6s-3.6,1.6-3.6,3.6c0,1.4,0.8,2.7,2.1,3.3l-0.6,3.4c-0.1,0.8,0.4,1.6,1.2,1.7
	c0.1,0,0.2,0,0.2,0h1.3c0.8,0,1.5-0.7,1.5-1.5c0-0.1,0-0.2,0-0.2L29,30.8C30.3,30.3,31.1,29,31.1,27.6z"/>
</svg>
