<?xml version="1.0" encoding="utf-8"?>
<!-- Generator: Adobe Illustrator 19.2.1, SVG Export Plug-In . SVG Version: 6.00 Build 0)  -->
<!DOCTYPE svg PUBLIC "-//W3C//DTD SVG 1.1//EN" "http://www.w3.org/Graphics/SVG/1.1/DTD/svg11.dtd">
<svg version="1.1" id="security" xmlns="http://www.w3.org/2000/svg" xmlns:xlink="http://www.w3.org/1999/xlink" x="0px" y="0px"
	 viewBox="0 0 55 60" style="enable-background:new 0 0 55 60;" xml:space="preserve">
<style type="text/css">
	.st0{fill:#F2C172;stroke:#AD8850;stroke-width:3;stroke-miterlimit:10;}
	.st1{fill:#D1A156;}
	.st2{fill:#414042;}
</style>
<circle class="st0" cx="27.5" cy="30" r="22.5"/>
<circle class="st1" cx="27.5" cy="30" r="9.9"/>
<title>icons-security</title>
<path class="st2" d="M31.1,27.6c0-2-1.6-3.6-3.6-3.6c-2,0-3.6,1.6-3.6,3.6c0,1.4,0.8,2.7,2.1,3.3l-0.6,3.4c-0.1,0.8,0.4,1.6,1.2,1.7
	c0.1,0,0.2,0,0.2,0h1.3c0.8,0,1.5-0.7,1.5-1.5c0-0.1,0-0.2,0-0.2L29,30.8C30.3,30.3,31.1,29,31.1,27.6z"/>
</svg>
