<?xml version="1.0" encoding="utf-8"?>
<!-- Generator: Adobe Illustrator 19.2.1, SVG Export Plug-In . SVG Version: 6.00 Build 0)  -->
<!DOCTYPE svg PUBLIC "-//W3C//DTD SVG 1.1//EN" "http://www.w3.org/Graphics/SVG/1.1/DTD/svg11.dtd">
<svg version="1.1" id="performance" xmlns="http://www.w3.org/2000/svg" xmlns:xlink="http://www.w3.org/1999/xlink" x="0px"
	 y="0px" viewBox="0 0 55 60" style="enable-background:new 0 0 55 60;" xml:space="preserve">
<style type="text/css">
	.st0{opacity:0.75;}
	.st1{fill:#E6E6E6;}
	.st2{fill:#999999;}
	.st3{fill:#BBBBBB;}
	.st4{fill:#3FEF58;}
	.st5{fill:#FFFFFF;}
</style>
<title>icons-performance</title>
<g class="st0">
	<g>
		<path class="st1" d="M27.5,49.4c-0.4,0-0.7-0.1-1-0.2L9,40.4c-0.8-0.4-1.3-1.2-1.3-2.1V21.7c0-0.9,0.5-1.7,1.3-2.1l17.5-8.7
			c0.3-0.2,0.7-0.2,1-0.2c0.4,0,0.7,0.1,1,0.2L46,19.6c0.8,0.4,1.3,1.2,1.3,2.1v16.7c0,0.9-0.5,1.7-1.3,2.1l-17.5,8.7
			C28.2,49.3,27.9,49.4,27.5,49.4z"/>
		<path class="st2" d="M27.5,11.7c0.2,0,0.4,0,0.5,0.1l17.5,8.7c0.4,0.2,0.6,0.6,0.6,1v16.7c0,0.4-0.2,0.8-0.6,1L28,48.1
			c-0.2,0.1-0.3,0.1-0.5,0.1s-0.4,0-0.5-0.1L9.5,39.4c-0.4-0.2-0.6-0.6-0.6-1V21.7c0-0.4,0.2-0.8,0.6-1L27,11.9
			C27.1,11.8,27.3,11.7,27.5,11.7 M27.5,9.4c-0.5,0-1.1,0.1-1.6,0.4L8.4,18.5c-1.2,0.6-1.9,1.8-1.9,3.1v16.7c0,1.3,0.8,2.5,1.9,3.1
			l17.5,8.7c0.5,0.2,1,0.4,1.6,0.4s1.1-0.1,1.6-0.4l17.5-8.7c1.2-0.6,1.9-1.8,1.9-3.1V21.7c0-1.3-0.8-2.5-1.9-3.1L29.1,9.8
			C28.6,9.5,28,9.4,27.5,9.4L27.5,9.4z"/>
	</g>
	<path class="st3" d="M46.2,24.3v-2.6L27.5,31L8.8,21.7v2.6L26.3,33v6.1L8.8,30.4V33l17.5,8.8v6l0.6,0.3c0.2,0.1,0.3,0.1,0.5,0.1
		s0.4,0,0.5-0.1l0.6-0.3v-6L46,33v-2.6l-17.5,8.8v-6.1L46.2,24.3z"/>
</g>
<path class="st4" d="M23.6,54.2c-0.7,0-1.5-0.3-2-0.9c-0.5-0.6-0.7-1.3-0.5-2l2.5-13.9h-8.1c-0.9,0-1.7-0.5-2.2-1.3
	c-0.4-0.8-0.4-1.7,0-2.5L29.2,7c0.5-0.8,1.3-1.2,2.1-1.2c0.7,0,1.5,0.3,2,0.9s0.7,1.3,0.5,2l-2.5,13.9h8.1c0.9,0,1.7,0.5,2.2,1.3
	c0.4,0.8,0.4,1.7,0,2.5L25.8,53C25.3,53.7,24.5,54.2,23.6,54.2L23.6,54.2z"/>
<path class="st5" d="M31.4,7.3c0.6,0,1.1,0.5,1,1.2L29.8,23c-0.1,0.6,0.4,1.2,1,1.2h8.7c0.8,0,1.3,0.8,0.9,1.5L24.5,52.2
	c-0.2,0.3-0.5,0.5-0.8,0.5c-0.6,0-1.1-0.5-1-1.2L25.3,37c0.1-0.6-0.4-1.2-1-1.2h-8.7c-0.8,0-1.3-0.8-0.9-1.5L30.5,7.8
	C30.7,7.4,31,7.3,31.4,7.3 M31.4,4.3L31.4,4.3c-1.4,0-2.7,0.7-3.4,2L12.1,32.8c-0.7,1.2-0.7,2.8,0,4s2,2,3.5,2h6.3L19.7,51
	c-0.2,1.2,0.1,2.4,0.8,3.3c0.8,0.9,1.9,1.5,3.1,1.5c1.4,0,2.7-0.7,3.4-2l15.8-26.6c0.7-1.2,0.7-2.8,0-4s-2-2-3.5-2H33L35.3,9
	c0.2-1.2-0.1-2.4-0.8-3.3C33.7,4.8,32.6,4.3,31.4,4.3L31.4,4.3z"/>
</svg>
