<svg id="performance" xmlns="http://www.w3.org/2000/svg" viewBox="0 0 42 51.501"><title>icons-performance</title><g style="opacity:0.75"><path d="M21,45.1a2.958,2.958,0,0,1-1-.2L2.5,36.1A2.332,2.332,0,0,1,1.2,34V17.4a2.332,2.332,0,0,1,1.3-2.1L20,6.6a1.8,1.8,0,0,1,1-.2,2.959,2.959,0,0,1,1,.2l17.5,8.7a2.332,2.332,0,0,1,1.3,2.1V34.1a2.332,2.332,0,0,1-1.3,2.1L22,44.9A2.959,2.959,0,0,1,21,45.1Z" transform="translate(0 0)" style="fill:#e6e6e6"/><path d="M21,7.4a0.749,0.749,0,0,1,.5.1L39,16.2a1.1,1.1,0,0,1,.6,1V33.9a1.1,1.1,0,0,1-.6,1L21.5,43.8a0.9,0.9,0,0,1-.5.1,0.749,0.749,0,0,1-.5-0.1L3,35.1a1.1,1.1,0,0,1-.6-1V17.4a1.1,1.1,0,0,1,.6-1L20.5,7.6A0.764,0.764,0,0,1,21,7.4m0-2.3a3.167,3.167,0,0,0-1.6.4L1.9,14.2A3.433,3.433,0,0,0,0,17.3V34a3.625,3.625,0,0,0,1.9,3.1l17.5,8.7a4.193,4.193,0,0,0,1.6.4,2.934,2.934,0,0,0,1.6-.4l17.5-8.7A3.433,3.433,0,0,0,42,34V17.4a3.625,3.625,0,0,0-1.9-3.1L22.6,5.5A3.167,3.167,0,0,0,21,5.1h0Z" transform="translate(0 0)" style="fill:#999"/><path d="M39.7,20V17.4L21,26.7,2.3,17.4V20l17.5,8.7v6.1L2.3,26.1v2.6l17.5,8.8v6l0.6,0.3a0.9,0.9,0,0,0,.5.1,0.749,0.749,0,0,0,.5-0.1l0.6-.3v-6l17.5-8.8V26.1L22,34.9V28.8Z" transform="translate(0 0)" style="fill:#bbb"/></g><path d="M17.1,49.9a2.665,2.665,0,0,1-2-.9,2.145,2.145,0,0,1-.5-2l2.5-13.9H9a2.606,2.606,0,0,1-2.2-1.3,2.754,2.754,0,0,1,0-2.5L22.7,2.7a2.467,2.467,0,0,1,2.1-1.2,2.665,2.665,0,0,1,2,.9,2.145,2.145,0,0,1,.5,2L24.8,18.3h8.1a2.606,2.606,0,0,1,2.2,1.3,2.754,2.754,0,0,1,0,2.5L19.3,48.7a2.748,2.748,0,0,1-2.2,1.2h0Z" transform="translate(0 0)" style="fill:#4ddb64"/><path d="M24.9,3a1.009,1.009,0,0,1,1,1.2L23.3,18.7a1.055,1.055,0,0,0,.9,1.191q0.05,0.007.1,0.009H33a1,1,0,0,1,.9,1.5L18,47.9a1.02,1.02,0,0,1-.8.5,1.009,1.009,0,0,1-1-1.2l2.6-14.5a1.055,1.055,0,0,0-.9-1.191q-0.05-.007-0.1-0.009H9.1A1,1,0,0,1,8.2,30L24,3.5A0.874,0.874,0,0,1,24.9,3m0-3h0a3.792,3.792,0,0,0-3.4,2L5.6,28.5a4,4,0,0,0,3.5,6h6.3L13.2,46.7a4,4,0,0,0,3.9,4.8,3.792,3.792,0,0,0,3.4-2L36.3,22.9a4,4,0,0,0-3.5-6H26.5L28.8,4.7A4.242,4.242,0,0,0,28,1.4,4.1,4.1,0,0,0,24.9,0h0Z" transform="translate(0 0)" style="fill:#fff"/></svg>