<svg id="performance" xmlns="http://www.w3.org/2000/svg" viewBox="0 0 55.001 60"><title>icons-performance</title><path d="M30,58.389a2.59,2.59,0,0,1-1.27-.336L5.82,45.3a3.606,3.606,0,0,1-1.709-3.16V17.855A3.6,3.6,0,0,1,5.82,14.7L28.731,1.947a2.567,2.567,0,0,1,2.539,0L54.184,14.7a3.6,3.6,0,0,1,1.709,3.16V42.15a3.6,3.6,0,0,1-1.71,3.16L31.269,58.053A2.59,2.59,0,0,1,30,58.389Z" transform="translate(-2.499)" style="fill:#fafafa"/><path d="M30,3.223a0.992,0.992,0,0,1,.485.133L53.395,16.1a2.01,2.01,0,0,1,.881,1.752v24.29a2.01,2.01,0,0,1-.881,1.752L30.484,56.644a0.955,0.955,0,0,1-.971,0L6.6,43.9a2.01,2.01,0,0,1-.881-1.752V17.855A2.01,2.01,0,0,1,6.6,16.1L29.514,3.356A0.992,0.992,0,0,1,30,3.223M30,0a4.212,4.212,0,0,0-2.053.539L5.037,13.287A5.2,5.2,0,0,0,2.5,17.855v24.29a5.2,5.2,0,0,0,2.537,4.568l22.91,12.748a4.176,4.176,0,0,0,4.105,0l22.91-12.748A5.2,5.2,0,0,0,57.5,42.145V17.855a5.2,5.2,0,0,0-2.537-4.568L32.052,0.539A4.212,4.212,0,0,0,30,0h0Z" transform="translate(-2.499)" style="fill:#ccc"/><polygon points="36.713 32 30.344 32 35.887 20 19.258 20 21.617 32 24.801 32 19.258 44 36.713 32" style="fill:#f5a11b"/></svg>