<?xml version="1.0" encoding="utf-8"?>
<!-- Generator: Adobe Illustrator 19.2.1, SVG Export Plug-In . SVG Version: 6.00 Build 0)  -->
<!DOCTYPE svg PUBLIC "-//W3C//DTD SVG 1.1//EN" "http://www.w3.org/Graphics/SVG/1.1/DTD/svg11.dtd">
<svg version="1.1" id="flexible" xmlns="http://www.w3.org/2000/svg" xmlns:xlink="http://www.w3.org/1999/xlink" x="0px" y="0px"
	 viewBox="0 0 55 60" style="enable-background:new 0 0 55 60;" xml:space="preserve">
<style type="text/css">
	.st0{fill:#5E5E5E;}
	.st1{fill:#BCBCBC;}
	.st2{fill:#F1F2F2;}
	.st3{opacity:0.2;}
</style>
<g>
	<path class="st0" d="M6.6,18.2L6.5,44.6c0,3.5,2.8,6.3,6.3,6.3L42.1,51c3.5,0,6.3-2.8,6.3-6.3l0.1-26.5H6.6z"/>
</g>
<g>
	<path class="st1" d="M42.2,9.1L12.9,9c-3.5,0-6.3,2.8-6.3,6.3l0,3h41.9l0-2.8C48.5,11.9,45.7,9.1,42.2,9.1z"/>
</g>
<title>icons-flexible</title>
<path class="st2" d="M18.6,27l-5.1,3.1v-1.5l3.6-2.1l-3.6-1.9v-1.7l5.1,3.2V27z"/>
<path class="st2" d="M24.8,30.1v1h-5.1v-1H24.8z"/>
<g class="st3">
	<path d="M12.9,9l0,3l29.3,0.1c0.9,0,1.7,0.3,2.3,1c0.6,0.6,1,1.4,1,2.3l0,3.9h0l0,3l-0.1,22.4c0,1.8-1.5,3.3-3.3,3.3l-29.3-0.1
		c-0.9,0-1.7-0.3-2.3-1c-0.6-0.6-1-1.4-1-2.3l0.1-21.7h0l0-3l0-4.6c0-1.8,1.5-3.3,3.3-3.3V9 M12.9,9c-3.5,0-6.3,2.8-6.3,6.3l0,4.6h0
		L6.5,44.6c0,3.5,2.8,6.3,6.3,6.3L42.1,51c0,0,0,0,0,0c3.5,0,6.3-2.8,6.3-6.3l0.1-22.4h0l0-6.9c0-3.5-2.8-6.3-6.3-6.3L12.9,9
		C12.9,9,12.9,9,12.9,9L12.9,9z"/>
</g>
</svg>
