<?xml version="1.0" encoding="utf-8"?>
<!-- Generator: Adobe Illustrator 19.1.0, SVG Export Plug-In . SVG Version: 6.00 Build 0)  -->
<svg version="1.1" id="Layer_1" xmlns="http://www.w3.org/2000/svg" xmlns:xlink="http://www.w3.org/1999/xlink" x="0px" y="0px"
	 viewBox="60 71 1080 420" style="enable-background:new 60 71 1080 420;" xml:space="preserve">
<style type="text/css">
	.st0{fill:#FFFFFF;}
	.st1{fill:#F7F7F7;}
	.st2{fill:#E6E6E6;}
	.st3{fill:#E8E8E8;}
	.st4{fill:url(#Rectangle-176-Copy-48_1_);}
	.st5{fill:#EEEEEE;}
	.st6{fill:url(#Rectangle-176-Copy-50_1_);}
	.st7{fill:url(#Rectangle-176-Copy-52_1_);}
	.st8{fill:url(#Rectangle-176-Copy-53_1_);}
	.st9{fill:url(#Rectangle-176-Copy-59_1_);}
	.st10{fill:url(#Rectangle-176-Copy-61_1_);}
	.st11{fill:#777777;}
	.st12{font-family:'SFUIDisplay-Medium';}
	.st13{font-size:15px;}
	.st14{fill:#6BD281;}
	.st15{fill:#B3B3B3;}
	.st16{font-family:'SFUIDisplay-Regular';}
	.st17{fill:#834EAB;}
	.st18{fill:#E1E1E1;}
	.st19{fill:#E0E0E0;}
	.st20{fill:#F8F8F8;}
	.st21{fill:#7944A3;}
	.st22{fill:#351F49;}
	.st23{fill:#853CBE;}
	.st24{fill:#682F94;}
	.st25{fill:#2F1244;}
	.st26{fill:#CCADD2;}
	.st27{filter:url(#Adobe_OpacityMaskFilter);}
	.st28{mask:url(#mask-5);fill:#44275E;}
	.st29{fill:#44275E;}
	.st30{opacity:0.25;fill:#F7F7F7;enable-background:new    ;}
	.st31{fill:#F7F0FC;}
	.st32{opacity:0.75;}
	.st33{fill:#8635C1;}
	.st34{fill:#73667F;}
	.st35{enable-background:new    ;}
	.st36{letter-spacing:-2;}
	.st37{fill:#A264D0;}
	.st38{fill:#834EAC;}
	.st39{font-family:'SFUIText-Italic';}
	.st40{font-size:12px;}
</style>
<title>isolation</title>
<desc>Created with Sketch.</desc>
<rect id="Rectangle-326" x="434" y="101" class="st0" width="705" height="390"/>
<g id="Rectangle-7-Copy-28">
	<path class="st1" d="M450,336c-1.1,0-2-0.9-2-2v-82c0-1.1,0.9-2,2-2h269c1.1,0,2,0.9,2,2v82c0,1.1-0.9,2-2,2H450z"/>
	<path class="st2" d="M719,251c0.6,0,1,0.4,1,1v82c0,0.6-0.4,1-1,1H450c-0.6,0-1-0.4-1-1v-82c0-0.6,0.4-1,1-1H719 M719,249H450
		c-1.7,0-3,1.3-3,3v82c0,1.7,1.3,3,3,3h269c1.7,0,3-1.3,3-3v-82C722,250.3,720.7,249,719,249L719,249z"/>
</g>
<g id="Rectangle-7-Copy-29">
	<path class="st1" d="M752,190c-1.1,0-2-0.9-2-2v-30c0-1.1,0.9-2,2-2h372c1.1,0,2,0.9,2,2v30c0,1.1-0.9,2-2,2H752z"/>
	<path class="st2" d="M1124,157c0.6,0,1,0.4,1,1v30c0,0.6-0.4,1-1,1H752c-0.6,0-1-0.4-1-1v-30c0-0.6,0.4-1,1-1H1124 M1124,155H752
		c-1.7,0-3,1.3-3,3v30c0,1.7,1.3,3,3,3h372c1.7,0,3-1.3,3-3v-30C1127,156.3,1125.7,155,1124,155L1124,155z"/>
</g>
<g id="Rectangle-7-Copy-30">
	<path class="st1" d="M582,190c-1.1,0-2-0.9-2-2v-30c0-1.1,0.9-2,2-2h156c1.1,0,2,0.9,2,2v30c0,1.1-0.9,2-2,2H582z"/>
	<path class="st2" d="M738,157c0.6,0,1,0.4,1,1v30c0,0.6-0.4,1-1,1H582c-0.6,0-1-0.4-1-1v-30c0-0.6,0.4-1,1-1H738 M738,155H582
		c-1.7,0-3,1.3-3,3v30c0,1.7,1.3,3,3,3h156c1.7,0,3-1.3,3-3v-30C741,156.3,739.7,155,738,155L738,155z"/>
</g>
<g id="Rectangle-7-Copy-31">
	<path class="st1" d="M450,190c-1.1,0-2-0.9-2-2v-30c0-1.1,0.9-2,2-2h117c1.1,0,2,0.9,2,2v30c0,1.1-0.9,2-2,2H450z"/>
	<path class="st2" d="M567,157c0.6,0,1,0.4,1,1v30c0,0.6-0.4,1-1,1H450c-0.6,0-1-0.4-1-1v-30c0-0.6,0.4-1,1-1H567 M567,155H450
		c-1.7,0-3,1.3-3,3v30c0,1.7,1.3,3,3,3h117c1.7,0,3-1.3,3-3v-30C570,156.3,568.7,155,567,155L567,155z"/>
</g>
<rect id="Rectangle-2-Copy-18" x="150" y="101" class="st1" width="284" height="390"/>
<circle id="Oval-1-Copy-45" class="st3" cx="466.5" cy="173.5" r="4.5"/>
<linearGradient id="Rectangle-176-Copy-48_1_" gradientUnits="userSpaceOnUse" x1="120.2308" y1="553.8333" x2="119.2308" y2="553.8333" gradientTransform="matrix(78 0 0 -9 -8823 5158)">
	<stop  offset="0" style="stop-color:#E8E8E8;stop-opacity:0"/>
	<stop  offset="1" style="stop-color:#E8E8E8"/>
</linearGradient>
<path id="Rectangle-176-Copy-48" class="st4" d="M481.5,169h69c2.5,0,4.5,2,4.5,4.5l0,0c0,2.5-2,4.5-4.5,4.5h-69
	c-2.5,0-4.5-2-4.5-4.5l0,0C477,171,479,169,481.5,169z"/>
<path id="Rectangle-176-Copy-49" class="st5" d="M451.5,222h79c2.5,0,4.5,2,4.5,4.5l0,0c0,2.5-2,4.5-4.5,4.5h-79
	c-2.5,0-4.5-2-4.5-4.5l0,0C447,224,449,222,451.5,222z"/>
<linearGradient id="Rectangle-176-Copy-50_1_" gradientUnits="userSpaceOnUse" x1="120.3333" y1="553.8333" x2="119.3333" y2="553.8333" gradientTransform="matrix(90 0 0 -9 -10263 5253)">
	<stop  offset="0" style="stop-color:#E8E8E8;stop-opacity:0"/>
	<stop  offset="1" style="stop-color:#E8E8E8"/>
</linearGradient>
<path id="Rectangle-176-Copy-50" class="st6" d="M481.5,264h81c2.5,0,4.5,2,4.5,4.5l0,0c0,2.5-2,4.5-4.5,4.5h-81
	c-2.5,0-4.5-2-4.5-4.5l0,0C477,266,479,264,481.5,264z"/>
<path id="Rectangle-176-Copy-51" class="st3" d="M466.5,264L466.5,264c2.5,0,4.5,2,4.5,4.5l0,0c0,2.5-2,4.5-4.5,4.5l0,0
	c-2.5,0-4.5-2-4.5-4.5l0,0C462,266,464,264,466.5,264z"/>
<linearGradient id="Rectangle-176-Copy-52_1_" gradientUnits="userSpaceOnUse" x1="120.6" y1="553.8333" x2="119.6" y2="553.8333" gradientTransform="matrix(150 0 0 -9 -17463 5274)">
	<stop  offset="0" style="stop-color:#E8E8E8;stop-opacity:0"/>
	<stop  offset="1" style="stop-color:#E8E8E8"/>
</linearGradient>
<path id="Rectangle-176-Copy-52" class="st7" d="M481.5,285h141c2.5,0,4.5,2,4.5,4.5l0,0c0,2.5-2,4.5-4.5,4.5h-141
	c-2.5,0-4.5-2-4.5-4.5l0,0C477,287,479,285,481.5,285z"/>
<linearGradient id="Rectangle-176-Copy-53_1_" gradientUnits="userSpaceOnUse" x1="120" y1="553.8333" x2="119" y2="553.8333" gradientTransform="matrix(60 0 0 -9 -6663 5306)">
	<stop  offset="0" style="stop-color:#E8E8E8;stop-opacity:0"/>
	<stop  offset="1" style="stop-color:#E8E8E8"/>
</linearGradient>
<path id="Rectangle-176-Copy-53" class="st8" d="M481.5,317h51c2.5,0,4.5,2,4.5,4.5l0,0c0,2.5-2,4.5-4.5,4.5h-51
	c-2.5,0-4.5-2-4.5-4.5l0,0C477,319,479,317,481.5,317z"/>
<path id="Rectangle-176-Copy-54" class="st3" d="M687.5,317h15c2.5,0,4.5,2,4.5,4.5l0,0c0,2.5-2,4.5-4.5,4.5h-15
	c-2.5,0-4.5-2-4.5-4.5l0,0C683,319,685,317,687.5,317z"/>
<path id="Rectangle-176-Copy-55" class="st5" d="M754.5,222h63c2.5,0,4.5,2,4.5,4.5l0,0c0,2.5-2,4.5-4.5,4.5h-63
	c-2.5,0-4.5-2-4.5-4.5l0,0C750,224,752,222,754.5,222z"/>
<path id="Rectangle-176-Copy-56" class="st5" d="M857.5,222h63c2.5,0,4.5,2,4.5,4.5l0,0c0,2.5-2,4.5-4.5,4.5h-63
	c-2.5,0-4.5-2-4.5-4.5l0,0C853,224,855,222,857.5,222z"/>
<path id="Rectangle-176-Copy-57" class="st5" d="M960.5,222h63c2.5,0,4.5,2,4.5,4.5l0,0c0,2.5-2,4.5-4.5,4.5h-63
	c-2.5,0-4.5-2-4.5-4.5l0,0C956,224,958,222,960.5,222z"/>
<path id="Rectangle-176-Copy-58" class="st5" d="M451.5,376h79c2.5,0,4.5,2,4.5,4.5l0,0c0,2.5-2,4.5-4.5,4.5h-79
	c-2.5,0-4.5-2-4.5-4.5l0,0C447,378,449,376,451.5,376z"/>
<circle id="Oval-1-Copy-46" class="st3" cx="598.5" cy="173.5" r="4.5"/>
<linearGradient id="Rectangle-176-Copy-59_1_" gradientUnits="userSpaceOnUse" x1="120.4872" y1="553.8333" x2="119.4872" y2="553.8333" gradientTransform="matrix(117 0 0 -9 -13371 5158)">
	<stop  offset="0" style="stop-color:#E8E8E8;stop-opacity:0"/>
	<stop  offset="1" style="stop-color:#E8E8E8"/>
</linearGradient>
<path id="Rectangle-176-Copy-59" class="st9" d="M613.5,169h108c2.5,0,4.5,2,4.5,4.5l0,0c0,2.5-2,4.5-4.5,4.5h-108
	c-2.5,0-4.5-2-4.5-4.5l0,0C609,171,611,169,613.5,169z"/>
<path id="Rectangle-176-Copy-60" class="st3" d="M764.5,169h16c2.5,0,4.5,2,4.5,4.5l0,0c0,2.5-2,4.5-4.5,4.5h-16
	c-2.5,0-4.5-2-4.5-4.5l0,0C760,171,762,169,764.5,169z"/>
<linearGradient id="Rectangle-176-Copy-61_1_" gradientUnits="userSpaceOnUse" x1="120.8058" y1="553.8333" x2="119.8058" y2="553.8333" gradientTransform="matrix(309 0 0 -9 -36217 5158)">
	<stop  offset="0" style="stop-color:#E8E8E8;stop-opacity:0"/>
	<stop  offset="1" style="stop-color:#E8E8E8"/>
</linearGradient>
<path id="Rectangle-176-Copy-61" class="st10" d="M807.5,169h300c2.5,0,4.5,2,4.5,4.5l0,0c0,2.5-2,4.5-4.5,4.5h-300
	c-2.5,0-4.5-2-4.5-4.5l0,0C803,171,805,169,807.5,169z"/>
<text transform="matrix(1 0 0 1 190 160)" class="st11 st12 st13">master</text>
<circle id="Oval-1-Copy-47" class="st14" cx="176.5" cy="154.5" r="4.5"/>
<circle id="Oval-1-Copy-48" class="st14" cx="176.5" cy="184.5" r="4.5"/>
<circle id="Oval-1-Copy-49" class="st14" cx="176.5" cy="267.5" r="4.5"/>
<text transform="matrix(1 0 0 1 190 190)" class="st11 st12 st13">2FA-form</text>
<text transform="matrix(1 0 0 1 190 273)" class="st11 st12 st13">master</text>
<text transform="matrix(1 0 0 1 190 130)" class="st15 st16 st13">web-repository</text>
<text transform="matrix(1 0 0 1 190 243)" class="st15 st16 st13">api-repository</text>
<circle id="Oval-1-Copy-57" class="st14" cx="176.5" cy="411.5" r="4.5"/>
<text transform="matrix(1 0 0 1 190 417)" class="st11 st12 st13">PostgreSQL</text>
<rect id="Rectangle-14-Copy-7" x="793" y="157" class="st2" width="2" height="32"/>
<rect id="Rectangle-2-Copy-19" x="60" y="101" class="st17" width="90" height="390"/>
<rect id="Rectangle-3-Copy-39" x="162" y="211" class="st18" width="260" height="1"/>
<rect id="Rectangle-3-Copy-40" x="162" y="385" class="st18" width="260" height="1"/>
<rect id="Rectangle-3-Copy-42" x="447" y="354" class="st19" width="275" height="1"/>
<rect id="Rectangle-3-Copy-43" x="447" y="307" class="st2" width="275" height="1"/>
<rect id="Rectangle-5-Copy-42" x="434" y="101" class="st18" width="1" height="390"/>
<rect id="Rectangle-5-Copy-43" x="734" y="204" class="st19" width="1" height="287"/>
<rect id="Rectangle-5-Copy-44" x="837" y="204" class="st19" width="1" height="45"/>
<rect id="Rectangle-5-Copy-45" x="940" y="204" class="st19" width="1" height="45"/>
<rect id="Rectangle-5-Copy-46" x="1043" y="204" class="st19" width="1" height="45"/>
<rect id="Rectangle-24-Copy-7" x="735" y="249" class="st1" width="404" height="242"/>
<g id="Rectangle-480-Copy-13">
	<path class="st20" d="M60.5,100.5V74c0-1.4,1.1-2.5,2.5-2.5h1074c1.4,0,2.5,1.1,2.5,2.5v26.5H60.5z"/>
	<path class="st18" d="M1137,72c1.1,0,2,0.9,2,2v26H61V74c0-1.1,0.9-2,2-2H1137 M1137,71H63c-1.7,0-3,1.3-3,3v27h1080V74
		C1140,72.3,1138.7,71,1137,71L1137,71z"/>
</g>
<g id="Oval-67-Copy-42">
	<path class="st18" d="M78,81c2.8,0,5,2.2,5,5s-2.2,5-5,5s-5-2.2-5-5S75.2,81,78,81 M78,80c-3.3,0-6,2.7-6,6s2.7,6,6,6
		c3.3,0,6-2.7,6-6S81.3,80,78,80L78,80z"/>
</g>
<g id="Oval-67-Copy-43">
	<path class="st18" d="M99,81c2.8,0,5,2.2,5,5s-2.2,5-5,5s-5-2.2-5-5S96.2,81,99,81 M99,80c-3.3,0-6,2.7-6,6s2.7,6,6,6s6-2.7,6-6
		S102.3,80,99,80L99,80z"/>
</g>
<g id="Oval-67-Copy-44">
	<path class="st18" d="M120,81c2.8,0,5,2.2,5,5s-2.2,5-5,5s-5-2.2-5-5S117.2,81,120,81 M120,80c-3.3,0-6,2.7-6,6s2.7,6,6,6
		s6-2.7,6-6S123.3,80,120,80L120,80z"/>
</g>
<rect id="Rectangle-3-Copy-44" x="735" y="249" class="st19" width="404" height="1"/>
<rect id="Rectangle-3-Copy-45" x="434" y="203" class="st19" width="705" height="1"/>
<path id="Rectangle-232-Copy-9" class="st21" d="M88.5,242h33c2.5,0,4.5,2,4.5,4.5l0,0c0,2.5-2,4.5-4.5,4.5h-33
	c-2.5,0-4.5-2-4.5-4.5l0,0C84,244,86,242,88.5,242z"/>
<path id="Rectangle-232-Copy-10" class="st21" d="M93,191h24c5,0,9,4,9,9v24c0,5-4,9-9,9H93c-5,0-9-4-9-9v-24C84,195,88,191,93,191z
	"/>
<path id="Rectangle-232-Copy-12" class="st21" d="M88.5,326h33c2.5,0,4.5,2,4.5,4.5l0,0c0,2.5-2,4.5-4.5,4.5h-33
	c-2.5,0-4.5-2-4.5-4.5l0,0C84,328,86,326,88.5,326z"/>
<path id="Rectangle-232-Copy-11" class="st21" d="M93,275h24c5,0,9,4,9,9v24c0,5-4,9-9,9H93c-5,0-9-4-9-9v-24C84,279,88,275,93,275z
	"/>
<g>
	<path id="Rectangle-236-Copy-4" class="st5" d="M675.5,124h134c2.5,0,4.5,2,4.5,4.5l0,0c0,2.5-2,4.5-4.5,4.5h-134
		c-2.5,0-4.5-2-4.5-4.5l0,0C671,126,673,124,675.5,124z"/>
	<path id="Rectangle-236-Copy-5" class="st5" d="M827.5,124h70c2.5,0,4.5,2,4.5,4.5l0,0c0,2.5-2,4.5-4.5,4.5h-70
		c-2.5,0-4.5-2-4.5-4.5l0,0C823,126,825,124,827.5,124z"/>
</g>
<rect id="Rectangle-5-Copy-49" x="1139" y="101" class="st19" width="1" height="390"/>
<path class="st22" d="M122.8,145.3L122.8,145.3c-0.1-0.6-0.1-1.3-0.2-1.9c-0.1-0.7-0.2-1.5-0.3-2.2c-0.1-0.5-0.1-1-0.2-1.4
	c-0.2-1.4-0.5-2.8-0.9-4c0.4-0.4,0.8-0.8,1.4-1.1c0.3-0.2,0.5-0.3,0.8-0.5c0.4-0.2,0.7-0.5,1.1-0.7c0.5-0.3,1-0.7,1.3-1.1
	c0.3-0.4,0.6-0.8,0.8-1.3c0,0,0,0,0,0c0.2-0.5,0.3-1,0.2-1.7c0-0.2,0-0.4-0.1-0.6c-0.1-0.4-0.3-0.8-0.5-1.2
	c-0.1-0.1-0.1-0.2-0.2-0.3c-0.1-0.1-0.1-0.2-0.2-0.2c-0.3-0.4-0.8-0.8-1.2-1.2c-0.8-0.6-1.8-1.1-2.7-1.3c-0.2-0.1-0.5-0.1-0.7-0.2
	c-0.2,0-0.4-0.1-0.7-0.1c-0.4,0-0.8,0-1.2,0.1c-2.3,0.5-3.5,2.4-4.1,4.4c-2-0.7-4.1-1-6.5-1.2c0.1-0.2,0.3-0.3,0.4-0.5
	c0.2-0.2,0.2-0.4,0.1-0.6c0-0.1-0.1-0.1-0.1-0.1c-0.1-0.1-0.2-0.2-0.4-0.2c0,0,0,0,0,0l0,0c-0.1,0-0.2,0-0.3,0c-0.1,0-0.2,0-0.3,0
	c-0.2,0-0.3,0-0.5,0c0-0.1,0-0.1,0.1-0.2c0,0,0,0,0,0c0-0.1,0-0.1,0-0.2c0,0,0-0.1-0.1-0.1c-0.1-0.2-0.2-0.3-0.4-0.3
	c-0.3,0-0.6-0.1-0.8-0.1c-1.9,0-3.6,1.1-4.9,2.1c-0.6,0-1.3,0.1-1.8,0.2c-2,0.2-3.7,0.5-5.2,1c-0.4-1.1-0.9-2.1-1.7-2.9
	c-0.6-0.6-1.4-1.1-2.3-1.3c-0.2,0-0.4-0.1-0.6-0.1c-0.2,0-0.4,0-0.6,0c-1.3,0.1-2.8,0.6-4,1.5c-1,0.8-1.7,1.7-2.1,2.6
	c0,0.1-0.1,0.2-0.1,0.3c0,0.1,0,0.1,0,0.2c0,0.2-0.1,0.3-0.1,0.5c-0.1,1.2,0.3,2.1,1,2.8c0,0,0,0.1,0.1,0.1c0,0,0,0,0,0
	c0.7,0.7,1.6,1.3,2.4,1.8c0.6,0.4,1.2,0.7,1.6,1.1c-0.2,0.7-0.4,1.4-0.6,2.2c-0.3,1.3-0.5,2.7-0.7,4.1l0,0c-0.2,1.3-0.4,2.7-0.5,4.1
	c0,0.5-0.1,0.9-0.1,1.4c0,0,0,0,0,0.1v1.6c0,6.2,4.5,11.1,7.1,13.4c1.9,1.6,3.9,3,5.9,4c2,1,3.9,1.5,5.4,1.5c1.5,0,3.4-0.6,5.4-1.5
	c1.7-0.8,3.5-2,5.2-3.3c0.3-0.2,0.5-0.4,0.8-0.6c0.1-0.1,0.3-0.2,0.4-0.4c0.1-0.1,0.1-0.1,0.2-0.2c0.9-0.9,2-2,3-3.3
	c0.3-0.4,0.5-0.7,0.8-1.1c0.3-0.5,0.6-1,0.9-1.6c0.3-0.7,0.7-1.3,0.9-2c0.1-0.3,0.2-0.5,0.3-0.8c0.4-1.2,0.6-2.6,0.6-4v0v-1.9v0l0,0
	c0,0,0,0,0,0c0,0,0,0.1,0,0.1l0,0.1c0,0,0-0.1,0-0.1c0,0,0-0.1,0-0.1c0,0,0,0,0,0c0,0,0,0,0,0c0,0,0,0,0,0c0,0,0,0,0,0c0,0,0,0,0,0
	c0-0.4-0.1-0.8-0.1-1.2L122.8,145.3"/>
<path class="st22" d="M123.1,146.7"/>
<g id="Page-1" transform="translate(23.000000, 53.000000)">
	<path id="Fill-4" class="st23" d="M65.9,80.1c-1.2-0.9-2.6-1.8-2.7-2.6c-0.2-0.9,0.9-2.2,2.7-1.7c0.9,0.3,1.6,0.8,2.1,1.5
		c0.7-0.5,1.5-1,2.4-1.4c-0.6-1.7-1.5-3.1-3.3-3.5c-1.1-0.3-2.9,0.2-4.2,1.3c-1.1,0.8-1.7,1.8-1.8,2.7c-0.1,1.8,1.3,2.7,2.9,3.7
		c0.5,0.3,1,0.6,1.4,1C65.6,80.7,65.7,80.4,65.9,80.1"/>
	<path id="Fill-6" class="st23" d="M102.7,76.3c-0.1-0.9-0.7-1.9-1.8-2.7c-1.4-1-3.1-1.5-4.2-1.3c-1.8,0.4-2.8,2-3.3,3.8
		c0.6,0.3,1.2,0.6,1.8,1c0.2,0.1,0.4,0.3,0.6,0.5c0.5-0.8,1.3-1.5,2.3-1.8c1.8-0.5,2.9,0.8,2.7,1.7c-0.2,0.9-1.8,2-3.2,2.9
		c0.1,0.3,0.3,0.7,0.4,1c0.6-0.5,1.3-1,1.9-1.4C101.4,79.1,102.8,78.2,102.7,76.3"/>
	<path id="Fill-8" class="st23" d="M92.2,87.1c-0.9,0-1.7-0.8-1.7-1.7c0-0.9,0.8-1.7,1.7-1.7c0.9,0,1.7,0.8,1.7,1.7
		C93.9,86.4,93.1,87.1,92.2,87.1 M89.4,80.4c0-0.3,0.3-0.6,0.6-0.6c0.5,0,1,0.1,1.5,0.2c0.2,0,0.4,0.1,0.6,0.1
		c0.2,0.1,0.4,0.1,0.5,0.2c2.3,0.9,3.4,2.7,3.5,2.8c0.2,0.3,0.1,0.6-0.2,0.8C95.8,84,95.7,84,95.6,84c-0.2,0-0.4-0.1-0.5-0.3
		c-0.1-0.1-0.9-1.5-2.6-2.2c-0.2-0.1-0.4-0.2-0.5-0.2c-0.2-0.1-0.4-0.1-0.6-0.2c-0.4-0.1-0.9-0.2-1.4-0.2
		C89.6,80.9,89.4,80.7,89.4,80.4 M88.4,98.4c-0.6,1.6-1.4,3.3-2.1,4.9c-0.3,0.6-0.5,1.1-0.7,1.7c0,0.1-0.1,0.1-0.1,0.1
		c-0.1,0.2-0.3,0.2-0.5,0.2c-0.1,0-0.2,0-0.2-0.1c-0.4,0.4-0.8,0.6-1.3,0.6c0,0,0,0-0.1,0c-0.7,0-1.4-0.5-2.2-1.4
		c-0.2,0.1-0.6,0.2-1,0.4c-0.4,0.2-1,0.4-1.1,0.5c-0.1,0.1-0.3,0.2-0.4,0.2c-0.2,0-0.3-0.1-0.4-0.2c-3-3.7-6.2-14.1-2.6-19.2
		c1.9-2.7,6.7-3.5,10.2-1.7C87.8,85.5,92.1,89,88.4,98.4 M73.5,80.9c-0.4,0-0.7,0-1.1,0.1c-0.2,0-0.4,0.1-0.6,0.1
		c-0.2,0.1-0.4,0.1-0.5,0.2c-1.9,0.8-2.9,2.3-2.9,2.4c-0.1,0.2-0.3,0.3-0.5,0.3c-0.1,0-0.2,0-0.3-0.1c-0.3-0.2-0.3-0.5-0.2-0.8
		c0.1-0.1,1.3-2.1,3.8-2.9c0.2-0.1,0.4-0.1,0.6-0.2c0.2,0,0.4-0.1,0.6-0.1c0.4-0.1,0.8-0.1,1.2-0.1c0.3,0,0.6,0.3,0.6,0.6
		C74.1,80.7,73.8,80.9,73.5,80.9 M71.3,87.1c-0.9,0-1.7-0.8-1.7-1.7c0-0.9,0.8-1.7,1.7-1.7c0.9,0,1.7,0.8,1.7,1.7
		C73,86.4,72.3,87.1,71.3,87.1 M97.8,85.7c-0.1-0.4-0.1-0.7-0.2-1.1c-0.1-0.5-0.2-0.9-0.3-1.4C97.1,83,97,82.7,97,82.5
		c-0.1-0.5-0.3-0.9-0.5-1.4c-0.4-1-0.9-1.9-1.5-2.5c-0.2-0.2-0.4-0.4-0.6-0.5c-0.5-0.3-0.9-0.6-1.4-0.8c-0.2-0.1-0.4-0.2-0.5-0.2
		c-0.2-0.1-0.4-0.1-0.5-0.2c-2.1-0.8-4.5-1-7.3-1.3c-0.2,0-0.4-0.1-0.4-0.3c-0.1-0.2-0.1-0.4,0-0.5c0.1-0.2,0.2-0.3,0.3-0.5
		c-0.4,0-0.8,0.1-1.3,0.5c-0.2,0.2-0.6,0.1-0.8-0.1c-0.2-0.2-0.2-0.6,0.1-0.8c0.1-0.1,0.3-0.3,0.4-0.5c-1.5,0.2-2.8,1.1-3.8,1.9
		c-0.1,0.1-0.2,0.1-0.3,0.1c-2.9,0.2-5.2,0.5-7,1.2c-0.2,0.1-0.4,0.1-0.5,0.2c-0.2,0.1-0.4,0.1-0.5,0.2c-0.8,0.4-1.5,0.8-2.1,1.3
		c-0.1,0-0.1,0.1-0.2,0.1c-0.6,0.5-1.2,1.3-1.6,2.3c-0.2,0.3-0.3,0.7-0.4,1.1c-0.1,0.2-0.1,0.4-0.2,0.6c-0.1,0.2-0.1,0.5-0.2,0.7
		c-0.8,2.7-1.2,6.1-1.6,9.5c1.4,8.9,10.4,15.9,17.1,15.9c6.9,0,15.9-7,17.2-16c-0.2-1.8-0.4-4-0.8-6.1
		C97.8,86.1,97.8,85.9,97.8,85.7"/>
	<path id="Fill-10" class="st24" d="M98.7,92.5c-1.3,9-10.3,16-17.2,16c-6.8,0-15.7-6.9-17.1-15.9c-0.1,0.5-0.1,1-0.2,1.5v0.5v1.1
		c0,0.3,0,0.6,0,0.8c0,0,0,0.1,0,0.1c0,0.1,0,0.2,0,0.2c0,0.1,0,0.2,0,0.3c0,0.1,0,0.2,0,0.2c0,0.1,0,0.2,0,0.3c0,0.1,0,0.2,0,0.2
		c0,0.1,0,0.2,0.1,0.3c0,0.1,0,0.1,0,0.2c0,0.1,0,0.2,0.1,0.3c0,0.1,0,0.1,0.1,0.2c0,0.1,0,0.2,0.1,0.3c0,0.1,0,0.1,0.1,0.2
		c0,0.1,0.1,0.2,0.1,0.3c0,0.1,0,0.1,0.1,0.2c0,0.1,0.1,0.2,0.1,0.3c0,0.1,0,0.1,0.1,0.2c0,0.1,0.1,0.2,0.1,0.3c0,0.1,0,0.1,0.1,0.2
		c0,0.1,0.1,0.2,0.1,0.3c0,0.1,0,0.1,0.1,0.2c0.1,0.1,0.1,0.2,0.2,0.3c0,0,0,0.1,0,0.1c0.1,0.1,0.1,0.3,0.2,0.4c0,0,0,0.1,0.1,0.1
		c0.1,0.1,0.1,0.2,0.2,0.3c0,0,0.1,0.1,0.1,0.1c0.1,0.1,0.1,0.2,0.2,0.3c0,0.1,0.1,0.1,0.1,0.2c0,0.1,0.1,0.2,0.1,0.2
		c0,0.1,0.1,0.1,0.1,0.2c0,0.1,0.1,0.1,0.1,0.2c0,0.1,0.1,0.1,0.1,0.2c0,0.1,0.1,0.1,0.1,0.2c0,0.1,0.1,0.1,0.1,0.2
		c0,0.1,0.1,0.1,0.1,0.2c0,0.1,0.1,0.1,0.1,0.2c0,0.1,0.1,0.1,0.1,0.2c0,0.1,0.1,0.1,0.1,0.2c0,0.1,0.1,0.1,0.1,0.2
		c0,0.1,0.1,0.1,0.1,0.2c0,0.1,0.1,0.1,0.1,0.2c0,0,0.1,0.1,0.1,0.1c0.1,0.1,0.1,0.1,0.2,0.2c0,0,0.1,0.1,0.1,0.1
		c0.1,0.1,0.1,0.1,0.2,0.2c0,0,0.1,0.1,0.1,0.1c0.1,0.1,0.1,0.1,0.2,0.2c0,0,0.1,0.1,0.1,0.1c0.1,0.1,0.1,0.1,0.2,0.2
		c0,0,0.1,0.1,0.1,0.1c0.1,0.1,0.1,0.1,0.2,0.2c0,0,0.1,0.1,0.1,0.1c0.1,0.1,0.1,0.1,0.2,0.2c0,0,0.1,0.1,0.1,0.1
		c0.1,0.1,0.1,0.1,0.2,0.1c0,0,0.1,0.1,0.1,0.1c0.1,0,0.1,0.1,0.2,0.1c0,0,0.1,0.1,0.1,0.1c0.1,0.1,0.1,0.1,0.2,0.2
		c0,0,0.1,0,0.1,0.1c0.1,0.1,0.2,0.1,0.2,0.2c3.5,3.1,7.9,5.2,10.6,5.2c2.7,0,7-2.1,10.6-5.2c0.1-0.1,0.2-0.1,0.2-0.2
		c0,0,0,0,0.1-0.1c0.1-0.1,0.1-0.1,0.2-0.2c0,0,0.1-0.1,0.1-0.1c0.1,0,0.1-0.1,0.2-0.1c0,0,0.1-0.1,0.1-0.1c0.1,0,0.1-0.1,0.2-0.2
		c0,0,0.1-0.1,0.1-0.1c0.1-0.1,0.1-0.1,0.2-0.2c0,0,0.1-0.1,0.1-0.1c0.1-0.1,0.1-0.1,0.2-0.2c0,0,0.1-0.1,0.1-0.1
		c0.1-0.1,0.1-0.1,0.2-0.2c0,0,0.1-0.1,0.1-0.1c0.1-0.1,0.1-0.1,0.2-0.2c0,0,0.1-0.1,0.1-0.1c0.1-0.1,0.1-0.1,0.2-0.2
		c0,0,0.1-0.1,0.1-0.1c0.1-0.1,0.1-0.1,0.2-0.2c0,0,0.1-0.1,0.1-0.1c0.1-0.1,0.1-0.1,0.2-0.2c0,0,0.1-0.1,0.1-0.1
		c0.1-0.1,0.1-0.1,0.2-0.2c0,0,0.1-0.1,0.1-0.1c0.1-0.1,0.1-0.1,0.2-0.2c0-0.1,0.1-0.1,0.1-0.2c0.1-0.1,0.1-0.1,0.2-0.2
		c0-0.1,0.1-0.1,0.1-0.2c0.1-0.1,0.1-0.1,0.2-0.2c0-0.1,0.1-0.1,0.1-0.2c0.1-0.1,0.1-0.2,0.2-0.2c0-0.1,0.1-0.1,0.1-0.1
		c0.1-0.1,0.1-0.2,0.2-0.3c0,0,0.1-0.1,0.1-0.1c0.1-0.1,0.1-0.2,0.2-0.3c0,0,0-0.1,0.1-0.1c0.2-0.3,0.3-0.6,0.5-0.8c0,0,0-0.1,0-0.1
		c0.1-0.1,0.1-0.2,0.2-0.3c0,0,0-0.1,0.1-0.1c0-0.1,0.1-0.2,0.1-0.3c0-0.1,0-0.1,0.1-0.2c0-0.1,0.1-0.2,0.1-0.3c0-0.1,0-0.1,0.1-0.2
		c0-0.1,0.1-0.2,0.1-0.3c0-0.1,0-0.1,0.1-0.2c0-0.1,0.1-0.2,0.1-0.3c0-0.1,0-0.1,0.1-0.2c0-0.1,0.1-0.2,0.1-0.3c0-0.1,0-0.1,0.1-0.2
		c0-0.1,0-0.2,0.1-0.3c0-0.1,0-0.1,0-0.2c0-0.1,0-0.2,0.1-0.3c0-0.1,0-0.1,0-0.2c0-0.1,0-0.2,0-0.3c0-0.1,0-0.1,0-0.2
		c0-0.1,0-0.2,0-0.3c0-0.1,0-0.1,0-0.2c0,0,0-0.1,0-0.1c0-0.3,0-0.6,0-0.9v-1.1v-0.8C98.8,93.4,98.7,93,98.7,92.5"/>
	<path id="Fill-14" class="st25" d="M73.5,79.8c-0.4,0-0.8,0-1.2,0.1c-0.2,0-0.4,0.1-0.6,0.1c-0.2,0-0.4,0.1-0.6,0.2
		c-2.5,0.9-3.7,2.8-3.8,2.9c-0.2,0.3-0.1,0.6,0.2,0.8c0.1,0.1,0.2,0.1,0.3,0.1c0.2,0,0.4-0.1,0.5-0.3c0,0,1-1.6,2.9-2.4
		c0.2-0.1,0.4-0.1,0.5-0.2c0.2-0.1,0.4-0.1,0.6-0.1c0.3-0.1,0.7-0.1,1.1-0.1c0.3,0,0.6-0.3,0.6-0.6C74.1,80.1,73.8,79.8,73.5,79.8"
		/>
	<path id="Fill-16" class="st25" d="M71.3,83.7c-0.9,0-1.7,0.8-1.7,1.7c0,0.9,0.8,1.7,1.7,1.7s1.7-0.8,1.7-1.7
		C73,84.5,72.3,83.7,71.3,83.7"/>
	<path id="Fill-18" class="st25" d="M96,83.1c-0.1-0.1-1.2-1.9-3.5-2.8c-0.2-0.1-0.4-0.1-0.5-0.2c-0.2-0.1-0.4-0.1-0.6-0.1
		c-0.5-0.1-1-0.2-1.5-0.2c-0.3,0-0.6,0.3-0.6,0.6c0,0.3,0.3,0.6,0.6,0.6c0.5,0,1,0.1,1.4,0.2c0.2,0,0.4,0.1,0.6,0.2
		c0.2,0.1,0.4,0.1,0.5,0.2c1.7,0.8,2.6,2.2,2.6,2.2c0.1,0.2,0.3,0.3,0.5,0.3c0.1,0,0.2,0,0.3-0.1C96.1,83.8,96.2,83.4,96,83.1"/>
	<path id="Fill-20" class="st25" d="M92.2,83.7c-0.9,0-1.7,0.8-1.7,1.7c0,0.9,0.8,1.7,1.7,1.7c0.9,0,1.7-0.8,1.7-1.7
		C93.9,84.5,93.1,83.7,92.2,83.7"/>
	<path id="Fill-22" class="st26" d="M82.5,92.8C82.5,92.8,82.5,92.8,82.5,92.8l0,4.8c0.3,0,0.5,0.3,0.5,0.6c0,0.3-0.3,0.6-0.6,0.6
		h-0.5h-0.5c-0.3,0-0.6-0.3-0.6-0.6c0-0.3,0.2-0.5,0.5-0.6v-4.7c0,0,0-0.1,0-0.1c-2.3-0.6-4.8-3.3-3.6-4.6c0.6-0.6,2.3-0.9,4.2-0.9
		c1.9,0,3.6,0.3,4.2,0.9C87.3,89.4,84.7,92.2,82.5,92.8 M85.3,85.5c-2.9-1.6-7.2-0.9-8.7,1.3h0c-2.9,4.2-0.7,13.5,2.2,17.5
		c0.2-0.1,0.6-0.2,1-0.4c0.4-0.2,1-0.4,1.2-0.5c0.1-0.1,0.3-0.2,0.4-0.2c0,0,0,0,0,0c0.2,0,0.3,0.1,0.4,0.2c0.6,0.8,1.1,1.3,1.6,1.3
		c0,0,0,0,0,0c0.3,0,0.6-0.4,0.8-0.7c0.1-0.1,0.2-0.2,0.3-0.2c0.1,0,0.2,0,0.3,0c0.1-0.3,0.3-0.6,0.4-1c0.7-1.6,1.4-3.2,2-4.8
		C89.7,92,89,87.4,85.3,85.5"/>
	<g id="Group-26" transform="translate(0.000000, 0.187111)">
		<g id="Clip-25">
		</g>
		<defs>
			<filter id="Adobe_OpacityMaskFilter" filterUnits="userSpaceOnUse" x="60" y="71" width="43.8" height="21.4">
				<feColorMatrix  type="matrix" values="1 0 0 0 0  0 1 0 0 0  0 0 1 0 0  0 0 0 1 0"/>
			</filter>
		</defs>
		<mask maskUnits="userSpaceOnUse" x="60" y="71" width="43.8" height="21.4" id="mask-5">
			<g class="st27">
				<path id="path-4" class="st0" d="M103.8,71H60v21.4h43.8V71L103.8,71z"/>
			</g>
		</mask>
		<path id="Fill-24" class="st28" d="M65.8,75.6c-1.8-0.5-2.9,0.8-2.7,1.7c0.1,0.8,1.5,1.7,2.7,2.6c-0.1,0.3-0.3,0.6-0.4,1
			c-0.5-0.4-1-0.7-1.4-1c-1.6-1-3-1.9-2.9-3.7c0.1-0.9,0.7-1.9,1.8-2.7c1.4-1,3.1-1.5,4.2-1.3c1.7,0.4,2.7,1.8,3.3,3.5
			c-0.9,0.4-1.7,0.9-2.4,1.4C67.5,76.5,66.8,75.9,65.8,75.6 M99.7,79.9c-0.6,0.4-1.3,0.8-1.9,1.4c-0.1-0.4-0.3-0.7-0.4-1
			c1.4-0.9,3-2,3.2-2.9c0.2-0.9-0.9-2.2-2.7-1.7c-1,0.3-1.8,1-2.3,1.8c-0.2-0.2-0.4-0.3-0.6-0.5c-0.6-0.4-1.2-0.7-1.8-1
			c0.6-1.8,1.5-3.3,3.3-3.8c1.1-0.3,2.9,0.2,4.2,1.3c1.1,0.8,1.7,1.8,1.8,2.7C102.8,78,101.4,78.9,99.7,79.9 M103.8,76.1
			c-0.1-1.2-0.9-2.5-2.2-3.5c-1.6-1.2-3.7-1.8-5.2-1.4c-2.3,0.5-3.5,2.4-4.1,4.4c-2-0.7-4.1-1-6.5-1.2c0.1-0.2,0.3-0.3,0.4-0.5
			c0.2-0.2,0.2-0.4,0.1-0.6c-0.1-0.2-0.3-0.3-0.5-0.3c-0.2,0-0.4,0-0.6,0c-0.2,0-0.3,0-0.5,0c0.1-0.1,0.1-0.3,0-0.4
			c-0.1-0.2-0.2-0.4-0.4-0.4c-2.2-0.4-4.3,0.9-5.7,2.1c-2.9,0.2-5.2,0.6-7,1.2c-0.7-2-1.9-3.7-4.1-4.2c-1.5-0.3-3.5,0.2-5.2,1.4
			c-1.4,1-2.2,2.3-2.2,3.5c-0.2,2.5,1.8,3.7,3.4,4.8c0.6,0.4,1.2,0.7,1.6,1.1c-0.6,1.8-1,4-1.3,6.4l0.3,2l0.3,2.1c0,0,0,0,0,0.1
			c0.4-3.4,0.8-6.8,1.6-9.5c0.1-0.2,0.1-0.5,0.2-0.7c0.1-0.2,0.1-0.4,0.2-0.6c0.1-0.4,0.3-0.8,0.4-1.1c0.5-1,1-1.8,1.6-2.3
			c0,0,0.1-0.1,0.2-0.1c0.6-0.5,1.3-0.9,2.1-1.3c0.2-0.1,0.3-0.2,0.5-0.2c0.2-0.1,0.4-0.1,0.5-0.2c1.8-0.6,4.1-1,7-1.2
			c0.1,0,0.2-0.1,0.3-0.1c1-0.8,2.3-1.8,3.8-1.9c-0.1,0.2-0.3,0.3-0.4,0.5c-0.2,0.2-0.2,0.5-0.1,0.8c0.2,0.2,0.5,0.3,0.8,0.1
			c0.5-0.4,0.9-0.5,1.3-0.5c-0.1,0.2-0.2,0.3-0.3,0.5c-0.1,0.2-0.1,0.4,0,0.5c0.1,0.2,0.3,0.3,0.4,0.3c2.8,0.2,5.2,0.5,7.3,1.3
			c0.2,0.1,0.4,0.1,0.5,0.2c0.2,0.1,0.4,0.1,0.5,0.2c0.5,0.2,1,0.5,1.4,0.8c0.2,0.1,0.4,0.3,0.6,0.5c0.6,0.6,1.1,1.5,1.5,2.5
			c0.2,0.4,0.3,0.9,0.5,1.4c0.1,0.2,0.2,0.5,0.2,0.8c0.1,0.4,0.2,0.9,0.3,1.4c0.1,0.4,0.2,0.7,0.2,1.1c0,0.2,0.1,0.4,0.1,0.7
			c0.4,2.1,0.6,4.3,0.8,6.1c0,0,0,0,0-0.1l0.3-2.2l0.3-2.1c-0.3-2-0.6-3.8-1.1-5.5c0.5-0.6,1.3-1.1,2.1-1.6
			C102,79.8,103.9,78.6,103.8,76.1"/>
	</g>
	<path id="Fill-31" class="st29" d="M63.1,94.1v1.6V94.1c0.1-0.5,0.2-1,0.3-1.4C63.3,93.1,63.2,93.5,63.1,94.1
		C63.1,94,63.1,94,63.1,94.1"/>
	<path id="Fill-33" class="st29" d="M85.3,102.8c-0.1,0.3-0.3,0.6-0.4,1c-0.1,0-0.2,0-0.3,0c-0.1,0-0.3,0.1-0.3,0.2
		c-0.2,0.3-0.5,0.7-0.8,0.7c0,0,0,0,0,0c-0.4,0-1-0.5-1.6-1.3c-0.1-0.1-0.3-0.2-0.4-0.2c0,0,0,0,0,0c-0.2,0-0.3,0.1-0.4,0.2
		c-0.1,0.1-0.8,0.3-1.2,0.5c-0.4,0.2-0.7,0.3-1,0.4c-3-4-5.2-13.3-2.2-17.5h0c1.6-2.2,5.8-2.9,8.7-1.3c3.6,1.9,4.4,6.5,2,12.6
		C86.7,99.6,86,101.2,85.3,102.8 M85.8,84.5c-3.4-1.8-8.3-1-10.2,1.7c-3.6,5.1-0.5,15.5,2.6,19.2c0.1,0.1,0.3,0.2,0.4,0.2
		c0.2,0,0.3-0.1,0.4-0.2c0.1-0.1,0.7-0.3,1.1-0.5c0.4-0.2,0.8-0.3,1-0.4c0.7,0.9,1.5,1.4,2.2,1.4c0,0,0,0,0.1,0
		c0.5,0,0.9-0.2,1.3-0.6c0.1,0,0.1,0.1,0.2,0.1c0.2,0,0.4,0,0.5-0.2c0,0,0.1-0.1,0.1-0.1c0.2-0.6,0.5-1.1,0.7-1.7
		c0.7-1.6,1.4-3.2,2.1-4.9C92.1,89,87.8,85.5,85.8,84.5"/>
	<path id="Fill-35" class="st29" d="M84.9,89c-0.1,0.2-0.3,0.3-0.4,0.3c-0.1,0-0.1,0-0.2,0c-0.5-0.2-4.2-0.2-4.8,0
		c-0.2,0.1-0.5,0-0.6-0.3c-0.1-0.2,0-0.5,0.3-0.6c0.7-0.3,4.8-0.3,5.5,0C84.9,88.4,85,88.7,84.9,89 M81.9,87.3
		c-1.9,0-3.6,0.3-4.2,0.9c-1.2,1.3,1.3,4,3.6,4.6c0,0,0,0.1,0,0.1v4.7c-0.3,0-0.5,0.3-0.5,0.6c0,0.3,0.3,0.6,0.6,0.6h0.5h0.5
		c0.3,0,0.6-0.3,0.6-0.6c0-0.3-0.2-0.5-0.5-0.6v-4.7c0,0,0-0.1,0-0.1c2.3-0.6,4.8-3.3,3.6-4.6C85.5,87.6,83.8,87.3,81.9,87.3"/>
	<path id="Fill-37" class="st0" d="M84.7,88.3c-0.7-0.3-4.8-0.3-5.5,0c-0.2,0.1-0.4,0.4-0.3,0.6c0.1,0.2,0.4,0.4,0.6,0.3
		c0.5-0.2,4.2-0.2,4.8,0c0.1,0,0.1,0,0.2,0c0.2,0,0.4-0.1,0.4-0.3C85,88.7,84.9,88.4,84.7,88.3"/>
</g>
<g id="Page-1_1_" transform="translate(23.000000, 53.000000)">
	<g id="Clip-2_1_">
	</g>
	<g id="Clip-25_1_">
	</g>
</g>
<rect id="Rectangle-937" x="150" y="101" class="st30" width="284" height="390"/>
<g id="Group" transform="translate(102.000000, 212.000000)">
	<g id="Rectangle-552">
		<path class="st31" d="M63,71h254c1.7,0,3,1.3,3,3v84c0,1.7-1.3,3-3,3H63c-1.7,0-3-1.3-3-3V74C60,72.3,61.3,71,63,71z"/>
		<g class="st32">
			<path class="st33" d="M317,72c1.1,0,2,0.9,2,2v84c0,1.1-0.9,2-2,2H63c-1.1,0-2-0.9-2-2V74c0-1.1,0.9-2,2-2H317 M317,71H63
				c-1.7,0-3,1.3-3,3v84c0,1.7,1.3,3,3,3h254c1.7,0,3-1.3,3-3V74C320,72.3,318.7,71,317,71L317,71z"/>
		</g>
	</g>
	<circle id="Oval-1-Copy-50" class="st14" cx="74.5" cy="88.5" r="4.5"/>
	<circle id="Oval-1-Copy-51" class="st14" cx="92.5" cy="115.5" r="4.5"/>
	<text transform="matrix(1 0 0 1 88 94)" class="st34 st12 st13">2FA-routes</text>
	<text transform="matrix(1 0 0 1 106 121)" class="st35"><tspan x="0" y="0" class="st34 st12 st13">web</tspan><tspan x="30.2" y="0" class="st34 st12 st13 st36"> </tspan><tspan x="31.2" y="0" class="st34 st12 st13">/</tspan><tspan x="36.4" y="0" class="st34 st12 st13 st36"> </tspan><tspan x="37.4" y="0" class="st34 st12 st13">2FA-form</tspan></text>
	<circle id="Oval-1-Copy-52" class="st14" cx="92.5" cy="142.5" r="4.5"/>
	<text transform="matrix(1 0 0 1 106 148)" class="st34 st12 st13">PostgreSQL</text>
	<g id="Rectangle-553">
		<path class="st0" d="M256,97.5c-0.8,0-1.5-0.7-1.5-1.5V82c0-0.8,0.7-1.5,1.5-1.5h53c0.8,0,1.5,0.7,1.5,1.5v14
			c0,0.8-0.7,1.5-1.5,1.5H256z"/>
		<path class="st37" d="M309,81c0.6,0,1,0.4,1,1v14c0,0.6-0.4,1-1,1h-53c-0.6,0-1-0.4-1-1V82c0-0.6,0.4-1,1-1H309 M309,80h-53
			c-1.1,0-2,0.9-2,2v14c0,1.1,0.9,2,2,2h53c1.1,0,2-0.9,2-2V82C311,80.9,310.1,80,309,80L309,80z"/>
	</g>
	<text transform="matrix(1 0 0 1 260 93)" class="st38 st39 st40">Isolated</text>
</g>
</svg>
