<svg id="Layer_1" data-name="Layer 1" xmlns="http://www.w3.org/2000/svg" xmlns:xlink="http://www.w3.org/1999/xlink" viewBox="0 0 1080 420"><defs><style>.cls-1{fill:#fff;}.cls-2,.cls-20{fill:#f7f7f7;}.cls-3{fill:#e6e6e6;}.cls-4{fill:#e8e8e8;}.cls-5{fill:url(#linear-gradient);}.cls-6{fill:#eee;}.cls-7{fill:url(#linear-gradient-2);}.cls-8{fill:url(#linear-gradient-3);}.cls-9{fill:url(#linear-gradient-4);}.cls-10{fill:url(#linear-gradient-5);}.cls-11{fill:url(#linear-gradient-6);}.cls-12{fill:#777;}.cls-13{fill:#6bd281;}.cls-14{fill:#b3b3b3;}.cls-15{fill:#834eab;}.cls-16{fill:#e1e1e1;}.cls-17{fill:#e0e0e0;}.cls-18{fill:#f8f8f8;}.cls-19{fill:#7944a3;}.cls-20{opacity:0.25;isolation:isolate;}.cls-21{fill:#f7f0fc;}.cls-22{fill:#8635c1;}.cls-23{fill:#73667f;}.cls-24{fill:#a264d0;}.cls-25{fill:#834eac;}.cls-26{fill:#853cbe;}.cls-27{fill:#44275e;}.cls-28{fill:#231f20;}.cls-29{fill:none;}.cls-30{fill:#682f94;}.cls-31{fill:#351f49;}.cls-32{fill:#2f1244;}.cls-33{fill:#ccadd2;}</style><linearGradient id="linear-gradient" x1="178.69" y1="-63.06" x2="177.69" y2="-63.06" gradientTransform="translate(-13443 670) scale(78 9)" gradientUnits="userSpaceOnUse"><stop offset="0" stop-color="#e8e8e8" stop-opacity="0"/><stop offset="1" stop-color="#e8e8e8"/></linearGradient><linearGradient id="linear-gradient-2" x1="179" y1="-63.06" x2="178" y2="-63.06" gradientTransform="translate(-15603 765) scale(90 9)" xlink:href="#linear-gradient"/><linearGradient id="linear-gradient-3" x1="179.8" y1="-63.06" x2="178.8" y2="-63.06" gradientTransform="translate(-26403 786) scale(150 9)" xlink:href="#linear-gradient"/><linearGradient id="linear-gradient-4" x1="178" y1="-63.06" x2="177" y2="-63.06" gradientTransform="translate(-10203 818) scale(60 9)" xlink:href="#linear-gradient"/><linearGradient id="linear-gradient-5" x1="179.46" y1="-63.06" x2="178.46" y2="-63.06" gradientTransform="translate(-20331 670) scale(117 9)" xlink:href="#linear-gradient"/><linearGradient id="linear-gradient-6" x1="180.42" y1="-63.06" x2="179.42" y2="-63.06" gradientTransform="translate(-54697 670) scale(309 9)" xlink:href="#linear-gradient"/></defs><title>isolation</title><rect id="Rectangle-326" class="cls-1" x="374" y="30" width="705" height="390"/><path class="cls-2" d="M390,265a2,2,0,0,1-2-2V181a2,2,0,0,1,2-2H659a2,2,0,0,1,2,2v82a2,2,0,0,1-2,2H390Z"/><path class="cls-3" d="M659,180a0.94,0.94,0,0,1,1,1v82a0.94,0.94,0,0,1-1,1H390a0.94,0.94,0,0,1-1-1V181a0.94,0.94,0,0,1,1-1H659m0-2H390a3,3,0,0,0-3,3v82a3,3,0,0,0,3,3H659a3,3,0,0,0,3-3V181a3,3,0,0,0-3-3h0Z"/><path class="cls-2" d="M692,119a2,2,0,0,1-2-2V87a2,2,0,0,1,2-2h372a2,2,0,0,1,2,2v30a2,2,0,0,1-2,2H692Z"/><path class="cls-3" d="M1064,86a0.94,0.94,0,0,1,1,1v30a0.94,0.94,0,0,1-1,1H692a0.94,0.94,0,0,1-1-1V87a0.94,0.94,0,0,1,1-1h372m0-2H692a3,3,0,0,0-3,3v30a3,3,0,0,0,3,3h372a3,3,0,0,0,3-3V87a3,3,0,0,0-3-3h0Z"/><path class="cls-2" d="M522,119a2,2,0,0,1-2-2V87a2,2,0,0,1,2-2H678a2,2,0,0,1,2,2v30a2,2,0,0,1-2,2H522Z"/><path class="cls-3" d="M678,86a0.94,0.94,0,0,1,1,1v30a0.94,0.94,0,0,1-1,1H522a0.94,0.94,0,0,1-1-1V87a0.94,0.94,0,0,1,1-1H678m0-2H522a3,3,0,0,0-3,3v30a3,3,0,0,0,3,3H678a3,3,0,0,0,3-3V87a3,3,0,0,0-3-3h0Z"/><path class="cls-2" d="M390,119a2,2,0,0,1-2-2V87a2,2,0,0,1,2-2H507a2,2,0,0,1,2,2v30a2,2,0,0,1-2,2H390Z"/><path class="cls-3" d="M507,86a0.94,0.94,0,0,1,1,1v30a0.94,0.94,0,0,1-1,1H390a0.94,0.94,0,0,1-1-1V87a0.94,0.94,0,0,1,1-1H507m0-2H390a3,3,0,0,0-3,3v30a3,3,0,0,0,3,3H507a3,3,0,0,0,3-3V87a3,3,0,0,0-3-3h0Z"/><rect id="Rectangle-2-Copy-18" class="cls-2" x="90" y="30" width="284" height="390"/><circle id="Oval-1-Copy-45" class="cls-4" cx="406.5" cy="102.5" r="4.5"/><path id="Rectangle-176-Copy-48" class="cls-5" d="M421.5,98h69a4.48,4.48,0,0,1,4.5,4.5h0a4.48,4.48,0,0,1-4.5,4.5h-69a4.48,4.48,0,0,1-4.5-4.5h0A4.48,4.48,0,0,1,421.5,98Z"/><path id="Rectangle-176-Copy-49" class="cls-6" d="M391.5,151h79a4.48,4.48,0,0,1,4.5,4.5h0a4.48,4.48,0,0,1-4.5,4.5h-79a4.48,4.48,0,0,1-4.5-4.5h0A4.48,4.48,0,0,1,391.5,151Z"/><path id="Rectangle-176-Copy-50" class="cls-7" d="M421.5,193h81a4.48,4.48,0,0,1,4.5,4.5h0a4.48,4.48,0,0,1-4.5,4.5h-81a4.48,4.48,0,0,1-4.5-4.5h0A4.48,4.48,0,0,1,421.5,193Z"/><path id="Rectangle-176-Copy-51" class="cls-4" d="M406.5,193h0a4.48,4.48,0,0,1,4.5,4.5h0a4.48,4.48,0,0,1-4.5,4.5h0a4.48,4.48,0,0,1-4.5-4.5h0A4.48,4.48,0,0,1,406.5,193Z"/><path id="Rectangle-176-Copy-52" class="cls-8" d="M421.5,214h141a4.48,4.48,0,0,1,4.5,4.5h0a4.48,4.48,0,0,1-4.5,4.5h-141a4.48,4.48,0,0,1-4.5-4.5h0A4.48,4.48,0,0,1,421.5,214Z"/><path id="Rectangle-176-Copy-53" class="cls-9" d="M421.5,246h51a4.48,4.48,0,0,1,4.5,4.5h0a4.48,4.48,0,0,1-4.5,4.5h-51a4.48,4.48,0,0,1-4.5-4.5h0A4.48,4.48,0,0,1,421.5,246Z"/><path id="Rectangle-176-Copy-54" class="cls-4" d="M627.5,246h15a4.48,4.48,0,0,1,4.5,4.5h0a4.48,4.48,0,0,1-4.5,4.5h-15a4.48,4.48,0,0,1-4.5-4.5h0A4.48,4.48,0,0,1,627.5,246Z"/><path id="Rectangle-176-Copy-55" class="cls-6" d="M694.5,151h63a4.48,4.48,0,0,1,4.5,4.5h0a4.48,4.48,0,0,1-4.5,4.5h-63a4.48,4.48,0,0,1-4.5-4.5h0A4.48,4.48,0,0,1,694.5,151Z"/><path id="Rectangle-176-Copy-56" class="cls-6" d="M797.5,151h63a4.48,4.48,0,0,1,4.5,4.5h0a4.48,4.48,0,0,1-4.5,4.5h-63a4.48,4.48,0,0,1-4.5-4.5h0A4.48,4.48,0,0,1,797.5,151Z"/><path id="Rectangle-176-Copy-57" class="cls-6" d="M900.5,151h63a4.48,4.48,0,0,1,4.5,4.5h0a4.48,4.48,0,0,1-4.5,4.5h-63a4.48,4.48,0,0,1-4.5-4.5h0A4.48,4.48,0,0,1,900.5,151Z"/><path id="Rectangle-176-Copy-58" class="cls-6" d="M391.5,305h79a4.48,4.48,0,0,1,4.5,4.5h0a4.48,4.48,0,0,1-4.5,4.5h-79a4.48,4.48,0,0,1-4.5-4.5h0A4.48,4.48,0,0,1,391.5,305Z"/><circle id="Oval-1-Copy-46" class="cls-4" cx="538.5" cy="102.5" r="4.5"/><path id="Rectangle-176-Copy-59" class="cls-10" d="M553.5,98h108a4.48,4.48,0,0,1,4.5,4.5h0a4.48,4.48,0,0,1-4.5,4.5h-108a4.48,4.48,0,0,1-4.5-4.5h0A4.48,4.48,0,0,1,553.5,98Z"/><path id="Rectangle-176-Copy-60" class="cls-4" d="M704.5,98h16a4.48,4.48,0,0,1,4.5,4.5h0a4.48,4.48,0,0,1-4.5,4.5h-16a4.48,4.48,0,0,1-4.5-4.5h0A4.48,4.48,0,0,1,704.5,98Z"/><path id="Rectangle-176-Copy-61" class="cls-11" d="M747.5,98h300a4.48,4.48,0,0,1,4.5,4.5h0a4.48,4.48,0,0,1-4.5,4.5h-300a4.48,4.48,0,0,1-4.5-4.5h0A4.48,4.48,0,0,1,747.5,98Z"/><path class="cls-12" d="M130.8,81h1.5v1.3h0a2.34,2.34,0,0,1,2.3-1.4,2.2,2.2,0,0,1,2.2,1.5h0a2.55,2.55,0,0,1,2.5-1.5,2.42,2.42,0,0,1,2.6,2.6v5.4h-1.6v-5a1.47,1.47,0,0,0-1.6-1.6A1.63,1.63,0,0,0,137,84v4.9h-1.6V83.7a1.42,1.42,0,0,0-1.5-1.5,1.71,1.71,0,0,0-1.7,1.8v4.9h-1.6V81h0.2Z"/><path class="cls-12" d="M143.8,86.7c0-1.4,1.1-2.2,3-2.3l2.1-.1V83.7c0-.9-0.6-1.4-1.7-1.4a1.4,1.4,0,0,0-1.6,1.1h-1.5c0-1.4,1.4-2.4,3.2-2.4s3.2,1,3.2,2.6v5.5H149V87.8h0a2.63,2.63,0,0,1-2.5,1.4A2.59,2.59,0,0,1,143.8,86.7ZM149,86V85.4l-1.9.1c-1.1.1-1.6,0.5-1.6,1.2a1.25,1.25,0,0,0,1.5,1.1A1.84,1.84,0,0,0,149,86Z"/><path class="cls-12" d="M155.7,81c1.7,0,3,1,3,2.4h-1.5a1.4,1.4,0,0,0-1.6-1.1c-0.9,0-1.5.4-1.5,1s0.4,0.8,1.2,1l1.3,0.3c1.6,0.4,2.2,1,2.2,2.1,0,1.4-1.3,2.4-3.3,2.4s-3.1-1-3.2-2.4h1.6q0.15,1.2,1.8,1.2c1,0,1.6-.4,1.6-1.1,0-.5-0.3-0.8-1.1-1l-1.4-.4c-1.4-.4-2.1-1.1-2.1-2.2C152.6,81.9,153.9,81,155.7,81Z"/><path class="cls-12" d="M162.9,79.3v1.8h1.5v1.3h-1.5v4.4a0.86,0.86,0,0,0,1,1h0.5v1.3c-0.2,0-.5.1-0.9,0.1-1.6,0-2.2-.6-2.2-2.1V82.5h-1.1V81h1.1V79.2h1.6v0.1Z"/><path class="cls-12" d="M172.9,86.7c-0.2,1.4-1.6,2.4-3.4,2.4-2.3,0-3.7-1.6-3.7-4s1.5-4.1,3.7-4.1,3.6,1.5,3.6,3.9v0.6h-5.6v0.1a2.13,2.13,0,0,0,2.2,2.3,1.94,1.94,0,0,0,1.9-1.1h1.3V86.7Zm-5.5-2.4h4a2,2,0,0,0-2-2.1A2.09,2.09,0,0,0,167.4,84.3Z"/><path class="cls-12" d="M174.9,81h1.5v1.3h0a1.84,1.84,0,0,1,1.9-1.4,1.27,1.27,0,0,1,.6.1v1.5a1.29,1.29,0,0,0-.7-0.1,1.66,1.66,0,0,0-1.7,1.8v4.7h-1.6V81Z"/><circle id="Oval-1-Copy-47" class="cls-13" cx="116.5" cy="83.5" r="4.5"/><circle id="Oval-1-Copy-48" class="cls-13" cx="116.5" cy="113.5" r="4.5"/><circle id="Oval-1-Copy-49" class="cls-13" cx="116.5" cy="196.5" r="4.5"/><path class="cls-12" d="M130.8,111h1.5v1.3h0a1.84,1.84,0,0,1,1.9-1.4,1.27,1.27,0,0,1,.6.1v1.5a1.29,1.29,0,0,0-.7-0.1,1.66,1.66,0,0,0-1.7,1.8v4.7h-1.6V111Z"/><path class="cls-12" d="M142.9,116.7c-0.2,1.4-1.6,2.4-3.4,2.4-2.3,0-3.7-1.6-3.7-4s1.5-4.1,3.7-4.1,3.6,1.5,3.6,3.9v0.6h-5.6v0.1a2.13,2.13,0,0,0,2.2,2.3,1.94,1.94,0,0,0,1.9-1.1h1.3v-0.1Zm-5.5-2.4h4a2,2,0,0,0-2-2.1A2.09,2.09,0,0,0,137.4,114.3Z"/><path class="cls-12" d="M147.8,111c1.7,0,3,1,3,2.4h-1.5a1.4,1.4,0,0,0-1.6-1.1c-0.9,0-1.5.4-1.5,1s0.4,0.8,1.2,1l1.3,0.3c1.6,0.4,2.2,1,2.2,2.1,0,1.4-1.3,2.4-3.3,2.4s-3.1-1-3.2-2.4H146q0.15,1.2,1.8,1.2c1,0,1.6-.4,1.6-1.1,0-.5-0.3-0.8-1.1-1l-1.4-.4c-1.4-.4-2.1-1.1-2.1-2.2C144.7,111.9,146,111,147.8,111Z"/><path class="cls-12" d="M159.7,116.7c-0.2,1.4-1.6,2.4-3.4,2.4-2.3,0-3.7-1.6-3.7-4s1.5-4.1,3.7-4.1,3.6,1.5,3.6,3.9v0.6h-5.6v0.1a2.13,2.13,0,0,0,2.2,2.3,1.94,1.94,0,0,0,1.9-1.1h1.3v-0.1Zm-5.5-2.4h4a2,2,0,0,0-2-2.1A2.09,2.09,0,0,0,154.2,114.3Z"/><path class="cls-12" d="M163.7,109.3v1.8h1.5v1.3h-1.5v4.4a0.86,0.86,0,0,0,1,1h0.5v1.3c-0.2,0-.5.1-0.9,0.1-1.6,0-2.2-.6-2.2-2.1v-4.6H161V111h1.1v-1.8h1.6v0.1Z"/><path class="cls-12" d="M167.2,115.5v-1.4H172v1.4h-4.8Z"/><path class="cls-12" d="M181.7,115c0,2.5-1.3,4.1-3.3,4.1a2.74,2.74,0,0,1-2.5-1.4h0v3.9h-1.6V111h1.5v1.3h0a2.63,2.63,0,0,1,2.5-1.4C180.4,111,181.7,112.6,181.7,115Zm-1.6,0c0-1.6-.8-2.7-2.1-2.7s-2.1,1.1-2.1,2.7,0.9,2.7,2.1,2.7S180.1,116.7,180.1,115Z"/><path class="cls-12" d="M191.8,119h-1.6l-1.7-6h0l-1.7,6h-1.6l-2.2-8h1.6l1.5,6.3h0l1.7-6.3h1.5l1.7,6.3h0l1.5-6.3h1.6Z"/><path class="cls-12" d="M195.2,115c0-2.4,1.4-4.1,3.3-4.1a2.63,2.63,0,0,1,2.5,1.4h0V108h1.6v11h-1.5v-1.3h0a2.74,2.74,0,0,1-2.5,1.4C196.6,119.1,195.2,117.5,195.2,115Zm1.7,0c0,1.6.8,2.7,2.1,2.7s2.1-1.1,2.1-2.7-0.9-2.7-2.1-2.7S196.9,113.4,196.9,115Z"/><path class="cls-12" d="M205,115.5v-1.4h4.8v1.4H205Z"/><path class="cls-12" d="M212.6,112.3h-1.1V111h1.1v-0.7c0-1.5.7-2.1,2.3-2.1a2.2,2.2,0,0,1,.8.1v1.2c-0.2,0-.4-0.1-0.6-0.1-0.7,0-.9.3-0.9,1v0.7h1.5v1.3h-1.5v6.7h-1.6v-6.8h0Z"/><path class="cls-12" d="M217.6,108h1.6v11h-1.6V108Z"/><path class="cls-12" d="M221.2,115c0-2.5,1.5-4.1,3.8-4.1s3.8,1.6,3.8,4.1-1.5,4.1-3.8,4.1S221.2,117.5,221.2,115Zm5.9,0c0-1.7-.8-2.8-2.1-2.8s-2.2,1-2.2,2.8,0.8,2.8,2.2,2.8S227.1,116.8,227.1,115Z"/><path class="cls-12" d="M238.8,119h-1.6l-1.7-6h0l-1.7,6h-1.6l-2.2-8h1.6l1.5,6.3h0l1.7-6.3h1.5l1.7,6.3h0l1.5-6.3h1.6Z"/><path class="cls-12" d="M130.8,194h1.5v1.3h0a2.34,2.34,0,0,1,2.3-1.4,2.2,2.2,0,0,1,2.2,1.5h0a2.55,2.55,0,0,1,2.5-1.5,2.42,2.42,0,0,1,2.6,2.6v5.4h-1.6v-5a1.47,1.47,0,0,0-1.6-1.6A1.63,1.63,0,0,0,137,197v4.9h-1.6v-5.2a1.42,1.42,0,0,0-1.5-1.5,1.71,1.71,0,0,0-1.7,1.8v4.9h-1.6V194h0.2Z"/><path class="cls-12" d="M143.8,199.7c0-1.4,1.1-2.2,3-2.3l2.1-.1v-0.6c0-.9-0.6-1.4-1.7-1.4a1.4,1.4,0,0,0-1.6,1.1h-1.5c0-1.4,1.4-2.4,3.2-2.4s3.2,1,3.2,2.6v5.5H149v-1.3h0a2.63,2.63,0,0,1-2.5,1.4A2.59,2.59,0,0,1,143.8,199.7Zm5.2-.7v-0.6l-1.9.1c-1.1.1-1.6,0.5-1.6,1.2a1.25,1.25,0,0,0,1.5,1.1A1.84,1.84,0,0,0,149,199Z"/><path class="cls-12" d="M155.7,194c1.7,0,3,1,3,2.4h-1.5a1.4,1.4,0,0,0-1.6-1.1c-0.9,0-1.5.4-1.5,1s0.4,0.8,1.2,1l1.3,0.3c1.6,0.4,2.2,1,2.2,2.1,0,1.4-1.3,2.4-3.3,2.4s-3.1-1-3.2-2.4h1.6q0.15,1.2,1.8,1.2c1,0,1.6-.4,1.6-1.1,0-.5-0.3-0.8-1.1-1l-1.4-.4c-1.4-.4-2.1-1.1-2.1-2.2C152.6,194.9,153.9,194,155.7,194Z"/><path class="cls-12" d="M162.9,192.3v1.8h1.5v1.3h-1.5v4.4a0.86,0.86,0,0,0,1,1h0.5v1.3c-0.2,0-.5.1-0.9,0.1-1.6,0-2.2-.6-2.2-2.1v-4.6h-1.1V194h1.1v-1.8h1.6v0.1Z"/><path class="cls-12" d="M172.9,199.7c-0.2,1.4-1.6,2.4-3.4,2.4-2.3,0-3.7-1.6-3.7-4s1.5-4.1,3.7-4.1,3.6,1.5,3.6,3.9v0.6h-5.6v0.1a2.13,2.13,0,0,0,2.2,2.3,1.94,1.94,0,0,0,1.9-1.1h1.3v-0.1Zm-5.5-2.4h4a2,2,0,0,0-2-2.1A2.09,2.09,0,0,0,167.4,197.3Z"/><path class="cls-12" d="M174.9,194h1.5v1.3h0a1.84,1.84,0,0,1,1.9-1.4,1.27,1.27,0,0,1,.6.1v1.5a1.29,1.29,0,0,0-.7-0.1,1.66,1.66,0,0,0-1.7,1.8v4.7h-1.6V194Z"/><path class="cls-14" d="M138.6,59h-1.3l-1.8-6.1h0L133.7,59h-1.3l-2.2-7.9h1.3l1.6,6.5h0l1.8-6.5h1.2l1.8,6.5h0l1.6-6.5h1.3Z"/><path class="cls-14" d="M149,56.7c-0.2,1.4-1.6,2.3-3.3,2.3-2.2,0-3.6-1.5-3.6-4s1.4-4.1,3.6-4.1,3.4,1.5,3.4,3.9v0.5h-5.7v0.1a2.26,2.26,0,0,0,2.3,2.5,2,2,0,0,0,2-1.2H149Zm-5.5-2.3h4.3a2.08,2.08,0,0,0-2.1-2.2A2.22,2.22,0,0,0,143.5,54.4Z"/><path class="cls-14" d="M152.4,57.7h0V59h-1.2V48h1.3v4.4h0A2.74,2.74,0,0,1,155,51c2,0,3.3,1.6,3.3,4s-1.4,4-3.4,4A2.49,2.49,0,0,1,152.4,57.7Zm0-2.6c0,1.7.9,2.9,2.3,2.9s2.3-1.1,2.3-2.9-0.9-2.9-2.3-2.9S152.4,53.3,152.4,55.1Z"/><path class="cls-14" d="M160.2,55.4V54.2H165v1.2h-4.8Z"/><path class="cls-14" d="M167.3,51.1h1.2v1.3h0a2,2,0,0,1,1.9-1.4h0.5v1.3a5.64,5.64,0,0,0-.7-0.1,1.69,1.69,0,0,0-1.7,1.9V59h-1.3V51.1h0.1Z"/><path class="cls-14" d="M178.8,56.7c-0.2,1.4-1.6,2.3-3.3,2.3-2.2,0-3.6-1.5-3.6-4s1.4-4.1,3.6-4.1,3.4,1.5,3.4,3.9v0.5h-5.7v0.1a2.26,2.26,0,0,0,2.3,2.5,2,2,0,0,0,2-1.2h1.3Zm-5.6-2.3h4.3a2.08,2.08,0,0,0-2.1-2.2A2.22,2.22,0,0,0,173.2,54.4Z"/><path class="cls-14" d="M188,55.1c0,2.4-1.4,4-3.4,4a2.74,2.74,0,0,1-2.5-1.4h0v3.9h-1.3V51.1H182v1.3h0a3.12,3.12,0,0,1,2.6-1.4C186.6,51,188,52.6,188,55.1Zm-1.3,0c0-1.7-.9-2.9-2.3-2.9s-2.3,1.2-2.3,2.9S183,58,184.4,58,186.7,56.8,186.7,55.1Z"/><path class="cls-14" d="M189.6,55.1c0-2.5,1.4-4,3.6-4s3.6,1.6,3.6,4-1.4,4-3.6,4S189.6,57.5,189.6,55.1Zm5.9,0c0-1.8-.9-2.9-2.3-2.9s-2.3,1.1-2.3,2.9,0.9,2.9,2.3,2.9S195.5,56.9,195.5,55.1Z"/><path class="cls-14" d="M201.6,51a2.7,2.7,0,0,1,2.9,2.3h-1.2a1.51,1.51,0,0,0-1.7-1.2c-1,0-1.6.5-1.6,1.1s0.4,0.9,1.3,1.1l1.2,0.3c1.6,0.4,2.2,1,2.2,2.1,0,1.3-1.3,2.3-3.1,2.3a2.83,2.83,0,0,1-3.1-2.3h1.3c0.1,0.8.8,1.2,1.9,1.2s1.8-.4,1.8-1.2c0-.6-0.3-0.8-1.2-1.1l-1.4-.4q-2.1-.6-2.1-2.1C198.6,52,199.9,51,201.6,51Z"/><path class="cls-14" d="M206.5,49a0.8,0.8,0,1,1,.8.8A0.79,0.79,0,0,1,206.5,49Zm0.2,2.1H208V59h-1.3V51.1Z"/><path class="cls-14" d="M212,49.3v1.8h1.5v1.1H212v4.7a0.93,0.93,0,0,0,1,1.1h0.5v1.1c-0.2,0-.5.1-0.8,0.1-1.4,0-2-.6-2-2.1V52.3h-1.1V51.2h1.1V49.4H212V49.3Z"/><path class="cls-14" d="M215,55.1c0-2.5,1.4-4,3.6-4s3.6,1.6,3.6,4-1.4,4-3.6,4S215,57.5,215,55.1Zm6,0c0-1.8-.9-2.9-2.3-2.9s-2.3,1.1-2.3,2.9,0.9,2.9,2.3,2.9S221,56.9,221,55.1Z"/><path class="cls-14" d="M224.2,51.1h1.2v1.3h0a2,2,0,0,1,1.9-1.4h0.5v1.3a5.64,5.64,0,0,0-.7-0.1,1.69,1.69,0,0,0-1.7,1.9V59h-1.3V51.1h0.1Z"/><path class="cls-14" d="M229.7,61.8V60.7h0.5c0.7,0,1.1-.4,1.5-1.3l0.2-.5L229,51h1.4l2.2,6.6h0l2.2-6.6h1.3L233,59.4c-0.7,1.8-1.3,2.4-2.7,2.4A1.2,1.2,0,0,1,229.7,61.8Z"/><path class="cls-14" d="M130.5,169.8c0-1.4,1-2.2,3-2.3l2.2-.1v-0.7q0-1.5-1.8-1.5a1.78,1.78,0,0,0-1.8,1.2h-1.2c0-1.3,1.3-2.4,3-2.4,1.9,0,3.1,1,3.1,2.5v5.4h-1.2v-1.4h0a2.63,2.63,0,0,1-2.5,1.4C131.6,172.1,130.5,171.2,130.5,169.8Zm5.2-.8v-0.6l-2.1.1c-1.2.1-1.8,0.5-1.8,1.3a1.35,1.35,0,0,0,1.6,1.2A2.15,2.15,0,0,0,135.7,169Z"/><path class="cls-14" d="M146.4,168.1c0,2.4-1.4,4-3.4,4a2.74,2.74,0,0,1-2.5-1.4h0v3.9h-1.3V164.1h1.2v1.3h0A3.12,3.12,0,0,1,143,164C145.1,164,146.4,165.6,146.4,168.1Zm-1.3,0c0-1.7-.9-2.9-2.3-2.9s-2.3,1.2-2.3,2.9,0.9,2.9,2.3,2.9S145.1,169.8,145.1,168.1Z"/><path class="cls-14" d="M148.3,162a0.8,0.8,0,1,1,.8.8A0.74,0.74,0,0,1,148.3,162Zm0.1,2.1h1.3V172h-1.3v-7.9Z"/><path class="cls-14" d="M152.1,168.4v-1.2h4.8v1.2h-4.8Z"/><path class="cls-14" d="M159.1,164.1h1.2v1.3h0a2,2,0,0,1,1.9-1.4h0.5v1.3a5.64,5.64,0,0,0-.7-0.1,1.69,1.69,0,0,0-1.7,1.9V172H159v-7.9h0.1Z"/><path class="cls-14" d="M170.6,169.7c-0.2,1.4-1.6,2.3-3.3,2.3-2.2,0-3.6-1.5-3.6-4s1.4-4.1,3.6-4.1,3.4,1.5,3.4,3.9v0.5H165v0.1a2.26,2.26,0,0,0,2.3,2.5,2,2,0,0,0,2-1.2h1.3Zm-5.5-2.3h4.3a2.08,2.08,0,0,0-2.1-2.2A2.1,2.1,0,0,0,165.1,167.4Z"/><path class="cls-14" d="M179.8,168.1c0,2.4-1.4,4-3.4,4a2.74,2.74,0,0,1-2.5-1.4h0v3.9h-1.3V164.1h1.2v1.3h0a3.12,3.12,0,0,1,2.6-1.4C178.5,164,179.8,165.6,179.8,168.1Zm-1.3,0c0-1.7-.9-2.9-2.3-2.9s-2.3,1.2-2.3,2.9,0.9,2.9,2.3,2.9S178.5,169.8,178.5,168.1Z"/><path class="cls-14" d="M181.4,168.1c0-2.5,1.4-4,3.6-4s3.6,1.6,3.6,4-1.4,4-3.6,4S181.4,170.5,181.4,168.1Zm6,0c0-1.8-.9-2.9-2.3-2.9s-2.3,1.1-2.3,2.9,0.9,2.9,2.3,2.9S187.4,169.9,187.4,168.1Z"/><path class="cls-14" d="M193.4,164a2.7,2.7,0,0,1,2.9,2.3h-1.2a1.51,1.51,0,0,0-1.7-1.2c-1,0-1.6.5-1.6,1.1s0.4,0.9,1.3,1.1l1.2,0.3c1.6,0.4,2.2,1,2.2,2.1,0,1.3-1.3,2.3-3.1,2.3a2.83,2.83,0,0,1-3.1-2.3h1.3c0.1,0.8.8,1.2,1.9,1.2s1.8-.4,1.8-1.2c0-.6-0.3-0.8-1.2-1.1l-1.4-.4q-2.1-.6-2.1-2.1C190.5,165,191.7,164,193.4,164Z"/><path class="cls-14" d="M198.3,162a0.8,0.8,0,1,1,.8.8A0.79,0.79,0,0,1,198.3,162Zm0.2,2.1h1.3V172h-1.3v-7.9Z"/><path class="cls-14" d="M203.9,162.3v1.8h1.5v1.1h-1.5v4.7a0.93,0.93,0,0,0,1,1.1h0.5v1.1c-0.2,0-.5.1-0.8,0.1-1.4,0-2-.6-2-2.1v-4.8h-1.1v-1.1h1.1v-1.8h1.3v-0.1Z"/><path class="cls-14" d="M206.8,168.1c0-2.5,1.4-4,3.6-4s3.6,1.6,3.6,4-1.4,4-3.6,4S206.8,170.5,206.8,168.1Zm6,0c0-1.8-.9-2.9-2.3-2.9s-2.3,1.1-2.3,2.9,0.9,2.9,2.3,2.9S212.8,169.9,212.8,168.1Z"/><path class="cls-14" d="M216,164.1h1.2v1.3h0a2,2,0,0,1,1.9-1.4h0.5v1.3a5.64,5.64,0,0,0-.7-0.1,1.69,1.69,0,0,0-1.7,1.9V172H216v-7.9Z"/><path class="cls-14" d="M221.5,174.8v-1.1H222c0.7,0,1.1-.4,1.5-1.3l0.2-.5-2.9-7.9h1.4l2.2,6.6h0l2.2-6.6h1.3l-3.1,8.4c-0.7,1.8-1.3,2.4-2.7,2.4A1.22,1.22,0,0,1,221.5,174.8Z"/><circle id="Oval-1-Copy-57" class="cls-13" cx="116.5" cy="340.5" r="4.5"/><path class="cls-12" d="M135.1,335.4a3.31,3.31,0,0,1,3.5,3.5,3.36,3.36,0,0,1-3.5,3.5h-2.4V346H131V335.4h4.1Zm-2.5,5.6h2.1a2.1,2.1,0,1,0,0-4.2h-2.1V341Z"/><path class="cls-12" d="M139.8,342c0-2.5,1.5-4.1,3.8-4.1s3.8,1.6,3.8,4.1-1.5,4.1-3.8,4.1S139.8,344.5,139.8,342Zm5.9,0c0-1.7-.8-2.8-2.1-2.8s-2.2,1-2.2,2.8,0.8,2.8,2.2,2.8S145.7,343.8,145.7,342Z"/><path class="cls-12" d="M152.1,338c1.7,0,3,1,3,2.4h-1.5a1.4,1.4,0,0,0-1.6-1.1c-0.9,0-1.5.4-1.5,1s0.4,0.8,1.2,1l1.3,0.3c1.6,0.4,2.2,1,2.2,2.1,0,1.4-1.3,2.4-3.3,2.4s-3.1-1-3.2-2.4h1.6q0.15,1.2,1.8,1.2c1,0,1.6-.4,1.6-1.1,0-.5-0.3-0.8-1.1-1l-1.4-.4c-1.4-.4-2.1-1.1-2.1-2.2C149,338.9,150.3,338,152.1,338Z"/><path class="cls-12" d="M159.3,336.3v1.8h1.5v1.3h-1.5v4.4a0.86,0.86,0,0,0,1,1h0.5v1.3c-0.2,0-.5.1-0.9,0.1-1.6,0-2.2-.6-2.2-2.1v-4.6h-1.1V338h1.1v-1.8h1.6v0.1Z"/><path class="cls-12" d="M162.5,346.6h1.6a1.84,1.84,0,0,0,1.9,1c1.3,0,2.1-.7,2.1-1.7v-1.3h0a2.74,2.74,0,0,1-2.5,1.4c-2,0-3.3-1.6-3.3-4s1.3-4,3.4-4a2.63,2.63,0,0,1,2.5,1.4h0V338h1.5v7.7c0,1.9-1.4,3.1-3.7,3.1C164,348.9,162.7,348,162.5,346.6Zm5.6-4.6c0-1.6-.9-2.7-2.1-2.7s-2.1,1.1-2.1,2.7,0.8,2.7,2.1,2.7S168.1,343.6,168.1,342Z"/><path class="cls-12" d="M171.9,338h1.5v1.3h0a1.84,1.84,0,0,1,1.9-1.4,1.27,1.27,0,0,1,.6.1v1.5a1.29,1.29,0,0,0-.7-0.1,1.66,1.66,0,0,0-1.7,1.8v4.7h-1.6V338Z"/><path class="cls-12" d="M184,343.7c-0.2,1.4-1.6,2.4-3.4,2.4-2.3,0-3.7-1.6-3.7-4s1.5-4.1,3.7-4.1,3.6,1.5,3.6,3.9v0.6h-5.6v0.1a2.13,2.13,0,0,0,2.2,2.3,1.94,1.94,0,0,0,1.9-1.1H184v-0.1Zm-5.5-2.4h4a2,2,0,0,0-2-2.1A2.09,2.09,0,0,0,178.5,341.3Z"/><path class="cls-12" d="M187.3,343.1c0.1,1,1.1,1.7,2.5,1.7s2.3-.7,2.3-1.6-0.6-1.3-1.9-1.6l-1.4-.3c-1.9-.5-2.8-1.4-2.8-2.8,0-1.8,1.6-3.1,3.8-3.1s3.8,1.3,3.8,3.1H192a2,2,0,0,0-2.2-1.7c-1.2,0-2.1.6-2.1,1.6,0,0.7.6,1.2,1.9,1.5l1.2,0.3c2.2,0.5,3.1,1.4,3.1,2.9,0,2-1.6,3.2-4.1,3.2-2.3,0-3.9-1.2-4-3.1h1.5v-0.1Z"/><path class="cls-12" d="M203.2,347.1l-0.9-1.3a5.82,5.82,0,0,1-1.9.3c-3,0-5-2.1-5-5.5s1.9-5.5,5-5.5,5,2.1,5,5.5a5.48,5.48,0,0,1-1.8,4.4l1.4,2h-1.8v0.1Zm-1.8-2.5-1.3-1.8h1.7l0.7,1a4.17,4.17,0,0,0,1.1-3.1c0-2.5-1.3-4-3.3-4s-3.3,1.6-3.3,4,1.3,4,3.3,4A3.42,3.42,0,0,0,201.4,344.6Z"/><path class="cls-12" d="M214.1,346h-6.6V335.4h1.6v9.1H214V346h0.1Z"/><rect id="Rectangle-14-Copy-7" class="cls-3" x="733" y="86" width="2" height="32"/><rect id="Rectangle-2-Copy-19" class="cls-15" y="30" width="90" height="390"/><rect id="Rectangle-3-Copy-39" class="cls-16" x="102" y="140" width="260" height="1"/><rect id="Rectangle-3-Copy-40" class="cls-16" x="102" y="314" width="260" height="1"/><rect id="Rectangle-3-Copy-42" class="cls-17" x="387" y="283" width="275" height="1"/><rect id="Rectangle-3-Copy-43" class="cls-3" x="387" y="236" width="275" height="1"/><rect id="Rectangle-5-Copy-42" class="cls-16" x="374" y="30" width="1" height="390"/><rect id="Rectangle-5-Copy-43" class="cls-17" x="674" y="133" width="1" height="287"/><rect id="Rectangle-5-Copy-44" class="cls-17" x="777" y="133" width="1" height="45"/><rect id="Rectangle-5-Copy-45" class="cls-17" x="880" y="133" width="1" height="45"/><rect id="Rectangle-5-Copy-46" class="cls-17" x="983" y="133" width="1" height="45"/><rect id="Rectangle-24-Copy-7" class="cls-2" x="675" y="178" width="404" height="242"/><path class="cls-18" d="M0.5,29.5V3A2.48,2.48,0,0,1,3,.5H1077a2.48,2.48,0,0,1,2.5,2.5V29.5H0.5Z"/><path class="cls-16" d="M1077,1a2,2,0,0,1,2,2V29H1V3A2,2,0,0,1,3,1H1077m0-1H3A3,3,0,0,0,0,3V30H1080V3a3,3,0,0,0-3-3h0Z"/><path class="cls-16" d="M18,10a5,5,0,1,1-5,5,5,5,0,0,1,5-5m0-1a6,6,0,1,0,6,6,6,6,0,0,0-6-6h0Z"/><path class="cls-16" d="M39,10a5,5,0,1,1-5,5,5,5,0,0,1,5-5m0-1a6,6,0,1,0,6,6,6,6,0,0,0-6-6h0Z"/><path class="cls-16" d="M60,10a5,5,0,1,1-5,5,5,5,0,0,1,5-5m0-1a6,6,0,1,0,6,6,6,6,0,0,0-6-6h0Z"/><rect id="Rectangle-3-Copy-44" class="cls-17" x="675" y="178" width="404" height="1"/><rect id="Rectangle-3-Copy-45" class="cls-17" x="374" y="132" width="705" height="1"/><path id="Rectangle-232-Copy-9" class="cls-19" d="M28.5,171h33a4.48,4.48,0,0,1,4.5,4.5h0a4.48,4.48,0,0,1-4.5,4.5h-33a4.48,4.48,0,0,1-4.5-4.5h0A4.48,4.48,0,0,1,28.5,171Z"/><path id="Rectangle-232-Copy-10" class="cls-19" d="M33,120H57a9,9,0,0,1,9,9v24a9,9,0,0,1-9,9H33a9,9,0,0,1-9-9V129A9,9,0,0,1,33,120Z"/><path id="Rectangle-232-Copy-12" class="cls-19" d="M28.5,255h33a4.48,4.48,0,0,1,4.5,4.5h0a4.48,4.48,0,0,1-4.5,4.5h-33a4.48,4.48,0,0,1-4.5-4.5h0A4.48,4.48,0,0,1,28.5,255Z"/><path id="Rectangle-232-Copy-11" class="cls-19" d="M33,204H57a9,9,0,0,1,9,9v24a9,9,0,0,1-9,9H33a9,9,0,0,1-9-9V213A9,9,0,0,1,33,204Z"/><path id="Rectangle-236-Copy-4" class="cls-6" d="M615.5,53h134a4.48,4.48,0,0,1,4.5,4.5h0a4.48,4.48,0,0,1-4.5,4.5h-134a4.48,4.48,0,0,1-4.5-4.5h0A4.48,4.48,0,0,1,615.5,53Z"/><path id="Rectangle-236-Copy-5" class="cls-6" d="M767.5,53h70a4.48,4.48,0,0,1,4.5,4.5h0a4.48,4.48,0,0,1-4.5,4.5h-70a4.48,4.48,0,0,1-4.5-4.5h0A4.48,4.48,0,0,1,767.5,53Z"/><rect id="Rectangle-5-Copy-49" class="cls-17" x="1079" y="30" width="1" height="390"/><rect id="Rectangle-937" class="cls-20" x="90" y="30" width="284" height="390"/><path class="cls-21" d="M105,212H359a3,3,0,0,1,3,3v84a3,3,0,0,1-3,3H105a3,3,0,0,1-3-3V215A3,3,0,0,1,105,212Z"/><path class="cls-22" d="M359,213a2,2,0,0,1,2,2v84a2,2,0,0,1-2,2H105a2,2,0,0,1-2-2V215a2,2,0,0,1,2-2H359m0-1H105a3,3,0,0,0-3,3v84a3,3,0,0,0,3,3H359a3,3,0,0,0,3-3V215a3,3,0,0,0-3-3h0Z"/><circle id="Oval-1-Copy-50" class="cls-13" cx="116.5" cy="229.5" r="4.5"/><circle id="Oval-1-Copy-51" class="cls-13" cx="134.5" cy="256.5" r="4.5"/><path class="cls-23" d="M130.8,227h1.5v1.3h0a1.84,1.84,0,0,1,1.9-1.4,1.27,1.27,0,0,1,.6.1v1.5a1.29,1.29,0,0,0-.7-0.1,1.66,1.66,0,0,0-1.7,1.8V235h-1.6v-8Z"/><path class="cls-23" d="M142.9,232.7c-0.2,1.4-1.6,2.4-3.4,2.4-2.3,0-3.7-1.6-3.7-4s1.5-4.1,3.7-4.1,3.6,1.5,3.6,3.9v0.6h-5.6v0.1a2.13,2.13,0,0,0,2.2,2.3,1.94,1.94,0,0,0,1.9-1.1h1.3v-0.1Zm-5.5-2.4h4a2,2,0,0,0-2-2.1A2.09,2.09,0,0,0,137.4,230.3Z"/><path class="cls-23" d="M147.8,227c1.7,0,3,1,3,2.4h-1.5a1.4,1.4,0,0,0-1.6-1.1c-0.9,0-1.5.4-1.5,1s0.4,0.8,1.2,1l1.3,0.3c1.6,0.4,2.2,1,2.2,2.1,0,1.4-1.3,2.4-3.3,2.4s-3.1-1-3.2-2.4H146q0.15,1.2,1.8,1.2c1,0,1.6-.4,1.6-1.1,0-.5-0.3-0.8-1.1-1l-1.4-.4c-1.4-.4-2.1-1.1-2.1-2.2C144.7,227.9,146,227,147.8,227Z"/><path class="cls-23" d="M159.7,232.7c-0.2,1.4-1.6,2.4-3.4,2.4-2.3,0-3.7-1.6-3.7-4s1.5-4.1,3.7-4.1,3.6,1.5,3.6,3.9v0.6h-5.6v0.1a2.13,2.13,0,0,0,2.2,2.3,1.94,1.94,0,0,0,1.9-1.1h1.3v-0.1Zm-5.5-2.4h4a2,2,0,0,0-2-2.1A2.09,2.09,0,0,0,154.2,230.3Z"/><path class="cls-23" d="M163.7,225.3V227h1.5v1.3h-1.5v4.4a0.86,0.86,0,0,0,1,1h0.5V235c-0.2,0-.5.1-0.9,0.1-1.6,0-2.2-.6-2.2-2.1v-4.6H161V227h1.1v-1.8h1.6v0.1Z"/><path class="cls-23" d="M167.2,231.5v-1.4H172v1.4h-4.8Z"/><path class="cls-23" d="M181.7,231c0,2.5-1.3,4.1-3.3,4.1a2.74,2.74,0,0,1-2.5-1.4h0v3.9h-1.6V227h1.5v1.3h0a2.63,2.63,0,0,1,2.5-1.4C180.4,227,181.7,228.6,181.7,231Zm-1.6,0c0-1.6-.8-2.7-2.1-2.7s-2.1,1.1-2.1,2.7,0.9,2.7,2.1,2.7S180.1,232.7,180.1,231Z"/><path class="cls-23" d="M183.3,232.7c0-1.4,1.1-2.2,3-2.3l2.1-.1v-0.6c0-.9-0.6-1.4-1.7-1.4a1.4,1.4,0,0,0-1.6,1.1h-1.5c0-1.4,1.4-2.4,3.2-2.4s3.2,1,3.2,2.6V235h-1.5v-1.3h0a2.63,2.63,0,0,1-2.5,1.4A2.4,2.4,0,0,1,183.3,232.7Zm5.1-.7v-0.6l-1.9.1c-1.1.1-1.6,0.5-1.6,1.2a1.25,1.25,0,0,0,1.5,1.1A1.84,1.84,0,0,0,188.4,232Z"/><path class="cls-23" d="M195.2,227c1.7,0,3,1,3,2.4h-1.5a1.4,1.4,0,0,0-1.6-1.1c-0.9,0-1.5.4-1.5,1s0.4,0.8,1.2,1l1.3,0.3c1.6,0.4,2.2,1,2.2,2.1,0,1.4-1.3,2.4-3.3,2.4s-3.1-1-3.2-2.4h1.6q0.15,1.2,1.8,1.2c1,0,1.6-.4,1.6-1.1,0-.5-0.3-0.8-1.1-1l-1.4-.4c-1.4-.4-2.1-1.1-2.1-2.2C192.1,227.9,193.3,227,195.2,227Z"/><path class="cls-23" d="M203.2,227c1.7,0,3,1,3,2.4h-1.5a1.4,1.4,0,0,0-1.6-1.1c-0.9,0-1.5.4-1.5,1s0.4,0.8,1.2,1l1.3,0.3c1.6,0.4,2.2,1,2.2,2.1,0,1.4-1.3,2.4-3.3,2.4s-3.1-1-3.2-2.4h1.6q0.15,1.2,1.8,1.2c1,0,1.6-.4,1.6-1.1,0-.5-0.3-0.8-1.1-1l-1.4-.4c-1.4-.4-2.1-1.1-2.1-2.2C200.1,227.9,201.4,227,203.2,227Z"/><path class="cls-23" d="M216.6,235H215l-1.7-6h0l-1.7,6H210l-2.2-8h1.6l1.5,6.3h0l1.7-6.3h1.5l1.7,6.3h0l1.5-6.3h1.6Z"/><path class="cls-23" d="M220,231c0-2.5,1.5-4.1,3.8-4.1s3.8,1.6,3.8,4.1-1.5,4.1-3.8,4.1S220,233.5,220,231Zm5.9,0c0-1.7-.8-2.8-2.1-2.8s-2.2,1-2.2,2.8,0.8,2.8,2.2,2.8S225.9,232.8,225.9,231Z"/><path class="cls-23" d="M229.4,227h1.5v1.3h0a1.84,1.84,0,0,1,1.9-1.4,1.27,1.27,0,0,1,.6.1v1.5a1.29,1.29,0,0,0-.7-0.1,1.66,1.66,0,0,0-1.7,1.8V235h-1.6v-8Z"/><path class="cls-23" d="M234.3,231c0-2.4,1.4-4.1,3.3-4.1a2.63,2.63,0,0,1,2.5,1.4h0V224h1.6v11h-1.5v-1.3h0a2.74,2.74,0,0,1-2.5,1.4C235.7,235.1,234.3,233.5,234.3,231Zm1.6,0c0,1.6.8,2.7,2.1,2.7s2.1-1.1,2.1-2.7-0.9-2.7-2.1-2.7S235.9,229.4,235.9,231Z"/><path class="cls-23" d="M157.1,262h-1.6l-1.7-6h0l-1.7,6h-1.6l-2.2-8h1.6l1.5,6.3h0l1.7-6.3h1.5l1.7,6.3h0l1.5-6.3h1.6Z"/><path class="cls-23" d="M167.6,259.7c-0.2,1.4-1.6,2.4-3.4,2.4-2.3,0-3.7-1.6-3.7-4s1.5-4.1,3.7-4.1,3.6,1.5,3.6,3.9v0.6h-5.6v0.1a2.13,2.13,0,0,0,2.2,2.3,1.94,1.94,0,0,0,1.9-1.1h1.3v-0.1Zm-5.5-2.4h4a2,2,0,0,0-2-2.1A2.09,2.09,0,0,0,162.1,257.3Z"/><path class="cls-23" d="M171.2,260.7h0V262h-1.5V251h1.6v4.4h0a2.74,2.74,0,0,1,2.5-1.4c2,0,3.3,1.6,3.3,4.1s-1.3,4.1-3.3,4.1A3.07,3.07,0,0,1,171.2,260.7Zm0-2.7c0,1.6.9,2.7,2.1,2.7s2.1-1.1,2.1-2.7-0.8-2.7-2.1-2.7S171.2,256.4,171.2,258Z"/><path class="cls-23" d="M179.2,264.3l3.2-12.9h1.4l-3.2,12.9h-1.4Z"/><path class="cls-23" d="M186.1,254h1.5v1.3h0a1.84,1.84,0,0,1,1.9-1.4,1.27,1.27,0,0,1,.6.1v1.5a1.29,1.29,0,0,0-.7-0.1,1.66,1.66,0,0,0-1.7,1.8v4.7h-1.6V254Z"/><path class="cls-23" d="M198.3,259.7c-0.2,1.4-1.6,2.4-3.4,2.4-2.3,0-3.7-1.6-3.7-4s1.5-4.1,3.7-4.1,3.6,1.5,3.6,3.9v0.6h-5.6v0.1a2.13,2.13,0,0,0,2.2,2.3,1.94,1.94,0,0,0,1.9-1.1h1.3v-0.1Zm-5.6-2.4h4a2,2,0,0,0-2-2.1A2.09,2.09,0,0,0,192.7,257.3Z"/><path class="cls-23" d="M203.2,254c1.7,0,3,1,3,2.4h-1.5a1.4,1.4,0,0,0-1.6-1.1c-0.9,0-1.5.4-1.5,1s0.4,0.8,1.2,1l1.3,0.3c1.6,0.4,2.2,1,2.2,2.1,0,1.4-1.3,2.4-3.3,2.4s-3.1-1-3.2-2.4h1.6q0.15,1.2,1.8,1.2c1,0,1.6-.4,1.6-1.1,0-.5-0.3-0.8-1.1-1l-1.4-.4c-1.4-.4-2.1-1.1-2.1-2.2C200.1,254.9,201.3,254,203.2,254Z"/><path class="cls-23" d="M215.1,259.7c-0.2,1.4-1.6,2.4-3.4,2.4-2.3,0-3.7-1.6-3.7-4s1.5-4.1,3.7-4.1,3.6,1.5,3.6,3.9v0.6h-5.6v0.1a2.13,2.13,0,0,0,2.2,2.3,1.94,1.94,0,0,0,1.9-1.1h1.3v-0.1Zm-5.6-2.4h4a2,2,0,0,0-2-2.1A2.09,2.09,0,0,0,209.5,257.3Z"/><path class="cls-23" d="M219.1,252.3v1.8h1.5v1.3h-1.5v4.4a0.86,0.86,0,0,0,1,1h0.5v1.3c-0.2,0-.5.1-0.9,0.1-1.6,0-2.2-.6-2.2-2.1v-4.6h-1.1V254h1.1v-1.8h1.6v0.1Z"/><path class="cls-23" d="M222.5,258.5v-1.4h4.8v1.4h-4.8Z"/><path class="cls-23" d="M237.1,258c0,2.5-1.3,4.1-3.3,4.1a2.74,2.74,0,0,1-2.5-1.4h0v3.9h-1.6V254h1.5v1.3h0a2.63,2.63,0,0,1,2.5-1.4C235.7,254,237.1,255.6,237.1,258Zm-1.7,0c0-1.6-.8-2.7-2.1-2.7s-2.1,1.1-2.1,2.7,0.9,2.7,2.1,2.7S235.4,259.7,235.4,258Z"/><path class="cls-23" d="M247.2,262h-1.6l-1.7-6h0l-1.7,6h-1.6l-2.2-8H240l1.5,6.3h0l1.7-6.3h1.5l1.7,6.3h0l1.5-6.3h1.6Z"/><path class="cls-23" d="M250.6,258c0-2.4,1.4-4.1,3.3-4.1a2.63,2.63,0,0,1,2.5,1.4h0V251H258v11h-1.5v-1.3h0a2.74,2.74,0,0,1-2.5,1.4C251.9,262.1,250.6,260.5,250.6,258Zm1.6,0c0,1.6.8,2.7,2.1,2.7s2.1-1.1,2.1-2.7-0.9-2.7-2.1-2.7S252.2,256.4,252.2,258Z"/><path class="cls-23" d="M260.3,258.5v-1.4h4.8v1.4h-4.8Z"/><path class="cls-23" d="M267.9,255.3h-1.1V254h1.1v-0.7c0-1.5.7-2.1,2.3-2.1a2.2,2.2,0,0,1,.8.1v1.2c-0.2,0-.4-0.1-0.6-0.1-0.7,0-.9.3-0.9,1v0.7H271v1.3h-1.5v6.7h-1.6v-6.8Z"/><path class="cls-23" d="M273,251h1.6v11H273V251Z"/><path class="cls-23" d="M276.5,258c0-2.5,1.5-4.1,3.8-4.1s3.8,1.6,3.8,4.1-1.5,4.1-3.8,4.1S276.5,260.5,276.5,258Zm5.9,0c0-1.7-.8-2.8-2.1-2.8s-2.2,1-2.2,2.8,0.8,2.8,2.2,2.8S282.4,259.8,282.4,258Z"/><path class="cls-23" d="M294.1,262h-1.6l-1.7-6h0l-1.7,6h-1.6l-2.2-8h1.6l1.5,6.3h0l1.7-6.3h1.5l1.7,6.3h0l1.5-6.3h1.6Z"/><circle id="Oval-1-Copy-52" class="cls-13" cx="134.5" cy="283.5" r="4.5"/><path class="cls-23" d="M153.1,278.4a3.31,3.31,0,0,1,3.5,3.5,3.36,3.36,0,0,1-3.5,3.5h-2.4V289H149V278.4h4.1Zm-2.5,5.6h2.1a2.1,2.1,0,1,0,0-4.2h-2.1V284Z"/><path class="cls-23" d="M157.8,285c0-2.5,1.5-4.1,3.8-4.1s3.8,1.6,3.8,4.1-1.5,4.1-3.8,4.1S157.8,287.5,157.8,285Zm5.9,0c0-1.7-.8-2.8-2.1-2.8s-2.2,1-2.2,2.8,0.8,2.8,2.2,2.8S163.7,286.8,163.7,285Z"/><path class="cls-23" d="M170.1,281c1.7,0,3,1,3,2.4h-1.5a1.4,1.4,0,0,0-1.6-1.1c-0.9,0-1.5.4-1.5,1s0.4,0.8,1.2,1l1.3,0.3c1.6,0.4,2.2,1,2.2,2.1,0,1.4-1.3,2.4-3.3,2.4s-3.1-1-3.2-2.4h1.6q0.15,1.2,1.8,1.2c1,0,1.6-.4,1.6-1.1,0-.5-0.3-0.8-1.1-1l-1.4-.4c-1.4-.4-2.1-1.1-2.1-2.2C167,281.9,168.3,281,170.1,281Z"/><path class="cls-23" d="M177.3,279.3v1.8h1.5v1.3h-1.5v4.4a0.86,0.86,0,0,0,1,1h0.5v1.3c-0.2,0-.5.1-0.9,0.1-1.6,0-2.2-.6-2.2-2.1v-4.6h-1.1V281h1.1v-1.8h1.6v0.1Z"/><path class="cls-23" d="M180.5,289.6h1.6a1.84,1.84,0,0,0,1.9,1c1.3,0,2.1-.7,2.1-1.7v-1.3h0a2.74,2.74,0,0,1-2.5,1.4c-2,0-3.3-1.6-3.3-4s1.3-4,3.4-4a2.63,2.63,0,0,1,2.5,1.4h0V281h1.5v7.7c0,1.9-1.4,3.1-3.7,3.1C182,291.9,180.7,291,180.5,289.6Zm5.6-4.6c0-1.6-.9-2.7-2.1-2.7s-2.1,1.1-2.1,2.7,0.8,2.7,2.1,2.7S186.1,286.6,186.1,285Z"/><path class="cls-23" d="M189.9,281h1.5v1.3h0a1.84,1.84,0,0,1,1.9-1.4,1.27,1.27,0,0,1,.6.1v1.5a1.29,1.29,0,0,0-.7-0.1,1.66,1.66,0,0,0-1.7,1.8v4.7h-1.6V281Z"/><path class="cls-23" d="M202,286.7c-0.2,1.4-1.6,2.4-3.4,2.4-2.3,0-3.7-1.6-3.7-4s1.5-4.1,3.7-4.1,3.6,1.5,3.6,3.9v0.6h-5.6v0.1a2.13,2.13,0,0,0,2.2,2.3,1.94,1.94,0,0,0,1.9-1.1H202v-0.1Zm-5.5-2.4h4a2,2,0,0,0-2-2.1A2.09,2.09,0,0,0,196.5,284.3Z"/><path class="cls-23" d="M205.3,286.1c0.1,1,1.1,1.7,2.5,1.7s2.3-.7,2.3-1.6-0.6-1.3-1.9-1.6l-1.4-.3c-1.9-.5-2.8-1.4-2.8-2.8,0-1.8,1.6-3.1,3.8-3.1s3.8,1.3,3.8,3.1H210a2,2,0,0,0-2.2-1.7c-1.2,0-2.1.6-2.1,1.6,0,0.7.6,1.2,1.9,1.5l1.2,0.3c2.2,0.5,3.1,1.4,3.1,2.9,0,2-1.6,3.2-4.1,3.2-2.3,0-3.9-1.2-4-3.1h1.5v-0.1Z"/><path class="cls-23" d="M221.2,290.1l-0.9-1.3a5.82,5.82,0,0,1-1.9.3c-3,0-5-2.1-5-5.5s1.9-5.5,5-5.5,5,2.1,5,5.5a5.48,5.48,0,0,1-1.8,4.4l1.4,2h-1.8v0.1Zm-1.8-2.5-1.3-1.8h1.7l0.7,1a4.17,4.17,0,0,0,1.1-3.1c0-2.5-1.3-4-3.3-4s-3.3,1.6-3.3,4,1.3,4,3.3,4A3.42,3.42,0,0,0,219.4,287.6Z"/><path class="cls-23" d="M232.1,289h-6.6V278.4h1.6v9.1H232V289h0.1Z"/><path class="cls-1" d="M298,238.5a1.54,1.54,0,0,1-1.5-1.5V223a1.54,1.54,0,0,1,1.5-1.5h53a1.54,1.54,0,0,1,1.5,1.5v14a1.54,1.54,0,0,1-1.5,1.5H298Z"/><path class="cls-24" d="M351,222a0.94,0.94,0,0,1,1,1v14a0.94,0.94,0,0,1-1,1H298a0.94,0.94,0,0,1-1-1V223a0.94,0.94,0,0,1,1-1h53m0-1H298a2,2,0,0,0-2,2v14a2,2,0,0,0,2,2h53a2,2,0,0,0,2-2V223a2,2,0,0,0-2-2h0Z"/><path class="cls-25" d="M302.7,234l1.8-8.5h1.1l-1.8,8.5h-1.1Z"/><path class="cls-25" d="M306.8,232.3a1.45,1.45,0,0,0,1.5,1c0.9,0,1.5-.4,1.5-1a0.93,0.93,0,0,0-.8-0.9l-1-.3a1.7,1.7,0,0,1-1.5-1.7c0-1.1,1-1.9,2.4-1.9a2.25,2.25,0,0,1,2.4,1.7h-1a1.37,1.37,0,0,0-1.4-.9,1.1,1.1,0,0,0-1.3.9,1,1,0,0,0,.9.9l0.9,0.3a1.68,1.68,0,0,1,1.5,1.7c0,1.1-1.1,1.9-2.5,1.9s-2.4-.7-2.5-1.8h0.9v0.1Z"/><path class="cls-25" d="M312.3,231.5c0-2.3,1.4-3.9,3.4-3.9a2.52,2.52,0,0,1,2.6,2.6c0,2.3-1.4,3.9-3.3,3.9A2.49,2.49,0,0,1,312.3,231.5Zm2.7,1.7c1.2,0,2.1-1.3,2.1-2.8a1.62,1.62,0,0,0-1.6-1.9c-1.3,0-2.2,1.2-2.2,2.9A1.71,1.71,0,0,0,315,233.2Z"/><path class="cls-25" d="M321,225.2h1l-1.9,8.8h-1Z"/><path class="cls-25" d="M322.1,232.4c0-1.2,1-2,2.7-2.1l1.8-.1,0.1-.4v-0.3c0-.6-0.5-1-1.4-1a1.39,1.39,0,0,0-1.4.8H323a2.53,2.53,0,0,1,2.5-1.7c1.4,0,2.3.7,2.3,1.8a0.9,0.9,0,0,1-.1.5l-0.9,4.1h-1l0.2-.8h0a2.2,2.2,0,0,1-1.9.9A1.9,1.9,0,0,1,322.1,232.4Zm4.2-.6,0.2-.7-1.7.1c-1,.1-1.6.5-1.6,1.1a1.06,1.06,0,0,0,1.2,1A2.17,2.17,0,0,0,326.3,231.8Z"/><path class="cls-25" d="M329.4,232.8a0.9,0.9,0,0,1,.1-0.5l0.8-3.7h-1.1l0.2-.8h1.1l0.3-1.6h1l-0.3,1.6h1.4l-0.2.8h-1.4l-0.7,3.4c0,0.2-.1.4-0.1,0.6a0.67,0.67,0,0,0,.8.7h0.4l-0.2.9c-0.2,0-.4.1-0.6,0.1C330.1,234,329.4,233.6,329.4,232.8Z"/><path class="cls-25" d="M333.3,231.5c0-2.3,1.4-3.9,3.3-3.9a2.37,2.37,0,0,1,2.4,2.6,2.77,2.77,0,0,1-.1.9h-4.6v0.3a1.58,1.58,0,0,0,1.6,1.8,1.7,1.7,0,0,0,1.6-.8h1.1a2.62,2.62,0,0,1-2.7,1.7A2.46,2.46,0,0,1,333.3,231.5Zm4.7-1.2V230a1.39,1.39,0,0,0-1.4-1.5,2.11,2.11,0,0,0-2,1.8H338Z"/><path class="cls-25" d="M340.2,231.6c0-2.3,1.4-4,3.3-4a1.87,1.87,0,0,1,1.9,1.3h0.1l0.8-3.7h1l-1.9,8.8h-1l0.2-.9h-0.1a2.61,2.61,0,0,1-2,1A2.32,2.32,0,0,1,340.2,231.6Zm4.9-1.4a1.5,1.5,0,0,0-1.6-1.7c-1.3,0-2.3,1.2-2.3,2.9a1.58,1.58,0,0,0,1.6,1.8C344.1,233.2,345.1,231.9,345.1,230.2Z"/><path class="cls-26" d="M29.49,68.53c2.23-5.77-6.21-5.12-5.92-9.92,0.16-2.67,4.36-5,6.76-4.46,4,0.95,4.32,6.28,4.62,9.6"/><path class="cls-27" d="M29.49,69.1A0.57,0.57,0,0,1,29,68.33c1-2.71-.52-3.7-2.5-5-1.69-1.07-3.61-2.28-3.46-4.8a5,5,0,0,1,2.26-3.52,6.88,6.88,0,0,1,5.2-1.46c4.23,1,4.71,6.3,5,9.79l0,0.3a0.57,0.57,0,0,1-1.13.1l0-.3c-0.29-3.17-.72-8-4.16-8.79A5.8,5.8,0,0,0,25.94,56a4,4,0,0,0-1.8,2.68c-0.11,1.85,1.3,2.74,2.93,3.77,1.93,1.22,4.34,2.74,3,6.32A0.57,0.57,0,0,1,29.49,69.1Z"/><path class="cls-27" d="M32.38,62.53s-0.78-3.65-3.5-4.4c-1.83-.51-2.87.77-2.7,1.7,0.26,1.42,4.33,3.34,4.91,4.33"/><path class="cls-26" d="M60.51,68.53c-2.23-5.77,6.21-5.12,5.92-9.92-0.16-2.67-4.36-5-6.76-4.46-4,.95-4.32,6.28-4.62,9.6"/><path class="cls-27" d="M60.51,69.1A0.57,0.57,0,0,1,60,68.74c-1.39-3.58,1-5.1,3-6.32,1.63-1,3-1.92,2.93-3.77A4,4,0,0,0,64.06,56,5.8,5.8,0,0,0,59.8,54.7c-3.44.83-3.88,5.62-4.16,8.79l0,0.3a0.57,0.57,0,0,1-1.13-.1l0-.3c0.32-3.5.8-8.78,5-9.79a6.88,6.88,0,0,1,5.2,1.46A5,5,0,0,1,67,58.58c0.15,2.52-1.77,3.73-3.46,4.8-2,1.25-3.55,2.24-2.5,5A0.57,0.57,0,0,1,60.51,69.1Z"/><path class="cls-27" d="M57.62,62.53s0.78-3.65,3.5-4.4c1.83-.51,2.87.77,2.7,1.7-0.26,1.42-4.33,3.34-4.91,4.33"/><path class="cls-26" d="M62.56,78V76.16C61.94,69.76,61,61.93,57.9,59.92c-2.8-1.83-6.11-2.26-10.1-2.61a6.21,6.21,0,0,1,1-1.37c-1.22,0-1.72-.14-2.83.59,0.41-.38.79-1,1.22-1.41-1.94-.32-3.86.72-5.39,2.07-4.59.27-8.08,1-10.7,3.09-2.85,2.25-3.78,9.48-4.46,16.17V78c0,10.16,12.55,18.39,17.94,18.39S62.56,88.2,62.56,78Z"/><path class="cls-28" d="M44.62,91.52c-7.16,0-16.37-7.22-17.79-16.48q-0.08.71-.15,1.41V78c0,10.16,12.55,18.39,17.94,18.39S62.56,88.2,62.56,78V76.16c0-.42-0.08-0.84-0.13-1.27C61.12,84.22,51.78,91.52,44.62,91.52Z"/><path class="cls-29" d="M57.59,60.39c-2.7-1.77-5.92-2.17-9.84-2.52A0.57,0.57,0,0,1,47.3,57a5.65,5.65,0,0,1,.32-0.52,2.43,2.43,0,0,0-1.3.49,0.57,0.57,0,0,1-.7-0.89,4.47,4.47,0,0,0,.4-0.46,7.47,7.47,0,0,0-3.81,2,0.57,0.57,0,0,1-.34.14c-5,.3-8.13,1.18-10.38,3C29,62.67,28.06,68.92,27.4,75,28.81,84,37.8,91,44.62,91s15.93-7,17.24-16.09C61.36,69.87,60.39,62.22,57.59,60.39Z"/><path class="cls-27" d="M27.4,75c0.66-6.1,1.64-12.35,4.09-14.3,2.25-1.78,5.36-2.67,10.38-3a0.57,0.57,0,0,0,.34-0.14,7.47,7.47,0,0,1,3.81-2,4.47,4.47,0,0,1-.4.46,0.57,0.57,0,0,0,.7.89,2.43,2.43,0,0,1,1.3-.49,5.65,5.65,0,0,0-.32.52,0.57,0.57,0,0,0,.45.84c3.92,0.35,7.14.75,9.84,2.52s3.77,9.48,4.27,14.47V74.81l0.61-4.31c-0.72-5-1.88-9.51-4.27-11.06-2.69-1.76-5.75-2.26-9.41-2.61a6.31,6.31,0,0,1,.44-0.49,0.57,0.57,0,0,0-.4-1H47.74a0.57,0.57,0,0,0-.42-0.81c-2.25-.38-4.32.89-5.71,2.07-5.16.32-8.4,1.28-10.82,3.2-2.21,1.75-3.31,6.07-4,11.05L27.39,75V75Z"/><path class="cls-27" d="M63.12,76.11v0.05s0,0,0-.05Q63.06,75.4,63,74.68l0,0.15C63,75.26,63.08,75.69,63.12,76.11Z"/><path class="cls-27" d="M26.26,75q-0.07.7-.15,1.4a0.55,0.55,0,0,0,0,.06V76.39Q26.19,75.7,26.26,75Z"/><path class="cls-28" d="M62.52,70.19l0,0.31c0.2,1.37.36,2.78,0.5,4.18Z"/><path class="cls-28" d="M26.73,70.64L26.26,75v0c0.15-1.39.31-2.78,0.5-4.11Z"/><path class="cls-30" d="M44.62,91C37.8,91,28.81,84,27.4,75q-0.08.73-.15,1.46V78c0,5.81,4.23,10.38,6.75,12.58,3.54,3.09,7.9,5.25,10.62,5.25s7.08-2.16,10.62-5.25C57.76,88.42,62,83.85,62,78V76.19c0-.41-0.08-0.86-0.13-1.32C60.55,83.93,51.53,91,44.62,91Z"/><path class="cls-31" d="M63.12,76.11c0-.42-0.08-0.85-0.13-1.28l0-.15c-0.14-1.4-.31-2.81-0.5-4.18l-0.61,4.31v0.05c0,0.47.09,0.91,0.13,1.32V78c0,5.81-4.23,10.38-6.75,12.58-3.54,3.09-7.9,5.25-10.62,5.25S37.54,93.71,34,90.62c-2.52-2.2-6.75-6.77-6.75-12.58V76.48q0.07-.73.15-1.46V75l-0.62-4.07c-0.19,1.34-.35,2.72-0.5,4.11q-0.07.7-.15,1.4V78c0,6.26,4.47,11.1,7.14,13.43C37,94.73,41.66,97,44.62,97S52.26,94.73,56,91.47c2.67-2.33,7.14-7.17,7.14-13.43V76.11Z"/><path class="cls-32" d="M31,66.34a0.57,0.57,0,0,1-.48-0.87,7.51,7.51,0,0,1,6.12-3.34,0.57,0.57,0,1,1,0,1.13,6.44,6.44,0,0,0-5.15,2.81A0.57,0.57,0,0,1,31,66.34Z"/><circle class="cls-32" cx="34.37" cy="67.78" r="1.7"/><path class="cls-32" d="M58.73,66.34a0.57,0.57,0,0,1-.48-0.27h0a6.36,6.36,0,0,0-5.16-2.81,0.57,0.57,0,1,1,0-1.13,7.51,7.51,0,0,1,6.12,3.34A0.57,0.57,0,0,1,58.73,66.34Z"/><circle class="cls-32" cx="55.31" cy="67.78" r="1.7"/><path class="cls-33" d="M39.22,68.78C42.53,64,56.89,65.43,51,80.62c-0.85,2.21-1.86,4.39-2.81,6.56-0.1.12-.18-0.46-0.39-0.4-1,1.66-2.26.9-3.32-.62-0.29.33-2.39,0.94-2.7,1.26C38.65,83.6,35.91,73.53,39.22,68.78Z"/><path class="cls-27" d="M46.53,88.28a3,3,0,0,1-2.18-1.37c-0.25.12-.58,0.25-1,0.42a8.84,8.84,0,0,0-1.13.49,0.57,0.57,0,0,1-.83,0c-3.06-3.71-6.2-14.16-2.61-19.31C40.65,65.75,45.51,65,49,66.8c2,1.06,6.24,4.56,2.58,14-0.63,1.65-1.36,3.29-2.07,4.88l-0.75,1.7a0.57,0.57,0,0,1-.09.14,0.6,0.6,0,0,1-.54.21,0.59,0.59,0,0,1-.24-0.09,1.82,1.82,0,0,1-1.27.61H46.53Zm-4.32-.48h0Zm2.29-2.22h0a0.57,0.57,0,0,1,.43.24,2.51,2.51,0,0,0,1.58,1.31,1.19,1.19,0,0,0,.79-0.67,0.57,0.57,0,0,1,.33-0.25,0.67,0.67,0,0,1,.34,0l0.43-1c0.7-1.58,1.42-3.21,2-4.82,2.35-6.07,1.6-10.67-2.06-12.62-2.94-1.56-7.19-.93-8.75,1.31h0c-3,4.23-.75,13.52,2.25,17.56,0.25-.12.57-0.24,1-0.4a8.78,8.78,0,0,0,1.17-.51A0.57,0.57,0,0,1,44.5,85.59Zm-0.41.18h0Zm-4.86-17h0Z"/><path class="cls-27" d="M45.49,81.07h-1a0.57,0.57,0,0,1,0-1.13h1A0.57,0.57,0,0,1,45.49,81.07Z"/><path class="cls-27" d="M49.18,70.54c-0.57-.59-2.32-0.88-4.18-0.9s-3.61.31-4.18,0.9C39.5,71.91,42.59,75,45,75.23,47.41,75,50.5,71.91,49.18,70.54Z"/><path class="cls-27" d="M45,81.07a0.57,0.57,0,0,1-.57-0.57V75.23a0.57,0.57,0,0,1,1.13,0v5.28A0.57,0.57,0,0,1,45,81.07Z"/><path class="cls-1" d="M47.59,71.62a0.48,0.48,0,0,1-.18,0,18,18,0,0,0-4.78,0,0.48,0.48,0,1,1-.37-0.89,16.55,16.55,0,0,1,5.52,0A0.48,0.48,0,0,1,47.59,71.62Z"/></svg>