<svg id="No_Avatar" data-name="No Avatar" xmlns="http://www.w3.org/2000/svg" xmlns:xlink="http://www.w3.org/1999/xlink" viewBox="0 0 200 211.675"><defs><clipPath id="clip-path" transform="translate(0 0)"><circle cx="100.001" cy="100" r="100" style="fill:none"/></clipPath></defs><title>no-runnabear</title><circle cx="100.001" cy="100" r="100" style="fill:#e3e3e4"/><g style="clip-path:url(#clip-path)"><path d="M50.093,38.5c-4.864-1.169-11.849.8-17.374,4.887-4.606,3.408-7.28,7.565-7.532,11.705C24.681,63.43,31.1,67.483,36.769,71.059c6.624,4.182,12.345,7.793,8.659,17.314a1.542,1.542,0,0,0,.882,2,1.515,1.515,0,0,0,.557.105,1.543,1.543,0,0,0,1.44-.986,23.36,23.36,0,0,0,.82-2.535L64.31,73.669A1.539,1.539,0,0,0,67,72.514L66.91,71.483C65.839,59.7,64.222,41.9,50.093,38.5Z" transform="translate(0 0)" style="fill:#aaa"/><path d="M174.051,55.1c-0.252-4.14-2.926-8.3-7.531-11.705-5.525-4.09-12.5-6.054-17.375-4.887C135.016,41.9,133.4,59.7,132.326,71.483l-0.094,1.031a1.538,1.538,0,0,0,2.693,1.152l15.184,13.287a23.784,23.784,0,0,0,.82,2.535,1.547,1.547,0,0,0,1.439.986,1.5,1.5,0,0,0,.557-0.105,1.542,1.542,0,0,0,.883-2c-3.686-9.521,2.035-13.133,8.66-17.314C168.135,67.483,174.557,63.43,174.051,55.1Z" transform="translate(0 0)" style="fill:#aaa"/><path d="M26.742,211.676H169.381c-1.918-8.451-3.646-15.8-4.891-21.566-1.871-8.674-1.953-27.937-1.953-27.937,0.5-16.613,2.473-89.082-18.646-102.884-9.533-6.232-20.8-7.682-34.369-8.88a21.139,21.139,0,0,1,3.566-4.653c-4.166.1-5.844-.49-9.644,2.018,1.379-1.3,2.7-3.467,4.148-4.781-6.6-1.1-13.123,2.434-18.346,7.027-15.623.92-27.485,3.449-36.394,10.506C32.818,76.393,33.978,162.172,33.978,162.172l-2.5,27.938S29.456,198.7,26.742,211.676Z" transform="translate(0 0)" style="fill:#aaa"/><path d="M80.352,89.461c11.262-16.138,60.115-11.4,40.131,40.263-2.9,7.527-6.344,14.926-9.572,22.314-0.348.4-.6-1.578-1.312-1.377-3.447,5.656-7.7,3.061-11.3-2.107-1,1.121-8.136,3.185-9.176,4.279C78.405,139.873,69.085,105.6,80.352,89.461Z" transform="translate(0 0)" style="fill:#eaeaea"/><path d="M114.219,95.444c-1.932-2-7.879-3.012-14.214-3.049-6.332.037-12.279,1.052-14.213,3.049-4.5,4.652,6,15.289,14.213,15.953C108.217,110.732,118.719,100.1,114.219,95.444Z" transform="translate(0 0)" style="fill:#aaa"/><path d="M101.666,131.342H98.344a2,2,0,0,1,0-4h3.322A2,2,0,0,1,101.666,131.342Z" transform="translate(0 0)" style="fill:#aaa"/><path d="M100.038,131.342a2,2,0,0,1-2-2V111.4a2,2,0,0,1,4,0v17.945A2,2,0,0,1,100.038,131.342Z" transform="translate(0 0)" style="fill:#aaa"/></g></svg>