<?xml version="1.0" encoding="utf-8"?>
<!-- Generator: Adobe Illustrator 19.2.1, SVG Export Plug-In . SVG Version: 6.00 Build 0)  -->
<!DOCTYPE svg PUBLIC "-//W3C//DTD SVG 1.1//EN" "http://www.w3.org/Graphics/SVG/1.1/DTD/svg11.dtd">
<svg version="1.1" id="No_Avatar" xmlns="http://www.w3.org/2000/svg" xmlns:xlink="http://www.w3.org/1999/xlink" x="0px" y="0px"
	 viewBox="0 0 600 430" style="enable-background:new 0 0 600 430;" xml:space="preserve">
<style type="text/css">
	.st0{fill:#CCCCCC;}
	.st1{fill:#E3E3E4;}
	.st2{clip-path:url(#SVGID_2_);}
	.st3{fill:#AAAAAA;}
	.st4{fill:#EAEAEA;}
</style>
<title>no-runnabear</title>
<rect class="st0" width="600" height="430"/>
<circle class="st1" cx="300" cy="209.2" r="100"/>
<g>
	<defs>
		<circle id="SVGID_1_" cx="300" cy="209.2" r="100"/>
	</defs>
	<clipPath id="SVGID_2_">
		<use xlink:href="#SVGID_1_"  style="overflow:visible;"/>
	</clipPath>
	<g class="st2">
		<path class="st3" d="M250.1,147.7c-4.9-1.2-11.8,0.8-17.4,4.9c-4.6,3.4-7.3,7.6-7.5,11.7c-0.5,8.3,5.9,12.4,11.6,16
			c6.6,4.2,12.3,7.8,8.7,17.3c-0.3,0.8,0.1,1.7,0.9,2c0,0,0,0,0,0h0c0.2,0.1,0.4,0.1,0.6,0.1c0.6,0,1.2-0.4,1.4-1
			c0.3-0.8,0.6-1.7,0.8-2.5l15.2-13.3c0.6,0.6,1.5,0.7,2.2,0.1c0.4-0.3,0.6-0.8,0.5-1.3l-0.1-1C265.8,168.9,264.2,151.1,250.1,147.7
			z"/>
		<path class="st3" d="M374.1,164.3c-0.3-4.1-2.9-8.3-7.5-11.7c-5.5-4.1-12.5-6.1-17.4-4.9c-14.1,3.4-15.7,21.2-16.8,33l-0.1,1
			c-0.1,0.8,0.5,1.6,1.4,1.7c0.5,0,1-0.1,1.3-0.5l15.2,13.3c0.2,0.9,0.5,1.7,0.8,2.5c0.2,0.6,0.8,1,1.4,1c0.2,0,0.4,0,0.6-0.1
			c0.8-0.3,1.2-1.2,0.9-2c0,0,0,0,0,0v0c-3.7-9.5,2-13.1,8.7-17.3C368.1,176.6,374.6,172.6,374.1,164.3z"/>
		<path class="st3" d="M226.7,320.8h142.6c-1.9-8.5-3.6-15.8-4.9-21.6c-1.9-8.7-2-27.9-2-27.9c0.5-16.6,2.5-89.1-18.6-102.9
			c-9.5-6.2-20.8-7.7-34.4-8.9c1-1.7,2.2-3.3,3.6-4.7c-4.2,0.1-5.8-0.5-9.6,2c1.4-1.3,2.7-3.5,4.1-4.8c-6.6-1.1-13.1,2.4-18.3,7
			c-15.6,0.9-27.5,3.4-36.4,10.5c-20,15.9-18.9,101.6-18.9,101.6l-2.5,27.9C231.5,299.3,229.5,307.9,226.7,320.8z"/>
		<path class="st4" d="M280.4,198.6c11.3-16.1,60.1-11.4,40.1,40.3c-2.9,7.5-6.3,14.9-9.6,22.3c-0.3,0.4-0.6-1.6-1.3-1.4
			c-3.4,5.7-7.7,3.1-11.3-2.1c-1,1.1-8.1,3.2-9.2,4.3C278.4,249,269.1,214.8,280.4,198.6z"/>
		<path class="st3" d="M314.2,204.6c-1.9-2-7.9-3-14.2-3c-6.3,0-12.3,1.1-14.2,3c-4.5,4.7,6,15.3,14.2,16
			C308.2,219.9,318.7,209.3,314.2,204.6z"/>
		<path class="st3" d="M301.7,240.5h-3.3c-1.1,0-2-0.9-2-2s0.9-2,2-2h3.3c1.1,0,2,0.9,2,2S302.8,240.5,301.7,240.5z"/>
		<path class="st3" d="M300,240.5c-1.1,0-2-0.9-2-2v-17.9c0-1.1,0.9-2,2-2s2,0.9,2,2v17.9C302,239.6,301.1,240.5,300,240.5z"/>
	</g>
</g>
</svg>
