<svg id="No_Avatar" data-name="No Avatar" xmlns="http://www.w3.org/2000/svg" xmlns:xlink="http://www.w3.org/1999/xlink" viewBox="0 0 600 430"><defs><clipPath id="clip-path"><circle cx="300.001" cy="197.199" r="64.726" style="fill:none"/></clipPath></defs><title>no-runnabear-loading</title><rect width="600" height="430" style="fill:#ccc"/><circle cx="300.001" cy="197.199" r="64.726" style="fill:#e3e3e4"/><g style="clip-path:url(#clip-path)"><path d="M267.7,157.392c-3.148-.757-7.669.518-11.246,3.163-2.981,2.206-4.712,4.9-4.875,7.576-0.328,5.4,3.827,8.02,7.5,10.335,4.287,2.707,7.99,5.044,5.6,11.207a1,1,0,0,0,.564,1.294h0.007a0.981,0.981,0,0,0,.361.068,1,1,0,0,0,.932-0.638,15.121,15.121,0,0,0,.531-1.641l9.827-8.6a1,1,0,0,0,1.741-.748l-0.058-.667C277.889,171.114,276.843,159.594,267.7,157.392Z" style="fill:#aaa"/><path d="M347.931,168.137c-0.163-2.68-1.894-5.372-4.875-7.576-3.576-2.647-8.091-3.919-11.246-3.163-9.145,2.2-10.191,13.717-10.886,21.344l-0.061.667a1,1,0,0,0,1.743.746l9.828,8.6a15.39,15.39,0,0,0,.531,1.641,1,1,0,0,0,.931.638,0.971,0.971,0,0,0,.361-0.068,1,1,0,0,0,.574-1.29h0v0c-2.386-6.163,1.317-8.5,5.605-11.207C344.1,176.153,348.258,173.529,347.931,168.137Z" style="fill:#aaa"/><path d="M252.583,269.483h92.325c-1.241-5.47-2.36-10.227-3.166-13.959-1.211-5.614-1.264-18.083-1.264-18.083,0.324-10.753,1.6-57.66-12.069-66.593-6.17-4.034-13.463-4.972-22.246-5.748a13.683,13.683,0,0,1,2.308-3.012c-2.7.065-3.783-.317-6.242,1.306,0.893-.841,1.748-2.244,2.685-3.095-4.272-.712-8.494,1.575-11.875,4.548-10.112.6-17.79,2.232-23.557,6.8-12.967,10.27-12.216,65.792-12.216,65.792l-1.618,18.083S254.34,261.084,252.583,269.483Z" style="fill:#aaa"/><path d="M287.283,190.378c7.289-10.446,38.91-7.379,25.975,26.061-1.877,4.872-4.106,9.661-6.2,14.443-0.225.259-.388-1.021-0.849-0.891-2.231,3.661-4.984,1.981-7.314-1.364-0.647.726-5.266,2.062-5.939,2.77C286.019,223.008,279.99,200.824,287.283,190.378Z" style="fill:#eaeaea"/><path d="M309.2,194.25c-1.251-1.295-5.1-1.95-9.2-1.974-4.1.024-7.948,0.681-9.2,1.974-2.913,3.011,3.884,9.9,9.2,10.326C305.319,204.146,312.116,197.264,309.2,194.25Z" style="fill:#aaa"/><path d="M301.079,217.483h-2.15a1.295,1.295,0,0,1,0-2.589h2.15A1.295,1.295,0,0,1,301.079,217.483Z" style="fill:#aaa"/><path d="M300.025,217.483a1.3,1.3,0,0,1-1.295-1.295v-11.61a1.295,1.295,0,1,1,2.589,0v11.615A1.3,1.3,0,0,1,300.025,217.483Z" style="fill:#aaa"/></g><path d="M263.247,281.819v12.8H270.9v2.9h-11.11V281.819h3.454Z" style="fill:#aaa"/><path d="M272.311,289.376a5.205,5.205,0,0,1,3.036-3.1,6.494,6.494,0,0,1,2.42-.429,6.586,6.586,0,0,1,2.432.429,5.184,5.184,0,0,1,3.047,3.1,7,7,0,0,1,.418,2.476,6.9,6.9,0,0,1-.418,2.464,5.348,5.348,0,0,1-1.188,1.881,5.18,5.18,0,0,1-1.858,1.2,6.751,6.751,0,0,1-2.432.418,6.656,6.656,0,0,1-2.42-.418,5.187,5.187,0,0,1-1.848-1.2,5.334,5.334,0,0,1-1.188-1.881,6.9,6.9,0,0,1-.418-2.464A7,7,0,0,1,272.311,289.376Zm2.838,3.807a3.561,3.561,0,0,0,.451,1.166,2.408,2.408,0,0,0,.848.825,2.586,2.586,0,0,0,1.319.308,2.649,2.649,0,0,0,1.331-.308,2.383,2.383,0,0,0,.858-0.825,3.561,3.561,0,0,0,.451-1.166,6.674,6.674,0,0,0,.132-1.331,6.825,6.825,0,0,0-.132-1.342,3.431,3.431,0,0,0-.451-1.166,2.5,2.5,0,0,0-.858-0.825,2.571,2.571,0,0,0-1.331-.319,2.405,2.405,0,0,0-2.167,1.145,3.431,3.431,0,0,0-.451,1.166,6.825,6.825,0,0,0-.132,1.342A6.674,6.674,0,0,0,275.148,293.183Z" style="fill:#aaa"/><path d="M285.256,289.651a3.624,3.624,0,0,1,.55-1.826,3.758,3.758,0,0,1,1.231-1.166,5.386,5.386,0,0,1,1.684-.627,9.612,9.612,0,0,1,1.881-.187,12.69,12.69,0,0,1,1.738.121,5.306,5.306,0,0,1,1.605.473,3.164,3.164,0,0,1,1.188.979,2.738,2.738,0,0,1,.462,1.661V295a11.911,11.911,0,0,0,.088,1.475,2.667,2.667,0,0,0,.308,1.056h-3.168a4.375,4.375,0,0,1-.143-0.539,4.608,4.608,0,0,1-.077-0.561,4.079,4.079,0,0,1-1.76,1.077,7.043,7.043,0,0,1-2.068.309,5.586,5.586,0,0,1-1.518-.2,3.467,3.467,0,0,1-1.232-.616,2.867,2.867,0,0,1-.825-1.056,3.58,3.58,0,0,1-.3-1.518,3.316,3.316,0,0,1,.341-1.6,2.858,2.858,0,0,1,.88-1,3.96,3.96,0,0,1,1.232-.561,13.03,13.03,0,0,1,1.4-.3q0.7-.11,1.386-0.177a8.373,8.373,0,0,0,1.21-.2,2.112,2.112,0,0,0,.836-0.386,0.844,0.844,0,0,0,.286-0.736,1.667,1.667,0,0,0-.165-0.8,1.223,1.223,0,0,0-.44-0.462,1.749,1.749,0,0,0-.638-0.22,5.3,5.3,0,0,0-.781-0.055,2.374,2.374,0,0,0-1.452.4,1.767,1.767,0,0,0-.615,1.32h-3.124Zm7.216,2.31a1.392,1.392,0,0,1-.5.275,5.017,5.017,0,0,1-.638.165q-0.341.066-.716,0.11t-0.748.109a5.844,5.844,0,0,0-.692.176,2.051,2.051,0,0,0-.594.3,1.4,1.4,0,0,0-.407.473,1.522,1.522,0,0,0-.154.726,1.469,1.469,0,0,0,.154.7,1.179,1.179,0,0,0,.418.451,1.751,1.751,0,0,0,.616.231,3.932,3.932,0,0,0,.726.065,2.762,2.762,0,0,0,1.43-.308,2.052,2.052,0,0,0,.748-0.737,2.348,2.348,0,0,0,.3-0.869,5.884,5.884,0,0,0,.056-0.7v-1.166Z" style="fill:#aaa"/><path d="M305.869,296.075a3.222,3.222,0,0,1-1.441,1.331,4.787,4.787,0,0,1-2.013.407,4.864,4.864,0,0,1-2.244-.5,4.5,4.5,0,0,1-1.595-1.342,6.1,6.1,0,0,1-.946-1.947,8.166,8.166,0,0,1-.318-2.288,7.671,7.671,0,0,1,.318-2.211,5.758,5.758,0,0,1,.946-1.881,4.6,4.6,0,0,1,3.773-1.8,4.474,4.474,0,0,1,1.925.429,3.356,3.356,0,0,1,1.44,1.265h0.044v-5.72h3.124v15.708h-2.97v-1.452h-0.044Zm-0.132-5.621a3.3,3.3,0,0,0-.451-1.144,2.532,2.532,0,0,0-.825-0.8,2.41,2.41,0,0,0-1.275-.309,2.534,2.534,0,0,0-1.3.309,2.44,2.44,0,0,0-.847.813,3.608,3.608,0,0,0-.462,1.155,6.247,6.247,0,0,0-.143,1.353,5.8,5.8,0,0,0,.153,1.32,3.6,3.6,0,0,0,.5,1.177,2.738,2.738,0,0,0,.858.836,2.317,2.317,0,0,0,1.243.319,2.485,2.485,0,0,0,1.287-.308,2.349,2.349,0,0,0,.824-0.825,3.7,3.7,0,0,0,.44-1.178,6.933,6.933,0,0,0,.132-1.363A6.784,6.784,0,0,0,305.737,290.454Z" style="fill:#aaa"/><path d="M311.187,284.394v-2.574h3.124v2.574h-3.124Zm3.124,1.76v11.374h-3.124V286.153h3.124Z" style="fill:#aaa"/><path d="M319.595,286.153v1.584h0.066a3.582,3.582,0,0,1,1.54-1.441,4.46,4.46,0,0,1,1.936-.45,5.3,5.3,0,0,1,2.057.341,3.059,3.059,0,0,1,1.266.946,3.657,3.657,0,0,1,.648,1.474,9.14,9.14,0,0,1,.188,1.925v7h-3.124V291.1a3.982,3.982,0,0,0-.44-2.1,1.7,1.7,0,0,0-1.562-.692,2.167,2.167,0,0,0-1.849.759,4.224,4.224,0,0,0-.571,2.5v5.962h-3.124V286.153h2.97Z" style="fill:#aaa"/><path d="M340.217,298.363a3.835,3.835,0,0,1-.8,1.639,4.763,4.763,0,0,1-1.781,1.287,7.674,7.674,0,0,1-3.125.528,7.255,7.255,0,0,1-1.7-.209,5.4,5.4,0,0,1-1.584-.649,3.893,3.893,0,0,1-1.188-1.133,3.283,3.283,0,0,1-.539-1.661h3.1a1.784,1.784,0,0,0,.857,1.222,3.09,3.09,0,0,0,1.474.341,2.272,2.272,0,0,0,1.926-.792,3.107,3.107,0,0,0,.584-2v-1.5h-0.045a3.1,3.1,0,0,1-1.441,1.331,4.663,4.663,0,0,1-1.969.429,4.969,4.969,0,0,1-2.2-.451,4.159,4.159,0,0,1-1.518-1.231,5.139,5.139,0,0,1-.869-1.826,8.642,8.642,0,0,1-.275-2.211,7.081,7.081,0,0,1,.319-2.123,5.553,5.553,0,0,1,.935-1.8,4.524,4.524,0,0,1,1.529-1.243,4.585,4.585,0,0,1,2.1-.462,4.413,4.413,0,0,1,1.97.418,3.4,3.4,0,0,1,1.418,1.407h0.045v-1.518H340.4V296.8A7.6,7.6,0,0,1,340.217,298.363Zm-4.277-3.784a2.45,2.45,0,0,0,.836-0.7,3.125,3.125,0,0,0,.494-1,4.169,4.169,0,0,0,.166-1.177,6.462,6.462,0,0,0-.133-1.331,3.335,3.335,0,0,0-.439-1.111,2.288,2.288,0,0,0-.814-0.77,2.573,2.573,0,0,0-1.275-.286,2.292,2.292,0,0,0-1.134.264,2.384,2.384,0,0,0-.792.716,3,3,0,0,0-.462,1.033,5.1,5.1,0,0,0-.144,1.222,6.182,6.182,0,0,0,.121,1.221,3.3,3.3,0,0,0,.418,1.089,2.431,2.431,0,0,0,.781.792,2.208,2.208,0,0,0,1.211.309A2.491,2.491,0,0,0,335.939,294.579Z" style="fill:#aaa"/></svg>