<svg id="No_Avatar" data-name="No Avatar" xmlns="http://www.w3.org/2000/svg" xmlns:xlink="http://www.w3.org/1999/xlink" viewBox="0 0 600 430"><defs><clipPath id="clip-path"><circle cx="300.001" cy="209.162" r="100" style="fill:none"/></clipPath></defs><title>no-runnabear</title><rect width="600" height="430" style="fill:#dbdbdb"/><circle cx="300.001" cy="209.162" r="100" style="fill:#e3e3e4"/><g style="clip-path:url(#clip-path)"><path d="M250.093,147.662c-4.864-1.169-11.849.8-17.374,4.887-4.606,3.408-7.28,7.565-7.532,11.705-0.506,8.338,5.913,12.391,11.582,15.967,6.624,4.182,12.345,7.793,8.659,17.314a1.542,1.542,0,0,0,.875,2l0.007,0a1.515,1.515,0,0,0,.557.105,1.543,1.543,0,0,0,1.44-.986,23.36,23.36,0,0,0,.82-2.535l15.183-13.288a1.539,1.539,0,0,0,2.69-1.155l-0.09-1.031C265.839,168.862,264.222,151.063,250.093,147.662Z" style="fill:#aaa"/><path d="M374.051,164.262c-0.252-4.14-2.926-8.3-7.531-11.705-5.525-4.09-12.5-6.054-17.375-4.887-14.129,3.392-15.745,21.192-16.819,32.975l-0.094,1.031a1.538,1.538,0,0,0,2.693,1.152l15.184,13.287a23.782,23.782,0,0,0,.82,2.535,1.547,1.547,0,0,0,1.439.986,1.5,1.5,0,0,0,.557-0.105,1.542,1.542,0,0,0,.886-1.993l0-.007c-3.686-9.521,2.035-13.133,8.66-17.314C368.135,176.646,374.557,172.592,374.051,164.262Z" style="fill:#aaa"/><path d="M226.742,320.838H369.381c-1.918-8.451-3.646-15.8-4.891-21.566-1.871-8.674-1.953-27.937-1.953-27.937,0.5-16.613,2.473-89.082-18.646-102.884-9.533-6.232-20.8-7.682-34.369-8.88a21.139,21.139,0,0,1,3.566-4.653c-4.166.1-5.844-.49-9.644,2.018,1.379-1.3,2.7-3.467,4.148-4.781-6.6-1.1-13.123,2.434-18.346,7.027-15.623.92-27.485,3.449-36.394,10.506-20.034,15.867-18.874,101.646-18.874,101.646l-2.5,27.938S229.456,307.862,226.742,320.838Z" style="fill:#aaa"/><path d="M280.352,198.623c11.262-16.138,60.115-11.4,40.131,40.263-2.9,7.527-6.344,14.926-9.572,22.314-0.348.4-.6-1.578-1.312-1.377-3.447,5.656-7.7,3.061-11.3-2.107-1,1.121-8.136,3.185-9.176,4.279C278.4,249.035,269.085,214.762,280.352,198.623Z" style="fill:#eaeaea"/><path d="M314.219,204.606c-1.932-2-7.879-3.012-14.214-3.049-6.332.037-12.279,1.052-14.213,3.049-4.5,4.652,6,15.289,14.213,15.953C308.217,219.895,318.719,209.262,314.219,204.606Z" style="fill:#aaa"/><path d="M301.666,240.5h-3.322a2,2,0,0,1,0-4h3.322A2,2,0,1,1,301.666,240.5Z" style="fill:#aaa"/><path d="M300.038,240.5a2,2,0,0,1-2-2V220.563a2,2,0,0,1,4,0v17.945A2,2,0,0,1,300.038,240.5Z" style="fill:#aaa"/></g></svg>