<?xml version="1.0" encoding="utf-8"?>
<!-- Generator: Adobe Illustrator 19.1.0, SVG Export Plug-In . SVG Version: 6.00 Build 0)  -->
<svg version="1.1" id="Layer_1" xmlns="http://www.w3.org/2000/svg" xmlns:xlink="http://www.w3.org/1999/xlink" x="0px" y="0px"
	 viewBox="-254 123 450 315" style="enable-background:new -254 123 450 315;" xml:space="preserve">
<style type="text/css">
	.st0{fill:#E1E1E1;}
	.st1{fill:#E0E0E0;}
	.st2{fill:#FFFFFF;}
	.st3{fill:#8635C1;}
	.st4{fill:#F7F7F7;}
	.st5{fill:url(#Rectangle-556-Copy-7_1_);}
	.st6{fill:url(#Rectangle-556-Copy-6_1_);}
	.st7{fill:#F8F5FA;}
	.st8{fill:#853CBE;}
	.st9{fill:url(#Rectangle-556-Copy_1_);}
	.st10{fill:url(#Rectangle-556-Copy-5_1_);}
	.st11{fill:url(#Rectangle-556-Copy-4_1_);}
	.st12{fill:url(#Rectangle-556-Copy-2_1_);}
	.st13{fill:none;stroke:#E0E0E0;stroke-width:2;}
	.st14{fill:#3E3745;}
	.st15{font-family:'SFUIText-Medium';}
	.st16{font-size:14px;}
	.st17{fill:#444444;}
	.st18{font-family:'SFUIText-Regular';}
	.st19{opacity:0.6;fill:#8635C1;enable-background:new    ;}
	.st20{filter:url(#Adobe_OpacityMaskFilter);}
	.st21{mask:url(#mask-3);fill:#351F49;}
	.st22{fill:#2AB0F7;}
	.st23{fill:#CCADD2;}
	.st24{fill:#44275E;}
	.st25{fill:#D1D3D4;}
	.st26{fill:#682F94;}
	.st27{filter:url(#Adobe_OpacityMaskFilter_1_);}
	.st28{mask:url(#mask-5);fill:#351F49;}
</style>
<title>pr-page</title>
<desc>Created with Sketch.</desc>
<g id="Page-1_1_">
	<g id="pr-page">
		<path id="Rectangle-553-Copy-3" class="st0" d="M-250,365h39c1.7,0,3,1.3,3,3v39c0,1.7-1.3,3-3,3h-39c-1.7,0-3-1.3-3-3v-39
			C-253,366.3-251.7,365-250,365z"/>
		<g id="Rectangle-553-Copy-5">
			<path class="st1" d="M192,366c1.1,0,2,0.9,2,2v66c0,1.1-0.9,2-2,2h-377c-1.1,0-2-0.9-2-2v-66c0-1.1,0.9-2,2-2H192 M192,365h-377
				c-1.7,0-3,1.3-3,3v66c0,1.7,1.3,3,3,3h377c1.7,0,3-1.3,3-3v-66C195,366.3,193.7,365,192,365L192,365z"/>
		</g>
		<g id="Rectangle-553-Copy-7">
			<path class="st2" d="M-185,346.5c-1.4,0-2.5-1.1-2.5-2.5v-66c0-1.4,1.1-2.5,2.5-2.5h377c1.4,0,2.5,1.1,2.5,2.5v66
				c0,1.4-1.1,2.5-2.5,2.5H-185z"/>
			<path class="st3" d="M192,276c1.1,0,2,0.9,2,2v66c0,1.1-0.9,2-2,2h-377c-1.1,0-2-0.9-2-2v-66c0-1.1,0.9-2,2-2H192 M192,275h-377
				c-1.7,0-3,1.3-3,3v66c0,1.7,1.3,3,3,3h377c1.7,0,3-1.3,3-3v-66C195,276.3,193.7,275,192,275L192,275z"/>
		</g>
		<g id="Combined-Shape-Copy-2">
			<path class="st4" d="M-187.5,397.5V368c0-1.4,1.1-2.5,2.5-2.5h377c1.4,0,2.5,1.1,2.5,2.5v29.5H-187.5z"/>
			<path class="st1" d="M192,366c1.1,0,2,0.9,2,2v7v22h-381v-22v-7c0-1.1,0.9-2,2-2H192 M192,365h-377c-1.7,0-3,1.3-3,3v7v23h383
				v-23v-7C195,366.3,193.7,365,192,365L192,365z"/>
		</g>
		
			<linearGradient id="Rectangle-556-Copy-7_1_" gradientUnits="userSpaceOnUse" x1="-506.1533" y1="546.9445" x2="-507.1533" y2="546.9445" gradientTransform="matrix(300 0 0 -9 151973 5340)">
			<stop  offset="0" style="stop-color:#E8E8E8;stop-opacity:0"/>
			<stop  offset="1" style="stop-color:#E8E8E8"/>
		</linearGradient>
		<path id="Rectangle-556-Copy-7" class="st5" d="M-168.5,413h291c2.5,0,4.5,2,4.5,4.5l0,0c0,2.5-2,4.5-4.5,4.5h-291
			c-2.5,0-4.5-2-4.5-4.5l0,0C-173,415-171,413-168.5,413z"/>
		
			<linearGradient id="Rectangle-556-Copy-6_1_" gradientUnits="userSpaceOnUse" x1="-505.3067" y1="546.9445" x2="-506.3067" y2="546.9445" gradientTransform="matrix(150 0 0 -9 75773 5304)">
			<stop  offset="0" style="stop-color:#E8E8E8;stop-opacity:0"/>
			<stop  offset="1" style="stop-color:#E8E8E8"/>
		</linearGradient>
		<path id="Rectangle-556-Copy-6" class="st6" d="M-168.5,377h141c2.5,0,4.5,2,4.5,4.5l0,0c0,2.5-2,4.5-4.5,4.5h-141
			c-2.5,0-4.5-2-4.5-4.5l0,0C-173,379-171,377-168.5,377z"/>
		<path id="Rectangle-553" class="st0" d="M-250,124h39c1.7,0,3,1.3,3,3v39c0,1.7-1.3,3-3,3h-39c-1.7,0-3-1.3-3-3v-39
			C-253,125.3-251.7,124-250,124z"/>
		<g id="Rectangle-553-Copy">
			<path class="st1" d="M192,125c1.1,0,2,0.9,2,2v66c0,1.1-0.9,2-2,2h-377c-1.1,0-2-0.9-2-2v-66c0-1.1,0.9-2,2-2H192 M192,124h-377
				c-1.7,0-3,1.3-3,3v66c0,1.7,1.3,3,3,3h377c1.7,0,3-1.3,3-3v-66C195,125.3,193.7,124,192,124L192,124z"/>
		</g>
		<g id="Combined-Shape">
			<path class="st4" d="M-187.5,156.5V127c0-1.4,1.1-2.5,2.5-2.5h377c1.4,0,2.5,1.1,2.5,2.5v29.5H-187.5z"/>
			<path class="st1" d="M192,125c1.1,0,2,0.9,2,2v7v22h-381v-22v-7c0-1.1,0.9-2,2-2H192 M192,124h-377c-1.7,0-3,1.3-3,3v7v23h383
				v-23v-7C195,125.3,193.7,124,192,124L192,124z"/>
		</g>
		<g id="Combined-Shape-Copy">
			<path class="st7" d="M-187.5,307.5V278c0-1.4,1.1-2.5,2.5-2.5h377c1.4,0,2.5,1.1,2.5,2.5v29.5H-187.5z"/>
			<path class="st8" d="M192,276c1.1,0,2,0.9,2,2v7v22h-381v-22v-7c0-1.1,0.9-2,2-2H192 M192,275h-377c-1.7,0-3,1.3-3,3v7v23h383
				v-23v-7C195,276.3,193.7,275,192,275L192,275z"/>
		</g>
		<path id="Rectangle-556" class="st1" d="M-145.5,214h11c1.4,0,2.5,1.1,2.5,2.5v11c0,1.4-1.1,2.5-2.5,2.5h-11
			c-1.4,0-2.5-1.1-2.5-2.5v-11C-148,215.1-146.9,214-145.5,214z"/>
		
			<linearGradient id="Rectangle-556-Copy_1_" gradientUnits="userSpaceOnUse" x1="-505.3067" y1="546.9445" x2="-506.3067" y2="546.9445" gradientTransform="matrix(150 0 0 -9 75824 5145)">
			<stop  offset="0" style="stop-color:#E8E8E8;stop-opacity:0"/>
			<stop  offset="1" style="stop-color:#E8E8E8"/>
		</linearGradient>
		<path id="Rectangle-556-Copy" class="st9" d="M-117.5,218h141c2.5,0,4.5,2,4.5,4.5l0,0c0,2.5-2,4.5-4.5,4.5h-141
			c-2.5,0-4.5-2-4.5-4.5l0,0C-122,220-120,218-117.5,218z"/>
		
			<linearGradient id="Rectangle-556-Copy-5_1_" gradientUnits="userSpaceOnUse" x1="-506.1533" y1="546.9445" x2="-507.1533" y2="546.9445" gradientTransform="matrix(300 0 0 -9 151973 5099)">
			<stop  offset="0" style="stop-color:#E8E8E8;stop-opacity:0"/>
			<stop  offset="1" style="stop-color:#E8E8E8"/>
		</linearGradient>
		<path id="Rectangle-556-Copy-5" class="st10" d="M-168.5,172h291c2.5,0,4.5,2,4.5,4.5l0,0c0,2.5-2,4.5-4.5,4.5h-291
			c-2.5,0-4.5-2-4.5-4.5l0,0C-173,174-171,172-168.5,172z"/>
		
			<linearGradient id="Rectangle-556-Copy-4_1_" gradientUnits="userSpaceOnUse" x1="-505.3067" y1="546.9445" x2="-506.3067" y2="546.9445" gradientTransform="matrix(150 0 0 -9 75773 5063)">
			<stop  offset="0" style="stop-color:#E8E8E8;stop-opacity:0"/>
			<stop  offset="1" style="stop-color:#E8E8E8"/>
		</linearGradient>
		<path id="Rectangle-556-Copy-4" class="st11" d="M-168.5,136h141c2.5,0,4.5,2,4.5,4.5l0,0c0,2.5-2,4.5-4.5,4.5h-141
			c-2.5,0-4.5-2-4.5-4.5l0,0C-173,138-171,136-168.5,136z"/>
		<path id="Rectangle-556-Copy-3" class="st1" d="M-145.5,241h11c1.4,0,2.5,1.1,2.5,2.5v11c0,1.4-1.1,2.5-2.5,2.5h-11
			c-1.4,0-2.5-1.1-2.5-2.5v-11C-148,242.1-146.9,241-145.5,241z"/>
		
			<linearGradient id="Rectangle-556-Copy-2_1_" gradientUnits="userSpaceOnUse" x1="-505.3067" y1="546.9445" x2="-506.3067" y2="546.9445" gradientTransform="matrix(150 0 0 -9 75824 5172)">
			<stop  offset="0" style="stop-color:#E8E8E8;stop-opacity:0"/>
			<stop  offset="1" style="stop-color:#E8E8E8"/>
		</linearGradient>
		<path id="Rectangle-556-Copy-2" class="st12" d="M-117.5,245h141c2.5,0,4.5,2,4.5,4.5l0,0c0,2.5-2,4.5-4.5,4.5h-141
			c-2.5,0-4.5-2-4.5-4.5l0,0C-122,247-120,245-117.5,245z"/>
		<circle id="Oval-129" class="st13" cx="-166" cy="222" r="3"/>
		<rect id="Rectangle-560" x="-173" y="221" class="st1" width="4" height="2"/>
		<rect id="Rectangle-560-Copy" x="-163" y="221" class="st1" width="4" height="2"/>
		<rect id="Rectangle-564" x="-167" y="231" class="st1" width="2" height="9"/>
		<circle id="Oval-129-Copy" class="st13" cx="-166" cy="249" r="3"/>
		<rect id="Rectangle-560-Copy-3" x="-173" y="248" class="st1" width="4" height="2"/>
		<rect id="Rectangle-560-Copy-2" x="-163" y="248" class="st1" width="4" height="2"/>
		<text transform="matrix(1 0 0 1 -173 296)" class="st14 st15 st16">Runnabot</text>
		<text transform="matrix(1 0 0 1 -173 332)" class="st17 st18 st16">Your pull request is ready to test on</text>
		<text transform="matrix(1 0 0 1 131 332)" class="st17 st18 st16">!</text>
		<text transform="matrix(1 0 0 1 68 332)" class="st8 st18 st16">Runnable</text>
		<rect id="Rectangle-710" x="68" y="335" class="st19" width="62" height="1"/>
		<g id="Page-1" transform="translate(1.000000, 152.000000)">
			<g id="Group-3" transform="translate(0.000000, 0.166505)">
				<g id="Clip-2">
				</g>
				<defs>
					<filter id="Adobe_OpacityMaskFilter" filterUnits="userSpaceOnUse" x="-254" y="123.1" width="45" height="43.7">
						<feColorMatrix  type="matrix" values="1 0 0 0 0  0 1 0 0 0  0 0 1 0 0  0 0 0 1 0"/>
					</filter>
				</defs>
				<mask maskUnits="userSpaceOnUse" x="-254" y="123.1" width="45" height="43.7" id="mask-3">
					<g class="st20">
						<path id="path-2" class="st2" d="M-209,123.1h-45v43.7h45V123.1L-209,123.1z"/>
					</g>
				</mask>
				<path id="Fill-1" class="st21" d="M-209,128.4c-0.1-1.3-0.9-2.5-2.2-3.5c-1.6-1.2-3.7-1.8-5.1-1.5c-2.2,0.5-3.4,2.3-4.1,4.4
					c-2.4-0.9-5.1-1.4-7-1.5c0,0,0,0,0,0c-0.6,0-1.1,0-1.6,0c-1.1,0-2.2-0.1-3.8,0c-0.1,0-0.1,0-0.2,0c-0.1,0-0.2,0-0.3,0
					c-0.6,0-1.2,0.1-1.7,0.2c-2.5,0.2-4.5,0.7-6.1,1.3l-5.5-4.6c-0.8-0.7-2.9,1.1-4.5,2.7c-0.5,0.5-2.8,2.9-2.7,4.1
					c0,0.3,0.1,0.4,0.2,0.5l5.8,6.7c-0.2,1.1-0.4,2.2-0.6,3.4c-0.2,1.3-0.3,2.7-0.5,4.1c0,0.3-0.1,0.7-0.1,1v0v0v0c0,0,0,0.1,0,0.1
					c0,0,0,0,0,0c0,0,0,0,0,0c0,0,0,0,0,0v0c0,0.1,0,0.2,0,0.3c0,0,0,0,0,0.1v1.6c0,6.3,4.4,11.1,7,13.4c3.7,3.3,8.3,5.5,11.2,5.5
					c2.9,0,7.5-2.3,11.2-5.5c2.6-2.3,7-7.2,7-13.4v-1.9c0,0,0,0,0-0.1c0-0.4-0.1-0.8-0.1-1.3c0,0,0,0,0,0l0,0l0,0
					c-0.1-1.4-0.3-2.9-0.5-4.3c-0.3-2-0.6-3.9-1.1-5.6c0.5-0.6,1.2-1,2-1.5C-210.8,132.1-208.9,130.9-209,128.4"/>
			</g>
			<path id="Fill-4" class="st8" d="M-210.1,128.6c-0.1-0.9-0.7-1.9-1.8-2.7c-1.4-1-3.1-1.5-4.2-1.3c-1.8,0.4-2.7,1.9-3.3,3.7
				c0.7,0.3,1.3,0.6,1.8,1c0.2,0.1,0.3,0.2,0.5,0.4c0.5-0.7,1.3-1.4,2.3-1.7c1.8-0.5,2.8,0.8,2.7,1.7c-0.2,0.9-1.8,1.9-3.1,2.9
				c0.1,0.3,0.3,0.7,0.4,1c0.6-0.5,1.2-0.9,1.8-1.3C-211.4,131.3-210,130.4-210.1,128.6"/>
			<path id="Fill-6" class="st8" d="M-220.4,138.2c-1.1,0-2.1-0.9-2.1-2.1c0-0.9,0.6-1.7,1.4-2c0.2-0.1,0.4-0.1,0.7-0.1c0,0,0,0,0,0
				c0,0,0,0,0,0c1,0,1.9,0.8,2,1.8c0,0.1,0,0.2,0,0.3C-218.3,137.3-219.3,138.2-220.4,138.2 M-215.5,135.4c-0.1-0.2-0.1-0.5-0.2-0.7
				c-0.1-0.5-0.3-0.9-0.5-1.3c-0.4-1.1-0.9-1.9-1.5-2.5c-0.2-0.2-0.3-0.3-0.5-0.4c-0.5-0.3-1-0.6-1.5-0.8c-0.2-0.1-0.3-0.2-0.5-0.2
				c-0.2-0.1-0.4-0.1-0.5-0.2c-2.3-0.9-4.9-1.3-6.8-1.5c-0.6,0-1.1,0-1.6,0c-1,0-2-0.1-3.5,0l0.3,8.3c1.9-0.3,3.9,0,5.6,0.9
				c2,1.1,6.2,4.6,2.5,14c-0.5,1.4-1.5,3.2-1.8,3.9c-0.8,1.6-1.2,2.1-1.4,2.4c-0.5,0.7-1,1.1-1.7,1.1c0,0,0,0-0.1,0
				c-0.7,0-1.4-0.5-2.1-1.4c-0.2,0.1-0.6,0.2-1,0.4c-0.4,0.2-1,0.4-1.1,0.5c-0.1,0.1-0.3,0.2-0.4,0.2c-0.2,0-0.3-0.1-0.4-0.2
				c-2.1-2.6-4.2-8.4-4.1-13.4c-2.8,0.5-6.2,1.1-9.3,2.1c2.1,8.3,10.3,14.5,16.7,14.5c6.8,0,15.7-7,17-16.1
				c-0.2-2.5-0.6-5.6-1.2-8.4C-215.3,136.1-215.4,135.7-215.5,135.4"/>
			<path id="Fill-8" class="st22" d="M-240.4,136.2C-240.4,136.2-240.5,136.2-240.4,136.2c-0.5,0-0.9,0-1.3,0c0,0-0.1,0-0.1,0
				c-0.5,0-1,0-1.5,0.1c0.2,0.3,0.5,0.7,0.9,1c0,0,0,0,0,0c0.4,0.3,1,0.5,1.7,0.5c0.3,0,0.7-0.1,1-0.2c0,0,0,0,0,0
				c0.9-0.3,1.5-1,1.9-1.5C-238.6,136.2-239.5,136.2-240.4,136.2"/>
			<path id="Fill-10" class="st23" d="M-230,145.1C-230,145.1-230,145.1-230,145.1l0,4.8h0.7c0.3,0,0.6,0.3,0.6,0.6
				c0,0.3-0.3,0.6-0.6,0.6h-1.2h-1.3c-0.3,0-0.6-0.3-0.6-0.6c0-0.3,0.3-0.6,0.6-0.6h0.7v-4.7c0,0,0-0.1,0-0.1
				c-0.9-0.2-1.8-0.8-2.5-1.4c-0.2-0.2-0.3-0.3-0.5-0.5c-0.1-0.2-0.3-0.3-0.4-0.5c-0.5-0.8-0.7-1.6-0.2-2.1c0.3-0.3,0.8-0.5,1.5-0.6
				c0.2,0,0.4-0.1,0.6-0.1c0.2,0,0.4-0.1,0.6-0.1c0.5-0.1,1-0.1,1.5-0.1c1.8,0,3.6,0.3,4.1,0.9C-225.3,141.8-227.8,144.5-230,145.1
				 M-227.2,137.7c-1.5-0.8-3.4-1-5-0.7c-0.2,0-0.4,0.1-0.6,0.1c-0.2,0-0.4,0.1-0.6,0.2c-1,0.4-1.9,1-2.5,1.8v0
				c-0.7,1.1-1.1,2.4-1.3,3.9c0,0.2,0,0.4,0,0.6c0,0.2,0,0.4,0,0.6c-0.1,4.4,1.5,9.7,3.6,12.5c0.2-0.1,0.6-0.2,1-0.4
				c0.4-0.2,1-0.4,1.2-0.5c0.1-0.1,0.3-0.2,0.4-0.2c0,0,0,0,0,0c0.2,0,0.3,0.1,0.4,0.2c0.6,0.8,1.1,1.3,1.6,1.3
				c0.3,0,0.6-0.4,0.8-0.7c0-0.1,0.1-0.1,0.1-0.1c0.4-0.5,2.2-3.9,3-5.9C-222.9,144.3-223.6,139.7-227.2,137.7"/>
			<g id="Group-14" transform="translate(0.000000, 0.166505)">
				<path id="Fill-12" class="st24" d="M-233.7,127.5l0.3,7.3c-1.3,0-4.8,0.1-8.8,0.2c0,0,0,0-0.1,0c-0.3,0-0.7,0-1,0c0,0,0,0-0.1,0
					c-0.2,0-0.5,0-0.7,0c0,0,0,0-0.1,0c-0.2,0-0.4,0-0.6,0c0,0,0,0-0.1,0c0,0,0,0,0,0c-0.2,0-0.5,0-0.7,0c-0.2,0-0.4,0-0.7,0
					c0-0.1,0-0.1,0.1-0.2c0.6-2,1.4-3.6,2.4-4.4c0.7-0.5,1.4-1,2.3-1.4c0.2-0.1,0.4-0.2,0.6-0.2c0.1,0,0.1,0,0.2-0.1
					c0.1-0.1,0.3-0.1,0.4-0.2c1.4-0.5,3.1-0.8,5.2-1C-234.7,127.6-234.2,127.5-233.7,127.5 M-247.4,124.2l5,4.1
					c-0.8,0.4-1.5,0.8-2.2,1.3c-1.4,1.2-2.4,3.4-3.1,6.2l-5.2-5.9c0.1-0.4,0.9-1.6,2.4-3.2C-248.9,125.2-247.8,124.4-247.4,124.2
					 M-239.7,137.5C-239.7,137.5-239.7,137.5-239.7,137.5c-0.3,0.1-0.6,0.2-1,0.2c-0.7,0-1.3-0.2-1.7-0.5c0,0,0,0,0,0
					c-0.4-0.3-0.7-0.7-0.9-1c0.5,0,1,0,1.5-0.1c0,0,0.1,0,0.1,0c0.4,0,0.8,0,1.3,0c0,0,0.1,0,0.1,0c0.9,0,1.8-0.1,2.6-0.1
					C-238.2,136.5-238.8,137.2-239.7,137.5 M-227.2,137.6c3.6,1.9,4.3,6.5,2,12.6c-0.8,2-2.6,5.4-3,5.9c-0.1,0-0.1,0.1-0.1,0.1
					c-0.2,0.3-0.5,0.7-0.8,0.7c-0.4,0-1-0.5-1.6-1.3c-0.1-0.1-0.3-0.2-0.4-0.2c0,0,0,0,0,0c-0.2,0-0.3,0.1-0.4,0.2
					c-0.1,0.1-0.7,0.3-1.2,0.5c-0.4,0.2-0.7,0.3-1,0.4c-2-2.8-3.7-8.1-3.6-12.5c0-0.2,0-0.4,0-0.6c0-0.2,0-0.4,0-0.6
					c0.2-1.5,0.6-2.9,1.3-3.9l0,0c0.5-0.8,1.4-1.4,2.5-1.8c0.2-0.1,0.4-0.1,0.6-0.2c0.2,0,0.4-0.1,0.6-0.1
					C-230.6,136.5-228.7,136.8-227.2,137.6 M-213,132.2c-0.6,0.4-1.2,0.8-1.8,1.3c-0.1-0.4-0.3-0.7-0.4-1c1.3-0.9,2.9-2,3.1-2.9
					c0.2-0.9-0.9-2.2-2.7-1.7c-1,0.3-1.7,1-2.3,1.7c-0.2-0.1-0.3-0.3-0.5-0.4c-0.6-0.4-1.2-0.7-1.8-1c0.6-1.8,1.5-3.3,3.3-3.7
					c1.1-0.3,2.8,0.2,4.2,1.3c1.1,0.8,1.7,1.8,1.8,2.7C-210,130.3-211.4,131.2-213,132.2 M-209,128.4c-0.1-1.3-0.9-2.5-2.2-3.5
					c-1.6-1.2-3.7-1.8-5.1-1.5c-2.2,0.5-3.4,2.3-4.1,4.4c-2.4-0.9-5.1-1.4-7-1.5c0,0,0,0,0,0c-0.6,0-1.1,0-1.6,0
					c-1.1,0-2.2-0.1-3.8,0c-0.1,0-0.1,0-0.2,0c-0.1,0-0.2,0-0.3,0c-0.6,0-1.2,0.1-1.7,0.2c-2.5,0.2-4.5,0.7-6.1,1.3l-5.5-4.6
					c-0.8-0.7-2.9,1.1-4.5,2.7c-0.5,0.5-2.8,2.9-2.7,4.1c0,0.3,0.1,0.4,0.2,0.5l5.8,6.7c-0.2,1.1-0.4,2.2-0.6,3.4
					c-0.2,1.3-0.3,2.7-0.5,4.1c0,0.3-0.1,0.7-0.1,1c0,0,0,0.1,0,0.1c0,0,0,0,0,0c0,0.1,0,0.2,0,0.3c0-0.1,0-0.3,0-0.4
					c0.2-1.7,0.4-3.4,0.6-5l0.3,1.9l0,0.1l0.3,2c0,0,0,0,0,0.1c0,0,0,0,0,0c0.3-2.6,0.7-5.3,1.2-7.6c0.1-0.3,0.1-0.6,0.2-0.9
					c0.2,0,0.4,0,0.7,0c0.3,0,0.6,0,0.9,0c0,0,0,0,0,0c0.1,0,0.2,0,0.3,0c0.1,0.2,0.2,0.4,0.4,0.7c0,0,0,0,0,0
					c0.6,0.8,1.7,1.9,3.5,1.9c2.5,0,3.9-2.2,4.3-2.8c1.4,0,2.4-0.1,3-0.1l0,0.1c-1.4,0.4-2.6,1.2-3.3,2.3l0,0
					c-0.9,1.3-1.4,3-1.5,4.8c-2.9,0.5-6.4,1.1-9.6,2.1c0,0.2,0.1,0.4,0.1,0.6c0,0.2,0.1,0.4,0.1,0.6c3.1-0.9,6.5-1.6,9.3-2.1
					c-0.1,5,2.1,10.8,4.1,13.4c0.1,0.1,0.3,0.2,0.4,0.2c0.2,0,0.3-0.1,0.4-0.2c0.1-0.1,0.7-0.3,1.1-0.5c0.4-0.2,0.8-0.3,1-0.4
					c0.7,0.9,1.4,1.4,2.1,1.4c0,0,0,0,0.1,0c0.6,0,1.2-0.4,1.7-1.1c0.2-0.2,0.6-0.8,1.4-2.4c0.4-0.7,1.3-2.5,1.8-3.9
					c3.6-9.5-0.6-13-2.5-14c-1.7-0.9-3.8-1.2-5.6-0.9l-0.3-8.3c1.5-0.1,2.5,0,3.5,0c0.5,0,1,0,1.6,0c1.9,0.1,4.5,0.6,6.8,1.5
					c0.2,0.1,0.4,0.1,0.5,0.2c0.2,0.1,0.4,0.2,0.5,0.2c0.5,0.3,1,0.5,1.5,0.8c0.2,0.1,0.4,0.3,0.5,0.4c0.6,0.6,1.1,1.5,1.5,2.5
					c0.2,0.4,0.3,0.9,0.5,1.3c0.1,0.2,0.1,0.5,0.2,0.7c0.1,0.4,0.2,0.7,0.3,1.1c0.6,2.8,1,5.9,1.2,8.4c0,0,0,0,0-0.1l0.3-2.2
					l0.3-2.1c-0.3-2-0.6-3.9-1.1-5.6c0.5-0.6,1.2-1,2-1.5C-210.8,132.1-208.9,130.9-209,128.4"/>
			</g>
			<path id="Fill-15" class="st24" d="M-252.1,130.1c0.1,0.2,0.3,0.3,0.5,0.3c0.1,0,0.2,0,0.3-0.1c0,0,1.2-0.7,2.3-1.9
				c1.2-1.2,1.9-2.4,2-2.4c0.2-0.3,0.1-0.6-0.2-0.8c-0.3-0.2-0.6-0.1-0.8,0.2c0,0-0.7,1.1-1.8,2.2c-1.1,1.1-2.1,1.8-2.1,1.8
				C-252.2,129.5-252.2,129.8-252.1,130.1"/>
			<path id="Fill-17" class="st24" d="M-249.2,148l0-1.6c0,0,0,0,0,0.1V148z"/>
			<path id="Fill-19" class="st24" d="M-233.3,139.9c-0.7,0.1-1.2,0.4-1.5,0.6c-0.5,0.5-0.4,1.4,0.2,2.1c0.1,0.2,0.3,0.3,0.4,0.5
				c0.2,0.2,0.3,0.3,0.5,0.5c0.7,0.7,1.6,1.2,2.5,1.4c0,0,0,0.1,0,0.1v4.7h-0.7c-0.3,0-0.6,0.3-0.6,0.6c0,0.3,0.3,0.6,0.6,0.6h1.3
				h1.2c0.3,0,0.6-0.3,0.6-0.6c0-0.3-0.3-0.6-0.6-0.6h-0.7v-4.7c0,0,0-0.1,0-0.1c2.3-0.6,4.8-3.3,3.6-4.6c-0.6-0.6-2.3-0.9-4.1-0.9
				c-0.5,0-1.1,0-1.5,0.1c-0.2,0-0.4,0-0.6,0.1C-232.9,139.8-233.1,139.8-233.3,139.9"/>
			<path id="Fill-21" class="st25" d="M-251.3,130.3c-0.1,0.1-0.2,0.1-0.3,0.1c-0.2,0-0.4-0.1-0.5-0.3c-0.2-0.3-0.1-0.6,0.2-0.8
				c0,0,1.1-0.7,2.1-1.8c1.1-1.1,1.8-2.2,1.8-2.2c0.2-0.3,0.5-0.3,0.8-0.2s0.3,0.5,0.2,0.8c0,0-0.8,1.2-2,2.4
				C-250.2,129.5-251.3,130.2-251.3,130.3 M-244.6,129.8c0.6-0.5,1.3-0.9,2.2-1.3l-5-4.1c-0.4,0.2-1.5,1-3.1,2.5
				c-1.5,1.6-2.3,2.8-2.4,3.2l5.2,5.9C-247,133.2-246,130.9-244.6,129.8"/>
			<path id="Fill-23" class="st25" d="M-233.4,136.1c-0.6,0-1.7,0-3,0.1c-0.4,0.7-1.8,2.8-4.3,2.8c-1.8,0-2.9-1.1-3.5-1.9
				c0,0,0,0,0,0c-0.2-0.3-0.3-0.5-0.4-0.7c-0.1,0-0.2,0-0.3,0c0,0,0,0,0,0c-0.3,0-0.6,0-0.9,0c-0.2,0-0.4,0-0.7,0
				c-0.1,0.3-0.1,0.6-0.2,0.9c-0.5,2.3-0.9,5-1.2,7.6c0,0.1,0,0.2,0,0.3c0,0,0.1,0,0.1,0c3.2-1,6.8-1.7,9.6-2.1
				c0.2-1.8,0.6-3.5,1.5-4.8v0C-236,137.3-234.8,136.6-233.4,136.1L-233.4,136.1z"/>
			<path id="Fill-25" class="st25" d="M-246.2,135.1c0,0.1,0,0.1-0.1,0.2c0.2,0,0.4,0,0.7,0c0.2,0,0.5,0,0.7,0c0,0,0,0,0,0
				c0,0,0,0,0.1,0c0.2,0,0.4,0,0.6,0c0,0,0,0,0.1,0c0.2,0,0.5,0,0.7,0c0,0,0,0,0.1,0c0.3,0,0.7,0,1,0c0,0,0,0,0.1,0
				c4-0.1,7.5-0.2,8.8-0.2l-0.3-7.3c-0.5,0-0.9,0.1-1.4,0.1c-2,0.2-3.7,0.5-5.2,1c-0.1,0-0.3,0.1-0.4,0.2c-0.1,0-0.1,0-0.2,0.1
				c-0.2,0.1-0.4,0.2-0.6,0.2c-0.8,0.4-1.6,0.8-2.3,1.4C-244.8,131.5-245.6,133.1-246.2,135.1"/>
			<path id="Fill-27" class="st26" d="M-214,144.8c-1.3,9.1-10.2,16.1-17,16.1c-6.4,0-14.6-6.2-16.7-14.5c-0.1,0-0.3,0.1-0.4,0.1
				v0.4v1.1c0,0.3,0,0.6,0,0.8c0,0,0,0.1,0,0.1c0,0.1,0,0.2,0,0.2c0,0.1,0,0.2,0,0.3c0,0.1,0,0.2,0,0.2c0,0.1,0,0.2,0,0.3
				c0,0.1,0,0.2,0,0.2c0,0.1,0,0.2,0.1,0.3c0,0.1,0,0.1,0,0.2c0,0.1,0,0.2,0.1,0.3c0,0.1,0,0.1,0.1,0.2c0,0.1,0,0.2,0.1,0.3
				c0,0.1,0,0.1,0.1,0.2c0,0.1,0.1,0.2,0.1,0.3c0,0.1,0,0.1,0.1,0.2c0,0.1,0.1,0.2,0.1,0.3c0,0.1,0,0.1,0.1,0.2
				c0,0.1,0.1,0.2,0.1,0.3c0,0.1,0,0.1,0.1,0.2c0,0.1,0.1,0.2,0.1,0.3c0,0,0,0.1,0.1,0.1c0.1,0.1,0.1,0.3,0.2,0.4c0,0,0,0,0,0
				c0.1,0.1,0.1,0.3,0.2,0.4c0,0,0,0,0,0c0.1,0.1,0.1,0.3,0.2,0.4c0,0,0,0.1,0.1,0.1c0.1,0.1,0.1,0.2,0.2,0.3c0,0,0.1,0.1,0.1,0.1
				c0.1,0.1,0.1,0.2,0.2,0.3c0,0,0.1,0.1,0.1,0.1c0.1,0.1,0.1,0.2,0.2,0.2c0,0.1,0.1,0.1,0.1,0.2c0.1,0.1,0.1,0.2,0.2,0.2
				c0,0.1,0.1,0.1,0.1,0.2c0.1,0.1,0.1,0.1,0.2,0.2c0,0.1,0.1,0.1,0.1,0.2c0.1,0.1,0.1,0.1,0.2,0.2c0,0,0.1,0.1,0.1,0.1
				c0.1,0.1,0.1,0.1,0.2,0.2c0,0,0.1,0.1,0.1,0.1c0.1,0.1,0.1,0.1,0.2,0.2c0,0,0.1,0.1,0.1,0.1c0.1,0.1,0.1,0.1,0.2,0.2
				c0,0,0.1,0.1,0.1,0.1c0.1,0.1,0.1,0.1,0.2,0.2c0,0,0.1,0.1,0.1,0.1c0.1,0.1,0.1,0.1,0.2,0.2c0,0,0.1,0.1,0.1,0.1
				c0.1,0.1,0.1,0.1,0.2,0.2c0,0,0.1,0.1,0.1,0.1c0.1,0.1,0.1,0.1,0.2,0.2c0,0,0.1,0.1,0.1,0.1c0.1,0.1,0.1,0.1,0.2,0.2
				c0,0,0.1,0.1,0.1,0.1c0.1,0.1,0.1,0.1,0.2,0.2c0,0,0.1,0.1,0.1,0.1c0.1,0.1,0.1,0.1,0.2,0.2c0,0,0.1,0.1,0.1,0.1
				c0.1,0.1,0.1,0.1,0.2,0.2c0,0,0,0,0.1,0.1c0.1,0.1,0.2,0.1,0.2,0.2c0.4,0.4,0.9,0.8,1.3,1.1c3.2,2.5,6.8,4.1,9.1,4.1
				c2.7,0,7-2.2,10.5-5.2c0.1-0.1,0.2-0.1,0.2-0.2c0,0,0.1-0.1,0.1-0.1c0.1,0,0.1-0.1,0.2-0.1c0,0,0.1-0.1,0.1-0.1
				c0,0,0.1-0.1,0.1-0.1c0,0,0.1-0.1,0.1-0.1c0,0,0.1-0.1,0.1-0.1c0,0,0.1-0.1,0.1-0.1c0,0,0.1-0.1,0.1-0.1c0,0,0.1-0.1,0.1-0.1
				c0-0.1,0.1-0.1,0.1-0.2c0,0,0.1-0.1,0.1-0.1c0-0.1,0.1-0.1,0.1-0.2c0,0,0.1-0.1,0.1-0.1c0.1-0.1,0.1-0.1,0.1-0.2
				c0,0,0.1-0.1,0.1-0.1c0-0.1,0.1-0.1,0.1-0.2c0,0,0.1-0.1,0.1-0.1c0-0.1,0.1-0.1,0.1-0.2c0,0,0.1-0.1,0.1-0.1
				c0.1-0.1,0.1-0.1,0.2-0.2c0-0.1,0.1-0.1,0.1-0.2c0.1-0.1,0.1-0.1,0.2-0.2c0-0.1,0.1-0.1,0.1-0.2c0.1-0.1,0.1-0.1,0.1-0.2
				c0-0.1,0.1-0.1,0.1-0.2c0-0.1,0.1-0.1,0.1-0.2c0-0.1,0.1-0.1,0.1-0.2c0-0.1,0.1-0.1,0.1-0.2c0-0.1,0.1-0.1,0.1-0.2
				c0.1-0.1,0.1-0.2,0.1-0.2c0-0.1,0.1-0.1,0.1-0.2c0.1-0.1,0.1-0.2,0.2-0.2c0,0,0.1-0.1,0.1-0.1c0.1-0.1,0.1-0.2,0.2-0.3
				c0,0,0-0.1,0.1-0.1c0.1-0.1,0.1-0.3,0.2-0.4c0,0,0,0,0,0c0.1-0.1,0.1-0.3,0.2-0.4c0,0,0-0.1,0.1-0.1c0.1-0.1,0.1-0.2,0.2-0.3
				c0-0.1,0-0.1,0.1-0.2c0-0.1,0.1-0.2,0.1-0.3c0-0.1,0-0.1,0.1-0.2c0-0.1,0.1-0.2,0.1-0.3c0-0.1,0-0.1,0.1-0.2
				c0-0.1,0.1-0.2,0.1-0.3c0-0.1,0-0.1,0.1-0.2c0-0.1,0.1-0.2,0.1-0.3c0-0.1,0-0.1,0.1-0.2c0-0.1,0-0.2,0.1-0.3c0-0.1,0-0.1,0.1-0.2
				c0-0.1,0-0.2,0.1-0.3c0-0.1,0-0.2,0-0.2c0-0.1,0-0.2,0.1-0.3c0-0.1,0-0.2,0-0.2c0-0.1,0-0.2,0-0.3c0-0.1,0-0.2,0-0.2
				c0-0.1,0-0.2,0-0.3c0-0.1,0-0.2,0-0.2c0,0,0-0.1,0-0.1c0-0.3,0-0.6,0-0.9v-1.1v-0.8C-213.9,145.7-213.9,145.3-214,144.8"/>
			<g id="Group-31" transform="translate(4.568528, 17.303347)">
				<g id="Clip-30">
				</g>
				<defs>
					<filter id="Adobe_OpacityMaskFilter_1_" filterUnits="userSpaceOnUse" x="-253.8" y="123.1" width="36.5" height="26.5">
						<feColorMatrix  type="matrix" values="1 0 0 0 0  0 1 0 0 0  0 0 1 0 0  0 0 0 1 0"/>
					</filter>
				</defs>
				<mask maskUnits="userSpaceOnUse" x="-253.8" y="123.1" width="36.5" height="26.5" id="mask-5">
					<g class="st27">
						<path id="path-4" class="st2" d="M-253.8,149.6h36.5v-26.5h-36.5V149.6L-253.8,149.6z"/>
					</g>
				</mask>
				<path id="Fill-29" class="st28" d="M-217.3,128.7c0-0.4-0.1-0.8-0.1-1.3c0,0,0,0,0,0l0,0l0,0c-0.1-1.4-0.3-2.9-0.5-4.3l-0.3,2.1
					l-0.3,2.2c0,0,0,0,0,0.1c0,0.5,0.1,0.9,0.1,1.3v0.8v1.1c0,0.3,0,0.6,0,0.9c0,0,0,0.1,0,0.1c0,0.1,0,0.2,0,0.2c0,0.1,0,0.2,0,0.3
					c0,0.1,0,0.2,0,0.2c0,0.1,0,0.2,0,0.3c0,0.1,0,0.2,0,0.2c0,0.1,0,0.2-0.1,0.3c0,0.1,0,0.2,0,0.2c0,0.1,0,0.2-0.1,0.3
					c0,0.1,0,0.1-0.1,0.2c0,0.1,0,0.2-0.1,0.3c0,0.1,0,0.1-0.1,0.2c0,0.1-0.1,0.2-0.1,0.3c0,0.1,0,0.1-0.1,0.2
					c0,0.1-0.1,0.2-0.1,0.3c0,0.1,0,0.1-0.1,0.2c0,0.1-0.1,0.2-0.1,0.3c0,0.1,0,0.1-0.1,0.2c0,0.1-0.1,0.2-0.1,0.3
					c0,0.1,0,0.1-0.1,0.2c0,0.1-0.1,0.2-0.2,0.3c0,0,0,0.1-0.1,0.1c-0.1,0.1-0.1,0.3-0.2,0.4c0,0,0,0,0,0c-0.1,0.1-0.1,0.3-0.2,0.4
					c0,0,0,0.1-0.1,0.1c-0.1,0.1-0.1,0.2-0.2,0.3c0,0.1-0.1,0.1-0.1,0.1c-0.1,0.1-0.1,0.2-0.2,0.2c0,0.1-0.1,0.1-0.1,0.2
					c0,0.1-0.1,0.2-0.1,0.2c0,0.1-0.1,0.1-0.1,0.2c0,0.1-0.1,0.1-0.1,0.2c0,0.1-0.1,0.1-0.1,0.2c0,0.1-0.1,0.1-0.1,0.2
					c0,0.1-0.1,0.1-0.1,0.2c0,0.1-0.1,0.1-0.1,0.2c0,0.1-0.1,0.1-0.1,0.2c-0.1,0.1-0.1,0.1-0.2,0.2c0,0.1-0.1,0.1-0.1,0.2
					c-0.1,0.1-0.1,0.1-0.2,0.2c0,0-0.1,0.1-0.1,0.1c0,0.1-0.1,0.1-0.1,0.2c0,0-0.1,0.1-0.1,0.1c-0.1,0.1-0.1,0.1-0.1,0.2
					c0,0-0.1,0.1-0.1,0.1c-0.1,0.1-0.1,0.1-0.1,0.2c0,0-0.1,0.1-0.1,0.1c0,0.1-0.1,0.1-0.1,0.2c0,0-0.1,0.1-0.1,0.1
					c0,0.1-0.1,0.1-0.1,0.2c0,0-0.1,0.1-0.1,0.1c0,0.1-0.1,0.1-0.1,0.1c0,0-0.1,0.1-0.1,0.1c0,0-0.1,0.1-0.1,0.1
					c0,0-0.1,0.1-0.1,0.1c0,0-0.1,0.1-0.1,0.1c0,0-0.1,0.1-0.1,0.1c-0.1,0-0.1,0.1-0.2,0.1c0,0-0.1,0.1-0.1,0.1
					c-0.1,0.1-0.2,0.1-0.2,0.2c-3.5,3.1-7.8,5.2-10.5,5.2c-2,0-5.1-1.3-7.9-3.2c-0.4-0.3-0.8-0.6-1.2-0.9c-0.5-0.4-0.9-0.7-1.3-1.1
					c-0.1-0.1-0.2-0.1-0.2-0.2c0,0,0,0-0.1-0.1c-0.1-0.1-0.1-0.1-0.2-0.2c0,0-0.1-0.1-0.1-0.1c-0.1-0.1-0.1-0.1-0.2-0.2
					c0,0-0.1-0.1-0.1-0.1c-0.1,0-0.1-0.1-0.2-0.2c0,0-0.1-0.1-0.1-0.1c-0.1-0.1-0.1-0.1-0.2-0.2c0,0-0.1-0.1-0.1-0.1
					c-0.1-0.1-0.1-0.1-0.2-0.2c0,0-0.1-0.1-0.1-0.1c-0.1-0.1-0.1-0.1-0.2-0.2c0,0-0.1-0.1-0.1-0.1c-0.1-0.1-0.1-0.1-0.2-0.2
					c0,0-0.1-0.1-0.1-0.1c-0.1-0.1-0.1-0.1-0.2-0.2c0,0-0.1-0.1-0.1-0.1c-0.1-0.1-0.1-0.1-0.2-0.2c0,0-0.1-0.1-0.1-0.1
					c-0.1-0.1-0.1-0.1-0.2-0.2c0,0-0.1-0.1-0.1-0.1c-0.1-0.1-0.1-0.1-0.2-0.2c0,0-0.1-0.1-0.1-0.1c-0.1-0.1-0.1-0.1-0.2-0.2
					c0-0.1-0.1-0.1-0.1-0.2c-0.1-0.1-0.1-0.1-0.2-0.2c0-0.1-0.1-0.1-0.1-0.2c-0.1-0.1-0.1-0.2-0.2-0.2c0-0.1-0.1-0.1-0.1-0.2
					c-0.1-0.1-0.1-0.2-0.2-0.2c0,0-0.1-0.1-0.1-0.1c-0.1-0.1-0.1-0.2-0.2-0.3c0,0-0.1-0.1-0.1-0.1c-0.1-0.1-0.1-0.2-0.2-0.3
					c0,0,0-0.1-0.1-0.1c-0.1-0.1-0.1-0.3-0.2-0.4c0,0,0,0,0,0c-0.1-0.1-0.1-0.3-0.2-0.4c0,0,0,0,0,0c-0.1-0.1-0.1-0.3-0.2-0.4
					c0,0,0-0.1-0.1-0.1c0-0.1-0.1-0.2-0.1-0.3c0-0.1,0-0.1-0.1-0.2c0-0.1-0.1-0.2-0.1-0.3c0-0.1,0-0.1-0.1-0.2
					c0-0.1-0.1-0.2-0.1-0.3c0-0.1,0-0.1-0.1-0.2c0-0.1-0.1-0.2-0.1-0.3c0-0.1,0-0.1-0.1-0.2c0-0.1-0.1-0.2-0.1-0.3
					c0-0.1,0-0.1-0.1-0.2c0-0.1,0-0.2-0.1-0.3c0-0.1,0-0.1,0-0.2c0-0.1,0-0.2-0.1-0.3c0-0.1,0-0.2,0-0.2c0-0.1,0-0.2,0-0.3
					c0-0.1,0-0.2,0-0.2c0-0.1,0-0.2,0-0.3c0-0.1,0-0.2,0-0.2c0,0,0-0.1,0-0.1c0-0.3,0-0.6,0-0.8v-1.1v-0.4c0.1,0,0.3-0.1,0.4-0.1
					c0-0.2-0.1-0.4-0.1-0.6c0-0.2-0.1-0.4-0.1-0.6c0,0-0.1,0-0.1,0c0-0.1,0-0.2,0-0.3c0,0,0,0,0,0c0,0,0,0,0-0.1l-0.3-2l0-0.1
					l-0.3-1.9c-0.2,1.6-0.4,3.3-0.6,5c0,0,0,0.1,0,0.1c0,0.1,0,0.2,0,0.3l0,1.6c0,6.3,4.4,11.1,7,13.4c3.7,3.3,8.3,5.5,11.2,5.5
					c2.9,0,7.5-2.3,11.2-5.5c2.6-2.3,7-7.2,7-13.4L-217.3,128.7C-217.3,128.8-217.3,128.8-217.3,128.7"/>
			</g>
			<path id="Fill-32" class="st24" d="M-218.4,135.9c-0.1-1-1-1.8-2-1.8c0,0,0,0,0,0c0,0,0,0,0,0c-0.2,0-0.5,0-0.7,0.1
				c-0.8,0.3-1.4,1.1-1.4,2c0,1.2,0.9,2.1,2.1,2.1c1.1,0,2.1-0.9,2.1-2.1C-218.3,136.1-218.3,136-218.4,135.9"/>
		</g>
	</g>
</g>
</svg>
