<svg id="Layer_1" data-name="Layer 1" xmlns="http://www.w3.org/2000/svg" xmlns:xlink="http://www.w3.org/1999/xlink" viewBox="0 0 450 315"><defs><style>.cls-1{fill:#e1e1e1;}.cls-2{fill:#e0e0e0;}.cls-3{fill:#fff;}.cls-18,.cls-4{fill:#8635c1;}.cls-5{fill:#f7f7f7;}.cls-6{fill:url(#linear-gradient);}.cls-7{fill:url(#linear-gradient-2);}.cls-8{fill:#f8f5fa;}.cls-9{fill:#853cbe;}.cls-10{fill:url(#linear-gradient-3);}.cls-11{fill:url(#linear-gradient-4);}.cls-12{fill:url(#linear-gradient-5);}.cls-13{fill:url(#linear-gradient-6);}.cls-14,.cls-25{fill:none;}.cls-14{stroke:#e0e0e0;stroke-width:2px;}.cls-15,.cls-18{isolation:isolate;}.cls-16{fill:#3e3745;}.cls-17{fill:#444;}.cls-18{opacity:0.6;}.cls-19{fill:#44275e;}.cls-20{fill:#d1d3d4;}.cls-21{fill:#2f1244;}.cls-22{fill:#2ab0f6;}.cls-23{fill:#bcbec0;}.cls-24{fill:#ccadd2;}.cls-26{fill:#231f20;}.cls-27{fill:#682f94;}.cls-28{fill:#351f49;}</style><linearGradient id="linear-gradient" x1="-252.15333" y1="423.94444" x2="-253.15333" y2="423.94444" gradientTransform="matrix(300, 0, 0, -9, 76026, 4111)" gradientUnits="userSpaceOnUse"><stop offset="0" stop-color="#e8e8e8" stop-opacity="0"/><stop offset="1" stop-color="#e8e8e8"/></linearGradient><linearGradient id="linear-gradient-2" x1="-251.30667" y1="423.94444" x2="-252.30667" y2="423.94444" gradientTransform="matrix(150, 0, 0, -9, 37926, 4075)" xlink:href="#linear-gradient"/><linearGradient id="linear-gradient-3" x1="-251.30667" y1="423.94444" x2="-252.30667" y2="423.94444" gradientTransform="matrix(150, 0, 0, -9, 37977, 3914)" xlink:href="#linear-gradient"/><linearGradient id="linear-gradient-4" x1="-252.15333" y1="423.94444" x2="-253.15333" y2="423.94444" gradientTransform="matrix(300, 0, 0, -9, 76026, 3868)" xlink:href="#linear-gradient"/><linearGradient id="linear-gradient-5" x1="-251.30667" y1="423.94444" x2="-252.30667" y2="423.94444" gradientTransform="matrix(150, 0, 0, -9, 37926, 3832)" xlink:href="#linear-gradient"/><linearGradient id="linear-gradient-6" x1="-251.30667" y1="423.94444" x2="-252.30667" y2="423.94444" gradientTransform="matrix(150, 0, 0, -9, 37977, 3941)" xlink:href="#linear-gradient"/></defs><title>pr-page</title><rect id="Rectangle-553-Copy-3" class="cls-1" y="243" width="45" height="45" rx="3" ry="3"/><g id="Rectangle-553-Copy-5"><path class="cls-2" d="M447,244a2.00226,2.00226,0,0,1,2,2v66a2.00226,2.00226,0,0,1-2,2H68a2.00227,2.00227,0,0,1-2-2V246a2.00227,2.00227,0,0,1,2-2H447m0-1H68a3,3,0,0,0-3,3v66a3,3,0,0,0,3,3H447a3,3,0,0,0,3-3V246a3,3,0,0,0-3-3h0Z"/></g><g id="Rectangle-553-Copy-7"><rect class="cls-3" x="65.5" y="152.5" width="384" height="71" rx="2.5" ry="2.5"/><path class="cls-4" d="M447,153a2.00226,2.00226,0,0,1,2,2v66a2.00226,2.00226,0,0,1-2,2H68a2.00227,2.00227,0,0,1-2-2V155a2.00227,2.00227,0,0,1,2-2H447m0-1H68a3,3,0,0,0-3,3v66a3,3,0,0,0,3,3H447a3,3,0,0,0,3-3V155a3,3,0,0,0-3-3h0Z"/></g><g id="Combined-Shape-Copy-2"><path class="cls-5" d="M65.5,275.5V245.999a2.50294,2.50294,0,0,1,2.501-2.499H446.999a2.50294,2.50294,0,0,1,2.501,2.499V275.5H65.5Z"/><path class="cls-2" d="M446.99881,244A2.00226,2.00226,0,0,1,449,245.9988V275H66V245.9988A2.00227,2.00227,0,0,1,68.0012,244H446.99881m0-1H68.0012A2.99588,2.99588,0,0,0,65,245.9988V276H450V245.9988A2.99977,2.99977,0,0,0,446.99881,243h0Z"/></g><path id="Rectangle-556-Copy-7" class="cls-6" d="M84.5,291h291a4.5,4.5,0,0,1,4.5,4.5h0a4.5,4.5,0,0,1-4.5,4.5H84.5a4.5,4.5,0,0,1-4.5-4.5h0A4.5,4.5,0,0,1,84.5,291Z"/><path id="Rectangle-556-Copy-6" class="cls-7" d="M84.5,255h141a4.5,4.5,0,0,1,4.5,4.5h0a4.5,4.5,0,0,1-4.5,4.5H84.5a4.5,4.5,0,0,1-4.5-4.5h0A4.5,4.5,0,0,1,84.5,255Z"/><g id="Combined-Shape-Copy"><path class="cls-8" d="M65.5,184.5V154.999a2.50294,2.50294,0,0,1,2.501-2.499H446.999a2.50294,2.50294,0,0,1,2.501,2.499V184.5H65.5Z"/><path class="cls-9" d="M446.99881,153A2.00226,2.00226,0,0,1,449,154.99879V184H66V154.99879A2.00227,2.00227,0,0,1,68.0012,153H446.99881m0-1H68.0012A2.99589,2.99589,0,0,0,65,154.99879V185H450V154.99879A2.99977,2.99977,0,0,0,446.99881,152h0Z"/></g><rect id="Rectangle-553" class="cls-1" width="45" height="45" rx="3" ry="3"/><g id="Rectangle-553-Copy"><path class="cls-2" d="M447,1a2.00225,2.00225,0,0,1,2,2V69a2.00226,2.00226,0,0,1-2,2H68a2.00227,2.00227,0,0,1-2-2V3a2.00226,2.00226,0,0,1,2-2H447m0-1H68a3,3,0,0,0-3,3V69a3,3,0,0,0,3,3H447a3,3,0,0,0,3-3V3a3,3,0,0,0-3-3h0Z"/></g><g id="Combined-Shape"><path class="cls-5" d="M65.5,32.5V2.999A2.50294,2.50294,0,0,1,68.001.5H446.999A2.50294,2.50294,0,0,1,449.5,2.999V32.5H65.5Z"/><path class="cls-2" d="M446.99881,1A2.00225,2.00225,0,0,1,449,2.99881V32H66V2.99881A2.00226,2.00226,0,0,1,68.0012,1H446.99881m0-1H68.0012A2.99588,2.99588,0,0,0,65,2.99881V33H450V2.99881A2.99978,2.99978,0,0,0,446.99881,0h0Z"/></g><rect id="Rectangle-556" class="cls-2" x="105" y="90" width="16" height="16" rx="2.5" ry="2.5"/><path id="Rectangle-556-Copy" class="cls-10" d="M135.5,94h141a4.5,4.5,0,0,1,4.5,4.5h0a4.5,4.5,0,0,1-4.5,4.5h-141a4.5,4.5,0,0,1-4.5-4.5h0A4.5,4.5,0,0,1,135.5,94Z"/><path id="Rectangle-556-Copy-5" class="cls-11" d="M84.5,48h291a4.5,4.5,0,0,1,4.5,4.5h0a4.5,4.5,0,0,1-4.5,4.5H84.5A4.5,4.5,0,0,1,80,52.5h0A4.5,4.5,0,0,1,84.5,48Z"/><path id="Rectangle-556-Copy-4" class="cls-12" d="M84.5,12h141a4.5,4.5,0,0,1,4.5,4.5h0a4.5,4.5,0,0,1-4.5,4.5H84.5A4.5,4.5,0,0,1,80,16.5h0A4.5,4.5,0,0,1,84.5,12Z"/><rect id="Rectangle-556-Copy-3" class="cls-2" x="105" y="117" width="16" height="16" rx="2.5" ry="2.5"/><path id="Rectangle-556-Copy-2" class="cls-13" d="M135.5,121h141a4.5,4.5,0,0,1,4.5,4.5h0a4.5,4.5,0,0,1-4.5,4.5h-141a4.5,4.5,0,0,1-4.5-4.5h0A4.5,4.5,0,0,1,135.5,121Z"/><circle id="Oval-129" class="cls-14" cx="87" cy="98" r="3"/><rect id="Rectangle-560" class="cls-2" x="80" y="97" width="4" height="2"/><rect id="Rectangle-560-Copy" class="cls-2" x="90" y="97" width="4" height="2"/><rect id="Rectangle-564" class="cls-2" x="86" y="107" width="2" height="9"/><circle id="Oval-129-Copy" class="cls-14" cx="87" cy="125" r="3"/><rect id="Rectangle-560-Copy-3" class="cls-2" x="80" y="124" width="4" height="2"/><rect id="Rectangle-560-Copy-2" class="cls-2" x="90" y="124" width="4" height="2"/><g class="cls-15"><path class="cls-16" d="M82.76855,173H81.2373v-9.86426h3.90332a2.952,2.952,0,0,1,3.26758,3.03516,2.8423,2.8423,0,0,1-1.91406,2.81641L88.709,173H86.93848l-2.00977-3.75977H82.76855V173Zm0-5.06543h2.20117a1.64047,1.64047,0,0,0,1.86621-1.72949,1.68151,1.68151,0,0,0-1.90723-1.72266H82.76855v3.45215Z"/><path class="cls-16" d="M96.69336,173h-1.415v-1.18262H95.16211a2.23323,2.23323,0,0,1-2.249,1.32617c-1.64746,0-2.56348-1.00488-2.56348-2.75488v-4.833h1.46973v4.4502c0,1.20313.48535,1.77734,1.56543,1.77734a1.68979,1.68979,0,0,0,1.83887-1.873v-4.35449h1.46973V173Z"/><path class="cls-16" d="M98.82617,165.55566h1.415v1.18262h0.10938a2.22911,2.22911,0,0,1,2.22168-1.32617c1.66113,0,2.57715.998,2.57715,2.76855V173h-1.46973v-4.4502c0-1.19629-.51953-1.791-1.60645-1.791a1.70727,1.70727,0,0,0-1.77734,1.88672V173H98.82617v-7.44434Z"/><path class="cls-16" d="M107.21387,165.55566h1.415v1.18262h0.10938a2.22911,2.22911,0,0,1,2.22168-1.32617c1.66113,0,2.57715.998,2.57715,2.76855V173h-1.46973v-4.4502c0-1.19629-.51953-1.791-1.60645-1.791a1.70727,1.70727,0,0,0-1.77734,1.88672V173h-1.46973v-7.44434Z"/><path class="cls-16" d="M115.17773,170.89453c0-1.33984.998-2.1123,2.76855-2.22168l2.0166-.11621v-0.64258c0-.78613-0.51953-1.23047-1.52441-1.23047a1.4567,1.4567,0,0,0-1.55176.82715h-1.42187c0.15039-1.27832,1.35352-2.09863,3.042-2.09863,1.86621,0,2.91895.92969,2.91895,2.502V173h-1.415v-1.0459h-0.11621a2.50485,2.50485,0,0,1-2.23535,1.16895A2.249,2.249,0,0,1,115.17773,170.89453Zm4.78516-.63574v-0.62207l-1.81836.11621c-1.02539.06836-1.49023,0.417-1.49023,1.07324a1.17616,1.17616,0,0,0,1.38086,1.05957A1.75457,1.75457,0,0,0,119.96289,170.25879Z"/><path class="cls-16" d="M125.11035,171.82422H125.001V173h-1.415V162.65039h1.46973v4.08789h0.11621a2.46989,2.46989,0,0,1,2.29-1.30566c1.88672,0,3.07617,1.47656,3.07617,3.8418,0,2.3584-1.19629,3.84863-3.07617,3.84863A2.5783,2.5783,0,0,1,125.11035,171.82422Zm-0.082-2.543c0.00684,1.55859.77246,2.52246,2.00977,2.52246,1.24414,0,1.98926-.9502,1.98926-2.5293,0-1.56543-.74512-2.52246-1.98926-2.52246C125.80762,166.752,125.03516,167.72266,125.02832,169.28125Z"/><path class="cls-16" d="M131.93262,169.27441c0-2.39941,1.33984-3.8623,3.51367-3.8623,2.167,0,3.50684,1.46289,3.50684,3.8623,0,2.41309-1.333,3.86914-3.50684,3.86914C133.26563,173.14355,131.93262,171.6875,131.93262,169.27441Zm5.50977,0c0-1.61328-.72461-2.55664-1.99609-2.55664-1.27832,0-1.99609.94336-1.99609,2.55664,0,1.627.71777,2.56348,1.99609,2.56348C136.71777,171.83789,137.44238,170.89453,137.44238,169.27441Z"/><path class="cls-16" d="M142.70605,163.70313v1.88672h1.61328v1.2373h-1.61328v3.82813a0.93864,0.93864,0,0,0,1.05273,1.12109,4.84145,4.84145,0,0,0,.56055-0.03418v1.22363a4.74771,4.74771,0,0,1-.7998.0752c-1.63379,0-2.2832-.57422-2.2832-2.00977v-4.2041h-1.18262v-1.2373h1.18262v-1.88672h1.46973Z"/></g><g class="cls-15"><path class="cls-17" d="M83.97852,209v-4.24512l-3.5-5.61914h1.40137l2.65918,4.38184h0.10938l2.65918-4.38184H88.709l-3.5,5.61914V209H83.97852Z"/><path class="cls-17" d="M88.76367,205.31543c0-2.37207,1.29883-3.81445,3.39746-3.81445s3.39746,1.44238,3.39746,3.81445c0,2.36523-1.29883,3.81445-3.39746,3.81445S88.76367,207.68066,88.76367,205.31543Zm5.57813,0c0-1.75-.78613-2.75488-2.18066-2.75488s-2.18066,1.00488-2.18066,2.75488c0,1.74316.78613,2.75488,2.18066,2.75488S94.3418,207.05859,94.3418,205.31543Z"/><path class="cls-17" d="M103.36523,209h-1.12109v-1.15527h-0.10937a2.2993,2.2993,0,0,1-2.2832,1.28516c-1.6543,0-2.51562-.98437-2.51562-2.72754v-4.77148h1.17578v4.48438c0,1.32617.49219,1.94141,1.668,1.94141a1.85394,1.85394,0,0,0,2.00977-2.06445v-4.36133h1.17578V209Z"/><path class="cls-17" d="M105.58008,201.63086h1.12109v1.09375h0.10938a2.05754,2.05754,0,0,1,2.04395-1.22363,5.04933,5.04933,0,0,1,.58789.03418v1.17578a4.72084,4.72084,0,0,0-.752-0.06836,1.80471,1.80471,0,0,0-1.93457,1.791V209h-1.17578v-7.36914Z"/><path class="cls-17" d="M121.54883,205.31543c0,2.30371-1.22363,3.81445-3.09668,3.81445a2.47322,2.47322,0,0,1-2.30371-1.2373h-0.10937v3.56836h-1.17578v-9.83008h1.12109v1.23047h0.10938a2.65658,2.65658,0,0,1,2.3584-1.36035C120.332,201.501,121.54883,202.998,121.54883,205.31543Zm-1.2168,0c0-1.72266-.80664-2.75488-2.15332-2.75488-1.333,0-2.17383,1.05957-2.17383,2.75488,0,1.68848.84082,2.75488,2.167,2.75488C119.52539,208.07031,120.332,207.03809,120.332,205.31543Z"/><path class="cls-17" d="M129.35547,209h-1.12109v-1.15527H128.125a2.2993,2.2993,0,0,1-2.2832,1.28516c-1.6543,0-2.51562-.98437-2.51562-2.72754v-4.77148H124.502v4.48438c0,1.32617.49219,1.94141,1.668,1.94141a1.85394,1.85394,0,0,0,2.00977-2.06445v-4.36133h1.17578V209Z"/><path class="cls-17" d="M131.63867,198.70508h1.17578V209h-1.17578V198.70508Z"/><path class="cls-17" d="M135.166,198.70508h1.17578V209H135.166V198.70508Z"/><path class="cls-17" d="M142.57617,201.63086h1.12109v1.09375h0.10938a2.05754,2.05754,0,0,1,2.04395-1.22363,5.04934,5.04934,0,0,1,.58789.03418v1.17578a4.72084,4.72084,0,0,0-.752-0.06836,1.80471,1.80471,0,0,0-1.93457,1.791V209h-1.17578v-7.36914Z"/><path class="cls-17" d="M153.75977,207.09277a2.94589,2.94589,0,0,1-3.10352,2.03711c-2.04395,0-3.32227-1.47656-3.32227-3.80762,0-2.31738,1.29883-3.82129,3.32227-3.82129,1.98926,0,3.19922,1.415,3.19922,3.70508v0.45117h-5.29785v0.05469a2.16932,2.16932,0,0,0,2.126,2.37891,1.909,1.909,0,0,0,1.90039-.998h1.17578Zm-5.20215-2.38574h4.06055a1.98357,1.98357,0,0,0-1.97559-2.167A2.09906,2.09906,0,0,0,148.55762,204.707Z"/><path class="cls-17" d="M160.77344,202.86133h0.10938v-1.23047h1.13477v9.83008h-1.18945v-3.56836h-0.10937a2.5093,2.5093,0,0,1-2.30371,1.2373c-1.87988,0-3.083-1.49023-3.083-3.81445,0-2.31055,1.2168-3.81445,3.083-3.81445A2.6574,2.6574,0,0,1,160.77344,202.86133Zm0.08887,2.4541c0-1.68848-.84082-2.75488-2.17383-2.75488-1.33984,0-2.13965,1.03223-2.13965,2.75488,0,1.72949.793,2.75488,2.13281,2.75488C160.02832,208.07031,160.8623,207.01074,160.8623,205.31543Z"/><path class="cls-17" d="M170.19336,209h-1.12109v-1.15527h-0.10937a2.2993,2.2993,0,0,1-2.2832,1.28516c-1.6543,0-2.51562-.98437-2.51562-2.72754v-4.77148h1.17578v4.48438c0,1.32617.49219,1.94141,1.668,1.94141a1.85394,1.85394,0,0,0,2.00977-2.06445v-4.36133h1.17578V209Z"/><path class="cls-17" d="M178.46484,207.09277a2.94589,2.94589,0,0,1-3.10352,2.03711c-2.04395,0-3.32227-1.47656-3.32227-3.80762,0-2.31738,1.29883-3.82129,3.32227-3.82129,1.98926,0,3.19922,1.415,3.19922,3.70508v0.45117H173.2627v0.05469a2.16932,2.16932,0,0,0,2.126,2.37891,1.909,1.909,0,0,0,1.90039-.998h1.17578ZM173.2627,204.707h4.06055a1.98357,1.98357,0,0,0-1.97559-2.167A2.09906,2.09906,0,0,0,173.2627,204.707Z"/><path class="cls-17" d="M182.9834,201.501c1.54492,0,2.61816.76563,2.77539,1.97559h-1.16211a1.50226,1.50226,0,0,0-1.62012-.97754,1.34664,1.34664,0,0,0-1.55859,1.10059c0,0.50586.41016,0.82031,1.27832,1.03223l1.13477,0.27344c1.3877,0.335,2.05762.93652,2.05762,1.99609,0,1.31934-1.27832,2.22852-2.95312,2.22852-1.64062,0-2.76855-.78613-2.89844-2.00977h1.21a1.62316,1.62316,0,0,0,1.72949,1.01855c0.99121,0,1.70215-.47168,1.70215-1.14844a1.19165,1.19165,0,0,0-1.16895-1.03906l-1.26465-.30762c-1.38086-.335-2.00977-0.92969-2.00977-1.99609C180.23535,202.42383,181.418,201.501,182.9834,201.501Z"/><path class="cls-17" d="M189.334,199.72363v1.90723h1.64063v0.98438H189.334v4.16992a1.00489,1.00489,0,0,0,1.09375,1.2373,4.96526,4.96526,0,0,0,.54688-0.02734v0.99121a3.93875,3.93875,0,0,1-.69043.06836c-1.51758,0-2.126-.56055-2.126-1.96875v-4.4707h-1.18945v-0.98437h1.18945v-1.90723H189.334Z"/><path class="cls-17" d="M196.498,199.31348a0.82031,0.82031,0,1,1,.82031.82031A0.82272,0.82272,0,0,1,196.498,199.31348Zm0.23242,2.31738h1.17578V209h-1.17578v-7.36914Z"/><path class="cls-17" d="M202.72559,201.501c1.54492,0,2.61816.76563,2.77539,1.97559h-1.16211a1.50226,1.50226,0,0,0-1.62012-.97754,1.34664,1.34664,0,0,0-1.55859,1.10059c0,0.50586.41016,0.82031,1.27832,1.03223l1.13477,0.27344c1.3877,0.335,2.05762.93652,2.05762,1.99609,0,1.31934-1.27832,2.22852-2.95312,2.22852-1.64062,0-2.76855-.78613-2.89844-2.00977h1.21a1.62316,1.62316,0,0,0,1.72949,1.01855c0.99121,0,1.70215-.47168,1.70215-1.14844a1.19165,1.19165,0,0,0-1.16895-1.03906l-1.26465-.30762c-1.38086-.335-2.00977-0.92969-2.00977-1.99609C199.97754,202.42383,201.16016,201.501,202.72559,201.501Z"/><path class="cls-17" d="M211.42773,201.63086h1.12109v1.09375h0.10938a2.05754,2.05754,0,0,1,2.04395-1.22363,5.04934,5.04934,0,0,1,.58789.03418v1.17578a4.72084,4.72084,0,0,0-.752-0.06836,1.80471,1.80471,0,0,0-1.93457,1.791V209h-1.17578v-7.36914Z"/><path class="cls-17" d="M222.61133,207.09277a2.94589,2.94589,0,0,1-3.10352,2.03711c-2.04395,0-3.32227-1.47656-3.32227-3.80762,0-2.31738,1.29883-3.82129,3.32227-3.82129,1.98926,0,3.19922,1.415,3.19922,3.70508v0.45117h-5.29785v0.05469a2.16932,2.16932,0,0,0,2.126,2.37891,1.909,1.909,0,0,0,1.90039-.998h1.17578Zm-5.20215-2.38574h4.06055a1.98357,1.98357,0,0,0-1.97559-2.167A2.09906,2.09906,0,0,0,217.40918,204.707Z"/><path class="cls-17" d="M224.11523,206.93555c0-1.31934.9707-2.07812,2.68652-2.18066l2.126-.12988v-0.66992a1.38879,1.38879,0,0,0-1.668-1.4082,1.5416,1.5416,0,0,0-1.66113.916h-1.18945c0.15723-1.18262,1.31934-1.96191,2.8916-1.96191,1.79785,0,2.80273.92285,2.80273,2.4541V209h-1.12109v-1.08691H228.873a2.54585,2.54585,0,0,1-2.26953,1.2168A2.24111,2.24111,0,0,1,224.11523,206.93555Zm4.8125-.68359V205.5752l-1.98242.12988c-1.12109.0752-1.61328,0.46484-1.61328,1.20313a1.287,1.287,0,0,0,1.49023,1.18945A1.9385,1.9385,0,0,0,228.92773,206.252Z"/><path class="cls-17" d="M231.9082,205.31543c0-2.31055,1.22363-3.81445,3.09668-3.81445a2.51835,2.51835,0,0,1,2.31055,1.292H237.418v-4.08789h1.17578V209h-1.12109v-1.17578h-0.10937a2.64062,2.64062,0,0,1-2.3584,1.30566C233.11816,209.12988,231.9082,207.63281,231.9082,205.31543Zm1.2168,0c0,1.72266.80664,2.75488,2.15332,2.75488,1.33984,0,2.167-1.05273,2.167-2.75488,0-1.68848-.834-2.75488-2.167-2.75488C233.93848,202.56055,233.125,203.59961,233.125,205.31543Z"/><path class="cls-17" d="M240.97949,211.625v-1.00488a2.8304,2.8304,0,0,0,.49219.03418,1.364,1.364,0,0,0,1.35352-1.21l0.13672-.4375-2.72754-7.376h1.27148l2.02344,6.06348h0.10938l2.0166-6.06348h1.251l-2.87793,7.82031c-0.62891,1.709-1.2168,2.21484-2.52246,2.21484A3.48049,3.48049,0,0,1,240.97949,211.625Z"/><path class="cls-17" d="M254.09766,199.72363v1.90723h1.64063v0.98438h-1.64062v4.16992a1.00489,1.00489,0,0,0,1.09375,1.2373,4.96526,4.96526,0,0,0,.54688-0.02734v0.99121a3.93875,3.93875,0,0,1-.69043.06836c-1.51758,0-2.126-.56055-2.126-1.96875v-4.4707h-1.18945v-0.98437h1.18945v-1.90723h1.17578Z"/><path class="cls-17" d="M257.04395,205.31543c0-2.37207,1.29883-3.81445,3.39746-3.81445s3.39746,1.44238,3.39746,3.81445c0,2.36523-1.29883,3.81445-3.39746,3.81445S257.04395,207.68066,257.04395,205.31543Zm5.57813,0c0-1.75-.78613-2.75488-2.18066-2.75488s-2.18066,1.00488-2.18066,2.75488c0,1.74316.78613,2.75488,2.18066,2.75488S262.62207,207.05859,262.62207,205.31543Z"/><path class="cls-17" d="M271.30371,199.72363v1.90723h1.64063v0.98438h-1.64062v4.16992a1.00489,1.00489,0,0,0,1.09375,1.2373,4.96526,4.96526,0,0,0,.54688-0.02734v0.99121a3.93875,3.93875,0,0,1-.69043.06836c-1.51758,0-2.126-.56055-2.126-1.96875v-4.4707h-1.18945v-0.98437h1.18945v-1.90723h1.17578Z"/><path class="cls-17" d="M280.67578,207.09277a2.94589,2.94589,0,0,1-3.10352,2.03711c-2.04395,0-3.32227-1.47656-3.32227-3.80762,0-2.31738,1.29883-3.82129,3.32227-3.82129,1.98926,0,3.19922,1.415,3.19922,3.70508v0.45117h-5.29785v0.05469a2.16932,2.16932,0,0,0,2.126,2.37891,1.909,1.909,0,0,0,1.90039-.998h1.17578Zm-5.20215-2.38574h4.06055a1.98357,1.98357,0,0,0-1.97559-2.167A2.09906,2.09906,0,0,0,275.47363,204.707Z"/><path class="cls-17" d="M285.19434,201.501c1.54492,0,2.61816.76563,2.77539,1.97559h-1.16211a1.50226,1.50226,0,0,0-1.62012-.97754,1.34664,1.34664,0,0,0-1.55859,1.10059c0,0.50586.41016,0.82031,1.27832,1.03223l1.13477,0.27344c1.3877,0.335,2.05762.93652,2.05762,1.99609,0,1.31934-1.27832,2.22852-2.95312,2.22852-1.64062,0-2.76855-.78613-2.89844-2.00977h1.21a1.62316,1.62316,0,0,0,1.72949,1.01855c0.99121,0,1.70215-.47168,1.70215-1.14844a1.19165,1.19165,0,0,0-1.16895-1.03906l-1.26465-.30762c-1.38086-.335-2.00977-0.92969-2.00977-1.99609C282.44629,202.42383,283.62891,201.501,285.19434,201.501Z"/><path class="cls-17" d="M291.54492,199.72363v1.90723h1.64063v0.98438h-1.64062v4.16992a1.00489,1.00489,0,0,0,1.09375,1.2373,4.96526,4.96526,0,0,0,.54688-0.02734v0.99121a3.93875,3.93875,0,0,1-.69043.06836c-1.51758,0-2.126-.56055-2.126-1.96875v-4.4707h-1.18945v-0.98437h1.18945v-1.90723h1.17578Z"/><path class="cls-17" d="M298.54492,205.31543c0-2.37207,1.29883-3.81445,3.39746-3.81445s3.39746,1.44238,3.39746,3.81445c0,2.36523-1.29883,3.81445-3.39746,3.81445S298.54492,207.68066,298.54492,205.31543Zm5.57813,0c0-1.75-.78613-2.75488-2.18066-2.75488s-2.18066,1.00488-2.18066,2.75488c0,1.74316.78613,2.75488,2.18066,2.75488S304.123,207.05859,304.123,205.31543Z"/><path class="cls-17" d="M307.18555,201.63086h1.12109V202.793H308.416a2.21484,2.21484,0,0,1,2.21484-1.292,2.40212,2.40212,0,0,1,2.57715,2.72754V209h-1.17578v-4.48437c0-1.32617-.56055-1.95508-1.73633-1.95508a1.86842,1.86842,0,0,0-1.93457,2.07813V209h-1.17578v-7.36914Z"/></g><g class="cls-15"><path class="cls-17" d="M384.18066,207.21582a0.95362,0.95362,0,1,1-.9502.957A0.91174,0.91174,0,0,1,384.18066,207.21582Zm0.67676-8.08691-0.11621,6.58984h-1.13477l-0.11621-6.58984h1.36719Z"/></g><g class="cls-15"><path class="cls-9" d="M321.48828,209h-1.23047v-9.86426h3.7666a2.8643,2.8643,0,0,1,3.14453,2.93945,2.8168,2.8168,0,0,1-1.98242,2.83008L327.46973,209h-1.44238l-2.1123-3.90332h-2.42676V209Zm0-4.99707H323.915a1.75534,1.75534,0,0,0,1.98242-1.88672,1.80758,1.80758,0,0,0-2.03711-1.88672h-2.37207v3.77344Z"/><path class="cls-9" d="M335.21484,209h-1.12109v-1.15527h-0.10937a2.2993,2.2993,0,0,1-2.2832,1.28516c-1.6543,0-2.51562-.98437-2.51562-2.72754v-4.77148h1.17578v4.48438c0,1.32617.49219,1.94141,1.668,1.94141a1.85394,1.85394,0,0,0,2.00977-2.06445v-4.36133h1.17578V209Z"/><path class="cls-9" d="M337.42969,201.63086h1.12109V202.793h0.10938a2.21484,2.21484,0,0,1,2.21484-1.292,2.40212,2.40212,0,0,1,2.57715,2.72754V209h-1.17578v-4.48437c0-1.32617-.56055-1.95508-1.73633-1.95508a1.86842,1.86842,0,0,0-1.93457,2.07813V209h-1.17578v-7.36914Z"/><path class="cls-9" d="M345.59863,201.63086h1.12109V202.793h0.10938a2.21484,2.21484,0,0,1,2.21484-1.292,2.40212,2.40212,0,0,1,2.57715,2.72754V209h-1.17578v-4.48437c0-1.32617-.56055-1.95508-1.73633-1.95508a1.86842,1.86842,0,0,0-1.93457,2.07813V209h-1.17578v-7.36914Z"/><path class="cls-9" d="M353.33008,206.93555c0-1.31934.9707-2.07812,2.68652-2.18066l2.126-.12988v-0.66992a1.38879,1.38879,0,0,0-1.668-1.4082,1.5416,1.5416,0,0,0-1.66113.916H353.624c0.15723-1.18262,1.31934-1.96191,2.8916-1.96191,1.79785,0,2.80273.92285,2.80273,2.4541V209h-1.12109v-1.08691h-0.10937a2.54585,2.54585,0,0,1-2.26953,1.2168A2.24111,2.24111,0,0,1,353.33008,206.93555Zm4.8125-.68359V205.5752l-1.98242.12988c-1.12109.0752-1.61328,0.46484-1.61328,1.20313a1.287,1.287,0,0,0,1.49023,1.18945A1.9385,1.9385,0,0,0,358.14258,206.252Z"/><path class="cls-9" d="M362.791,207.82422h-0.10937V209h-1.12109V198.70508h1.17578V202.793h0.10938a2.54392,2.54392,0,0,1,2.31055-1.292c1.873,0,3.08984,1.49707,3.08984,3.81445,0,2.30371-1.22363,3.81445-3.08984,3.81445A2.644,2.644,0,0,1,362.791,207.82422Zm-0.082-2.50879c0,1.70215.834,2.75488,2.17383,2.75488,1.34668,0,2.14648-1.03223,2.14648-2.75488s-0.7998-2.75488-2.14648-2.75488C363.543,202.56055,362.709,203.61328,362.709,205.31543Z"/><path class="cls-9" d="M370.16016,198.70508h1.17578V209h-1.17578V198.70508Z"/><path class="cls-9" d="M379.67578,207.09277a2.94589,2.94589,0,0,1-3.10352,2.03711c-2.04395,0-3.32227-1.47656-3.32227-3.80762,0-2.31738,1.29883-3.82129,3.32227-3.82129,1.98926,0,3.19922,1.415,3.19922,3.70508v0.45117h-5.29785v0.05469a2.16932,2.16932,0,0,0,2.126,2.37891,1.909,1.909,0,0,0,1.90039-.998h1.17578Zm-5.20215-2.38574h4.06055a1.98357,1.98357,0,0,0-1.97559-2.167A2.09906,2.09906,0,0,0,374.47363,204.707Z"/></g><rect id="Rectangle-710" class="cls-18" x="319" y="212" width="62" height="1"/><path class="cls-9" d="M38.59333,167.04983c-2.20268-5.69083,6.12683-5.048,5.84005-9.78306-0.16049-2.63679-4.30114-4.97149-6.67055-4.40257-3.90162.93595-4.2614,6.19558-4.56249,9.46668"/><path class="cls-19" d="M38.59356,167.60925a0.55944,0.55944,0,0,1-.52182-0.35755c-1.36772-3.53346,1.00548-5.0313,2.91221-6.23475,1.61055-1.01653,3.00148-1.89445,2.89123-3.71637a3.89488,3.89488,0,0,0-1.77817-2.64572,5.7224,5.7224,0,0,0-4.20359-1.24675c-3.39408.8142-3.82395,5.54342-4.10851,8.67279l-0.02768.3012a0.55921,0.55921,0,1,1-1.11373-.10244l0.02723-.3c0.31358-3.44776.7872-8.65795,4.96155-9.65941a6.78472,6.78472,0,0,1,5.13029,1.43546,4.90733,4.90733,0,0,1,2.229,3.47711c0.15043,2.48245-1.74134,3.67653-3.41059,4.73-1.95628,1.23481-3.50143,2.21-2.466,4.88511A0.55951,0.55951,0,0,1,38.59356,167.60925Z"/><path class="cls-19" d="M35.74943,161.1253s0.77245-3.59806,3.457-4.34164c1.80407-.49883,2.83521.75485,2.66558,1.67752-0.25824,1.401-4.27189,3.29208-4.84705,4.27322"/><path class="cls-20" d="M6.82812,152.59157c-0.32118-.30856-1.97358.87937-3.68836,2.65353-1.71679,1.77338-2.84647,3.46148-2.52619,3.77l5.979,6.787,7.24882-7.4941Z"/><path class="cls-19" d="M6.59254,166.3615l-0.01295-.00011a0.55892,0.55892,0,0,1-.40666-0.18949l-5.96971-6.77622a0.754,0.754,0,0,1-.2031-0.52193c-0.01919-1.11239,2.27723-3.54194,2.73767-4.01768,1.57819-1.63287,3.62553-3.41528,4.45446-2.68935l7.00242,5.7078a0.55908,0.55908,0,0,1,.04866.82246L6.9945,166.19109A0.55917,0.55917,0,0,1,6.59254,166.3615Zm-5.45034-7.59232,5.46954,6.20864,6.40427-6.621-6.41476-5.22871A12.01774,12.01774,0,0,0,3.542,155.63378,12.03822,12.03822,0,0,0,1.14219,158.76918Zm-0.14061-.15668,0.00089,0.00067Zm5.43918-5.6174,0.00067,0.00056Z"/><path class="cls-19" d="M2.3972,159.01837a0.5594,0.5594,0,0,1-.29885-1.0326,13.87139,13.87139,0,0,0,2.12523-1.74123A15.40158,15.40158,0,0,0,6.033,154.0489a0.55936,0.55936,0,0,1,.93808.60954,16.27313,16.27313,0,0,1-1.95672,2.37722,14.73458,14.73458,0,0,1-2.32008,1.8968A0.55515,0.55515,0,0,1,2.3972,159.01837Z"/><path class="cls-19" d="M6.59254,166.3615l-0.01295-.00011a0.55892,0.55892,0,0,1-.40666-0.18949l-5.96971-6.77622a0.754,0.754,0,0,1-.2031-0.52193c-0.01919-1.11239,2.27723-3.54194,2.73767-4.01768,1.57819-1.63287,3.62553-3.41528,4.45446-2.68935l7.00242,5.7078a0.55908,0.55908,0,0,1,.04866.82246L6.9945,166.19109A0.55917,0.55917,0,0,1,6.59254,166.3615Zm-5.45034-7.59232,5.46954,6.20864,6.40427-6.621-6.41476-5.22871A12.01774,12.01774,0,0,0,3.542,155.63378,12.03822,12.03822,0,0,0,1.14219,158.76918Zm-0.14061-.15668,0.00089,0.00067Zm5.43918-5.6174,0.00067,0.00056Z"/><path class="cls-9" d="M40.73151,176.42868v-1.85293c-0.60954-6.31946-1.55164-14.03632-4.5962-16.02664-2.764-1.80695-6.9204-2.63347-9.63585-2.811-1.7522,0-2.94745-.12332-5.38472,0-4.52978.26672-8.793,1.12354-11.37565,3.16956-2.80664,2.2232-3.73122,9.356-4.4,15.95108v1.56992c0,10.02064,12.3791,18.14348,17.69575,18.14348C28.35239,194.57215,40.73151,186.44931,40.73151,176.42868Z"/><path class="cls-19" d="M9.55541,165.74906a0.55949,0.55949,0,0,1-.4754-0.85337,7.41174,7.41174,0,0,1,6.03622-3.29811,0.55932,0.55932,0,0,1,0,1.11864,6.34909,6.34909,0,0,0-5.08453,2.76736A0.55894,0.55894,0,0,1,9.55541,165.74906Z"/><path class="cls-21" d="M9.55541,164.8833a0.55949,0.55949,0,0,1-.4754-0.85337,7.41179,7.41179,0,0,1,6.03622-3.29777,0.55932,0.55932,0,0,1,0,1.11864,6.34917,6.34917,0,0,0-5.08453,2.767A0.55894,0.55894,0,0,1,9.55541,164.8833Z"/><circle class="cls-21" cx="12.92837" cy="166.07913" r="1.36923"/><path class="cls-19" d="M9.55094,165.70208a0.55949,0.55949,0,0,1-.4754-0.85337,7.41223,7.41223,0,0,1,6.03622-3.29788,0.55932,0.55932,0,0,1,0,1.11864,6.34994,6.34994,0,0,0-5.08453,2.76713A0.55922,0.55922,0,0,1,9.55094,165.70208Z"/><path class="cls-21" d="M9.55094,164.83654a0.55949,0.55949,0,0,1-.4754-0.85337,7.41223,7.41223,0,0,1,6.03622-3.29788,0.55932,0.55932,0,0,1,0,1.11864,6.34994,6.34994,0,0,0-5.08453,2.76713A0.55922,0.55922,0,0,1,9.55094,164.83654Z"/><circle class="cls-21" cx="12.92401" cy="166.03237" r="1.36928"/><path class="cls-20" d="M9.93717,158.89974c-2.80061,2.21863-3.86445,9.07957-4.569,15.67643a88.69889,88.69889,0,0,1,16.06412-3.07825l-0.63475-15.75981c-0.01652.01339-.03271,0.02679-0.04811,0.04064C16.10775,156.05182,12.58344,156.80352,9.93717,158.89974Z"/><path class="cls-22" d="M9.7824,164.51872a3.96162,3.96162,0,0,0,3.51974,2.46771c2.57316,0,3.877-2.69315,3.877-2.69315"/><path class="cls-19" d="M13.30213,167.54575a4.49082,4.49082,0,0,1-4.042-2.82684,0.55938,0.55938,0,0,1,1.04409-.40186,3.373,3.373,0,0,0,2.99791,2.11006c2.183,0,3.36261-2.355,3.37421-2.37878a0.55937,0.55937,0,0,1,1.00637.48868C17.62312,164.65988,16.19269,167.54575,13.30213,167.54575Z"/><path class="cls-19" d="M6.04874,173.44937l0.00407,0.022c0.68807-6.04117,1.76585-12.1799,4.23154-14.13319,2.19978-1.74246,5.20215-2.63924,9.97891-2.968l0.589,14.6242a91.26331,91.26331,0,0,0-14.74564,2.76821q0.09876,0.55409.23469,1.09709a91.4304,91.4304,0,0,1,15.14192-2.8048,0.55921,0.55921,0,0,0,.508-0.57952l-0.63476-15.7598a0.55945,0.55945,0,0,0-.79166-0.48611c-5.23854.32285-8.52637,1.29217-10.975,3.23182C6.649,160.791,5.55559,167.55468,4.81191,174.51681a0.55912,0.55912,0,0,0,.72761.59168q0.17844-.05744.35889-0.11353v-0.10787Q5.971,174.172,6.04874,173.44937Z"/><path class="cls-23" d="M21.11474,164.10669s-7.20921.1135-14.09926,0.412"/><path class="cls-19" d="M7.015,165.078A0.5593,0.5593,0,0,1,6.99138,163.96c6.819-.29551,14.04234-0.41134,14.11465-0.41246l0.00893-.00011a0.5593,0.5593,0,0,1,.00848,1.11853c-0.07187.00123-7.28052,0.11684-14.08385,0.41157Z"/><path class="cls-24" d="M17.71219,167.29812c3.26529-4.67921,17.43038-3.306,11.63609,11.67428a35.454,35.454,0,0,1-3.15637,6.071c-0.99944,1.63979-2.23191.88761-3.27578-.61112-0.29037.32454-2.35914,0.92313-2.6609,1.24095C17.1476,181.9145,14.44554,171.97756,17.71219,167.29812Z"/><path class="cls-19" d="M24.91725,186.52766a2.93,2.93,0,0,1-2.14711-1.35477c-0.24395.11494-.568,0.2444-1.00146,0.41313a8.65393,8.65393,0,0,0-1.12109.48589,0.55906,0.55906,0,0,1-.82335-0.04218c-3.02269-3.65566-6.11657-13.97237-2.57072-19.05177v0.00011c1.8641-2.67127,6.66428-3.45267,10.07108-1.63923,1.969,1.04811,6.15831,4.4943,2.54528,13.83533a41.11181,41.11181,0,0,1-1.84423,3.89291,13.47867,13.47867,0,0,1-1.40075,2.33905,2.06641,2.06641,0,0,1-1.6572,1.12087Zm-4.25649-.46937-0.00692.00737Zm2.25535-2.18527L22.95,183.87413a0.55865,0.55865,0,0,1,.425.23859,2.4802,2.4802,0,0,0,1.55855,1.29607,1.17931,1.17931,0,0,0,.78072-0.65641,0.55843,0.55843,0,0,1,.1299-0.14708,40.43719,40.43719,0,0,0,2.98229-5.834c2.31673-5.99,1.57774-10.52584-2.02747-12.445-2.89591-1.54136-7.089-.91352-8.62815,1.29183v0.00011c-2.91332,4.17335-.74234,13.332,2.22232,17.32381,0.24707-.11584.56668-0.24194,0.97021-0.39884a8.65844,8.65844,0,0,0,1.15167-.50084A0.55918,0.55918,0,0,1,22.91612,183.873Zm2.90819,0.75617h0Zm0.21292-.1232-0.00089.00022Zm0.00179-.00067-0.00134.00045Zm-3.53134-.45509-0.00848.00915Zm-4.7955-16.75211h0Z"/><path class="cls-19" d="M24.6675,179.42123h-2.514a0.55932,0.55932,0,0,1,0-1.11864h2.514A0.55932,0.55932,0,0,1,24.6675,179.42123Z"/><path class="cls-19" d="M27.53083,169.03267c-0.55953-.579-2.2837-0.873-4.12011-0.88384-1.836.01081-3.56049,0.30488-4.12057,0.88384-1.30567,1.349,1.73966,4.43281,4.12057,4.6252C25.79105,173.46548,28.83628,170.38163,27.53083,169.03267Z"/><path class="cls-19" d="M23.42008,179.42123a0.55933,0.55933,0,0,1-.55932-0.55932v-5.20383a0.55932,0.55932,0,1,1,1.11864,0v5.20383A0.55933,0.55933,0,0,1,23.42008,179.42123Z"/><path class="cls-25" d="M35.82933,159.01726c-2.63924-1.72538-6.6808-2.54294-9.34839-2.71982-0.57941-.00033-1.10659-0.01395-1.61658-0.02723-1.03807-.02712-2.11139-0.055-3.72128.02656-5.16511.3041-8.88661,1.33011-11.0567,3.04936-2.42332,1.91948-3.3892,8.09-4.03764,14.10324,1.39449,8.85827,10.25947,15.72,16.98611,15.72,6.817,0,15.71527-6.92962,17.00927-15.87322C39.54928,168.37075,38.59583,160.82591,35.82933,159.01726Z"/><path class="cls-19" d="M41.15866,173.21715l0.00445,0.04368Z"/><path class="cls-19" d="M41.1636,173.2657c0.04323,0.42333.08467,0.84293,0.12455,1.25625Q41.22787,173.89669,41.1636,173.2657Z"/><path class="cls-19" d="M4.78267,174.80228c0.04635-.457.09452-0.91747,0.1435-1.37864Q4.85246,174.11185,4.78267,174.80228Z"/><path class="cls-19" d="M4.77977,174.85874v1.56993l0.0029-1.6264A0.53159,0.53159,0,0,0,4.77977,174.85874Z"/><path class="cls-19" d="M6.04874,173.44937c0.64844-6.01321,1.61432-12.18376,4.03764-14.10324,2.17009-1.71925,5.89159-2.74526,11.0567-3.04936,1.60988-.08158,2.68321-0.05368,3.72128-0.02656,0.51,0.01328,1.03717.02689,1.61658,0.02723,2.66759,0.17688,6.70915.99443,9.34839,2.71982,2.7665,1.80865,3.72,9.35349,4.2148,14.27888,0.00262-.01811.00656-0.03585,0.00911-0.054l0.599-4.2465c-0.70782-4.95072-1.8593-9.37747-4.21093-10.91469-2.82672-1.848-7.10263-2.7177-9.90525-2.90094l-0.0366-.00123c-0.57226,0-1.07445-.01306-1.60609-0.02689-1.059-.02756-2.15447-0.056-3.81145.0279-5.40347.31816-9.33656,1.42486-11.69012,3.2894C7.209,160.19828,6.1253,164.45768,5.42289,169.3699l0.6139,4.01321C6.04019,173.40536,6.04524,173.42715,6.04874,173.44937Z"/><path class="cls-26" d="M5.38462,169.11981l-0.45687,4.28863-0.00158.01519c0.14721-1.37439.30844-2.73715,0.49671-4.05374Z"/><path class="cls-26" d="M40.69669,168.68057l-0.04444.31509c0.19782,1.38362.36149,2.80752,0.50641,4.22149Z"/><polygon class="cls-26" points="41.163 173.264 41.163 173.261 41.164 173.266 41.163 173.264"/><path class="cls-25" d="M20.26326,156.3702c-4.77675.32876-7.77913,1.22555-9.97891,2.968-2.46568,1.95329-3.54346,8.092-4.23154,14.13319,0.01553,0.09773.03646,0.194,0.0538,0.29121a91.26331,91.26331,0,0,1,14.74564-2.76821Z"/><path class="cls-27" d="M40.04412,173.29614c-1.294,8.9436-10.19228,15.87322-17.00927,15.87322-6.36475,0-14.63981-6.14457-16.69355-14.30966q-0.22257.06679-.4429,0.13527v1.43371c0,5.73313,4.17436,10.23491,6.66272,12.40813,3.48938,3.04768,7.79631,5.176,10.47372,5.176,2.67763,0,6.985-2.12836,10.47439-5.176,2.48837-2.173,6.66295-6.675,6.66295-12.40813v-1.82593C40.13288,174.19522,40.09035,173.7562,40.04412,173.29614Z"/><path class="cls-20" d="M6.0167,173.789l0.08992-.02638c-0.01734-.09724-0.03828-0.19348-0.0538-0.29121Q6.03474,173.63021,6.0167,173.789Z"/><path class="cls-28" d="M6.10662,173.76261L6.0167,173.789q0.01774-.15869.03612-0.31759l-0.00407-.022q-0.0778.72145-.15033,1.43772V174.995q0.2201-.06861.4429-0.13527Q6.2048,174.317,6.10662,173.76261Z"/><path class="cls-28" d="M41.28815,174.52195c-0.03988-.41332-0.08133-0.83292-0.12455-1.25625l-0.00049-.00487-0.00445-.04368c-0.14492-1.414-.30859-2.83787-0.50641-4.22149l-0.599,4.2465c-0.00255.01812-.00649,0.03586-0.00911,0.054,0.04623,0.46007.08876,0.89909,0.12807,1.30661v1.82593c0,5.73313-4.17458,10.23513-6.66295,12.40813-3.48938,3.04768-7.79676,5.176-10.47439,5.176-2.67741,0-6.98434-2.12836-10.47372-5.176-2.48837-2.17322-6.66272-6.675-6.66272-12.40813v-1.54159q0.07257-.715.15033-1.43772c-0.0035-.02222-0.00855-0.044-0.012-0.06626l-0.6139-4.01321c-0.18828,1.31658-.3495,2.67935-0.49671,4.05374-0.049.46117-.09714,0.92167-0.1435,1.37864l-0.0029,1.6264c0,6.17527,4.41429,10.95269,7.0455,13.25068,3.67552,3.21017,8.2851,5.45213,11.20959,5.45213,2.92493,0,7.53473-2.242,11.21026-5.45213,2.63143-2.298,7.04572-7.07518,7.04572-13.25067v-1.85294C41.29083,174.55788,41.28994,174.5398,41.28815,174.52195Z"/><circle class="cls-21" cx="33.6251" cy="164.76449" r="2.05723"/></svg>