<?xml version="1.0" encoding="UTF-8" standalone="no"?>
<svg width="334px" height="334px" viewBox="0 0 334 334" version="1.1" xmlns="http://www.w3.org/2000/svg" xmlns:xlink="http://www.w3.org/1999/xlink" xmlns:sketch="http://www.bohemiancoding.com/sketch/ns">
    <!-- Generator: Sketch 3.5.1 (25234) - http://www.bohemiancoding.com/sketch -->
    <title>loccc</title>
    <desc>Created with Sketch.</desc>
    <defs></defs>
    <g id="Page-1" stroke="none" stroke-width="1" fill="none" fill-rule="evenodd" sketch:type="MSPage">
        <g id="loccc" sketch:type="MSLayerGroup">
            <path d="M171.8918,162.1083 L171.9978,162.0023 L171.9978,162.0023 L171.8918,162.1083 Z M168.5688,174.8003 C169.2178,174.6263 169.8378,174.3683 170.4148,174.0353 C169.8378,174.3683 169.2178,174.6263 168.5688,174.8003 L168.5688,174.8003 Z M168.5118,168.5783 C168.5048,168.5903 168.4938,168.5993 168.4868,168.6103 C168.5258,168.5483 168.5588,168.4823 168.5918,168.4163 C168.5798,168.4403 168.5748,168.4683 168.5618,168.4923 C168.5458,168.5213 168.5288,168.5503 168.5118,168.5783 L168.5118,168.5783 Z M166.5888,165.1613 L166.5888,165.1613 C166.6058,165.1613 166.6228,165.1623 166.6388,165.1623 C166.6648,165.1623 166.6888,165.1723 166.7138,165.1733 C166.6718,165.1713 166.6318,165.1613 166.5888,165.1613 L166.5888,165.1613 Z M166.6388,169.6593 C166.6228,169.6603 166.6058,169.6613 166.5898,169.6613 C166.6318,169.6613 166.6708,169.6513 166.7128,169.6483 C166.6878,169.6503 166.6648,169.6593 166.6388,169.6593 L166.6388,169.6593 Z M166.4648,165.1733 C166.4898,165.1723 166.5128,165.1623 166.5388,165.1623 C166.5558,165.1623 166.5718,165.1613 166.5888,165.1613 C166.5458,165.1613 166.5068,165.1713 166.4648,165.1733 L166.4648,165.1733 Z M166.5388,169.6593 C166.5138,169.6593 166.4908,169.6503 166.4658,169.6483 C166.5068,169.6513 166.5458,169.6613 166.5878,169.6613 C166.5718,169.6613 166.5558,169.6603 166.5388,169.6593 L166.5388,169.6593 Z M164.8018,174.8383 C165.3738,174.9763 165.9558,175.0573 166.5388,175.0603 C165.9558,175.0573 165.3738,174.9763 164.8018,174.8383 L164.8018,174.8383 Z M164.5868,166.4053 C164.5988,166.3813 164.6038,166.3533 164.6168,166.3303 C164.6328,166.3003 164.6488,166.2713 164.6668,166.2433 C164.6738,166.2313 164.6838,166.2233 164.6918,166.2123 C164.6518,166.2733 164.6198,166.3393 164.5868,166.4053 L164.5868,166.4053 Z M164.6668,168.5783 C164.6488,168.5503 164.6328,168.5213 164.6168,168.4923 C164.6038,168.4683 164.5988,168.4413 164.5868,168.4173 C164.6198,168.4823 164.6518,168.5483 164.6908,168.6093 C164.6838,168.5983 164.6738,168.5903 164.6668,168.5783 L164.6668,168.5783 Z M168.5918,166.4053 C168.5588,166.3393 168.5258,166.2733 168.4868,166.2113 C168.4938,166.2233 168.5048,166.2313 168.5118,166.2433 C168.5288,166.2713 168.5458,166.3003 168.5618,166.3293 C168.5748,166.3533 168.5798,166.3813 168.5918,166.4053 L168.5918,166.4053 Z M168.8388,167.4083 L168.8388,167.4113 L168.8388,167.4133 L168.8388,167.4113 L168.8388,167.4083 L168.8388,167.4083 Z M169.8098,169.3283 C169.5678,169.7343 169.2508,170.0913 168.8778,170.3793 C169.2508,170.0913 169.5678,169.7343 169.8098,169.3283 L169.8098,169.3283 Z M162.7888,157.6763 L162.7888,157.6203 L162.7888,157.5693 L162.7888,157.4113 C162.7888,155.3323 164.4668,153.6393 166.5388,153.6123 C166.5558,153.6123 166.5728,153.6113 166.5888,153.6113 C166.6058,153.6113 166.6228,153.6123 166.6388,153.6123 C168.7118,153.6393 170.3888,155.3323 170.3888,157.4113 L170.3888,157.5693 L170.3888,157.6203 L170.3888,157.6763 L170.3888,159.2513 C169.2488,158.7193 167.9788,158.4193 166.6388,158.4113 L166.5888,158.4113 L166.5388,158.4113 C165.1998,158.4193 163.9298,158.7193 162.7888,159.2513 L162.7888,157.6763 Z M161.1808,172.8193 C161.6548,173.2933 162.1888,173.7013 162.7648,174.0343 C162.1888,173.7013 161.6548,173.2933 161.1808,172.8193 L161.1808,172.8193 Z M174.4088,162.9533 C174.3928,162.9243 174.3758,162.8963 174.3588,162.8673 C173.9298,162.1353 173.4008,161.4683 172.7888,160.8873 L172.7888,159.0043 L172.7888,158.9373 L172.7888,158.8803 L172.7888,157.4113 C172.7888,155.7653 172.1438,154.2693 171.0938,153.1573 C171.0458,153.1063 170.9968,153.0553 170.9468,153.0063 C169.8378,151.9083 168.3168,151.2253 166.6388,151.2123 C166.6228,151.2123 166.6058,151.2113 166.5888,151.2113 C166.5728,151.2113 166.5558,151.2123 166.5388,151.2123 C164.8628,151.2253 163.3428,151.9073 162.2338,153.0033 C162.1838,153.0533 162.1348,153.1043 162.0858,153.1553 C161.0358,154.2673 160.3888,155.7643 160.3888,157.4113 L160.3888,158.8803 L160.3888,158.9373 L160.3888,159.0043 L160.3888,160.8873 C159.7778,161.4683 159.2488,162.1353 158.8188,162.8673 C158.8028,162.8963 158.7858,162.9243 158.7688,162.9533 C158.0188,164.2683 157.5888,165.7893 157.5888,167.4113 C157.5888,169.0323 158.0178,170.5543 158.7688,171.8683 C158.7858,171.8973 158.8028,171.9263 158.8188,171.9543 C160.3738,174.6073 163.2468,176.3923 166.5388,176.4103 C166.5558,176.4103 166.5728,176.4113 166.5888,176.4113 C166.6058,176.4113 166.6228,176.4103 166.6388,176.4103 C169.9308,176.3923 172.8048,174.6073 174.3588,171.9543 C174.3758,171.9263 174.3928,171.8973 174.4088,171.8683 C175.1598,170.5543 175.5888,169.0323 175.5888,167.4113 C175.5888,165.7893 175.1598,164.2683 174.4088,162.9533 L174.4088,162.9533 Z" id="Fill-1" fill="#BCD2F3" sketch:type="MSShapeGroup"></path>
            <path d="M168.5117,168.5786 C168.1247,169.2136 167.4317,169.6426 166.6387,169.6596 C166.6227,169.6596 166.6057,169.6606 166.5887,169.6606 L166.5887,169.6606 C166.5727,169.6606 166.5557,169.6596 166.5387,169.6596 C165.7467,169.6426 165.0537,169.2136 164.6667,168.5786 C164.6487,168.5506 164.6327,168.5216 164.6167,168.4916 C164.4397,168.1706 164.3387,167.8026 164.3387,167.4106 C164.3387,167.0196 164.4397,166.6506 164.6167,166.3296 C164.6327,166.3006 164.6487,166.2716 164.6667,166.2436 C165.0537,165.6076 165.7467,165.1796 166.5387,165.1626 C166.5557,165.1616 166.5727,165.1606 166.5887,165.1606 L166.5887,165.1606 C166.6057,165.1606 166.6227,165.1616 166.6387,165.1626 C167.4317,165.1796 168.1247,165.6076 168.5117,166.2436 C168.5287,166.2716 168.5457,166.3006 168.5617,166.3296 C168.7387,166.6506 168.8387,167.0196 168.8387,167.4106 C168.8387,167.8026 168.7387,168.1706 168.5617,168.4916 C168.5457,168.5216 168.5287,168.5506 168.5117,168.5786 M169.8597,165.5796 C169.8437,165.5506 169.8277,165.5216 169.8097,165.4936 C169.1627,164.4106 167.9857,163.6796 166.6387,163.6626 C166.6227,163.6616 166.6057,163.6606 166.5887,163.6606 L166.5887,163.6606 C166.5727,163.6606 166.5557,163.6616 166.5387,163.6626 C165.1927,163.6796 164.0147,164.4106 163.3677,165.4936 C163.3507,165.5216 163.3347,165.5506 163.3177,165.5796 C163.0137,166.1216 162.8387,166.7466 162.8387,167.4106 C162.8387,168.0756 163.0137,168.6996 163.3177,169.2416 C163.3347,169.2706 163.3507,169.2996 163.3677,169.3286 C164.0147,170.4116 165.1927,171.1416 166.5387,171.1596 C166.5557,171.1596 166.5727,171.1606 166.5887,171.1606 L166.5887,171.1606 C166.6057,171.1606 166.6227,171.1596 166.6387,171.1596 C167.9857,171.1416 169.1627,170.4116 169.8107,169.3286 C169.8277,169.2996 169.8437,169.2706 169.8597,169.2416 C170.1647,168.6996 170.3387,168.0756 170.3387,167.4106 C170.3387,166.7466 170.1647,166.1216 169.8597,165.5796" id="Fill-3" fill="#9F719F" sketch:type="MSShapeGroup"></path>
            <g id="Group" fill="#51395D" sketch:type="MSShapeGroup">
                <path d="M166.5892,156.9609 C166.6062,156.9609 166.6222,156.9609 166.6392,156.9619 C167.9612,156.9679 169.2252,157.2209 170.3892,157.6759 L170.3892,157.6199 L170.3892,157.5689 C169.2242,157.1179 167.9602,156.8679 166.6392,156.8619 L166.6392,153.6119 C166.6222,153.6119 166.6062,153.6109 166.5892,153.6109 C166.5722,153.6109 166.5562,153.6119 166.5392,153.6119 L166.5392,156.8619 C165.2182,156.8679 163.9542,157.1179 162.7892,157.5689 L162.7892,157.6199 L162.7892,157.6759 C163.9532,157.2209 165.2172,156.9679 166.5392,156.9619 C166.5562,156.9609 166.5722,156.9609 166.5892,156.9609" id="Fill-5"></path>
                <path d="M177.1618,156.8381 L177.2328,156.7671 C175.4868,155.0181 173.3218,153.7241 170.9468,153.0061 C170.9968,153.0551 171.0458,153.1061 171.0938,153.1581 C173.3838,153.8811 175.4708,155.1441 177.1618,156.8381" id="Fill-7"></path>
                <path d="M291.3431,95.3264 C291.2441,95.1554 291.1461,94.9834 291.0471,94.8134 C284.8281,84.1384 277.2291,74.2894 268.4621,65.5384 C250.5921,47.7014 228.2591,34.8074 203.8771,28.2504 L203.8511,28.3474 C228.2161,34.8994 250.5331,47.7844 268.3911,65.6094 C277.1521,74.3534 284.7461,84.1964 290.9611,94.8634 C291.0601,95.0344 291.1581,95.2054 291.2571,95.3764 L274.4041,105.1064 L272.1191,104.4944 L272.2031,104.6084 C272.5081,105.0274 272.7901,105.4584 273.0431,105.8914 L257.5611,114.8304 C257.4911,114.7104 257.4221,114.5884 257.3511,114.4684 C252.8161,106.6834 247.2741,99.5004 240.8811,93.1194 C227.8491,80.1114 211.5621,70.7084 193.7821,65.9264 C185.0581,63.5804 176.0671,62.3724 167.0581,62.3374 C166.9181,62.3364 166.7791,62.3374 166.6391,62.3374 L166.6391,44.4334 C166.8051,44.4334 166.9711,44.4324 167.1371,44.4334 C177.6821,44.4744 188.2051,45.8884 198.4151,48.6344 C219.2261,54.2314 238.2871,65.2364 253.5401,80.4604 L253.6101,80.3894 C238.3461,65.1534 219.2691,54.1394 198.4411,48.5374 C188.2231,45.7894 177.6911,44.3744 167.1381,44.3334 C166.9721,44.3324 166.8051,44.3334 166.6391,44.3334 L166.6391,23.4594 C167.1371,23.4624 167.6531,23.4884 168.1681,23.5424 L168.3091,23.5574 L166.6391,21.8884 L166.6391,0.9234 C166.8701,0.9234 167.1011,0.9224 167.3321,0.9234 C181.6071,0.9794 195.8531,2.8934 209.6751,6.6104 C237.8491,14.1874 263.6551,29.0864 284.3031,49.6974 C294.4341,59.8084 303.2141,71.1894 310.4001,83.5244 C310.5171,83.7234 310.6311,83.9234 310.7471,84.1234 L291.3431,95.3264 Z M272.3661,104.6634 L274.2811,105.1764 L274.3501,105.1954 L274.3321,105.2634 L273.8191,107.1754 C273.6231,106.7434 273.4071,106.3254 273.1801,105.9284 C273.1711,105.9144 273.1641,105.8994 273.1551,105.8844 C273.1471,105.8704 273.1381,105.8564 273.1301,105.8414 C272.8981,105.4444 272.6421,105.0494 272.3661,104.6634 L272.3661,104.6634 Z M305.6341,130.1544 C308.9611,142.5694 310.6221,155.3204 310.5721,168.0534 C310.5231,180.3984 308.8681,192.7194 305.6531,204.6724 C302.3811,216.8394 297.5301,228.4944 291.2741,239.3394 L273.1741,228.8904 C278.5201,219.6214 282.6661,209.6604 285.4621,199.2634 C288.2111,189.0454 289.6251,178.5134 289.6671,167.9594 C289.7101,157.0754 288.2901,146.1754 285.4461,135.5634 L285.3501,135.5894 C288.1911,146.1934 289.6101,157.0844 289.5671,167.9594 C289.5251,178.5034 288.1121,189.0274 285.3661,199.2374 C282.5721,209.6264 278.4301,219.5794 273.0881,228.8404 L258.8651,220.6294 L258.2531,218.3444 L258.1961,218.4734 C257.9861,218.9484 257.7531,219.4084 257.5041,219.8434 L243.2981,211.6404 C247.1411,204.9744 250.1221,197.8104 252.1331,190.3324 C254.1111,182.9794 255.1291,175.4004 255.1591,167.8054 C255.1901,159.9734 254.1681,152.1294 252.1221,144.4924 C250.1141,137.0004 247.1531,129.8284 243.3181,123.1694 L257.5241,114.9674 C262.0711,122.8624 265.5831,131.3644 267.9631,140.2474 C270.3881,149.2994 271.6001,158.5964 271.5631,167.8794 C271.5271,176.8794 270.3211,185.8624 267.9771,194.5774 L268.0731,194.6034 C270.4201,185.8804 271.6271,176.8894 271.6631,167.8794 C271.6991,158.5874 270.4871,149.2824 268.0601,140.2224 C265.6771,131.3304 262.1621,122.8194 257.6101,114.9174 L273.0931,105.9784 C273.3421,106.4114 273.5751,106.8704 273.7851,107.3444 L273.8431,107.4734 L274.4541,105.1924 L291.3071,95.4624 C297.5481,106.2964 302.3681,117.9634 305.6341,130.1544 L305.6341,130.1544 Z M257.5411,219.9804 C257.5501,219.9654 257.5591,219.9514 257.5671,219.9374 C257.5751,219.9224 257.5831,219.9074 257.5911,219.8934 C257.8191,219.4944 258.0341,219.0754 258.2301,218.6424 L258.7431,220.5584 L258.7611,220.6264 L258.6931,220.6444 L256.7811,221.1574 C257.0571,220.7714 257.3121,220.3754 257.5411,219.9804 L257.5411,219.9804 Z M253.5401,254.3614 C246.0711,261.8444 237.6641,268.3304 228.5531,273.6384 C219.1561,279.1134 209.0151,283.3304 198.4111,286.1714 C188.0011,288.9604 177.3141,290.3764 166.6391,290.3884 L166.6391,272.4854 C175.7581,272.4754 184.8861,271.2634 193.7781,268.8814 C202.8381,266.4534 211.5031,262.8514 219.5321,258.1734 C227.3161,253.6374 234.4991,248.0964 240.8811,241.7024 L240.8101,241.6324 C234.4351,248.0194 227.2591,253.5554 219.4811,258.0864 C211.4601,262.7604 202.8041,266.3594 193.7521,268.7844 C184.8691,271.1654 175.7501,272.3754 166.6391,272.3854 L166.6391,257.4294 L168.3091,255.7604 L168.1681,255.7744 C167.6531,255.8294 167.1381,255.8584 166.6391,255.8584 L166.6391,240.9774 C173.0191,240.9694 179.4051,240.1214 185.6251,238.4544 C191.9681,236.7554 198.0351,234.2324 203.6561,230.9574 C209.1071,227.7824 214.1361,223.9024 218.6041,219.4254 C223.1451,214.8754 227.0591,209.7584 230.2581,204.2274 L243.1611,211.6774 C239.3141,218.3324 234.6051,224.4884 229.1411,229.9634 C223.7681,235.3464 217.7201,240.0124 211.1661,243.8314 C204.4061,247.7694 197.1101,250.8034 189.4821,252.8474 L189.5081,252.9434 C197.1451,250.8974 204.4481,247.8604 211.2161,243.9174 C217.7781,240.0944 223.8331,235.4234 229.2121,230.0344 C234.6821,224.5534 239.3961,218.3894 243.2481,211.7274 L257.4551,219.9304 C257.2041,220.3614 256.9231,220.7934 256.6181,221.2124 L256.5351,221.3264 L258.8161,220.7154 L273.0381,228.9264 C267.6881,238.1834 261.1401,246.7474 253.5401,254.3614 L253.5401,254.3614 Z M166.5891,257.3384 L166.5391,257.2884 L165.1371,255.8864 C165.6091,255.9324 166.0801,255.9564 166.5391,255.9584 L166.5891,255.9584 L166.6021,255.9584 L166.6391,255.9584 C167.0971,255.9574 167.5671,255.9344 168.0391,255.8884 L166.6391,257.2884 L166.5891,257.3384 Z M168.0391,311.3884 L166.6391,312.7884 L166.5891,312.8384 L166.5391,312.7884 L165.1371,311.3864 C165.6091,311.4324 166.0801,311.4564 166.5391,311.4584 L166.5891,311.4584 L166.6391,311.4584 C167.0951,311.4554 167.5671,311.4344 168.0391,311.3884 L168.0391,311.3884 Z M166.5391,333.8984 C166.3081,333.8984 166.0771,333.8994 165.8461,333.8984 C151.5711,333.8424 137.3251,331.9294 123.5031,328.2114 C95.3291,320.6344 69.5231,305.7354 48.8751,285.1254 C38.7441,275.0134 29.9641,263.6324 22.7781,251.2974 C22.6611,251.0984 22.5471,250.8984 22.4321,250.6984 L41.8351,239.4954 C41.9341,239.6664 42.0311,239.8384 42.1311,240.0084 C48.3501,250.6834 55.9491,260.5334 64.7161,269.2834 C82.5861,287.1204 104.9191,300.0144 129.3011,306.5714 L129.3271,306.4754 C104.9621,299.9224 82.6441,287.0374 64.7871,269.2124 C56.0261,260.4684 48.4321,250.6254 42.2171,239.9584 C42.1181,239.7874 42.0201,239.6164 41.9211,239.4454 L58.7781,229.7134 L60.7561,230.2434 C65.9781,239.0474 72.3031,247.1814 79.5681,254.4324 C94.8321,269.6684 113.9091,280.6824 134.7371,286.2844 L134.7631,286.1874 C113.9521,280.5904 94.8901,269.5854 79.6381,254.3614 C72.4041,247.1414 66.1021,239.0434 60.8951,230.2804 L61.0581,230.3244 L60.9751,230.2104 C60.6701,229.7914 60.3891,229.3594 60.1381,228.9274 L75.6171,219.9914 C75.6871,220.1114 75.7561,220.2334 75.8271,220.3534 C80.3621,228.1384 85.9041,235.3214 92.2971,241.7024 C105.3291,254.7104 121.6151,264.1134 139.3961,268.8954 C148.1201,271.2414 157.1111,272.4494 166.1201,272.4844 C166.2571,272.4854 166.3931,272.4854 166.5301,272.4854 L166.5391,272.4854 L166.5391,290.3884 C166.3731,290.3884 166.2071,290.3894 166.0411,290.3884 C155.4961,290.3474 144.9731,288.9334 134.7631,286.1874 L134.7371,286.2844 C144.9551,289.0324 155.4871,290.4474 166.0401,290.4884 C166.2001,290.4894 166.3601,290.4894 166.5201,290.4894 L166.5391,290.4894 L166.5391,311.3584 C166.0381,311.3564 165.5231,311.3274 165.0071,311.2724 L164.8661,311.2564 L166.5391,312.9294 L166.5391,333.8984 Z M27.5441,204.6684 C24.2171,192.2524 22.5561,179.5014 22.6061,166.7684 C22.6551,154.4234 24.3101,142.1024 27.5251,130.1494 C30.7971,117.9824 35.6481,106.3264 41.9041,95.4824 L60.0041,105.9314 C54.6571,115.2004 50.5121,125.1614 47.7161,135.5584 C44.9671,145.7764 43.5531,156.3084 43.5111,166.8624 C43.4681,177.7464 44.8881,188.6464 47.7321,199.2584 C50.3971,209.2054 54.2711,218.7454 59.2581,227.6464 L58.7281,229.6274 L41.8721,239.3584 C35.6301,228.5254 30.8101,216.8584 27.5441,204.6684 L27.5441,204.6684 Z M60.8121,230.1554 L60.6841,230.1204 L58.9001,229.6424 L58.8321,229.6244 L58.8501,229.5564 L59.3291,227.7704 L59.3641,227.6404 C59.5591,228.0724 59.7741,228.4924 60.0021,228.8914 C60.0101,228.9054 60.0181,228.9204 60.0261,228.9354 C60.0351,228.9494 60.0431,228.9634 60.0521,228.9774 C60.2821,229.3734 60.5371,229.7694 60.8121,230.1554 L60.8121,230.1554 Z M60.0901,105.9814 L74.3161,114.1944 L74.9271,116.4754 L74.9851,116.3464 C75.1951,115.8724 75.4281,115.4144 75.6771,114.9804 L89.8801,123.1804 C86.0371,129.8474 83.0561,137.0114 81.0451,144.4894 C79.0671,151.8424 78.0491,159.4214 78.0191,167.0164 C77.9881,174.8484 79.0101,182.6924 81.0561,190.3294 C83.0641,197.8214 86.0261,204.9934 89.8601,211.6524 L75.6541,219.8544 C71.1071,211.9594 67.5951,203.4574 65.2151,194.5744 C62.7901,185.5224 61.5791,176.2254 61.6151,166.9424 C61.6511,157.9414 62.8571,148.9594 65.2011,140.2444 L65.1051,140.2184 C62.7581,148.9414 61.5511,157.9324 61.5151,166.9424 C61.4781,176.2344 62.6911,185.5394 65.1191,194.5994 C67.5011,203.4914 71.0161,212.0024 75.5671,219.9044 L60.0891,228.8414 C59.8401,228.4054 59.6071,227.9454 59.3971,227.4714 L59.3401,227.3424 L59.2961,227.5074 C54.3371,218.6394 50.4831,209.1384 47.8281,199.2324 C44.9871,188.6284 43.5681,177.7374 43.6111,166.8624 C43.6531,156.3174 45.0661,145.7944 47.8121,135.5844 C50.6061,125.1954 54.7481,115.2424 60.0901,105.9814 L60.0901,105.9814 Z M75.6401,114.8444 C75.6321,114.8584 75.6231,114.8724 75.6151,114.8874 C75.6071,114.9014 75.5991,114.9164 75.5901,114.9304 C75.3621,115.3274 75.1471,115.7464 74.9511,116.1774 L74.4391,114.2654 L74.4201,114.1974 L74.4891,114.1794 L76.4041,113.6654 C76.1281,114.0514 75.8721,114.4474 75.6401,114.8444 L75.6401,114.8444 Z M79.6381,80.4604 C87.1071,72.9774 95.5141,66.4914 104.6251,61.1834 C114.0221,55.7084 124.1631,51.4914 134.7671,48.6504 C145.1771,45.8614 155.8581,44.4424 166.5391,44.4334 L166.5391,62.3374 C157.4171,62.3484 148.2921,63.5574 139.4001,65.9404 C130.3401,68.3684 121.6751,71.9714 113.6461,76.6484 C105.8621,81.1844 98.6791,86.7254 92.2971,93.1194 L92.3681,93.1904 C98.7431,86.8024 105.9191,81.2664 113.6971,76.7354 C121.7181,72.0614 130.3741,68.4624 139.4261,66.0374 C148.3091,63.6564 157.4301,62.4464 166.5391,62.4374 L166.5391,77.3884 L164.8661,79.0604 L165.0071,79.0454 C165.5231,78.9904 166.0381,78.9614 166.5391,78.9594 L166.5391,93.8464 C160.1611,93.8534 153.7731,94.7004 147.5531,96.3674 C141.2091,98.0664 135.1431,100.5894 129.5211,103.8644 C124.0711,107.0394 119.0421,110.9194 114.5741,115.3964 C110.0321,119.9464 106.1191,125.0634 102.9211,130.5944 L90.0171,123.1444 C93.8641,116.4894 98.5731,110.3334 104.0371,104.8584 C109.4101,99.4754 115.4581,94.8094 122.0121,90.9914 C128.7721,87.0524 136.0681,84.0184 143.6971,81.9744 L143.6711,81.8784 C136.0331,83.9244 128.7301,86.9614 121.9621,90.9044 C115.4001,94.7274 109.3451,99.3984 103.9661,104.7884 C98.4961,110.2684 93.7821,116.4324 89.9301,123.0944 L75.7271,114.8944 C75.9801,114.4614 76.2621,114.0294 76.5671,113.6104 L76.6511,113.4964 L74.3661,114.1084 L60.1401,105.8944 C65.4891,96.6384 72.0381,88.0744 79.6381,80.4604 L79.6381,80.4604 Z M166.5891,77.4794 L166.6391,77.5294 L168.0391,78.9294 C167.5671,78.8834 167.0941,78.8614 166.6391,78.8594 C166.6231,78.8594 166.6051,78.8584 166.5891,78.8584 C166.5721,78.8584 166.5561,78.8594 166.5391,78.8594 C166.0801,78.8614 165.6091,78.8854 165.1371,78.9314 L166.5391,77.5294 L166.5891,77.4794 Z M243.0951,122.7844 C239.2721,116.2224 234.6011,110.1674 229.2121,104.7884 C218.2271,93.8234 204.4991,85.8974 189.5111,81.8664 L189.4851,81.9634 C204.4561,85.9894 218.1691,93.9064 229.1411,104.8584 C234.5251,110.2324 239.1901,116.2794 243.0091,122.8344 C243.0671,122.9334 243.1241,123.0334 243.1811,123.1324 L231.5361,129.8564 L229.2511,129.2444 L229.3341,129.3584 C229.6401,129.7774 229.9221,130.2084 230.1751,130.6414 L218.5731,137.3404 C215.9621,132.8194 212.7661,128.6454 209.0571,124.9434 C201.6071,117.5074 192.2971,112.1324 182.1331,109.3994 C177.0721,108.0384 171.8591,107.3574 166.6391,107.3564 L166.6391,93.9454 C166.7321,93.9454 166.8241,93.9434 166.9171,93.9444 C173.2161,93.9694 179.5031,94.8134 185.6021,96.4534 C198.0341,99.7974 209.4211,106.3724 218.5331,115.4664 L218.6041,115.3964 C209.4801,106.2894 198.0771,99.7054 185.6281,96.3574 C179.5201,94.7144 173.2251,93.8694 166.9171,93.8444 C166.8241,93.8434 166.7321,93.8454 166.6391,93.8454 L166.6391,78.9594 C167.1371,78.9594 167.6531,78.9884 168.1681,79.0424 L168.3091,79.0574 L166.6391,77.3884 L166.6391,62.4374 C166.7781,62.4374 166.9181,62.4364 167.0571,62.4374 C176.0581,62.4724 185.0411,63.6794 193.7561,66.0234 C211.5201,70.8004 227.7911,80.1944 240.8101,93.1904 C247.1971,99.5654 252.7341,106.7414 257.2651,114.5184 C257.3351,114.6394 257.4041,114.7604 257.4741,114.8804 L243.2681,123.0824 C243.2101,122.9834 243.1531,122.8834 243.0951,122.7844 L243.0951,122.7844 Z M229.4981,129.4134 L231.4131,129.9264 L231.4821,129.9454 L231.4631,130.0134 L230.9511,131.9254 C230.7541,131.4934 230.5391,131.0754 230.3121,130.6784 C230.3031,130.6644 230.2951,130.6494 230.2871,130.6344 C230.2791,130.6204 230.2701,130.6064 230.2611,130.5924 C230.0301,130.1944 229.7741,129.7994 229.4981,129.4134 L229.4981,129.4134 Z M218.5701,197.4804 C218.5791,197.4654 218.5871,197.4514 218.5961,197.4374 C218.6041,197.4224 218.6121,197.4074 218.6201,197.3934 C218.8481,196.9944 219.0621,196.5754 219.2591,196.1424 L219.7721,198.0584 L219.7901,198.1264 L219.7221,198.1444 L217.8101,198.6574 C218.0851,198.2714 218.3401,197.8764 218.5701,197.4804 L218.5701,197.4804 Z M166.6391,227.4654 C171.8441,227.4574 177.0561,226.7744 182.1311,225.4144 C192.3281,222.6824 201.6391,217.3104 209.0571,209.8784 L208.9861,209.8074 C201.5811,217.2274 192.2851,222.5904 182.1051,225.3184 C177.0391,226.6754 171.8361,227.3574 166.6391,227.3654 L166.6391,216.9294 L168.3091,215.2604 L168.1681,215.2744 C167.6531,215.3294 167.1391,215.3574 166.6391,215.3584 L166.6391,204.9634 C169.8881,204.9574 173.1401,204.5304 176.3081,203.6814 C182.6841,201.9724 188.5061,198.6134 193.1451,193.9664 C195.4581,191.6494 197.4511,189.0434 199.0821,186.2284 L208.0881,191.4284 C206.0051,195.0284 203.4561,198.3594 200.4991,201.3214 C194.5761,207.2554 187.1421,211.5454 178.9991,213.7274 L179.0251,213.8234 C187.1851,211.6374 194.6351,207.3384 200.5701,201.3924 C203.5331,198.4234 206.0871,195.0854 208.1751,191.4784 L218.4831,197.4304 C218.2321,197.8624 217.9511,198.2934 217.6471,198.7124 L217.5641,198.8264 L219.8441,198.2154 L230.1711,204.1774 C226.9771,209.7014 223.0691,214.8114 218.5331,219.3554 C214.0711,223.8254 209.0491,227.7004 203.6061,230.8714 C197.9921,234.1414 191.9341,236.6604 185.5991,238.3584 C179.3871,240.0224 173.0101,240.8694 166.6391,240.8774 L166.6391,227.4654 Z M165.1371,215.3864 C165.6091,215.4324 166.0801,215.4564 166.5391,215.4584 L166.5891,215.4584 L166.6391,215.4584 C167.0951,215.4564 167.5671,215.4344 168.0391,215.3884 L166.6391,216.7884 L166.5891,216.8384 L166.5391,216.7884 L165.1371,215.3864 Z M151.0711,225.3264 C140.9241,222.5974 131.6291,217.2304 124.1921,209.8074 C120.4891,206.1114 117.2981,201.9444 114.6921,197.4314 L124.9981,191.4814 C127.0871,195.0954 129.6421,198.4314 132.6081,201.3924 C138.5691,207.3414 146.0181,211.6424 154.1511,213.8304 L154.1771,213.7334 C146.0611,211.5504 138.6271,207.2584 132.6791,201.3214 C129.7191,198.3674 127.1691,195.0374 125.0851,191.4314 L132.8001,186.9764 C133.0741,187.4164 133.5601,187.7104 134.1151,187.7104 C134.9691,187.7104 135.6651,187.0144 135.6651,186.1594 C135.6651,185.8954 135.5981,185.6464 135.4811,185.4284 L141.8871,181.7304 C143.1261,183.8704 144.6411,185.8474 146.3981,187.6014 C149.9401,191.1364 154.3661,193.6924 159.1991,194.9924 C161.5961,195.6364 164.0661,195.9604 166.5391,195.9634 L166.5391,204.8634 C163.2901,204.8614 160.0451,204.4374 156.8951,203.5894 C150.5561,201.8854 144.7501,198.5334 140.1041,193.8954 L140.0341,193.9664 C144.6921,198.6164 150.5131,201.9774 156.8691,203.6864 C160.0281,204.5354 163.2811,204.9614 166.5391,204.9634 L166.5391,215.3584 C166.0381,215.3564 165.5231,215.3274 165.0071,215.2724 L164.8661,215.2564 L166.5391,216.9294 L166.5391,227.3654 C161.3271,227.3644 156.1231,226.6854 151.0711,225.3264 L151.0711,225.3264 Z M103.6801,205.4054 L101.7681,204.8924 L101.7001,204.8744 L101.7181,204.8064 L102.2321,202.8904 C102.4281,203.3224 102.6421,203.7424 102.8701,204.1414 C102.8781,204.1554 102.8861,204.1704 102.8951,204.1854 C102.9031,204.1994 102.9121,204.2134 102.9201,204.2274 C103.1501,204.6234 103.4051,205.0194 103.6801,205.4054 L103.6801,205.4054 Z M114.6121,137.3444 C114.6031,137.3584 114.5941,137.3724 114.5861,137.3874 C114.5781,137.4014 114.5701,137.4164 114.5621,137.4304 C114.3331,137.8274 114.1191,138.2464 113.9221,138.6774 L113.4101,136.7654 L113.3911,136.6974 L113.4601,136.6794 L115.3751,136.1654 C115.0991,136.5514 114.8431,136.9474 114.6121,137.3444 L114.6121,137.3444 Z M166.5391,107.3564 C161.3341,107.3644 156.1221,108.0474 151.0471,109.4074 C140.8501,112.1394 131.5391,117.5114 124.1211,124.9434 L124.1921,125.0144 C131.5971,117.5944 140.8931,112.2314 151.0731,109.5034 C156.1391,108.1464 161.3421,107.4644 166.5391,107.4564 L166.5391,117.8884 L164.8661,119.5604 L165.0071,119.5454 C165.5231,119.4904 166.0381,119.4614 166.5391,119.4594 L166.5391,129.8584 C163.2901,129.8644 160.0381,130.2914 156.8701,131.1404 C150.4941,132.8494 144.6721,136.2084 140.0331,140.8554 C137.7211,143.1724 135.7271,145.7784 134.0961,148.5934 L125.0901,143.3934 C127.1731,139.7934 129.7221,136.4624 132.6791,133.5004 C138.6021,127.5664 146.0361,123.2764 154.1791,121.0944 L154.1531,120.9984 C145.9931,123.1844 138.5431,127.4834 132.6081,133.4304 C129.6451,136.3984 127.0911,139.7364 125.0031,143.3434 L114.6981,137.3944 C114.9511,136.9614 115.2331,136.5294 115.5391,136.1104 L115.6221,135.9964 L113.3371,136.6084 L103.0071,130.6444 C106.2011,125.1204 110.1091,120.0104 114.6451,115.4664 C119.1071,110.9964 124.1291,107.1224 129.5721,103.9504 C135.1861,100.6804 141.2441,98.1614 147.5791,96.4634 C153.7911,94.7994 160.1641,93.9534 166.5391,93.9454 L166.5391,107.3564 Z M168.0391,119.4294 C167.5671,119.3834 167.0941,119.3594 166.6391,119.3594 C166.6231,119.3594 166.6051,119.3584 166.5891,119.3584 C166.5721,119.3584 166.5561,119.3594 166.5391,119.3594 C166.0801,119.3614 165.6091,119.3854 165.1371,119.4314 L166.5391,118.0294 L166.5891,117.9794 L166.6391,118.0294 L168.0391,119.4294 Z M200.5701,133.4294 C194.6091,127.4804 187.1601,123.1794 179.0271,120.9914 L179.0011,121.0884 C187.1171,123.2714 194.5511,127.5634 200.4991,133.5004 C203.4591,136.4544 206.0091,139.7844 208.0931,143.3904 L200.3821,147.8434 C200.1081,147.4034 199.6221,147.1094 199.0671,147.1094 C198.2121,147.1094 197.5171,147.8054 197.5171,148.6594 C197.5171,148.9244 197.5831,149.1724 197.7011,149.3904 L191.2911,153.0914 C190.0521,150.9514 188.5371,148.9744 186.7801,147.2204 C183.2381,143.6854 178.8121,141.1294 173.9791,139.8304 C171.5821,139.1854 169.1121,138.8614 166.6391,138.8584 L166.6391,129.9584 C169.8881,129.9604 173.1331,130.3844 176.2831,131.2324 C182.6221,132.9364 188.4281,136.2894 193.0741,140.9264 L193.1451,140.8554 C188.4861,136.2064 182.6651,132.8444 176.3091,131.1354 C173.1501,130.2854 169.8971,129.8604 166.6391,129.8584 L166.6391,119.4594 C167.1371,119.4614 167.6531,119.4884 168.1681,119.5424 L168.3091,119.5574 L166.6391,117.8884 L166.6391,107.4564 C171.8511,107.4574 177.0551,108.1364 182.1071,109.4954 C192.2541,112.2244 201.5491,117.5914 208.9861,125.0144 C212.6891,128.7104 215.8801,132.8774 218.4861,137.3904 L208.1801,143.3404 C206.0921,139.7274 203.5361,136.3894 200.5701,133.4294 L200.5701,133.4294 Z M197.6171,148.6594 C197.6171,147.8604 198.2671,147.2104 199.0671,147.2104 C199.5841,147.2104 200.0391,147.4834 200.2951,147.8934 C200.3131,147.9214 200.3301,147.9494 200.3461,147.9784 C200.4551,148.1824 200.5171,148.4134 200.5171,148.6594 C200.5171,149.4594 199.8661,150.1094 199.0671,150.1094 C198.5491,150.1094 198.0951,149.8364 197.8381,149.4264 C197.8211,149.3984 197.8031,149.3704 197.7871,149.3404 C197.6791,149.1374 197.6171,148.9054 197.6171,148.6594 L197.6171,148.6594 Z M191.2901,181.7304 C191.2991,181.7154 191.3081,181.7014 191.3161,181.6874 C191.3241,181.6724 191.3321,181.6574 191.3401,181.6434 C191.5681,181.2444 191.7831,180.8254 191.9791,180.3924 L192.4921,182.3084 L192.5101,182.3764 L192.4421,182.3944 L190.5301,182.9074 C190.8051,182.5214 191.0601,182.1264 191.2901,181.7304 L191.2901,181.7304 Z M166.6391,195.9624 C169.1051,195.9564 171.5741,195.6324 173.9781,194.9884 C178.8271,193.6894 183.2531,191.1344 186.7801,187.6014 L186.7091,187.5304 C183.1951,191.0514 178.7841,193.5974 173.9521,194.8914 C171.5571,195.5334 169.0961,195.8574 166.6391,195.8624 L166.6391,189.9564 C167.4701,189.9294 168.1391,189.2464 168.1391,188.4094 C168.1391,187.5714 167.4701,186.8884 166.6391,186.8614 L166.6391,182.4614 C167.9351,182.4584 169.2281,182.2884 170.4851,181.9504 C173.0321,181.2654 175.3651,179.9184 177.2321,178.0544 C178.1531,177.1354 178.9471,176.1004 179.5981,174.9794 L184.7061,177.9284 C183.7981,179.4924 182.6901,180.9394 181.4051,182.2264 C178.8171,184.8194 175.5691,186.6934 172.0111,187.6474 L172.0371,187.7434 C175.6121,186.7854 178.8751,184.9024 181.4761,182.2974 C182.7671,181.0034 183.8801,179.5494 184.7921,177.9784 L191.2041,181.6804 C190.9521,182.1124 190.6711,182.5434 190.3671,182.9624 L190.2841,183.0764 L192.5651,182.4654 L198.9951,186.1784 C197.3691,188.9864 195.3811,191.5844 193.0741,193.8954 C188.4481,198.5304 182.6411,201.8804 176.2821,203.5844 C173.1231,204.4314 169.8791,204.8574 166.6391,204.8634 L166.6391,195.9624 Z M165.1391,188.4094 C165.1391,187.6264 165.7631,186.9884 166.5391,186.9614 C166.5561,186.9604 166.5721,186.9584 166.5891,186.9584 C166.6061,186.9584 166.6221,186.9604 166.6391,186.9614 C167.4151,186.9884 168.0391,187.6264 168.0391,188.4094 C168.0391,189.1914 167.4151,189.8294 166.6391,189.8564 C166.6221,189.8574 166.6061,189.8584 166.5891,189.8584 C166.5721,189.8584 166.5561,189.8574 166.5391,189.8564 C165.7631,189.8294 165.1391,189.1914 165.1391,188.4094 L165.1391,188.4094 Z M148.3831,177.9794 C149.2961,179.5534 150.4101,181.0074 151.7021,182.2974 C154.3141,184.9044 157.5771,186.7884 161.1401,187.7464 L161.1661,187.6494 C157.6201,186.6964 154.3721,184.8214 151.7731,182.2264 C150.4871,180.9424 149.3781,179.4964 148.4701,177.9294 L152.3081,175.7134 L154.5891,176.3244 L154.5061,176.2104 C154.2011,175.7914 153.9201,175.3594 153.6691,174.9274 L157.4801,172.7274 C159.3051,175.8424 162.6801,177.9424 166.5391,177.9604 L166.5391,182.3614 C165.2561,182.3564 163.9711,182.1864 162.7201,181.8514 C160.1811,181.1714 157.8631,179.8334 156.0161,177.9834 L155.9461,178.0544 C157.8051,179.9164 160.1381,181.2634 162.6941,181.9484 C163.9541,182.2854 165.2471,182.4564 166.5391,182.4614 L166.5391,186.8614 C165.7081,186.8884 165.0391,187.5714 165.0391,188.4094 C165.0391,189.2464 165.7081,189.9294 166.5391,189.9564 L166.5391,195.8634 C164.0751,195.8604 161.6141,195.5374 159.2251,194.8954 C154.4091,193.6004 149.9981,191.0534 146.4691,187.5304 C144.7181,185.7834 143.2081,183.8134 141.9741,181.6804 L148.3831,177.9794 Z M141.8911,153.0944 C141.8831,153.1084 141.8741,153.1224 141.8661,153.1374 C141.8581,153.1514 141.8501,153.1664 141.8411,153.1804 C141.6131,153.5774 141.3991,153.9964 141.2021,154.4274 L140.6901,152.5154 L140.6711,152.4474 L140.7401,152.4294 L142.6551,151.9154 C142.3791,152.3014 142.1231,152.6974 141.8911,153.0944 L141.8911,153.0944 Z M154.3431,176.1554 L152.4311,175.6424 L152.3631,175.6244 L152.3811,175.5564 L152.8941,173.6404 C153.0901,174.0734 153.3051,174.4924 153.5331,174.8914 C153.5411,174.9054 153.5491,174.9204 153.5571,174.9354 C153.5651,174.9494 153.5741,174.9634 153.5831,174.9774 C153.8121,175.3734 154.0671,175.7694 154.3431,176.1554 L154.3431,176.1554 Z M152.9281,173.4714 L152.8711,173.3424 L152.2591,175.6274 L148.4201,177.8434 C147.5221,176.2774 146.8241,174.5934 146.3531,172.8334 C145.4001,169.2754 145.3991,165.5254 146.3501,161.9884 C146.8221,160.2314 147.5221,158.5474 148.4221,156.9804 L153.5301,159.9294 C152.8881,161.0504 152.3891,162.2564 152.0521,163.5154 C151.3671,166.0714 151.3661,168.7654 152.0501,171.3064 L152.1461,171.2804 C151.4681,168.7564 151.4681,166.0804 152.1481,163.5414 C152.4841,162.2904 152.9791,161.0934 153.6171,159.9794 L157.4291,162.1804 C156.5451,163.7224 156.0391,165.5084 156.0391,167.4104 C156.0391,169.3134 156.5451,171.0984 157.4291,172.6414 L153.6191,174.8414 C153.3711,174.4064 153.1381,173.9464 152.9281,173.4714 L152.9281,173.4714 Z M178.8351,158.6634 L180.7511,159.1774 L180.8191,159.1954 L180.8011,159.2634 L180.2881,161.1754 C180.0921,160.7434 179.8771,160.3254 179.6491,159.9284 C179.6411,159.9144 179.6331,159.8994 179.6241,159.8844 C179.6161,159.8704 179.6071,159.8564 179.5991,159.8414 C179.3671,159.4444 179.1111,159.0494 178.8351,158.6634 L178.8351,158.6634 Z M179.5121,174.9294 C178.8651,176.0424 178.0761,177.0704 177.1621,177.9834 C175.3071,179.8344 172.9891,181.1734 170.4591,181.8534 C169.2111,182.1894 167.9261,182.3584 166.6391,182.3614 L166.6391,177.9604 C170.4981,177.9424 173.8731,175.8424 175.6981,172.7274 L179.5121,174.9294 Z M181.0301,171.2804 C180.6941,172.5314 180.1991,173.7284 179.5621,174.8424 L175.7491,172.6414 C176.6331,171.0984 177.1391,169.3134 177.1391,167.4104 C177.1391,165.5084 176.6331,163.7224 175.7491,162.1804 L179.5621,159.9784 C179.8111,160.4114 180.0441,160.8704 180.2551,161.3444 L180.3121,161.4734 L180.9231,159.1924 L184.7581,156.9784 C185.6561,158.5444 186.3531,160.2284 186.8251,161.9884 C187.7781,165.5464 187.7791,169.2964 186.8281,172.8334 C186.3551,174.5904 185.6561,176.2744 184.7561,177.8414 L179.6481,174.8924 C180.2901,173.7714 180.7891,172.5664 181.1261,171.3064 C181.8111,168.7504 181.8121,166.0564 181.1281,163.5154 L181.0321,163.5414 C181.7111,166.0654 181.7101,168.7414 181.0301,171.2804 L181.0301,171.2804 Z M166.5891,144.9584 C166.6061,144.9584 166.6221,144.9604 166.6391,144.9614 C167.4151,144.9884 168.0391,145.6264 168.0391,146.4094 C168.0391,147.1914 167.4151,147.8294 166.6391,147.8564 C166.6221,147.8574 166.6061,147.8584 166.5891,147.8584 C166.5721,147.8584 166.5561,147.8574 166.5391,147.8564 C165.7631,147.8294 165.1391,147.1914 165.1391,146.4094 C165.1391,145.6264 165.7631,144.9884 166.5391,144.9614 C166.5561,144.9604 166.5721,144.9584 166.5891,144.9584 L166.5891,144.9584 Z M166.5391,138.8594 C164.0731,138.8644 161.6041,139.1894 159.2001,139.8334 C154.3521,141.1324 149.9251,143.6874 146.3981,147.2204 L146.4691,147.2914 C149.9831,143.7704 154.3951,141.2244 159.2261,139.9304 C161.6211,139.2884 164.0821,138.9644 166.5391,138.9594 L166.5391,144.8614 C165.7081,144.8884 165.0391,145.5714 165.0391,146.4094 C165.0391,147.2464 165.7081,147.9294 166.5391,147.9564 L166.5391,151.2124 C166.5561,151.2124 166.5721,151.2114 166.5891,151.2114 C166.6061,151.2114 166.6221,151.2124 166.6391,151.2124 L166.6391,147.9564 C167.4701,147.9294 168.1391,147.2464 168.1391,146.4094 C168.1391,145.5714 167.4701,144.8884 166.6391,144.8614 L166.6391,138.9584 C169.1031,138.9614 171.5641,139.2844 173.9531,139.9264 C178.7691,141.2214 183.1801,143.7684 186.7091,147.2914 C188.4601,149.0384 189.9701,151.0084 191.2041,153.1414 L184.7951,156.8424 C183.8831,155.2684 182.7681,153.8144 181.4761,152.5244 C178.8641,149.9174 175.6011,148.0334 172.0381,147.0754 L172.0121,147.1724 C175.5581,148.1254 178.8061,150.0014 181.4051,152.5954 C182.6911,153.8784 183.8001,155.3254 184.7081,156.8924 L180.8731,159.1064 L178.5881,158.4944 L178.6721,158.6084 C178.9771,159.0274 179.2601,159.4584 179.5121,159.8914 L175.6981,162.0944 C174.9591,160.8324 173.9661,159.7384 172.7891,158.8804 L172.7891,158.9364 L172.7891,159.0044 C173.9291,159.8474 174.8921,160.9164 175.6111,162.1444 C175.6281,162.1724 175.6451,162.2014 175.6621,162.2304 C176.5381,163.7584 177.0391,165.5274 177.0391,167.4104 C177.0391,169.2944 176.5381,171.0634 175.6621,172.5914 C175.6451,172.6204 175.6281,172.6494 175.6121,172.6774 C173.8041,175.7624 170.4611,177.8424 166.6391,177.8604 L166.5891,177.8604 L166.5391,177.8604 C162.7171,177.8424 159.3741,175.7624 157.5671,172.6774 C157.5501,172.6494 157.5331,172.6204 157.5161,172.5914 C156.6401,171.0634 156.1391,169.2944 156.1391,167.4104 C156.1391,165.5274 156.6401,163.7584 157.5161,162.2304 C157.5331,162.2014 157.5501,162.1724 157.5671,162.1444 C158.2861,160.9164 159.2491,159.8474 160.3891,159.0044 L160.3891,158.9364 L160.3891,158.8804 C159.2121,159.7384 158.2191,160.8324 157.4801,162.0944 L153.6661,159.8924 C154.3131,158.7794 155.1021,157.7514 156.0161,156.8384 C157.7151,155.1424 159.8031,153.8794 162.0861,153.1554 C162.1351,153.1044 162.1831,153.0534 162.2341,153.0034 C159.8661,153.7224 157.7001,155.0164 155.9461,156.7674 C155.0251,157.6864 154.2311,158.7224 153.5801,159.8424 L148.4721,156.8934 C149.3801,155.3294 150.4881,153.8824 151.7731,152.5954 C154.3611,150.0024 157.6091,148.1284 161.1671,147.1744 L161.1411,147.0784 C157.5661,148.0364 154.3021,149.9194 151.7021,152.5244 C150.4111,153.8184 149.2981,155.2724 148.3861,156.8434 L141.9781,153.1444 C142.2311,152.7114 142.5131,152.2794 142.8181,151.8604 L142.9021,151.7464 L140.6171,152.3584 L134.1831,148.6434 C135.8091,145.8354 137.7981,143.2374 140.1041,140.9264 C144.7301,136.2914 150.5371,132.9414 156.8961,131.2374 C160.0551,130.3904 163.2991,129.9644 166.5391,129.9584 L166.5391,138.8594 Z M135.5651,186.1594 C135.5651,186.9594 134.9141,187.6094 134.1151,187.6094 C133.5971,187.6094 133.1431,187.3364 132.8861,186.9264 C132.8691,186.8984 132.8511,186.8704 132.8351,186.8404 C132.7271,186.6374 132.6651,186.4064 132.6651,186.1594 C132.6651,185.3604 133.3151,184.7104 134.1151,184.7104 C134.6331,184.7104 135.0871,184.9834 135.3431,185.3934 C135.3611,185.4214 135.3781,185.4494 135.3941,185.4794 C135.5031,185.6824 135.5651,185.9134 135.5651,186.1594 L135.5651,186.1594 Z M139.0081,160.0204 C137.7111,164.8414 137.7131,169.9524 139.0121,174.8004 C139.6561,177.2044 140.6091,179.5054 141.8371,181.6434 L135.4301,185.3434 C135.1561,184.9034 134.6701,184.6094 134.1151,184.6094 C133.2601,184.6094 132.5651,185.3054 132.5651,186.1594 C132.5651,186.4244 132.6321,186.6734 132.7491,186.8904 L125.0351,191.3444 C122.9651,187.7444 121.3581,183.8704 120.2731,179.8214 C118.0911,171.6784 118.0891,163.0954 120.2671,154.9984 C121.3531,150.9574 122.9641,147.0844 125.0401,143.4804 L134.0461,148.6804 C132.4231,151.5004 131.1641,154.5294 130.3141,157.6914 C128.6081,164.0314 128.6101,170.7534 130.3191,177.1294 L130.4151,177.1034 C128.7111,170.7444 128.7091,164.0404 130.4101,157.7164 C131.2581,154.5634 132.5141,151.5424 134.1331,148.7304 L140.5671,152.4444 L141.1781,154.7254 L141.2361,154.5964 C141.4461,154.1224 141.6791,153.6634 141.9281,153.2304 L148.3361,156.9304 C147.4311,158.5054 146.7281,160.1964 146.2541,161.9614 C145.2981,165.5164 145.2991,169.2844 146.2561,172.8594 C146.7301,174.6274 147.4311,176.3194 148.3331,177.8934 L141.9241,181.5934 C140.7001,179.4624 139.7501,177.1704 139.1081,174.7744 C137.8141,169.9434 137.8131,164.8504 139.1051,160.0464 L139.0081,160.0204 Z M202.7681,177.1054 C201.9201,180.2584 200.6641,183.2794 199.0451,186.0914 L192.6141,182.3794 L192.0021,180.0944 L191.9451,180.2234 C191.7351,180.6984 191.5021,181.1584 191.2541,181.5934 L184.8431,177.8914 C185.7471,176.3164 186.4501,174.6254 186.9251,172.8594 C187.8811,169.3054 187.8801,165.5374 186.9221,161.9624 C186.4481,160.1944 185.7471,158.5024 184.8441,156.9284 L191.2541,153.2284 C192.4781,155.3594 193.4281,157.6514 194.0701,160.0474 C195.3641,164.8784 195.3651,169.9714 194.0731,174.7754 L194.1701,174.8014 C195.4671,169.9804 195.4651,164.8694 194.1661,160.0214 C193.5221,157.6174 192.5691,155.3164 191.3411,153.1784 L197.7521,149.4764 C198.0261,149.9164 198.5121,150.2104 199.0671,150.2104 C199.9211,150.2104 200.6171,149.5144 200.6171,148.6594 C200.6171,148.3954 200.5501,148.1464 200.4331,147.9284 L208.1431,143.4774 C210.2131,147.0774 211.8201,150.9514 212.9051,155.0004 C215.0871,163.1434 215.0891,171.7264 212.9121,179.8234 C211.8241,183.8644 210.2141,187.7374 208.1381,191.3414 L199.1321,186.1414 C200.7551,183.3214 202.0141,180.2924 202.8641,177.1304 C204.5701,170.7904 204.5681,164.0684 202.8601,157.6924 L202.7631,157.7184 C204.4671,164.0774 204.4691,170.7814 202.7681,177.1054 L202.7681,177.1054 Z M93.1221,167.0834 C93.1471,160.7844 93.9921,154.4974 95.6321,148.3984 C97.2991,142.1984 99.7711,136.2584 102.9571,130.7304 L113.2871,136.6944 L113.8981,138.9754 L113.9561,138.8464 C114.1661,138.3724 114.3991,137.9144 114.6481,137.4804 L124.9531,143.4304 C122.8731,147.0424 121.2591,150.9224 120.1701,154.9724 C117.9881,163.0864 117.9901,171.6874 120.1761,179.8474 C121.2641,183.9044 122.8741,187.7864 124.9481,191.3944 L114.6421,197.3454 C112.0501,192.8404 110.0391,187.9934 108.6821,182.9274 C105.9541,172.7464 105.9511,162.0154 108.6741,151.8924 L108.5771,151.8664 C105.8501,162.0064 105.8531,172.7554 108.5851,182.9534 C109.9451,188.0284 111.9591,192.8834 114.5551,197.3944 L102.9571,204.0914 C102.7081,203.6554 102.4751,203.1954 102.2661,202.7214 L102.2081,202.5924 L101.5961,204.8774 L89.9471,211.6024 C86.1161,204.9514 83.1581,197.7874 81.1531,190.3034 C79.1091,182.6744 78.0881,174.8404 78.1191,167.0164 C78.1491,159.4304 79.1661,151.8604 81.1411,144.5154 C83.1501,137.0454 86.1271,129.8894 89.9671,123.2314 L102.8711,130.6804 C99.6801,136.2154 97.2051,142.1634 95.5351,148.3724 C93.8931,154.4794 93.0471,160.7744 93.0221,167.0824 C92.9971,173.5884 93.8451,180.1034 95.5451,186.4474 L95.6421,186.4214 C93.9441,180.0864 93.0971,173.5804 93.1221,167.0834 L93.1221,167.0834 Z M147.5501,238.4644 C153.6581,240.1074 159.9531,240.9524 166.2611,240.9774 C166.3541,240.9784 166.4461,240.9784 166.5391,240.9784 L166.5391,255.8584 C166.0381,255.8564 165.5231,255.8274 165.0071,255.7724 L164.8661,255.7564 L166.5391,257.4294 L166.5391,272.3854 L166.5301,272.3854 C166.3941,272.3854 166.2571,272.3854 166.1211,272.3844 C157.1201,272.3494 148.1371,271.1424 139.4221,268.7984 C121.6581,264.0214 105.3871,254.6274 92.3681,241.6314 C85.9801,235.2564 80.4441,228.0804 75.9131,220.3034 C75.8431,220.1824 75.7741,220.0614 75.7041,219.9414 L89.9101,211.7394 C89.9681,211.8384 90.0251,211.9384 90.0831,212.0384 C93.9061,218.6004 98.5771,224.6544 103.9661,230.0334 C114.9511,240.9984 128.6791,248.9244 143.6671,252.9554 L143.6931,252.8584 C128.7221,248.8324 115.0091,240.9154 104.0371,229.9634 C98.6541,224.5904 93.9881,218.5424 90.1691,211.9874 C90.1111,211.8884 90.0541,211.7884 89.9971,211.6894 L101.6461,204.9634 L103.9261,205.5744 L103.8431,205.4604 C103.5391,205.0414 103.2581,204.6094 103.0071,204.1774 L114.6051,197.4814 C117.2161,202.0024 120.4121,206.1764 124.1221,209.8784 C131.5711,217.3144 140.8811,222.6894 151.0451,225.4224 C156.1061,226.7844 161.3191,227.4654 166.5391,227.4664 L166.5391,240.8784 C166.4471,240.8784 166.3541,240.8784 166.2611,240.8774 C159.9621,240.8524 153.6761,240.0084 147.5761,238.3684 C135.1441,235.0244 123.7561,228.4494 114.6451,219.3554 L114.5741,219.4254 C123.6981,228.5324 135.1011,235.1164 147.5501,238.4644 L147.5501,238.4644 Z M240.0561,167.7384 C240.0311,174.0374 239.1871,180.3244 237.5461,186.4234 C235.8791,192.6234 233.4071,198.5634 230.2211,204.0914 L219.8941,198.1294 L219.2821,195.8444 L219.2251,195.9734 C219.0151,196.4484 218.7821,196.9084 218.5331,197.3434 L208.2251,191.3914 C210.3051,187.7794 211.9191,183.8994 213.0081,179.8484 C215.1901,171.7354 215.1881,163.1344 213.0021,154.9744 C211.9151,150.9174 210.3041,147.0354 208.2291,143.4274 L218.5361,137.4774 C221.1281,141.9814 223.1391,146.8284 224.4961,151.8944 C227.2241,162.0744 227.2271,172.8064 224.5041,182.9294 L224.6011,182.9554 C227.3281,172.8154 227.3251,162.0664 224.5931,151.8684 C223.2331,146.7934 221.2191,141.9384 218.6231,137.4274 L230.2251,130.7284 C230.4731,131.1614 230.7061,131.6204 230.9171,132.0944 L230.9751,132.2234 L231.5861,129.9424 L243.2311,123.2194 C247.0621,129.8714 250.0201,137.0344 252.0251,144.5184 C254.0691,152.1464 255.0901,159.9814 255.0591,167.8054 C255.0291,175.3914 254.0121,182.9614 252.0371,190.3064 C250.0281,197.7754 247.0511,204.9314 243.2111,211.5904 L230.3071,204.1414 C233.4981,198.6064 235.9731,192.6584 237.6431,186.4494 C239.2851,180.3424 240.1311,174.0464 240.1561,167.7394 C240.1811,161.2334 239.3331,154.7184 237.6331,148.3744 L237.5361,148.4004 C239.2341,154.7354 240.0811,161.2414 240.0561,167.7384 L240.0561,167.7384 Z M165.1371,23.4314 L166.5391,22.0294 L166.5891,21.9794 L166.6391,22.0294 L168.0391,23.4294 C167.5671,23.3834 167.0941,23.3594 166.6391,23.3594 C166.6231,23.3594 166.6051,23.3584 166.5891,23.3584 C166.5721,23.3584 166.5561,23.3594 166.5391,23.3594 C166.0801,23.3614 165.6091,23.3854 165.1371,23.4314 L165.1371,23.4314 Z M310.8271,250.6874 C311.0641,250.2754 311.2871,249.8404 311.4901,249.3924 L312.0221,251.3764 L310.0411,251.9074 C310.3271,251.5074 310.5911,251.0974 310.8271,250.6874 L310.8271,250.6874 Z M22.3541,84.1374 C22.1171,84.5464 21.8941,84.9804 21.6901,85.4274 L21.1601,83.4474 L23.1441,82.9154 C22.8571,83.3154 22.5921,83.7254 22.3541,84.1374 L22.3541,84.1374 Z M327.4641,124.3044 C323.6151,109.9404 317.9031,96.2024 310.4871,83.4734 C303.2961,71.1314 294.5101,59.7434 284.3741,49.6264 C263.7131,29.0034 237.8911,14.0954 209.7011,6.5134 C195.8711,2.7944 181.6161,0.8794 167.3321,0.8234 C152.6011,0.7674 137.8471,2.6874 123.4831,6.5364 C109.1181,10.3854 95.3811,16.0974 82.6521,23.5134 C70.3101,30.7044 58.9221,39.4894 48.8041,49.6264 L48.8751,49.6964 C58.9861,39.5664 70.3671,30.7864 82.7021,23.5994 C95.4231,16.1874 109.1531,10.4794 123.5091,6.6324 C137.6071,2.8554 152.0781,0.9374 166.5391,0.9234 L166.5391,21.8884 L164.8661,23.5604 L165.0071,23.5454 C165.5231,23.4904 166.0381,23.4614 166.5391,23.4594 L166.5391,44.3334 C155.8521,44.3434 145.1591,45.7624 134.7411,48.5534 C124.1291,51.3974 113.9791,55.6174 104.5751,61.0964 C95.4561,66.4094 87.0421,72.9004 79.5671,80.3894 C71.9611,88.0104 65.4071,96.5804 60.0541,105.8454 L41.9541,95.3954 C48.2181,84.5544 55.8871,74.5254 64.7871,65.6084 C73.5311,56.8474 83.3741,49.2544 94.0411,43.0394 C105.0431,36.6294 116.9171,31.6924 129.3321,28.3664 L129.3061,28.2694 C116.8821,31.5984 105.0011,36.5384 93.9911,42.9534 C83.3161,49.1724 73.4671,56.7714 64.7161,65.5384 C55.8101,74.4614 48.1361,84.4974 41.8681,95.3454 L22.4671,84.1444 C22.7191,83.7114 23.0011,83.2794 23.3071,82.8604 L23.3901,82.7464 L21.0371,83.3764 L21.6671,85.7254 L21.7241,85.5964 C21.9351,85.1224 22.1681,84.6644 22.4161,84.2304 L41.8181,95.4314 C35.5571,106.2844 30.7031,117.9484 27.4281,130.1234 C24.2111,142.0844 22.5551,154.4144 22.5061,166.7684 C22.4561,179.5104 24.1181,192.2704 27.4471,204.6934 C30.7161,216.8924 35.5391,228.5684 41.7851,239.4094 L22.3821,250.6114 C15.1631,238.0834 9.5881,224.5894 5.8111,210.4914 C1.9641,196.1354 0.0431,181.3914 0.1011,166.6684 C0.1571,152.3934 2.0711,138.1464 5.7891,124.3244 L5.6921,124.2984 C1.9721,138.1284 0.0581,152.3844 0.0011,166.6684 C-0.0569,181.3994 1.8651,196.1524 5.7141,210.5174 C9.5631,224.8814 15.2751,238.6194 22.6911,251.3484 C29.8821,263.6904 38.6681,275.0784 48.8041,285.1954 C69.4651,305.8184 95.2861,320.7264 123.4771,328.3084 C137.3071,332.0274 151.5621,333.9424 165.8461,333.9984 C166.0631,333.9994 166.2781,334.0004 166.4951,334.0004 C181.0111,334.0004 195.5421,332.0784 209.6951,328.2854 C224.0601,324.4374 237.7971,318.7254 250.5261,311.3084 C262.8681,304.1184 274.2561,295.3324 284.3741,285.1954 L284.3031,285.1254 C274.1921,295.2554 262.8111,304.0354 250.4761,311.2224 C237.7541,318.6344 224.0251,324.3424 209.6701,328.1894 C195.5711,331.9664 181.0961,333.8874 166.6391,333.8984 L166.6391,312.9294 L168.3091,311.2604 L168.1681,311.2744 C167.6531,311.3294 167.1391,311.3574 166.6391,311.3584 L166.6391,290.4894 C177.3241,290.4784 188.0191,289.0594 198.4371,286.2684 C209.0491,283.4244 219.1991,279.2044 228.6031,273.7254 C237.7221,268.4124 246.1351,261.9214 253.6101,254.4324 C261.2171,246.8114 267.7711,238.2414 273.1241,228.9764 L291.2241,239.4264 C284.9601,250.2674 277.2911,260.2964 268.3911,269.2124 C259.6461,277.9744 249.8041,285.5674 239.1361,291.7824 C228.1351,298.1924 216.2611,303.1294 203.8461,306.4564 L203.8721,306.5524 C216.2961,303.2234 228.1771,298.2834 239.1871,291.8684 C249.8611,285.6494 259.7111,278.0504 268.4621,269.2834 C277.3681,260.3604 285.0421,250.3244 291.3101,239.4764 L310.7151,250.6804 C310.4641,251.1124 310.1831,251.5434 309.8791,251.9624 L309.7951,252.0764 L312.1441,251.4474 L311.5141,249.0944 L311.4571,249.2234 C311.2461,249.6984 311.0141,250.1584 310.7651,250.5934 L291.3601,239.3894 C297.6211,228.5374 302.4751,216.8734 305.7501,204.6994 C308.9671,192.7374 310.6231,180.4074 310.6721,168.0534 C310.7221,155.3114 309.0601,142.5514 305.7311,130.1284 C302.4621,117.9294 297.6391,106.2534 291.3931,95.4134 L310.7961,84.2104 C318.0151,96.7394 323.5901,110.2324 327.3671,124.3304 C331.2141,138.6864 333.1351,153.4304 333.0771,168.1534 C333.0201,182.4284 331.1071,196.6754 327.3891,210.4974 L327.4861,210.5234 C331.2061,196.6924 333.1201,182.4374 333.1771,168.1534 C333.2351,153.4214 331.3131,138.6694 327.4641,124.3044 L327.4641,124.3044 Z" id="Fill-9"></path>
            </g>
            <path d="M174.4092,162.9536 C174.3932,162.9246 174.3762,162.8956 174.3592,162.8676 C173.9302,162.1346 173.4002,161.4686 172.7892,160.8876 L172.7892,159.0046 L172.7892,158.9366 L172.7892,158.8806 L172.7892,157.4106 C172.7892,155.7656 172.1432,154.2686 171.0942,153.1576 C171.0452,153.1066 170.9972,153.0556 170.9472,153.0056 C169.8372,151.9076 168.3162,151.2256 166.6392,151.2126 C166.6222,151.2116 166.6062,151.2106 166.5892,151.2106 L166.5892,152.3596 L166.5892,152.4596 L166.5892,153.6106 C166.6062,153.6106 166.6222,153.6116 166.6392,153.6126 C168.7112,153.6396 170.3892,155.3326 170.3892,157.4106 L170.3892,157.5696 L170.3892,157.6206 L170.3892,157.6766 L170.3892,159.2506 C169.2492,158.7186 167.9782,158.4186 166.6392,158.4116 C166.6222,158.4116 166.6062,158.4106 166.5892,158.4106 L166.5892,159.7606 C166.6062,159.7606 166.6222,159.7616 166.6392,159.7616 C167.2862,159.7646 167.9372,159.8526 168.5692,160.0226 C169.2072,160.1946 169.8192,160.4476 170.3892,160.7746 C170.9752,161.1096 171.5172,161.5226 171.9982,162.0026 L171.7862,162.2146 C171.3652,161.7946 170.8952,161.4286 170.3892,161.1226 C169.7992,160.7666 169.1602,160.4926 168.4912,160.3126 C167.8842,160.1496 167.2622,160.0656 166.6392,160.0616 C166.6242,160.0616 166.6082,160.0606 166.5932,160.0606 L166.5892,160.0606 L166.5892,159.9386 L166.5892,159.7606 C166.5722,159.7606 166.5552,159.7616 166.5392,159.7616 C165.8872,159.7656 165.2382,159.8526 164.6092,160.0216 C163.9702,160.1926 163.3582,160.4466 162.7892,160.7726 C162.2022,161.1086 161.6602,161.5216 161.1802,162.0026 C160.8912,162.2916 160.6272,162.6036 160.3892,162.9336 C160.2472,163.1306 160.1142,163.3346 159.9912,163.5446 C159.9752,163.5726 159.9582,163.6016 159.9412,163.6306 C159.6202,164.1946 159.3702,164.7996 159.2012,165.4306 C159.0262,166.0786 158.9382,166.7456 158.9382,167.4106 C158.9392,168.0796 159.0272,168.7456 159.2002,169.3906 L159.4892,169.3136 C159.3232,168.6936 159.2392,168.0536 159.2382,167.4106 C159.2382,166.7716 159.3232,166.1316 159.4902,165.5086 C159.6532,164.9036 159.8932,164.3226 160.2012,163.7806 C160.2182,163.7516 160.2342,163.7226 160.2512,163.6936 C160.2962,163.6186 160.3422,163.5436 160.3892,163.4686 C160.6762,163.0166 161.0122,162.5956 161.3922,162.2146 C161.8132,161.7926 162.2832,161.4266 162.7892,161.1206 C163.3782,160.7646 164.0172,160.4906 164.6872,160.3116 C165.2902,160.1496 165.9132,160.0656 166.5392,160.0616 C166.5552,160.0616 166.5722,160.0606 166.5892,160.0606 L166.5892,163.6606 C166.6062,163.6606 166.6222,163.6616 166.6392,163.6616 C167.9852,163.6796 169.1632,164.4106 169.8102,165.4936 C169.8272,165.5216 169.8442,165.5506 169.8602,165.5796 C170.1642,166.1216 170.3392,166.7466 170.3392,167.4106 C170.3392,168.0756 170.1642,168.6996 169.8602,169.2416 C169.8442,169.2706 169.8272,169.2996 169.8102,169.3286 C169.1632,170.4116 167.9852,171.1416 166.6392,171.1596 C166.6222,171.1596 166.6062,171.1606 166.5892,171.1606 L166.5892,174.7616 C166.6062,174.7616 166.6222,174.7606 166.6392,174.7606 C167.2642,174.7556 167.8882,174.6726 168.4912,174.5106 C169.7372,174.1766 170.8762,173.5186 171.7852,172.6076 C172.2282,172.1636 172.6112,171.6656 172.9272,171.1276 C172.9432,171.0986 172.9602,171.0696 172.9772,171.0406 C173.2842,170.4996 173.5252,169.9186 173.6882,169.3126 C173.8552,168.6906 173.9402,168.0506 173.9392,167.4106 C173.9392,166.7686 173.8552,166.1286 173.6882,165.5086 L173.9782,165.4306 C174.1512,166.0766 174.2392,166.7426 174.2392,167.4106 C174.2402,168.0766 174.1512,168.7426 173.9772,169.3906 C173.8072,170.0216 173.5572,170.6266 173.2362,171.1906 C173.2202,171.2196 173.2032,171.2486 173.1862,171.2776 C172.8582,171.8376 172.4592,172.3566 171.9982,172.8196 C171.0512,173.7676 169.8662,174.4526 168.5692,174.8006 C167.9402,174.9686 167.2912,175.0556 166.6392,175.0606 C166.6222,175.0606 166.6062,175.0616 166.5892,175.0616 L166.5892,174.9396 L166.5892,174.7616 L166.5852,174.7616 C166.5692,174.7616 166.5542,174.7606 166.5392,174.7606 C165.9162,174.7566 165.2932,174.6726 164.6872,174.5096 C163.4432,174.1746 162.3042,173.5176 161.3922,172.6076 L161.1802,172.8196 C162.1292,173.7666 163.3152,174.4516 164.6092,174.7996 C165.2412,174.9696 165.8902,175.0566 166.5392,175.0606 C166.5542,175.0606 166.5692,175.0616 166.5852,175.0616 L166.5892,175.0616 L166.5892,176.4106 L166.6392,176.4106 C169.9312,176.3926 172.8042,174.6066 174.3592,171.9546 C174.3762,171.9256 174.3932,171.8976 174.4092,171.8686 C175.1602,170.5536 175.5892,169.0326 175.5892,167.4106 C175.5892,165.7896 175.1602,164.2676 174.4092,162.9536" id="Fill-12" fill="#D3E6FD" sketch:type="MSShapeGroup"></path>
            <path d="M168.839,167.411 C168.839,168.654 167.832,169.661 166.589,169.661 C165.346,169.661 164.339,168.654 164.339,167.411 C164.339,166.168 165.346,165.161 166.589,165.161 C167.832,165.161 168.839,166.168 168.839,167.411" id="Fill-14" fill="#F2F2F2" sketch:type="MSShapeGroup"></path>
        </g>
    </g>
</svg>