<svg id="Layer_1" data-name="Layer 1" xmlns="http://www.w3.org/2000/svg" xmlns:xlink="http://www.w3.org/1999/xlink" viewBox="0 0 1080 420"><defs><style>.cls-1{fill:#fff;}.cls-2{fill:#f7f7f7;}.cls-3{fill:#e6e6e6;}.cls-4{fill:#e8e8e8;}.cls-5{fill:url(#linear-gradient);}.cls-6{fill:#eee;}.cls-7{fill:url(#linear-gradient-2);}.cls-8{fill:url(#linear-gradient-3);}.cls-9{fill:url(#linear-gradient-4);}.cls-10{fill:url(#linear-gradient-5);}.cls-11{fill:url(#linear-gradient-6);}.cls-12{fill:#834eab;}.cls-13{fill:#e0e0e0;}.cls-14{fill:#e1e1e1;}.cls-15{fill:#f8f8f8;}.cls-16{fill:#7944a3;}.cls-17{fill:#60cd77;}.cls-18{fill:#6eb87e;}.cls-19{fill:#dff8e4;}.cls-20{fill:#0f0b08;opacity:0.7;isolation:isolate;}.cls-21{fill:#853cbe;}.cls-22{fill:#44275e;}.cls-23{fill:#231f20;}.cls-24{fill:none;}.cls-25{fill:#682f94;}.cls-26{fill:#351f49;}.cls-27{fill:#2f1244;}.cls-28{fill:#ccadd2;}</style><linearGradient id="linear-gradient" x1="178.69231" y1="-63.05556" x2="177.69231" y2="-63.05556" gradientTransform="translate(-13443 670) scale(78 9)" gradientUnits="userSpaceOnUse"><stop offset="0" stop-color="#e8e8e8" stop-opacity="0"/><stop offset="1" stop-color="#e8e8e8"/></linearGradient><linearGradient id="linear-gradient-2" x1="179" y1="-63.05556" x2="178" y2="-63.05556" gradientTransform="translate(-15603 765) scale(90 9)" xlink:href="#linear-gradient"/><linearGradient id="linear-gradient-3" x1="179.8" y1="-63.05556" x2="178.8" y2="-63.05556" gradientTransform="translate(-26403 786) scale(150 9)" xlink:href="#linear-gradient"/><linearGradient id="linear-gradient-4" x1="178" y1="-63.05556" x2="177" y2="-63.05556" gradientTransform="translate(-10203 818) scale(60 9)" xlink:href="#linear-gradient"/><linearGradient id="linear-gradient-5" x1="179.46154" y1="-63.05556" x2="178.46154" y2="-63.05556" gradientTransform="translate(-20331 670) scale(117 9)" xlink:href="#linear-gradient"/><linearGradient id="linear-gradient-6" x1="180.41748" y1="-63.05556" x2="179.41748" y2="-63.05556" gradientTransform="translate(-54697 670) scale(309 9)" xlink:href="#linear-gradient"/></defs><title>updates</title><rect id="Rectangle-326" class="cls-1" x="374" y="30" width="705" height="390"/><path class="cls-2" d="M390,265a2.00587,2.00587,0,0,1-2-2V181a2.00587,2.00587,0,0,1,2-2H659a2.00589,2.00589,0,0,1,2,2v82a2.00589,2.00589,0,0,1-2,2H390Z"/><path class="cls-3" d="M659,180a0.94478,0.94478,0,0,1,1,1v82a0.94478,0.94478,0,0,1-1,1H390a0.94477,0.94477,0,0,1-1-1V181a0.94477,0.94477,0,0,1,1-1H659m0-2H390a2.94645,2.94645,0,0,0-3,3v82a2.94644,2.94644,0,0,0,3,3H659a2.94644,2.94644,0,0,0,3-3V181a2.94645,2.94645,0,0,0-3-3h0Z"/><path class="cls-2" d="M692,119a2.00589,2.00589,0,0,1-2-2V87a2.00589,2.00589,0,0,1,2-2h360a2.00589,2.00589,0,0,1,2,2v30a2.00589,2.00589,0,0,1-2,2H692Z"/><path class="cls-3" d="M1052,86a0.94478,0.94478,0,0,1,1,1v30a0.94478,0.94478,0,0,1-1,1H692a0.94478,0.94478,0,0,1-1-1V87a0.94478,0.94478,0,0,1,1-1h360m0-2H692a2.94645,2.94645,0,0,0-3,3v30a2.94645,2.94645,0,0,0,3,3h360a2.94648,2.94648,0,0,0,3-3V87a2.94648,2.94648,0,0,0-3-3h0Z"/><path class="cls-2" d="M522,119a2.00589,2.00589,0,0,1-2-2V87a2.00589,2.00589,0,0,1,2-2H678a2.00589,2.00589,0,0,1,2,2v30a2.00589,2.00589,0,0,1-2,2H522Z"/><path class="cls-3" d="M678,86a0.94478,0.94478,0,0,1,1,1v30a0.94478,0.94478,0,0,1-1,1H522a0.94478,0.94478,0,0,1-1-1V87a0.94478,0.94478,0,0,1,1-1H678m0-2H522a2.94645,2.94645,0,0,0-3,3v30a2.94645,2.94645,0,0,0,3,3H678a2.94645,2.94645,0,0,0,3-3V87a2.94645,2.94645,0,0,0-3-3h0Z"/><path class="cls-2" d="M390,119a2.00587,2.00587,0,0,1-2-2V87a2.00587,2.00587,0,0,1,2-2H507a2.00589,2.00589,0,0,1,2,2v30a2.00589,2.00589,0,0,1-2,2H390Z"/><path class="cls-3" d="M507,86a0.94478,0.94478,0,0,1,1,1v30a0.94478,0.94478,0,0,1-1,1H390a0.94477,0.94477,0,0,1-1-1V87a0.94477,0.94477,0,0,1,1-1H507m0-2H390a2.94645,2.94645,0,0,0-3,3v30a2.94645,2.94645,0,0,0,3,3H507a2.94645,2.94645,0,0,0,3-3V87a2.94645,2.94645,0,0,0-3-3h0Z"/><rect id="Rectangle-2-Copy-18" class="cls-2" x="90" y="30" width="284" height="390"/><circle id="Oval-1-Copy-45" class="cls-4" cx="406.5" cy="102.5" r="4.5"/><path id="Rectangle-176-Copy-48" class="cls-5" d="M421.5,98h69a4.48129,4.48129,0,0,1,4.5,4.5h0a4.48129,4.48129,0,0,1-4.5,4.5h-69a4.48129,4.48129,0,0,1-4.5-4.5h0A4.48129,4.48129,0,0,1,421.5,98Z"/><path id="Rectangle-176-Copy-49" class="cls-6" d="M391.5,151h79a4.48129,4.48129,0,0,1,4.5,4.5h0a4.48129,4.48129,0,0,1-4.5,4.5h-79a4.48129,4.48129,0,0,1-4.5-4.5h0A4.48129,4.48129,0,0,1,391.5,151Z"/><path id="Rectangle-176-Copy-50" class="cls-7" d="M421.5,193h81a4.48129,4.48129,0,0,1,4.5,4.5h0a4.48129,4.48129,0,0,1-4.5,4.5h-81a4.48129,4.48129,0,0,1-4.5-4.5h0A4.48129,4.48129,0,0,1,421.5,193Z"/><path id="Rectangle-176-Copy-51" class="cls-4" d="M406.5,193h0a4.48129,4.48129,0,0,1,4.5,4.5h0a4.48129,4.48129,0,0,1-4.5,4.5h0a4.48129,4.48129,0,0,1-4.5-4.5h0A4.48129,4.48129,0,0,1,406.5,193Z"/><path id="Rectangle-176-Copy-52" class="cls-8" d="M421.5,214h141a4.48129,4.48129,0,0,1,4.5,4.5h0a4.48129,4.48129,0,0,1-4.5,4.5h-141a4.48129,4.48129,0,0,1-4.5-4.5h0A4.48129,4.48129,0,0,1,421.5,214Z"/><path id="Rectangle-176-Copy-53" class="cls-9" d="M421.5,246h51a4.48129,4.48129,0,0,1,4.5,4.5h0a4.48129,4.48129,0,0,1-4.5,4.5h-51a4.48129,4.48129,0,0,1-4.5-4.5h0A4.48129,4.48129,0,0,1,421.5,246Z"/><path id="Rectangle-176-Copy-54" class="cls-4" d="M627.5,246h15a4.48129,4.48129,0,0,1,4.5,4.5h0a4.48129,4.48129,0,0,1-4.5,4.5h-15a4.48129,4.48129,0,0,1-4.5-4.5h0A4.48129,4.48129,0,0,1,627.5,246Z"/><path id="Rectangle-176-Copy-55" class="cls-6" d="M694.5,151h63a4.48129,4.48129,0,0,1,4.5,4.5h0a4.48129,4.48129,0,0,1-4.5,4.5h-63a4.48129,4.48129,0,0,1-4.5-4.5h0A4.48129,4.48129,0,0,1,694.5,151Z"/><path id="Rectangle-176-Copy-56" class="cls-6" d="M797.5,151h63a4.48129,4.48129,0,0,1,4.5,4.5h0a4.48129,4.48129,0,0,1-4.5,4.5h-63a4.48129,4.48129,0,0,1-4.5-4.5h0A4.48129,4.48129,0,0,1,797.5,151Z"/><path id="Rectangle-176-Copy-57" class="cls-6" d="M900.5,151h63a4.48129,4.48129,0,0,1,4.5,4.5h0a4.48129,4.48129,0,0,1-4.5,4.5h-63a4.48129,4.48129,0,0,1-4.5-4.5h0A4.48129,4.48129,0,0,1,900.5,151Z"/><path id="Rectangle-176-Copy-58" class="cls-6" d="M391.5,305h79a4.48129,4.48129,0,0,1,4.5,4.5h0a4.48129,4.48129,0,0,1-4.5,4.5h-79a4.48129,4.48129,0,0,1-4.5-4.5h0A4.48129,4.48129,0,0,1,391.5,305Z"/><circle id="Oval-1-Copy-46" class="cls-4" cx="538.5" cy="102.5" r="4.5"/><path id="Rectangle-176-Copy-59" class="cls-10" d="M553.5,98h108a4.48129,4.48129,0,0,1,4.5,4.5h0a4.48129,4.48129,0,0,1-4.5,4.5h-108a4.48129,4.48129,0,0,1-4.5-4.5h0A4.48129,4.48129,0,0,1,553.5,98Z"/><path id="Rectangle-176-Copy-60" class="cls-4" d="M704.5,98h16a4.48129,4.48129,0,0,1,4.5,4.5h0a4.48129,4.48129,0,0,1-4.5,4.5h-16a4.48129,4.48129,0,0,1-4.5-4.5h0A4.48129,4.48129,0,0,1,704.5,98Z"/><path id="Rectangle-176-Copy-61" class="cls-11" d="M747.5,98h300a4.48129,4.48129,0,0,1,4.5,4.5h0a4.48129,4.48129,0,0,1-4.5,4.5h-300a4.48129,4.48129,0,0,1-4.5-4.5h0A4.48129,4.48129,0,0,1,747.5,98Z"/><rect id="Rectangle-14-Copy-7" class="cls-3" x="733" y="86" width="2" height="32"/><rect id="Rectangle-2-Copy-19" class="cls-12" y="30" width="90" height="390"/><rect id="Rectangle-3-Copy-42" class="cls-13" x="387" y="283" width="275" height="1"/><rect id="Rectangle-3-Copy-43" class="cls-3" x="387" y="236" width="275" height="1"/><rect id="Rectangle-5-Copy-42" class="cls-14" x="374" y="30" width="1" height="390"/><rect id="Rectangle-5-Copy-43" class="cls-13" x="674" y="133" width="1" height="287"/><rect id="Rectangle-5-Copy-44" class="cls-13" x="777" y="133" width="1" height="45"/><rect id="Rectangle-5-Copy-45" class="cls-13" x="880" y="133" width="1" height="45"/><rect id="Rectangle-5-Copy-46" class="cls-13" x="983" y="133" width="1" height="45"/><rect id="Rectangle-24-Copy-7" class="cls-2" x="675" y="178" width="404" height="242"/><path class="cls-15" d="M0.5,29.5V3A2.47571,2.47571,0,0,1,3,.5H1077a2.4757,2.4757,0,0,1,2.5,2.5V29.5H0.5Z"/><path class="cls-14" d="M1077,1a2.0059,2.0059,0,0,1,2,2V29H1V3A2.00588,2.00588,0,0,1,3,1H1077m0-1H3A2.94645,2.94645,0,0,0,0,3V30H1080V3a2.94648,2.94648,0,0,0-3-3h0Z"/><path class="cls-14" d="M18,10a5,5,0,1,1-5,5,4.95143,4.95143,0,0,1,5-5m0-1a6,6,0,1,0,6,6,6.01764,6.01764,0,0,0-6-6h0Z"/><path class="cls-14" d="M39,10a5,5,0,1,1-5,5,4.95143,4.95143,0,0,1,5-5m0-1a6,6,0,1,0,6,6,6.01764,6.01764,0,0,0-6-6h0Z"/><path class="cls-14" d="M60,10a5,5,0,1,1-5,5,4.95143,4.95143,0,0,1,5-5m0-1a6,6,0,1,0,6,6,6.01764,6.01764,0,0,0-6-6h0Z"/><rect id="Rectangle-3-Copy-44" class="cls-13" x="675" y="178" width="403" height="1"/><rect id="Rectangle-3-Copy-45" class="cls-13" x="374" y="132" width="705" height="1"/><path id="Rectangle-232-Copy-9" class="cls-16" d="M28.5,171h33a4.48129,4.48129,0,0,1,4.5,4.5h0a4.48129,4.48129,0,0,1-4.5,4.5h-33a4.48129,4.48129,0,0,1-4.5-4.5h0A4.48129,4.48129,0,0,1,28.5,171Z"/><path id="Rectangle-232-Copy-10" class="cls-16" d="M33,120H57a8.96258,8.96258,0,0,1,9,9v24a8.96258,8.96258,0,0,1-9,9H33a8.96258,8.96258,0,0,1-9-9V129A8.96258,8.96258,0,0,1,33,120Z"/><path id="Rectangle-232-Copy-12" class="cls-16" d="M28.5,255h33a4.48129,4.48129,0,0,1,4.5,4.5h0a4.48129,4.48129,0,0,1-4.5,4.5h-33a4.48129,4.48129,0,0,1-4.5-4.5h0A4.48129,4.48129,0,0,1,28.5,255Z"/><path id="Rectangle-232-Copy-11" class="cls-16" d="M33,204H57a8.96258,8.96258,0,0,1,9,9v24a8.96258,8.96258,0,0,1-9,9H33a8.96258,8.96258,0,0,1-9-9V213A8.96258,8.96258,0,0,1,33,204Z"/><path id="Rectangle-236-Copy-4" class="cls-6" d="M615.5,53h134a4.48129,4.48129,0,0,1,4.5,4.5h0a4.48129,4.48129,0,0,1-4.5,4.5h-134a4.48129,4.48129,0,0,1-4.5-4.5h0A4.48129,4.48129,0,0,1,615.5,53Z"/><path id="Rectangle-236-Copy-5" class="cls-6" d="M767.5,53h70a4.48129,4.48129,0,0,1,4.5,4.5h0a4.48129,4.48129,0,0,1-4.5,4.5h-70a4.48129,4.48129,0,0,1-4.5-4.5h0A4.48129,4.48129,0,0,1,767.5,53Z"/><rect id="Rectangle-5-Copy-49" class="cls-13" x="1079" y="30" width="1" height="390"/><path class="cls-17" d="M768,119.5a5.54882,5.54882,0,0,1-5.5-5.5V54a5.54882,5.54882,0,0,1,5.5-5.5h288a5.54882,5.54882,0,0,1,5.5,5.5v60a5.54882,5.54882,0,0,1-5.5,5.5H768Z"/><path class="cls-18" d="M1056,49a4.95144,4.95144,0,0,1,5,5v60a4.95144,4.95144,0,0,1-5,5H768a4.95143,4.95143,0,0,1-5-5V54a4.95143,4.95143,0,0,1,5-5h288m0-1H768a6.01764,6.01764,0,0,0-6,6v60a6.01764,6.01764,0,0,0,6,6h288a6.01765,6.01765,0,0,0,6-6V54a6.01765,6.01765,0,0,0-6-6h0Z"/><path class="cls-1" d="M822.3,80V67.3h5c2.2,0,3.6,1.3,3.6,3.2a2.99954,2.99954,0,0,1-2.2,2.8v0.1a2.99082,2.99082,0,0,1,2.8,3.1c0,2.2-1.6,3.6-4.3,3.6h-4.9V80Zm1.5-7.2h2.5c1.9,0,2.9-.7,2.9-2.1,0-1.3-.9-2-2.4-2h-3v4.1Zm3.2,5.8c1.9,0,2.9-.8,2.9-2.2s-1-2.2-3.1-2.2h-3v4.5H827V78.6Z"/><path class="cls-1" d="M841.6,80h-1.4V78.4h0a3.18334,3.18334,0,0,1-3,1.7c-2.1,0-3.3-1.3-3.3-3.5V70.5h1.5v5.8c0,1.6.7,2.4,2.2,2.4a2.41964,2.41964,0,0,0,2.5-2.7V70.5h1.5V80Z"/><path class="cls-1" d="M844.2,68a1,1,0,1,1,1,1A1.00208,1.00208,0,0,1,844.2,68Zm0.2,2.5h1.5V80h-1.5V70.5Z"/><path class="cls-1" d="M848.9,66.8h1.5V80h-1.5V66.8Z"/><path class="cls-1" d="M855.4,68.4v2.1h1.8v1.3h-1.8v5.7a1.09406,1.09406,0,0,0,1.2,1.3h0.7v1.3c-0.2,0-.6.1-1,0.1-1.7,0-2.4-.7-2.4-2.5V72h-1.3V70.7h1.3V68.6h1.5V68.4Z"/><path class="cls-1" d="M864.2,77.3c0-1.7,1.3-2.6,3.6-2.8l2.6-.1V73.7c0-1.1-.7-1.7-2-1.7a1.88293,1.88293,0,0,0-2,1.4h-1.8c0.1-1.7,1.7-2.9,3.8-2.9,2.3,0,3.8,1.2,3.8,3.1v6.5h-1.8V78.5h0a3.3663,3.3663,0,0,1-3,1.7C865.5,80.1,864.2,79,864.2,77.3Zm6.2-.9V75.7l-2.3.2c-1.3.1-2,.6-2,1.4s0.7,1.3,1.8,1.3A2.29868,2.29868,0,0,0,870.4,76.4Z"/><path class="cls-1" d="M883.9,75.2c0,3-1.6,4.9-4,4.9a3.08567,3.08567,0,0,1-3-1.7h0v4.7H875V70.5h1.8V72h0a3.3663,3.3663,0,0,1,3-1.7C882.3,70.4,883.9,72.3,883.9,75.2Zm-2,0c0-2-1-3.3-2.6-3.3-1.5,0-2.5,1.3-2.5,3.3s1,3.3,2.5,3.3C880.9,78.5,881.9,77.2,881.9,75.2Z"/><path class="cls-1" d="M886,68a1.1,1.1,0,1,1,1.1,1.1A1.10977,1.10977,0,0,1,886,68Zm0.2,2.5h1.9V80h-1.9V70.5Z"/><path class="cls-1" d="M890,82.8l3.8-15.5h1.7l-3.8,15.5H890Z"/><path class="cls-1" d="M897.8,72h-1.3V70.5h1.3V69.6c0-1.8.8-2.6,2.7-2.6a3.402,3.402,0,0,1,1,.1v1.5c-0.2,0-.5-0.1-0.7-0.1a0.96076,0.96076,0,0,0-1.1,1.2v0.8h1.8V72h-1.8v8h-1.9V72Z"/><path class="cls-1" d="M911.6,77.2a3.90436,3.90436,0,0,1-4.1,2.9c-2.8,0-4.5-1.9-4.5-4.9s1.7-4.9,4.4-4.9c2.6,0,4.3,1.8,4.3,4.7v0.7H905v0.1a2.44506,2.44506,0,0,0,2.6,2.7,2.04837,2.04837,0,0,0,2.2-1.4h1.8v0.1ZM905,74.4h4.8a2.33741,2.33741,0,0,0-2.4-2.5A2.45478,2.45478,0,0,0,905,74.4Z"/><path class="cls-1" d="M913.5,77.3c0-1.7,1.3-2.6,3.6-2.8l2.6-.1V73.7c0-1.1-.7-1.7-2-1.7a1.88293,1.88293,0,0,0-2,1.4H914c0.1-1.7,1.7-2.9,3.8-2.9,2.3,0,3.8,1.2,3.8,3.1v6.5h-1.8V78.5h0a3.3663,3.3663,0,0,1-3,1.7C914.9,80.1,913.5,79,913.5,77.3Zm6.3-.9V75.7l-2.3.2c-1.3.1-2,.6-2,1.4s0.7,1.3,1.8,1.3A2.29869,2.29869,0,0,0,919.8,76.4Z"/><path class="cls-1" d="M926.7,68.3v2.1h1.8V72h-1.8v5.3a1.06065,1.06065,0,0,0,1.2,1.2h0.7V80a3.42049,3.42049,0,0,1-1.1.1c-1.9,0-2.6-.7-2.6-2.6V72h-1.3V70.5h1.3V68.4h1.8V68.3Z"/><path class="cls-1" d="M939,80h-1.8V78.4h0a3.08567,3.08567,0,0,1-3,1.7c-2.1,0-3.3-1.3-3.3-3.5V70.5h1.9v5.8a1.88855,1.88855,0,0,0,2.1,2.2,2.26233,2.26233,0,0,0,2.3-2.5V70.5h1.9V80H939Z"/><path class="cls-1" d="M941.7,70.5h1.8v1.6h0a2.25975,2.25975,0,0,1,2.3-1.7,1.48276,1.48276,0,0,1,.7.1v1.8a2.21963,2.21963,0,0,0-.9-0.1,1.94841,1.94841,0,0,0-2,2.2v5.7h-1.9V70.5h0Z"/><path class="cls-1" d="M956.2,77.2a3.90436,3.90436,0,0,1-4.1,2.9c-2.8,0-4.5-1.9-4.5-4.9s1.7-4.9,4.4-4.9c2.6,0,4.3,1.8,4.3,4.7v0.7h-6.8v0.1a2.44506,2.44506,0,0,0,2.6,2.7,2.04837,2.04837,0,0,0,2.2-1.4h1.9v0.1Zm-6.6-2.8h4.8a2.33741,2.33741,0,0,0-2.4-2.5A2.45476,2.45476,0,0,0,949.6,74.4Z"/><path class="cls-1" d="M958.6,75.8V74.1h5.8v1.7h-5.8Z"/><path class="cls-1" d="M969.1,78.4h0V80h-1.8V66.7h1.9V72h0a3.28735,3.28735,0,0,1,3-1.7c2.4,0,4,1.9,4,4.9s-1.6,4.9-4,4.9A3.33781,3.33781,0,0,1,969.1,78.4Zm0-3.2c0,1.9,1,3.3,2.6,3.3s2.5-1.3,2.5-3.3-1-3.3-2.5-3.3S969.1,73.3,969.1,75.2Z"/><path class="cls-1" d="M978.4,70.5h1.8v1.6h0a2.25975,2.25975,0,0,1,2.3-1.7,1.48289,1.48289,0,0,1,.7.1v1.8a2.21966,2.21966,0,0,0-.9-0.1,1.94842,1.94842,0,0,0-2,2.2v5.7h-1.9V70.5Z"/><path class="cls-1" d="M984.5,77.3c0-1.7,1.3-2.6,3.6-2.8l2.6-.1V73.7c0-1.1-.7-1.7-2-1.7a1.88294,1.88294,0,0,0-2,1.4H985c0.1-1.7,1.7-2.9,3.8-2.9,2.3,0,3.8,1.2,3.8,3.1v6.5h-1.8V78.5h0a3.36632,3.36632,0,0,1-3,1.7C985.9,80.1,984.5,79,984.5,77.3Zm6.3-.9V75.7l-2.3.2c-1.3.1-2,.6-2,1.4s0.7,1.3,1.8,1.3A2.29867,2.29867,0,0,0,990.8,76.4Z"/><path class="cls-1" d="M995.3,70.5h1.8v1.6h0a3.08567,3.08567,0,0,1,3-1.7c2.1,0,3.3,1.3,3.3,3.5V80h-1.9V74.2c0-1.5-.7-2.3-2.1-2.3a2.26232,2.26232,0,0,0-2.3,2.5v5.5h-1.9V70.5h0.1Z"/><path class="cls-1" d="M1012.4,73.7a2.209,2.209,0,0,0-2.3-1.8c-1.5,0-2.6,1.3-2.6,3.3,0,2.1,1,3.3,2.6,3.3a2.11877,2.11877,0,0,0,2.3-1.7h1.8c-0.2,2-1.8,3.3-4.1,3.3-2.7,0-4.5-1.9-4.5-4.9s1.8-4.9,4.5-4.9a3.82529,3.82529,0,0,1,4.1,3.4h-1.8Z"/><path class="cls-1" d="M1016.5,66.7h1.9V72h0a3.18334,3.18334,0,0,1,3-1.7,3.25948,3.25948,0,0,1,3.4,3.6V80h-1.9V74.3a2.00514,2.00514,0,0,0-2.1-2.3,2.28513,2.28513,0,0,0-2.4,2.5V80h-1.9V66.7Z"/><path class="cls-19" d="M821.8,91.6h1.1v1.2h0a1.74978,1.74978,0,0,1,1.8-1.3h0.5v1.2c-0.1,0-.4-0.1-0.6-0.1a1.55,1.55,0,0,0-1.6,1.7v4.6h-1.2V91.6Z"/><path class="cls-19" d="M832.8,99h-1.1V97.8h0a2.52944,2.52944,0,0,1-2.3,1.3,2.44506,2.44506,0,0,1-2.6-2.7V91.7H828v4.5a1.63937,1.63937,0,0,0,1.7,1.9,1.84584,1.84584,0,0,0,1.9-2.1V91.7h1.2V99h0Z"/><path class="cls-19" d="M835,91.6h1.1v1.2h0a2.52944,2.52944,0,0,1,2.3-1.3,2.44506,2.44506,0,0,1,2.6,2.7v4.7h-1.2V94.4a1.63937,1.63937,0,0,0-1.7-1.9,1.84584,1.84584,0,0,0-1.9,2.1v4.3H835V91.6Z"/><path class="cls-19" d="M843.2,91.6h1.1v1.2h0a2.52944,2.52944,0,0,1,2.3-1.3,2.44506,2.44506,0,0,1,2.6,2.7v4.7H848V94.4a1.63937,1.63937,0,0,0-1.7-1.9,1.84584,1.84584,0,0,0-1.9,2.1v4.3h-1.2V91.6h0Z"/><path class="cls-19" d="M851,96.9c0-1.3,1-2,2.8-2.1l2.1-.1V94c0-.9-0.6-1.4-1.7-1.4a1.40405,1.40405,0,0,0-1.6,1.1h-1.1c0-1.2,1.2-2.2,2.8-2.2,1.7,0,2.9.9,2.9,2.4V99h-1.1V97.7h0a2.58107,2.58107,0,0,1-2.4,1.3C852,99.1,851,98.2,851,96.9Zm4.9-.7V95.6l-1.9.1c-1.1.1-1.7,0.5-1.7,1.2a1.24614,1.24614,0,0,0,1.5,1.1A1.87785,1.87785,0,0,0,855.9,96.2Z"/><path class="cls-19" d="M860.4,97.8h0V99h-1.1V88.7h1.2v4.1h0a2.6924,2.6924,0,0,1,2.4-1.3c1.9,0,3.1,1.5,3.1,3.8s-1.3,3.8-3.1,3.8A2.86324,2.86324,0,0,1,860.4,97.8Zm0.1-2.5c0,1.6.9,2.7,2.2,2.7s2.1-1.1,2.1-2.7-0.8-2.7-2.1-2.7C861.3,92.6,860.5,93.7,860.5,95.3Z"/><path class="cls-19" d="M867.8,91.6h1.1v1.2h0a1.74977,1.74977,0,0,1,1.8-1.3h0.5v1.2a5.63859,5.63859,0,0,0-.7-0.1,1.55005,1.55005,0,0,0-1.6,1.7v4.6h-1.2V91.6h0.1Z"/><path class="cls-19" d="M872.1,95.3c0-2.3,1.3-3.8,3.4-3.8s3.4,1.5,3.4,3.8-1.3,3.8-3.4,3.8S872.1,97.6,872.1,95.3Zm5.6,0c0-1.7-.8-2.7-2.2-2.7s-2.2,1-2.2,2.7,0.8,2.7,2.2,2.7C876.8,98,877.7,97,877.7,95.3Z"/><path class="cls-19" d="M891.3,95.3c0,2.2-1.3,3.8-3.1,3.8a2.81336,2.81336,0,0,1-2.4-1.3h0v3.7h-1.2V91.7h1.1v1.2h0a2.69238,2.69238,0,0,1,2.4-1.3C890,91.6,891.3,93.1,891.3,95.3Zm-1.2,0c0-1.6-.9-2.7-2.2-2.7s-2.1,1.1-2.1,2.7,0.9,2.7,2.1,2.7C889.2,98,890.1,96.9,890.1,95.3Z"/><path class="cls-19" d="M899.1,99H898V97.8h0a2.52944,2.52944,0,0,1-2.3,1.3c-1.6,0-2.5-1-2.5-2.7V91.7h1.2v4.5a1.63937,1.63937,0,0,0,1.7,1.9A1.84584,1.84584,0,0,0,898,96V91.7h1.2V99h-0.1Z"/><path class="cls-19" d="M903.9,91.6a2.4871,2.4871,0,0,1,2.7,2.1h-1.1a1.404,1.404,0,0,0-1.6-1.1,1.24614,1.24614,0,0,0-1.5,1.1c0,0.5.4,0.8,1.2,1l1.1,0.3c1.5,0.4,2,.9,2,2,0,1.3-1.2,2.1-2.9,2.1a2.70494,2.70494,0,0,1-2.9-2.1h1.2a1.44242,1.44242,0,0,0,1.7,1.2c1,0,1.6-.4,1.6-1.1,0-.5-0.3-0.8-1.1-1l-1.3-.3a2.03311,2.03311,0,0,1-1.9-2C901.2,92.4,902.3,91.6,903.9,91.6Z"/><path class="cls-19" d="M908.6,88.7h1.2v4.1h0a2.52944,2.52944,0,0,1,2.3-1.3,2.49422,2.49422,0,0,1,2.6,2.7v4.7h-1.2V94.4a1.6639,1.6639,0,0,0-1.8-1.9,1.918,1.918,0,0,0-2,2.1v4.2h-1.2V88.7h0.1Z"/><path class="cls-19" d="M923,96.9a2.91436,2.91436,0,0,1-3.1,2.2c-2.1,0-3.4-1.4-3.4-3.7s1.3-3.8,3.3-3.8S923,93,923,95.2v0.5h-5.3v0.1a2.12729,2.12729,0,0,0,2.2,2.3,1.93764,1.93764,0,0,0,1.9-1.1H923V96.9Zm-5.2-2.2h4.1a1.918,1.918,0,0,0-2-2.1A2.04908,2.04908,0,0,0,917.8,94.7Z"/><path class="cls-19" d="M924.5,95.3c0-2.2,1.3-3.8,3.1-3.8a2.69238,2.69238,0,0,1,2.4,1.3h0V88.7h1.2V99h-1.1V97.8h0a2.6924,2.6924,0,0,1-2.4,1.3C925.8,99.1,924.5,97.6,924.5,95.3Zm1.3,0c0,1.6.9,2.7,2.2,2.7s2.1-1.1,2.1-2.7-0.9-2.7-2.1-2.7C926.6,92.6,925.8,93.7,925.8,95.3Z"/><path class="cls-19" d="M937,96.9c0-1.3,1-2,2.8-2.1l2.1-.1V94c0-.9-0.6-1.4-1.7-1.4a1.40405,1.40405,0,0,0-1.6,1.1h-1.1c0-1.2,1.2-2.2,2.8-2.2,1.7,0,2.9.9,2.9,2.4V99h-1.1V97.7h0a2.58107,2.58107,0,0,1-2.4,1.3C938,99.1,937,98.2,937,96.9Zm4.9-.7V95.6l-1.9.1c-1.1.1-1.7,0.5-1.7,1.2a1.24614,1.24614,0,0,0,1.5,1.1A1.87785,1.87785,0,0,0,941.9,96.2Z"/><path class="cls-19" d="M951.7,91.6a2.4871,2.4871,0,0,1,2.7,2.1h-1.1a1.404,1.404,0,0,0-1.6-1.1,1.24614,1.24614,0,0,0-1.5,1.1c0,0.5.4,0.8,1.2,1l1.1,0.3c1.5,0.4,2,.9,2,2,0,1.3-1.2,2.1-2.9,2.1a2.70494,2.70494,0,0,1-2.9-2.1h1.2a1.44242,1.44242,0,0,0,1.7,1.2c1,0,1.6-.4,1.6-1.1,0-.5-0.3-0.8-1.1-1l-1.3-.3a2.03311,2.03311,0,0,1-1.9-2C949,92.4,950.1,91.6,951.7,91.6Z"/><path class="cls-19" d="M962.5,96.9a2.91437,2.91437,0,0,1-3.1,2.2c-2.1,0-3.4-1.4-3.4-3.7s1.3-3.8,3.3-3.8,3.2,1.4,3.2,3.6v0.5h-5.3v0.1a2.12729,2.12729,0,0,0,2.2,2.3,1.93764,1.93764,0,0,0,1.9-1.1h1.2V96.9Zm-5.2-2.2h4.1a1.918,1.918,0,0,0-2-2.1A2.04909,2.04909,0,0,0,957.3,94.7Z"/><path class="cls-19" d="M969.3,94a1.78959,1.78959,0,0,0-1.9-1.4c-1.3,0-2.2,1.1-2.2,2.7,0,1.7.9,2.7,2.2,2.7a1.77177,1.77177,0,0,0,1.9-1.4h1.2a2.902,2.902,0,0,1-3.1,2.4c-2,0-3.4-1.4-3.4-3.8,0-2.3,1.3-3.8,3.4-3.8a2.9872,2.9872,0,0,1,3.1,2.5h-1.2V94Z"/><path class="cls-19" d="M971.8,95.3c0-2.3,1.3-3.8,3.4-3.8s3.4,1.5,3.4,3.8-1.3,3.8-3.4,3.8S971.8,97.6,971.8,95.3Zm5.6,0c0-1.7-.8-2.7-2.2-2.7s-2.2,1-2.2,2.7,0.8,2.7,2.2,2.7S977.4,97,977.4,95.3Z"/><path class="cls-19" d="M980.4,91.6h1.1v1.2h0a2.52945,2.52945,0,0,1,2.3-1.3,2.44506,2.44506,0,0,1,2.6,2.7v4.7h-1.2V94.4a1.63937,1.63937,0,0,0-1.7-1.9,1.84584,1.84584,0,0,0-1.9,2.1v4.3h-1.2V91.6h0Z"/><path class="cls-19" d="M988.2,95.3c0-2.2,1.3-3.8,3.1-3.8a2.69238,2.69238,0,0,1,2.4,1.3h0V88.7h1.2V99h-1.1V97.8h0a2.69238,2.69238,0,0,1-2.4,1.3C989.5,99.1,988.2,97.6,988.2,95.3Zm1.3,0c0,1.6.9,2.7,2.2,2.7s2.1-1.1,2.1-2.7-0.9-2.7-2.1-2.7C990.3,92.6,989.5,93.7,989.5,95.3Z"/><path class="cls-19" d="M1000.8,96.9c0-1.3,1-2,2.8-2.1l2.1-.1V94c0-.9-0.6-1.4-1.7-1.4a1.40405,1.40405,0,0,0-1.6,1.1h-1.1c0-1.2,1.2-2.2,2.8-2.2,1.7,0,2.9.9,2.9,2.4V99h-1.1V97.7h0a2.58105,2.58105,0,0,1-2.4,1.3C1001.7,99.1,1000.8,98.2,1000.8,96.9Zm4.8-.7V95.6l-1.9.1c-1.1.1-1.7,0.5-1.7,1.2a1.24614,1.24614,0,0,0,1.5,1.1A1.87786,1.87786,0,0,0,1005.6,96.2Z"/><path class="cls-19" d="M1008.9,99.6h1.2a1.83905,1.83905,0,0,0,1.9,1c1.3,0,2.1-.7,2.1-1.7V97.7h0a2.69238,2.69238,0,0,1-2.4,1.3c-1.9,0-3.1-1.5-3.1-3.7s1.2-3.7,3.1-3.7a2.81336,2.81336,0,0,1,2.4,1.3h0V91.7h1.1v7.2c0,1.8-1.3,2.8-3.3,2.8C1010.2,101.6,1009,100.8,1008.9,99.6Zm5.2-4.3c0-1.6-.9-2.7-2.2-2.7s-2.1,1.1-2.1,2.7,0.8,2.7,2.1,2.7A2.42667,2.42667,0,0,0,1014.1,95.3Z"/><path class="cls-19" d="M1017.1,95.3c0-2.3,1.3-3.8,3.4-3.8s3.4,1.5,3.4,3.8-1.3,3.8-3.4,3.8S1017.1,97.6,1017.1,95.3Zm5.5,0c0-1.7-.8-2.7-2.2-2.7s-2.2,1-2.2,2.7,0.8,2.7,2.2,2.7S1022.6,97,1022.6,95.3Z"/><ellipse id="Oval-126" class="cls-20" cx="794.4" cy="78.5" rx="15" ry="15.5"/><ellipse id="Oval-126-Copy" class="cls-1" cx="783.8" cy="89.5" rx="7.3" ry="7.5"/><path class="cls-21" d="M29.49448,68.533c2.233-5.76916-6.2111-5.11758-5.91982-9.91774,0.16254-2.673,4.35985-5.03977,6.76206-4.46331,3.95519,0.94906,4.32,6.28087,4.625,9.59726"/><path class="cls-22" d="M29.49415,69.10018a0.5675,0.5675,0,0,1-.52849-0.77192c1.04979-2.7118-.51672-3.70054-2.49988-4.95223-1.69209-1.06811-3.60984-2.27858-3.45723-4.79514a4.9743,4.9743,0,0,1,2.2594-3.5246,6.87651,6.87651,0,0,1,5.20121-1.45575c4.23209,1.01556,4.712,6.298,5.02962,9.79359l0.02769,0.30316a0.56706,0.56706,0,0,1-1.12937.10378l-0.02769-.30436c-0.28823-3.17292-.72384-7.96773-4.16494-8.79339a5.805,5.805,0,0,0-4.262,1.26433,3.94744,3.94744,0,0,0-1.802,2.682c-0.11206,1.84689,1.2979,2.73687,2.93048,3.76737,1.933,1.22007,4.3387,2.73851,2.95206,6.32066A0.5673,0.5673,0,0,1,29.49415,69.10018Z"/><path class="cls-22" d="M32.37754,62.52672s-0.78272-3.64779-3.50432-4.40117c-1.82879-.50581-2.87444.76517-2.7022,1.70038,0.26173,1.42023,4.32986,3.33764,4.91319,4.33185"/><path class="cls-21" d="M60.50519,68.533c-2.2328-5.76916,6.21132-5.11758,5.92026-9.91774-0.16264-2.673-4.35942-5.03977-6.76228-4.46331-3.955.94906-4.32,6.28087-4.625,9.59726"/><path class="cls-22" d="M60.50541,69.10018a0.56725,0.56725,0,0,1-.52893-0.36258c-1.38642-3.582,1.01927-5.10048,2.95228-6.32055,1.63257-1.0305,3.04276-1.92048,2.9307-3.76748a3.94749,3.94749,0,0,0-1.802-2.68193,5.80258,5.80258,0,0,0-4.262-1.26433c-3.44087.82566-3.87671,5.6208-4.16494,8.79383l-0.02769.30393a0.56706,0.56706,0,0,1-1.12937-.10378l0.02769-.30273c0.31766-3.49571.79754-8.77846,5.02962-9.794a6.87655,6.87655,0,0,1,5.20143,1.45575,4.97467,4.97467,0,0,1,2.25918,3.52449c0.15262,2.51667-1.76535,3.72714-3.45744,4.79525-1.98316,1.25168-3.54967,2.24043-2.5001,4.95233A0.56724,0.56724,0,0,1,60.50541,69.10018Z"/><path class="cls-22" d="M57.62182,62.52672s0.78334-3.64779,3.50475-4.40117c1.82924-.50581,2.87444.76517,2.70265,1.70038-0.26228,1.42023-4.33107,3.33764-4.91431,4.33185"/><path class="cls-21" d="M62.55856,78.04053V76.162c-0.61746-6.40612-1.57241-14.22909-4.65921-16.24659-2.80227-1.83174-6.11365-2.25787-10.102-2.61009a6.21315,6.21315,0,0,1,1.048-1.368c-1.22421.03083-1.71759-.14358-2.83455,0.59324,0.4051-.38132.79426-1.01906,1.219-1.40529-1.93868-.32377-3.85709.71513-5.3921,2.06557-4.59192.27023-8.07881,1.014-10.69707,3.088-2.84524,2.25394-3.78241,9.48433-4.46,16.1705v1.59116c0,10.15759,12.54865,18.39238,17.93879,18.39238S62.55856,88.19811,62.55856,78.04053Z"/><path class="cls-23" d="M44.61944,91.5232c-7.15941,0-16.37489-7.2234-17.792-16.48444q-0.07585.707-.14684,1.41061v1.59116c0,10.15759,12.54865,18.39238,17.93879,18.39238s17.93913-8.2348,17.93913-18.39238V76.162c-0.04034-.41883-0.08243-0.844-0.12625-1.27273C61.11567,84.22176,51.779,91.5232,44.61944,91.5232Z"/><path class="cls-24" d="M57.58911,60.39007c-2.70482-1.76808-5.91982-2.1736-9.84166-2.51994a0.5669,0.5669,0,0,1-.44761-0.83656,5.64583,5.64583,0,0,1,.32137-0.51716,2.42916,2.42916,0,0,0-1.29812.4875,0.567,0.567,0,0,1-.701-0.88616,4.46984,4.46984,0,0,0,.4016-0.45654,7.46722,7.46722,0,0,0-3.81152,1.95536,0.56715,0.56715,0,0,1-.34121.1403c-5.02265.29564-8.12646,1.18279-10.37822,2.96645-2.45631,1.94579-3.43563,8.20071-4.09273,14.29632,1.41339,8.98019,10.40017,15.93647,17.21938,15.93647,6.91039,0,15.93105-7.025,17.24232-16.09183C61.36066,69.87142,60.39437,62.22349,57.58911,60.39007Z"/><path class="cls-22" d="M27.40006,75.01965c0.6571-6.09562,1.63642-12.35053,4.09273-14.29632,2.25176-1.78366,5.35557-2.67081,10.37822-2.96645a0.56715,0.56715,0,0,0,.34121-0.1403,7.46722,7.46722,0,0,1,3.81152-1.95536,4.46984,4.46984,0,0,1-.4016.45654,0.567,0.567,0,0,0,.701.88616,2.42916,2.42916,0,0,1,1.29812-.4875,5.64583,5.64583,0,0,0-.32137.51716,0.5669,0.5669,0,0,0,.44761.83656c3.92184,0.34633,7.13684.75186,9.84166,2.51994,2.80526,1.83342,3.77155,9.48135,4.27265,14.47422,0.00263-.01819.00657-0.036,0.00914-0.05425l0.60751-4.30552c-0.7174-5.01826-1.8846-9.50536-4.26881-11.06373-2.69348-1.76055-5.75085-2.26267-9.40539-2.6126a6.31139,6.31139,0,0,1,.4415-0.48936,0.56688,0.56688,0,0,0-.40029-0.96847l-0.01439.00011c-0.22195.00556-.41948,0.004-0.6,0.00294-0.17224-.0012-0.33445-0.00218-0.49252.00218a0.56673,0.56673,0,0,0-.41534-0.80953c-2.2522-.37609-4.32475.88671-5.71161,2.07048-5.16044.32235-8.40466,1.28232-10.823,3.19789-2.21256,1.75281-3.311,6.07089-4.02307,11.05077L27.388,74.953C27.39145,74.97535,27.39655,74.99729,27.40006,75.01965Z"/><path class="cls-22" d="M63.123,76.10773L63.12563,76.162c0-.0181-0.00087-0.03641-0.00261-0.05451q-0.06831-.70869-0.14185-1.42445l0.01518,0.14857C63.04039,75.26147,63.08247,75.68781,63.123,76.10773Z"/><path class="cls-22" d="M26.26174,74.99682q-0.07461.69661-.14523,1.39543a0.55376,0.55376,0,0,0-.00305.05712v1.59115l0.00305-1.64805Q26.18653,75.697,26.26174,74.99682Z"/><path class="cls-23" d="M62.52236,70.193l-0.04395.31149c0.19581,1.36973.35847,2.77828,0.50275,4.17854Z"/><path class="cls-23" d="M26.72872,70.64489l-0.465,4.33336-0.00193.01857c0.14929-1.394.31283-2.77624,0.50376-4.11162Z"/><path class="cls-25" d="M44.61944,90.95612c-6.8192,0-15.806-6.95629-17.21938-15.93647q-0.0789.73187-.15244,1.45851v1.56237c0,5.81168,4.23165,10.37517,6.754,12.57831,3.53746,3.08942,7.90363,5.247,10.61783,5.247s7.08059-2.15758,10.61783-5.247c2.52255-2.20315,6.7542-6.76663,6.7542-12.57831V76.18927c-0.03982-.41324-0.08289-0.85843-0.12971-1.325C60.55049,83.93109,51.52983,90.95612,44.61944,90.95612Z"/><path class="cls-26" d="M63.123,76.10773c-0.04055-.41992-0.08263-0.84627-0.12667-1.2761l-0.01518-.14857c-0.14428-1.40025-.30694-2.80881-0.50275-4.17854L61.8709,74.81c-0.00258.01822-.00651,0.03606-0.00914,0.05425,0.04682,0.46655.08989,0.91174,0.12971,1.325v1.85125c0,5.81168-4.23165,10.37517-6.7542,12.57831-3.53724,3.08942-7.90363,5.247-10.61783,5.247s-7.08037-2.15758-10.61783-5.247c-2.52233-2.20315-6.754-6.76663-6.754-12.57831V76.47816q0.07358-.72537.15244-1.45851c-0.00352-.02236-0.00861-0.0443-0.012-0.06669L26.7655,70.88521c-0.19094,1.33538-.35447,2.7176-0.50376,4.11162q-0.07479.69949-.14523,1.39565l-0.00305,1.64805c0,6.25994,4.47475,11.10272,7.14229,13.43232C36.98179,94.72709,41.65473,97,44.61944,97s7.63786-2.27291,11.36391-5.52716c2.66732-2.3296,7.14229-7.17238,7.14229-13.43232V76.162Z"/><path class="cls-27" d="M30.95449,66.33638a0.567,0.567,0,0,1-.48184-0.86512,7.51351,7.51351,0,0,1,6.1191-3.3432,0.567,0.567,0,1,1,0,1.13395,6.43766,6.43766,0,0,0-5.15455,2.80533A0.56626,0.56626,0,0,1,30.95449,66.33638Z"/><circle class="cls-27" cx="34.37404" cy="67.77554" r="1.70106"/><path class="cls-27" d="M58.72916,66.33638a0.567,0.567,0,0,1-.48205-0.26774h0A6.36345,6.36345,0,0,0,53.09168,63.262a0.567,0.567,0,1,1,0-1.13395,7.51455,7.51455,0,0,1,6.11931,3.3432A0.567,0.567,0,0,1,58.72916,66.33638Z"/><circle class="cls-27" cx="55.30955" cy="67.77549" r="1.70062"/><path class="cls-28" d="M39.2232,68.78437c3.31015-4.74325,17.66975-3.35148,11.79592,11.83474-0.85247,2.21208-1.865,4.38711-2.81338,6.55885-0.10248.119-.17791-0.464-0.38657-0.40488-1.01272,1.66267-2.26245.9-3.32074-.62005-0.29412.32966-2.39109,0.93686-2.69709,1.25844C38.65122,83.60148,35.91184,73.52826,39.2232,68.78437Z"/><path class="cls-22" d="M46.52716,88.2779a2.97017,2.97017,0,0,1-2.17655-1.37378c-0.24789.11686-.57733,0.24877-1.01818,0.42013a8.83646,8.83646,0,0,0-1.13395.49165,0.56675,0.56675,0,0,1-.83416-0.04317c-3.06391-3.70578-6.2002-14.16368-2.60584-19.31289,1.88941-2.708,6.75573-3.49974,10.20925-1.66157,1.9958,1.06255,6.24272,4.55607,2.58011,14.02535-0.634,1.64522-1.36375,3.288-2.0695,4.87657q-0.379.85324-.75306,1.70474a0.57062,0.57062,0,0,1-.08983.143,0.59989,0.59989,0,0,1-.54048.20734,0.58857,0.58857,0,0,1-.24332-0.08983,1.81569,1.81569,0,0,1-1.27327.61178ZM42.212,87.80239l-0.007.007Zm2.28643-2.21644,0.034,0.00109a0.56675,0.56675,0,0,1,.43125.242,2.51382,2.51382,0,0,0,1.58,1.31469,1.19488,1.19488,0,0,0,.79121-0.66563,0.56608,0.56608,0,0,1,.32965-0.25051,0.66939,0.66939,0,0,1,.344-0.01047q0.21585-.48827.43343-0.97741C49.14215,83.664,49.866,82.03453,50.49,80.41526c2.34879-6.07233,1.59965-10.67048-2.05511-12.61592-2.93527-1.56248-7.18611-.92639-8.74652,1.30957H39.68814c-2.95293,4.23067-.75219,13.51517,2.25307,17.56172,0.24964-.11708.57253-0.24441,0.98-0.40313a8.7824,8.7824,0,0,0,1.17014-.50909A0.56669,0.56669,0,0,1,44.49843,85.58594Zm-0.41468.18031-0.0085.00938ZM39.22331,68.78437h0Z"/><path class="cls-22" d="M45.48849,81.07413H44.512a0.56708,0.56708,0,0,1,0-1.13417h0.97654A0.56708,0.56708,0,0,1,45.48849,81.07413Z"/><path class="cls-22" d="M49.17747,70.54275c-0.56774-.58692-2.31585-0.885-4.17735-0.8962-1.86128.01123-3.609,0.30928-4.17727,0.8962-1.32352,1.36779,1.76382,4.4936,4.17727,4.68875C47.41364,75.03635,50.50023,71.91054,49.17747,70.54275Z"/><path class="cls-22" d="M45.0097,81.07413a0.56722,0.56722,0,0,1-.56708-0.56708V75.2317a0.56708,0.56708,0,0,1,1.13417,0V80.507A0.56722,0.56722,0,0,1,45.0097,81.07413Z"/><path class="cls-1" d="M47.58611,71.62459a0.48234,0.48234,0,0,1-.18489-0.037,18.01851,18.01851,0,0,0-4.78391-.005,0.48333,0.48333,0,1,1-.36846-0.89369,16.54912,16.54912,0,0,1,5.52258.00567A0.48343,0.48343,0,0,1,47.58611,71.62459Z"/></svg>