<svg id="Layer_1" data-name="Layer 1" xmlns="http://www.w3.org/2000/svg" xmlns:xlink="http://www.w3.org/1999/xlink" viewBox="0 0 1080 420"><defs><style>.cls-1{fill:#fff;}.cls-2{fill:#f7f7f7;}.cls-3{fill:#e6e6e6;}.cls-4{fill:#e8e8e8;}.cls-5{fill:url(#linear-gradient);}.cls-6{fill:#eee;}.cls-7{fill:url(#linear-gradient-2);}.cls-8{fill:url(#linear-gradient-3);}.cls-9{fill:url(#linear-gradient-4);}.cls-10{fill:url(#linear-gradient-5);}.cls-11{fill:url(#linear-gradient-6);}.cls-12{fill:#834eab;}.cls-13{fill:#e0e0e0;}.cls-14{fill:#e1e1e1;}.cls-15{fill:#f8f8f8;}.cls-16{fill:#7944a3;}.cls-17{fill:#60cd77;}.cls-18{fill:#6eb87e;}.cls-19{fill:#dff7e4;}.cls-20{fill:#3c804b;}.cls-21{fill:none;stroke:#3c804b;stroke-width:1.5px;}</style><linearGradient id="linear-gradient" x1="60.23077" y1="482.83333" x2="59.23077" y2="482.83333" gradientTransform="matrix(78, 0, 0, -9, -4203, 4448)" gradientUnits="userSpaceOnUse"><stop offset="0" stop-color="#e8e8e8" stop-opacity="0"/><stop offset="1" stop-color="#e8e8e8"/></linearGradient><linearGradient id="linear-gradient-2" x1="60.33333" y1="482.83333" x2="59.33333" y2="482.83333" gradientTransform="matrix(90, 0, 0, -9, -4923, 4543)" xlink:href="#linear-gradient"/><linearGradient id="linear-gradient-3" x1="60.6" y1="482.83333" x2="59.6" y2="482.83333" gradientTransform="matrix(150, 0, 0, -9, -8523, 4564)" xlink:href="#linear-gradient"/><linearGradient id="linear-gradient-4" x1="60" y1="482.83333" x2="59" y2="482.83333" gradientTransform="matrix(60, 0, 0, -9, -3123, 4596)" xlink:href="#linear-gradient"/><linearGradient id="linear-gradient-5" x1="60.48718" y1="482.83333" x2="59.48718" y2="482.83333" gradientTransform="matrix(117, 0, 0, -9, -6411, 4448)" xlink:href="#linear-gradient"/><linearGradient id="linear-gradient-6" x1="60.80583" y1="482.83333" x2="59.80583" y2="482.83333" gradientTransform="matrix(309, 0, 0, -9, -17737, 4448)" xlink:href="#linear-gradient"/></defs><title>updates</title><rect id="Rectangle-326" class="cls-1" x="374" y="30" width="705" height="390"/><g id="Rectangle-7-Copy-28"><rect class="cls-2" x="388" y="179" width="273" height="86" rx="2" ry="2"/><path class="cls-3" d="M659,180a1.00115,1.00115,0,0,1,1,1v82a1.00115,1.00115,0,0,1-1,1H390a1.00115,1.00115,0,0,1-1-1V181a1.00115,1.00115,0,0,1,1-1H659m0-2H390a3,3,0,0,0-3,3v82a3,3,0,0,0,3,3H659a3,3,0,0,0,3-3V181a3,3,0,0,0-3-3h0Z"/></g><g id="Rectangle-7-Copy-29"><rect class="cls-2" x="690" y="85" width="364" height="34" rx="2" ry="2"/><path class="cls-3" d="M1052,86a1.00115,1.00115,0,0,1,1,1v30a1.00115,1.00115,0,0,1-1,1H692a1.00115,1.00115,0,0,1-1-1V87a1.00115,1.00115,0,0,1,1-1h360m0-2H692a3,3,0,0,0-3,3v30a3,3,0,0,0,3,3h360a3,3,0,0,0,3-3V87a3,3,0,0,0-3-3h0Z"/></g><g id="Rectangle-7-Copy-30"><rect class="cls-2" x="520" y="85" width="160" height="34" rx="2" ry="2"/><path class="cls-3" d="M678,86a1.00115,1.00115,0,0,1,1,1v30a1.00115,1.00115,0,0,1-1,1H522a1.00115,1.00115,0,0,1-1-1V87a1.00115,1.00115,0,0,1,1-1H678m0-2H522a3,3,0,0,0-3,3v30a3,3,0,0,0,3,3H678a3,3,0,0,0,3-3V87a3,3,0,0,0-3-3h0Z"/></g><g id="Rectangle-7-Copy-31"><rect class="cls-2" x="388" y="85" width="121" height="34" rx="2" ry="2"/><path class="cls-3" d="M507,86a1.00115,1.00115,0,0,1,1,1v30a1.00115,1.00115,0,0,1-1,1H390a1.00115,1.00115,0,0,1-1-1V87a1.00115,1.00115,0,0,1,1-1H507m0-2H390a3,3,0,0,0-3,3v30a3,3,0,0,0,3,3H507a3,3,0,0,0,3-3V87a3,3,0,0,0-3-3h0Z"/></g><rect id="Rectangle-2-Copy-18" class="cls-2" x="90" y="30" width="284" height="390"/><circle id="Oval-1-Copy-45" class="cls-4" cx="406.5" cy="102.5" r="4.5"/><path id="Rectangle-176-Copy-48" class="cls-5" d="M421.5,98h69a4.5,4.5,0,0,1,4.5,4.5h0a4.5,4.5,0,0,1-4.5,4.5h-69a4.5,4.5,0,0,1-4.5-4.5h0A4.5,4.5,0,0,1,421.5,98Z"/><path id="Rectangle-176-Copy-49" class="cls-6" d="M391.5,151h79a4.5,4.5,0,0,1,4.5,4.5h0a4.5,4.5,0,0,1-4.5,4.5h-79a4.5,4.5,0,0,1-4.5-4.5h0A4.5,4.5,0,0,1,391.5,151Z"/><path id="Rectangle-176-Copy-50" class="cls-7" d="M421.5,193h81a4.5,4.5,0,0,1,4.5,4.5h0a4.5,4.5,0,0,1-4.5,4.5h-81a4.5,4.5,0,0,1-4.5-4.5h0A4.5,4.5,0,0,1,421.5,193Z"/><path id="Rectangle-176-Copy-51" class="cls-4" d="M406.5,193h0a4.5,4.5,0,0,1,4.5,4.5h0a4.5,4.5,0,0,1-4.5,4.5h0a4.5,4.5,0,0,1-4.5-4.5h0A4.5,4.5,0,0,1,406.5,193Z"/><path id="Rectangle-176-Copy-52" class="cls-8" d="M421.5,214h141a4.5,4.5,0,0,1,4.5,4.5h0a4.5,4.5,0,0,1-4.5,4.5h-141a4.5,4.5,0,0,1-4.5-4.5h0A4.5,4.5,0,0,1,421.5,214Z"/><path id="Rectangle-176-Copy-53" class="cls-9" d="M421.5,246h51a4.5,4.5,0,0,1,4.5,4.5h0a4.5,4.5,0,0,1-4.5,4.5h-51a4.5,4.5,0,0,1-4.5-4.5h0A4.5,4.5,0,0,1,421.5,246Z"/><path id="Rectangle-176-Copy-54" class="cls-4" d="M627.5,246h15a4.5,4.5,0,0,1,4.5,4.5h0a4.5,4.5,0,0,1-4.5,4.5h-15a4.5,4.5,0,0,1-4.5-4.5h0A4.5,4.5,0,0,1,627.5,246Z"/><path id="Rectangle-176-Copy-55" class="cls-6" d="M694.5,151h63a4.5,4.5,0,0,1,4.5,4.5h0a4.5,4.5,0,0,1-4.5,4.5h-63a4.5,4.5,0,0,1-4.5-4.5h0A4.5,4.5,0,0,1,694.5,151Z"/><path id="Rectangle-176-Copy-56" class="cls-6" d="M797.5,151h63a4.5,4.5,0,0,1,4.5,4.5h0a4.5,4.5,0,0,1-4.5,4.5h-63a4.5,4.5,0,0,1-4.5-4.5h0A4.5,4.5,0,0,1,797.5,151Z"/><path id="Rectangle-176-Copy-57" class="cls-6" d="M900.5,151h63a4.5,4.5,0,0,1,4.5,4.5h0a4.5,4.5,0,0,1-4.5,4.5h-63a4.5,4.5,0,0,1-4.5-4.5h0A4.5,4.5,0,0,1,900.5,151Z"/><path id="Rectangle-176-Copy-58" class="cls-6" d="M391.5,305h79a4.5,4.5,0,0,1,4.5,4.5h0a4.5,4.5,0,0,1-4.5,4.5h-79a4.5,4.5,0,0,1-4.5-4.5h0A4.5,4.5,0,0,1,391.5,305Z"/><circle id="Oval-1-Copy-46" class="cls-4" cx="538.5" cy="102.5" r="4.5"/><path id="Rectangle-176-Copy-59" class="cls-10" d="M553.5,98h108a4.5,4.5,0,0,1,4.5,4.5h0a4.5,4.5,0,0,1-4.5,4.5h-108a4.5,4.5,0,0,1-4.5-4.5h0A4.5,4.5,0,0,1,553.5,98Z"/><path id="Rectangle-176-Copy-60" class="cls-4" d="M704.5,98h16a4.5,4.5,0,0,1,4.5,4.5h0a4.5,4.5,0,0,1-4.5,4.5h-16a4.5,4.5,0,0,1-4.5-4.5h0A4.5,4.5,0,0,1,704.5,98Z"/><path id="Rectangle-176-Copy-61" class="cls-11" d="M747.5,98h300a4.5,4.5,0,0,1,4.5,4.5h0a4.5,4.5,0,0,1-4.5,4.5h-300a4.5,4.5,0,0,1-4.5-4.5h0A4.5,4.5,0,0,1,747.5,98Z"/><rect id="Rectangle-14-Copy-7" class="cls-3" x="733" y="86" width="2" height="32"/><rect id="Rectangle-2-Copy-19" class="cls-12" y="30" width="90" height="390"/><rect id="Rectangle-3-Copy-42" class="cls-13" x="387" y="283" width="275" height="1"/><rect id="Rectangle-3-Copy-43" class="cls-3" x="387" y="236" width="275" height="1"/><rect id="Rectangle-5-Copy-42" class="cls-14" x="374" y="30" width="1" height="390"/><rect id="Rectangle-5-Copy-43" class="cls-13" x="674" y="133" width="1" height="287"/><rect id="Rectangle-5-Copy-44" class="cls-13" x="777" y="133" width="1" height="45"/><rect id="Rectangle-5-Copy-45" class="cls-13" x="880" y="133" width="1" height="45"/><rect id="Rectangle-5-Copy-46" class="cls-13" x="983" y="133" width="1" height="45"/><rect id="Rectangle-24-Copy-7" class="cls-2" x="675" y="178" width="404" height="242"/><g id="Rectangle-480-Copy-13"><path class="cls-15" d="M0.5,29.5V3A2.50294,2.50294,0,0,1,3,.5H1077a2.50263,2.50263,0,0,1,2.5,2.5V29.5H0.5Z"/><path class="cls-14" d="M1077,1a2.00227,2.00227,0,0,1,2,2V29H1V3A2.00226,2.00226,0,0,1,3,1H1077m0-1H3A3.00007,3.00007,0,0,0,0,3V30H1080V3a3,3,0,0,0-3-3h0Z"/></g><g id="Oval-67-Copy-42"><path class="cls-14" d="M18,10a5,5,0,1,1-5,5,5.00566,5.00566,0,0,1,5-5m0-1a6,6,0,1,0,6,6,6,6,0,0,0-6-6h0Z"/></g><g id="Oval-67-Copy-43"><path class="cls-14" d="M39,10a5,5,0,1,1-5,5,5.00566,5.00566,0,0,1,5-5m0-1a6,6,0,1,0,6,6,6,6,0,0,0-6-6h0Z"/></g><g id="Oval-67-Copy-44"><path class="cls-14" d="M60,10a5,5,0,1,1-5,5,5.00566,5.00566,0,0,1,5-5m0-1a6,6,0,1,0,6,6,6,6,0,0,0-6-6h0Z"/></g><rect id="Rectangle-3-Copy-44" class="cls-13" x="675" y="178" width="403" height="1"/><rect id="Rectangle-3-Copy-45" class="cls-13" x="374" y="132" width="705" height="1"/><path id="Rectangle-232-Copy-9" class="cls-16" d="M28.5,171h33a4.5,4.5,0,0,1,4.5,4.5h0a4.5,4.5,0,0,1-4.5,4.5h-33a4.5,4.5,0,0,1-4.5-4.5h0A4.5,4.5,0,0,1,28.5,171Z"/><rect id="Rectangle-232-Copy-10" class="cls-16" x="24" y="120" width="42" height="42" rx="9" ry="9"/><path id="Rectangle-232-Copy-12" class="cls-16" d="M28.5,255h33a4.5,4.5,0,0,1,4.5,4.5h0a4.5,4.5,0,0,1-4.5,4.5h-33a4.5,4.5,0,0,1-4.5-4.5h0A4.5,4.5,0,0,1,28.5,255Z"/><rect id="Rectangle-232-Copy-11" class="cls-16" x="24" y="204" width="42" height="42" rx="9" ry="9"/><path id="Rectangle-236-Copy-4" class="cls-6" d="M615.5,53h134a4.5,4.5,0,0,1,4.5,4.5h0a4.5,4.5,0,0,1-4.5,4.5h-134a4.5,4.5,0,0,1-4.5-4.5h0A4.5,4.5,0,0,1,615.5,53Z"/><path id="Rectangle-236-Copy-5" class="cls-6" d="M767.5,53h70a4.5,4.5,0,0,1,4.5,4.5h0a4.5,4.5,0,0,1-4.5,4.5h-70a4.5,4.5,0,0,1-4.5-4.5h0A4.5,4.5,0,0,1,767.5,53Z"/><rect id="Rectangle-5-Copy-49" class="cls-13" x="1079" y="30" width="1" height="390"/><g id="Rectangle-414"><rect class="cls-17" x="762.5" y="48.5" width="299" height="71" rx="5.5" ry="5.5"/><path class="cls-18" d="M1056,49a5.00571,5.00571,0,0,1,5,5v60a5.00571,5.00571,0,0,1-5,5H768a5.00567,5.00567,0,0,1-5-5V54a5.00567,5.00567,0,0,1,5-5h288m0-1H768a6,6,0,0,0-6,6v60a6,6,0,0,0,6,6h288a6,6,0,0,0,6-6V54a6,6,0,0,0-6-6h0Z"/></g><path class="cls-1" d="M823.23047,80V67.31738h4.96582c2.1709,0,3.63867,1.26563,3.63867,3.16406A2.8383,2.8383,0,0,1,829.64648,73.25v0.07031a3.03862,3.03862,0,0,1,2.83008,3.12012c0,2.23242-1.59961,3.55957-4.29785,3.55957h-4.94824Zm1.582-7.21582h2.53125c1.87207,0,2.8916-.74707,2.8916-2.11816,0-1.25684-.86133-1.95117-2.39941-1.95117H824.8125v4.06934Zm3.12891,5.81836c1.90723,0,2.90918-.77344,2.90918-2.24121s-1.03711-2.21484-3.05859-2.21484H824.8125v4.45605h3.12891Z"/><path class="cls-1" d="M842.3418,80h-1.44141V78.43555h-0.03516a3.12684,3.12684,0,0,1-3.01465,1.65234c-2.07422,0-3.27832-1.33594-3.27832-3.48926V70.52539h1.5293V76.335c0,1.55566.72949,2.39063,2.21484,2.39063a2.42521,2.42521,0,0,0,2.49609-2.69824v-5.502h1.5293V80Z"/><path class="cls-1" d="M844.8418,68.0293a0.9668,0.9668,0,1,1,.9668.9668A0.96963,0.96963,0,0,1,844.8418,68.0293Zm0.20215,2.49609h1.5293V80h-1.5293V70.52539Z"/><path class="cls-1" d="M849.36328,66.76367h1.5293V80h-1.5293V66.76367Z"/><path class="cls-1" d="M855.625,68.38965v2.13574h1.8457V71.791H855.625v5.68652a1.06241,1.06241,0,0,0,1.17773,1.26563,6.33519,6.33519,0,0,0,.65918-0.04395v1.292a5.53186,5.53186,0,0,1-.98437.0791c-1.71387,0-2.38184-.71191-2.38184-2.53125V71.791h-1.31836V70.52539h1.31836V68.38965h1.5293Z"/><path class="cls-1" d="M864.07031,77.2666c0-1.66992,1.292-2.63672,3.64746-2.78613l2.5752-.14941V73.59277c0-1.08984-.72949-1.6875-2.00391-1.6875a1.82942,1.82942,0,0,0-1.96,1.3623h-1.78418c0.05273-1.6875,1.65234-2.93555,3.79688-2.93555,2.3291,0,3.832,1.23047,3.832,3.12012V80h-1.81934V78.40918h-0.04395a3.33856,3.33856,0,0,1-3.01465,1.6875C865.38867,80.09668,864.07031,78.97168,864.07031,77.2666Zm6.22266-.85254V75.667l-2.32031.1582c-1.30078.0791-1.97754,0.5625-1.97754,1.40625,0,0.81738.71191,1.34473,1.81055,1.34473A2.2768,2.2768,0,0,0,870.293,76.41406Z"/><path class="cls-1" d="M883.58594,75.22754c0,2.95313-1.5918,4.86914-3.99023,4.86914a3.26926,3.26926,0,0,1-3.02344-1.66113h-0.03516v4.72852h-1.9082v-12.709h1.83789v1.582h0.043a3.37382,3.37382,0,0,1,3.041-1.67871C881.98633,70.3584,883.58594,72.26563,883.58594,75.22754Zm-1.95117,0c0-1.96875-1.01953-3.252-2.56641-3.252-1.51172,0-2.541,1.30957-2.54883,3.252,0.00781,1.95117,1.02734,3.252,2.54883,3.252C880.61523,78.47949,881.63477,77.20508,881.63477,75.22754Z"/><path class="cls-1" d="M885.55859,67.99414a1.11635,1.11635,0,0,1,2.23242,0A1.11635,1.11635,0,0,1,885.55859,67.99414Zm0.1582,2.46094H887.623V80H885.7168V70.45508Z"/><path class="cls-1" d="M890.209,82.77734L893.998,67.30859h1.70508l-3.832,15.46875H890.209Z"/><path class="cls-1" d="M898.78906,71.958H897.4707V70.45508h1.31836V69.57617c0-1.78418.80859-2.56641,2.74219-2.56641a5.629,5.629,0,0,1,.9668.08789v1.4502a3.42124,3.42124,0,0,0-.71094-0.07031,0.97974,0.97974,0,0,0-1.11719,1.16016v0.81738h1.83789V71.958H900.6875V80h-1.89844V71.958Z"/><path class="cls-1" d="M912.39844,77.20508c-0.27148,1.71387-1.95117,2.90918-4.0957,2.90918-2.76758,0-4.49023-1.86328-4.49023-4.85156s1.74023-4.93066,4.41211-4.93066c2.61914,0,4.27148,1.81934,4.27148,4.71094v0.668h-6.75977V75.8252a2.52125,2.52125,0,0,0,2.60156,2.74219,2.19735,2.19735,0,0,0,2.24219-1.3623h1.81836Zm-6.65234-2.84766h4.8418a2.32933,2.32933,0,0,0-2.373-2.46973A2.46406,2.46406,0,0,0,905.74609,74.35742Z"/><path class="cls-1" d="M914.14258,77.2666c0-1.66992,1.293-2.63672,3.64844-2.78613l2.57422-.14941V73.59277c0-1.08984-.72852-1.6875-2.00391-1.6875a1.82758,1.82758,0,0,0-1.959,1.3623h-1.78516c0.05273-1.6875,1.65234-2.93555,3.79688-2.93555,2.33008,0,3.832,1.23047,3.832,3.12012V80h-1.81836V78.40918h-0.04492a3.337,3.337,0,0,1-3.01367,1.6875C915.46094,80.09668,914.14258,78.97168,914.14258,77.2666Zm6.22266-.85254V75.667l-2.32031.1582c-1.30078.0791-1.97656,0.5625-1.97656,1.40625,0,0.81738.71094,1.34473,1.81055,1.34473A2.27647,2.27647,0,0,0,920.36523,76.41406Z"/><path class="cls-1" d="M927.17188,68.31055v2.14453H929V71.958h-1.82812v5.335a1.03866,1.03866,0,0,0,1.16992,1.21289,6.16713,6.16713,0,0,0,.65039-0.04395v1.50293a5.38575,5.38575,0,0,1-1.07227.09668c-1.9082,0-2.64648-.72949-2.64648-2.5752V71.958h-1.31836V70.45508h1.31836V68.31055h1.89844Z"/><path class="cls-1" d="M939.28711,80h-1.81836V78.36523h-0.03516a3.03115,3.03115,0,0,1-2.98047,1.74023c-2.082,0-3.34766-1.34473-3.34766-3.5332V70.45508h1.90625v5.75684c0,1.46777.69531,2.25,2.07422,2.25a2.24447,2.24447,0,0,0,2.29492-2.50488v-5.502h1.90625V80Z"/><path class="cls-1" d="M941.7793,70.45508h1.81836v1.6084h0.03516a2.285,2.285,0,0,1,2.30273-1.70508,3.12153,3.12153,0,0,1,.668.06152V72.2041a2.78822,2.78822,0,0,0-.86914-0.11426,1.99545,1.99545,0,0,0-2.04883,2.21484V80H941.7793V70.45508Z"/><path class="cls-1" d="M956.127,77.20508c-0.27344,1.71387-1.95117,2.90918-4.0957,2.90918-2.76953,0-4.49219-1.86328-4.49219-4.85156s1.74023-4.93066,4.41211-4.93066c2.61914,0,4.27148,1.81934,4.27148,4.71094v0.668h-6.75781V75.8252a2.52125,2.52125,0,0,0,2.60156,2.74219,2.19468,2.19468,0,0,0,2.24023-1.3623H956.127Zm-6.6543-2.84766h4.84375a2.33042,2.33042,0,0,0-2.373-2.46973A2.46568,2.46568,0,0,0,949.47266,74.35742Z"/><path class="cls-1" d="M958.33594,75.8252V74.11133h5.76563V75.8252h-5.76562Z"/><path class="cls-1" d="M968.59766,78.38281h-0.04492V80H966.7168V66.74609H968.623v5.291h0.03516a3.27956,3.27956,0,0,1,3.02344-1.67871c2.4082,0,3.99023,1.90723,3.99023,4.86914s-1.582,4.86914-4.00781,4.86914A3.29759,3.29759,0,0,1,968.59766,78.38281Zm0.01758-3.15527c0,1.94238,1.02734,3.252,2.56641,3.252,1.53711,0,2.53906-1.27441,2.53906-3.252s-1.002-3.252-2.53906-3.252C969.64258,71.97559,968.61523,73.29395,968.61523,75.22754Z"/><path class="cls-1" d="M977.73242,70.45508h1.81934v1.6084h0.03516a2.285,2.285,0,0,1,2.30273-1.70508,3.12842,3.12842,0,0,1,.668.06152V72.2041a2.79071,2.79071,0,0,0-.87012-0.11426,1.99523,1.99523,0,0,0-2.04785,2.21484V80h-1.90723V70.45508Z"/><path class="cls-1" d="M983.7041,77.2666c0-1.66992,1.292-2.63672,3.64746-2.78613l2.5752-.14941V73.59277c0-1.08984-.72949-1.6875-2.00391-1.6875a1.82942,1.82942,0,0,0-1.96,1.3623h-1.78418c0.05273-1.6875,1.65234-2.93555,3.79688-2.93555,2.3291,0,3.832,1.23047,3.832,3.12012V80h-1.81934V78.40918h-0.04395a3.33856,3.33856,0,0,1-3.01465,1.6875C985.02246,80.09668,983.7041,78.97168,983.7041,77.2666Zm6.22266-.85254V75.667l-2.32031.1582c-1.30078.0791-1.97754,0.5625-1.97754,1.40625,0,0.81738.71191,1.34473,1.81055,1.34473A2.2768,2.2768,0,0,0,989.92676,76.41406Z"/><path class="cls-1" d="M994.26367,70.45508H996.083v1.6084h0.03516a3.08176,3.08176,0,0,1,3.01465-1.71387c2.10938,0,3.31348,1.33594,3.31348,3.5332V80h-1.90723V74.24316c0-1.4502-.668-2.25879-2.06543-2.25879a2.24549,2.24549,0,0,0-2.30273,2.50488V80h-1.90723V70.45508Z"/><path class="cls-1" d="M1011.23047,73.71582a2.13238,2.13238,0,0,0-2.27637-1.77539c-1.53809,0-2.55762,1.2832-2.55762,3.28711,0,2.05664,1.03711,3.28711,2.56641,3.28711A2.09972,2.09972,0,0,0,1011.248,76.792h1.81934c-0.21973,1.99512-1.81934,3.32227-4.11328,3.32227-2.707,0-4.49121-1.86328-4.49121-4.88672,0-2.9707,1.77539-4.89551,4.47363-4.89551a3.82736,3.82736,0,0,1,4.11328,3.38379h-1.81934Z"/><path class="cls-1" d="M1015.084,66.74609h1.88965v5.31738h0.04395a3.08994,3.08994,0,0,1,3.01465-1.71387,3.21128,3.21128,0,0,1,3.35742,3.55078V80h-1.90723V74.26953a1.99092,1.99092,0,0,0-2.10937-2.28516,2.30367,2.30367,0,0,0-2.38184,2.54883V80H1015.084V66.74609Z"/><path class="cls-19" d="M823.25781,99V89.13574h1.42871l3.377,8.16211h0.10938l3.377-8.16211h1.42871V99h-1.14844V91.4668h-0.082l-3.11035,7.46484h-1.03906l-3.11035-7.46484h-0.082V99h-1.14844Z"/><path class="cls-19" d="M835.44629,101.625v-1.00488a2.8304,2.8304,0,0,0,.49219.03418,1.364,1.364,0,0,0,1.35352-1.21l0.13672-.4375-2.72754-7.376h1.27148l2.02344,6.06348h0.10938l2.0166-6.06348h1.251l-2.87793,7.82031c-0.62891,1.709-1.2168,2.21484-2.52246,2.21484A3.48049,3.48049,0,0,1,835.44629,101.625Z"/><path class="cls-19" d="M842.77441,98.13867l4.252-5.41406V92.61523h-4.24512V91.63086h5.64648V92.5127l-4.23145,5.39355v0.10938h4.252V99h-5.67383V98.13867Z"/><path class="cls-19" d="M852.16016,89.72363v1.90723h1.64063v0.98438h-1.64062v4.16992a1.00489,1.00489,0,0,0,1.09375,1.2373,4.96526,4.96526,0,0,0,.54688-0.02734v0.99121a3.93876,3.93876,0,0,1-.69043.06836c-1.51758,0-2.126-.56055-2.126-1.96875v-4.4707h-1.18945V91.63086h1.18945V89.72363h1.17578Z"/><path class="cls-19" d="M855.373,89.31348a0.82031,0.82031,0,1,1,.82031.82031A0.82272,0.82272,0,0,1,855.373,89.31348Zm0.23242,2.31738h1.17578V99h-1.17578V91.63086Z"/><path class="cls-19" d="M864.0957,92.86133h0.10938V91.63086h1.13477v9.83008h-1.18945V97.89258H864.041a2.5093,2.5093,0,0,1-2.30371,1.2373c-1.87988,0-3.083-1.49023-3.083-3.81445,0-2.31055,1.2168-3.81445,3.083-3.81445A2.6574,2.6574,0,0,1,864.0957,92.86133Zm0.08887,2.4541c0-1.68848-.84082-2.75488-2.17383-2.75488-1.33984,0-2.13965,1.03223-2.13965,2.75488,0,1.72949.793,2.75488,2.13281,2.75488C863.35059,98.07031,864.18457,97.01074,864.18457,95.31543Z"/><path class="cls-19" d="M878.19141,95.31543c0,2.30371-1.22363,3.81445-3.09668,3.81445a2.47322,2.47322,0,0,1-2.30371-1.2373h-0.10937v3.56836h-1.17578V91.63086H872.627v1.23047h0.10938a2.65658,2.65658,0,0,1,2.3584-1.36035C876.97461,91.501,878.19141,92.998,878.19141,95.31543Zm-1.2168,0c0-1.72266-.80664-2.75488-2.15332-2.75488-1.333,0-2.17383,1.05957-2.17383,2.75488,0,1.68848.84082,2.75488,2.167,2.75488C876.168,98.07031,876.97461,97.03809,876.97461,95.31543Z"/><path class="cls-19" d="M885.998,99H884.877V97.84473h-0.10937a2.2993,2.2993,0,0,1-2.2832,1.28516c-1.6543,0-2.51562-.98437-2.51562-2.72754V91.63086h1.17578v4.48438c0,1.32617.49219,1.94141,1.668,1.94141a1.85394,1.85394,0,0,0,2.00977-2.06445V91.63086H885.998V99Z"/><path class="cls-19" d="M890.79,91.501c1.54492,0,2.61816.76563,2.77539,1.97559h-1.16211a1.50226,1.50226,0,0,0-1.62012-.97754,1.34664,1.34664,0,0,0-1.55859,1.10059c0,0.50586.41016,0.82031,1.27832,1.03223l1.13477,0.27344c1.3877,0.335,2.05762.93652,2.05762,1.99609,0,1.31934-1.27832,2.22852-2.95312,2.22852-1.64062,0-2.76855-.78613-2.89844-2.00977h1.21a1.62316,1.62316,0,0,0,1.72949,1.01855c0.99121,0,1.70215-.47168,1.70215-1.14844a1.19165,1.19165,0,0,0-1.16895-1.03906l-1.26465-.30762c-1.38086-.335-2.00977-0.92969-2.00977-1.99609C888.042,92.42383,889.22461,91.501,890.79,91.501Z"/><path class="cls-19" d="M895.60938,88.70508h1.17578V92.793h0.10938a2.29391,2.29391,0,0,1,2.26953-1.292,2.43131,2.43131,0,0,1,2.543,2.72754V99h-1.17578V94.51563c0-1.30566-.58789-1.95508-1.70215-1.95508a1.90193,1.90193,0,0,0-2.04395,2.07813V99h-1.17578V88.70508Z"/><path class="cls-19" d="M909.91016,97.09277a2.94589,2.94589,0,0,1-3.10352,2.03711c-2.04395,0-3.32227-1.47656-3.32227-3.80762,0-2.31738,1.29883-3.82129,3.32227-3.82129,1.98926,0,3.19922,1.415,3.19922,3.70508v0.45117H904.708v0.05469a2.16932,2.16932,0,0,0,2.126,2.37891,1.909,1.909,0,0,0,1.90039-.998h1.17578ZM904.708,94.707h4.06055A1.98357,1.98357,0,0,0,906.793,92.54,2.09906,2.09906,0,0,0,904.708,94.707Z"/><path class="cls-19" d="M911.48242,95.31543c0-2.31055,1.22363-3.81445,3.09668-3.81445a2.51835,2.51835,0,0,1,2.31055,1.292h0.10254V88.70508H918.168V99h-1.12109V97.82422H916.9375a2.64062,2.64062,0,0,1-2.3584,1.30566C912.69238,99.12988,911.48242,97.63281,911.48242,95.31543Zm1.2168,0c0,1.72266.80664,2.75488,2.15332,2.75488,1.33984,0,2.167-1.05273,2.167-2.75488,0-1.68848-.834-2.75488-2.167-2.75488C913.5127,92.56055,912.69922,93.59961,912.69922,95.31543Z"/><path class="cls-19" d="M923.96484,96.93555c0-1.31934.9707-2.07812,2.68652-2.18066l2.126-.12988V93.95508a1.38879,1.38879,0,0,0-1.668-1.4082,1.5416,1.5416,0,0,0-1.66113.916h-1.18945c0.15723-1.18262,1.31934-1.96191,2.8916-1.96191,1.79785,0,2.80273.92285,2.80273,2.4541V99H928.832V97.91309h-0.10937a2.54585,2.54585,0,0,1-2.26953,1.2168A2.24111,2.24111,0,0,1,923.96484,96.93555Zm4.8125-.68359V95.5752l-1.98242.12988c-1.12109.0752-1.61328,0.46484-1.61328,1.20313a1.287,1.287,0,0,0,1.49023,1.18945A1.9385,1.9385,0,0,0,928.77734,96.252Z"/><path class="cls-19" d="M938.65527,91.501c1.54492,0,2.61816.76563,2.77539,1.97559h-1.16211a1.50226,1.50226,0,0,0-1.62012-.97754,1.34664,1.34664,0,0,0-1.55859,1.10059c0,0.50586.41016,0.82031,1.27832,1.03223l1.13477,0.27344c1.3877,0.335,2.05762.93652,2.05762,1.99609,0,1.31934-1.27832,2.22852-2.95312,2.22852-1.64062,0-2.76855-.78613-2.89844-2.00977h1.21a1.62316,1.62316,0,0,0,1.72949,1.01855c0.99121,0,1.70215-.47168,1.70215-1.14844a1.19165,1.19165,0,0,0-1.16895-1.03906l-1.26465-.30762c-1.38086-.335-2.00977-0.92969-2.00977-1.99609C935.90723,92.42383,937.08984,91.501,938.65527,91.501Z"/><path class="cls-19" d="M949.46289,97.09277a2.94589,2.94589,0,0,1-3.10352,2.03711c-2.04395,0-3.32227-1.47656-3.32227-3.80762,0-2.31738,1.29883-3.82129,3.32227-3.82129,1.98926,0,3.19922,1.415,3.19922,3.70508v0.45117h-5.29785v0.05469a2.16932,2.16932,0,0,0,2.126,2.37891,1.909,1.909,0,0,0,1.90039-.998h1.17578ZM944.26074,94.707h4.06055a1.98357,1.98357,0,0,0-1.97559-2.167A2.09906,2.09906,0,0,0,944.26074,94.707Z"/><path class="cls-19" d="M956.3125,93.88672a1.82652,1.82652,0,0,0-1.90039-1.32617c-1.32617,0-2.16016,1.05957-2.16016,2.72754,0,1.70215.84766,2.78223,2.16016,2.78223a1.77314,1.77314,0,0,0,1.90039-1.292H957.502a2.84634,2.84634,0,0,1-3.083,2.35156c-2.06445,0-3.38379-1.49707-3.38379-3.8418,0-2.29687,1.3125-3.78711,3.377-3.78711a2.8919,2.8919,0,0,1,3.08984,2.38574H956.3125Z"/><path class="cls-19" d="M958.86914,95.31543c0-2.37207,1.29883-3.81445,3.39746-3.81445s3.39746,1.44238,3.39746,3.81445c0,2.36523-1.29883,3.81445-3.39746,3.81445S958.86914,97.68066,958.86914,95.31543Zm5.57813,0c0-1.75-.78613-2.75488-2.18066-2.75488s-2.18066,1.00488-2.18066,2.75488c0,1.74316.78613,2.75488,2.18066,2.75488S964.44727,97.05859,964.44727,95.31543Z"/><path class="cls-19" d="M967.50977,91.63086h1.12109V92.793h0.10938a2.21484,2.21484,0,0,1,2.21484-1.292,2.40212,2.40212,0,0,1,2.57715,2.72754V99h-1.17578V94.51563c0-1.32617-.56055-1.95508-1.73633-1.95508a1.86842,1.86842,0,0,0-1.93457,2.07813V99h-1.17578V91.63086Z"/><path class="cls-19" d="M975.30957,95.31543c0-2.31055,1.22363-3.81445,3.09668-3.81445a2.51835,2.51835,0,0,1,2.31055,1.292h0.10254V88.70508h1.17578V99H980.874V97.82422h-0.10937a2.64062,2.64062,0,0,1-2.3584,1.30566C976.51953,99.12988,975.30957,97.63281,975.30957,95.31543Zm1.2168,0c0,1.72266.80664,2.75488,2.15332,2.75488,1.33984,0,2.167-1.05273,2.167-2.75488,0-1.68848-.834-2.75488-2.167-2.75488C977.33984,92.56055,976.52637,93.59961,976.52637,95.31543Z"/><path class="cls-19" d="M987.792,96.93555c0-1.31934.9707-2.07812,2.68652-2.18066l2.126-.12988V93.95508a1.38879,1.38879,0,0,0-1.668-1.4082,1.5416,1.5416,0,0,0-1.66113.916h-1.18945c0.15723-1.18262,1.31934-1.96191,2.8916-1.96191,1.79785,0,2.80273.92285,2.80273,2.4541V99h-1.12109V97.91309H992.5498a2.54585,2.54585,0,0,1-2.26953,1.2168A2.24111,2.24111,0,0,1,987.792,96.93555Zm4.8125-.68359V95.5752l-1.98242.12988c-1.12109.0752-1.61328,0.46484-1.61328,1.20313a1.287,1.287,0,0,0,1.49023,1.18945A1.9385,1.9385,0,0,0,992.60449,96.252Z"/><path class="cls-19" d="M995.89941,99.81348h1.24414c0.12988,0.60156.78613,0.99121,1.8457,0.99121,1.31934,0,2.10547-.64941,2.10547-1.73633V97.61914h-0.10937a2.55642,2.55642,0,0,1-2.31055,1.27148c-1.90723,0-3.08984-1.47656-3.08984-3.68457s1.19629-3.70508,3.08984-3.70508A2.63828,2.63828,0,0,1,1001.04,92.7998h0.10938V91.63086h1.12109v7.499c0,1.64746-1.27148,2.7002-3.28125,2.7002C997.21191,101.83008,996.07715,101.03027,995.89941,99.81348Zm3.03516-7.25293c-1.36719,0-2.13281,1.03906-2.13281,2.64551s0.76563,2.64551,2.13281,2.64551,2.1875-1.03906,2.1875-2.64551S1000.29492,92.56055,998.93457,92.56055Z"/><path class="cls-19" d="M1004.11621,95.31543c0-2.37207,1.29883-3.81445,3.39746-3.81445s3.39746,1.44238,3.39746,3.81445c0,2.36523-1.29883,3.81445-3.39746,3.81445S1004.11621,97.68066,1004.11621,95.31543Zm5.57813,0c0-1.75-.78613-2.75488-2.18066-2.75488s-2.18066,1.00488-2.18066,2.75488c0,1.74316.78613,2.75488,2.18066,2.75488S1009.69434,97.05859,1009.69434,95.31543Z"/><path id="Fill-3" class="cls-20" d="M802.92119,74.64674a4.78229,4.78229,0,0,1,1.063-.809c0.81489-.5143,1.7385-1.0972,1.66572-2.2958a2.38015,2.38015,0,0,0-1.08325-1.68341,3.30811,3.30811,0,0,0-2.49887-.70285,2.9503,2.9503,0,0,0-2.05145,2.35448,14.83127,14.83127,0,0,0-3.64713-.64259,3.041,3.041,0,0,1,.513-0.66919,1.98261,1.98261,0,0,0-1.38714.29023c0.19833-.18682.38875-0.49862,0.59671-0.68775a3.3392,3.3392,0,0,0-2.63852,1.01077,12.92291,12.92291,0,0,0-3.60154.61972,2.90925,2.90925,0,0,0-2.02944-2.27566,3.307,3.307,0,0,0-2.49873.70285,2.38038,2.38038,0,0,0-1.0834,1.68341c-0.07263,1.1986.85084,1.7815,1.66587,2.2958a5.47144,5.47144,0,0,1,.97956.72011c-1.49026,4.28828-1.3811,12.38377-1.3811,12.38377l-0.15389,1.72253a14.38067,14.38067,0,0,0,18.7186.49747c-0.07047-1.12381-.07522-2.22-0.07522-2.22,0.0558-1.8409.2363-8.44971-1.07275-12.29489"/><path id="Fill-6" class="cls-17" d="M792.174,76.48434c1.6197-2.321,8.64574-1.63984,5.77164,5.79062-0.41693,1.08268-.9124,2.14666-1.37665,3.20934a1.393,1.393,0,0,0-.18884-0.198c-0.49575.81345-1.10727,0.44009-1.625-.30317-0.144.16122-1.17012,0.45821-1.31969,0.61555-1.54132-1.86405-2.88187-6.793-1.26145-9.1143"/><path id="Fill-8" class="cls-20" d="M797.04481,77.34473a4.98393,4.98393,0,0,0-4.08837,0c-0.59757.61756,0.64288,1.967,1.76611,2.24676a0.28707,0.28707,0,0,0-.00489.0476v2.29767a0.28706,0.28706,0,0,0,.044.57082h0.47777a0.28741,0.28741,0,0,0,.05365-0.56981V79.63909a0.28492,0.28492,0,0,0-.005-0.04991c1.12079-.28491,2.35232-1.62862,1.75676-2.24446"/><circle class="cls-21" cx="795.00007" cy="78" r="15"/><circle id="Oval-126-Copy" class="cls-1" cx="784.5" cy="88.5" r="7.5"/><path id="Rectangle-1207" class="cls-17" d="M780.70711,87.94972h0a1,1,0,0,1,1.41421,0l2.12132,2.12132a1,1,0,0,1,0,1.41421h0a1,1,0,0,1-1.41421,0l-2.12132-2.12132A1,1,0,0,1,780.70711,87.94972Z"/><path id="Rectangle-1207-Copy" class="cls-17" d="M782.82843,90.071l4.24264-4.24264a1,1,0,0,1,1.41421,0h0a1,1,0,0,1,0,1.41421l-4.24264,4.24264a1,1,0,0,1-1.41421,0h0A1,1,0,0,1,782.82843,90.071Z"/></svg>