<svg id="Layer_1" data-name="Layer 1" xmlns="http://www.w3.org/2000/svg" viewBox="0 0 18 18"><title>icons-product-owner</title><rect width="18" height="18" fill="none"/><path d="M62.21,6.034L58.192,2.513A1,1,0,0,1,58.9.806h8.036a1,1,0,0,1,.707,1.707L63.624,6.034A1,1,0,0,1,62.21,6.034Z" transform="translate(-53.917 0)" fill="none" stroke="#000" stroke-linecap="round" stroke-linejoin="round"/><path d="M62.917,17.194l-3.722-3.3a1,1,0,0,1-.186-1.276l3.908-6.294,3.908,6.294a1,1,0,0,1-.186,1.276Z" transform="translate(-53.917 0)" fill="none" stroke="#000" stroke-linecap="round" stroke-linejoin="round"/><line x1="9" y1="10.455" x2="6.07" y2="14.598" fill="none" stroke="#000" stroke-linecap="round" stroke-linejoin="round" stroke-width="0.5"/><line x1="9.468" y1="12.894" x2="7.56" y2="15.592" fill="none" stroke="#000" stroke-linecap="round" stroke-linejoin="round" stroke-width="0.5"/></svg>