<svg id="Layer_1" data-name="Layer 1" xmlns="http://www.w3.org/2000/svg" viewBox="0 0 60 60"><title>icons-scale</title><circle cx="30.414" cy="561.919" r="22.78" transform="translate(-388.843 -345.83) rotate(-45)" fill="#ffe2c0" stroke="#593873" stroke-linecap="round" stroke-linejoin="round" stroke-width="2"/><line x1="51.406" y1="22.209" x2="47.421" y2="23.659" fill="#eaeaea" stroke="#593873" stroke-linecap="round" stroke-linejoin="round"/><line x1="52.693" y1="31.985" x2="48.256" y2="31.597" fill="#eaeaea" stroke="#593873" stroke-linecap="round" stroke-linejoin="round"/><line x1="49.728" y1="41.39" x2="46.023" y2="39.251" fill="#eaeaea" stroke="#593873" stroke-linecap="round" stroke-linejoin="round"/><line x1="37.791" y1="8.594" x2="36.425" y2="12.346" fill="#eaeaea" stroke="#593873" stroke-linecap="round" stroke-linejoin="round"/><line x1="28.015" y1="7.307" x2="28.37" y2="11.37" fill="#eaeaea" stroke="#593873" stroke-linecap="round" stroke-linejoin="round"/><line x1="18.61" y1="10.272" x2="20.622" y2="13.756" fill="#eaeaea" stroke="#593873" stroke-linecap="round" stroke-linejoin="round"/><line x1="8.499" y1="37.886" x2="12.484" y2="36.436" fill="#eaeaea" stroke="#593873" stroke-linecap="round" stroke-linejoin="round"/><line x1="7.212" y1="28.11" x2="11.649" y2="28.498" fill="#eaeaea" stroke="#593873" stroke-linecap="round" stroke-linejoin="round"/><line x1="10.177" y1="18.705" x2="13.883" y2="20.844" fill="#eaeaea" stroke="#593873" stroke-linecap="round" stroke-linejoin="round"/><line x1="22.114" y1="51.501" x2="23.48" y2="47.748" fill="#eaeaea" stroke="#593873" stroke-linecap="round" stroke-linejoin="round"/><line x1="31.89" y1="52.788" x2="31.535" y2="48.725" fill="#eaeaea" stroke="#593873" stroke-linecap="round" stroke-linejoin="round"/><line x1="41.295" y1="49.823" x2="39.283" y2="46.339" fill="#eaeaea" stroke="#593873" stroke-linecap="round" stroke-linejoin="round"/><line x1="16.773" y1="43.227" x2="13.892" y2="46.108" fill="#eaeaea" stroke="#593873" stroke-linecap="round" stroke-linejoin="round"/><path d="M30.414,561.919" transform="translate(-0.414 -531.919)" fill="#ef606e" stroke="#52306c" stroke-linecap="round" stroke-linejoin="round"/><rect width="60" height="60" fill="none"/><path d="M16.9,565.585a14,14,0,0,1,23.37-13.61" transform="translate(-0.414 -531.919)" fill="none" stroke="#fff" stroke-linecap="round" stroke-linejoin="round"/><path d="M23.36,574.014a14.069,14.069,0,0,1-5.078-5.1" transform="translate(-0.414 -531.919)" fill="none" stroke="#fff" stroke-linecap="round" stroke-linejoin="round"/><path d="M27.549,575.625a13.894,13.894,0,0,1-1.805-.5" transform="translate(-0.414 -531.919)" fill="none" stroke="#fff" stroke-linecap="round" stroke-linejoin="round"/><path d="M25.892,569.117a8.536,8.536,0,0,1-1.362-1.065" transform="translate(-0.414 -531.919)" fill="none" stroke="#fff" stroke-linecap="round" stroke-linejoin="round"/><path d="M22.719,565.534a8.5,8.5,0,0,1,7.7-12.115" transform="translate(-0.414 -531.919)" fill="none" stroke="#fff" stroke-linecap="round" stroke-linejoin="round"/><polyline points="27.879 27.879 32.121 32.121 43.319 16.681 27.879 27.879" fill="#cc5261" stroke="#52306c" stroke-linecap="round" stroke-linejoin="round"/><circle cx="30.061" cy="562.625" r="3.25" transform="translate(-389.446 -345.873) rotate(-45)" opacity="0.2"/><circle cx="30.414" cy="561.919" r="3" transform="translate(-388.843 -345.83) rotate(-45)" fill="#ef606e" stroke="#52306c" stroke-linecap="round" stroke-linejoin="round"/><circle cx="30.414" cy="561.919" r="0.458" transform="translate(-388.843 -345.83) rotate(-45)" fill="none" stroke="#52306c" stroke-linecap="round" stroke-linejoin="round"/></svg>