<svg xmlns="http://www.w3.org/2000/svg" viewBox="0 0 55.317 60"><title>icons-open</title><path d="M22.1 31.9h-.2L19 30.3a.52.52 0 0 1-.2-.4v-3.1a.52.52 0 0 1 .2-.4l2.9-1.6h.3l2.9 1.6a.52.52 0 0 1 .2.4v3.1a.52.52 0 0 1-.2.4l-2.9 1.6h-.1z" fill="#e6e6e6"/><path d="M22.1 24.9l3 1.6c.1 0 .1.1.1.2v3.1c0 .1 0 .2-.1.2l-2.9 1.6.2.4-.3-.4-2.9-1.6c-.1 0-.1-.1-.1-.2v-3.1c0-.1 0-.2.1-.2l2.9-1.6m0-.4a.367.367 0 0 0-.3.1L19 26.2a.6.6 0 0 0-.3.6v3.1a.713.713 0 0 0 .3.6l2.9 1.6a.446.446 0 0 0 .5 0l2.9-1.6a.6.6 0 0 0 .3-.6v-3.1a.713.713 0 0 0-.3-.6l-2.9-1.6a.367.367 0 0 0-.3-.1z" fill="#999"/><path d="M28.5 23.7h5.4v5.5h2.7a12.558 12.558 0 0 0 3.8-.6 14.167 14.167 0 0 0 1.8-.8 7.09 7.09 0 0 1-1.3-3.5 7.43 7.43 0 0 1 1.3-5.2l.6-.7.7.5a8.687 8.687 0 0 1 3.4 5.5 8.632 8.632 0 0 1 6.3.6l.8.4-.4.8c-1.5 3-4.7 3.9-7.9 3.8C41 41.7 30.8 47.2 18.4 47.2c-6.4 0-12.3-2.4-15.6-8.1V39l-.5-1a15.532 15.532 0 0 1-1.2-8l.1-.8h4.6v-5.5h5.4v-5.4H22v-5.4h6.5v10.8z" fill="#394d54" stroke="#394d54" stroke-miterlimit="10" stroke-width="1.963"/><g data-name="body colors"><path d="M46.1 25.7a7.148 7.148 0 0 0-3.1-6.1c-1.5 1.7-1.7 6.3.6 8.2a11.02 11.02 0 0 1-7 2.2H2a15.016 15.016 0 0 0 1.4 8.1l.4.7c.3.4.5.8.8 1.2 1.4.1 2.7.1 3.9.1a23.16 23.16 0 0 0 5.8-.8.412.412 0 1 1 .2.8c-.2.1-.4.1-.6.2a13.364 13.364 0 0 1-4 .6H7.6a17.7 17.7 0 0 1-2.3-.1A17.334 17.334 0 0 0 18.4 46c12 0 22.2-5.3 26.7-17.2 3.2.3 6.3-.5 7.7-3.2a8.234 8.234 0 0 0-6.7.1z" fill="#00aada"/><path d="M46.1 25.7a7.148 7.148 0 0 0-3.1-6.1c-1.5 1.7-1.7 6.3.6 8.2a11.02 11.02 0 0 1-7 2.2H4a11.312 11.312 0 0 0 4.5 10.1 23.16 23.16 0 0 0 5.8-.8.412.412 0 1 1 .2.8c-.2.1-.4.1-.6.2a18.508 18.508 0 0 1-4.1.7c4.1 2.1 10 2.1 16.8-.5a47.163 47.163 0 0 0 19.6-14.9.1.1 0 0 1-.1.1z" fill="#24b8eb"/><path d="M2.1 33.7a13.332 13.332 0 0 0 1.4 4.4l.4.7c.3.4.5.8.8 1.2 1.4.1 2.7.1 3.9.1a23.16 23.16 0 0 0 5.8-.8.412.412 0 1 1 .2.8c-.2.1-.4.1-.6.2a18.508 18.508 0 0 1-4.1.7h-.2c-.6 0-1.3.1-2 .1a20.084 20.084 0 0 1-2.4-.1 17.334 17.334 0 0 0 13.1 5.2c10.3 0 19.2-3.9 24.4-12.5H2.1z" fill="#008bb8"/><path d="M4.3 33.7a10.24 10.24 0 0 0 4.2 6.5 23.16 23.16 0 0 0 5.8-.8.412.412 0 1 1 .2.8c-.2.1-.4.1-.6.2a18.508 18.508 0 0 1-4.1.7c4.1 2.1 10 2.1 16.8-.5a41.12 41.12 0 0 0 11.6-6.8l-33.9-.1z" fill="#039bc6"/></g><path d="M6.7 24.6h4.7v4.7H6.7v-4.7zM12.1 19.2h4.7v4.7h-4.7v-4.7z" fill="#00acd3"/><path d="M12.1 24.6h4.7v4.7h-4.7v-4.7z" fill="#20c2ef"/><path d="M17.5 24.6h4.7v4.7h-4.7v-4.7z" fill="#00acd3"/><path d="M17.5 19.2h4.7v4.7h-4.7v-4.7zM22.9 24.6h4.7v4.7h-4.7v-4.7z" fill="#20c2ef"/><path d="M22.9 19.2h4.7v4.7h-4.7v-4.7z" fill="#00acd3"/><path d="M22.9 13.8h4.7v4.7h-4.7v-4.7z" fill="#20c2ef"/><path d="M28.4 24.6H33v4.7h-4.7v-4.7h.1z" fill="#00acd3"/><path d="M16.5 36.9a1.3 1.3 0 1 1-1.3 1.3 1.324 1.324 0 0 1 1.3-1.3" fill="#d4edf1"/><path d="M16.5 37.3a.367.367 0 0 1 .3.1.36.36 0 1 0 .4.6c.1 0 .1-.1.1-.2a.92.92 0 1 1-1.2-.5.535.535 0 0 1 .4 0" fill="#394d54"/><path d="M19.9 46.2a11.154 11.154 0 0 1-5.9-5.8 20.324 20.324 0 0 1-4.3.7c-.6 0-1.3.1-2 .1a21.75 21.75 0 0 1-2.5-.1 16.918 16.918 0 0 0 13.3 5.2 7.084 7.084 0 0 1 1.4-.1z" fill="#bfdbe0"/><path d="M15.2 42.4a7.193 7.193 0 0 1-1.2-2.1 20.324 20.324 0 0 1-4.3.7 11.824 11.824 0 0 0 5.5 1.4z" fill="#d4edf1"/><path fill="none" d="M0 0h55v60H0z"/></svg>