<svg xmlns="http://www.w3.org/2000/svg" viewBox="0 0 55 60"><title>icons-security</title><path d="M27.5 52.5A22.5 22.5 0 1 1 50 30a22.534 22.534 0 0 1-22.5 22.5z" fill="#f2c172"/><path d="M27.5 9a21 21 0 1 1-21 21 21 21 0 0 1 21-21m0-3a24 24 0 1 0 24 24 24.07 24.07 0 0 0-24-24z" fill="#ad8850"/><circle cx="27.5" cy="30" r="9.9" fill="#d1a156"/><path d="M31.1 27.6a3.6 3.6 0 1 0-7.2 0 3.628 3.628 0 0 0 2.1 3.3l-.6 3.4a1.48 1.48 0 0 0 1.2 1.7h1.5a1.538 1.538 0 0 0 1.5-1.5v-.2l-.6-3.5a3.386 3.386 0 0 0 2.1-3.2z" fill="#414042"/><path fill="none" d="M0 0h55v60H0z"/></svg>