<svg id="open" xmlns="http://www.w3.org/2000/svg" viewBox="0 0 55.317 60"><title>icons-open</title><path d="M22.1,31.9H21.9L19,30.3a0.52,0.52,0,0,1-.2-0.4V26.8a0.52,0.52,0,0,1,.2-0.4l2.9-1.6h0.3l2.9,1.6a0.52,0.52,0,0,1,.2.4v3.1a0.52,0.52,0,0,1-.2.4l-2.9,1.6H22.1Z" style="fill:#e6e6e6"/><path d="M22.1,24.9h0l3,1.6c0.1,0,.1.1,0.1,0.2v3.1c0,0.1,0,.2-0.1.2l-2.9,1.6L22.4,32l-0.3-.4L19.2,30c-0.1,0-.1-0.1-0.1-0.2V26.7c0-.1,0-0.2.1-0.2l2.9-1.6h0m0-.4a0.367,0.367,0,0,0-.3.1L19,26.2a0.6,0.6,0,0,0-.3.6v3.1a0.713,0.713,0,0,0,.3.6l2.9,1.6a0.446,0.446,0,0,0,.5,0l2.9-1.6a0.6,0.6,0,0,0,.3-0.6V26.8a0.713,0.713,0,0,0-.3-0.6l-2.9-1.6a0.367,0.367,0,0,0-.3-0.1h0Z" style="fill:#999"/><path id="outline" d="M28.5,23.7h5.4v5.5h2.7a12.558,12.558,0,0,0,3.8-.6,14.167,14.167,0,0,0,1.8-.8,7.091,7.091,0,0,1-1.3-3.5,7.429,7.429,0,0,1,1.3-5.2l0.6-.7,0.7,0.5a8.687,8.687,0,0,1,3.4,5.5,8.632,8.632,0,0,1,6.3.6L54,25.4l-0.4.8c-1.5,3-4.7,3.9-7.9,3.8C41,41.7,30.8,47.2,18.4,47.2c-6.4,0-12.3-2.4-15.6-8.1V39L2.3,38a15.532,15.532,0,0,1-1.2-8l0.1-.8H5.8V23.7h5.4V18.3H22V12.9h6.5V23.7h0Z" style="fill:#394d54;stroke:#394d54;stroke-miterlimit:10;stroke-width:1.9630000591278076px"/><g id="body_colors" data-name="body colors"><path d="M46.1,25.7A7.148,7.148,0,0,0,43,19.6c-1.5,1.7-1.7,6.3.6,8.2a11.02,11.02,0,0,1-7,2.2H2a15.016,15.016,0,0,0,1.4,8.1l0.4,0.7c0.3,0.4.5,0.8,0.8,1.2h0c1.4,0.1,2.7.1,3.9,0.1h0a23.161,23.161,0,0,0,5.8-.8,0.412,0.412,0,1,1,.2.8c-0.2.1-.4,0.1-0.6,0.2h0a13.364,13.364,0,0,1-4,.6H7.6a17.7,17.7,0,0,1-2.3-.1h0A17.334,17.334,0,0,0,18.4,46c12,0,22.2-5.3,26.7-17.2,3.2,0.3,6.3-.5,7.7-3.2A8.234,8.234,0,0,0,46.1,25.7Z" style="fill:#00aada"/><path d="M46.1,25.7A7.148,7.148,0,0,0,43,19.6c-1.5,1.7-1.7,6.3.6,8.2a11.02,11.02,0,0,1-7,2.2H4A11.312,11.312,0,0,0,8.5,40.1h0a23.161,23.161,0,0,0,5.8-.8,0.412,0.412,0,1,1,.2.8c-0.2.1-.4,0.1-0.6,0.2h0a18.508,18.508,0,0,1-4.1.7h0c4.1,2.1,10,2.1,16.8-.5A47.163,47.163,0,0,0,46.2,25.6,0.1,0.1,0,0,1,46.1,25.7Z" style="fill:#24b8eb"/><path d="M2.1,33.7a13.332,13.332,0,0,0,1.4,4.4l0.4,0.7c0.3,0.4.5,0.8,0.8,1.2,1.4,0.1,2.7.1,3.9,0.1a23.161,23.161,0,0,0,5.8-.8,0.412,0.412,0,1,1,.2.8c-0.2.1-.4,0.1-0.6,0.2h0a18.508,18.508,0,0,1-4.1.7H9.7c-0.6,0-1.3.1-2,.1A20.084,20.084,0,0,1,5.3,41a17.334,17.334,0,0,0,13.1,5.2c10.3,0,19.2-3.9,24.4-12.5H2.1Z" style="fill:#008bb8"/><path d="M4.3,33.7a10.239,10.239,0,0,0,4.2,6.5,23.161,23.161,0,0,0,5.8-.8,0.412,0.412,0,1,1,.2.8c-0.2.1-.4,0.1-0.6,0.2h0a18.508,18.508,0,0,1-4.1.7c4.1,2.1,10,2.1,16.8-.5a41.121,41.121,0,0,0,11.6-6.8L4.3,33.7h0Z" style="fill:#039bc6"/></g><g id="Containers"><path d="M6.7,24.6h4.7v4.7H6.7V24.6Z" style="fill:#00acd3"/><path d="M12.1,19.2h4.7v4.7H12.1V19.2Z" style="fill:#00acd3"/><path d="M12.1,24.6h4.7v4.7H12.1V24.6Z" style="fill:#20c2ef"/><path d="M17.5,24.6h4.7v4.7H17.5V24.6Z" style="fill:#00acd3"/><path d="M17.5,19.2h4.7v4.7H17.5V19.2Z" style="fill:#20c2ef"/><path d="M22.9,24.6h4.7v4.7H22.9V24.6Z" style="fill:#20c2ef"/><path d="M22.9,19.2h4.7v4.7H22.9V19.2Z" style="fill:#00acd3"/><path d="M22.9,13.8h4.7v4.7H22.9V13.8Z" style="fill:#20c2ef"/><path d="M28.4,24.6H33v4.7H28.3V24.6h0.1Z" style="fill:#00acd3"/></g><path d="M16.5,36.9a1.3,1.3,0,1,1-1.3,1.3h0a1.324,1.324,0,0,1,1.3-1.3" style="fill:#d4edf1"/><path d="M16.5,37.3a0.367,0.367,0,0,1,.3.1,0.361,0.361,0,1,0,.4.6c0.1,0,.1-0.1.1-0.2a0.919,0.919,0,1,1-1.2-.5,0.535,0.535,0,0,1,.4,0" style="fill:#394d54"/><path d="M19.9,46.2A11.154,11.154,0,0,1,14,40.4a20.324,20.324,0,0,1-4.3.7c-0.6,0-1.3.1-2,.1a21.751,21.751,0,0,1-2.5-.1,16.918,16.918,0,0,0,13.3,5.2A7.084,7.084,0,0,1,19.9,46.2Z" style="fill:#bfdbe0"/><path d="M15.2,42.4A7.193,7.193,0,0,1,14,40.3a20.324,20.324,0,0,1-4.3.7A11.824,11.824,0,0,0,15.2,42.4Z" style="fill:#d4edf1"/><rect width="55" height="60" style="fill:none"/></svg>