<svg xmlns="http://www.w3.org/2000/svg" viewBox="0 0 60 60"><title>icons-flexible</title><path fill="none" d="M0 0h60v60H0z"/><path d="M9.1 18.2L9 44.6a6.274 6.274 0 0 0 6.248 6.3h.052l29.3.1a6.274 6.274 0 0 0 6.3-6.248V44.7l.1-26.5H9.1z" fill="#5e5e5e"/><path d="M44.7 9.1L15.4 9a6.274 6.274 0 0 0-6.3 6.248V18.3H51v-2.8a6.3 6.3 0 0 0-6.2-6.4h-.1z" fill="#bcbcbc"/><path d="M21.1 27L16 30.1v-1.5l3.6-2.1-3.6-1.9v-1.7l5.1 3.2v.9zM27.3 30.1v1h-5.1v-1h5.1z" fill="#f1f2f2"/><path d="M15.4 9v3l29.3.1a2.9 2.9 0 0 1 2.3 1 3.255 3.255 0 0 1 1 2.3v6.9l-.1 22.4a3.33 3.33 0 0 1-3.3 3.3l-29.3-.1a2.9 2.9 0 0 1-2.3-1 3.255 3.255 0 0 1-1-2.3l.1-21.7v-7.6a3.33 3.33 0 0 1 3.3-3.3V9m0 0a6.274 6.274 0 0 0-6.3 6.248V19.9L9 44.6a6.274 6.274 0 0 0 6.248 6.3h.052l29.3.1a6.274 6.274 0 0 0 6.3-6.248V44.7l.1-22.4v-6.9a6.274 6.274 0 0 0-6.248-6.3H44.7L15.4 9z" opacity=".2"/></svg>