<svg id="Layer_1" data-name="Layer 1" xmlns="http://www.w3.org/2000/svg" xmlns:xlink="http://www.w3.org/1999/xlink" viewBox="0 0 1080 420"><defs><style>.cls-1{fill:#fff;}.cls-2,.cls-23{fill:#f7f7f7;}.cls-3{fill:#e6e6e6;}.cls-4{fill:#e8e8e8;}.cls-5{fill:url(#linear-gradient);}.cls-6{fill:#eee;}.cls-7{fill:url(#linear-gradient-2);}.cls-8{fill:url(#linear-gradient-3);}.cls-9{fill:url(#linear-gradient-4);}.cls-10{fill:url(#linear-gradient-5);}.cls-11{fill:url(#linear-gradient-6);}.cls-12,.cls-23{isolation:isolate;}.cls-13,.cls-14{fill:#777;}.cls-14,.cls-17,.cls-28{font-size:15px;font-family:SF UI Display;}.cls-15{fill:#6bd281;}.cls-16,.cls-17{fill:#b3b3b3;}.cls-18{fill:#834eab;}.cls-19{fill:#e1e1e1;}.cls-20{fill:#e0e0e0;}.cls-21{fill:#f8f8f8;}.cls-22{fill:#7944a3;}.cls-23{opacity:0.25;}.cls-24{fill:#f7f0fc;}.cls-25{opacity:0.75;}.cls-26{fill:#8635c1;}.cls-27,.cls-28{fill:#73667f;}.cls-29{fill:#a264d0;}.cls-30{fill:#834eac;}.cls-31{fill:#853cbe;}.cls-32{fill:#44275e;}.cls-33{fill:#231f20;}.cls-34{fill:none;}.cls-35{fill:#682f94;}.cls-36{fill:#351f49;}.cls-37{fill:#2f1244;}.cls-38{fill:#ccadd2;}</style><linearGradient id="linear-gradient" x1="60.23077" y1="482.83333" x2="59.23077" y2="482.83333" gradientTransform="matrix(78, 0, 0, -9, -4203, 4448)" gradientUnits="userSpaceOnUse"><stop offset="0" stop-color="#e8e8e8" stop-opacity="0"/><stop offset="1" stop-color="#e8e8e8"/></linearGradient><linearGradient id="linear-gradient-2" x1="60.33333" y1="482.83333" x2="59.33333" y2="482.83333" gradientTransform="matrix(90, 0, 0, -9, -4923, 4543)" xlink:href="#linear-gradient"/><linearGradient id="linear-gradient-3" x1="60.6" y1="482.83333" x2="59.6" y2="482.83333" gradientTransform="matrix(150, 0, 0, -9, -8523, 4564)" xlink:href="#linear-gradient"/><linearGradient id="linear-gradient-4" x1="60" y1="482.83333" x2="59" y2="482.83333" gradientTransform="matrix(60, 0, 0, -9, -3123, 4596)" xlink:href="#linear-gradient"/><linearGradient id="linear-gradient-5" x1="60.48718" y1="482.83333" x2="59.48718" y2="482.83333" gradientTransform="matrix(117, 0, 0, -9, -6411, 4448)" xlink:href="#linear-gradient"/><linearGradient id="linear-gradient-6" x1="60.80583" y1="482.83333" x2="59.80583" y2="482.83333" gradientTransform="matrix(309, 0, 0, -9, -17737, 4448)" xlink:href="#linear-gradient"/></defs><title>isolation</title><g id="Page-1"><g id="isolation"><rect id="Rectangle-326" class="cls-1" x="374" y="30" width="705" height="390"/><g id="Rectangle-7-Copy-28"><rect class="cls-2" x="388" y="179" width="273" height="86" rx="2" ry="2"/><path class="cls-3" d="M659,180a1.00115,1.00115,0,0,1,1,1v82a1.00115,1.00115,0,0,1-1,1H390a1.00115,1.00115,0,0,1-1-1V181a1.00115,1.00115,0,0,1,1-1H659m0-2H390a3,3,0,0,0-3,3v82a3,3,0,0,0,3,3H659a3,3,0,0,0,3-3V181a3,3,0,0,0-3-3h0Z"/></g><g id="Rectangle-7-Copy-29"><rect class="cls-2" x="690" y="85" width="346" height="34" rx="2" ry="2"/><path class="cls-3" d="M1034,86a1.00113,1.00113,0,0,1,1,1v30a1.00113,1.00113,0,0,1-1,1H692a1.00113,1.00113,0,0,1-1-1V87a1.00113,1.00113,0,0,1,1-1h342m0-2H692a3,3,0,0,0-3,3v30a3,3,0,0,0,3,3h342a3,3,0,0,0,3-3V87a3,3,0,0,0-3-3h0Z"/></g><g id="Rectangle-7-Copy-30"><rect class="cls-2" x="520" y="85" width="160" height="34" rx="2" ry="2"/><path class="cls-3" d="M678,86a1.00115,1.00115,0,0,1,1,1v30a1.00115,1.00115,0,0,1-1,1H522a1.00115,1.00115,0,0,1-1-1V87a1.00115,1.00115,0,0,1,1-1H678m0-2H522a3,3,0,0,0-3,3v30a3,3,0,0,0,3,3H678a3,3,0,0,0,3-3V87a3,3,0,0,0-3-3h0Z"/></g><g id="Rectangle-7-Copy-31"><rect class="cls-2" x="388" y="85" width="121" height="34" rx="2" ry="2"/><path class="cls-3" d="M507,86a1.00115,1.00115,0,0,1,1,1v30a1.00115,1.00115,0,0,1-1,1H390a1.00115,1.00115,0,0,1-1-1V87a1.00115,1.00115,0,0,1,1-1H507m0-2H390a3,3,0,0,0-3,3v30a3,3,0,0,0,3,3H507a3,3,0,0,0,3-3V87a3,3,0,0,0-3-3h0Z"/></g><rect id="Rectangle-2-Copy-18" class="cls-2" x="90" y="30" width="284" height="390"/><circle id="Oval-1-Copy-45" class="cls-4" cx="406.5" cy="102.5" r="4.5"/><path id="Rectangle-176-Copy-48" class="cls-5" d="M421.5,98h69a4.5,4.5,0,0,1,4.5,4.5h0a4.5,4.5,0,0,1-4.5,4.5h-69a4.5,4.5,0,0,1-4.5-4.5h0A4.5,4.5,0,0,1,421.5,98Z"/><path id="Rectangle-176-Copy-49" class="cls-6" d="M391.5,151h79a4.5,4.5,0,0,1,4.5,4.5h0a4.5,4.5,0,0,1-4.5,4.5h-79a4.5,4.5,0,0,1-4.5-4.5h0A4.5,4.5,0,0,1,391.5,151Z"/><path id="Rectangle-176-Copy-50" class="cls-7" d="M421.5,193h81a4.5,4.5,0,0,1,4.5,4.5h0a4.5,4.5,0,0,1-4.5,4.5h-81a4.5,4.5,0,0,1-4.5-4.5h0A4.5,4.5,0,0,1,421.5,193Z"/><path id="Rectangle-176-Copy-51" class="cls-4" d="M406.5,193h0a4.5,4.5,0,0,1,4.5,4.5h0a4.5,4.5,0,0,1-4.5,4.5h0a4.5,4.5,0,0,1-4.5-4.5h0A4.5,4.5,0,0,1,406.5,193Z"/><path id="Rectangle-176-Copy-52" class="cls-8" d="M421.5,214h141a4.5,4.5,0,0,1,4.5,4.5h0a4.5,4.5,0,0,1-4.5,4.5h-141a4.5,4.5,0,0,1-4.5-4.5h0A4.5,4.5,0,0,1,421.5,214Z"/><path id="Rectangle-176-Copy-53" class="cls-9" d="M421.5,246h51a4.5,4.5,0,0,1,4.5,4.5h0a4.5,4.5,0,0,1-4.5,4.5h-51a4.5,4.5,0,0,1-4.5-4.5h0A4.5,4.5,0,0,1,421.5,246Z"/><path id="Rectangle-176-Copy-54" class="cls-4" d="M627.5,246h15a4.5,4.5,0,0,1,4.5,4.5h0a4.5,4.5,0,0,1-4.5,4.5h-15a4.5,4.5,0,0,1-4.5-4.5h0A4.5,4.5,0,0,1,627.5,246Z"/><path id="Rectangle-176-Copy-55" class="cls-6" d="M694.5,151h63a4.5,4.5,0,0,1,4.5,4.5h0a4.5,4.5,0,0,1-4.5,4.5h-63a4.5,4.5,0,0,1-4.5-4.5h0A4.5,4.5,0,0,1,694.5,151Z"/><path id="Rectangle-176-Copy-56" class="cls-6" d="M797.5,151h63a4.5,4.5,0,0,1,4.5,4.5h0a4.5,4.5,0,0,1-4.5,4.5h-63a4.5,4.5,0,0,1-4.5-4.5h0A4.5,4.5,0,0,1,797.5,151Z"/><path id="Rectangle-176-Copy-57" class="cls-6" d="M900.5,151h63a4.5,4.5,0,0,1,4.5,4.5h0a4.5,4.5,0,0,1-4.5,4.5h-63a4.5,4.5,0,0,1-4.5-4.5h0A4.5,4.5,0,0,1,900.5,151Z"/><path id="Rectangle-176-Copy-58" class="cls-6" d="M391.5,305h79a4.5,4.5,0,0,1,4.5,4.5h0a4.5,4.5,0,0,1-4.5,4.5h-79a4.5,4.5,0,0,1-4.5-4.5h0A4.5,4.5,0,0,1,391.5,305Z"/><circle id="Oval-1-Copy-46" class="cls-4" cx="538.5" cy="102.5" r="4.5"/><path id="Rectangle-176-Copy-59" class="cls-10" d="M553.5,98h108a4.5,4.5,0,0,1,4.5,4.5h0a4.5,4.5,0,0,1-4.5,4.5h-108a4.5,4.5,0,0,1-4.5-4.5h0A4.5,4.5,0,0,1,553.5,98Z"/><path id="Rectangle-176-Copy-60" class="cls-4" d="M704.5,98h16a4.5,4.5,0,0,1,4.5,4.5h0a4.5,4.5,0,0,1-4.5,4.5h-16a4.5,4.5,0,0,1-4.5-4.5h0A4.5,4.5,0,0,1,704.5,98Z"/><path id="Rectangle-176-Copy-61" class="cls-11" d="M747.5,98h300a4.5,4.5,0,0,1,4.5,4.5h0a4.5,4.5,0,0,1-4.5,4.5h-300a4.5,4.5,0,0,1-4.5-4.5h0A4.5,4.5,0,0,1,747.5,98Z"/><g id="master-copy-14" class="cls-12"><g class="cls-12"><path class="cls-13" d="M130.813,81.0459h1.51611v1.34766h0.0293a2.35441,2.35441,0,0,1,2.26318-1.43555,2.17987,2.17987,0,0,1,2.22656,1.5459h0.03662A2.6206,2.6206,0,0,1,139.375,80.958a2.44891,2.44891,0,0,1,2.59277,2.62207V89h-1.582V83.96094a1.45512,1.45512,0,0,0-1.55273-1.64062,1.63748,1.63748,0,0,0-1.6626,1.74316V89h-1.56006V83.8291a1.41524,1.41524,0,0,0-1.52344-1.50879,1.68787,1.68787,0,0,0-1.68457,1.80176V89H130.813V81.0459Z"/><path class="cls-13" d="M143.80566,86.72266c0-1.39258,1.07666-2.19727,3.03955-2.32227l2.146-.125V83.66016a1.40635,1.40635,0,0,0-1.66992-1.40625,1.52486,1.52486,0,0,0-1.6333,1.13574h-1.48682c0.04395-1.40625,1.377-2.44629,3.16406-2.44629,1.94092,0,3.19336,1.02539,3.19336,2.59961V89h-1.51611V87.67383h-0.03662a2.78026,2.78026,0,0,1-2.51221,1.40625A2.40682,2.40682,0,0,1,143.80566,86.72266Zm5.18555-.71094v-0.623l-1.93359.13281c-1.084.06543-1.64795,0.46875-1.64795,1.17188a1.26982,1.26982,0,0,0,1.50879,1.12012A1.89763,1.89763,0,0,0,148.99121,86.01172Z"/><path class="cls-13" d="M155.707,80.95117c1.74316,0,3.00293.98047,3.03955,2.36523h-1.49414a1.38414,1.38414,0,0,0-1.582-1.14258,1.2583,1.2583,0,0,0-1.50146,1.04688c0,0.48438.39551,0.81348,1.23779,1.01855l1.31836,0.31543c1.604,0.3877,2.19727.9668,2.19727,2.13867,0,1.41992-1.34766,2.40234-3.27393,2.40234-1.853,0-3.12012-.96-3.2373-2.39551h1.56738a1.51721,1.51721,0,0,0,1.75049,1.17871c0.98877,0,1.61133-.41016,1.61133-1.05469,0-.50488-0.31494-0.76855-1.1499-0.98047l-1.4209-.35156c-1.43555-.35156-2.146-1.084-2.146-2.18359C152.62354,81.91016,153.876,80.95117,155.707,80.95117Z"/><path class="cls-13" d="M162.86914,79.25879V81.0459h1.52344v1.25293h-1.52344v4.44531a0.86531,0.86531,0,0,0,.97412,1.01074,5.41577,5.41577,0,0,0,.542-0.03613v1.252a4.488,4.488,0,0,1-.89355.08008c-1.58936,0-2.20459-.60742-2.20459-2.14551V82.29883h-1.09863V81.0459h1.09863V79.25879h1.582Z"/><path class="cls-13" d="M172.94678,86.6709a3.19933,3.19933,0,0,1-3.41309,2.4248c-2.30713,0-3.74268-1.55273-3.74268-4.043s1.4502-4.10937,3.67676-4.10937c2.18262,0,3.55957,1.51563,3.55957,3.92578v0.55664H167.395v0.0957a2.101,2.101,0,0,0,2.168,2.28516,1.82972,1.82972,0,0,0,1.86768-1.13574h1.51611Zm-5.54443-2.373H171.438a1.94143,1.94143,0,0,0-1.97754-2.05762A2.05332,2.05332,0,0,0,167.40234,84.29785Z"/><path class="cls-13" d="M174.90186,81.0459H176.418v1.34082h0.0293a1.90447,1.90447,0,0,1,1.91895-1.42187,2.60137,2.60137,0,0,1,.55664.05176v1.4873a2.30781,2.30781,0,0,0-.7251-0.0957,1.66245,1.66245,0,0,0-1.70654,1.8457V89h-1.58936V81.0459Z"/></g><text class="cls-14" transform="translate(173.58887 89)"> </text></g><circle id="Oval-1-Copy-47" class="cls-15" cx="116.5" cy="83.5" r="4.5"/><circle id="Oval-1-Copy-48" class="cls-15" cx="116.5" cy="113.5" r="4.5"/><circle id="Oval-1-Copy-49" class="cls-15" cx="116.5" cy="196.5" r="4.5"/><g id="_2FA-form" data-name="2FA-form" class="cls-12"><g class="cls-12"><path class="cls-13" d="M130.813,111.0459h1.51611v1.34082h0.0293a1.90447,1.90447,0,0,1,1.91895-1.42187,2.60137,2.60137,0,0,1,.55664.05176v1.4873a2.30781,2.30781,0,0,0-.7251-0.0957,1.66245,1.66245,0,0,0-1.70654,1.8457V119H130.813v-7.9541Z"/><path class="cls-13" d="M142.91943,116.6709a3.19933,3.19933,0,0,1-3.41309,2.4248c-2.30713,0-3.74268-1.55273-3.74268-4.043s1.4502-4.10937,3.67676-4.10937c2.18262,0,3.55957,1.51563,3.55957,3.92578v0.55664h-5.63232v0.0957a2.101,2.101,0,0,0,2.168,2.28516,1.82972,1.82972,0,0,0,1.86768-1.13574h1.51611Zm-5.54443-2.373h4.03564a1.94143,1.94143,0,0,0-1.97754-2.05762A2.05332,2.05332,0,0,0,137.375,114.29785Z"/><path class="cls-13" d="M147.82617,110.95117c1.74316,0,3.00293.98047,3.03955,2.36523h-1.49414a1.38414,1.38414,0,0,0-1.582-1.14258,1.2583,1.2583,0,0,0-1.50146,1.04688c0,0.48438.39551,0.81348,1.23779,1.01855l1.31836,0.31543c1.604,0.3877,2.19727.9668,2.19727,2.13867,0,1.41992-1.34766,2.40234-3.27393,2.40234-1.853,0-3.12012-.96-3.2373-2.39551h1.56738a1.51721,1.51721,0,0,0,1.75049,1.17871c0.98877,0,1.61133-.41016,1.61133-1.05469,0-.50488-0.31494-0.76855-1.1499-0.98047l-1.4209-.35156c-1.43555-.35156-2.146-1.084-2.146-2.18359C144.74268,111.91016,145.99512,110.95117,147.82617,110.95117Z"/><path class="cls-13" d="M159.72705,116.6709a3.19933,3.19933,0,0,1-3.41309,2.4248c-2.30713,0-3.74268-1.55273-3.74268-4.043s1.4502-4.10937,3.67676-4.10937c2.18262,0,3.55957,1.51563,3.55957,3.92578v0.55664h-5.63232v0.0957a2.101,2.101,0,0,0,2.168,2.28516,1.82972,1.82972,0,0,0,1.86768-1.13574h1.51611Zm-5.54443-2.373h4.03564a1.94143,1.94143,0,0,0-1.97754-2.05762A2.05332,2.05332,0,0,0,154.18262,114.29785Z"/><path class="cls-13" d="M163.74023,109.25879v1.78711h1.52344v1.25293h-1.52344v4.44531a0.86531,0.86531,0,0,0,.97412,1.01074,5.41576,5.41576,0,0,0,.542-0.03613v1.252a4.488,4.488,0,0,1-.89355.08008c-1.58936,0-2.20459-.60742-2.20459-2.14551v-4.60645h-1.09863V111.0459h1.09863v-1.78711h1.582Z"/><path class="cls-13" d="M167.2041,115.52148v-1.42871h4.80469v1.42871H167.2041Z"/><path class="cls-13" d="M181.73486,115.02344c0,2.46094-1.32568,4.05664-3.3252,4.05664a2.72488,2.72488,0,0,1-2.51953-1.38379h-0.0293v3.94043h-1.58936V111.0459h1.53076v1.31836h0.03662a2.811,2.811,0,0,1,2.53418-1.39941C180.40186,110.96484,181.73486,112.55469,181.73486,115.02344Zm-1.626,0c0-1.64062-.84961-2.71094-2.13867-2.71094-1.25977,0-2.1167,1.0918-2.124,2.71094,0.00732,1.625.85693,2.709,2.124,2.709C179.25928,117.73242,180.10889,116.6709,180.10889,115.02344Z"/><path class="cls-13" d="M191.82715,119h-1.64062l-1.69189-5.99121H188.458L186.78076,119h-1.6333l-2.19727-7.9541h1.582l1.47949,6.29883h0.0293l1.68457-6.29883H189.249l1.69189,6.29883h0.0293l1.47949-6.29883h1.56738Z"/><path class="cls-13" d="M195.22461,115.01563c0-2.44629,1.3623-4.05078,3.33984-4.05078a2.6904,2.6904,0,0,1,2.50488,1.39941H201.106v-4.40918h1.582V119H201.1499v-1.34766h-0.0293a2.72328,2.72328,0,0,1-2.5415,1.42773C196.58691,119.08008,195.22461,117.47656,195.22461,115.01563Zm1.626,0.00781c0,1.64746.84229,2.709,2.13135,2.709,1.27441,0,2.13135-1.084,2.13135-2.709,0-1.61914-.85693-2.71094-2.13135-2.71094C197.7002,112.3125,196.85059,113.38281,196.85059,115.02344Z"/><path class="cls-13" d="M205.00928,115.52148v-1.42871H209.814v1.42871h-4.80469Z"/><path class="cls-13" d="M212.55273,112.29883H211.4541V111.0459h1.09863v-0.73242c0-1.4873.67383-2.13867,2.28516-2.13867a4.706,4.706,0,0,1,.80566.07324v1.209a2.82058,2.82058,0,0,0-.59326-0.05859,0.81575,0.81575,0,0,0-.93018.9668v0.68066h1.53076v1.25293h-1.51611V119h-1.582v-6.70117Z"/><path class="cls-13" d="M217.62793,107.95508h1.58936V119h-1.58936V107.95508Z"/><path class="cls-13" d="M221.15039,115.02344c0-2.498,1.47217-4.08008,3.76465-4.08008s3.75732,1.57422,3.75732,4.08008c0,2.50391-1.45752,4.07227-3.75732,4.07227S221.15039,117.52734,221.15039,115.02344Zm5.91064,0c0-1.73633-.79834-2.76172-2.146-2.76172s-2.15332,1.0332-2.15332,2.76172c0,1.73535.80566,2.75391,2.15332,2.75391S227.061,116.75879,227.061,115.02344Z"/><path class="cls-13" d="M238.77148,119h-1.64062l-1.69189-5.99121h-0.03662L233.7251,119h-1.6333l-2.19727-7.9541h1.582l1.47949,6.29883h0.0293l1.68457-6.29883h1.52344l1.69189,6.29883h0.0293l1.47949-6.29883h1.56738Z"/></g><text class="cls-14" transform="translate(183.56104 119)"> </text></g><g id="master-copy-15" class="cls-12"><g class="cls-12"><path class="cls-13" d="M130.813,194.0459h1.51611v1.34766h0.0293a2.35441,2.35441,0,0,1,2.26318-1.43555,2.17987,2.17987,0,0,1,2.22656,1.5459h0.03662a2.6206,2.6206,0,0,1,2.49023-1.5459,2.44891,2.44891,0,0,1,2.59277,2.62207V202h-1.582v-5.03906a1.45512,1.45512,0,0,0-1.55273-1.64062,1.63748,1.63748,0,0,0-1.6626,1.74316V202h-1.56006v-5.1709a1.41524,1.41524,0,0,0-1.52344-1.50879,1.68787,1.68787,0,0,0-1.68457,1.80176V202H130.813v-7.9541Z"/><path class="cls-13" d="M143.80566,199.72266c0-1.39258,1.07666-2.19727,3.03955-2.32227l2.146-.125v-0.61523a1.40635,1.40635,0,0,0-1.66992-1.40625,1.52486,1.52486,0,0,0-1.6333,1.13574h-1.48682c0.04395-1.40625,1.377-2.44629,3.16406-2.44629,1.94092,0,3.19336,1.02539,3.19336,2.59961V202h-1.51611v-1.32617h-0.03662a2.78026,2.78026,0,0,1-2.51221,1.40625A2.40682,2.40682,0,0,1,143.80566,199.72266Zm5.18555-.71094v-0.623l-1.93359.13281c-1.084.06543-1.64795,0.46875-1.64795,1.17188a1.26982,1.26982,0,0,0,1.50879,1.12012A1.89763,1.89763,0,0,0,148.99121,199.01172Z"/><path class="cls-13" d="M155.707,193.95117c1.74316,0,3.00293.98047,3.03955,2.36523h-1.49414a1.38414,1.38414,0,0,0-1.582-1.14258,1.2583,1.2583,0,0,0-1.50146,1.04688c0,0.48438.39551,0.81348,1.23779,1.01855l1.31836,0.31543c1.604,0.3877,2.19727.9668,2.19727,2.13867,0,1.41992-1.34766,2.40234-3.27393,2.40234-1.853,0-3.12012-.96-3.2373-2.39551h1.56738a1.51721,1.51721,0,0,0,1.75049,1.17871c0.98877,0,1.61133-.41016,1.61133-1.05469,0-.50488-0.31494-0.76855-1.1499-0.98047l-1.4209-.35156c-1.43555-.35156-2.146-1.084-2.146-2.18359C152.62354,194.91016,153.876,193.95117,155.707,193.95117Z"/><path class="cls-13" d="M162.86914,192.25879v1.78711h1.52344v1.25293h-1.52344v4.44531a0.86531,0.86531,0,0,0,.97412,1.01074,5.41576,5.41576,0,0,0,.542-0.03613v1.252a4.488,4.488,0,0,1-.89355.08008c-1.58936,0-2.20459-.60742-2.20459-2.14551v-4.60645h-1.09863V194.0459h1.09863v-1.78711h1.582Z"/><path class="cls-13" d="M172.94678,199.6709a3.19933,3.19933,0,0,1-3.41309,2.4248c-2.30713,0-3.74268-1.55273-3.74268-4.043s1.4502-4.10937,3.67676-4.10937c2.18262,0,3.55957,1.51563,3.55957,3.92578v0.55664H167.395v0.0957a2.101,2.101,0,0,0,2.168,2.28516,1.82972,1.82972,0,0,0,1.86768-1.13574h1.51611Zm-5.54443-2.373H171.438a1.94143,1.94143,0,0,0-1.97754-2.05762A2.05332,2.05332,0,0,0,167.40234,197.29785Z"/><path class="cls-13" d="M174.90186,194.0459H176.418v1.34082h0.0293a1.90447,1.90447,0,0,1,1.91895-1.42187,2.60137,2.60137,0,0,1,.55664.05176v1.4873a2.30781,2.30781,0,0,0-.7251-0.0957,1.66245,1.66245,0,0,0-1.70654,1.8457V202h-1.58936v-7.9541Z"/></g><text class="cls-14" transform="translate(173.58887 202)"> </text></g><g id="web-repository" class="cls-12"><g class="cls-12"><path class="cls-16" d="M138.64258,59h-1.28906l-1.80176-6.1377h-0.0293L133.7207,59h-1.28906l-2.21191-7.89551h1.25977l1.604,6.45215h0.0293l1.80908-6.45215h1.23047l1.80908,6.45215h0.0293l1.604-6.45215h1.25977Z"/><path class="cls-16" d="M149.04248,56.74414a3.10851,3.10851,0,0,1-3.27393,2.3291c-2.21924,0-3.61816-1.5459-3.61816-3.99121,0-2.44727,1.40625-4.05078,3.55957-4.05078,2.10938,0,3.42773,1.48633,3.42773,3.875v0.498h-5.66895v0.07227a2.26026,2.26026,0,0,0,2.3291,2.47656,1.9332,1.9332,0,0,0,1.98486-1.209h1.25977Zm-5.57373-2.3584H147.812a2.09146,2.09146,0,0,0-2.124-2.2334A2.21029,2.21029,0,0,0,143.46875,54.38574Z"/><path class="cls-16" d="M152.38916,57.667h-0.0293V59h-1.2085V47.96973h1.27441v4.417h0.0293a2.80077,2.80077,0,0,1,2.53418-1.35547c1.98486,0,3.33984,1.61133,3.33984,4.02148,0,2.416-1.355,4.02051-3.36914,4.02051A2.80042,2.80042,0,0,1,152.38916,57.667Zm0.0293-2.61426c0,1.71289.9375,2.88477,2.31445,2.88477,1.38428,0,2.29248-1.127,2.29248-2.88477,0-1.751-.9082-2.88672-2.29248-2.88672C153.356,52.166,152.41846,53.3457,152.41846,55.05273Z"/><path class="cls-16" d="M160.21777,55.42578V54.23926h4.80469v1.18652h-4.80469Z"/><path class="cls-16" d="M167.2998,51.10449H168.501v1.28223h0.0293a1.90517,1.90517,0,0,1,1.91162-1.35547,2.83568,2.83568,0,0,1,.52734.04395v1.25293a2.62318,2.62318,0,0,0-.6958-0.07422,1.68547,1.68547,0,0,0-1.69922,1.86133V59H167.2998V51.10449Z"/><path class="cls-16" d="M178.791,56.74414a3.10851,3.10851,0,0,1-3.27393,2.3291c-2.21924,0-3.61816-1.5459-3.61816-3.99121,0-2.44727,1.40625-4.05078,3.55957-4.05078,2.10938,0,3.42773,1.48633,3.42773,3.875v0.498h-5.66895v0.07227a2.26026,2.26026,0,0,0,2.3291,2.47656,1.9332,1.9332,0,0,0,1.98486-1.209H178.791Zm-5.57373-2.3584h4.34326a2.09146,2.09146,0,0,0-2.124-2.2334A2.21029,2.21029,0,0,0,173.21729,54.38574Z"/><path class="cls-16" d="M188.00439,55.05273c0,2.40918-1.3623,4.02051-3.35449,4.02051a2.77986,2.77986,0,0,1-2.51953-1.35449h-0.0293v3.918h-1.27441V51.10449h1.2085v1.28223h0.0293a2.92267,2.92267,0,0,1,2.55615-1.35547C186.63477,51.03125,188.00439,52.64258,188.00439,55.05273Zm-1.30371,0c0-1.74414-.92285-2.88672-2.31445-2.88672-1.3623,0-2.29248,1.17188-2.29248,2.88672,0,1.7207.93018,2.88477,2.29248,2.88477C185.77783,57.9375,186.70068,56.80273,186.70068,55.05273Z"/><path class="cls-16" d="M189.55664,55.05273c0-2.4541,1.4209-4.02148,3.64014-4.02148s3.64014,1.56738,3.64014,4.02148c0,2.44531-1.4209,4.02051-3.64014,4.02051S189.55664,57.498,189.55664,55.05273Zm5.98389,0c0-1.81641-.87158-2.88672-2.34375-2.88672s-2.34375,1.07715-2.34375,2.88672c0,1.80859.87891,2.88477,2.34375,2.88477C194.66895,57.9375,195.54053,56.86133,195.54053,55.05273Z"/><path class="cls-16" d="M201.56738,51.03906a2.60466,2.60466,0,0,1,2.87109,2.25586h-1.22314a1.48416,1.48416,0,0,0-1.69189-1.20117c-0.97412,0-1.626.46094-1.626,1.14941,0,0.53418.4248,0.89355,1.333,1.12012l1.20117,0.30078c1.59668,0.40234,2.168.959,2.168,2.10938,0,1.34766-1.29639,2.2998-3.12012,2.2998-1.69922,0-2.92969-.92285-3.0542-2.292H199.707a1.605,1.605,0,0,0,1.86035,1.2373c1.07666,0,1.75049-.44629,1.75049-1.15723,0-.55664-0.32959-0.84961-1.23047-1.084l-1.38428-.35937c-1.38428-.3584-2.05811-1.05469-2.05811-2.10937C198.645,51.97656,199.85352,51.03906,201.56738,51.03906Z"/><path class="cls-16" d="M206.48877,49.02441a0.80566,0.80566,0,1,1,.80566.80566A0.80834,0.80834,0,0,1,206.48877,49.02441Zm0.16846,2.08008h1.27441V59h-1.27441V51.10449Z"/><path class="cls-16" d="M212.02539,49.32422v1.78027h1.53809v1.05469h-1.53809v4.73926a0.88552,0.88552,0,0,0,.98145,1.05469,5.26412,5.26412,0,0,0,.54932-0.03711v1.07617a4.55666,4.55666,0,0,1-.82031.06641c-1.42822,0-1.98486-.59375-1.98486-2.10937v-4.79h-1.09863V51.10449H210.751V49.32422h1.27441Z"/><path class="cls-16" d="M214.96924,55.05273c0-2.4541,1.4209-4.02148,3.64014-4.02148s3.64014,1.56738,3.64014,4.02148c0,2.44531-1.4209,4.02051-3.64014,4.02051S214.96924,57.498,214.96924,55.05273Zm5.98389,0c0-1.81641-.87158-2.88672-2.34375-2.88672s-2.34375,1.07715-2.34375,2.88672c0,1.80859.87891,2.88477,2.34375,2.88477C220.08154,57.9375,220.95313,56.86133,220.95313,55.05273Z"/><path class="cls-16" d="M224.18994,51.10449h1.20117v1.28223h0.0293a1.90517,1.90517,0,0,1,1.91162-1.35547,2.83568,2.83568,0,0,1,.52734.04395v1.25293a2.62318,2.62318,0,0,0-.6958-0.07422,1.68547,1.68547,0,0,0-1.69922,1.86133V59h-1.27441V51.10449Z"/><path class="cls-16" d="M229.66016,61.8125V60.73633a2.93049,2.93049,0,0,0,.52.043c0.73242,0,1.12793-.35156,1.4502-1.30273l0.15381-.46875-2.92236-7.90332h1.355l2.21191,6.59863h0.0293l2.21191-6.59863h1.34033l-3.09082,8.37891c-0.67383,1.83105-1.30371,2.37988-2.70264,2.37988A3.49536,3.49536,0,0,1,229.66016,61.8125Z"/></g><text class="cls-17" transform="translate(227.37891 59)"> </text></g><g id="api-repository" class="cls-12"><g class="cls-12"><path class="cls-16" d="M130.50537,169.752c0-1.35547,1.04-2.1543,2.959-2.27148l2.21191-.13086v-0.66016c0-.98047-0.64453-1.52344-1.80908-1.52344a1.63552,1.63552,0,0,0-1.75049,1.2168h-1.22314c0.03662-1.334,1.333-2.35156,2.98828-2.35156,1.86768,0,3.06885.99609,3.06885,2.54883V172h-1.2085v-1.36914h-0.0293a2.81361,2.81361,0,0,1-2.5415,1.44238A2.36621,2.36621,0,0,1,130.50537,169.752Zm5.1709-.75488v-0.6377l-2.06543.13281c-1.18652.07227-1.80176,0.50488-1.80176,1.2666,0,0.73242.63721,1.208,1.6333,1.208A2.05077,2.05077,0,0,0,135.67627,168.99707Z"/><path class="cls-16" d="M146.42041,168.05273c0,2.40918-1.3623,4.02051-3.35449,4.02051a2.77986,2.77986,0,0,1-2.51953-1.35449h-0.0293v3.918h-1.27441V164.10449h1.2085v1.28223h0.0293a2.92267,2.92267,0,0,1,2.55615-1.35547C145.05078,164.03125,146.42041,165.64258,146.42041,168.05273Zm-1.30371,0c0-1.74414-.92285-2.88672-2.31445-2.88672-1.3623,0-2.29248,1.17188-2.29248,2.88672,0,1.7207.93018,2.88477,2.29248,2.88477C144.19385,170.9375,145.1167,169.80273,145.1167,168.05273Z"/><path class="cls-16" d="M148.26563,162.02441a0.80566,0.80566,0,1,1,.80566.80566A0.80834,0.80834,0,0,1,148.26563,162.02441Zm0.16846,2.08008h1.27441V172h-1.27441v-7.89551Z"/><path class="cls-16" d="M152.05859,168.42578v-1.18652h4.80469v1.18652h-4.80469Z"/><path class="cls-16" d="M159.14063,164.10449h1.20117v1.28223h0.0293a1.90517,1.90517,0,0,1,1.91162-1.35547,2.83569,2.83569,0,0,1,.52734.04395v1.25293a2.62317,2.62317,0,0,0-.6958-0.07422,1.68547,1.68547,0,0,0-1.69922,1.86133V172h-1.27441v-7.89551Z"/><path class="cls-16" d="M170.63184,169.74414a3.10851,3.10851,0,0,1-3.27393,2.3291c-2.21924,0-3.61816-1.5459-3.61816-3.99121,0-2.44727,1.40625-4.05078,3.55957-4.05078,2.10938,0,3.42773,1.48633,3.42773,3.875v0.498h-5.66895v0.07227a2.26026,2.26026,0,0,0,2.3291,2.47656,1.9332,1.9332,0,0,0,1.98486-1.209h1.25977Zm-5.57373-2.3584h4.34326a2.09146,2.09146,0,0,0-2.124-2.2334A2.21029,2.21029,0,0,0,165.05811,167.38574Z"/><path class="cls-16" d="M179.84521,168.05273c0,2.40918-1.3623,4.02051-3.35449,4.02051a2.77986,2.77986,0,0,1-2.51953-1.35449h-0.0293v3.918h-1.27441V164.10449h1.2085v1.28223h0.0293a2.92267,2.92267,0,0,1,2.55615-1.35547C178.47559,164.03125,179.84521,165.64258,179.84521,168.05273Zm-1.30371,0c0-1.74414-.92285-2.88672-2.31445-2.88672-1.3623,0-2.29248,1.17188-2.29248,2.88672,0,1.7207.93018,2.88477,2.29248,2.88477C177.61865,170.9375,178.5415,169.80273,178.5415,168.05273Z"/><path class="cls-16" d="M181.39746,168.05273c0-2.4541,1.4209-4.02148,3.64014-4.02148s3.64014,1.56738,3.64014,4.02148c0,2.44531-1.4209,4.02051-3.64014,4.02051S181.39746,170.498,181.39746,168.05273Zm5.98389,0c0-1.81641-.87158-2.88672-2.34375-2.88672s-2.34375,1.07715-2.34375,2.88672c0,1.80859.87891,2.88477,2.34375,2.88477C186.50977,170.9375,187.38135,169.86133,187.38135,168.05273Z"/><path class="cls-16" d="M193.4082,164.03906a2.60466,2.60466,0,0,1,2.87109,2.25586h-1.22314a1.48416,1.48416,0,0,0-1.69189-1.20117c-0.97412,0-1.626.46094-1.626,1.14941,0,0.53418.4248,0.89355,1.333,1.12012l1.20117,0.30078c1.59668,0.40234,2.168.959,2.168,2.10938,0,1.34766-1.29639,2.2998-3.12012,2.2998-1.69922,0-2.92969-.92285-3.0542-2.292h1.28174a1.605,1.605,0,0,0,1.86035,1.2373c1.07666,0,1.75049-.44629,1.75049-1.15723,0-.55664-0.32959-0.84961-1.23047-1.084l-1.38428-.35937c-1.38428-.3584-2.05811-1.05469-2.05811-2.10937C190.48584,164.97656,191.69434,164.03906,193.4082,164.03906Z"/><path class="cls-16" d="M198.32959,162.02441a0.80566,0.80566,0,1,1,.80566.80566A0.80834,0.80834,0,0,1,198.32959,162.02441Zm0.16846,2.08008h1.27441V172H198.498v-7.89551Z"/><path class="cls-16" d="M203.86621,162.32422v1.78027h1.53809v1.05469h-1.53809v4.73926a0.88552,0.88552,0,0,0,.98145,1.05469,5.2641,5.2641,0,0,0,.54932-0.03711v1.07617a4.55666,4.55666,0,0,1-.82031.06641c-1.42822,0-1.98486-.59375-1.98486-2.10937v-4.79h-1.09863v-1.05469h1.09863v-1.78027h1.27441Z"/><path class="cls-16" d="M206.81006,168.05273c0-2.4541,1.4209-4.02148,3.64014-4.02148s3.64014,1.56738,3.64014,4.02148c0,2.44531-1.4209,4.02051-3.64014,4.02051S206.81006,170.498,206.81006,168.05273Zm5.98389,0c0-1.81641-.87158-2.88672-2.34375-2.88672s-2.34375,1.07715-2.34375,2.88672c0,1.80859.87891,2.88477,2.34375,2.88477C211.92236,170.9375,212.79395,169.86133,212.79395,168.05273Z"/><path class="cls-16" d="M216.03076,164.10449h1.20117v1.28223h0.0293a1.90517,1.90517,0,0,1,1.91162-1.35547,2.83569,2.83569,0,0,1,.52734.04395v1.25293a2.62317,2.62317,0,0,0-.6958-0.07422,1.68547,1.68547,0,0,0-1.69922,1.86133V172h-1.27441v-7.89551Z"/><path class="cls-16" d="M221.501,174.8125v-1.07617a2.93048,2.93048,0,0,0,.52.043c0.73242,0,1.12793-.35156,1.4502-1.30273l0.15381-.46875-2.92236-7.90332h1.355l2.21191,6.59863h0.0293l2.21191-6.59863h1.34033l-3.09082,8.37891c-0.67383,1.83105-1.30371,2.37988-2.70264,2.37988A3.49536,3.49536,0,0,1,221.501,174.8125Z"/></g><text class="cls-17" transform="translate(219.21973 172)"> </text></g><circle id="Oval-1-Copy-57" class="cls-15" cx="116.5" cy="340.5" r="4.5"/><g id="PostgreSQL" class="cls-12"><g class="cls-12"><path class="cls-13" d="M135.1123,335.43164a3.32148,3.32148,0,0,1,3.48633,3.4707,3.35837,3.35837,0,0,1-3.5376,3.48633h-2.44629V346h-1.64062V335.43164h4.13818Zm-2.49756,5.58008h2.06543a2.10271,2.10271,0,1,0,0-4.19629h-2.06543v4.19629Z"/><path class="cls-13" d="M139.78467,342.02344c0-2.498,1.47217-4.08008,3.76465-4.08008s3.75732,1.57422,3.75732,4.08008c0,2.50391-1.45752,4.07227-3.75732,4.07227S139.78467,344.52734,139.78467,342.02344Zm5.91064,0c0-1.73633-.79834-2.76172-2.146-2.76172s-2.15332,1.0332-2.15332,2.76172c0,1.73535.80566,2.75391,2.15332,2.75391S145.69531,343.75879,145.69531,342.02344Z"/><path class="cls-13" d="M152.13281,337.95117c1.74316,0,3.00293.98047,3.03955,2.36523h-1.49414a1.38414,1.38414,0,0,0-1.582-1.14258,1.2583,1.2583,0,0,0-1.50146,1.04688c0,0.48438.39551,0.81348,1.23779,1.01855l1.31836,0.31543c1.604,0.3877,2.19727.9668,2.19727,2.13867,0,1.41992-1.34766,2.40234-3.27393,2.40234-1.853,0-3.12012-.96-3.2373-2.39551h1.56738a1.51721,1.51721,0,0,0,1.75049,1.17871c0.98877,0,1.61133-.41016,1.61133-1.05469,0-.50488-0.31494-0.76855-1.1499-0.98047l-1.4209-.35156c-1.43555-.35156-2.146-1.084-2.146-2.18359C149.04932,338.91016,150.30176,337.95117,152.13281,337.95117Z"/><path class="cls-13" d="M159.29492,336.25879v1.78711h1.52344v1.25293h-1.52344v4.44531a0.86531,0.86531,0,0,0,.97412,1.01074,5.41576,5.41576,0,0,0,.542-0.03613v1.252a4.488,4.488,0,0,1-.89355.08008c-1.58936,0-2.20459-.60742-2.20459-2.14551v-4.60645h-1.09863V338.0459h1.09863v-1.78711h1.582Z"/><path class="cls-13" d="M162.53174,346.61523h1.604a1.8062,1.8062,0,0,0,1.88965,1.00391c1.25977,0,2.07275-.66016,2.07275-1.69922V344.6084h-0.03662a2.7685,2.7685,0,0,1-2.52686,1.37012c-1.98486,0-3.31787-1.56055-3.31787-3.98437,0-2.4541,1.31836-4.0293,3.35449-4.0293a2.80394,2.80394,0,0,1,2.5415,1.39941h0.0293V338.0459h1.53809v7.749c0,1.89648-1.42822,3.06836-3.7207,3.06836C164.04785,348.86328,162.68555,347.97754,162.53174,346.61523Zm5.56641-4.61426c0-1.61133-.85693-2.68848-2.146-2.68848-1.28174,0-2.10937,1.05469-2.10937,2.68848,0,1.626.82764,2.65918,2.10938,2.65918C167.24121,344.66016,168.09814,343.60547,168.09814,342.001Z"/><path class="cls-13" d="M171.90625,338.0459h1.51611v1.34082h0.0293a1.90447,1.90447,0,0,1,1.91895-1.42187,2.60137,2.60137,0,0,1,.55664.05176v1.4873a2.30781,2.30781,0,0,0-.7251-0.0957,1.66245,1.66245,0,0,0-1.70654,1.8457V346h-1.58936v-7.9541Z"/><path class="cls-13" d="M184.0127,343.6709a3.19933,3.19933,0,0,1-3.41309,2.4248c-2.30713,0-3.74268-1.55273-3.74268-4.043s1.4502-4.10937,3.67676-4.10937c2.18262,0,3.55957,1.51563,3.55957,3.92578v0.55664h-5.63232v0.0957a2.101,2.101,0,0,0,2.168,2.28516,1.82972,1.82972,0,0,0,1.86768-1.13574h1.51611Zm-5.54443-2.373h4.03564a1.94143,1.94143,0,0,0-1.97754-2.05762A2.05332,2.05332,0,0,0,178.46826,341.29785Z"/><path class="cls-13" d="M187.27881,343.05566c0.11719,1.04785,1.13525,1.73535,2.52686,1.73535,1.333,0,2.29248-.6875,2.29248-1.63281,0-.82031-0.57861-1.31055-1.94824-1.64844l-1.36963-.3291c-1.94092-.46875-2.8418-1.377-2.8418-2.84863,0-1.82422,1.58936-3.07617,3.84521-3.07617,2.23389,0,3.76465,1.252,3.81592,3.07617h-1.59668a1.97678,1.97678,0,0,0-2.24121-1.69238c-1.27441,0-2.146.64453-2.146,1.582,0,0.74707.55664,1.18652,1.91895,1.52344l1.16455,0.28613c2.168,0.51172,3.06885,1.38379,3.06885,2.92969,0,1.97656-1.57471,3.21484-4.07959,3.21484-2.34375,0-3.92578-1.209-4.02832-3.12012h1.61865Z"/><path class="cls-13" d="M203.186,347.12109l-0.90088-1.25977a5.3132,5.3132,0,0,1-1.875.31445c-3.04687,0-4.95117-2.08789-4.95117-5.457,0-3.35352,1.9043-5.46289,4.95117-5.46289,3.03955,0,4.95117,2.10938,4.95117,5.46289a5.40645,5.40645,0,0,1-1.83838,4.44629l1.377,1.95605H203.186Zm-1.78711-2.52734-1.25977-1.7793h1.6626l0.74707,1.00977a4.12622,4.12622,0,0,0,1.12793-3.10547c0-2.46777-1.25977-4.02734-3.2666-4.02734s-3.27393,1.55957-3.27393,4.02734c0,2.46094,1.26709,4.02148,3.27393,4.02148A3.31122,3.31122,0,0,0,201.39893,344.59375Z"/><path class="cls-13" d="M214.084,346h-6.5625V335.43164h1.64063v9.14746H214.084V346Z"/></g><text class="cls-14" transform="translate(205.64746 346)"> </text></g><rect id="Rectangle-14-Copy-7" class="cls-3" x="733" y="86" width="2" height="32"/><rect id="Rectangle-2-Copy-19" class="cls-18" y="30" width="90" height="390"/><rect id="Rectangle-3-Copy-39" class="cls-19" x="102" y="140" width="260" height="1"/><rect id="Rectangle-3-Copy-40" class="cls-19" x="102" y="314" width="260" height="1"/><rect id="Rectangle-3-Copy-42" class="cls-20" x="387" y="283" width="275" height="1"/><rect id="Rectangle-3-Copy-43" class="cls-3" x="387" y="236" width="275" height="1"/><rect id="Rectangle-5-Copy-42" class="cls-19" x="374" y="30" width="1" height="390"/><rect id="Rectangle-5-Copy-43" class="cls-20" x="674" y="133" width="1" height="287"/><rect id="Rectangle-5-Copy-44" class="cls-20" x="777" y="133" width="1" height="45"/><rect id="Rectangle-5-Copy-45" class="cls-20" x="880" y="133" width="1" height="45"/><rect id="Rectangle-5-Copy-46" class="cls-20" x="983" y="133" width="1" height="45"/><rect id="Rectangle-24-Copy-7" class="cls-2" x="675" y="178" width="404" height="242"/><g id="Rectangle-480-Copy-13"><path class="cls-21" d="M0.5,29.5V3A2.50294,2.50294,0,0,1,3,.5H1077a2.50263,2.50263,0,0,1,2.5,2.5V29.5H0.5Z"/><path class="cls-19" d="M1077,1a2.00227,2.00227,0,0,1,2,2V29H1V3A2.00226,2.00226,0,0,1,3,1H1077m0-1H3A3.00007,3.00007,0,0,0,0,3V30H1080V3a3,3,0,0,0-3-3h0Z"/></g><g id="Oval-67-Copy-42"><path class="cls-19" d="M18,10a5,5,0,1,1-5,5,5.00566,5.00566,0,0,1,5-5m0-1a6,6,0,1,0,6,6,6,6,0,0,0-6-6h0Z"/></g><g id="Oval-67-Copy-43"><path class="cls-19" d="M39,10a5,5,0,1,1-5,5,5.00566,5.00566,0,0,1,5-5m0-1a6,6,0,1,0,6,6,6,6,0,0,0-6-6h0Z"/></g><g id="Oval-67-Copy-44"><path class="cls-19" d="M60,10a5,5,0,1,1-5,5,5.00566,5.00566,0,0,1,5-5m0-1a6,6,0,1,0,6,6,6,6,0,0,0-6-6h0Z"/></g><rect id="Rectangle-3-Copy-44" class="cls-20" x="675" y="178" width="403" height="1"/><rect id="Rectangle-3-Copy-45" class="cls-20" x="374" y="132" width="705" height="1"/><path id="Rectangle-232-Copy-9" class="cls-22" d="M28.5,171h33a4.5,4.5,0,0,1,4.5,4.5h0a4.5,4.5,0,0,1-4.5,4.5h-33a4.5,4.5,0,0,1-4.5-4.5h0A4.5,4.5,0,0,1,28.5,171Z"/><rect id="Rectangle-232-Copy-10" class="cls-22" x="24" y="120" width="42" height="42" rx="9" ry="9"/><path id="Rectangle-232-Copy-12" class="cls-22" d="M28.5,255h33a4.5,4.5,0,0,1,4.5,4.5h0a4.5,4.5,0,0,1-4.5,4.5h-33a4.5,4.5,0,0,1-4.5-4.5h0A4.5,4.5,0,0,1,28.5,255Z"/><rect id="Rectangle-232-Copy-11" class="cls-22" x="24" y="204" width="42" height="42" rx="9" ry="9"/><path id="Rectangle-236-Copy-4" class="cls-6" d="M679.5,53h134a4.5,4.5,0,0,1,4.5,4.5h0a4.5,4.5,0,0,1-4.5,4.5h-134a4.5,4.5,0,0,1-4.5-4.5h0A4.5,4.5,0,0,1,679.5,53Z"/><path id="Rectangle-236-Copy-5" class="cls-6" d="M831.5,53h70a4.5,4.5,0,0,1,4.5,4.5h0a4.5,4.5,0,0,1-4.5,4.5h-70a4.5,4.5,0,0,1-4.5-4.5h0A4.5,4.5,0,0,1,831.5,53Z"/><rect id="Rectangle-5-Copy-49" class="cls-20" x="1079" y="30" width="1" height="390"/><rect id="Rectangle-937" class="cls-23" x="90" y="30" width="284" height="390"/><g id="Rectangle-552"><rect class="cls-24" x="102" y="212" width="260" height="90" rx="3" ry="3"/><g class="cls-25"><path class="cls-26" d="M359,213a2.00226,2.00226,0,0,1,2,2v84a2.00226,2.00226,0,0,1-2,2H105a2.00227,2.00227,0,0,1-2-2V215a2.00227,2.00227,0,0,1,2-2H359m0-1H105a3,3,0,0,0-3,3v84a3,3,0,0,0,3,3H359a3,3,0,0,0,3-3V215a3,3,0,0,0-3-3h0Z"/></g></g><circle id="Oval-1-Copy-50" class="cls-15" cx="116.5" cy="229.5" r="4.5"/><circle id="Oval-1-Copy-51" class="cls-15" cx="134.5" cy="256.5" r="4.5"/><g id="_2FA-routes" data-name="2FA-routes" class="cls-12"><g class="cls-12"><path class="cls-27" d="M130.813,227.0459h1.51611v1.34082h0.0293a1.90447,1.90447,0,0,1,1.91895-1.42187,2.60137,2.60137,0,0,1,.55664.05176v1.4873a2.30781,2.30781,0,0,0-.7251-0.0957,1.66245,1.66245,0,0,0-1.70654,1.8457V235H130.813v-7.9541Z"/><path class="cls-27" d="M142.91943,232.6709a3.19933,3.19933,0,0,1-3.41309,2.4248c-2.30713,0-3.74268-1.55273-3.74268-4.043s1.4502-4.10937,3.67676-4.10937c2.18262,0,3.55957,1.51563,3.55957,3.92578v0.55664h-5.63232v0.0957a2.101,2.101,0,0,0,2.168,2.28516,1.82972,1.82972,0,0,0,1.86768-1.13574h1.51611Zm-5.54443-2.373h4.03564a1.94143,1.94143,0,0,0-1.97754-2.05762A2.05332,2.05332,0,0,0,137.375,230.29785Z"/><path class="cls-27" d="M147.82617,226.95117c1.74316,0,3.00293.98047,3.03955,2.36523h-1.49414a1.38414,1.38414,0,0,0-1.582-1.14258,1.2583,1.2583,0,0,0-1.50146,1.04688c0,0.48438.39551,0.81348,1.23779,1.01855l1.31836,0.31543c1.604,0.3877,2.19727.9668,2.19727,2.13867,0,1.41992-1.34766,2.40234-3.27393,2.40234-1.853,0-3.12012-.96-3.2373-2.39551h1.56738a1.51721,1.51721,0,0,0,1.75049,1.17871c0.98877,0,1.61133-.41016,1.61133-1.05469,0-.50488-0.31494-0.76855-1.1499-0.98047l-1.4209-.35156c-1.43555-.35156-2.146-1.084-2.146-2.18359C144.74268,227.91016,145.99512,226.95117,147.82617,226.95117Z"/><path class="cls-27" d="M159.72705,232.6709a3.19933,3.19933,0,0,1-3.41309,2.4248c-2.30713,0-3.74268-1.55273-3.74268-4.043s1.4502-4.10937,3.67676-4.10937c2.18262,0,3.55957,1.51563,3.55957,3.92578v0.55664h-5.63232v0.0957a2.101,2.101,0,0,0,2.168,2.28516,1.82972,1.82972,0,0,0,1.86768-1.13574h1.51611Zm-5.54443-2.373h4.03564a1.94143,1.94143,0,0,0-1.97754-2.05762A2.05332,2.05332,0,0,0,154.18262,230.29785Z"/><path class="cls-27" d="M163.74023,225.25879v1.78711h1.52344v1.25293h-1.52344v4.44531a0.86531,0.86531,0,0,0,.97412,1.01074,5.41576,5.41576,0,0,0,.542-0.03613v1.252a4.488,4.488,0,0,1-.89355.08008c-1.58936,0-2.20459-.60742-2.20459-2.14551v-4.60645h-1.09863V227.0459h1.09863v-1.78711h1.582Z"/><path class="cls-27" d="M167.2041,231.52148v-1.42871h4.80469v1.42871H167.2041Z"/><path class="cls-27" d="M181.73486,231.02344c0,2.46094-1.32568,4.05664-3.3252,4.05664a2.72488,2.72488,0,0,1-2.51953-1.38379h-0.0293v3.94043h-1.58936V227.0459h1.53076v1.31836h0.03662a2.811,2.811,0,0,1,2.53418-1.39941C180.40186,226.96484,181.73486,228.55469,181.73486,231.02344Zm-1.626,0c0-1.64062-.84961-2.71094-2.13867-2.71094-1.25977,0-2.1167,1.0918-2.124,2.71094,0.00732,1.625.85693,2.709,2.124,2.709C179.25928,233.73242,180.10889,232.6709,180.10889,231.02344Z"/><path class="cls-27" d="M183.25049,232.72266c0-1.39258,1.07666-2.19727,3.03955-2.32227l2.146-.125v-0.61523a1.40635,1.40635,0,0,0-1.66992-1.40625,1.52486,1.52486,0,0,0-1.6333,1.13574H183.646c0.04395-1.40625,1.377-2.44629,3.16406-2.44629,1.94092,0,3.19336,1.02539,3.19336,2.59961V235H188.4873v-1.32617h-0.03662a2.78026,2.78026,0,0,1-2.51221,1.40625A2.40682,2.40682,0,0,1,183.25049,232.72266Zm5.18555-.71094v-0.623l-1.93359.13281c-1.084.06543-1.64795,0.46875-1.64795,1.17188a1.26982,1.26982,0,0,0,1.50879,1.12012A1.89763,1.89763,0,0,0,188.436,232.01172Z"/><path class="cls-27" d="M195.15137,226.95117c1.74316,0,3.00293.98047,3.03955,2.36523h-1.49414a1.38414,1.38414,0,0,0-1.582-1.14258,1.2583,1.2583,0,0,0-1.50146,1.04688c0,0.48438.39551,0.81348,1.23779,1.01855l1.31836,0.31543c1.604,0.3877,2.19727.9668,2.19727,2.13867,0,1.41992-1.34766,2.40234-3.27393,2.40234-1.853,0-3.12012-.96-3.2373-2.39551h1.56738a1.51721,1.51721,0,0,0,1.75049,1.17871c0.98877,0,1.61133-.41016,1.61133-1.05469,0-.50488-0.31494-0.76855-1.1499-0.98047l-1.4209-.35156c-1.43555-.35156-2.146-1.084-2.146-2.18359C192.06787,227.91016,193.32031,226.95117,195.15137,226.95117Z"/><path class="cls-27" d="M203.20752,226.95117c1.74316,0,3.00293.98047,3.03955,2.36523h-1.49414a1.38414,1.38414,0,0,0-1.582-1.14258,1.2583,1.2583,0,0,0-1.50146,1.04688c0,0.48438.39551,0.81348,1.23779,1.01855l1.31836,0.31543c1.604,0.3877,2.19727.9668,2.19727,2.13867,0,1.41992-1.34766,2.40234-3.27393,2.40234-1.853,0-3.12012-.96-3.2373-2.39551H201.479a1.51721,1.51721,0,0,0,1.75049,1.17871c0.98877,0,1.61133-.41016,1.61133-1.05469,0-.50488-0.31494-0.76855-1.1499-0.98047l-1.4209-.35156c-1.43555-.35156-2.146-1.084-2.146-2.18359C200.124,227.91016,201.37646,226.95117,203.20752,226.95117Z"/><path class="cls-27" d="M216.56641,235h-1.64062l-1.69189-5.99121h-0.03662L211.52,235h-1.6333l-2.19727-7.9541h1.582l1.47949,6.29883h0.0293l1.68457-6.29883h1.52344l1.69189,6.29883h0.0293l1.47949-6.29883h1.56738Z"/><path class="cls-27" d="M219.96436,231.02344c0-2.498,1.47217-4.08008,3.76465-4.08008s3.75732,1.57422,3.75732,4.08008c0,2.50391-1.45752,4.07227-3.75732,4.07227S219.96436,233.52734,219.96436,231.02344Zm5.91064,0c0-1.73633-.79834-2.76172-2.146-2.76172s-2.15332,1.0332-2.15332,2.76172c0,1.73535.80566,2.75391,2.15332,2.75391S225.875,232.75879,225.875,231.02344Z"/><path class="cls-27" d="M229.36084,227.0459H230.877v1.34082h0.0293a1.90447,1.90447,0,0,1,1.91895-1.42187,2.60137,2.60137,0,0,1,.55664.05176v1.4873a2.30781,2.30781,0,0,0-.7251-0.0957,1.66245,1.66245,0,0,0-1.70654,1.8457V235h-1.58936v-7.9541Z"/><path class="cls-27" d="M234.311,231.01563c0-2.44629,1.3623-4.05078,3.33984-4.05078a2.6904,2.6904,0,0,1,2.50488,1.39941h0.03662v-4.40918h1.582V235h-1.53809v-1.34766H240.207a2.72328,2.72328,0,0,1-2.5415,1.42773C235.67334,235.08008,234.311,233.47656,234.311,231.01563Zm1.626,0.00781c0,1.64746.84229,2.709,2.13135,2.709,1.27441,0,2.13135-1.084,2.13135-2.709,0-1.61914-.85693-2.71094-2.13135-2.71094C236.78662,228.3125,235.937,229.38281,235.937,231.02344Z"/></g><text class="cls-28" transform="translate(200.95996 235)"> </text></g><g id="web-_-2FA-form" data-name="web-/-2FA-form" class="cls-12"><g class="cls-12"><path class="cls-27" d="M157.06738,262h-1.64062l-1.69189-5.99121h-0.03662L152.021,262h-1.6333l-2.19727-7.9541h1.582l1.47949,6.29883h0.0293l1.68457-6.29883h1.52344l1.69189,6.29883h0.0293l1.47949-6.29883h1.56738Z"/><path class="cls-27" d="M167.62109,259.6709a3.19933,3.19933,0,0,1-3.41309,2.4248c-2.30713,0-3.74268-1.55273-3.74268-4.043s1.4502-4.10938,3.67676-4.10938c2.18262,0,3.55957,1.51563,3.55957,3.92578v0.55664h-5.63232v0.0957a2.101,2.101,0,0,0,2.168,2.28516,1.82972,1.82972,0,0,0,1.86768-1.13574h1.51611Zm-5.54443-2.373h4.03564a1.94143,1.94143,0,0,0-1.97754-2.05762A2.05332,2.05332,0,0,0,162.07666,257.29785Z"/><path class="cls-27" d="M171.20947,260.65234h-0.03662V262h-1.53076V250.95508h1.58936v4.40918h0.0293a2.73335,2.73335,0,0,1,2.51953-1.39941c2.00684,0,3.3252,1.58984,3.3252,4.05859,0,2.46777-1.31836,4.05664-3.33984,4.05664A2.74886,2.74886,0,0,1,171.20947,260.65234Zm0.01465-2.62891c0,1.61816.85693,2.709,2.13867,2.709s2.1167-1.06152,2.1167-2.709c0-1.64844-.835-2.71094-2.1167-2.71094S171.22412,256.41211,171.22412,258.02344Z"/><path class="cls-27" d="M179.15918,264.31445l3.15674-12.89062h1.4209l-3.19336,12.89062h-1.38428Z"/><path class="cls-27" d="M186.1499,254.0459H187.666v1.34082h0.0293a1.90447,1.90447,0,0,1,1.91895-1.42187,2.60137,2.60137,0,0,1,.55664.05176v1.4873a2.30781,2.30781,0,0,0-.7251-0.0957,1.66245,1.66245,0,0,0-1.70654,1.8457V262H186.1499v-7.9541Z"/><path class="cls-27" d="M198.25635,259.6709a3.19933,3.19933,0,0,1-3.41309,2.4248c-2.30713,0-3.74268-1.55273-3.74268-4.043s1.4502-4.10938,3.67676-4.10938c2.18262,0,3.55957,1.51563,3.55957,3.92578v0.55664h-5.63232v0.0957a2.101,2.101,0,0,0,2.168,2.28516,1.82972,1.82972,0,0,0,1.86768-1.13574h1.51611Zm-5.54443-2.373h4.03564a1.94143,1.94143,0,0,0-1.97754-2.05762A2.05332,2.05332,0,0,0,192.71191,257.29785Z"/><path class="cls-27" d="M203.16309,253.95117c1.74316,0,3.00293.98047,3.03955,2.36523H204.7085a1.38414,1.38414,0,0,0-1.582-1.14258,1.2583,1.2583,0,0,0-1.50146,1.04687c0,0.48438.39551,0.81348,1.23779,1.01855l1.31836,0.31543c1.604,0.3877,2.19727.9668,2.19727,2.13867,0,1.41992-1.34766,2.40234-3.27393,2.40234-1.853,0-3.12012-.96-3.2373-2.39551h1.56738a1.51721,1.51721,0,0,0,1.75049,1.17871c0.98877,0,1.61133-.41016,1.61133-1.05469,0-.50488-0.31494-0.76855-1.1499-0.98047l-1.4209-.35156c-1.43555-.35156-2.146-1.084-2.146-2.18359C200.07959,254.91016,201.332,253.95117,203.16309,253.95117Z"/><path class="cls-27" d="M215.06445,259.6709a3.19933,3.19933,0,0,1-3.41309,2.4248c-2.30713,0-3.74268-1.55273-3.74268-4.043s1.4502-4.10938,3.67676-4.10938c2.18262,0,3.55957,1.51563,3.55957,3.92578v0.55664H209.5127v0.0957a2.101,2.101,0,0,0,2.168,2.28516,1.82972,1.82972,0,0,0,1.86768-1.13574h1.51611Zm-5.54443-2.373h4.03564a1.94143,1.94143,0,0,0-1.97754-2.05762A2.05332,2.05332,0,0,0,209.52,257.29785Z"/><path class="cls-27" d="M219.07715,252.25879v1.78711h1.52344v1.25293h-1.52344v4.44531a0.86531,0.86531,0,0,0,.97412,1.01074,5.41576,5.41576,0,0,0,.542-0.03613v1.252a4.488,4.488,0,0,1-.89355.08008c-1.58936,0-2.20459-.60742-2.20459-2.14551v-4.60645h-1.09863V254.0459h1.09863v-1.78711h1.582Z"/><path class="cls-27" d="M222.541,258.52148v-1.42871h4.80469v1.42871H222.541Z"/><path class="cls-27" d="M237.07178,258.02344c0,2.46094-1.32568,4.05664-3.3252,4.05664a2.72488,2.72488,0,0,1-2.51953-1.38379h-0.0293v3.94043H229.6084V254.0459h1.53076v1.31836h0.03662a2.811,2.811,0,0,1,2.53418-1.39941C235.73877,253.96484,237.07178,255.55469,237.07178,258.02344Zm-1.626,0c0-1.64062-.84961-2.71094-2.13867-2.71094-1.25977,0-2.1167,1.0918-2.124,2.71094,0.00732,1.625.85693,2.709,2.124,2.709C234.59619,260.73242,235.4458,259.6709,235.4458,258.02344Z"/><path class="cls-27" d="M247.16406,262h-1.64062l-1.69189-5.99121h-0.03662L242.11768,262h-1.6333l-2.19727-7.9541h1.582l1.47949,6.29883h0.0293l1.68457-6.29883h1.52344l1.69189,6.29883h0.0293l1.47949-6.29883H249.354Z"/><path class="cls-27" d="M250.562,258.01563c0-2.44629,1.3623-4.05078,3.33984-4.05078a2.6904,2.6904,0,0,1,2.50488,1.39941h0.03662v-4.40918h1.582V262H256.4873v-1.34766H256.458a2.72328,2.72328,0,0,1-2.5415,1.42773C251.92432,262.08008,250.562,260.47656,250.562,258.01563Zm1.626,0.00781c0,1.64746.84229,2.709,2.13135,2.709,1.27441,0,2.13135-1.084,2.13135-2.709,0-1.61914-.85693-2.71094-2.13135-2.71094C253.0376,255.3125,252.188,256.38281,252.188,258.02344Z"/><path class="cls-27" d="M260.34619,258.52148v-1.42871h4.80469v1.42871h-4.80469Z"/><path class="cls-27" d="M267.88965,255.29883H266.791V254.0459h1.09863v-0.73242c0-1.4873.67383-2.13867,2.28516-2.13867a4.706,4.706,0,0,1,.80566.07324v1.209a2.82058,2.82058,0,0,0-.59326-0.05859,0.81575,0.81575,0,0,0-.93018.9668v0.68066h1.53076v1.25293h-1.51611V262h-1.582v-6.70117Z"/><path class="cls-27" d="M272.96484,250.95508h1.58936V262h-1.58936V250.95508Z"/><path class="cls-27" d="M276.4873,258.02344c0-2.498,1.47217-4.08008,3.76465-4.08008s3.75732,1.57422,3.75732,4.08008c0,2.50391-1.45752,4.07227-3.75732,4.07227S276.4873,260.52734,276.4873,258.02344Zm5.91064,0c0-1.73633-.79834-2.76172-2.146-2.76172s-2.15332,1.0332-2.15332,2.76172c0,1.73535.80566,2.75391,2.15332,2.75391S282.39795,259.75879,282.39795,258.02344Z"/><path class="cls-27" d="M294.10889,262h-1.64062l-1.69189-5.99121h-0.03662L289.0625,262h-1.6333l-2.19727-7.9541h1.582l1.47949,6.29883h0.0293l1.68457-6.29883h1.52344l1.69189,6.29883h0.0293l1.47949-6.29883h1.56738Z"/></g><text class="cls-28" transform="translate(239.16797 262)"> </text></g><circle id="Oval-1-Copy-52" class="cls-15" cx="134.5" cy="283.5" r="4.5"/><g id="PostgreSQL-2" data-name="PostgreSQL" class="cls-12"><g class="cls-12"><path class="cls-27" d="M153.1123,278.43164a3.32148,3.32148,0,0,1,3.48633,3.4707,3.35837,3.35837,0,0,1-3.5376,3.48633h-2.44629V289h-1.64062V278.43164h4.13818Zm-2.49756,5.58008h2.06543a2.10271,2.10271,0,1,0,0-4.19629h-2.06543v4.19629Z"/><path class="cls-27" d="M157.78467,285.02344c0-2.498,1.47217-4.08008,3.76465-4.08008s3.75732,1.57422,3.75732,4.08008c0,2.50391-1.45752,4.07227-3.75732,4.07227S157.78467,287.52734,157.78467,285.02344Zm5.91064,0c0-1.73633-.79834-2.76172-2.146-2.76172s-2.15332,1.0332-2.15332,2.76172c0,1.73535.80566,2.75391,2.15332,2.75391S163.69531,286.75879,163.69531,285.02344Z"/><path class="cls-27" d="M170.13281,280.95117c1.74316,0,3.00293.98047,3.03955,2.36523h-1.49414a1.38414,1.38414,0,0,0-1.582-1.14258,1.2583,1.2583,0,0,0-1.50146,1.04688c0,0.48438.39551,0.81348,1.23779,1.01855l1.31836,0.31543c1.604,0.3877,2.19727.9668,2.19727,2.13867,0,1.41992-1.34766,2.40234-3.27393,2.40234-1.853,0-3.12012-.96-3.2373-2.39551h1.56738a1.51721,1.51721,0,0,0,1.75049,1.17871c0.98877,0,1.61133-.41016,1.61133-1.05469,0-.50488-0.31494-0.76855-1.1499-0.98047l-1.4209-.35156c-1.43555-.35156-2.146-1.084-2.146-2.18359C167.04932,281.91016,168.30176,280.95117,170.13281,280.95117Z"/><path class="cls-27" d="M177.29492,279.25879v1.78711h1.52344v1.25293h-1.52344v4.44531a0.86531,0.86531,0,0,0,.97412,1.01074,5.41576,5.41576,0,0,0,.542-0.03613v1.252a4.488,4.488,0,0,1-.89355.08008c-1.58936,0-2.20459-.60742-2.20459-2.14551v-4.60645h-1.09863V281.0459h1.09863v-1.78711h1.582Z"/><path class="cls-27" d="M180.53174,289.61523h1.604a1.8062,1.8062,0,0,0,1.88965,1.00391c1.25977,0,2.07275-.66016,2.07275-1.69922V287.6084h-0.03662a2.7685,2.7685,0,0,1-2.52686,1.37012c-1.98486,0-3.31787-1.56055-3.31787-3.98437,0-2.4541,1.31836-4.0293,3.35449-4.0293a2.80394,2.80394,0,0,1,2.5415,1.39941h0.0293V281.0459h1.53809v7.749c0,1.89648-1.42822,3.06836-3.7207,3.06836C182.04785,291.86328,180.68555,290.97754,180.53174,289.61523Zm5.56641-4.61426c0-1.61133-.85693-2.68848-2.146-2.68848-1.28174,0-2.10937,1.05469-2.10937,2.68848,0,1.626.82764,2.65918,2.10938,2.65918C185.24121,287.66016,186.09814,286.60547,186.09814,285.001Z"/><path class="cls-27" d="M189.90625,281.0459h1.51611v1.34082h0.0293a1.90447,1.90447,0,0,1,1.91895-1.42187,2.60137,2.60137,0,0,1,.55664.05176v1.4873a2.30781,2.30781,0,0,0-.7251-0.0957,1.66245,1.66245,0,0,0-1.70654,1.8457V289h-1.58936v-7.9541Z"/><path class="cls-27" d="M202.0127,286.6709a3.19933,3.19933,0,0,1-3.41309,2.4248c-2.30713,0-3.74268-1.55273-3.74268-4.043s1.4502-4.10937,3.67676-4.10937c2.18262,0,3.55957,1.51563,3.55957,3.92578v0.55664h-5.63232v0.0957a2.101,2.101,0,0,0,2.168,2.28516,1.82972,1.82972,0,0,0,1.86768-1.13574h1.51611Zm-5.54443-2.373h4.03564a1.94143,1.94143,0,0,0-1.97754-2.05762A2.05332,2.05332,0,0,0,196.46826,284.29785Z"/><path class="cls-27" d="M205.27881,286.05566c0.11719,1.04785,1.13525,1.73535,2.52686,1.73535,1.333,0,2.29248-.6875,2.29248-1.63281,0-.82031-0.57861-1.31055-1.94824-1.64844l-1.36963-.3291c-1.94092-.46875-2.8418-1.377-2.8418-2.84863,0-1.82422,1.58936-3.07617,3.84521-3.07617,2.23389,0,3.76465,1.252,3.81592,3.07617h-1.59668a1.97678,1.97678,0,0,0-2.24121-1.69238c-1.27441,0-2.146.64453-2.146,1.582,0,0.74707.55664,1.18652,1.91895,1.52344l1.16455,0.28613c2.168,0.51172,3.06885,1.38379,3.06885,2.92969,0,1.97656-1.57471,3.21484-4.07959,3.21484-2.34375,0-3.92578-1.209-4.02832-3.12012h1.61865Z"/><path class="cls-27" d="M221.186,290.12109l-0.90088-1.25977a5.3132,5.3132,0,0,1-1.875.31445c-3.04687,0-4.95117-2.08789-4.95117-5.457,0-3.35352,1.9043-5.46289,4.95117-5.46289,3.03955,0,4.95117,2.10938,4.95117,5.46289a5.40645,5.40645,0,0,1-1.83838,4.44629l1.377,1.95605H221.186Zm-1.78711-2.52734-1.25977-1.7793h1.6626l0.74707,1.00977a4.12622,4.12622,0,0,0,1.12793-3.10547c0-2.46777-1.25977-4.02734-3.2666-4.02734s-3.27393,1.55957-3.27393,4.02734c0,2.46094,1.26709,4.02148,3.27393,4.02148A3.31122,3.31122,0,0,0,219.39893,287.59375Z"/><path class="cls-27" d="M232.084,289h-6.5625V278.43164h1.64063v9.14746H232.084V289Z"/></g><text class="cls-28" transform="translate(223.64746 289)"> </text></g><g id="Rectangle-553"><rect class="cls-1" x="296.5" y="221.5" width="56" height="17" rx="1.5" ry="1.5"/><path class="cls-29" d="M351,222a1.00114,1.00114,0,0,1,1,1v14a1.00114,1.00114,0,0,1-1,1H298a1.00114,1.00114,0,0,1-1-1V223a1.00114,1.00114,0,0,1,1-1h53m0-1H298a2,2,0,0,0-2,2v14a2,2,0,0,0,2,2h53a2,2,0,0,0,2-2V223a2,2,0,0,0-2-2h0Z"/></g><g id="Isolated" class="cls-12"><g class="cls-12"><path class="cls-30" d="M302.7207,234l1.79883-8.45508h1.07813L303.79883,234H302.7207Z"/><path class="cls-30" d="M306.834,232.30664a1.421,1.421,0,0,0,1.48242.95508,1.23975,1.23975,0,0,0,1.459-.98437,0.90307,0.90307,0,0,0-.791-0.85547l-0.9668-.31055a1.70079,1.70079,0,0,1-1.46484-1.65234c0-1.125,1.01367-1.88672,2.36719-1.88672a2.15629,2.15629,0,0,1,2.373,1.72852h-1.002a1.27949,1.27949,0,0,0-1.38867-.873,1.14889,1.14889,0,0,0-1.33594.9375,1.01181,1.01181,0,0,0,.88477.85547l0.85547,0.27539a1.72288,1.72288,0,0,1,1.50586,1.70508c0,1.10742-1.07812,1.91016-2.543,1.91016-1.38867,0-2.37891-.73242-2.47266-1.80469H306.834Z"/><path class="cls-30" d="M312.29492,231.498c0-2.29687,1.38867-3.92578,3.35156-3.92578a2.459,2.459,0,0,1,2.57227,2.60156c0,2.27344-1.41211,3.9375-3.33984,3.9375A2.47764,2.47764,0,0,1,312.29492,231.498Zm2.71289,1.70508c1.17773,0,2.13281-1.25391,2.13281-2.78906,0-1.20117-.59766-1.93359-1.58789-1.93359-1.30078,0-2.18555,1.166-2.18555,2.89453A1.64583,1.64583,0,0,0,315.00781,233.20313Z"/><path class="cls-30" d="M321.00781,225.17578h1.03125L320.16406,234h-1.03125Z"/><path class="cls-30" d="M322.13281,232.36523c0-1.24219.97266-1.99219,2.72461-2.06836l1.793-.082,0.09375-.42773a1.56409,1.56409,0,0,0,.03516-0.29883,1.11473,1.11473,0,0,0-1.35352-1.01367,1.36354,1.36354,0,0,0-1.40039.791H322.959a2.45323,2.45323,0,0,1,2.54883-1.69336c1.38867,0,2.29688.69727,2.29688,1.76953a2.61085,2.61085,0,0,1-.05273.51563L326.873,234h-0.97852l0.17578-.82617h-0.09375a2.39278,2.39278,0,0,1-1.91016.9375A1.81354,1.81354,0,0,1,322.13281,232.36523Zm4.18945-.60937,0.1582-.72656-1.68164.082c-1.03125.05273-1.62891,0.48047-1.62891,1.14258a1.07015,1.07015,0,0,0,1.21289.98438A1.95223,1.95223,0,0,0,326.32227,231.75586Z"/><path class="cls-30" d="M329.43359,232.76953a2.74085,2.74085,0,0,1,.06445-0.54492l0.791-3.69727h-1.06055l0.17578-.84375h1.06641l0.334-1.63477h1.02539l-0.3457,1.63477h1.43555l-0.1875.84375h-1.42383l-0.7207,3.38672a2.8155,2.8155,0,0,0-.07031.56836,0.657,0.657,0,0,0,.79688.67969,3.204,3.204,0,0,0,.43945-0.02344l-0.18164.85547a2.94592,2.94592,0,0,1-.627.05273A1.29705,1.29705,0,0,1,329.43359,232.76953Z"/><path class="cls-30" d="M333.33008,231.46875c0-2.332,1.35938-3.89648,3.28711-3.89648a2.36476,2.36476,0,0,1,2.40234,2.55469,7.31732,7.31732,0,0,1-.07617.94922h-4.55273c-0.00586.10547-.01172,0.21094-0.01172,0.31641a1.58561,1.58561,0,0,0,1.582,1.79883,1.6389,1.6389,0,0,0,1.58789-.80273h1.07227a2.60579,2.60579,0,0,1-2.72461,1.72266A2.46458,2.46458,0,0,1,333.33008,231.46875Zm4.623-1.207a2.57753,2.57753,0,0,0,.01172-0.26367,1.408,1.408,0,0,0-1.44141-1.53516,2.14828,2.14828,0,0,0-1.998,1.79883h3.42773Z"/><path class="cls-30" d="M340.19727,231.55078c0-2.28516,1.43555-3.97852,3.25781-3.97852a1.90165,1.90165,0,0,1,1.89258,1.27734h0.09375l0.7793-3.67383h1.02539L345.37109,234h-0.97266l0.18164-.86133h-0.09375a2.50726,2.50726,0,0,1-1.99219.97266A2.35444,2.35444,0,0,1,340.19727,231.55078Zm4.92188-1.32422a1.5541,1.5541,0,0,0-1.58789-1.74609c-1.28906,0-2.2793,1.21875-2.2793,2.918a1.61531,1.61531,0,0,0,1.56445,1.80469C344.123,233.20313,345.11914,231.89648,345.11914,230.22656Z"/></g></g></g><path class="cls-31" d="M29.49448,68.53307c2.233-5.76916-6.2111-5.11758-5.91982-9.91774,0.16254-2.673,4.35985-5.03977,6.76206-4.46331,3.95519,0.94906,4.32,6.28087,4.625,9.59726"/><path class="cls-32" d="M29.49415,69.10027a0.5675,0.5675,0,0,1-.52849-0.77192c1.04979-2.7118-.51672-3.70054-2.49988-4.95223-1.69209-1.06811-3.60984-2.27858-3.45723-4.79514a4.9743,4.9743,0,0,1,2.2594-3.5246,6.87651,6.87651,0,0,1,5.20121-1.45575c4.23209,1.01556,4.712,6.298,5.02962,9.79359l0.02769,0.30316a0.56706,0.56706,0,0,1-1.12937.10378l-0.02769-.30436c-0.28823-3.17292-.72384-7.96773-4.16494-8.79339a5.805,5.805,0,0,0-4.262,1.26433,3.94744,3.94744,0,0,0-1.802,2.682c-0.11206,1.84689,1.2979,2.73687,2.93048,3.76737,1.933,1.22007,4.3387,2.73851,2.95206,6.32066A0.5673,0.5673,0,0,1,29.49415,69.10027Z"/><path class="cls-32" d="M32.37754,62.52681s-0.78272-3.64779-3.50432-4.40117c-1.82879-.50581-2.87444.76517-2.7022,1.70038,0.26173,1.42023,4.32986,3.33764,4.91319,4.33185"/><path class="cls-31" d="M60.50519,68.53307c-2.2328-5.76916,6.21132-5.11758,5.92026-9.91774-0.16264-2.673-4.35942-5.03977-6.76228-4.46331-3.955.94906-4.32,6.28087-4.625,9.59726"/><path class="cls-32" d="M60.50541,69.10027a0.56725,0.56725,0,0,1-.52893-0.36258c-1.38642-3.582,1.01927-5.10048,2.95228-6.32055,1.63257-1.0305,3.04276-1.92048,2.9307-3.76748a3.94749,3.94749,0,0,0-1.802-2.68193,5.80258,5.80258,0,0,0-4.262-1.26433c-3.44087.82566-3.87671,5.6208-4.16494,8.79383l-0.02769.30393a0.56706,0.56706,0,0,1-1.12937-.10378l0.02769-.30273c0.31766-3.49571.79754-8.77846,5.02962-9.794a6.87655,6.87655,0,0,1,5.20143,1.45575,4.97467,4.97467,0,0,1,2.25918,3.52449c0.15262,2.51667-1.76535,3.72714-3.45744,4.79525-1.98316,1.25168-3.54967,2.24043-2.5001,4.95233A0.56724,0.56724,0,0,1,60.50541,69.10027Z"/><path class="cls-32" d="M57.62182,62.52681s0.78334-3.64779,3.50475-4.40117c1.82924-.50581,2.87444.76517,2.70265,1.70038-0.26228,1.42023-4.33107,3.33764-4.91431,4.33185"/><path class="cls-31" d="M62.55856,78.04062V76.1621C61.9411,69.756,60.98616,61.933,57.89935,59.91552c-2.80227-1.83174-6.11365-2.25787-10.102-2.61009a6.21315,6.21315,0,0,1,1.048-1.368c-1.22421.03083-1.71759-.14358-2.83455,0.59324,0.4051-.38132.79426-1.01906,1.219-1.40529-1.93868-.32377-3.85709.71513-5.3921,2.06557-4.59192.27023-8.07881,1.014-10.69707,3.088-2.84524,2.25394-3.78241,9.48433-4.46,16.1705v1.59116c0,10.15759,12.54865,18.39238,17.93879,18.39238S62.55856,88.1982,62.55856,78.04062Z"/><path class="cls-33" d="M44.61944,91.52329c-7.15941,0-16.37489-7.2234-17.792-16.48444q-0.07585.707-.14684,1.41061v1.59116c0,10.15759,12.54865,18.39238,17.93879,18.39238s17.93913-8.2348,17.93913-18.39238V76.1621c-0.04034-.41883-0.08243-0.844-0.12625-1.27273C61.11567,84.22185,51.779,91.52329,44.61944,91.52329Z"/><path class="cls-34" d="M57.58911,60.39016c-2.70482-1.76808-5.91982-2.1736-9.84166-2.51994a0.5669,0.5669,0,0,1-.44761-0.83656,5.64583,5.64583,0,0,1,.32137-0.51716,2.42916,2.42916,0,0,0-1.29812.4875,0.567,0.567,0,0,1-.701-0.88616,4.46984,4.46984,0,0,0,.4016-0.45654,7.46722,7.46722,0,0,0-3.81152,1.95536,0.56715,0.56715,0,0,1-.34121.1403c-5.02265.29564-8.12646,1.18279-10.37822,2.96645-2.45631,1.94579-3.43563,8.20071-4.09273,14.29632,1.41339,8.98019,10.40017,15.93647,17.21938,15.93647,6.91039,0,15.93105-7.025,17.24232-16.09183C61.36066,69.87151,60.39437,62.22358,57.58911,60.39016Z"/><path class="cls-32" d="M27.40006,75.01974c0.6571-6.09562,1.63642-12.35053,4.09273-14.29632C33.74456,58.93975,36.84836,58.0526,41.871,57.757a0.56715,0.56715,0,0,0,.34121-0.1403,7.46722,7.46722,0,0,1,3.81152-1.95536,4.46984,4.46984,0,0,1-.4016.45654,0.567,0.567,0,0,0,.701.88616,2.42916,2.42916,0,0,1,1.29812-.4875,5.64583,5.64583,0,0,0-.32137.51716,0.5669,0.5669,0,0,0,.44761.83656c3.92184,0.34633,7.13684.75186,9.84166,2.51994,2.80526,1.83342,3.77155,9.48135,4.27265,14.47422,0.00263-.01819.00657-0.036,0.00914-0.05425l0.60751-4.30552c-0.7174-5.01826-1.8846-9.50536-4.26881-11.06373-2.69348-1.76055-5.75085-2.26267-9.40539-2.6126a6.31139,6.31139,0,0,1,.4415-0.48936,0.56688,0.56688,0,0,0-.40029-0.96847l-0.01439.00011c-0.22195.00556-.41948,0.004-0.6,0.00294-0.17224-.0012-0.33445-0.00218-0.49252.00218a0.56673,0.56673,0,0,0-.41534-0.80953c-2.2522-.37609-4.32475.88671-5.71161,2.07048-5.16044.32235-8.40466,1.28232-10.823,3.19789-2.21256,1.75281-3.311,6.07089-4.02307,11.05077L27.388,74.953C27.39145,74.97544,27.39655,74.99738,27.40006,75.01974Z"/><path class="cls-32" d="M63.123,76.10782l0.00261,0.05429c0-.0181-0.00087-0.03641-0.00261-0.05451q-0.06831-.70869-0.14185-1.42445l0.01518,0.14857C63.04039,75.26155,63.08247,75.6879,63.123,76.10782Z"/><path class="cls-32" d="M26.26174,74.99691q-0.07461.69661-.14523,1.39543a0.55376,0.55376,0,0,0-.00305.05712v1.59115l0.00305-1.64805Q26.18653,75.69705,26.26174,74.99691Z"/><path class="cls-33" d="M62.52236,70.19312l-0.04395.31149c0.19581,1.36973.35847,2.77828,0.50275,4.17854Z"/><path class="cls-33" d="M26.72872,70.645l-0.465,4.33336-0.00193.01857c0.14929-1.394.31283-2.77624,0.50376-4.11162Z"/><path class="cls-35" d="M44.61944,90.95621c-6.8192,0-15.806-6.95629-17.21938-15.93647q-0.0789.73187-.15244,1.45851v1.56237c0,5.81168,4.23165,10.37517,6.754,12.57831,3.53746,3.08942,7.90363,5.247,10.61783,5.247s7.08059-2.15758,10.61783-5.247c2.52255-2.20315,6.7542-6.76663,6.7542-12.57831V76.18936c-0.03982-.41324-0.08289-0.85843-0.12971-1.325C60.55049,83.93118,51.52983,90.95621,44.61944,90.95621Z"/><path class="cls-36" d="M63.123,76.10782c-0.04055-.41992-0.08263-0.84627-0.12667-1.2761l-0.01518-.14857c-0.14428-1.40025-.30694-2.80881-0.50275-4.17854L61.8709,74.81013c-0.00258.01822-.00651,0.03606-0.00914,0.05425,0.04682,0.46655.08989,0.91174,0.12971,1.325v1.85125c0,5.81168-4.23165,10.37517-6.7542,12.57831-3.53724,3.08942-7.90363,5.247-10.61783,5.247s-7.08037-2.15758-10.61783-5.247c-2.52233-2.20315-6.754-6.76663-6.754-12.57831V76.47824q0.07358-.72537.15244-1.45851c-0.00352-.02236-0.00861-0.0443-0.012-0.06669L26.7655,70.8853c-0.19094,1.33538-.35447,2.7176-0.50376,4.11162q-0.07479.69949-.14523,1.39565l-0.00305,1.64805c0,6.25994,4.47475,11.10272,7.14229,13.43232,3.72605,3.25424,8.399,5.52716,11.36369,5.52716s7.63786-2.27291,11.36391-5.52716c2.66732-2.3296,7.14229-7.17238,7.14229-13.43232V76.16211Z"/><path class="cls-37" d="M30.95449,66.33647a0.567,0.567,0,0,1-.48184-0.86512,7.51351,7.51351,0,0,1,6.1191-3.3432,0.567,0.567,0,1,1,0,1.13395,6.43766,6.43766,0,0,0-5.15455,2.80533A0.56626,0.56626,0,0,1,30.95449,66.33647Z"/><circle class="cls-37" cx="34.37404" cy="67.77563" r="1.70106"/><path class="cls-37" d="M58.72916,66.33647a0.567,0.567,0,0,1-.48205-0.26774h0a6.36345,6.36345,0,0,0-5.15543-2.80664,0.567,0.567,0,1,1,0-1.13395,7.51455,7.51455,0,0,1,6.11931,3.3432A0.567,0.567,0,0,1,58.72916,66.33647Z"/><circle class="cls-37" cx="55.30955" cy="67.77558" r="1.70062"/><path class="cls-38" d="M39.2232,68.78446C42.53336,64.04121,56.89295,65.433,51.01912,80.6192c-0.85247,2.21208-1.865,4.38711-2.81338,6.55885-0.10248.119-.17791-0.464-0.38657-0.40488-1.01272,1.66267-2.26245.9-3.32074-.62005-0.29412.32966-2.39109,0.93686-2.69709,1.25844C38.65122,83.60157,35.91184,73.52835,39.2232,68.78446Z"/><path class="cls-32" d="M46.52716,88.278a2.97017,2.97017,0,0,1-2.17655-1.37378c-0.24789.11686-.57733,0.24877-1.01818,0.42013a8.83646,8.83646,0,0,0-1.13395.49165,0.56675,0.56675,0,0,1-.83416-0.04317c-3.06391-3.70578-6.2002-14.16368-2.60584-19.31289,1.88941-2.708,6.75573-3.49974,10.20925-1.66157,1.9958,1.06255,6.24272,4.55607,2.58011,14.02535-0.634,1.64522-1.36375,3.288-2.0695,4.87657q-0.379.85324-.75306,1.70474a0.57062,0.57062,0,0,1-.08983.143,0.59989,0.59989,0,0,1-.54048.20734,0.58857,0.58857,0,0,1-.24332-0.08983,1.81569,1.81569,0,0,1-1.27327.61178ZM42.212,87.80248l-0.007.007ZM44.49843,85.586l0.034,0.00109a0.56675,0.56675,0,0,1,.43125.242,2.51382,2.51382,0,0,0,1.58,1.31469,1.19488,1.19488,0,0,0,.79121-0.66563,0.56608,0.56608,0,0,1,.32965-0.25051,0.66939,0.66939,0,0,1,.344-0.01047q0.21585-.48827.43343-0.97741c0.70008-1.57567,1.42392-3.20519,2.04791-4.82446,2.34879-6.07233,1.59965-10.67048-2.05511-12.61592-2.93527-1.56248-7.18611-.92639-8.74652,1.30957H39.68814c-2.95293,4.23067-.75219,13.51517,2.25307,17.56172,0.24964-.11708.57253-0.24441,0.98-0.40313a8.7824,8.7824,0,0,0,1.17014-.50909A0.56669,0.56669,0,0,1,44.49843,85.586Zm-0.41468.18031-0.0085.00938ZM39.22331,68.78446h0Z"/><path class="cls-32" d="M45.48849,81.07422H44.512a0.56708,0.56708,0,0,1,0-1.13417h0.97654A0.56708,0.56708,0,0,1,45.48849,81.07422Z"/><path class="cls-32" d="M49.17747,70.54284c-0.56774-.58692-2.31585-0.885-4.17735-0.8962-1.86128.01123-3.609,0.30928-4.17727,0.8962-1.32352,1.36779,1.76382,4.4936,4.17727,4.68875C47.41364,75.03644,50.50023,71.91063,49.17747,70.54284Z"/><path class="cls-32" d="M45.0097,81.07422a0.56722,0.56722,0,0,1-.56708-0.56708V75.23179a0.56708,0.56708,0,0,1,1.13417,0v5.27534A0.56722,0.56722,0,0,1,45.0097,81.07422Z"/><path class="cls-1" d="M47.58611,71.62467a0.48234,0.48234,0,0,1-.18489-0.037,18.01851,18.01851,0,0,0-4.78391-.005,0.48333,0.48333,0,1,1-.36846-0.89369,16.54912,16.54912,0,0,1,5.52258.00567A0.48343,0.48343,0,0,1,47.58611,71.62467Z"/></g></svg>