<svg id="Layer_1" data-name="Layer 1" xmlns="http://www.w3.org/2000/svg" xmlns:xlink="http://www.w3.org/1999/xlink" viewBox="0 0 450 315"><defs><style>.cls-1{fill:#e1e1e1}.cls-2{fill:#e0e0e0}.cls-3{fill:#fff}.cls-18,.cls-4{fill:#8635c1}.cls-5{fill:#f7f7f7}.cls-6{fill:url(#linear-gradient)}.cls-7{fill:url(#linear-gradient-2)}.cls-8{fill:#f8f5fa}.cls-9{fill:#853cbe}.cls-10{fill:url(#linear-gradient-3)}.cls-11{fill:url(#linear-gradient-4)}.cls-12{fill:url(#linear-gradient-5)}.cls-13{fill:url(#linear-gradient-6)}.cls-14,.cls-25{fill:none}.cls-14{stroke:#e0e0e0;stroke-width:2px}.cls-15,.cls-18{isolation:isolate}.cls-16{fill:#3e3745}.cls-17{fill:#444}.cls-18{opacity:.6}.cls-19{fill:#44275e}.cls-20{fill:#d1d3d4}.cls-21{fill:#2f1244}.cls-22{fill:#2ab0f6}.cls-23{fill:#bcbec0}.cls-24{fill:#ccadd2}.cls-26{fill:#231f20}.cls-27{fill:#682f94}.cls-28{fill:#351f49}</style><linearGradient id="linear-gradient" x1="-252.153" y1="423.944" x2="-253.153" y2="423.944" gradientTransform="matrix(300 0 0 -9 76026 4111)" gradientUnits="userSpaceOnUse"><stop offset="0" stop-color="#e8e8e8" stop-opacity="0"/><stop offset="1" stop-color="#e8e8e8"/></linearGradient><linearGradient id="linear-gradient-2" x1="-251.307" y1="423.944" x2="-252.307" y2="423.944" gradientTransform="matrix(150 0 0 -9 37926 4075)" xlink:href="#linear-gradient"/><linearGradient id="linear-gradient-3" x1="-251.307" y1="423.944" x2="-252.307" y2="423.944" gradientTransform="matrix(150 0 0 -9 37977 3914)" xlink:href="#linear-gradient"/><linearGradient id="linear-gradient-4" x1="-252.153" y1="423.944" x2="-253.153" y2="423.944" gradientTransform="matrix(300 0 0 -9 76026 3868)" xlink:href="#linear-gradient"/><linearGradient id="linear-gradient-5" x1="-251.307" y1="423.944" x2="-252.307" y2="423.944" gradientTransform="matrix(150 0 0 -9 37926 3832)" xlink:href="#linear-gradient"/><linearGradient id="linear-gradient-6" x1="-251.307" y1="423.944" x2="-252.307" y2="423.944" gradientTransform="matrix(150 0 0 -9 37977 3941)" xlink:href="#linear-gradient"/></defs><title>pr-page</title><rect id="Rectangle-553-Copy-3" class="cls-1" y="243" width="45" height="45" rx="3" ry="3"/><path class="cls-2" d="M447 244a2.002 2.002 0 0 1 2 2v66a2.002 2.002 0 0 1-2 2H68a2.002 2.002 0 0 1-2-2v-66a2.002 2.002 0 0 1 2-2h379m0-1H68a3 3 0 0 0-3 3v66a3 3 0 0 0 3 3h379a3 3 0 0 0 3-3v-66a3 3 0 0 0-3-3z" id="Rectangle-553-Copy-5"/><g id="Rectangle-553-Copy-7"><rect class="cls-3" x="65.5" y="152.5" width="384" height="71" rx="2.5" ry="2.5"/><path class="cls-4" d="M447 153a2.002 2.002 0 0 1 2 2v66a2.002 2.002 0 0 1-2 2H68a2.002 2.002 0 0 1-2-2v-66a2.002 2.002 0 0 1 2-2h379m0-1H68a3 3 0 0 0-3 3v66a3 3 0 0 0 3 3h379a3 3 0 0 0 3-3v-66a3 3 0 0 0-3-3z"/></g><g id="Combined-Shape-Copy-2"><path class="cls-5" d="M65.5 275.5V246a2.503 2.503 0 0 1 2.5-2.5h379a2.503 2.503 0 0 1 2.5 2.5v29.5h-384z"/><path class="cls-2" d="M447 244a2.002 2.002 0 0 1 2 2v29H66v-29a2.002 2.002 0 0 1 2-2h379m0-1H68a2.996 2.996 0 0 0-3 3v30h385v-30a3 3 0 0 0-3-3z"/></g><path id="Rectangle-556-Copy-7" class="cls-6" d="M84.5 291h291a4.5 4.5 0 0 1 4.5 4.5 4.5 4.5 0 0 1-4.5 4.5h-291a4.5 4.5 0 0 1-4.5-4.5 4.5 4.5 0 0 1 4.5-4.5z"/><path id="Rectangle-556-Copy-6" class="cls-7" d="M84.5 255h141a4.5 4.5 0 0 1 4.5 4.5 4.5 4.5 0 0 1-4.5 4.5h-141a4.5 4.5 0 0 1-4.5-4.5 4.5 4.5 0 0 1 4.5-4.5z"/><g id="Combined-Shape-Copy"><path class="cls-8" d="M65.5 184.5V155a2.503 2.503 0 0 1 2.5-2.5h379a2.503 2.503 0 0 1 2.5 2.5v29.5h-384z"/><path class="cls-9" d="M447 153a2.002 2.002 0 0 1 2 2v29H66v-29a2.002 2.002 0 0 1 2-2h379m0-1H68a2.996 2.996 0 0 0-3 3v30h385v-30a3 3 0 0 0-3-3z"/></g><rect id="Rectangle-553" class="cls-1" width="45" height="45" rx="3" ry="3"/><path class="cls-2" d="M447 1a2.002 2.002 0 0 1 2 2v66a2.002 2.002 0 0 1-2 2H68a2.002 2.002 0 0 1-2-2V3a2.002 2.002 0 0 1 2-2h379m0-1H68a3 3 0 0 0-3 3v66a3 3 0 0 0 3 3h379a3 3 0 0 0 3-3V3a3 3 0 0 0-3-3z" id="Rectangle-553-Copy"/><g id="Combined-Shape"><path class="cls-5" d="M65.5 32.5V3A2.503 2.503 0 0 1 68 .5h379a2.503 2.503 0 0 1 2.5 2.5v29.5h-384z"/><path class="cls-2" d="M447 1a2.002 2.002 0 0 1 2 2v29H66V3a2.002 2.002 0 0 1 2-2h379m0-1H68a2.996 2.996 0 0 0-3 3v30h385V3a3 3 0 0 0-3-3z"/></g><rect id="Rectangle-556" class="cls-2" x="105" y="90" width="16" height="16" rx="2.5" ry="2.5"/><path id="Rectangle-556-Copy" class="cls-10" d="M135.5 94h141a4.5 4.5 0 0 1 4.5 4.5 4.5 4.5 0 0 1-4.5 4.5h-141a4.5 4.5 0 0 1-4.5-4.5 4.5 4.5 0 0 1 4.5-4.5z"/><path id="Rectangle-556-Copy-5" class="cls-11" d="M84.5 48h291a4.5 4.5 0 0 1 4.5 4.5 4.5 4.5 0 0 1-4.5 4.5h-291a4.5 4.5 0 0 1-4.5-4.5 4.5 4.5 0 0 1 4.5-4.5z"/><path id="Rectangle-556-Copy-4" class="cls-12" d="M84.5 12h141a4.5 4.5 0 0 1 4.5 4.5 4.5 4.5 0 0 1-4.5 4.5h-141a4.5 4.5 0 0 1-4.5-4.5 4.5 4.5 0 0 1 4.5-4.5z"/><rect id="Rectangle-556-Copy-3" class="cls-2" x="105" y="117" width="16" height="16" rx="2.5" ry="2.5"/><path id="Rectangle-556-Copy-2" class="cls-13" d="M135.5 121h141a4.5 4.5 0 0 1 4.5 4.5 4.5 4.5 0 0 1-4.5 4.5h-141a4.5 4.5 0 0 1-4.5-4.5 4.5 4.5 0 0 1 4.5-4.5z"/><circle id="Oval-129" class="cls-14" cx="87" cy="98" r="3"/><path id="Rectangle-560" class="cls-2" d="M80 97h4v2h-4z"/><path id="Rectangle-560-Copy" class="cls-2" d="M90 97h4v2h-4z"/><path id="Rectangle-564" class="cls-2" d="M86 107h2v9h-2z"/><circle id="Oval-129-Copy" class="cls-14" cx="87" cy="125" r="3"/><path id="Rectangle-560-Copy-3" class="cls-2" d="M80 124h4v2h-4z"/><path id="Rectangle-560-Copy-2" class="cls-2" d="M90 124h4v2h-4z"/><g class="cls-15"><path class="cls-16" d="M82.77 173h-1.533v-9.864h3.904a2.952 2.952 0 0 1 3.268 3.035 2.842 2.842 0 0 1-1.914 2.817L88.71 173h-1.772l-2.01-3.76h-2.16V173zm0-5.065h2.2a1.64 1.64 0 0 0 1.866-1.73 1.682 1.682 0 0 0-1.907-1.723h-2.16v3.453zM96.693 173h-1.415v-1.183h-.116a2.233 2.233 0 0 1-2.25 1.327c-1.646 0-2.562-1.005-2.562-2.755v-4.834h1.47v4.45c0 1.203.485 1.777 1.565 1.777a1.69 1.69 0 0 0 1.84-1.873v-4.354h1.468V173zM98.826 165.556h1.415v1.182h.11a2.23 2.23 0 0 1 2.222-1.326c1.66 0 2.577.998 2.577 2.77V173h-1.47v-4.45c0-1.196-.52-1.79-1.607-1.79a1.707 1.707 0 0 0-1.777 1.886V173h-1.47v-7.444zM107.214 165.556h1.415v1.182h.108a2.23 2.23 0 0 1 2.222-1.326c1.66 0 2.577.998 2.577 2.77V173h-1.47v-4.45c0-1.196-.52-1.79-1.606-1.79a1.707 1.707 0 0 0-1.776 1.886V173h-1.47v-7.444zM115.178 170.895c0-1.34.998-2.113 2.768-2.222l2.017-.116v-.643c0-.786-.52-1.23-1.525-1.23a1.457 1.457 0 0 0-1.55.827h-1.423c.15-1.278 1.353-2.098 3.042-2.098 1.866 0 2.92.93 2.92 2.502V173h-1.416v-1.046h-.115a2.505 2.505 0 0 1-2.236 1.17 2.25 2.25 0 0 1-2.482-2.23zm4.785-.636v-.623l-1.818.116c-1.026.068-1.49.417-1.49 1.073a1.176 1.176 0 0 0 1.38 1.06 1.755 1.755 0 0 0 1.928-1.627zM125.11 171.824H125V173h-1.414v-10.35h1.47v4.088h.116a2.47 2.47 0 0 1 2.29-1.305c1.887 0 3.076 1.476 3.076 3.84 0 2.36-1.196 3.85-3.076 3.85a2.578 2.578 0 0 1-2.352-1.3zm-.082-2.543c.007 1.56.773 2.524 2.01 2.524 1.244 0 1.99-.95 1.99-2.53 0-1.565-.746-2.522-1.99-2.522-1.23 0-2.003.97-2.01 2.53zM131.933 169.274c0-2.4 1.34-3.862 3.513-3.862 2.167 0 3.507 1.463 3.507 3.862 0 2.413-1.333 3.87-3.507 3.87-2.18 0-3.513-1.457-3.513-3.87zm5.51 0c0-1.613-.725-2.556-1.997-2.556-1.278 0-1.996.943-1.996 2.556 0 1.627.718 2.564 1.996 2.564 1.272 0 1.996-.943 1.996-2.564zM142.706 163.703v1.887h1.613v1.237h-1.614v3.828a.94.94 0 0 0 1.053 1.12 4.84 4.84 0 0 0 .56-.033v1.224a4.748 4.748 0 0 1-.8.075c-1.634 0-2.284-.573-2.284-2.01v-4.203h-1.182v-1.237h1.182v-1.887h1.47z"/></g><g class="cls-15"><path class="cls-17" d="M83.98 209v-4.245l-3.5-5.62h1.4l2.66 4.383h.108l2.66-4.382h1.4l-3.5 5.62V209h-1.23zM88.764 205.315c0-2.372 1.3-3.814 3.397-3.814s3.4 1.443 3.4 3.815c0 2.366-1.3 3.815-3.4 3.815s-3.396-1.45-3.396-3.815zm5.578 0c0-1.75-.786-2.754-2.18-2.754s-2.182 1.005-2.182 2.755c0 1.744.787 2.755 2.18 2.755s2.182-1.01 2.182-2.755zM103.365 209h-1.12v-1.155h-.11a2.3 2.3 0 0 1-2.283 1.285c-1.655 0-2.516-.984-2.516-2.728v-4.77h1.176v4.483c0 1.326.492 1.942 1.668 1.942a1.854 1.854 0 0 0 2.01-2.065v-4.36h1.175V209zM105.58 201.63h1.12v1.095h.11a2.058 2.058 0 0 1 2.044-1.224 5.05 5.05 0 0 1 .588.035v1.176a4.72 4.72 0 0 0-.752-.067 1.805 1.805 0 0 0-1.934 1.79V209h-1.176v-7.37zM121.55 205.315c0 2.304-1.225 3.815-3.098 3.815a2.473 2.473 0 0 1-2.304-1.237h-.11v3.568h-1.175v-9.83h1.12v1.23h.11a2.657 2.657 0 0 1 2.36-1.36c1.88 0 3.096 1.498 3.096 3.815zm-1.218 0c0-1.722-.807-2.754-2.153-2.754-1.334 0-2.175 1.06-2.175 2.755 0 1.69.84 2.755 2.167 2.755 1.353 0 2.16-1.032 2.16-2.755zM129.355 209h-1.12v-1.155h-.11a2.3 2.3 0 0 1-2.283 1.285c-1.654 0-2.516-.984-2.516-2.728v-4.77h1.176v4.483c0 1.326.492 1.942 1.668 1.942a1.854 1.854 0 0 0 2.01-2.065v-4.36h1.176V209zM131.64 198.705h1.174V209h-1.175v-10.295zM135.166 198.705h1.176V209h-1.176v-10.295zM142.576 201.63h1.12v1.095h.11a2.058 2.058 0 0 1 2.045-1.224 5.05 5.05 0 0 1 .588.035v1.176a4.72 4.72 0 0 0-.752-.067 1.805 1.805 0 0 0-1.934 1.79V209h-1.176v-7.37zM153.76 207.093a2.946 2.946 0 0 1-3.104 2.037c-2.044 0-3.322-1.477-3.322-3.808 0-2.317 1.3-3.82 3.322-3.82 1.99 0 3.2 1.414 3.2 3.704v.45h-5.298v.056a2.17 2.17 0 0 0 2.126 2.38 1.91 1.91 0 0 0 1.9-1h1.176zm-5.202-2.386h4.06a1.984 1.984 0 0 0-1.975-2.167 2.1 2.1 0 0 0-2.085 2.167zM160.773 202.86h.11v-1.23h1.135v9.83h-1.19v-3.567h-.11a2.51 2.51 0 0 1-2.303 1.237c-1.88 0-3.083-1.49-3.083-3.815 0-2.31 1.217-3.814 3.083-3.814a2.657 2.657 0 0 1 2.358 1.36zm.09 2.455c0-1.688-.842-2.754-2.175-2.754-1.34 0-2.14 1.033-2.14 2.755 0 1.73.794 2.755 2.134 2.755 1.346 0 2.18-1.06 2.18-2.755zM170.193 209h-1.12v-1.155h-.11a2.3 2.3 0 0 1-2.283 1.285c-1.655 0-2.516-.984-2.516-2.728v-4.77h1.176v4.483c0 1.326.492 1.942 1.668 1.942a1.854 1.854 0 0 0 2.01-2.065v-4.36h1.175V209zM178.465 207.093a2.946 2.946 0 0 1-3.104 2.037c-2.043 0-3.32-1.477-3.32-3.808 0-2.317 1.298-3.82 3.32-3.82 1.99 0 3.2 1.414 3.2 3.704v.45h-5.297v.056a2.17 2.17 0 0 0 2.126 2.38 1.91 1.91 0 0 0 1.9-1h1.175zm-5.202-2.386h4.06a1.984 1.984 0 0 0-1.975-2.167 2.1 2.1 0 0 0-2.085 2.167zM182.983 201.5c1.545 0 2.62.767 2.776 1.977h-1.163a1.502 1.502 0 0 0-1.62-.978 1.347 1.347 0 0 0-1.56 1.1c0 .506.41.82 1.28 1.032l1.134.273c1.39.335 2.06.937 2.06 1.996 0 1.32-1.28 2.23-2.954 2.23-1.64 0-2.77-.786-2.9-2.01h1.21a1.623 1.623 0 0 0 1.73 1.02c.992 0 1.703-.473 1.703-1.15a1.192 1.192 0 0 0-1.17-1.04l-1.265-.306c-1.38-.335-2.01-.93-2.01-1.997 0-1.223 1.183-2.146 2.748-2.146zM189.334 199.724v1.907h1.64v.985h-1.64v4.17a1.005 1.005 0 0 0 1.094 1.237 4.965 4.965 0 0 0 .547-.027v.99a3.94 3.94 0 0 1-.69.07c-1.518 0-2.127-.56-2.127-1.97v-4.47h-1.19v-.984h1.19v-1.906h1.176zM196.498 199.313a.82.82 0 1 1 .82.82.823.823 0 0 1-.82-.82zm.232 2.318h1.176V209h-1.176v-7.37zM202.726 201.5c1.545 0 2.618.767 2.775 1.977h-1.16a1.502 1.502 0 0 0-1.62-.978 1.347 1.347 0 0 0-1.56 1.1c0 .506.41.82 1.278 1.032l1.135.273c1.388.335 2.058.937 2.058 1.996 0 1.32-1.277 2.23-2.952 2.23-1.64 0-2.77-.786-2.9-2.01h1.21a1.623 1.623 0 0 0 1.73 1.02c.992 0 1.703-.473 1.703-1.15a1.192 1.192 0 0 0-1.168-1.04l-1.265-.306c-1.38-.335-2.01-.93-2.01-1.997 0-1.223 1.183-2.146 2.75-2.146zM211.428 201.63h1.12v1.095h.11a2.058 2.058 0 0 1 2.044-1.224 5.05 5.05 0 0 1 .588.035v1.176a4.72 4.72 0 0 0-.752-.067 1.805 1.805 0 0 0-1.935 1.79V209h-1.175v-7.37zM222.61 207.093a2.946 2.946 0 0 1-3.102 2.037c-2.044 0-3.322-1.477-3.322-3.808 0-2.317 1.298-3.82 3.322-3.82 1.99 0 3.2 1.414 3.2 3.704v.45h-5.3v.056a2.17 2.17 0 0 0 2.127 2.38 1.91 1.91 0 0 0 1.9-1h1.176zm-5.2-2.386h4.06a1.984 1.984 0 0 0-1.976-2.167 2.1 2.1 0 0 0-2.085 2.167zM224.115 206.936c0-1.32.97-2.08 2.687-2.18l2.126-.13v-.67a1.39 1.39 0 0 0-1.668-1.41 1.542 1.542 0 0 0-1.66.917h-1.19c.156-1.183 1.32-1.962 2.89-1.962 1.8 0 2.803.924 2.803 2.455V209h-1.12v-1.087h-.11a2.546 2.546 0 0 1-2.27 1.217 2.24 2.24 0 0 1-2.488-2.194zm4.813-.684v-.677l-1.983.13c-1.12.075-1.613.465-1.613 1.203a1.287 1.287 0 0 0 1.49 1.19 1.938 1.938 0 0 0 2.106-1.846zM231.908 205.315c0-2.31 1.224-3.814 3.097-3.814a2.518 2.518 0 0 1 2.31 1.293h.103v-4.088h1.176V209h-1.12v-1.176h-.11a2.64 2.64 0 0 1-2.36 1.306c-1.886 0-3.096-1.497-3.096-3.815zm1.217 0c0 1.723.807 2.755 2.153 2.755 1.34 0 2.167-1.052 2.167-2.755 0-1.688-.834-2.754-2.167-2.754-1.34 0-2.153 1.04-2.153 2.755zM240.98 211.625v-1.005a2.83 2.83 0 0 0 .492.034 1.364 1.364 0 0 0 1.353-1.21l.137-.437-2.728-7.376h1.272l2.023 6.064h.11l2.015-6.063h1.25l-2.877 7.82c-.63 1.71-1.216 2.216-2.522 2.216a3.48 3.48 0 0 1-.527-.04zM254.098 199.724v1.907h1.64v.985h-1.64v4.17a1.005 1.005 0 0 0 1.093 1.237 4.965 4.965 0 0 0 .548-.027v.99a3.94 3.94 0 0 1-.69.07c-1.518 0-2.126-.56-2.126-1.97v-4.47h-1.19v-.984h1.19v-1.906h1.176zM257.044 205.315c0-2.372 1.3-3.814 3.397-3.814s3.4 1.443 3.4 3.815c0 2.366-1.3 3.815-3.4 3.815s-3.396-1.45-3.396-3.815zm5.578 0c0-1.75-.786-2.754-2.18-2.754s-2.18 1.005-2.18 2.755c0 1.744.785 2.755 2.18 2.755s2.18-1.01 2.18-2.755zM271.304 199.724v1.907h1.64v.985h-1.64v4.17a1.005 1.005 0 0 0 1.093 1.237 4.965 4.965 0 0 0 .547-.027v.99a3.94 3.94 0 0 1-.69.07c-1.518 0-2.126-.56-2.126-1.97v-4.47h-1.19v-.984h1.19v-1.906h1.176zM280.676 207.093a2.946 2.946 0 0 1-3.104 2.037c-2.044 0-3.322-1.477-3.322-3.808 0-2.317 1.3-3.82 3.322-3.82 1.99 0 3.2 1.414 3.2 3.704v.45h-5.298v.056a2.17 2.17 0 0 0 2.126 2.38 1.91 1.91 0 0 0 1.9-1h1.176zm-5.202-2.386h4.06a1.984 1.984 0 0 0-1.975-2.167 2.1 2.1 0 0 0-2.086 2.167zM285.194 201.5c1.545 0 2.618.767 2.776 1.977h-1.162a1.502 1.502 0 0 0-1.62-.978 1.347 1.347 0 0 0-1.56 1.1c0 .506.41.82 1.28 1.032l1.134.273c1.388.335 2.058.937 2.058 1.996 0 1.32-1.28 2.23-2.953 2.23-1.64 0-2.77-.786-2.9-2.01h1.21a1.623 1.623 0 0 0 1.73 1.02c.992 0 1.703-.473 1.703-1.15a1.192 1.192 0 0 0-1.17-1.04l-1.264-.306c-1.38-.335-2.01-.93-2.01-1.997 0-1.223 1.183-2.146 2.748-2.146zM291.545 199.724v1.907h1.64v.985h-1.64v4.17a1.005 1.005 0 0 0 1.094 1.237 4.965 4.965 0 0 0 .546-.027v.99a3.94 3.94 0 0 1-.69.07c-1.518 0-2.127-.56-2.127-1.97v-4.47h-1.19v-.984h1.19v-1.906h1.175zM298.545 205.315c0-2.372 1.3-3.814 3.397-3.814s3.398 1.443 3.398 3.815c0 2.366-1.3 3.815-3.398 3.815s-3.397-1.45-3.397-3.815zm5.578 0c0-1.75-.786-2.754-2.18-2.754s-2.18 1.005-2.18 2.755c0 1.744.785 2.755 2.18 2.755s2.18-1.01 2.18-2.755zM307.186 201.63h1.12v1.163h.11a2.215 2.215 0 0 1 2.215-1.292 2.402 2.402 0 0 1 2.578 2.73V209h-1.176v-4.484c0-1.327-.56-1.955-1.736-1.955a1.868 1.868 0 0 0-1.935 2.08V209h-1.174v-7.37z"/></g><path class="cls-15 cls-17" d="M384.18 207.216a.954.954 0 1 1-.95.957.912.912 0 0 1 .95-.957zm.677-8.087l-.116 6.59h-1.134l-.116-6.59h1.367z"/><g class="cls-15"><path class="cls-9" d="M321.488 209h-1.23v-9.864h3.766a2.864 2.864 0 0 1 3.145 2.94 2.817 2.817 0 0 1-1.983 2.83L327.47 209h-1.443l-2.112-3.903h-2.427V209zm0-4.997h2.427a1.755 1.755 0 0 0 1.982-1.887 1.808 1.808 0 0 0-2.037-1.887h-2.372v3.773zM335.215 209h-1.12v-1.155h-.11a2.3 2.3 0 0 1-2.284 1.285c-1.653 0-2.514-.984-2.514-2.728v-4.77h1.175v4.483c0 1.326.494 1.942 1.67 1.942a1.854 1.854 0 0 0 2.01-2.065v-4.36h1.175V209zM337.43 201.63h1.12v1.163h.11a2.215 2.215 0 0 1 2.215-1.292 2.402 2.402 0 0 1 2.577 2.73V209h-1.176v-4.484c0-1.327-.56-1.955-1.736-1.955a1.868 1.868 0 0 0-1.935 2.08V209h-1.175v-7.37zM345.6 201.63h1.12v1.163h.11a2.215 2.215 0 0 1 2.214-1.292 2.402 2.402 0 0 1 2.577 2.73V209h-1.175v-4.484c0-1.327-.56-1.955-1.736-1.955a1.868 1.868 0 0 0-1.936 2.08V209H345.6v-7.37zM353.33 206.936c0-1.32.97-2.08 2.687-2.18l2.126-.13v-.67a1.39 1.39 0 0 0-1.668-1.41 1.542 1.542 0 0 0-1.662.917h-1.19c.158-1.183 1.32-1.962 2.893-1.962 1.797 0 2.802.924 2.802 2.455V209h-1.12v-1.087h-.11a2.546 2.546 0 0 1-2.27 1.217 2.24 2.24 0 0 1-2.488-2.194zm4.813-.684v-.677l-1.983.13c-1.12.075-1.613.465-1.613 1.203a1.287 1.287 0 0 0 1.49 1.19 1.938 1.938 0 0 0 2.106-1.846zM362.79 207.824h-.108V209h-1.12v-10.295h1.174v4.088h.11a2.544 2.544 0 0 1 2.31-1.292c1.873 0 3.09 1.498 3.09 3.815 0 2.304-1.224 3.815-3.09 3.815a2.644 2.644 0 0 1-2.365-1.306zm-.08-2.51c0 1.704.833 2.756 2.173 2.756 1.347 0 2.146-1.032 2.146-2.755s-.8-2.754-2.147-2.754c-1.34 0-2.174 1.053-2.174 2.755zM370.16 198.705h1.176V209h-1.176v-10.295zM379.676 207.093a2.946 2.946 0 0 1-3.104 2.037c-2.044 0-3.322-1.477-3.322-3.808 0-2.317 1.3-3.82 3.322-3.82 1.99 0 3.2 1.414 3.2 3.704v.45h-5.298v.056a2.17 2.17 0 0 0 2.126 2.38 1.91 1.91 0 0 0 1.9-1h1.176zm-5.202-2.386h4.06a1.984 1.984 0 0 0-1.975-2.167 2.1 2.1 0 0 0-2.086 2.167z"/></g><path id="Rectangle-710" class="cls-18" d="M319 212h62v1h-62z"/><path class="cls-9" d="M38.593 167.05c-2.202-5.69 6.127-5.048 5.84-9.783-.16-2.637-4.3-4.972-6.67-4.403-3.902.936-4.262 6.196-4.563 9.467"/><path class="cls-19" d="M38.594 167.61a.56.56 0 0 1-.522-.358c-1.368-3.534 1.005-5.032 2.912-6.235 1.61-1.017 3-1.894 2.89-3.716a3.895 3.895 0 0 0-1.777-2.645 5.722 5.722 0 0 0-4.204-1.247c-3.394.814-3.824 5.544-4.108 8.673l-.028.302a.56.56 0 1 1-1.113-.102l.027-.3c.314-3.448.788-8.658 4.962-9.66a6.785 6.785 0 0 1 5.13 1.436 4.907 4.907 0 0 1 2.23 3.477c.15 2.482-1.742 3.676-3.41 4.73-1.957 1.235-3.502 2.21-2.467 4.885a.56.56 0 0 1-.52.76z"/><path class="cls-19" d="M35.75 161.125s.772-3.598 3.456-4.34c1.804-.5 2.836.754 2.666 1.676-.258 1.402-4.272 3.293-4.847 4.274"/><path class="cls-20" d="M6.828 152.592c-.32-.31-1.973.88-3.688 2.653-1.717 1.773-2.847 3.462-2.526 3.77l5.98 6.787 7.247-7.494z"/><path class="cls-19" d="M6.593 166.36H6.58a.56.56 0 0 1-.407-.188l-5.97-6.776a.754.754 0 0 1-.203-.522c-.02-1.113 2.277-3.542 2.738-4.018 1.578-1.633 3.625-3.415 4.454-2.69l7.003 5.71a.56.56 0 0 1 .048.82l-7.248 7.495a.56.56 0 0 1-.402.172zm-5.45-7.59l5.47 6.208 6.403-6.62-6.415-5.23a12.018 12.018 0 0 0-3.058 2.506 12.038 12.038 0 0 0-2.4 3.135zm-.14-.158zm5.438-5.617z"/><path class="cls-19" d="M2.397 159.018a.56.56 0 0 1-.3-1.032 13.87 13.87 0 0 0 2.127-1.74 15.402 15.402 0 0 0 1.81-2.197.56.56 0 0 1 .937.608 16.273 16.273 0 0 1-1.956 2.378 14.735 14.735 0 0 1-2.32 1.896.555.555 0 0 1-.297.086z"/><path class="cls-19" d="M6.593 166.36H6.58a.56.56 0 0 1-.407-.188l-5.97-6.776a.754.754 0 0 1-.203-.522c-.02-1.113 2.277-3.542 2.738-4.018 1.578-1.633 3.625-3.415 4.454-2.69l7.003 5.71a.56.56 0 0 1 .048.82l-7.248 7.495a.56.56 0 0 1-.402.172zm-5.45-7.59l5.47 6.208 6.403-6.62-6.415-5.23a12.018 12.018 0 0 0-3.058 2.506 12.038 12.038 0 0 0-2.4 3.135zm-.14-.158zm5.438-5.617z"/><path class="cls-9" d="M40.732 176.43v-1.854c-.61-6.32-1.552-14.037-4.597-16.027-2.764-1.808-6.92-2.634-9.636-2.812-1.753 0-2.948-.123-5.385 0-4.53.267-8.793 1.124-11.376 3.17-2.808 2.223-3.732 9.356-4.4 15.95v1.57c0 10.02 12.378 18.144 17.695 18.144s17.697-8.123 17.697-18.143z"/><path class="cls-19" d="M9.555 165.75a.56.56 0 0 1-.475-.854 7.412 7.412 0 0 1 6.036-3.298.56.56 0 0 1 0 1.118 6.35 6.35 0 0 0-5.084 2.768.56.56 0 0 1-.477.265z"/><path class="cls-21" d="M9.555 164.883a.56.56 0 0 1-.475-.853 7.412 7.412 0 0 1 6.036-3.298.56.56 0 0 1 0 1.12 6.35 6.35 0 0 0-5.084 2.766.56.56 0 0 1-.477.265z"/><circle class="cls-21" cx="12.928" cy="166.079" r="1.369"/><path class="cls-19" d="M9.55 165.702a.56.56 0 0 1-.474-.853 7.412 7.412 0 0 1 6.036-3.3.56.56 0 0 1 0 1.12 6.35 6.35 0 0 0-5.085 2.767.56.56 0 0 1-.476.265z"/><path class="cls-21" d="M9.55 164.837a.56.56 0 0 1-.474-.854 7.412 7.412 0 0 1 6.036-3.298.56.56 0 0 1 0 1.12 6.35 6.35 0 0 0-5.085 2.766.56.56 0 0 1-.476.267z"/><circle class="cls-21" cx="12.924" cy="166.032" r="1.369"/><path class="cls-20" d="M9.937 158.9c-2.8 2.218-3.864 9.08-4.57 15.676a88.7 88.7 0 0 1 16.065-3.078l-.634-15.76a1.23 1.23 0 0 0-.05.04c-4.64.274-8.165 1.026-10.81 3.122z"/><path class="cls-22" d="M9.782 164.52a3.962 3.962 0 0 0 3.52 2.466c2.573 0 3.877-2.693 3.877-2.693"/><path class="cls-19" d="M13.302 167.546a4.49 4.49 0 0 1-4.042-2.827.56.56 0 0 1 1.044-.403 3.373 3.373 0 0 0 2.998 2.11c2.183 0 3.363-2.355 3.374-2.38a.56.56 0 0 1 1.007.49c-.06.123-1.49 3.01-4.38 3.01z"/><path class="cls-19" d="M6.05 173.45l.003.02c.688-6.04 1.766-12.18 4.23-14.132 2.2-1.742 5.204-2.64 9.98-2.968l.59 14.624a91.263 91.263 0 0 0-14.746 2.77q.098.553.234 1.096a91.43 91.43 0 0 1 15.143-2.805.56.56 0 0 0 .508-.58l-.634-15.76a.56.56 0 0 0-.79-.486c-5.24.322-8.528 1.292-10.976 3.23-2.94 2.33-4.034 9.095-4.778 16.057a.56.56 0 0 0 .728.59l.358-.112v-.108q.073-.715.15-1.438z"/><path class="cls-23" d="M21.115 164.107s-7.21.113-14.1.412"/><path class="cls-19" d="M7.015 165.078a.56.56 0 0 1-.024-1.118c6.82-.296 14.044-.41 14.116-.412h.01a.56.56 0 0 1 .007 1.118c-.07 0-7.28.117-14.083.412z"/><path class="cls-24" d="M17.712 167.298c3.265-4.68 17.43-3.306 11.636 11.674a35.454 35.454 0 0 1-3.156 6.07c-1 1.64-2.232.89-3.276-.61-.29.325-2.36.923-2.66 1.24-3.108-3.757-5.81-13.694-2.544-18.374z"/><path class="cls-19" d="M24.917 186.528a2.93 2.93 0 0 1-2.147-1.355c-.244.115-.568.244-1 .413a8.654 8.654 0 0 0-1.122.486.56.56 0 0 1-.824-.042c-3.022-3.656-6.116-13.973-2.57-19.052 1.864-2.67 6.664-3.453 10.07-1.64 1.97 1.05 6.16 4.495 2.546 13.836a41.112 41.112 0 0 1-1.844 3.893 13.48 13.48 0 0 1-1.4 2.34 2.066 2.066 0 0 1-1.658 1.12zm-4.256-.47l-.006.008zm2.256-2.185h.034a.56.56 0 0 1 .425.24 2.48 2.48 0 0 0 1.56 1.296 1.18 1.18 0 0 0 .78-.658.558.558 0 0 1 .13-.147 40.437 40.437 0 0 0 2.98-5.834c2.318-5.99 1.58-10.525-2.026-12.444-2.897-1.54-7.09-.913-8.63 1.292-2.912 4.174-.742 13.332 2.223 17.324.247-.116.567-.242.97-.4a8.658 8.658 0 0 0 1.152-.5.56.56 0 0 1 .4-.17zm2.908.756zm.213-.124zm.002 0h-.002zm-3.532-.456l-.01.01zm-4.796-16.752z"/><path class="cls-19" d="M24.668 179.42h-2.514a.56.56 0 0 1 0-1.117h2.514a.56.56 0 0 1 0 1.118zM27.53 169.033c-.56-.58-2.283-.873-4.12-.884-1.835.01-3.56.304-4.12.883-1.306 1.35 1.74 4.432 4.12 4.625 2.38-.193 5.426-3.276 4.12-4.625z"/><path class="cls-19" d="M23.42 179.42a.56.56 0 0 1-.56-.558v-5.204a.56.56 0 1 1 1.12 0v5.204a.56.56 0 0 1-.56.56z"/><path class="cls-25" d="M35.83 159.017c-2.64-1.725-6.68-2.543-9.35-2.72-.578 0-1.106-.014-1.616-.027a43.566 43.566 0 0 0-3.72.027c-5.166.304-8.888 1.33-11.058 3.05-2.423 1.92-3.39 8.09-4.037 14.102 1.393 8.858 10.258 15.72 16.985 15.72 6.817 0 15.715-6.93 17.01-15.874-.496-4.925-1.45-12.47-4.216-14.28z"/><path class="cls-19" d="M41.16 173.217l.003.044zM41.164 173.266c.043.423.084.843.124 1.256q-.06-.625-.124-1.256zM4.783 174.802c.046-.457.094-.917.143-1.378q-.074.688-.143 1.378zM4.78 174.86v1.57l.003-1.628a.532.532 0 0 0-.003.057zM6.05 173.45c.647-6.014 1.613-12.184 4.036-14.104 2.17-1.72 5.892-2.745 11.057-3.05a43.558 43.558 0 0 1 3.72-.026c.51.013 1.04.027 1.618.027 2.67.177 6.71.995 9.35 2.72 2.766 1.81 3.72 9.354 4.214 14.28l.01-.055.598-4.246c-.708-4.95-1.86-9.378-4.21-10.915-2.827-1.847-7.103-2.717-9.906-2.9H26.5c-.573 0-1.075-.014-1.607-.028a44.617 44.617 0 0 0-3.81.028c-5.405.318-9.338 1.425-11.69 3.29-2.184 1.728-3.268 5.988-3.97 10.9l.614 4.013.012.066z"/><path class="cls-26" d="M5.385 169.12l-.457 4.288-.002.016c.147-1.375.31-2.738.497-4.054zM40.697 168.68l-.045.316c.198 1.383.362 2.807.507 4.22zM41.163 173.264v-.003.006-.002z"/><path class="cls-25" d="M20.263 156.37c-4.776.33-7.78 1.226-9.98 2.968-2.464 1.953-3.542 8.092-4.23 14.133.015.1.036.195.054.293a91.263 91.263 0 0 1 14.745-2.77z"/><path class="cls-27" d="M40.044 173.296c-1.294 8.944-10.192 15.873-17.01 15.873-6.364 0-14.64-6.145-16.693-14.31q-.22.066-.442.135v1.434c0 5.732 4.175 10.234 6.663 12.407 3.49 3.047 7.797 5.176 10.475 5.176 2.677 0 6.985-2.13 10.474-5.176 2.488-2.173 6.662-6.675 6.662-12.408v-1.827l-.128-1.307z"/><path class="cls-20" d="M6.017 173.79l.09-.027c-.018-.098-.04-.194-.054-.292l-.036.32z"/><path class="cls-28" d="M6.107 173.763l-.09.026.036-.32-.004-.02q-.08.72-.152 1.437v.108q.22-.07.443-.135-.135-.543-.233-1.097z"/><path class="cls-28" d="M41.288 174.522c-.04-.413-.08-.833-.124-1.256v-.005l-.005-.043a107.34 107.34 0 0 0-.508-4.22l-.6 4.245c0 .018-.005.036-.008.054.046.46.09.9.128 1.307v1.826c0 5.732-4.174 10.234-6.663 12.407-3.49 3.048-7.797 5.176-10.475 5.176s-6.984-2.13-10.474-5.176c-2.487-2.173-6.662-6.675-6.662-12.408v-1.543q.073-.715.15-1.438c-.003-.023-.008-.045-.01-.067l-.615-4.013c-.188 1.317-.35 2.68-.497 4.054-.05.46-.097.92-.143 1.378l-.003 1.627c0 6.174 4.414 10.95 7.045 13.25 3.676 3.21 8.285 5.452 11.21 5.452 2.925 0 7.535-2.242 11.21-5.453 2.632-2.3 7.046-7.076 7.046-13.25v-1.854c0-.018 0-.036-.002-.054z"/><circle class="cls-21" cx="33.625" cy="164.764" r="2.057"/></svg>