<svg id="Layer_1" data-name="Layer 1" xmlns="http://www.w3.org/2000/svg" xmlns:xlink="http://www.w3.org/1999/xlink" viewBox="0 0 1080 420"><defs><style>.cls-1{fill:#fff}.cls-2{fill:#f7f7f7}.cls-3{fill:#e6e6e6}.cls-4{fill:#e8e8e8}.cls-5{fill:url(#linear-gradient)}.cls-6{fill:#eee}.cls-7{fill:url(#linear-gradient-2)}.cls-8{fill:url(#linear-gradient-3)}.cls-9{fill:url(#linear-gradient-4)}.cls-10{fill:url(#linear-gradient-5)}.cls-11{fill:url(#linear-gradient-6)}.cls-12{fill:#834eab}.cls-13{fill:#e0e0e0}.cls-14{fill:#e1e1e1}.cls-15{fill:#f8f8f8}.cls-16{fill:#7944a3}.cls-17{fill:#60cd77}.cls-18{fill:#6eb87e}.cls-19{fill:#dff7e4}.cls-20{fill:#3c804b}.cls-21{fill:none;stroke:#3c804b;stroke-width:1.5px}</style><linearGradient id="linear-gradient" x1="60.231" y1="482.833" x2="59.231" y2="482.833" gradientTransform="matrix(78 0 0 -9 -4203 4448)" gradientUnits="userSpaceOnUse"><stop offset="0" stop-color="#e8e8e8" stop-opacity="0"/><stop offset="1" stop-color="#e8e8e8"/></linearGradient><linearGradient id="linear-gradient-2" x1="60.333" y1="482.833" x2="59.333" y2="482.833" gradientTransform="matrix(90 0 0 -9 -4923 4543)" xlink:href="#linear-gradient"/><linearGradient id="linear-gradient-3" x1="60.6" y1="482.833" x2="59.6" y2="482.833" gradientTransform="matrix(150 0 0 -9 -8523 4564)" xlink:href="#linear-gradient"/><linearGradient id="linear-gradient-4" x1="60" y1="482.833" x2="59" y2="482.833" gradientTransform="matrix(60 0 0 -9 -3123 4596)" xlink:href="#linear-gradient"/><linearGradient id="linear-gradient-5" x1="60.487" y1="482.833" x2="59.487" y2="482.833" gradientTransform="matrix(117 0 0 -9 -6411 4448)" xlink:href="#linear-gradient"/><linearGradient id="linear-gradient-6" x1="60.806" y1="482.833" x2="59.806" y2="482.833" gradientTransform="matrix(309 0 0 -9 -17737 4448)" xlink:href="#linear-gradient"/></defs><title>updates</title><path id="Rectangle-326" class="cls-1" d="M374 30h705v390H374z"/><g id="Rectangle-7-Copy-28"><rect class="cls-2" x="388" y="179" width="273" height="86" rx="2" ry="2"/><path class="cls-3" d="M659 180a1 1 0 0 1 1 1v82a1 1 0 0 1-1 1H390a1 1 0 0 1-1-1v-82a1 1 0 0 1 1-1h269m0-2H390a3 3 0 0 0-3 3v82a3 3 0 0 0 3 3h269a3 3 0 0 0 3-3v-82a3 3 0 0 0-3-3z"/></g><g id="Rectangle-7-Copy-29"><rect class="cls-2" x="690" y="85" width="364" height="34" rx="2" ry="2"/><path class="cls-3" d="M1052 86a1 1 0 0 1 1 1v30a1 1 0 0 1-1 1H692a1 1 0 0 1-1-1V87a1 1 0 0 1 1-1h360m0-2H692a3 3 0 0 0-3 3v30a3 3 0 0 0 3 3h360a3 3 0 0 0 3-3V87a3 3 0 0 0-3-3z"/></g><g id="Rectangle-7-Copy-30"><rect class="cls-2" x="520" y="85" width="160" height="34" rx="2" ry="2"/><path class="cls-3" d="M678 86a1 1 0 0 1 1 1v30a1 1 0 0 1-1 1H522a1 1 0 0 1-1-1V87a1 1 0 0 1 1-1h156m0-2H522a3 3 0 0 0-3 3v30a3 3 0 0 0 3 3h156a3 3 0 0 0 3-3V87a3 3 0 0 0-3-3z"/></g><g id="Rectangle-7-Copy-31"><rect class="cls-2" x="388" y="85" width="121" height="34" rx="2" ry="2"/><path class="cls-3" d="M507 86a1 1 0 0 1 1 1v30a1 1 0 0 1-1 1H390a1 1 0 0 1-1-1V87a1 1 0 0 1 1-1h117m0-2H390a3 3 0 0 0-3 3v30a3 3 0 0 0 3 3h117a3 3 0 0 0 3-3V87a3 3 0 0 0-3-3z"/></g><path id="Rectangle-2-Copy-18" class="cls-2" d="M90 30h284v390H90z"/><circle id="Oval-1-Copy-45" class="cls-4" cx="406.5" cy="102.5" r="4.5"/><path id="Rectangle-176-Copy-48" class="cls-5" d="M421.5 98h69a4.5 4.5 0 0 1 4.5 4.5 4.5 4.5 0 0 1-4.5 4.5h-69a4.5 4.5 0 0 1-4.5-4.5 4.5 4.5 0 0 1 4.5-4.5z"/><path id="Rectangle-176-Copy-49" class="cls-6" d="M391.5 151h79a4.5 4.5 0 0 1 4.5 4.5 4.5 4.5 0 0 1-4.5 4.5h-79a4.5 4.5 0 0 1-4.5-4.5 4.5 4.5 0 0 1 4.5-4.5z"/><path id="Rectangle-176-Copy-50" class="cls-7" d="M421.5 193h81a4.5 4.5 0 0 1 4.5 4.5 4.5 4.5 0 0 1-4.5 4.5h-81a4.5 4.5 0 0 1-4.5-4.5 4.5 4.5 0 0 1 4.5-4.5z"/><path id="Rectangle-176-Copy-51" class="cls-4" d="M406.5 193a4.5 4.5 0 0 1 4.5 4.5 4.5 4.5 0 0 1-4.5 4.5 4.5 4.5 0 0 1-4.5-4.5 4.5 4.5 0 0 1 4.5-4.5z"/><path id="Rectangle-176-Copy-52" class="cls-8" d="M421.5 214h141a4.5 4.5 0 0 1 4.5 4.5 4.5 4.5 0 0 1-4.5 4.5h-141a4.5 4.5 0 0 1-4.5-4.5 4.5 4.5 0 0 1 4.5-4.5z"/><path id="Rectangle-176-Copy-53" class="cls-9" d="M421.5 246h51a4.5 4.5 0 0 1 4.5 4.5 4.5 4.5 0 0 1-4.5 4.5h-51a4.5 4.5 0 0 1-4.5-4.5 4.5 4.5 0 0 1 4.5-4.5z"/><path id="Rectangle-176-Copy-54" class="cls-4" d="M627.5 246h15a4.5 4.5 0 0 1 4.5 4.5 4.5 4.5 0 0 1-4.5 4.5h-15a4.5 4.5 0 0 1-4.5-4.5 4.5 4.5 0 0 1 4.5-4.5z"/><path id="Rectangle-176-Copy-55" class="cls-6" d="M694.5 151h63a4.5 4.5 0 0 1 4.5 4.5 4.5 4.5 0 0 1-4.5 4.5h-63a4.5 4.5 0 0 1-4.5-4.5 4.5 4.5 0 0 1 4.5-4.5z"/><path id="Rectangle-176-Copy-56" class="cls-6" d="M797.5 151h63a4.5 4.5 0 0 1 4.5 4.5 4.5 4.5 0 0 1-4.5 4.5h-63a4.5 4.5 0 0 1-4.5-4.5 4.5 4.5 0 0 1 4.5-4.5z"/><path id="Rectangle-176-Copy-57" class="cls-6" d="M900.5 151h63a4.5 4.5 0 0 1 4.5 4.5 4.5 4.5 0 0 1-4.5 4.5h-63a4.5 4.5 0 0 1-4.5-4.5 4.5 4.5 0 0 1 4.5-4.5z"/><path id="Rectangle-176-Copy-58" class="cls-6" d="M391.5 305h79a4.5 4.5 0 0 1 4.5 4.5 4.5 4.5 0 0 1-4.5 4.5h-79a4.5 4.5 0 0 1-4.5-4.5 4.5 4.5 0 0 1 4.5-4.5z"/><circle id="Oval-1-Copy-46" class="cls-4" cx="538.5" cy="102.5" r="4.5"/><path id="Rectangle-176-Copy-59" class="cls-10" d="M553.5 98h108a4.5 4.5 0 0 1 4.5 4.5 4.5 4.5 0 0 1-4.5 4.5h-108a4.5 4.5 0 0 1-4.5-4.5 4.5 4.5 0 0 1 4.5-4.5z"/><path id="Rectangle-176-Copy-60" class="cls-4" d="M704.5 98h16a4.5 4.5 0 0 1 4.5 4.5 4.5 4.5 0 0 1-4.5 4.5h-16a4.5 4.5 0 0 1-4.5-4.5 4.5 4.5 0 0 1 4.5-4.5z"/><path id="Rectangle-176-Copy-61" class="cls-11" d="M747.5 98h300a4.5 4.5 0 0 1 4.5 4.5 4.5 4.5 0 0 1-4.5 4.5h-300a4.5 4.5 0 0 1-4.5-4.5 4.5 4.5 0 0 1 4.5-4.5z"/><path id="Rectangle-14-Copy-7" class="cls-3" d="M733 86h2v32h-2z"/><path id="Rectangle-2-Copy-19" class="cls-12" d="M0 30h90v390H0z"/><path id="Rectangle-3-Copy-42" class="cls-13" d="M387 283h275v1H387z"/><path id="Rectangle-3-Copy-43" class="cls-3" d="M387 236h275v1H387z"/><path id="Rectangle-5-Copy-42" class="cls-14" d="M374 30h1v390h-1z"/><path id="Rectangle-5-Copy-43" class="cls-13" d="M674 133h1v287h-1z"/><path id="Rectangle-5-Copy-44" class="cls-13" d="M777 133h1v45h-1z"/><path id="Rectangle-5-Copy-45" class="cls-13" d="M880 133h1v45h-1z"/><path id="Rectangle-5-Copy-46" class="cls-13" d="M983 133h1v45h-1z"/><path id="Rectangle-24-Copy-7" class="cls-2" d="M675 178h404v242H675z"/><g id="Rectangle-480-Copy-13"><path class="cls-15" d="M.5 29.5V3A2.503 2.503 0 0 1 3 .5h1074a2.503 2.503 0 0 1 2.5 2.5v26.5H.5z"/><path class="cls-14" d="M1077 1a2.002 2.002 0 0 1 2 2v26H1V3a2.002 2.002 0 0 1 2-2h1074m0-1H3a3 3 0 0 0-3 3v27h1080V3a3 3 0 0 0-3-3z"/></g><path class="cls-14" d="M18 10a5 5 0 1 1-5 5 5.006 5.006 0 0 1 5-5m0-1a6 6 0 1 0 6 6 6 6 0 0 0-6-6z" id="Oval-67-Copy-42"/><path class="cls-14" d="M39 10a5 5 0 1 1-5 5 5.006 5.006 0 0 1 5-5m0-1a6 6 0 1 0 6 6 6 6 0 0 0-6-6z" id="Oval-67-Copy-43"/><path class="cls-14" d="M60 10a5 5 0 1 1-5 5 5.006 5.006 0 0 1 5-5m0-1a6 6 0 1 0 6 6 6 6 0 0 0-6-6z" id="Oval-67-Copy-44"/><path id="Rectangle-3-Copy-44" class="cls-13" d="M675 178h403v1H675z"/><path id="Rectangle-3-Copy-45" class="cls-13" d="M374 132h705v1H374z"/><path id="Rectangle-232-Copy-9" class="cls-16" d="M28.5 171h33a4.5 4.5 0 0 1 4.5 4.5 4.5 4.5 0 0 1-4.5 4.5h-33a4.5 4.5 0 0 1-4.5-4.5 4.5 4.5 0 0 1 4.5-4.5z"/><rect id="Rectangle-232-Copy-10" class="cls-16" x="24" y="120" width="42" height="42" rx="9" ry="9"/><path id="Rectangle-232-Copy-12" class="cls-16" d="M28.5 255h33a4.5 4.5 0 0 1 4.5 4.5 4.5 4.5 0 0 1-4.5 4.5h-33a4.5 4.5 0 0 1-4.5-4.5 4.5 4.5 0 0 1 4.5-4.5z"/><rect id="Rectangle-232-Copy-11" class="cls-16" x="24" y="204" width="42" height="42" rx="9" ry="9"/><path id="Rectangle-236-Copy-4" class="cls-6" d="M615.5 53h134a4.5 4.5 0 0 1 4.5 4.5 4.5 4.5 0 0 1-4.5 4.5h-134a4.5 4.5 0 0 1-4.5-4.5 4.5 4.5 0 0 1 4.5-4.5z"/><path id="Rectangle-236-Copy-5" class="cls-6" d="M767.5 53h70a4.5 4.5 0 0 1 4.5 4.5 4.5 4.5 0 0 1-4.5 4.5h-70a4.5 4.5 0 0 1-4.5-4.5 4.5 4.5 0 0 1 4.5-4.5z"/><path id="Rectangle-5-Copy-49" class="cls-13" d="M1079 30h1v390h-1z"/><g id="Rectangle-414"><rect class="cls-17" x="762.5" y="48.5" width="299" height="71" rx="5.5" ry="5.5"/><path class="cls-18" d="M1056 49a5.006 5.006 0 0 1 5 5v60a5.006 5.006 0 0 1-5 5H768a5.006 5.006 0 0 1-5-5V54a5.006 5.006 0 0 1 5-5h288m0-1H768a6 6 0 0 0-6 6v60a6 6 0 0 0 6 6h288a6 6 0 0 0 6-6V54a6 6 0 0 0-6-6z"/></g><path class="cls-1" d="M823.23 80V67.317h4.966c2.17 0 3.64 1.266 3.64 3.164a2.838 2.838 0 0 1-2.19 2.77v.07a3.04 3.04 0 0 1 2.83 3.12c0 2.233-1.6 3.56-4.297 3.56h-4.95zm1.582-7.216h2.532c1.872 0 2.89-.747 2.89-2.118 0-1.257-.86-1.95-2.398-1.95h-3.024v4.068zm3.13 5.82c1.907 0 2.91-.775 2.91-2.243s-1.04-2.214-3.06-2.214h-2.98v4.457h3.13zM842.342 80H840.9v-1.564h-.035a3.127 3.127 0 0 1-3.014 1.652c-2.074 0-3.278-1.336-3.278-3.49v-6.073h1.53v5.81c0 1.556.73 2.39 2.214 2.39a2.425 2.425 0 0 0 2.496-2.698v-5.502h1.53V80zM844.842 68.03a.967.967 0 1 1 .967.966.97.97 0 0 1-.968-.967zm.202 2.495h1.53V80h-1.53v-9.475zM849.363 66.764h1.53V80h-1.53V66.764zM855.625 68.39v2.135h1.846v1.266h-1.845v5.688a1.062 1.062 0 0 0 1.178 1.265 6.335 6.335 0 0 0 .66-.044v1.29a5.532 5.532 0 0 1-.985.08c-1.714 0-2.382-.712-2.382-2.53v-5.75h-1.32v-1.265h1.32V68.39h1.53zM864.07 77.267c0-1.67 1.292-2.637 3.648-2.787l2.575-.15v-.737c0-1.09-.73-1.688-2.004-1.688a1.83 1.83 0 0 0-1.96 1.363h-1.785c.053-1.688 1.652-2.936 3.797-2.936 2.33 0 3.832 1.23 3.832 3.12V80h-1.82v-1.59h-.044a3.34 3.34 0 0 1-3.014 1.687c-1.907 0-3.226-1.125-3.226-2.83zm6.223-.853v-.747l-2.32.158c-1.3.08-1.978.563-1.978 1.406 0 .82.712 1.346 1.81 1.346a2.277 2.277 0 0 0 2.488-2.162zM883.586 75.228c0 2.953-1.592 4.87-3.99 4.87a3.27 3.27 0 0 1-3.024-1.662h-.035v4.728h-1.908v-12.71h1.837v1.583h.043a3.374 3.374 0 0 1 3.04-1.68c2.436 0 4.036 1.91 4.036 4.87zm-1.95 0c0-1.97-1.02-3.252-2.568-3.252-1.51 0-2.54 1.31-2.548 3.252.007 1.95 1.027 3.252 2.548 3.252 1.547 0 2.567-1.275 2.567-3.252zM885.56 67.994a1.116 1.116 0 0 1 2.23 0 1.116 1.116 0 0 1-2.23 0zm.157 2.46h1.906V80h-1.906v-9.545zM890.21 82.777l3.788-15.468h1.705l-3.832 15.467h-1.66zM898.79 71.958h-1.32v-1.503h1.32v-.88c0-1.783.808-2.565 2.74-2.565a5.63 5.63 0 0 1 .968.088v1.45a3.42 3.42 0 0 0-.71-.07.98.98 0 0 0-1.118 1.16v.817h1.838v1.503h-1.82V80h-1.9v-8.042zM912.398 77.205c-.27 1.714-1.95 2.91-4.095 2.91-2.768 0-4.49-1.864-4.49-4.852s1.74-4.93 4.412-4.93c2.62 0 4.27 1.818 4.27 4.71v.668h-6.76v.115a2.52 2.52 0 0 0 2.603 2.742 2.197 2.197 0 0 0 2.242-1.362h1.818zm-6.652-2.848h4.842a2.33 2.33 0 0 0-2.373-2.47 2.464 2.464 0 0 0-2.47 2.47zM914.143 77.267c0-1.67 1.293-2.637 3.648-2.787l2.575-.15v-.737c0-1.09-.728-1.688-2.004-1.688a1.828 1.828 0 0 0-1.958 1.363h-1.785c.053-1.688 1.653-2.936 3.797-2.936 2.33 0 3.832 1.23 3.832 3.12V80h-1.818v-1.59h-.045a3.337 3.337 0 0 1-3.014 1.687c-1.91 0-3.227-1.125-3.227-2.83zm6.222-.853v-.747l-2.32.158c-1.3.08-1.977.563-1.977 1.406 0 .82.71 1.346 1.81 1.346a2.276 2.276 0 0 0 2.487-2.162zM927.172 68.31v2.145H929v1.503h-1.828v5.335a1.04 1.04 0 0 0 1.17 1.213 6.167 6.167 0 0 0 .65-.044v1.503a5.386 5.386 0 0 1-1.072.097c-1.908 0-2.647-.73-2.647-2.576v-5.528h-1.318v-1.503h1.318V68.31h1.9zM939.287 80h-1.818v-1.635h-.036a3.03 3.03 0 0 1-2.98 1.74c-2.083 0-3.35-1.344-3.35-3.533v-6.117h1.908v5.757c0 1.468.695 2.25 2.074 2.25a2.244 2.244 0 0 0 2.295-2.505v-5.502h1.907V80zM941.78 70.455h1.818v1.608h.035a2.285 2.285 0 0 1 2.303-1.705 3.122 3.122 0 0 1 .668.062v1.784a2.788 2.788 0 0 0-.87-.114 1.995 1.995 0 0 0-2.048 2.215V80h-1.907v-9.545zM956.127 77.205c-.273 1.714-1.95 2.91-4.096 2.91-2.768 0-4.49-1.864-4.49-4.852s1.74-4.93 4.41-4.93c2.62 0 4.273 1.818 4.273 4.71v.668h-6.758v.115a2.52 2.52 0 0 0 2.6 2.742 2.195 2.195 0 0 0 2.242-1.362h1.82zm-6.654-2.848h4.843a2.33 2.33 0 0 0-2.373-2.47 2.466 2.466 0 0 0-2.47 2.47zM958.336 75.825V74.11h5.766v1.715h-5.766zM968.598 78.383h-.045V80h-1.836V66.746h1.906v5.29h.035a3.28 3.28 0 0 1 3.024-1.678c2.408 0 3.99 1.908 3.99 4.87s-1.582 4.87-4.008 4.87a3.298 3.298 0 0 1-3.066-1.715zm.017-3.155c0 1.942 1.028 3.252 2.567 3.252 1.537 0 2.54-1.275 2.54-3.252s-1.003-3.252-2.54-3.252c-1.54 0-2.567 1.318-2.567 3.252zM977.732 70.455h1.82v1.608h.035a2.285 2.285 0 0 1 2.303-1.705 3.128 3.128 0 0 1 .668.062v1.784a2.79 2.79 0 0 0-.87-.114 1.995 1.995 0 0 0-2.048 2.215V80h-1.908v-9.545zM983.704 77.267c0-1.67 1.292-2.637 3.648-2.787l2.575-.15v-.737c0-1.09-.73-1.688-2.004-1.688a1.83 1.83 0 0 0-1.96 1.363h-1.784c.05-1.688 1.65-2.936 3.796-2.936 2.33 0 3.832 1.23 3.832 3.12V80h-1.82v-1.59h-.044a3.34 3.34 0 0 1-3.014 1.687c-1.908 0-3.226-1.125-3.226-2.83zm6.223-.853v-.747l-2.32.158c-1.3.08-1.978.563-1.978 1.406 0 .82.71 1.346 1.81 1.346a2.277 2.277 0 0 0 2.487-2.162zM994.264 70.455h1.82v1.608h.034a3.082 3.082 0 0 1 3.015-1.713c2.11 0 3.313 1.336 3.313 3.533V80h-1.907v-5.757c0-1.45-.67-2.26-2.066-2.26a2.245 2.245 0 0 0-2.303 2.506V80h-1.906v-9.545zM1011.23 73.716a2.132 2.132 0 0 0-2.276-1.776c-1.538 0-2.558 1.284-2.558 3.288 0 2.056 1.038 3.287 2.567 3.287a2.1 2.1 0 0 0 2.285-1.723h1.82c-.22 1.995-1.82 3.322-4.114 3.322-2.707 0-4.49-1.863-4.49-4.886 0-2.97 1.774-4.896 4.472-4.896a3.827 3.827 0 0 1 4.114 3.384h-1.82zM1015.084 66.746h1.89v5.317h.044a3.09 3.09 0 0 1 3.014-1.713 3.21 3.21 0 0 1 3.358 3.55V80h-1.908v-5.73a1.99 1.99 0 0 0-2.11-2.286 2.304 2.304 0 0 0-2.38 2.55V80h-1.908V66.746z"/><path class="cls-19" d="M823.258 99v-9.864h1.43l3.376 8.162h.11l3.376-8.162h1.43V99h-1.15v-7.533h-.082l-3.11 7.465h-1.04l-3.11-7.465h-.082V99h-1.148zM835.446 101.625v-1.005a2.83 2.83 0 0 0 .492.034 1.364 1.364 0 0 0 1.354-1.21l.137-.437-2.73-7.376h1.273l2.023 6.064h.11l2.016-6.063h1.25l-2.877 7.82c-.63 1.71-1.217 2.216-2.522 2.216a3.48 3.48 0 0 1-.527-.04zM842.774 98.14l4.252-5.415v-.11h-4.245v-.984h5.648v.883l-4.232 5.393v.11h4.252V99h-5.674v-.86zM852.16 89.724v1.907h1.64v.985h-1.64v4.17a1.005 1.005 0 0 0 1.094 1.237 4.965 4.965 0 0 0 .547-.027v.99a3.94 3.94 0 0 1-.69.07c-1.517 0-2.126-.56-2.126-1.97v-4.47h-1.19v-.984h1.19v-1.906h1.176zM855.373 89.313a.82.82 0 1 1 .82.82.823.823 0 0 1-.82-.82zm.232 2.318h1.176V99h-1.175v-7.37zM864.096 92.86h.11v-1.23h1.134v9.83h-1.19v-3.567h-.11a2.51 2.51 0 0 1-2.303 1.237c-1.88 0-3.083-1.49-3.083-3.815 0-2.31 1.217-3.814 3.083-3.814a2.657 2.657 0 0 1 2.36 1.36zm.09 2.455c0-1.688-.842-2.754-2.175-2.754-1.34 0-2.14 1.033-2.14 2.755 0 1.73.794 2.755 2.134 2.755 1.347 0 2.18-1.06 2.18-2.755zM878.19 95.315c0 2.304-1.222 3.815-3.095 3.815a2.473 2.473 0 0 1-2.304-1.237h-.108v3.568h-1.176v-9.83h1.12v1.23h.11a2.657 2.657 0 0 1 2.36-1.36c1.88 0 3.095 1.498 3.095 3.815zm-1.215 0c0-1.722-.807-2.754-2.154-2.754-1.332 0-2.173 1.06-2.173 2.755 0 1.69.84 2.755 2.167 2.755 1.354 0 2.16-1.032 2.16-2.755zM885.998 99h-1.12v-1.155h-.11a2.3 2.3 0 0 1-2.284 1.285c-1.654 0-2.515-.984-2.515-2.728v-4.77h1.175v4.483c0 1.326.492 1.942 1.668 1.942a1.854 1.854 0 0 0 2.01-2.065v-4.36h1.175V99zM890.79 91.5c1.545 0 2.618.767 2.775 1.977h-1.162a1.502 1.502 0 0 0-1.62-.978 1.347 1.347 0 0 0-1.558 1.1c0 .505.41.82 1.278 1.032l1.135.273c1.387.335 2.057.937 2.057 1.996 0 1.32-1.278 2.23-2.953 2.23-1.64 0-2.768-.786-2.898-2.01h1.21a1.623 1.623 0 0 0 1.73 1.02c.99 0 1.7-.473 1.7-1.15a1.192 1.192 0 0 0-1.168-1.04l-1.264-.306c-1.38-.335-2.01-.93-2.01-1.997 0-1.223 1.183-2.146 2.748-2.146zM895.61 88.705h1.175v4.088h.11a2.294 2.294 0 0 1 2.27-1.292 2.43 2.43 0 0 1 2.542 2.73V99h-1.176v-4.484c0-1.306-.587-1.955-1.7-1.955a1.902 1.902 0 0 0-2.045 2.08V99h-1.176V88.705zM909.91 97.093a2.946 2.946 0 0 1-3.103 2.037c-2.044 0-3.323-1.477-3.323-3.808 0-2.317 1.3-3.82 3.323-3.82 1.99 0 3.2 1.414 3.2 3.704v.45h-5.3v.056a2.17 2.17 0 0 0 2.127 2.38 1.91 1.91 0 0 0 1.9-1h1.176zm-5.202-2.386h4.06a1.984 1.984 0 0 0-1.975-2.167 2.1 2.1 0 0 0-2.085 2.167zM911.482 95.315c0-2.31 1.224-3.814 3.097-3.814a2.518 2.518 0 0 1 2.31 1.293h.102v-4.088h1.176V99h-1.12v-1.176h-.11a2.64 2.64 0 0 1-2.36 1.306c-1.886 0-3.096-1.497-3.096-3.815zm1.217 0c0 1.723.806 2.755 2.153 2.755 1.34 0 2.167-1.052 2.167-2.755 0-1.688-.834-2.754-2.167-2.754-1.34 0-2.154 1.04-2.154 2.755zM923.965 96.936c0-1.32.97-2.08 2.686-2.18l2.127-.13v-.67a1.39 1.39 0 0 0-1.668-1.41 1.542 1.542 0 0 0-1.662.917h-1.19c.158-1.183 1.32-1.962 2.892-1.962 1.798 0 2.803.924 2.803 2.455V99h-1.12v-1.087h-.11a2.546 2.546 0 0 1-2.27 1.217 2.24 2.24 0 0 1-2.488-2.194zm4.812-.684v-.677l-1.982.13c-1.12.075-1.613.465-1.613 1.203a1.287 1.287 0 0 0 1.49 1.19 1.938 1.938 0 0 0 2.105-1.846zM938.655 91.5c1.545 0 2.618.767 2.776 1.977h-1.16a1.502 1.502 0 0 0-1.622-.978 1.347 1.347 0 0 0-1.558 1.1c0 .505.41.82 1.278 1.032l1.135.273c1.388.335 2.058.937 2.058 1.996 0 1.32-1.278 2.23-2.953 2.23-1.64 0-2.768-.786-2.898-2.01h1.21a1.623 1.623 0 0 0 1.728 1.02c.992 0 1.703-.473 1.703-1.15a1.192 1.192 0 0 0-1.168-1.04l-1.265-.306c-1.38-.335-2.01-.93-2.01-1.997 0-1.223 1.183-2.146 2.748-2.146zM949.463 97.093a2.946 2.946 0 0 1-3.104 2.037c-2.045 0-3.323-1.477-3.323-3.808 0-2.317 1.3-3.82 3.322-3.82 1.99 0 3.2 1.414 3.2 3.704v.45h-5.3v.056a2.17 2.17 0 0 0 2.127 2.38 1.91 1.91 0 0 0 1.9-1h1.176zm-5.202-2.386h4.06a1.984 1.984 0 0 0-1.974-2.167 2.1 2.1 0 0 0-2.085 2.167zM956.313 93.887a1.827 1.827 0 0 0-1.9-1.326c-1.327 0-2.16 1.06-2.16 2.728 0 1.702.847 2.782 2.16 2.782a1.773 1.773 0 0 0 1.9-1.292h1.19a2.846 2.846 0 0 1-3.084 2.352c-2.065 0-3.385-1.497-3.385-3.842 0-2.297 1.313-3.787 3.377-3.787a2.892 2.892 0 0 1 3.09 2.387h-1.19zM958.87 95.315c0-2.372 1.298-3.814 3.397-3.814s3.397 1.443 3.397 3.815c0 2.366-1.3 3.815-3.397 3.815s-3.398-1.45-3.398-3.815zm5.577 0c0-1.75-.786-2.754-2.18-2.754s-2.18 1.005-2.18 2.755c0 1.744.785 2.755 2.18 2.755s2.18-1.01 2.18-2.755zM967.51 91.63h1.12v1.163h.11a2.215 2.215 0 0 1 2.215-1.292 2.402 2.402 0 0 1 2.577 2.73V99h-1.176v-4.484c0-1.327-.56-1.955-1.736-1.955a1.868 1.868 0 0 0-1.934 2.08V99h-1.176v-7.37zM975.31 95.315c0-2.31 1.223-3.814 3.096-3.814a2.518 2.518 0 0 1 2.31 1.293h.103v-4.088h1.175V99h-1.12v-1.176h-.11a2.64 2.64 0 0 1-2.36 1.306c-1.885 0-3.095-1.497-3.095-3.815zm1.216 0c0 1.723.807 2.755 2.154 2.755 1.34 0 2.167-1.052 2.167-2.755 0-1.688-.834-2.754-2.167-2.754-1.34 0-2.154 1.04-2.154 2.755zM987.792 96.936c0-1.32.97-2.08 2.687-2.18l2.125-.13v-.67a1.39 1.39 0 0 0-1.668-1.41 1.542 1.542 0 0 0-1.662.917h-1.19c.158-1.183 1.32-1.962 2.893-1.962 1.797 0 2.802.924 2.802 2.455V99h-1.12v-1.087h-.11a2.546 2.546 0 0 1-2.27 1.217 2.24 2.24 0 0 1-2.488-2.194zm4.813-.684v-.677l-1.983.13c-1.12.075-1.613.465-1.613 1.203a1.287 1.287 0 0 0 1.49 1.19 1.938 1.938 0 0 0 2.104-1.846zM995.9 99.813h1.244c.13.602.786.992 1.845.992 1.32 0 2.105-.65 2.105-1.737v-1.45h-.11a2.556 2.556 0 0 1-2.31 1.273c-1.907 0-3.09-1.476-3.09-3.684s1.196-3.705 3.09-3.705a2.638 2.638 0 0 1 2.365 1.3h.11v-1.17h1.12v7.5c0 1.647-1.27 2.7-3.28 2.7-1.778 0-2.913-.8-3.09-2.017zm3.035-7.252c-1.368 0-2.133 1.04-2.133 2.646s.765 2.646 2.133 2.646 2.187-1.04 2.187-2.646-.827-2.645-2.187-2.645zM1004.116 95.315c0-2.372 1.3-3.814 3.398-3.814s3.397 1.443 3.397 3.815c0 2.366-1.298 3.815-3.396 3.815s-3.398-1.45-3.398-3.815zm5.578 0c0-1.75-.786-2.754-2.18-2.754s-2.18 1.005-2.18 2.755c0 1.744.785 2.755 2.18 2.755s2.18-1.01 2.18-2.755z"/><path id="Fill-3" class="cls-20" d="M802.92 74.647a4.782 4.782 0 0 1 1.064-.81c.815-.514 1.74-1.096 1.666-2.295a2.38 2.38 0 0 0-1.083-1.683 3.308 3.308 0 0 0-2.5-.704 2.95 2.95 0 0 0-2.05 2.354 14.83 14.83 0 0 0-3.648-.642 3.04 3.04 0 0 1 .512-.67 1.983 1.983 0 0 0-1.387.29c.198-.186.39-.498.597-.687a3.34 3.34 0 0 0-2.64 1.012 12.923 12.923 0 0 0-3.6.62 2.91 2.91 0 0 0-2.03-2.276 3.307 3.307 0 0 0-2.498.703 2.38 2.38 0 0 0-1.084 1.682c-.072 1.2.85 1.78 1.666 2.296a5.47 5.47 0 0 1 .98.72c-1.49 4.288-1.382 12.384-1.382 12.384l-.153 1.722a14.38 14.38 0 0 0 18.72.498c-.07-1.124-.076-2.22-.076-2.22.056-1.84.236-8.45-1.073-12.295"/><path id="Fill-6" class="cls-17" d="M792.174 76.484c1.62-2.32 8.646-1.64 5.772 5.79-.417 1.084-.913 2.148-1.377 3.21a1.393 1.393 0 0 0-.19-.198c-.496.814-1.107.44-1.625-.303-.144.16-1.17.458-1.32.616-1.54-1.865-2.88-6.794-1.26-9.116"/><path id="Fill-8" class="cls-20" d="M797.045 77.345a4.984 4.984 0 0 0-4.09 0c-.596.617.644 1.967 1.768 2.246a.287.287 0 0 0-.005.05v2.297a.287.287 0 0 0 .044.57h.477a.287.287 0 0 0 .053-.57V79.64a.285.285 0 0 0-.005-.05c1.12-.286 2.352-1.63 1.757-2.245"/><circle class="cls-21" cx="795" cy="78" r="15"/><circle id="Oval-126-Copy" class="cls-1" cx="784.5" cy="88.5" r="7.5"/><path id="Rectangle-1207" class="cls-17" d="M780.707 87.95a1 1 0 0 1 1.414 0l2.123 2.12a1 1 0 0 1 0 1.415 1 1 0 0 1-1.415 0l-2.12-2.12a1 1 0 0 1 0-1.415z"/><path id="Rectangle-1207-Copy" class="cls-17" d="M782.828 90.07l4.243-4.242a1 1 0 0 1 1.415 0 1 1 0 0 1 0 1.415l-4.242 4.242a1 1 0 0 1-1.415 0 1 1 0 0 1 0-1.414z"/></svg>