<svg id="Layer_1" data-name="Layer 1" xmlns="http://www.w3.org/2000/svg" viewBox="0 0 60 60"><title>icons-end-to-end</title><rect width="60" height="60" fill="none"/><path d="M120.707,95.685a16.665,16.665,0,0,0-7.221-4.251,16.751,16.751,0,1,0-20.72,20.718A16.749,16.749,0,1,0,120.707,95.685ZM92.8,102.775a8.149,8.149,0,1,1,11.318-11.3A16.725,16.725,0,0,0,92.8,102.775Zm10.3,10.517a8.149,8.149,0,0,1-.957-1.171,16.771,16.771,0,0,0,11.31-11.31A8.144,8.144,0,1,1,103.1,113.292Z" transform="translate(-73.126 -71.793)" fill="#ccadd2"/><path d="M113.362,91.391a16.831,16.831,0,0,0-9.043.013" transform="translate(-73.126 -71.793)" fill="#ccadd2"/><path d="M103.611,92.11a1,1,0,0,1,.438-1.67,17.816,17.816,0,0,1,9.58-.012,1,1,0,1,1-.534,1.927,15.814,15.814,0,0,0-8.506.012A1,1,0,0,1,103.611,92.11Z" transform="translate(-73.126 -71.793)" fill="#52306c"/><path d="M101.441,103.305a1,1,0,0,1,0-1.414c3.06-3.06,7.9-2.662,11.5-.281a1,1,0,0,1-1.1,1.669c-2.817-1.86-6.6-2.365-8.988.026A1,1,0,0,1,101.441,103.305Z" transform="translate(-73.126 -71.793)" opacity="0.1"/><path d="M113.362,91.391a16.831,16.831,0,0,0-9.043.013" transform="translate(-73.126 -71.793)" fill="#ccadd2"/><path d="M103.611,92.11a1,1,0,0,1,.438-1.67,17.816,17.816,0,0,1,9.58-.012,1,1,0,1,1-.534,1.927,15.814,15.814,0,0,0-8.506.012A1,1,0,0,1,103.611,92.11Z" transform="translate(-73.126 -71.793)" fill="#52306c"/><g opacity="0.1"><path d="M93.673,114.265a16.831,16.831,0,0,0,9.039-.256" transform="translate(-73.126 -71.793)"/><path d="M92.985,114.992a1,1,0,0,1,.929-1.7,15.8,15.8,0,0,0,8.5-.241,1,1,0,0,1,.592,1.911,17.81,17.81,0,0,1-9.577.27A1,1,0,0,1,92.985,114.992Z" transform="translate(-73.126 -71.793)"/></g><path d="M103.1,101.767a8.014,8.014,0,0,1-10.143,1.072" transform="translate(-73.126 -71.793)" fill="#ccadd2"/><path d="M92.249,103.546a1,1,0,0,1,1.258-1.541,7,7,0,0,0,8.885-.945,1,1,0,1,1,1.414,1.414,8.986,8.986,0,0,1-11.4,1.2A1.02,1.02,0,0,1,92.249,103.546Z" transform="translate(-73.126 -71.793)" fill="#52306c"/><path d="M89.692,84.5a0.554,0.554,0,0,1-.078-0.1,0.538,0.538,0,0,1,.177-0.739,14.6,14.6,0,0,1,15.461.166,0.537,0.537,0,0,1-.581.9,13.518,13.518,0,0,0-14.319-.154A0.537,0.537,0,0,1,89.692,84.5Z" transform="translate(-73.126 -71.793)" fill="#fff" opacity="0.4"/><path d="M101.392,96.2a0.554,0.554,0,0,1-.078-0.1,0.538,0.538,0,0,1,.177-0.739,14.6,14.6,0,0,1,15.461.166,0.537,0.537,0,0,1-.581.9,13.518,13.518,0,0,0-14.319-.154A0.537,0.537,0,0,1,101.392,96.2Z" transform="translate(-73.126 -71.793)" fill="#fff" opacity="0.4"/><path d="M94.592,106.665a0.537,0.537,0,0,1,.539-0.892,8.4,8.4,0,0,0,8.436-2.135,0.537,0.537,0,1,1,.759.759,9.463,9.463,0,0,1-9.513,2.4A0.533,0.533,0,0,1,94.592,106.665Z" transform="translate(-73.126 -71.793)" fill="#fff" opacity="0.4"/><path d="M106.272,118.284a0.537,0.537,0,0,1,.533-0.895,8.406,8.406,0,0,0,8.353-2.159,0.537,0.537,0,1,1,.759.759,9.479,9.479,0,0,1-9.42,2.429A0.544,0.544,0,0,1,106.272,118.284Z" transform="translate(-73.126 -71.793)" fill="#fff" opacity="0.4"/><path d="M96.311,120.082a17.762,17.762,0,0,1-4.346-7.127,17.751,17.751,0,1,1,22.323-22.322A17.749,17.749,0,1,1,96.311,120.082Zm-2.837-8.636a1,1,0,0,1,.254.432A15.751,15.751,0,1,0,113.212,92.4a1,1,0,0,1-.686-0.686,15.751,15.751,0,1,0-19.483,19.482A1,1,0,0,1,93.474,111.445Zm8.92,2.553a9.023,9.023,0,0,1-1.075-1.314,1,1,0,0,1,.542-1.524,15.766,15.766,0,0,0,10.633-10.633,1,1,0,0,1,1.524-.542A9.143,9.143,0,1,1,102.394,114Zm11.542-11.507a17.78,17.78,0,0,1-10.11,10.11A7.149,7.149,0,0,0,113.936,102.492Zm-23.015.034a9.149,9.149,0,1,1,14.021-11.614,1,1,0,0,1-.543,1.523,15.722,15.722,0,0,0-10.64,10.624,1,1,0,0,1-1.524.542A9.018,9.018,0,0,1,90.921,102.525Zm11.515-11.534a7.149,7.149,0,0,0-10.118,10.1A17.717,17.717,0,0,1,102.436,90.992Z" transform="translate(-73.126 -71.793)" fill="#52306c"/><path d="M92.942,112.171a16.831,16.831,0,0,0,9.043-.013" transform="translate(-73.126 -71.793)" fill="#ccadd2"/><path d="M92.236,112.879a1,1,0,0,1,.974-1.672,15.8,15.8,0,0,0,8.505-.012,1,1,0,0,1,.54,1.927,17.81,17.81,0,0,1-9.58.012A1,1,0,0,1,92.236,112.879Z" transform="translate(-73.126 -71.793)" fill="#52306c"/><path d="M102.393,102.474a1,1,0,0,1,0-1.414,9.176,9.176,0,0,1,11.5-1.171,1,1,0,0,1-1.1,1.669,7.17,7.17,0,0,0-8.988.917A1,1,0,0,1,102.393,102.474Z" transform="translate(-73.126 -71.793)" fill="#52306c"/></svg>