<svg id="Layer_1" data-name="Layer 1" xmlns="http://www.w3.org/2000/svg" viewBox="0 0 60 60"><title>icons-reroute</title><rect x="8.5" y="6.167" width="43" height="47.666" rx="5.635" ry="5.635" fill="#dbdbdb" stroke="#52306c" stroke-linecap="round" stroke-linejoin="round" stroke-width="2"/><rect x="15.339" y="12.254" width="29.322" height="15.962" rx="7.981" ry="7.981" fill="#3ccb5a" stroke="#52306c" stroke-linecap="round" stroke-linejoin="round"/><circle cx="36.68" cy="20.235" r="5.265" fill="#fff" stroke="#52306c" stroke-linecap="round" stroke-linejoin="round"/><g opacity="0.15"><path d="M180.68,246.167a5.264,5.264,0,0,1-5.228-4.661,5.265,5.265,0,1,0,10.456,0A5.264,5.264,0,0,1,180.68,246.167Z" transform="translate(-144 -220.667)"/></g><rect x="159.339" y="252.45" width="29.322" height="15.962" rx="7.981" ry="7.981" transform="translate(204 300.196) rotate(-180)" fill="#bbb" stroke="#52306c" stroke-linecap="round" stroke-linejoin="round"/><g opacity="0.15"><path d="M167.32,265.806a5.264,5.264,0,0,1-5.228-4.661,5.265,5.265,0,1,0,10.456,0A5.264,5.264,0,0,1,167.32,265.806Z" transform="translate(-144 -220.667)"/></g><circle cx="23.32" cy="39.765" r="5.265" fill="#fff" stroke="#52306c" stroke-linecap="round" stroke-linejoin="round"/><rect width="60" height="60" fill="none"/></svg>