<svg id="Layer_1" data-name="Layer 1" xmlns="http://www.w3.org/2000/svg" viewBox="0 0 60 60"><title>icons-export-docker</title><rect width="60" height="60" fill="none"/><path d="M10.692,318.4l8.91-14.665a1.106,1.106,0,0,1,.946-0.532H39.453a1.106,1.106,0,0,1,.946.532l8.91,14.665" transform="translate(0 -296.5)" fill="#ffe2c0" stroke="#52306c" stroke-linecap="round" stroke-linejoin="round" stroke-width="2"/><path d="M14.8,314.293H42.2a3,3,0,0,1,3,3V349.91a3,3,0,0,1-3,3H14.8a0,0,0,0,1,0,0V314.293A0,0,0,0,1,14.8,314.293Z" transform="translate(363.602 7.102) rotate(90)" fill="#e5c9ae" stroke="#52306c" stroke-linecap="round" stroke-linejoin="round" stroke-width="2"/><path d="M41.415,332.741A3.186,3.186,0,0,0,39,332.517a3.319,3.319,0,0,0-1.308-2.107l-0.261-.21-0.219.253a2.846,2.846,0,0,0-.511,2.006,2.614,2.614,0,0,0,.489,1.347,3.707,3.707,0,0,1-.7.318,4.57,4.57,0,0,1-1.448.243H21.361l-0.029.315a6.045,6.045,0,0,0,.481,3.066L22,338.129l0.021,0.036a6.607,6.607,0,0,0,6,3.1c4.763,0,8.692-2.128,10.5-6.622a3.013,3.013,0,0,0,3.029-1.445l0.151-.294Z" transform="translate(0 -296.5)" fill="#ccaa93"/><polygon points="33.981 35.736 31.897 35.736 31.897 31.568 29.396 31.568 29.396 33.652 25.227 33.652 25.227 35.736 23.143 35.736 23.143 37.867 33.981 37.867 33.981 35.736" fill="#d8b39a"/><polygon points="33.703 20.978 26.297 20.978 27.787 7.75 32.213 7.75 33.703 20.978" fill="#d8b39a"/><line x1="30" y1="6.705" x2="30" y2="21.903" fill="#f4c27a" stroke="#52306c" stroke-linecap="round" stroke-linejoin="round"/><rect x="26.297" y="22.875" width="7.406" height="4" fill="#ccaa93"/></svg>