<svg xmlns="http://www.w3.org/2000/svg" viewBox="0 0 60 60"><title>icons-changes</title><g style="isolation:isolate"><g id="Layer_1" data-name="Layer 1"><rect x="12" y="7.259" width="36" height="45.482" rx="6.038" ry="6.038" fill="#fff" stroke="#52306c" stroke-linecap="round" stroke-linejoin="round" stroke-width="2"/><path d="M12.207,161.5v-2.973a6.038,6.038,0,0,1,6.038-6.038H42.169a6.038,6.038,0,0,1,6.038,6.038V161.5" transform="translate(-0.207 -145.23)" fill="#bbb" stroke="#52306c" stroke-linecap="round" stroke-linejoin="round" stroke-width="2"/><rect x="12.5" y="27.569" width="35" height="5.834" fill="#73c981" stroke="#52306c" stroke-linecap="round" stroke-linejoin="round"/><rect x="12.5" y="40.791" width="35" height="5.834" fill="#ef959d" stroke="#52306c" stroke-linecap="round" stroke-linejoin="round"/><g opacity="0.15"><circle cx="47.378" cy="25.941" r="5.026"/></g><circle cx="48" cy="25.319" r="4.401" fill="#3ccb5a"/><path d="M48.207,166.648a3.9,3.9,0,1,1-3.9,3.9,3.905,3.905,0,0,1,3.9-3.9m0-1a4.9,4.9,0,1,0,4.9,4.9,4.9,4.9,0,0,0-4.9-4.9h0Z" transform="translate(-0.207 -145.23)" fill="#52306c"/><path d="M45.52,169.224a3.568,3.568,0,0,1,1.687-1.523" transform="translate(-0.207 -145.23)" fill="none" stroke="#fff" stroke-linecap="round" stroke-linejoin="round" stroke-width="0.5" opacity="0.4"/><path d="M50.271,170.1H48.837a0.181,0.181,0,0,1-.181-0.181v-1.434a0.181,0.181,0,0,0-.181-0.181H47.939a0.181,0.181,0,0,0-.181.181v1.434a0.181,0.181,0,0,1-.181.181H46.143a0.181,0.181,0,0,0-.181.181v0.536a0.181,0.181,0,0,0,.181.181h1.434a0.181,0.181,0,0,1,.181.181v1.434a0.181,0.181,0,0,0,.181.181h0.536a0.181,0.181,0,0,0,.181-0.181v-1.434A0.181,0.181,0,0,1,48.837,171h1.434a0.181,0.181,0,0,0,.181-0.181v-0.536A0.181,0.181,0,0,0,50.271,170.1Z" transform="translate(-0.207 -145.23)" fill="#93002a" opacity="0.3" style="mix-blend-mode:multiply"/><g opacity="0.15"><circle cx="47.378" cy="39.429" r="5.026"/></g><circle cx="48" cy="38.807" r="4.401" fill="#f25058"/><path d="M48.207,180.136a3.9,3.9,0,1,1-3.9,3.9,3.905,3.905,0,0,1,3.9-3.9m0-1a4.9,4.9,0,1,0,4.9,4.9,4.9,4.9,0,0,0-4.9-4.9h0Z" transform="translate(-0.207 -145.23)" fill="#52306c"/><path d="M45.52,182.711a3.568,3.568,0,0,1,1.687-1.523" transform="translate(-0.207 -145.23)" fill="none" stroke="#fff" stroke-linecap="round" stroke-linejoin="round" stroke-width="0.5" opacity="0.4"/><rect x="45.755" y="38.358" width="4.489" height="0.898" rx="0.181" ry="0.181" fill="#93002a" opacity="0.3" style="mix-blend-mode:multiply"/><rect width="60" height="60" fill="none"/><line x1="48" y1="16.27" x2="12" y2="16.27" fill="none" stroke="#52306c" stroke-linecap="round" stroke-linejoin="round"/><line x1="48" y1="17.264" x2="12" y2="17.264" fill="none" stroke="#000" stroke-miterlimit="10" opacity="0.15"/><circle cx="16.669" cy="12.261" r="1.417" fill="#52306c"/></g></g></svg>