<svg id="Layer_1" xmlns="http://www.w3.org/2000/svg" xmlns:xlink="http://www.w3.org/1999/xlink" viewBox="0 0 46 34.9"><style>.st0{fill:#e6e6e6}.st1{clip-path:url(#SVGID_2_)}.st2{fill:#555}.st3{fill:#BBB}</style><title>always-integrating</title><path class="st0" d="M2.1 10L21.3.4c1.1-.5 2.4-.5 3.4 0L43.9 10c1.3.7 2.1 2 2.1 3.4v8c0 1.5-.8 2.8-2.1 3.4l-19.2 9.6c-1.1.5-2.4.5-3.4 0L2.1 24.9c-1.3-.7-2.1-2-2.1-3.4v-8c0-1.5.8-2.9 2.1-3.5z"/><defs><path id="SVGID_1_" d="M12.2 14.4L24.8 7l9 5.3-12.6 7.3z"/></defs><clipPath id="SVGID_2_"><use xlink:href="#SVGID_1_" overflow="visible"/></clipPath><path class="st1 st2" d="M14.7 15c-.3-.1-.4-.4-.4-.6 0-.3.2-.5.4-.6.7-.4 1.5-.4 2.1 0 .3.1.4.3.5.6 0 .3-.2.5-.4.6-.3.2-.7.3-1.1.3-.4 0-.8-.1-1.1-.3m12.6-1c-.3-.1-.4-.4-.4-.6 0-.3.2-.5.4-.6.7-.3 1.5-.3 2.1 0 .3.1.4.3.5.6 0 .3-.2.5-.4.6-.3.2-.7.3-1.1.3-.3-.1-.7-.2-1.1-.3m-3.6-4.2c-.3-.1-.4-.3-.5-.6 0-.3.2-.5.4-.6.3-.2.7-.3 1.1-.3.4 0 .8.1 1.1.3.3.1.4.4.4.6 0 .3-.2.5-.4.6-.6.3-1.4.3-2.1 0m2.9-1.7c-.6-.3-1.2-.5-1.8-.4-.6 0-1.2.1-1.8.4-.3.1-.5.4-.7.7-.1.2-.1.5 0 .7l-5.9 3.4c-.4-.1-.9-.1-1.3 0s-.8.2-1.2.4c-.4.2-.7.6-.8 1 0 .5.3.9.8 1 .6.3 1.2.5 1.8.4.6 0 1.2-.1 1.8-.4.4-.2.7-.6.7-1h1c.4.1.7.2 1 .4 1.1.6 2.4.8 3.6.8.7 0 1.4-.1 2.1-.3.6-.1 1.2-.4 1.8-.7.4.1.9.1 1.3 0s.8-.2 1.2-.4c.4-.2.7-.6.8-1 0-.5-.3-.9-.8-1.1-.6-.3-1.2-.5-1.8-.4-.6 0-1.2.1-1.8.4-.3.1-.5.4-.7.7-.1.2-.1.5 0 .7l-.3.2c-.6.3-1.2.4-1.8.4-.6 0-1.2-.1-1.8-.4-.7-.4-1.4-.7-2.2-.8l4.3-2.5c.4.1.9.1 1.3 0s.8-.2 1.2-.4c.4-.2.7-.6.8-1-.1-.2-.4-.6-.8-.8"/><path class="st3" d="M45.2 11.1zM.8 11.1zM3.2 12.3c-.4.2-.6.6-.6 1.1v1.5l19.2 9.6v7.4l.7.4c.4.2.8.2 1.1 0l.7-.4v-7.4l19.2-9.6v-1.5c0-.4-.2-.9-.6-1.1L23 22.2 3.2 12.3zM46 13.4zM45.8 12.2zM0 13.4zM.2 12.2z"/><path class="st2" d="M23 2.6c.2 0 .4 0 .6.1l19.2 9.6c.4.2.7.7.7 1.1v8c0 .5-.3.9-.7 1.1l-19.2 9.6c-.4.2-.8.2-1.1 0L3.3 22.6c-.4-.2-.7-.7-.7-1.1v-8c0-.5.3-.9.7-1.1l19.2-9.6c.1-.2.3-.2.5-.2M23 0c-.6 0-1.2.1-1.7.4L2.1 10C.8 10.6 0 12 0 13.4v8c0 1.5.8 2.8 2.1 3.4l19.2 9.6c1.1.5 2.4.5 3.4 0l19.2-9.6c1.3-.6 2.1-2 2.1-3.4v-8c0-1.5-.8-2.8-2.1-3.4L24.7.4C24.2.1 23.6 0 23 0z"/></svg>