<svg data-name="Layer 1" xmlns="http://www.w3.org/2000/svg" viewBox="0 0 150 150"><title>always-sharing</title><circle cx="75" cy="75" r="75" fill="#fff" opacity=".2"/><path d="M118.654 69.174a43.823 43.823 0 1 1-87.645 0h87.644z" fill="#583782"/><path d="M116.27 83.423a43.737 43.737 0 0 0 2.383-14.25H31.008a43.737 43.737 0 0 0 2.382 14.25h82.88z" fill="#fff" opacity=".8"/><path d="M31.008 50.547A13.407 13.407 0 0 1 41.6 55.73a13.443 13.443 0 1 0-21.18 0 13.407 13.407 0 0 1 10.588-5.183zM117.63 50.525a13.407 13.407 0 0 1 10.59 5.182 13.443 13.443 0 1 0-21.18 0 13.407 13.407 0 0 1 10.59-5.182z" fill="#583782"/></svg>