<svg width="261" height="162" viewBox="0 0 261 162" xmlns="http://www.w3.org/2000/svg"><title>Page 1</title><g fill="none" fill-rule="evenodd"><path d="M106.994 48.117c-1.042 15.128-14.15 26.548-29.28 25.506-15.127-1.04-26.547-14.15-25.505-29.278M17.25 63.75l13.5 13.5M24 61.5l9 9M15 70.5l9 9M35.25 63.75l13.5 13.5M42 61.5l9 9M33 70.5l9 9M43 88.5v63M29 88.5v63M15 88.5v63M57 88.5v63" stroke="#F2F2F2" stroke-width="3" stroke-linecap="round"/><path d="M19.5 131a4.5 4.5 0 1 1-9 0 4.5 4.5 0 0 1 9 0" fill="#FFF"/><path d="M19.5 131a4.5 4.5 0 1 1-9 0 4.5 4.5 0 0 1 9 0z" stroke="#F2F2F2" stroke-width="3" stroke-linecap="round"/><path d="M33.5 120a4.5 4.5 0 1 1-9 0 4.5 4.5 0 0 1 9 0" fill="#FFF"/><path d="M33.5 120a4.5 4.5 0 1 1-9 0 4.5 4.5 0 0 1 9 0z" stroke="#F2F2F2" stroke-width="3" stroke-linecap="round"/><path d="M47.5 131a4.5 4.5 0 1 1-9 0 4.5 4.5 0 0 1 9 0" fill="#FFF"/><path d="M47.5 131a4.5 4.5 0 1 1-9 0 4.5 4.5 0 0 1 9 0zM71 88.5v63" stroke="#F2F2F2" stroke-width="3" stroke-linecap="round"/><path d="M75.5 131a4.5 4.5 0 1 1-9 0 4.5 4.5 0 0 1 9 0" fill="#FFF"/><path d="M75.5 131a4.5 4.5 0 1 1-9 0 4.5 4.5 0 0 1 9 0z" stroke="#F2F2F2" stroke-width="3" stroke-linecap="round"/><path d="M61.5 120a4.5 4.5 0 1 1-9 0 4.5 4.5 0 0 1 9 0" fill="#FFF"/><path d="M61.5 120a4.5 4.5 0 1 1-9 0 4.5 4.5 0 0 1 9 0z" stroke="#F2F2F2" stroke-width="3" stroke-linecap="round"/><path d="M175.5 160.5c0-24.853-20.147-45-45-45s-45 20.147-45 45" fill="#FFF"/><path d="M175.5 160.5c0-24.853-20.147-45-45-45s-45 20.147-45 45" stroke="#F2F2F2" stroke-width="3"/><path d="M118.5 160.5c0-6.627 5.373-12 12-12s12 5.373 12 12" fill="#FFF"/><path d="M118.5 160.5c0-6.627 5.373-12 12-12s12 5.373 12 12" stroke="#F2F2F2" stroke-width="3"/><path d="M118.5 160.5c0-6.627 5.373-12 12-12s12 5.373 12 12" fill="#FFF"/><path d="M118.5 160.5c0-6.627 5.373-12 12-12s12 5.373 12 12" stroke="#F2F2F2" stroke-width="3"/><path d="M181.5 52.5H1.5v-9a3 3 0 0 1 3-3h174a3 3 0 0 1 3 3v9z" fill="#FFF"/><path d="M181 52.5H1.5h180-.5z" stroke="#E6E6E6" stroke-width="3" stroke-linejoin="round"/><path d="M13.5 46.5a2.25 2.25 0 1 1-4.5 0 2.25 2.25 0 0 1 4.5 0M20.25 46.5a2.25 2.25 0 1 1-4.5 0 2.25 2.25 0 0 1 4.5 0M27 46.5a2.25 2.25 0 1 1-4.5 0 2.25 2.25 0 0 1 4.5 0" fill="#E6E6E6"/><path d="M178.5 160.5H4.5a3 3 0 0 1-3-3v-114a3 3 0 0 1 3-3h174a3 3 0 0 1 3 3v114a3 3 0 0 1-3 3z" stroke="#E6E6E6" stroke-width="3" stroke-linejoin="round"/><path d="M256.5 91.5h-114a3 3 0 0 1-3-3v-84a3 3 0 0 1 3-3h114a3 3 0 0 1 3 3v84a3 3 0 0 1-3 3" fill="#FFF"/><path d="M256.5 91.5h-114a3 3 0 0 1-3-3v-84a3 3 0 0 1 3-3h114a3 3 0 0 1 3 3v84a3 3 0 0 1-3 3z" stroke="#E6E6E6" stroke-width="3" stroke-linejoin="round"/><path d="M145.5 70.5c0 8.284 6.716 15 15 15 8.284 0 15-6.716 15-15 0-8.284-6.716-15-15-15-8.284 0-15 6.716-15 15z" stroke="#F2F2F2" stroke-width="3"/><path d="M154.5 70.5a6 6 0 1 0 12 0 6 6 0 0 0-12 0zM186 75a4.5 4.5 0 1 0 9 0 4.5 4.5 0 0 0-9 0zM175.5 70.5V159M148.5 61.5l-54 72" stroke="#F2F2F2" stroke-width="3"/><path d="M123.82 46.5H59 124h-.18z" stroke="#F2F2F2" stroke-width="3" stroke-linecap="round" stroke-linejoin="round"/><path d="M257.675 13.5H141h117-.325z" stroke="#E6E6E6" stroke-width="3" stroke-linejoin="round"/><path d="M151.5 7.5a2.25 2.25 0 1 1-4.5 0 2.25 2.25 0 0 1 4.5 0M158.25 7.5a2.25 2.25 0 1 1-4.5 0 2.25 2.25 0 0 1 4.5 0M165 7.5a2.25 2.25 0 1 1-4.5 0 2.25 2.25 0 0 1 4.5 0" fill="#E6E6E6"/><path d="M175.5 34.5c0 8.284-6.716 15-15 15-8.284 0-15-6.716-15-15h30zM175.5 34.5c0-8.284-6.716-15-15-15-8.284 0-15 6.716-15 15h30z" stroke="#F2F2F2" stroke-width="3" stroke-linecap="round"/><path d="M163 34.5a2.5 2.5 0 1 1-5 0 2.5 2.5 0 0 1 5 0zM160.5 34.5l5-8.66" stroke="#F2F2F2" stroke-width="3" stroke-linecap="round"/><path d="M256.5 91.5h-114a3 3 0 0 1-3-3v-84a3 3 0 0 1 3-3h114a3 3 0 0 1 3 3v84a3 3 0 0 1-3 3z" stroke="#E6E6E6" stroke-width="3" stroke-linejoin="round"/><path d="M247.5 64.5h-60a3 3 0 0 1-3-3v-39a3 3 0 0 1 3-3h60a3 3 0 0 1 3 3v39a3 3 0 0 1-3 3" fill="#FFF"/><path d="M247.5 64.5h-60a3 3 0 0 1-3-3v-39a3 3 0 0 1 3-3h60a3 3 0 0 1 3 3v39a3 3 0 0 1-3 3z" stroke="#F2F2F2" stroke-width="3" stroke-linecap="round"/><path d="M187.8 34.5h59.4" fill="#FFF"/><path d="M187.8 34.5h59.4" stroke="#F2F2F2" stroke-width="3" stroke-linecap="round"/><path d="M187.8 49.5h59.4" fill="#FFF"/><path d="M187.8 49.5h59.4M187.8 49.5c30.202 30.583 31.202-46.917 59.4-15M186 85.5h9" stroke="#F2F2F2" stroke-width="3" stroke-linecap="round"/><path d="M204 75a4.5 4.5 0 1 0 9 0 4.5 4.5 0 0 0-9 0z" stroke="#F2F2F2" stroke-width="3"/><path d="M204 85.5h9" stroke="#F2F2F2" stroke-width="3" stroke-linecap="round"/><path d="M222 75a4.5 4.5 0 1 0 9 0 4.5 4.5 0 0 0-9 0z" stroke="#F2F2F2" stroke-width="3"/><path d="M222 85.5h9" stroke="#F2F2F2" stroke-width="3" stroke-linecap="round"/><path d="M240 75a4.5 4.5 0 1 0 9 0 4.5 4.5 0 0 0-9 0z" stroke="#F2F2F2" stroke-width="3"/><path d="M240 85.5h9M126.3 71.745a8.238 8.238 0 1 1-16.436-1.132 8.238 8.238 0 0 1 16.437 1.132zM109.23 93.926c-.52 7.564-7.074 13.274-14.638 12.753-7.565-.522-13.274-7.076-12.754-14.64.52-7.564 7.076-13.274 14.64-12.753 7.564.52 13.274 7.075 12.753 14.64z" stroke="#F2F2F2" stroke-width="3" stroke-linecap="round"/></g></svg>