<svg id="security" xmlns="http://www.w3.org/2000/svg" viewBox="0 0 55 60"><style>.st0{fill:#f2c172}.st1{fill:#ad8850}.st2{fill:#d1a156}.st3{fill:#414042}</style><path class="st0" d="M27.5 52.5C15.1 52.5 5 42.4 5 30S15.1 7.5 27.5 7.5 50 17.6 50 30 39.9 52.5 27.5 52.5z"/><path class="st1" d="M27.5 9c11.6 0 21 9.4 21 21s-9.4 21-21 21-21-9.4-21-21 9.4-21 21-21m0-3c-13.2 0-24 10.8-24 24s10.8 24 24 24 24-10.8 24-24-10.8-24-24-24z"/><circle class="st2" cx="27.5" cy="30" r="9.9"/><title>icons-security</title><path class="st3" d="M31.1 27.6c0-2-1.6-3.6-3.6-3.6s-3.6 1.6-3.6 3.6c0 1.4.8 2.7 2.1 3.3l-.6 3.4c-.1.8.4 1.6 1.2 1.7h1.5c.8 0 1.5-.7 1.5-1.5v-.2l-.6-3.5c1.3-.5 2.1-1.8 2.1-3.2z"/></svg>