<svg id="single_color_icons" data-name="single color icons" xmlns="http://www.w3.org/2000/svg" viewBox="0 0 18 4.688"><title>icons-overflow</title><g id="overflow"><path fill="#fff" d="M2.344,7.656A1.344,1.344,0,1,1,1,9,1.345,1.345,0,0,1,2.344,7.656m0-1A2.344,2.344,0,1,0,4.688,9,2.344,2.344,0,0,0,2.344,6.656h0Z" transform="translate(0 -6.656)"/><path fill="#fff" d="M9,7.656A1.344,1.344,0,1,1,7.656,9,1.345,1.345,0,0,1,9,7.656m0-1A2.344,2.344,0,1,0,11.344,9,2.344,2.344,0,0,0,9,6.656H9Z" transform="translate(0 -6.656)"/><path fill="#fff" d="M15.656,7.656A1.344,1.344,0,1,1,14.313,9a1.345,1.345,0,0,1,1.344-1.344m0-1A2.344,2.344,0,1,0,18,9a2.344,2.344,0,0,0-2.344-2.344h0Z" transform="translate(0 -6.656)"/></g></svg>