<svg xmlns="http://www.w3.org/2000/svg" viewBox="0 0 55.001 60"><title>icons-security</title><path d="M27.5 58.39a2.59 2.59 0 0 1-1.27-.337L3.32 45.3a3.606 3.606 0 0 1-1.708-3.16V17.855a3.6 3.6 0 0 1 1.71-3.155L26.23 1.947a2.567 2.567 0 0 1 2.54 0L51.684 14.7a3.6 3.6 0 0 1 1.71 3.16v24.29a3.6 3.6 0 0 1-1.71 3.16L28.77 58.053a2.59 2.59 0 0 1-1.27.336z" fill="#fafafa"/><path d="M27.5 3.223a.992.992 0 0 1 .486.133L50.896 16.1a2.01 2.01 0 0 1 .88 1.752v24.29a2.01 2.01 0 0 1-.88 1.752l-22.91 12.75a.955.955 0 0 1-.972 0L4.1 43.9a2.01 2.01 0 0 1-.88-1.752V17.855A2.01 2.01 0 0 1 4.1 16.1L27.016 3.356a.992.992 0 0 1 .486-.133M27.5 0a4.212 4.212 0 0 0-2.052.54L2.538 13.286A5.2 5.2 0 0 0 0 17.855v24.29a5.2 5.2 0 0 0 2.538 4.568l22.91 12.748a4.176 4.176 0 0 0 4.105 0l22.91-12.747A5.2 5.2 0 0 0 55 42.145v-24.29a5.2 5.2 0 0 0-2.536-4.568L29.554.54A4.212 4.212 0 0 0 27.5 0z" fill="#ccc"/><path d="M33.485 26a6 6 0 1 0-8.57 5.416l-.955 5.74A2.444 2.444 0 0 0 26.37 40h2.23a2.444 2.444 0 0 0 2.41-2.845l-.955-5.74A6 6 0 0 0 33.485 26z" fill="#414042"/></svg>