<svg id="open" xmlns="http://www.w3.org/2000/svg" viewBox="0 0 55.001 60"><title>icons-open</title><path d="M30,58.389a2.59,2.59,0,0,1-1.27-.336L5.82,45.3a3.606,3.606,0,0,1-1.709-3.16V17.855A3.6,3.6,0,0,1,5.82,14.7L28.731,1.947a2.567,2.567,0,0,1,2.539,0L54.184,14.7a3.6,3.6,0,0,1,1.709,3.16V42.15a3.6,3.6,0,0,1-1.71,3.16L31.269,58.053A2.59,2.59,0,0,1,30,58.389Z" transform="translate(-2.499)" style="fill:#fafafa"/><path d="M30,3.223a0.992,0.992,0,0,1,.485.133L53.395,16.1a2.01,2.01,0,0,1,.881,1.752v24.29a2.01,2.01,0,0,1-.881,1.752L30.484,56.644a0.955,0.955,0,0,1-.971,0L6.6,43.9a2.01,2.01,0,0,1-.881-1.752V17.855A2.01,2.01,0,0,1,6.6,16.1L29.514,3.356A0.992,0.992,0,0,1,30,3.223M30,0a4.212,4.212,0,0,0-2.053.539L5.037,13.287A5.2,5.2,0,0,0,2.5,17.855v24.29a5.2,5.2,0,0,0,2.537,4.568l22.91,12.748a4.176,4.176,0,0,0,4.105,0l22.91-12.748A5.2,5.2,0,0,0,57.5,42.145V17.855a5.2,5.2,0,0,0-2.537-4.568L32.052,0.539A4.212,4.212,0,0,0,30,0h0Z" transform="translate(-2.499)" style="fill:#ccc"/><path d="M29.009,31.147a0.2,0.2,0,0,1-.1-0.025l-1.732-.963a0.271,0.271,0,0,1-.129-0.239V28.084a0.271,0.271,0,0,1,.129-0.239l1.731-.964h0.192l1.732,0.964a0.272,0.272,0,0,1,.128.239V29.92a0.272,0.272,0,0,1-.128.239l-1.732.963Z" transform="translate(-2.499)" style="fill:#e6e6e6"/><path d="M29.009,26.978l0.037,0.01,1.732,0.964a0.152,0.152,0,0,1,.067.132V29.92a0.152,0.152,0,0,1-.067.132l-1.732.964,0.118,0.213-0.192-.213-1.732-.964a0.152,0.152,0,0,1-.067-0.132V28.084a0.152,0.152,0,0,1,.067-0.132l1.732-.964a0.075,0.075,0,0,1,.037-0.01m0-.244a0.318,0.318,0,0,0-.155.041l-1.732.964a0.393,0.393,0,0,0-.192.345V29.92a0.393,0.393,0,0,0,.192.345l1.732,0.964a0.316,0.316,0,0,0,.31,0l1.732-.964a0.393,0.393,0,0,0,.192-0.345V28.084a0.393,0.393,0,0,0-.192-0.345l-1.732-.964a0.318,0.318,0,0,0-.155-0.041h0Z" transform="translate(-2.499)" style="fill:#999"/><path id="outline" d="M32.817,26.235h3.227v3.3h1.632a7.077,7.077,0,0,0,2.242-.376,5.741,5.741,0,0,0,1.09-.492,4.047,4.047,0,0,1-.757-2.086,4.407,4.407,0,0,1,.792-3.106l0.339-.392,0.4,0.325a5.14,5.14,0,0,1,2.025,3.263,4.933,4.933,0,0,1,3.745.348L48,27.273l-0.233.455c-0.914,1.783-2.824,2.335-4.691,2.238C40.282,36.925,34.2,40.22,26.822,40.22c-3.811,0-7.307-1.425-9.3-4.805l-0.033-.055-0.29-.59a9.36,9.36,0,0,1-.745-4.748l0.045-.488h2.76v-3.3h3.227V23.007h6.455V19.78h3.873v6.455Z" transform="translate(-2.499)" style="fill:#394d54;fill-rule:evenodd"/><g id="body_colors" data-name="body colors"><path d="M43.273,27.455a4.258,4.258,0,0,0-1.823-3.63c-0.9,1.04-1.039,3.765.372,4.913a6.787,6.787,0,0,1-4.146,1.334H16.992a8.716,8.716,0,0,0,.857,4.805l0.235,0.43a7.972,7.972,0,0,0,.488.732h0q1.275,0.082,2.352.058h0a11.535,11.535,0,0,0,3.431-.5,0.248,0.248,0,1,1,.163.469c-0.116.04-.237,0.078-0.362,0.113h0a10.8,10.8,0,0,1-2.372.387c0.056,0-.059.008-0.059,0.008l-0.105.008c-0.374.021-.777,0.025-1.19,0.025-0.451,0-.9-0.009-1.392-0.034l-0.013.008a10.134,10.134,0,0,0,7.8,3.1c7.149,0,13.212-3.169,15.9-10.283,1.9,0.2,3.736-.29,4.569-1.916A4.494,4.494,0,0,0,43.273,27.455Z" transform="translate(-2.499)" style="fill:#00aada"/><path d="M43.273,27.455a4.258,4.258,0,0,0-1.823-3.63c-0.9,1.04-1.039,3.765.372,4.913a6.787,6.787,0,0,1-4.146,1.334H18.217A6.715,6.715,0,0,0,20.924,36.1h0a11.535,11.535,0,0,0,3.431-.5,0.248,0.248,0,1,1,.163.469c-0.116.04-.237,0.078-0.362,0.113h0a11.354,11.354,0,0,1-2.435.4L21.7,36.562c2.433,1.248,5.961,1.243,10.005-.31a28.116,28.116,0,0,0,11.7-8.858Q43.336,27.424,43.273,27.455Z" transform="translate(-2.499)" style="fill:#24b8eb"/><path d="M17.031,32.227a8.271,8.271,0,0,0,.819,2.65l0.235,0.43a7.957,7.957,0,0,0,.488.732q1.276,0.082,2.352.058a11.535,11.535,0,0,0,3.431-.5,0.248,0.248,0,1,1,.163.469c-0.116.04-.237,0.078-0.362,0.113h0a11.35,11.35,0,0,1-2.431.395l-0.122,0c-0.374.021-.773,0.034-1.185,0.034-0.451,0-.912-0.009-1.409-0.034a10.175,10.175,0,0,0,7.813,3.1c6.12,0,11.444-2.323,14.535-7.455H17.031Z" transform="translate(-2.499)" style="fill:#008bb8"/><path d="M18.4,32.227a6.212,6.212,0,0,0,2.521,3.87,11.535,11.535,0,0,0,3.431-.5,0.248,0.248,0,1,1,.163.469c-0.116.04-.237,0.078-0.362,0.113h0a11.521,11.521,0,0,1-2.448.395c2.433,1.248,5.95,1.23,9.994-.324a26.417,26.417,0,0,0,6.914-4.025H18.4Z" transform="translate(-2.499)" style="fill:#039bc6"/></g><g id="Containers"><path d="M19.8,26.772h2.8v2.8H19.8v-2.8Z" transform="translate(-2.499)" style="fill:#00acd3;fill-rule:evenodd"/><path d="M23.027,23.545h2.8v2.8h-2.8v-2.8Z" transform="translate(-2.499)" style="fill:#00acd3;fill-rule:evenodd"/><path d="M23.027,26.772h2.8v2.8h-2.8v-2.8Z" transform="translate(-2.499)" style="fill:#20c2ef;fill-rule:evenodd"/><path d="M26.255,26.772h2.8v2.8h-2.8v-2.8Z" transform="translate(-2.499)" style="fill:#00acd3;fill-rule:evenodd"/><path d="M26.255,23.545h2.8v2.8h-2.8v-2.8Z" transform="translate(-2.499)" style="fill:#20c2ef;fill-rule:evenodd"/><path d="M29.482,26.772h2.8v2.8h-2.8v-2.8Z" transform="translate(-2.499)" style="fill:#20c2ef;fill-rule:evenodd"/><path d="M29.482,23.545h2.8v2.8h-2.8v-2.8Z" transform="translate(-2.499)" style="fill:#00acd3;fill-rule:evenodd"/><path d="M29.482,20.318h2.8v2.8h-2.8v-2.8Z" transform="translate(-2.499)" style="fill:#20c2ef;fill-rule:evenodd"/><path d="M32.709,26.772h2.8v2.8h-2.8v-2.8Z" transform="translate(-2.499)" style="fill:#00acd3;fill-rule:evenodd"/></g><path d="M25.649,34.1a0.772,0.772,0,1,1-.772.772,0.772,0.772,0,0,1,.772-0.772" transform="translate(-2.499)" style="fill:#d4edf1;fill-rule:evenodd"/><path d="M25.649,34.324a0.552,0.552,0,0,1,.2.037,0.225,0.225,0,1,0,.31.3,0.553,0.553,0,1,1-.511-0.341" transform="translate(-2.499)" style="fill:#394d54;fill-rule:evenodd"/><path d="M27.7,39.666a6.8,6.8,0,0,1-3.544-3.485,11.831,11.831,0,0,1-2.555.388q-0.56.031-1.179,0.032-0.713,0-1.5-.042a10.212,10.212,0,0,0,7.9,3.125Q27.264,39.682,27.7,39.666Z" transform="translate(-2.499)" style="fill:#bfdbe0"/><path d="M24.867,37.422a6.694,6.694,0,0,1-.709-1.242,11.834,11.834,0,0,1-2.555.388A8.134,8.134,0,0,0,24.867,37.422Z" transform="translate(-2.499)" style="fill:#d4edf1"/></svg>