<svg xmlns="http://www.w3.org/2000/svg" viewBox="0 0 55.001 60"><title>icons-flexible</title><path d="M27.5 58.39a2.59 2.59 0 0 1-1.27-.337L3.32 45.3a3.606 3.606 0 0 1-1.708-3.16V17.855a3.6 3.6 0 0 1 1.71-3.155L26.23 1.947a2.567 2.567 0 0 1 2.54 0L51.684 14.7a3.6 3.6 0 0 1 1.71 3.16v24.29a3.6 3.6 0 0 1-1.71 3.16L28.77 58.053a2.59 2.59 0 0 1-1.27.336z" fill="#fafafa"/><path d="M27.5 3.223a.992.992 0 0 1 .486.133L50.896 16.1a2.01 2.01 0 0 1 .88 1.752v24.29a2.01 2.01 0 0 1-.88 1.752l-22.91 12.75a.955.955 0 0 1-.972 0L4.1 43.9a2.01 2.01 0 0 1-.88-1.752V17.855A2.01 2.01 0 0 1 4.1 16.1L27.016 3.356a.992.992 0 0 1 .486-.133M27.5 0a4.212 4.212 0 0 0-2.052.54L2.538 13.286A5.2 5.2 0 0 0 0 17.855v24.29a5.2 5.2 0 0 0 2.538 4.568l22.91 12.748a4.176 4.176 0 0 0 4.105 0l22.91-12.747A5.2 5.2 0 0 0 55 42.145v-24.29a5.2 5.2 0 0 0-2.536-4.568L29.554.54A4.212 4.212 0 0 0 27.5 0z" fill="#ccc"/><path d="M38.97 27.5a7.237 7.237 0 0 1 .515 2.778q-.094 5.672-3.4 7.64a15.86 15.86 0 0 1-8.625 1.83 15.74 15.74 0 0 1-8.6-1.83q-3.28-1.97-3.375-7.64A7.237 7.237 0 0 1 16 27.5a7.4 7.4 0 0 1 1.43-2.238 5.4 5.4 0 0 1-.35-1.7 7.573 7.573 0 0 1 .562-3.27 2.42 2.42 0 0 1 1.23.047 11.446 11.446 0 0 1 3.926 1.9 12.625 12.625 0 0 1 2.31-.4q1.177-.095 2.377-.095t2.38.094a12.625 12.625 0 0 1 2.308.4 11.446 11.446 0 0 1 3.926-1.9 2.42 2.42 0 0 1 1.23-.048 7.573 7.573 0 0 1 .562 3.27 5.4 5.4 0 0 1-.352 1.7 7.4 7.4 0 0 1 1.43 2.238zm-5.133 10.055q2.53-.855 2.625-4.324a3.6 3.6 0 0 0-.4-1.65 4.82 4.82 0 0 0-1.148-1.442 4.388 4.388 0 0 0-3.152-.9q-1.934.1-4.277.2-2.344-.094-4.277-.2a4.388 4.388 0 0 0-3.152.9 4.82 4.82 0 0 0-1.148 1.44 3.6 3.6 0 0 0-.4 1.653q.093 3.47 2.625 4.325a18.006 18.006 0 0 0 6.352.715 18.006 18.006 0 0 0 6.352-.715zm-8.852-6.012a3.312 3.312 0 0 1 .5 1.887 3.37 3.37 0 0 1-.5 1.9 1.432 1.432 0 0 1-2.555 0 3.37 3.37 0 0 1-.5-1.9 3.312 3.312 0 0 1 .5-1.887 1.422 1.422 0 0 1 2.555 0zm7.547 0a3.768 3.768 0 0 1-.012 3.785 1.422 1.422 0 0 1-2.543 0 3.37 3.37 0 0 1-.5-1.9 3.312 3.312 0 0 1 .5-1.887 1.422 1.422 0 0 1 2.56 0z" fill="#414042"/></svg>