<svg id="performance" xmlns="http://www.w3.org/2000/svg" viewBox="0 0 55 60"><style>.st0{opacity:.75}.st1{fill:#e6e6e6}.st2{fill:#999}.st3{fill:#BBB}.st4{fill:#3fef58}.st5{fill:#FFF}</style><title>icons-performance</title><g class="st0"><path class="st1" d="M27.5 49.4c-.4 0-.7-.1-1-.2L9 40.4c-.8-.4-1.3-1.2-1.3-2.1V21.7c0-.9.5-1.7 1.3-2.1l17.5-8.7c.3-.2.7-.2 1-.2.4 0 .7.1 1 .2L46 19.6c.8.4 1.3 1.2 1.3 2.1v16.7c0 .9-.5 1.7-1.3 2.1l-17.5 8.7c-.3.1-.6.2-1 .2z"/><path class="st2" d="M27.5 11.7c.2 0 .4 0 .5.1l17.5 8.7c.4.2.6.6.6 1v16.7c0 .4-.2.8-.6 1L28 48.1c-.2.1-.3.1-.5.1s-.4 0-.5-.1L9.5 39.4c-.4-.2-.6-.6-.6-1V21.7c0-.4.2-.8.6-1L27 11.9c.1-.1.3-.2.5-.2m0-2.3c-.5 0-1.1.1-1.6.4L8.4 18.5c-1.2.6-1.9 1.8-1.9 3.1v16.7c0 1.3.8 2.5 1.9 3.1l17.5 8.7c.5.2 1 .4 1.6.4s1.1-.1 1.6-.4l17.5-8.7c1.2-.6 1.9-1.8 1.9-3.1V21.7c0-1.3-.8-2.5-1.9-3.1L29.1 9.8c-.5-.3-1.1-.4-1.6-.4z"/><path class="st3" d="M46.2 24.3v-2.6L27.5 31 8.8 21.7v2.6L26.3 33v6.1L8.8 30.4V33l17.5 8.8v6l.6.3c.2.1.3.1.5.1s.4 0 .5-.1l.6-.3v-6L46 33v-2.6l-17.5 8.8v-6.1l17.7-8.8z"/></g><path class="st4" d="M23.6 54.2c-.7 0-1.5-.3-2-.9-.5-.6-.7-1.3-.5-2l2.5-13.9h-8.1c-.9 0-1.7-.5-2.2-1.3-.4-.8-.4-1.7 0-2.5L29.2 7c.5-.8 1.3-1.2 2.1-1.2.7 0 1.5.3 2 .9s.7 1.3.5 2l-2.5 13.9h8.1c.9 0 1.7.5 2.2 1.3.4.8.4 1.7 0 2.5L25.8 53c-.5.7-1.3 1.2-2.2 1.2z"/><path class="st5" d="M31.4 7.3c.6 0 1.1.5 1 1.2L29.8 23c-.1.6.4 1.2 1 1.2h8.7c.8 0 1.3.8.9 1.5L24.5 52.2c-.2.3-.5.5-.8.5-.6 0-1.1-.5-1-1.2L25.3 37c.1-.6-.4-1.2-1-1.2h-8.7c-.8 0-1.3-.8-.9-1.5L30.5 7.8c.2-.4.5-.5.9-.5m0-3c-1.4 0-2.7.7-3.4 2L12.1 32.8c-.7 1.2-.7 2.8 0 4s2 2 3.5 2h6.3L19.7 51c-.2 1.2.1 2.4.8 3.3.8.9 1.9 1.5 3.1 1.5 1.4 0 2.7-.7 3.4-2l15.8-26.6c.7-1.2.7-2.8 0-4s-2-2-3.5-2H33L35.3 9c.2-1.2-.1-2.4-.8-3.3a4.1 4.1 0 0 0-3.1-1.4z"/></svg>