<svg xmlns="http://www.w3.org/2000/svg" viewBox="0 0 42 42"><title>icons-flexible</title><path d="M.1 9.2L0 35.6a6.274 6.274 0 0 0 6.3 6.3l29.3.1a6.274 6.274 0 0 0 6.3-6.3L42 9.2H.1z" fill="#5e5e5e"/><path d="M35.7.1L6.4 0A6.274 6.274 0 0 0 .1 6.3v3H42V6.5A6.3 6.3 0 0 0 35.7.1z" fill="#bcbcbc"/><path d="M12.1 18L7 21.1v-1.5l3.6-2.1L7 15.6v-1.7l5.1 3.2v.9zM18.3 21.1v1h-5.1v-1h5.1z" fill="#f1f2f2"/><path d="M6.4 0v3l29.3.1a2.9 2.9 0 0 1 2.3 1 3.255 3.255 0 0 1 1 2.3v6.9l-.1 22.4a3.33 3.33 0 0 1-3.3 3.3l-29.3-.1a2.9 2.9 0 0 1-2.3-1 3.255 3.255 0 0 1-1-2.3l.1-21.7V6.3A3.33 3.33 0 0 1 6.4 3V0m0 0A6.274 6.274 0 0 0 .1 6.3v4.6L0 35.6a6.274 6.274 0 0 0 6.3 6.3l29.3.1a6.274 6.274 0 0 0 6.3-6.3l.1-22.4V6.4A6.274 6.274 0 0 0 35.7.1L6.4 0z" opacity=".2"/></svg>