<svg xmlns="http://www.w3.org/2000/svg" viewBox="0 0 55 60"><title>icons-performance</title><g opacity=".75"><path d="M27.5 49.4a2.958 2.958 0 0 1-1-.2L9 40.4a2.332 2.332 0 0 1-1.3-2.1V21.7A2.332 2.332 0 0 1 9 19.6l17.5-8.7a1.8 1.8 0 0 1 1-.2 2.96 2.96 0 0 1 1 .2L46 19.6a2.332 2.332 0 0 1 1.3 2.1v16.7a2.332 2.332 0 0 1-1.3 2.1l-17.5 8.7a2.96 2.96 0 0 1-1 .2z" fill="#e6e6e6"/><path d="M27.5 11.7a.75.75 0 0 1 .5.1l17.5 8.7a1.1 1.1 0 0 1 .6 1v16.7a1.1 1.1 0 0 1-.6 1L28 48.1a.9.9 0 0 1-.5.1.75.75 0 0 1-.5-.1L9.5 39.4a1.1 1.1 0 0 1-.6-1V21.7a1.1 1.1 0 0 1 .6-1L27 11.9a.764.764 0 0 1 .5-.2m0-2.3a3.167 3.167 0 0 0-1.6.4L8.4 18.5a3.433 3.433 0 0 0-1.9 3.1v16.7a3.625 3.625 0 0 0 1.9 3.1l17.5 8.7a4.193 4.193 0 0 0 1.6.4 2.934 2.934 0 0 0 1.6-.4l17.5-8.7a3.433 3.433 0 0 0 1.9-3.1V21.7a3.625 3.625 0 0 0-1.9-3.1L29.1 9.8a3.167 3.167 0 0 0-1.6-.4z" fill="#999"/><path d="M46.2 24.3v-2.6L27.5 31 8.8 21.7v2.6L26.3 33v6.1L8.8 30.4V33l17.5 8.8v6l.6.3a.9.9 0 0 0 .5.1.75.75 0 0 0 .5-.1l.6-.3v-6L46 33v-2.6l-17.5 8.8v-6.1z" fill="#bbb"/></g><path d="M23.6 54.2a2.665 2.665 0 0 1-2-.9 2.145 2.145 0 0 1-.5-2l2.5-13.9h-8.1a2.606 2.606 0 0 1-2.2-1.3 2.754 2.754 0 0 1 0-2.5L29.2 7a2.467 2.467 0 0 1 2.1-1.2 2.665 2.665 0 0 1 2 .9 2.145 2.145 0 0 1 .5 2l-2.5 13.9h8.1a2.606 2.606 0 0 1 2.2 1.3 2.754 2.754 0 0 1 0 2.5L25.8 53a2.748 2.748 0 0 1-2.2 1.2z" fill="#3fef58"/><path d="M31.4 7.3a1.01 1.01 0 0 1 1 1.2L29.8 23a1.055 1.055 0 0 0 1 1.2h8.7a1 1 0 0 1 .9 1.5L24.5 52.2a1.02 1.02 0 0 1-.8.5 1.01 1.01 0 0 1-1-1.2L25.3 37a1.055 1.055 0 0 0-1-1.2h-8.7a1 1 0 0 1-.9-1.5L30.5 7.8a.874.874 0 0 1 .9-.5m0-3a3.792 3.792 0 0 0-3.4 2L12.1 32.8a4 4 0 0 0 3.5 6h6.3L19.7 51a4 4 0 0 0 3.9 4.8 3.792 3.792 0 0 0 3.4-2l15.8-26.6a4 4 0 0 0-3.5-6H33L35.3 9a4.242 4.242 0 0 0-.8-3.3 4.1 4.1 0 0 0-3.1-1.4z" fill="#fff"/></svg>