<svg xmlns="http://www.w3.org/2000/svg" viewBox="0 0 55.001 60"><title>icons-open</title><path d="M27.5 58.39a2.59 2.59 0 0 1-1.27-.337L3.32 45.3a3.606 3.606 0 0 1-1.708-3.16V17.855a3.6 3.6 0 0 1 1.71-3.155L26.23 1.947a2.567 2.567 0 0 1 2.54 0L51.684 14.7a3.6 3.6 0 0 1 1.71 3.16v24.29a3.6 3.6 0 0 1-1.71 3.16L28.77 58.053a2.59 2.59 0 0 1-1.27.336z" fill="#fafafa"/><path d="M27.5 3.223a.992.992 0 0 1 .486.133L50.896 16.1a2.01 2.01 0 0 1 .88 1.752v24.29a2.01 2.01 0 0 1-.88 1.752l-22.91 12.75a.955.955 0 0 1-.972 0L4.1 43.9a2.01 2.01 0 0 1-.88-1.752V17.855A2.01 2.01 0 0 1 4.1 16.1L27.016 3.356a.992.992 0 0 1 .486-.133M27.5 0a4.212 4.212 0 0 0-2.052.54L2.538 13.286A5.2 5.2 0 0 0 0 17.855v24.29a5.2 5.2 0 0 0 2.538 4.568l22.91 12.748a4.176 4.176 0 0 0 4.105 0l22.91-12.747A5.2 5.2 0 0 0 55 42.145v-24.29a5.2 5.2 0 0 0-2.536-4.568L29.554.54A4.212 4.212 0 0 0 27.5 0z" fill="#ccc"/><path d="M26.51 31.147a.2.2 0 0 1-.1-.025l-1.732-.963a.27.27 0 0 1-.13-.24v-1.836a.27.27 0 0 1 .13-.24l1.73-.963h.193l1.733.965a.272.272 0 0 1 .128.24v1.835a.272.272 0 0 1-.127.24l-1.732.962z" fill="#e6e6e6"/><path d="M26.51 26.978l.037.01 1.732.964a.152.152 0 0 1 .066.132v1.836a.152.152 0 0 1-.067.132l-1.733.964.118.213-.192-.214-1.732-.964a.152.152 0 0 1-.066-.132v-1.836a.152.152 0 0 1 .067-.132l1.733-.964a.075.075 0 0 1 .037-.01m0-.244a.318.318 0 0 0-.155.04l-1.732.965a.393.393 0 0 0-.192.344v1.836a.393.393 0 0 0 .193.345l1.732.964a.316.316 0 0 0 .31 0l1.732-.965a.393.393 0 0 0 .192-.345v-1.836a.393.393 0 0 0-.193-.345l-1.732-.965a.318.318 0 0 0-.155-.04z" fill="#999"/><path d="M30.318 26.235h3.227v3.3h1.632a7.077 7.077 0 0 0 2.242-.376 5.74 5.74 0 0 0 1.09-.493 4.047 4.047 0 0 1-.758-2.086 4.407 4.407 0 0 1 .792-3.105l.34-.392.4.325a5.14 5.14 0 0 1 2.024 3.263 4.933 4.933 0 0 1 3.745.35l.448.253-.232.455c-.914 1.783-2.824 2.335-4.69 2.238-2.795 6.96-8.877 10.254-16.255 10.254-3.81 0-7.307-1.425-9.3-4.805l-.033-.055-.29-.59a9.36 9.36 0 0 1-.745-4.748l.045-.488h2.76v-3.3h3.227v-3.227h6.455V19.78h3.873v6.455z" fill="#394d54" fill-rule="evenodd"/><g data-name="body colors"><path d="M40.774 27.455a4.258 4.258 0 0 0-1.823-3.63c-.9 1.04-1.038 3.765.373 4.913a6.787 6.787 0 0 1-4.146 1.334H14.493a8.716 8.716 0 0 0 .857 4.805l.235.43a7.972 7.972 0 0 0 .488.732q1.275.08 2.352.057a11.535 11.535 0 0 0 3.43-.5.248.248 0 1 1 .164.47 6.43 6.43 0 0 1-.363.112 10.8 10.8 0 0 1-2.372.386c.056 0-.06.008-.06.008l-.104.008c-.373.02-.776.025-1.19.025-.45 0-.9-.01-1.39-.034l-.014.008a10.134 10.134 0 0 0 7.8 3.1c7.15 0 13.212-3.168 15.9-10.282 1.9.2 3.736-.29 4.57-1.916a4.494 4.494 0 0 0-4.022-.027z" fill="#00aada"/><path d="M40.774 27.455a4.258 4.258 0 0 0-1.823-3.63c-.9 1.04-1.038 3.765.373 4.913a6.787 6.787 0 0 1-4.146 1.334h-19.46a6.715 6.715 0 0 0 2.708 6.028 11.535 11.535 0 0 0 3.43-.5.248.248 0 1 1 .164.47 6.43 6.43 0 0 1-.363.112 11.354 11.354 0 0 1-2.435.4l-.02-.02c2.432 1.248 5.96 1.243 10.004-.31a28.116 28.116 0 0 0 11.7-8.858q-.07.03-.132.06z" fill="#24b8eb"/><path d="M14.532 32.227a8.27 8.27 0 0 0 .82 2.65l.234.43a7.957 7.957 0 0 0 .488.732q1.276.08 2.352.057a11.535 11.535 0 0 0 3.43-.5.248.248 0 1 1 .164.47 6.43 6.43 0 0 1-.362.112 11.35 11.35 0 0 1-2.43.394h-.123c-.374.02-.773.034-1.185.034-.45 0-.912-.01-1.41-.034a10.175 10.175 0 0 0 7.814 3.1c6.12 0 11.444-2.323 14.535-7.455H14.53z" fill="#008bb8"/><path d="M15.9 32.227a6.212 6.212 0 0 0 2.522 3.87 11.535 11.535 0 0 0 3.43-.5.248.248 0 1 1 .164.47 6.43 6.43 0 0 1-.362.112 11.52 11.52 0 0 1-2.448.394c2.433 1.248 5.95 1.23 9.994-.324a26.417 26.417 0 0 0 6.914-4.025H15.9z" fill="#039bc6"/></g><g fill-rule="evenodd"><path d="M17.3 26.772h2.8v2.8h-2.8v-2.8zM20.528 23.545h2.8v2.8h-2.8v-2.8z" fill="#00acd3"/><path d="M20.528 26.772h2.8v2.8h-2.8v-2.8z" fill="#20c2ef"/><path d="M23.756 26.772h2.8v2.8h-2.8v-2.8z" fill="#00acd3"/><path d="M23.756 23.545h2.8v2.8h-2.8v-2.8zM26.983 26.772h2.8v2.8h-2.8v-2.8z" fill="#20c2ef"/><path d="M26.983 23.545h2.8v2.8h-2.8v-2.8z" fill="#00acd3"/><path d="M26.983 20.318h2.8v2.8h-2.8v-2.8z" fill="#20c2ef"/><path d="M30.21 26.772h2.8v2.8h-2.8v-2.8z" fill="#00acd3"/></g><path d="M23.15 34.1a.772.772 0 1 1-.772.772.772.772 0 0 1 .772-.772" fill="#d4edf1" fill-rule="evenodd"/><path d="M23.15 34.324a.552.552 0 0 1 .2.037.225.225 0 1 0 .31.3.553.553 0 1 1-.51-.34" fill="#394d54" fill-rule="evenodd"/><path d="M25.2 39.666a6.8 6.8 0 0 1-3.543-3.485 11.83 11.83 0 0 1-2.555.39q-.56.03-1.18.03-.712 0-1.5-.04a10.212 10.212 0 0 0 7.9 3.124q.443-.002.88-.018z" fill="#bfdbe0"/><path d="M22.368 37.422a6.694 6.694 0 0 1-.71-1.242 11.834 11.834 0 0 1-2.554.388 8.134 8.134 0 0 0 3.264.854z" fill="#d4edf1"/></svg>