<svg data-name="single color icons" xmlns="http://www.w3.org/2000/svg" viewBox="0 0 15 15"><title>icons-external</title><g data-name="external link"><path fill="currentColor" d="M8.5 7a.5.5 0 0 1-.354-.854L13.293 1H10a.5.5 0 0 1 0-1h4.506a.5.5 0 0 1 .32.12.56.56 0 0 1 .07.075.5.5 0 0 1 .1.27V5a.5.5 0 0 1-1 0V1.707L8.854 6.854A.5.5 0 0 1 8.5 7z"/><path d="M12.317 6.218L12 6.535V12a2 2 0 0 1-2 2H3a2 2 0 0 1-2-2V5a2 2 0 0 1 2-2h5.465l.317-.317A2.5 2.5 0 0 1 8.027 2H3a3 3 0 0 0-3 3v7a3 3 0 0 0 3 3h7a3 3 0 0 0 3-3V6.973a2.5 2.5 0 0 1-.683-.755z"/></g></svg>