<svg id="flexible" xmlns="http://www.w3.org/2000/svg" viewBox="0 0 55.001 60"><title>icons-flexible</title><path d="M30,58.389a2.59,2.59,0,0,1-1.27-.336L5.82,45.3a3.606,3.606,0,0,1-1.709-3.16V17.855A3.6,3.6,0,0,1,5.82,14.7L28.731,1.947a2.567,2.567,0,0,1,2.539,0L54.184,14.7a3.6,3.6,0,0,1,1.709,3.16V42.15a3.6,3.6,0,0,1-1.71,3.16L31.269,58.053A2.59,2.59,0,0,1,30,58.389Z" transform="translate(-2.499)" style="fill:#fafafa"/><path d="M30,3.223a0.992,0.992,0,0,1,.485.133L53.395,16.1a2.01,2.01,0,0,1,.881,1.752v24.29a2.01,2.01,0,0,1-.881,1.752L30.484,56.644a0.955,0.955,0,0,1-.971,0L6.6,43.9a2.01,2.01,0,0,1-.881-1.752V17.855A2.01,2.01,0,0,1,6.6,16.1L29.514,3.356A0.992,0.992,0,0,1,30,3.223M30,0a4.212,4.212,0,0,0-2.053.539L5.037,13.287A5.2,5.2,0,0,0,2.5,17.855v24.29a5.2,5.2,0,0,0,2.537,4.568l22.91,12.748a4.176,4.176,0,0,0,4.105,0l22.91-12.748A5.2,5.2,0,0,0,57.5,42.145V17.855a5.2,5.2,0,0,0-2.537-4.568L32.052,0.539A4.212,4.212,0,0,0,30,0h0Z" transform="translate(-2.499)" style="fill:#ccc"/><path d="M41.468,27.5a7.237,7.237,0,0,1,.516,2.778q-0.094,5.672-3.4,7.641a15.859,15.859,0,0,1-8.625,1.828,15.739,15.739,0,0,1-8.6-1.828q-3.281-1.97-3.375-7.641A7.237,7.237,0,0,1,18.5,27.5a7.4,7.4,0,0,1,1.43-2.238,5.4,5.4,0,0,1-.352-1.7,7.573,7.573,0,0,1,.563-3.27,2.421,2.421,0,0,1,1.23.047,11.446,11.446,0,0,1,3.926,1.9,12.625,12.625,0,0,1,2.309-.4q1.178-.094,2.378-0.094t2.379,0.094a12.625,12.625,0,0,1,2.309.4,11.446,11.446,0,0,1,3.926-1.9,2.421,2.421,0,0,1,1.23-.047,7.573,7.573,0,0,1,.563,3.27,5.4,5.4,0,0,1-.352,1.7A7.4,7.4,0,0,1,41.468,27.5ZM36.336,37.555q2.531-.855,2.625-4.324a3.6,3.6,0,0,0-.4-1.652,4.82,4.82,0,0,0-1.148-1.441,4.388,4.388,0,0,0-3.152-.9q-1.934.1-4.277,0.2-2.344-.094-4.277-0.2a4.388,4.388,0,0,0-3.152.9,4.82,4.82,0,0,0-1.148,1.441,3.6,3.6,0,0,0-.4,1.652Q21.1,36.7,23.632,37.555a18.006,18.006,0,0,0,6.352.715A18.006,18.006,0,0,0,36.336,37.555Zm-8.852-6.012a3.312,3.312,0,0,1,.5,1.887,3.369,3.369,0,0,1-.5,1.9,1.432,1.432,0,0,1-2.555,0,3.369,3.369,0,0,1-.5-1.9,3.312,3.312,0,0,1,.5-1.887A1.422,1.422,0,0,1,27.484,31.543Zm7.547,0a3.768,3.768,0,0,1-.012,3.785,1.422,1.422,0,0,1-2.543,0,3.369,3.369,0,0,1-.5-1.9,3.312,3.312,0,0,1,.5-1.887,1.422,1.422,0,0,1,2.559,0h0Z" transform="translate(-2.499)" style="fill:#414042"/></svg>