<svg xmlns="http://www.w3.org/2000/svg" viewBox="0 0 55 60"><title>icons-flexible</title><path fill="none" d="M0 0h55v60H0z"/><path d="M6.6 18.2l-.1 26.4a6.274 6.274 0 0 0 6.3 6.3l29.3.1a6.274 6.274 0 0 0 6.3-6.3l.1-26.5H6.6z" fill="#5e5e5e"/><path d="M42.2 9.1L12.9 9a6.274 6.274 0 0 0-6.3 6.3v3h41.9v-2.8a6.3 6.3 0 0 0-6.3-6.4z" fill="#bcbcbc"/><path d="M18.6 27l-5.1 3.1v-1.5l3.6-2.1-3.6-1.9v-1.7l5.1 3.2v.9zM24.8 30.1v1h-5.1v-1h5.1z" fill="#f1f2f2"/><path d="M12.9 9v3l29.3.1a2.9 2.9 0 0 1 2.3 1 3.255 3.255 0 0 1 1 2.3v6.9l-.1 22.4a3.33 3.33 0 0 1-3.3 3.3l-29.3-.1a2.9 2.9 0 0 1-2.3-1 3.255 3.255 0 0 1-1-2.3l.1-21.7v-7.6a3.33 3.33 0 0 1 3.3-3.3V9m0 0a6.274 6.274 0 0 0-6.3 6.3v4.6l-.1 24.7a6.274 6.274 0 0 0 6.3 6.3l29.3.1a6.274 6.274 0 0 0 6.3-6.3l.1-22.4v-6.9a6.274 6.274 0 0 0-6.3-6.3L12.9 9z" opacity=".2"/></svg>