<svg id="flexible" xmlns="http://www.w3.org/2000/svg" viewBox="0 0 55 60"><style>.st0{fill:#5e5e5e}.st1{fill:#bcbcbc}.st2{fill:#f1f2f2}.st3{opacity:.2}</style><path class="st0" d="M6.6 18.2l-.1 26.4c0 3.5 2.8 6.3 6.3 6.3l29.3.1c3.5 0 6.3-2.8 6.3-6.3l.1-26.5H6.6z"/><path class="st1" d="M42.2 9.1L12.9 9c-3.5 0-6.3 2.8-6.3 6.3v3h41.9v-2.8c0-3.6-2.8-6.4-6.3-6.4z"/><title>icons-flexible</title><path class="st2" d="M18.6 27l-5.1 3.1v-1.5l3.6-2.1-3.6-1.9v-1.7l5.1 3.2v.9zM24.8 30.1v1h-5.1v-1h5.1z"/><path d="M12.9 9v3l29.3.1c.9 0 1.7.3 2.3 1 .6.6 1 1.4 1 2.3v6.9l-.1 22.4c0 1.8-1.5 3.3-3.3 3.3l-29.3-.1c-.9 0-1.7-.3-2.3-1-.6-.6-1-1.4-1-2.3l.1-21.7v-7.6c0-1.8 1.5-3.3 3.3-3.3V9m0 0c-3.5 0-6.3 2.8-6.3 6.3v4.6l-.1 24.7c0 3.5 2.8 6.3 6.3 6.3l29.3.1c3.5 0 6.3-2.8 6.3-6.3l.1-22.4v-6.9c0-3.5-2.8-6.3-6.3-6.3L12.9 9z" class="st3"/></svg>