<svg xmlns="http://www.w3.org/2000/svg" viewBox="0 0 42 51.5"><title>icons-performance</title><g opacity=".75"><path d="M21 45.1a2.958 2.958 0 0 1-1-.2L2.5 36.1A2.332 2.332 0 0 1 1.2 34V17.4a2.332 2.332 0 0 1 1.3-2.1L20 6.6a1.8 1.8 0 0 1 1-.2 2.96 2.96 0 0 1 1 .2l17.5 8.7a2.332 2.332 0 0 1 1.3 2.1v16.7a2.332 2.332 0 0 1-1.3 2.1L22 44.9a2.96 2.96 0 0 1-1 .2z" fill="#e6e6e6"/><path d="M21 7.4a.75.75 0 0 1 .5.1L39 16.2a1.1 1.1 0 0 1 .6 1v16.7a1.1 1.1 0 0 1-.6 1l-17.5 8.9a.9.9 0 0 1-.5.1.75.75 0 0 1-.5-.1L3 35.1a1.1 1.1 0 0 1-.6-1V17.4a1.1 1.1 0 0 1 .6-1l17.5-8.8a.764.764 0 0 1 .5-.2m0-2.3a3.167 3.167 0 0 0-1.6.4L1.9 14.2A3.433 3.433 0 0 0 0 17.3V34a3.625 3.625 0 0 0 1.9 3.1l17.5 8.7a4.193 4.193 0 0 0 1.6.4 2.934 2.934 0 0 0 1.6-.4l17.5-8.7A3.433 3.433 0 0 0 42 34V17.4a3.625 3.625 0 0 0-1.9-3.1L22.6 5.5a3.167 3.167 0 0 0-1.6-.4z" fill="#999"/><path d="M39.7 20v-2.6L21 26.7 2.3 17.4V20l17.5 8.7v6.1L2.3 26.1v2.6l17.5 8.8v6l.6.3a.9.9 0 0 0 .5.1.75.75 0 0 0 .5-.1l.6-.3v-6l17.5-8.8v-2.6L22 34.9v-6.1z" fill="#bbb"/></g><path d="M17.1 49.9a2.665 2.665 0 0 1-2-.9 2.145 2.145 0 0 1-.5-2l2.5-13.9H9a2.606 2.606 0 0 1-2.2-1.3 2.754 2.754 0 0 1 0-2.5L22.7 2.7a2.467 2.467 0 0 1 2.1-1.2 2.665 2.665 0 0 1 2 .9 2.145 2.145 0 0 1 .5 2l-2.5 13.9h8.1a2.606 2.606 0 0 1 2.2 1.3 2.754 2.754 0 0 1 0 2.5L19.3 48.7a2.748 2.748 0 0 1-2.2 1.2z" fill="#3fef58"/><path d="M24.9 3a1.01 1.01 0 0 1 1 1.2l-2.6 14.5a1.055 1.055 0 0 0 1 1.2H33a1 1 0 0 1 .9 1.5L18 47.9a1.02 1.02 0 0 1-.8.5 1.01 1.01 0 0 1-1-1.2l2.6-14.5a1.055 1.055 0 0 0-1-1.2H9.1a1 1 0 0 1-.9-1.5L24 3.5a.874.874 0 0 1 .9-.5m0-3a3.792 3.792 0 0 0-3.4 2L5.6 28.5a4 4 0 0 0 3.5 6h6.3l-2.2 12.2a4 4 0 0 0 3.9 4.8 3.792 3.792 0 0 0 3.4-2l15.8-26.6a4 4 0 0 0-3.5-6h-6.3l2.3-12.2a4.242 4.242 0 0 0-.8-3.3A4.1 4.1 0 0 0 24.9 0z" fill="#fff"/></svg>