<svg data-name="single color icons" xmlns="http://www.w3.org/2000/svg" viewBox="0 0 18 4.688"><title>icons-overflow</title><g fill="#fff"><path d="M2.344 1A1.344 1.344 0 1 1 1 2.344 1.345 1.345 0 0 1 2.344 1m0-1a2.344 2.344 0 1 0 2.344 2.344A2.344 2.344 0 0 0 2.344 0zM9 1a1.344 1.344 0 1 1-1.344 1.344A1.345 1.345 0 0 1 9 1m0-1a2.344 2.344 0 1 0 2.344 2.344A2.344 2.344 0 0 0 9 0zM15.656 1a1.344 1.344 0 1 1-1.343 1.344A1.345 1.345 0 0 1 15.657 1m0-1A2.344 2.344 0 1 0 18 2.344 2.344 2.344 0 0 0 15.656 0z"/></g></svg>