<svg id="open" xmlns="http://www.w3.org/2000/svg" viewBox="0 0 55 60"><style>.st0{fill:#e6e6e6}.st1{fill:#999}.st2{fill:#394d54;stroke:#394d54;stroke-width:1.963;stroke-miterlimit:10}.st3{fill:#00aada}.st4{fill:#24b8eb}.st5{fill:#008bb8}.st6{fill:#039bc6}.st7{fill:#00acd3}.st8{fill:#20c2ef}.st9{fill:#d4edf1}.st10{fill:#394d54}.st11{fill:#bfdbe0}</style><title>icons-open</title><path class="st0" d="M22.1 31.9h-.2L19 30.3c-.1-.1-.2-.2-.2-.4v-3.1c0-.2.1-.3.2-.4l2.9-1.6h.3l2.9 1.6c.1.1.2.2.2.4v3.1c0 .2-.1.3-.2.4l-2.9 1.6h-.1z"/><path class="st1" d="M22.1 24.9l3 1.6c.1 0 .1.1.1.2v3.1c0 .1 0 .2-.1.2l-2.9 1.6.2.4-.3-.4-2.9-1.6c-.1 0-.1-.1-.1-.2v-3.1c0-.1 0-.2.1-.2l2.9-1.6m0-.4c-.1 0-.2 0-.3.1L19 26.2c-.2.1-.3.3-.3.6v3.1c0 .2.1.5.3.6l2.9 1.6c.2.1.4.1.5 0l2.9-1.6c.2-.1.3-.3.3-.6v-3.1c0-.2-.1-.5-.3-.6l-2.9-1.6c-.1-.1-.2-.1-.3-.1z"/><path id="outline" class="st2" d="M28.5 23.7h5.4v5.5h2.7c1.3 0 2.5-.2 3.8-.6.6-.2 1.2-.5 1.8-.8-.7-1-1.2-2.2-1.3-3.5-.2-1.8.2-3.7 1.3-5.2l.6-.7.7.5c1.8 1.3 3 3.3 3.4 5.5 2.1-.6 4.3-.4 6.3.6l.8.4-.4.8c-1.5 3-4.7 3.9-7.9 3.8C41 41.7 30.8 47.2 18.4 47.2c-6.4 0-12.3-2.4-15.6-8.1V39l-.5-1c-1.1-2.5-1.5-5.2-1.2-8l.1-.8h4.6v-5.5h5.4v-5.4H22v-5.4h6.5v10.8z"/><g id="body_colors"><path class="st3" d="M46.1 25.7c.1-2.4-1.1-4.7-3.1-6.1-1.5 1.7-1.7 6.3.6 8.2-2 1.5-4.5 2.3-7 2.2H2c-.3 2.8.2 5.6 1.4 8.1l.4.7c.3.4.5.8.8 1.2 1.4.1 2.7.1 3.9.1 1.9 0 3.9-.3 5.8-.8.2-.1.5 0 .5.3.1.2 0 .5-.3.5-.2.1-.4.1-.6.2-1.3.4-2.6.6-4 .6H7.6c-.8 0-1.5 0-2.3-.1 3.4 3.5 8.2 5.4 13.1 5.2 12 0 22.2-5.3 26.7-17.2 3.2.3 6.3-.5 7.7-3.2-2.1-.9-4.6-.9-6.7.1z"/><path class="st4" d="M46.1 25.7c.1-2.4-1.1-4.7-3.1-6.1-1.5 1.7-1.7 6.3.6 8.2-2 1.5-4.5 2.3-7 2.2H4c-.4 3.9 1.4 7.8 4.5 10.1 1.9 0 3.9-.3 5.8-.8.2-.1.5 0 .5.3.1.2 0 .5-.3.5-.2.1-.4.1-.6.2-1.3.4-2.7.6-4.1.7 4.1 2.1 10 2.1 16.8-.5 7.7-3.1 14.5-8.3 19.6-14.9 0 .1-.1.1-.1.1z"/><path class="st5" d="M2.1 33.7c.2 1.5.7 3.1 1.4 4.4l.4.7c.3.4.5.8.8 1.2 1.4.1 2.7.1 3.9.1 1.9 0 3.9-.3 5.8-.8.2-.1.5 0 .5.3.1.2 0 .5-.3.5-.2.1-.4.1-.6.2-1.3.4-2.7.6-4.1.7h-.2c-.6 0-1.3.1-2 .1-.8 0-1.5 0-2.4-.1 3.4 3.5 8.2 5.4 13.1 5.2 10.3 0 19.2-3.9 24.4-12.5H2.1z"/><path class="st6" d="M4.3 33.7c.5 2.6 2 5 4.2 6.5 1.9 0 3.9-.3 5.8-.8.2-.1.5 0 .5.3.1.2 0 .5-.3.5-.2.1-.4.1-.6.2-1.3.4-2.7.6-4.1.7 4.1 2.1 10 2.1 16.8-.5 4.2-1.6 8.1-3.9 11.6-6.8l-33.9-.1z"/></g><g id="Containers"><path class="st7" d="M6.7 24.6h4.7v4.7H6.7v-4.7zM12.1 19.2h4.7v4.7h-4.7v-4.7z"/><path class="st8" d="M12.1 24.6h4.7v4.7h-4.7v-4.7z"/><path class="st7" d="M17.5 24.6h4.7v4.7h-4.7v-4.7z"/><path class="st8" d="M17.5 19.2h4.7v4.7h-4.7v-4.7zM22.9 24.6h4.7v4.7h-4.7v-4.7z"/><path class="st7" d="M22.9 19.2h4.7v4.7h-4.7v-4.7z"/><path class="st8" d="M22.9 13.8h4.7v4.7h-4.7v-4.7z"/><path class="st7" d="M28.4 24.6H33v4.7h-4.7v-4.7z"/></g><path class="st9" d="M16.5 36.9c.7 0 1.3.6 1.3 1.3s-.6 1.3-1.3 1.3c-.7 0-1.3-.6-1.3-1.3 0-.7.6-1.3 1.3-1.3"/><path class="st10" d="M16.5 37.3c.1 0 .2 0 .3.1-.2.1-.2.3-.1.5s.3.2.5.1c.1 0 .1-.1.1-.2.2.5 0 1-.5 1.2-.5.2-1 0-1.2-.5-.2-.5 0-1 .5-1.2.2 0 .3-.1.4 0"/><path class="st11" d="M19.9 46.2c-2.6-1.1-4.8-3.2-5.9-5.8-1.4.4-2.8.6-4.3.7-.6 0-1.3.1-2 .1-.8 0-1.6 0-2.5-.1 3.4 3.6 8.3 5.5 13.3 5.2.5-.1 1-.1 1.4-.1z"/><path class="st9" d="M15.2 42.4c-.5-.6-.9-1.3-1.2-2.1-1.4.4-2.8.6-4.3.7 1.7.9 3.6 1.4 5.5 1.4z"/></svg>