<svg width="334" height="334" viewBox="0 0 334 334" xmlns="http://www.w3.org/2000/svg"><title>loccc</title><g fill="none" fill-rule="evenodd"><path d="M171.892 162.108l.106-.106-.106.106zM168.57 174.8zm-.058-6.222c-.007.012-.018.02-.025.032.04-.062.072-.128.105-.194-.012.024-.017.052-.03.076-.016.03-.033.058-.05.086zm-1.923-3.417l.05.002c.025 0 .05.01.074.01-.042 0-.082-.01-.125-.01zm.05 4.5a.803.803 0 0 1-.05 0c.042 0 .08-.01.123-.012-.025.002-.048.01-.074.01zm-.175-4.487c.025 0 .048-.01.074-.01l.05-.002c-.044 0-.083.01-.125.013zm.074 4.486c-.026 0-.05-.01-.074-.012.04.003.08.013.122.013h-.05zm-1.738 5.178zm-.215-8.433c.012-.024.017-.052.03-.075.016-.03.032-.06.05-.087.007-.012.017-.02.025-.03-.04.06-.072.126-.105.192zm.08 2.173c-.018-.028-.034-.057-.05-.086-.013-.024-.018-.05-.03-.075.033.065.065.13.104.192-.006-.012-.016-.02-.023-.032zm3.925-2.173c-.033-.066-.066-.132-.105-.194.007.013.018.02.025.033l.05.086c.013.023.018.05.03.075zm.247 1.003v.006-.004zm.97 1.92zm-7.02-11.652v-.266a3.804 3.804 0 0 1 3.75-3.798h.1a3.803 3.803 0 0 1 3.75 3.8v1.838a8.97 8.97 0 0 0-3.75-.84h-.1a8.978 8.978 0 0 0-3.75.84v-1.574zm-1.61 15.143zm13.23-9.867l-.05-.086a9.017 9.017 0 0 0-1.57-1.98V157.41a6.177 6.177 0 0 0-1.843-4.404 6.175 6.175 0 0 0-4.308-1.794h-.1a6.178 6.178 0 0 0-4.306 1.79 6.182 6.182 0 0 0-1.845 4.408v3.477a9.077 9.077 0 0 0-1.57 1.98l-.05.086a8.97 8.97 0 0 0-1.18 4.458 8.955 8.955 0 0 0 1.23 4.544 8.996 8.996 0 0 0 7.72 4.456h.1a8.994 8.994 0 0 0 8.95-9 8.96 8.96 0 0 0-1.18-4.457z" fill="#BCD2F3"/><path d="M168.512 168.58a2.25 2.25 0 0 1-1.873 1.08h-.1a2.25 2.25 0 1 1 0-4.497l.05-.002.05.003a2.247 2.247 0 0 1 1.872 3.416m1.348-3a3.748 3.748 0 0 0-3.27-1.92c-.017 0-.034.002-.05.003a3.75 3.75 0 0 0-3.172 1.83l-.05.087a3.734 3.734 0 0 0 0 3.662l.05.087a3.752 3.752 0 0 0 3.17 1.83h.1a3.754 3.754 0 0 0 3.7-3.75c0-.663-.173-1.288-.478-1.83" fill="#9F719F"/><g fill="#51395D"><path d="M166.59 156.96a10.407 10.407 0 0 1 3.8.715V157.57c-1.166-.452-2.43-.702-3.75-.708v-3.25h-.1v3.25c-1.322.006-2.586.256-3.75.707V157.675a10.407 10.407 0 0 1 3.75-.714h.05M177.162 156.838l.07-.07a15.037 15.037 0 0 0-6.285-3.762c.05.05.1.1.147.152a14.93 14.93 0 0 1 6.068 3.68"/><path d="M291.343 95.326c-.1-.17-.197-.343-.296-.513a143.334 143.334 0 0 0-22.585-29.275 144.777 144.777 0 0 0-64.585-37.288l-.026.097a144.67 144.67 0 0 1 64.54 37.262 143.232 143.232 0 0 1 22.57 29.253c.1.17.198.342.297.513l-16.853 9.73-2.285-.612.083.114c.305.42.587.85.84 1.283l-15.482 8.94c-.07-.12-.138-.242-.21-.362a104.506 104.506 0 0 0-16.47-21.35 105.585 105.585 0 0 0-47.098-27.192 104.523 104.523 0 0 0-26.724-3.59h-.42V44.434h.5a122.318 122.318 0 0 1 31.277 4.2A123.578 123.578 0 0 1 253.54 80.46l.07-.07a123.676 123.676 0 0 0-55.17-31.853 122.424 122.424 0 0 0-31.302-4.204h-.5V23.46c.5.002 1.015.028 1.53.082l.14.015-1.67-1.67V.924h.694c14.275.056 28.52 1.97 42.343 5.687a167.284 167.284 0 0 1 74.628 43.087A165.57 165.57 0 0 1 310.4 83.524c.117.2.23.4.347.6l-19.404 11.202zm-18.977 9.337l1.915.513.07.02-.018.067-.513 1.912c-.197-.432-.413-.85-.64-1.247-.01-.014-.016-.03-.025-.044l-.025-.043a15.324 15.324 0 0 0-.764-1.177zm33.268 25.49a144.274 144.274 0 0 1 4.938 37.9 143.247 143.247 0 0 1-4.92 36.62 144.512 144.512 0 0 1-14.378 34.666l-18.1-10.45a123.538 123.538 0 0 0 12.288-29.627 122.427 122.427 0 0 0 4.205-31.304 123.31 123.31 0 0 0-4.22-32.397l-.097.026a123.243 123.243 0 0 1 4.217 32.37 122.368 122.368 0 0 1-4.2 31.277 123.42 123.42 0 0 1-12.28 29.603l-14.222-8.21-.612-2.286-.057.13c-.21.474-.443.934-.692 1.37l-14.206-8.204a88.91 88.91 0 0 0 8.835-21.308 88.1 88.1 0 0 0 3.026-22.527 88.764 88.764 0 0 0-3.038-23.313 88.78 88.78 0 0 0-8.804-21.323l14.206-8.203a105.213 105.213 0 0 1 10.44 25.28 105.2 105.2 0 0 1 3.6 27.632c-.037 9-1.243 17.982-3.587 26.697l.096.026a104.512 104.512 0 0 0 3.59-26.724 105.343 105.343 0 0 0-3.603-27.658 105.307 105.307 0 0 0-10.45-25.305l15.483-8.94c.25.434.482.893.692 1.367l.058.13.61-2.282 16.854-9.73a144.32 144.32 0 0 1 14.327 34.692zM257.54 219.98l.027-.043.024-.044c.23-.4.444-.818.64-1.25l.513 1.915.018.068-.067.018-1.912.513c.277-.386.532-.782.76-1.177zm-4 34.38a122.337 122.337 0 0 1-24.987 19.278 123.216 123.216 0 0 1-30.142 12.533 123.35 123.35 0 0 1-31.77 4.218v-17.903c9.118-.01 18.246-1.222 27.138-3.604a105.303 105.303 0 0 0 25.754-10.707 104.565 104.565 0 0 0 21.35-16.47l-.072-.07a104.406 104.406 0 0 1-21.33 16.453 105.14 105.14 0 0 1-25.728 10.698 105.202 105.202 0 0 1-27.113 3.6V257.43l1.67-1.67-.142.014c-.515.055-1.03.084-1.53.084v-14.88a73.725 73.725 0 0 0 18.987-2.524 73.694 73.694 0 0 0 18.03-7.497 73.136 73.136 0 0 0 14.95-11.532 73.88 73.88 0 0 0 11.653-15.198l12.903 7.45a88.81 88.81 0 0 1-14.02 18.286 88.037 88.037 0 0 1-17.974 13.868 88.68 88.68 0 0 1-21.684 9.017l.026.096a88.742 88.742 0 0 0 21.708-9.026 88.112 88.112 0 0 0 17.996-13.883 88.952 88.952 0 0 0 14.036-18.307l14.207 8.203a15.1 15.1 0 0 1-.837 1.282l-.083.114 2.28-.61 14.223 8.21a123.444 123.444 0 0 1-19.498 25.435zm-86.95 2.978l-.05-.05-1.403-1.402c.472.046.943.07 1.402.072h.099c.457 0 .927-.024 1.4-.07l-1.4 1.4-.05.05zm1.45 54.05l-1.4 1.4-.05.05-.05-.05-1.403-1.402c.472.046.943.07 1.402.072h.1c.455-.003.927-.024 1.4-.07zm-1.5 22.51h-.694a165.59 165.59 0 0 1-42.343-5.687 167.29 167.29 0 0 1-74.628-43.085 165.604 165.604 0 0 1-26.097-33.828c-.117-.2-.23-.4-.346-.6l19.403-11.202c.1.17.196.343.296.513a143.306 143.306 0 0 0 22.586 29.275A144.777 144.777 0 0 0 129.3 306.57l.027-.095a144.676 144.676 0 0 1-64.54-37.263 143.232 143.232 0 0 1-22.57-29.254c-.1-.17-.197-.342-.296-.513l16.858-9.732 1.978.53a122.456 122.456 0 0 0 18.812 24.19 123.676 123.676 0 0 0 55.17 31.85l.025-.096a123.573 123.573 0 0 1-55.125-31.826 122.33 122.33 0 0 1-18.743-24.08l.163.044-.083-.114c-.305-.42-.586-.85-.837-1.283l15.48-8.936c.07.12.138.243.21.363a104.506 104.506 0 0 0 16.47 21.35 105.58 105.58 0 0 0 47.098 27.192 104.523 104.523 0 0 0 26.724 3.59h.42v17.903h-.5a122.318 122.318 0 0 1-31.277-4.2l-.026.096a122.424 122.424 0 0 0 31.783 4.205h.02v20.868a15.08 15.08 0 0 1-1.533-.086l-.14-.016 1.672 1.673v20.968zM27.543 204.668a144.287 144.287 0 0 1-4.938-37.9 143.247 143.247 0 0 1 4.92-36.62 144.495 144.495 0 0 1 14.378-34.666l18.1 10.45a123.498 123.498 0 0 0-12.288 29.626 122.427 122.427 0 0 0-4.205 31.304 123.31 123.31 0 0 0 4.222 32.396 123.43 123.43 0 0 0 11.526 28.388l-.53 1.98-16.856 9.732a144.27 144.27 0 0 1-14.328-34.69zm33.268 25.487l-.128-.035-1.784-.478-.068-.018.018-.068.48-1.786.034-.13c.195.432.41.852.638 1.25l.024.045c.01.014.017.028.026.042.23.396.485.792.76 1.178zM60.09 105.98l14.226 8.214.61 2.28.06-.128c.21-.474.442-.932.69-1.366l14.204 8.2a88.934 88.934 0 0 0-8.835 21.31 88.1 88.1 0 0 0-3.026 22.526 88.764 88.764 0 0 0 3.036 23.313 88.82 88.82 0 0 0 8.804 21.322l-14.206 8.202a105.213 105.213 0 0 1-10.44-25.28 105.242 105.242 0 0 1-3.6-27.632c.037-9 1.243-17.983 3.587-26.698l-.095-.026a104.512 104.512 0 0 0-3.59 26.724A105.26 105.26 0 0 0 65.12 194.6a105.302 105.302 0 0 0 10.447 25.304L60.09 228.84c-.25-.435-.483-.895-.693-1.37l-.057-.128-.044.165a123.366 123.366 0 0 1-11.468-28.275 123.243 123.243 0 0 1-4.217-32.37 122.362 122.362 0 0 1 4.202-31.278A123.42 123.42 0 0 1 60.09 105.98zm15.55 8.864l-.025.043c-.008.014-.016.03-.025.043-.228.397-.443.816-.64 1.247l-.51-1.912-.02-.068.07-.018 1.914-.515a15.34 15.34 0 0 0-.764 1.18zm3.998-34.384a122.337 122.337 0 0 1 24.987-19.277 123.216 123.216 0 0 1 30.142-12.533 123.187 123.187 0 0 1 31.772-4.217v17.904c-9.123.01-18.248 1.22-27.14 3.603a105.342 105.342 0 0 0-25.754 10.708 104.565 104.565 0 0 0-21.35 16.47l.072.072a104.376 104.376 0 0 1 21.33-16.455 105.14 105.14 0 0 1 25.728-10.698 105.17 105.17 0 0 1 27.113-3.6v14.95l-1.674 1.673.14-.015a15.08 15.08 0 0 1 1.533-.086v14.886a73.69 73.69 0 0 0-18.987 2.52 73.7 73.7 0 0 0-18.032 7.498 73.157 73.157 0 0 0-14.946 11.532 73.807 73.807 0 0 0-11.653 15.198l-12.903-7.45a88.81 88.81 0 0 1 14.02-18.286 87.997 87.997 0 0 1 17.975-13.867 88.634 88.634 0 0 1 21.685-9.016l-.026-.096a88.733 88.733 0 0 0-21.708 9.026 88.08 88.08 0 0 0-17.996 13.884 88.92 88.92 0 0 0-14.036 18.306l-14.203-8.2c.253-.433.535-.865.84-1.284l.084-.114-2.284.612-14.226-8.214A123.43 123.43 0 0 1 79.638 80.46zm86.95-2.98l.05.05 1.4 1.4a15.204 15.204 0 0 0-1.4-.07l-.05-.002h-.05c-.458.003-.93.027-1.4.073l1.4-1.4.05-.05zm76.507 45.304a88.112 88.112 0 0 0-13.883-17.996 88.996 88.996 0 0 0-39.7-22.922l-.027.097a88.892 88.892 0 0 1 39.656 22.895 88.008 88.008 0 0 1 13.87 17.976l.17.298-11.644 6.724-2.285-.612.084.114c.306.42.588.85.84 1.283l-11.6 6.7a59.697 59.697 0 0 0-9.517-12.397 60.35 60.35 0 0 0-26.924-15.544 59.72 59.72 0 0 0-15.494-2.044v-13.41c.092 0 .184-.003.277-.002 6.3.025 12.586.87 18.685 2.51a73.836 73.836 0 0 1 32.93 19.012l.072-.07a73.924 73.924 0 0 0-32.976-19.04 73.182 73.182 0 0 0-18.71-2.512h-.28V78.96c.5 0 1.015.028 1.53.082l.14.015-1.67-1.67v-14.95h.42c9 .035 17.983 1.242 26.698 3.586A105.468 105.468 0 0 1 240.81 93.19a104.432 104.432 0 0 1 16.455 21.328l.21.362-14.207 8.202-.173-.298zm-13.597 6.63l1.915.512.07.02-.02.067-.512 1.912a15.347 15.347 0 0 0-.69-1.333c-.23-.398-.486-.793-.762-1.18zM218.57 197.48l.026-.043.024-.044c.228-.4.442-.818.64-1.25l.512 1.915.018.068-.068.018-1.912.513c.275-.386.53-.78.76-1.177zm-51.93 29.985a60.225 60.225 0 0 0 15.49-2.05c10.198-2.733 19.51-8.105 26.927-15.537l-.07-.07c-7.406 7.42-16.702 12.782-26.882 15.51a60.15 60.15 0 0 1-15.466 2.047V216.93l1.67-1.67-.142.014a14.73 14.73 0 0 1-1.53.084v-10.395c3.25-.006 6.502-.433 9.67-1.282a37.546 37.546 0 0 0 16.837-9.714 37.717 37.717 0 0 0 5.937-7.738l9.006 5.2a48.106 48.106 0 0 1-7.59 9.893 47.932 47.932 0 0 1-21.5 12.407l.027.096a48.027 48.027 0 0 0 21.545-12.43 48.274 48.274 0 0 0 7.605-9.915l10.308 5.952c-.25.432-.532.863-.836 1.282l-.083.114 2.28-.61 10.327 5.96a73.71 73.71 0 0 1-11.637 15.18 73.093 73.093 0 0 1-14.927 11.515 73.67 73.67 0 0 1-18.007 7.488 73.66 73.66 0 0 1-18.96 2.52v-13.413zm-1.503-12.08c.472.047.943.07 1.402.073h.1c.455-.002.927-.024 1.4-.07l-1.4 1.4-.05.05-.05-.05-1.403-1.402zm-14.066 9.94a60.26 60.26 0 0 1-26.878-15.518 59.583 59.583 0 0 1-9.5-12.376l10.306-5.95a47.81 47.81 0 0 0 7.61 9.912 48.307 48.307 0 0 0 21.543 12.438l.027-.097a48.196 48.196 0 0 1-21.498-12.412 47.67 47.67 0 0 1-7.595-9.89l7.715-4.454a1.548 1.548 0 0 0 2.68-1.548l6.407-3.698a28.41 28.41 0 0 0 4.51 5.87 28.7 28.7 0 0 0 12.802 7.392c2.396.644 4.866.968 7.34.97v8.9a37.196 37.196 0 0 1-9.645-1.273 37.626 37.626 0 0 1-16.79-9.695l-.07.07a37.73 37.73 0 0 0 16.834 9.72c3.158.85 6.41 1.276 9.67 1.278v10.395a15.08 15.08 0 0 1-1.533-.086l-.14-.016 1.672 1.673v10.435a59.6 59.6 0 0 1-15.47-2.04zm-47.39-19.92l-1.912-.513-.068-.018.018-.068.514-1.916c.196.432.41.852.638 1.25l.025.045.025.042c.23.396.485.792.76 1.178zm10.932-68.06a.613.613 0 0 0-.026.042l-.024.043c-.23.397-.443.816-.64 1.247l-.512-1.912-.02-.068.07-.018 1.915-.515c-.276.386-.532.782-.763 1.18zm51.927-29.99a60.225 60.225 0 0 0-15.493 2.052c-10.197 2.732-19.508 8.104-26.926 15.536l.072.07c7.405-7.42 16.7-12.782 26.88-15.51a60.15 60.15 0 0 1 15.467-2.047v10.432l-1.674 1.672.14-.015a15.08 15.08 0 0 1 1.533-.086v10.398c-3.25.006-6.502.433-9.67 1.282a37.546 37.546 0 0 0-16.837 9.715 37.752 37.752 0 0 0-5.937 7.738l-9.006-5.2a48.106 48.106 0 0 1 7.59-9.893 47.932 47.932 0 0 1 21.5-12.406l-.027-.096a48.02 48.02 0 0 0-21.545 12.432 48.24 48.24 0 0 0-7.605 9.913l-10.305-5.95c.253-.432.535-.864.84-1.283l.084-.114-2.285.612-10.33-5.964a73.71 73.71 0 0 1 11.638-15.178 73.128 73.128 0 0 1 14.927-11.516 73.67 73.67 0 0 1 18.007-7.487 73.635 73.635 0 0 1 18.96-2.518v13.41zm1.5 12.074a14.53 14.53 0 0 0-1.4-.07l-.05-.002h-.05c-.46.003-.93.027-1.403.073l1.402-1.4.05-.05.05.05 1.4 1.4zm32.53 14a48.307 48.307 0 0 0-21.543-12.44l-.026.098a48.196 48.196 0 0 1 21.5 12.412 47.67 47.67 0 0 1 7.593 9.89l-7.71 4.453a1.548 1.548 0 0 0-2.682 1.547l-6.41 3.7a28.41 28.41 0 0 0-4.51-5.87 28.69 28.69 0 0 0-12.8-7.39 28.39 28.39 0 0 0-7.34-.972v-8.9c3.248.002 6.493.426 9.643 1.274a37.635 37.635 0 0 1 16.79 9.694l.072-.07a37.747 37.747 0 0 0-16.836-9.72 37.31 37.31 0 0 0-9.67-1.278v-10.4c.497.003 1.013.03 1.528.084l.14.015-1.67-1.67v-10.43a59.6 59.6 0 0 1 15.47 2.038 60.26 60.26 0 0 1 26.878 15.52 59.583 59.583 0 0 1 9.5 12.375l-10.306 5.95a47.776 47.776 0 0 0-7.61-9.91zm-2.953 15.23a1.447 1.447 0 0 1 2.73-.68 1.452 1.452 0 0 1-1.28 2.13 1.45 1.45 0 0 1-1.23-.684c-.016-.028-.034-.056-.05-.086a1.447 1.447 0 0 1-.17-.68zm-6.327 33.07l.026-.043.024-.044c.228-.4.443-.818.64-1.25l.512 1.915.018.068-.068.018-1.912.513c.275-.386.53-.78.76-1.177zm-24.65 14.232a28.64 28.64 0 0 0 7.338-.974 28.54 28.54 0 0 0 12.802-7.387l-.07-.07a28.43 28.43 0 0 1-12.758 7.36 28.482 28.482 0 0 1-7.313.972v-5.906a1.55 1.55 0 0 0 1.5-1.547c0-.84-.67-1.522-1.5-1.55v-4.4a14.943 14.943 0 0 0 3.845-.51 15.12 15.12 0 0 0 6.747-3.896c.92-.92 1.715-1.954 2.366-3.075l5.108 2.948a21.02 21.02 0 0 1-3.3 4.298 20.947 20.947 0 0 1-9.395 5.42l.027.097a21.047 21.047 0 0 0 9.44-5.446 21.147 21.147 0 0 0 3.315-4.32l6.412 3.703c-.252.432-.533.863-.837 1.282l-.083.114 2.28-.61 6.43 3.712a37.576 37.576 0 0 1-5.92 7.717 37.434 37.434 0 0 1-16.792 9.69 37.514 37.514 0 0 1-9.643 1.278v-8.9zm-1.5-7.553c0-.784.623-1.422 1.4-1.45l.05-.002.05.003a1.45 1.45 0 0 1 1.4 1.45 1.45 1.45 0 0 1-1.4 1.446l-.05.002c-.018 0-.034 0-.05-.002a1.45 1.45 0 0 1-1.4-1.447zm-16.757-10.43a20.967 20.967 0 0 0 3.32 4.317 21.154 21.154 0 0 0 9.437 5.45l.026-.098a21.042 21.042 0 0 1-9.393-5.424 20.826 20.826 0 0 1-3.303-4.297l3.838-2.217 2.28.61-.082-.113c-.305-.42-.586-.85-.837-1.283l3.81-2.2c1.825 3.115 5.2 5.215 9.06 5.233v4.4a14.946 14.946 0 0 1-10.523-4.378l-.07.072a15.05 15.05 0 0 0 10.592 4.407v4.4c-.832.028-1.5.71-1.5 1.55 0 .836.668 1.52 1.5 1.546v5.907a28.324 28.324 0 0 1-7.315-.968 28.59 28.59 0 0 1-12.756-7.365 28.243 28.243 0 0 1-4.496-5.85l6.41-3.7zm-6.492-24.886l-.024.043c-.008.014-.016.03-.025.043-.227.397-.44.816-.638 1.247l-.512-1.912-.02-.068.07-.018 1.915-.515a15.34 15.34 0 0 0-.764 1.18zm12.453 23.06l-1.912-.512-.067-.018.018-.068.514-1.916a14.97 14.97 0 0 0 1.45 2.515zm-1.415-2.683l-.057-.128-.61 2.285-3.84 2.216a20.977 20.977 0 0 1-2.07-15.855 21.003 21.003 0 0 1 2.072-5.008l5.108 2.95a15.05 15.05 0 0 0-1.478 3.585 15.036 15.036 0 0 0-.002 7.79l.096-.025a14.956 14.956 0 0 1 1.47-11.3l3.813 2.2a10.485 10.485 0 0 0-1.39 5.23c0 1.903.505 3.688 1.39 5.23l-3.81 2.2c-.25-.434-.482-.894-.692-1.37zm25.907-14.807l1.916.514.07.018-.02.068-.512 1.912c-.196-.432-.41-.85-.64-1.247-.007-.014-.015-.03-.024-.044l-.025-.043a15.324 15.324 0 0 0-.765-1.177zm.677 16.266a14.9 14.9 0 0 1-2.35 3.053 15.028 15.028 0 0 1-6.703 3.87 14.83 14.83 0 0 1-3.82.508v-4.4c3.858-.018 7.233-2.118 9.058-5.233l3.814 2.202zm1.518-3.65a15.032 15.032 0 0 1-1.468 3.562l-3.813-2.2a10.49 10.49 0 0 0 1.39-5.232c0-1.902-.507-3.688-1.39-5.23l3.812-2.202c.25.433.482.892.693 1.366l.057.13.61-2.282 3.836-2.214a21.018 21.018 0 0 1 2.067 5.01c.953 3.558.954 7.308.003 10.845a21.044 21.044 0 0 1-2.072 5.008l-5.108-2.948a15.034 15.034 0 0 0 1.478-3.586c.685-2.556.686-5.25.002-7.79l-.096.025c.68 2.525.678 5.2-.002 7.74zm-14.44-26.322l.05.003a1.45 1.45 0 0 1 1.4 1.45 1.45 1.45 0 0 1-1.4 1.446l-.05.002c-.018 0-.034 0-.05-.002a1.45 1.45 0 0 1-1.4-1.447c0-.784.623-1.422 1.4-1.45l.05-.002zm-.05-6.1c-2.467.006-4.936.33-7.34.975a28.546 28.546 0 0 0-12.802 7.387l.07.07a28.434 28.434 0 0 1 12.758-7.36 28.482 28.482 0 0 1 7.313-.97v5.9c-.832.028-1.5.71-1.5 1.55 0 .836.668 1.52 1.5 1.546v3.256h.1v-3.256a1.55 1.55 0 0 0 1.5-1.547c0-.84-.67-1.522-1.5-1.55v-5.902c2.463.003 4.924.326 7.313.968a28.59 28.59 0 0 1 12.756 7.365 28.243 28.243 0 0 1 4.494 5.85l-6.41 3.702a20.932 20.932 0 0 0-3.318-4.318 21.154 21.154 0 0 0-9.438-5.45l-.026.098a21.052 21.052 0 0 1 9.393 5.423 20.8 20.8 0 0 1 3.303 4.297l-3.835 2.214-2.285-.612.084.114c.305.42.588.85.84 1.283l-3.814 2.204a10.625 10.625 0 0 0-2.91-3.214v.124a10.52 10.52 0 0 1 2.874 3.226 10.384 10.384 0 0 1 1.377 5.18c0 1.884-.502 3.653-1.378 5.18l-.05.087c-1.808 3.085-5.15 5.165-8.973 5.183h-.1a10.453 10.453 0 0 1-8.973-5.183l-.05-.086a10.385 10.385 0 0 1-1.378-5.18 10.384 10.384 0 0 1 1.427-5.266 10.52 10.52 0 0 1 2.822-3.14v-.124a10.625 10.625 0 0 0-2.91 3.214l-3.814-2.202a14.9 14.9 0 0 1 2.35-3.054 15.03 15.03 0 0 1 6.07-3.683c.05-.05.097-.102.148-.152a15.133 15.133 0 0 0-6.288 3.764c-.92.92-1.715 1.955-2.366 3.075l-5.108-2.95a21.02 21.02 0 0 1 3.3-4.297 20.947 20.947 0 0 1 9.395-5.42l-.026-.097a21.042 21.042 0 0 0-9.438 5.446 21.147 21.147 0 0 0-3.316 4.32l-6.408-3.7c.253-.433.535-.865.84-1.284l.084-.114-2.285.612-6.434-3.715a37.61 37.61 0 0 1 5.92-7.717 37.434 37.434 0 0 1 16.793-9.69 37.514 37.514 0 0 1 9.643-1.278v8.9zm-30.975 47.3a1.45 1.45 0 0 1-2.68.767c-.016-.027-.034-.055-.05-.085a1.45 1.45 0 0 1 1.28-2.13 1.446 1.446 0 0 1 1.28.77c.108.202.17.433.17.68zm3.443-26.138a28.536 28.536 0 0 0 .004 14.78 28.607 28.607 0 0 0 2.825 6.843l-6.407 3.7a1.548 1.548 0 0 0-2.68 1.547l-7.715 4.454a48.102 48.102 0 0 1-4.762-11.523 47.926 47.926 0 0 1-.006-24.822 48.097 48.097 0 0 1 4.773-11.518l9.006 5.2a37.682 37.682 0 0 0-3.732 9.01 37.52 37.52 0 0 0 .005 19.44l.095-.027a37.433 37.433 0 0 1-.005-19.387 37.576 37.576 0 0 1 3.723-8.986l6.434 3.714.61 2.28.06-.128c.21-.474.442-.933.69-1.366l6.41 3.7a21.073 21.073 0 0 0-2.083 5.03 21.053 21.053 0 0 0 2.08 15.933l-6.41 3.7a28.51 28.51 0 0 1-2.816-6.82 28.445 28.445 0 0 1-.003-14.727l-.097-.026zm63.76 17.085a37.576 37.576 0 0 1-3.723 8.986l-6.43-3.71-.613-2.286-.057.13c-.21.474-.443.934-.69 1.37l-6.412-3.703a21.146 21.146 0 0 0 2.082-5.03 21.04 21.04 0 0 0-.003-10.898 21.098 21.098 0 0 0-2.078-5.034l6.41-3.7a28.51 28.51 0 0 1 2.816 6.82 28.445 28.445 0 0 1 .003 14.727l.097.026a28.536 28.536 0 0 0-.004-14.78 28.607 28.607 0 0 0-2.825-6.842l6.412-3.702a1.548 1.548 0 0 0 2.68-1.548l7.71-4.45A48.102 48.102 0 0 1 212.906 155a47.937 47.937 0 0 1 .007 24.823 48.18 48.18 0 0 1-4.774 11.518l-9.006-5.2a37.682 37.682 0 0 0 3.732-9.01 37.53 37.53 0 0 0-.004-19.438l-.097.026a37.433 37.433 0 0 1 .005 19.387zM93.122 167.083c.025-6.3.87-12.586 2.51-18.685a73.743 73.743 0 0 1 7.325-17.668l10.33 5.964.61 2.28.06-.128c.21-.474.442-.932.69-1.366l10.306 5.95a48.24 48.24 0 0 0-4.783 11.542 48.04 48.04 0 0 0 .006 24.875 48.26 48.26 0 0 0 4.772 11.547l-10.306 5.95a60.103 60.103 0 0 1-5.96-14.417c-2.728-10.18-2.73-20.912-.008-31.035l-.097-.026c-2.727 10.14-2.724 20.89.008 31.087a60.204 60.204 0 0 0 5.97 14.44l-11.598 6.698c-.25-.435-.482-.895-.69-1.37l-.06-.128-.61 2.285-11.65 6.725a88.62 88.62 0 0 1-8.794-21.3 88.65 88.65 0 0 1-3.034-23.286 88.035 88.035 0 0 1 3.02-22.5 88.754 88.754 0 0 1 8.827-21.285l12.904 7.45a73.83 73.83 0 0 0-7.335 17.692 73.213 73.213 0 0 0-2.513 18.71 73.743 73.743 0 0 0 2.523 19.365l.097-.026a73.623 73.623 0 0 1-2.52-19.337zm54.428 71.38a73.182 73.182 0 0 0 18.99 2.515v14.88a15.08 15.08 0 0 1-1.533-.086l-.14-.016 1.672 1.673v14.955h-.42a104.41 104.41 0 0 1-26.698-3.587 105.468 105.468 0 0 1-47.054-27.167 104.397 104.397 0 0 1-16.455-21.327l-.21-.362 14.207-8.2.173.298a88.105 88.105 0 0 0 13.883 17.995 88.996 88.996 0 0 0 39.7 22.922l.027-.097a88.892 88.892 0 0 1-39.656-22.895 88.016 88.016 0 0 1-13.868-17.976c-.06-.1-.116-.2-.173-.298l11.65-6.727 2.28.61-.084-.113c-.304-.42-.585-.85-.836-1.283l11.598-6.696a59.667 59.667 0 0 0 9.517 12.398 60.342 60.342 0 0 0 26.923 15.544 59.68 59.68 0 0 0 15.494 2.044v13.412h-.28a73.118 73.118 0 0 1-18.684-2.51 73.83 73.83 0 0 1-32.93-19.013l-.072.07a73.924 73.924 0 0 0 32.976 19.04zm92.506-70.725a73.07 73.07 0 0 1-2.51 18.685 73.743 73.743 0 0 1-7.325 17.668l-10.326-5.96-.612-2.286-.057.13c-.21.474-.443.934-.692 1.37l-10.308-5.953a48.23 48.23 0 0 0 4.783-11.542 48.035 48.035 0 0 0-.006-24.874 48.183 48.183 0 0 0-4.773-11.547l10.306-5.95a60.08 60.08 0 0 1 5.96 14.417c2.728 10.18 2.73 20.912.008 31.035l.097.025c2.728-10.14 2.725-20.89-.007-31.087a60.204 60.204 0 0 0-5.97-14.44l11.602-6.7c.248.433.48.892.692 1.366l.058.13.61-2.282 11.646-6.723a88.638 88.638 0 0 1 8.795 21.298 88.645 88.645 0 0 1 3.034 23.287 88.035 88.035 0 0 1-3.023 22.5 88.788 88.788 0 0 1-8.826 21.285l-12.903-7.45a73.83 73.83 0 0 0 7.336-17.69 73.22 73.22 0 0 0 2.513-18.71 73.743 73.743 0 0 0-2.523-19.366l-.097.026a73.623 73.623 0 0 1 2.52 19.338zM165.136 23.43l1.403-1.4.05-.05.05.05 1.4 1.4a14.53 14.53 0 0 0-1.4-.07l-.05-.002h-.05c-.46.003-.93.027-1.403.073zm145.69 227.257c.238-.412.46-.847.664-1.295l.532 1.984-1.98.53c.285-.4.55-.81.785-1.22zM22.355 84.137c-.237.41-.46.843-.664 1.29l-.53-1.98 1.984-.532c-.287.4-.552.81-.79 1.222zm305.11 40.167c-3.85-14.364-9.56-28.102-16.977-40.83a165.74 165.74 0 0 0-26.113-33.848A167.4 167.4 0 0 0 209.7 6.513a165.74 165.74 0 0 0-42.368-5.69 167.02 167.02 0 0 0-43.85 5.713c-14.364 3.85-28.1 9.56-40.83 16.977a165.74 165.74 0 0 0-33.848 26.113l.07.07A165.64 165.64 0 0 1 82.703 23.6c12.72-7.413 26.45-13.12 40.807-16.968a166.946 166.946 0 0 1 43.03-5.71V21.89l-1.674 1.672.14-.015a15.08 15.08 0 0 1 1.533-.086v20.873c-10.688.01-21.38 1.43-31.8 4.22a123.356 123.356 0 0 0-30.165 12.543A122.45 122.45 0 0 0 79.567 80.39a123.51 123.51 0 0 0-19.513 25.455l-18.1-10.45a144.528 144.528 0 0 1 22.833-29.787 143.228 143.228 0 0 1 29.254-22.57 144.262 144.262 0 0 1 35.292-14.672l-.026-.097A144.366 144.366 0 0 0 93.99 42.952a143.334 143.334 0 0 0-29.274 22.585 144.623 144.623 0 0 0-22.848 29.807l-19.4-11.2c.25-.434.533-.866.84-1.285l.082-.114-2.353.63.63 2.35.057-.13c.21-.474.444-.932.692-1.366l19.402 11.2a144.64 144.64 0 0 0-14.39 34.693 143.354 143.354 0 0 0-4.922 36.645 144.382 144.382 0 0 0 4.94 37.925 144.425 144.425 0 0 0 14.34 34.716l-19.404 11.2a166.835 166.835 0 0 1-16.57-40.12C1.963 196.136.04 181.39.1 166.67a165.598 165.598 0 0 1 5.687-42.344l-.098-.026a165.75 165.75 0 0 0-5.69 42.37c-.06 14.73 1.863 29.484 5.712 43.85 3.85 14.363 9.56 28.1 16.977 40.83a165.74 165.74 0 0 0 26.114 33.847 167.396 167.396 0 0 0 74.673 43.113 165.74 165.74 0 0 0 42.37 5.69l.648.002c14.516 0 29.047-1.922 43.2-5.715 14.365-3.848 28.102-9.56 40.83-16.977a165.704 165.704 0 0 0 33.85-26.113l-.072-.07a165.64 165.64 0 0 1-33.827 26.097c-12.722 7.412-26.45 13.12-40.806 16.967-14.1 3.776-28.574 5.697-43.03 5.708v-20.97l1.67-1.668-.142.014a14.73 14.73 0 0 1-1.53.084v-20.87a123.41 123.41 0 0 0 31.8-4.22 123.356 123.356 0 0 0 30.165-12.543 122.445 122.445 0 0 0 25.007-19.293 123.48 123.48 0 0 0 19.514-25.456l18.1 10.45a144.495 144.495 0 0 1-22.833 29.786 143.203 143.203 0 0 1-29.254 22.57 144.28 144.28 0 0 1-35.29 14.674l.026.096a144.366 144.366 0 0 0 35.315-14.684 143.36 143.36 0 0 0 29.275-22.585 144.623 144.623 0 0 0 22.848-29.807l19.405 11.204c-.25.432-.532.863-.836 1.282l-.085.114 2.35-.63-.63-2.352-.058.13c-.21.474-.443.934-.692 1.37l-19.405-11.205a144.626 144.626 0 0 0 14.39-34.69 143.368 143.368 0 0 0 4.922-36.647 144.382 144.382 0 0 0-4.94-37.925 144.4 144.4 0 0 0-14.34-34.715l19.404-11.203a166.852 166.852 0 0 1 16.57 40.12c3.848 14.356 5.77 29.1 5.71 43.823a165.642 165.642 0 0 1-5.687 42.344l.096.026a165.756 165.756 0 0 0 5.69-42.37c.06-14.732-1.863-29.484-5.712-43.85z"/></g><path d="M174.41 162.954a9.023 9.023 0 0 0-1.62-2.066V157.41a6.18 6.18 0 0 0-1.696-4.252c-.05-.05-.097-.102-.147-.152a6.178 6.178 0 0 0-4.308-1.793l-.05-.002v2.4l.05.003a3.804 3.804 0 0 1 3.75 3.798V159.252a8.958 8.958 0 0 0-3.75-.838h-.05v1.35h.05a7.58 7.58 0 0 1 1.93.26 7.67 7.67 0 0 1 3.428 1.98l-.212.213a7.4 7.4 0 0 0-3.295-1.902 7.32 7.32 0 0 0-1.85-.25l-.047-.002h-.004v-.3l-.05.002a7.62 7.62 0 0 0-3.75 1.01 7.622 7.622 0 0 0-2.8 2.773 7.634 7.634 0 0 0-.79 5.846l.29-.076a7.35 7.35 0 0 1 .712-5.533l.05-.086a7.37 7.37 0 0 1 1.14-1.48 7.328 7.328 0 0 1 3.294-1.903 7.32 7.32 0 0 1 1.852-.25h.05v3.6h.05a3.753 3.753 0 0 1 3.7 3.75 3.73 3.73 0 0 1-.48 1.83c-.016.03-.033.058-.05.087a3.752 3.752 0 0 1-3.17 1.83h-.05v3.602h.05a7.345 7.345 0 0 0 6.338-3.72 7.295 7.295 0 0 0 .962-3.63c0-.643-.085-1.283-.252-1.903l.29-.08a7.656 7.656 0 0 1 0 3.96 7.68 7.68 0 0 1-.742 1.8l-.05.088a7.706 7.706 0 0 1-1.188 1.542 7.656 7.656 0 0 1-5.36 2.24l-.05.002v-.3h-.049a7.314 7.314 0 0 1-1.853-.252 7.39 7.39 0 0 1-3.295-1.902l-.212.212a7.69 7.69 0 0 0 3.43 1.98c.63.17 1.28.257 1.93.26l.045.002h.004v1.35h.05a8.998 8.998 0 0 0 7.72-4.457c.016-.03.033-.057.05-.086a8.96 8.96 0 0 0 1.18-4.46c0-1.62-.43-3.142-1.18-4.456" fill="#D3E6FD"/><path d="M168.84 167.41a2.25 2.25 0 1 1-4.5.002 2.25 2.25 0 0 1 4.5 0" fill="#F2F2F2"/></g></svg>