<svg data-name="No Avatar" xmlns="http://www.w3.org/2000/svg" viewBox="0 0 200 211.675"><defs><clipPath id="a"><circle cx="100.001" cy="100" r="100" fill="none"/></clipPath></defs><title>no-runnabear</title><circle cx="100.001" cy="100" r="100" fill="#e3e3e4"/><g clip-path="url(#a)"><path d="M50.093 38.5c-4.864-1.17-11.85.8-17.374 4.887-4.607 3.408-7.28 7.565-7.533 11.705C24.68 63.43 31.1 67.482 36.77 71.06c6.623 4.18 12.344 7.792 8.658 17.313a1.542 1.542 0 0 0 .882 2 1.515 1.515 0 0 0 .557.105 1.543 1.543 0 0 0 1.44-.986 23.36 23.36 0 0 0 .82-2.535L64.31 73.67A1.54 1.54 0 0 0 67 72.513l-.09-1.03C65.84 59.7 64.222 41.9 50.093 38.5zM174.05 55.1c-.25-4.14-2.925-8.3-7.53-11.705-5.525-4.09-12.5-6.054-17.375-4.887-14.13 3.392-15.745 21.192-16.82 32.975l-.093 1.03a1.538 1.538 0 0 0 2.693 1.153l15.184 13.287a23.784 23.784 0 0 0 .82 2.535 1.547 1.547 0 0 0 1.438.986 1.5 1.5 0 0 0 .557-.105 1.542 1.542 0 0 0 .883-2c-3.686-9.522 2.035-13.134 8.66-17.315 5.667-3.572 12.09-7.625 11.583-15.955z" fill="#aaa"/><path d="M26.742 211.676h142.64c-1.92-8.45-3.647-15.8-4.892-21.566-1.87-8.674-1.953-27.937-1.953-27.937.5-16.613 2.473-89.082-18.646-102.884-9.532-6.233-20.8-7.683-34.368-8.88a21.14 21.14 0 0 1 3.566-4.654c-4.166.1-5.844-.49-9.644 2.018 1.38-1.3 2.7-3.467 4.148-4.78-6.6-1.1-13.123 2.433-18.346 7.026-15.623.92-27.485 3.45-36.394 10.506-20.034 15.867-18.874 101.646-18.874 101.646l-2.5 27.938s-2.022 8.59-4.736 21.566z" fill="#aaa"/><path d="M80.352 89.46c11.262-16.137 60.115-11.4 40.13 40.264-2.9 7.527-6.343 14.926-9.57 22.314-.35.4-.6-1.578-1.313-1.377-3.448 5.657-7.7 3.062-11.3-2.106-1 1.12-8.137 3.185-9.177 4.28-10.718-12.96-20.038-47.234-8.77-63.373z" fill="#eaeaea"/><path d="M114.22 95.444c-1.933-2-7.88-3.012-14.215-3.05-6.332.038-12.28 1.053-14.213 3.05-4.5 4.652 6 15.29 14.213 15.953 8.212-.665 18.714-11.297 14.214-15.953zM101.666 131.342h-3.322a2 2 0 0 1 0-4h3.322a2 2 0 0 1 0 4z" fill="#aaa"/><path d="M100.038 131.342a2 2 0 0 1-2-2V111.4a2 2 0 0 1 4 0v17.945a2 2 0 0 1-2 1.997z" fill="#aaa"/></g></svg>