<svg data-name="No Avatar" xmlns="http://www.w3.org/2000/svg" viewBox="0 0 600 430"><defs><clipPath id="a"><circle cx="300.001" cy="197.199" r="64.726" fill="none"/></clipPath></defs><title>no-runnabear-loading</title><path fill="#ccc" d="M0 0h600v430H0z"/><circle cx="300.001" cy="197.199" r="64.726" fill="#e3e3e4"/><g clip-path="url(#a)"><path d="M267.7 157.392c-3.148-.757-7.67.518-11.246 3.163-2.98 2.206-4.712 4.9-4.875 7.576-.33 5.4 3.826 8.02 7.5 10.336 4.286 2.707 7.99 5.044 5.6 11.207a1 1 0 0 0 .563 1.294h.007a.98.98 0 0 0 .36.068 1 1 0 0 0 .933-.638 15.12 15.12 0 0 0 .53-1.64l9.828-8.6a1 1 0 0 0 1.742-.75l-.058-.666c-.695-7.626-1.74-19.146-10.884-21.348zM347.93 168.137c-.162-2.68-1.893-5.372-4.874-7.576-3.576-2.646-8.09-3.918-11.246-3.162-9.145 2.2-10.19 13.717-10.886 21.344l-.06.667a1 1 0 0 0 1.742.745l9.828 8.6a15.39 15.39 0 0 0 .53 1.64 1 1 0 0 0 .932.64.97.97 0 0 0 .36-.07 1 1 0 0 0 .575-1.29c-2.385-6.162 1.318-8.5 5.606-11.206 3.664-2.317 7.822-4.94 7.495-10.333z" fill="#aaa"/><path d="M252.583 269.483h92.325c-1.24-5.47-2.36-10.227-3.166-13.96-1.21-5.613-1.264-18.082-1.264-18.082.324-10.752 1.6-57.66-12.07-66.592-6.17-4.034-13.462-4.972-22.245-5.748a13.683 13.683 0 0 1 2.308-3.012c-2.7.065-3.782-.317-6.24 1.306.892-.84 1.747-2.244 2.684-3.095-4.272-.713-8.494 1.574-11.875 4.547-10.113.6-17.79 2.232-23.558 6.8-12.967 10.27-12.216 65.792-12.216 65.792l-1.618 18.082s-1.308 5.562-3.065 13.96z" fill="#aaa"/><path d="M287.283 190.378c7.29-10.446 38.91-7.38 25.975 26.06-1.877 4.873-4.106 9.662-6.2 14.444-.225.26-.388-1.02-.85-.89-2.23 3.66-4.983 1.98-7.313-1.365-.647.726-5.266 2.062-5.94 2.77-6.936-8.39-12.965-30.573-5.672-41.02z" fill="#eaeaea"/><path d="M309.2 194.25c-1.25-1.295-5.1-1.95-9.2-1.974-4.1.024-7.948.68-9.2 1.974-2.913 3.01 3.884 9.9 9.2 10.326 5.32-.43 12.116-7.312 9.2-10.326zM301.08 217.483h-2.15a1.295 1.295 0 0 1 0-2.59h2.15a1.295 1.295 0 0 1 0 2.59z" fill="#aaa"/><path d="M300.025 217.483a1.3 1.3 0 0 1-1.295-1.295v-11.61a1.295 1.295 0 1 1 2.59 0v11.615a1.3 1.3 0 0 1-1.295 1.29z" fill="#aaa"/></g><path d="M263.247 281.82v12.8h7.653v2.9h-11.11v-15.7h3.454zM272.31 289.376a5.205 5.205 0 0 1 3.037-3.1 6.494 6.494 0 0 1 2.42-.43 6.586 6.586 0 0 1 2.432.43 5.184 5.184 0 0 1 3.046 3.1 7 7 0 0 1 .418 2.476 6.9 6.9 0 0 1-.418 2.464 5.348 5.348 0 0 1-1.188 1.88 5.18 5.18 0 0 1-1.858 1.2 6.75 6.75 0 0 1-2.432.42 6.656 6.656 0 0 1-2.42-.42 5.187 5.187 0 0 1-1.848-1.2 5.334 5.334 0 0 1-1.188-1.88 6.9 6.9 0 0 1-.418-2.464 7 7 0 0 1 .417-2.476zm2.84 3.807a3.56 3.56 0 0 0 .45 1.166 2.408 2.408 0 0 0 .848.824 2.586 2.586 0 0 0 1.32.308 2.65 2.65 0 0 0 1.33-.308 2.383 2.383 0 0 0 .858-.825 3.56 3.56 0 0 0 .45-1.167 6.674 6.674 0 0 0 .133-1.33 6.825 6.825 0 0 0-.133-1.343 3.43 3.43 0 0 0-.45-1.166 2.5 2.5 0 0 0-.86-.825 2.57 2.57 0 0 0-1.33-.32 2.405 2.405 0 0 0-2.167 1.145 3.43 3.43 0 0 0-.45 1.166 6.825 6.825 0 0 0-.133 1.343 6.674 6.674 0 0 0 .13 1.33zM285.256 289.65a3.624 3.624 0 0 1 .55-1.825 3.758 3.758 0 0 1 1.23-1.166 5.386 5.386 0 0 1 1.685-.628 9.612 9.612 0 0 1 1.882-.187 12.69 12.69 0 0 1 1.738.12 5.306 5.306 0 0 1 1.605.474 3.164 3.164 0 0 1 1.188.978 2.738 2.738 0 0 1 .462 1.66V295a11.91 11.91 0 0 0 .088 1.475 2.667 2.667 0 0 0 .308 1.056h-3.167a4.375 4.375 0 0 1-.143-.538 4.608 4.608 0 0 1-.077-.56 4.08 4.08 0 0 1-1.76 1.076 7.043 7.043 0 0 1-2.068.31 5.586 5.586 0 0 1-1.518-.2 3.467 3.467 0 0 1-1.232-.617 2.867 2.867 0 0 1-.825-1.055 3.58 3.58 0 0 1-.3-1.518 3.316 3.316 0 0 1 .34-1.6 2.858 2.858 0 0 1 .88-1 3.96 3.96 0 0 1 1.233-.56 13.03 13.03 0 0 1 1.4-.3q.7-.11 1.386-.178a8.373 8.373 0 0 0 1.21-.2 2.112 2.112 0 0 0 .835-.387.844.844 0 0 0 .286-.736 1.667 1.667 0 0 0-.164-.8 1.223 1.223 0 0 0-.44-.462 1.75 1.75 0 0 0-.638-.22 5.3 5.3 0 0 0-.78-.055 2.374 2.374 0 0 0-1.453.4 1.767 1.767 0 0 0-.615 1.32h-3.124zm7.216 2.31a1.392 1.392 0 0 1-.5.276 5.017 5.017 0 0 1-.638.165q-.34.067-.716.11t-.748.11a5.844 5.844 0 0 0-.692.176 2.05 2.05 0 0 0-.594.3 1.4 1.4 0 0 0-.407.473 1.522 1.522 0 0 0-.154.725 1.47 1.47 0 0 0 .154.7 1.18 1.18 0 0 0 .418.45 1.75 1.75 0 0 0 .616.232 3.932 3.932 0 0 0 .727.065 2.762 2.762 0 0 0 1.43-.308 2.052 2.052 0 0 0 .748-.737 2.348 2.348 0 0 0 .3-.87 5.884 5.884 0 0 0 .056-.7v-1.165zM305.87 296.075a3.222 3.222 0 0 1-1.442 1.33 4.787 4.787 0 0 1-2.013.408 4.864 4.864 0 0 1-2.244-.5 4.5 4.5 0 0 1-1.594-1.342 6.1 6.1 0 0 1-.946-1.946 8.166 8.166 0 0 1-.318-2.288 7.67 7.67 0 0 1 .318-2.21 5.758 5.758 0 0 1 .946-1.882 4.6 4.6 0 0 1 3.773-1.8 4.474 4.474 0 0 1 1.924.43 3.356 3.356 0 0 1 1.44 1.264h.044v-5.72h3.124v15.708h-2.97v-1.452h-.044zm-.133-5.62a3.3 3.3 0 0 0-.45-1.145 2.532 2.532 0 0 0-.826-.8 2.41 2.41 0 0 0-1.274-.31 2.534 2.534 0 0 0-1.3.31 2.44 2.44 0 0 0-.847.813 3.608 3.608 0 0 0-.463 1.155 6.247 6.247 0 0 0-.143 1.353 5.8 5.8 0 0 0 .153 1.32 3.6 3.6 0 0 0 .5 1.178 2.738 2.738 0 0 0 .858.836 2.317 2.317 0 0 0 1.243.32 2.485 2.485 0 0 0 1.287-.31 2.35 2.35 0 0 0 .824-.824 3.7 3.7 0 0 0 .44-1.178 6.933 6.933 0 0 0 .13-1.363 6.784 6.784 0 0 0-.133-1.356zM311.187 284.394v-2.574h3.124v2.574h-3.123zm3.124 1.76v11.374h-3.123v-11.375h3.124zM319.595 286.153v1.584h.066a3.582 3.582 0 0 1 1.54-1.44 4.46 4.46 0 0 1 1.937-.45 5.3 5.3 0 0 1 2.057.34 3.06 3.06 0 0 1 1.266.946 3.657 3.657 0 0 1 .648 1.474 9.14 9.14 0 0 1 .188 1.925v7h-3.124V291.1a3.982 3.982 0 0 0-.44-2.1 1.7 1.7 0 0 0-1.562-.692 2.167 2.167 0 0 0-1.85.76 4.224 4.224 0 0 0-.57 2.5v5.96h-3.124v-11.375h2.97zM340.217 298.363a3.835 3.835 0 0 1-.8 1.64 4.763 4.763 0 0 1-1.78 1.286 7.674 7.674 0 0 1-3.126.527 7.255 7.255 0 0 1-1.7-.21 5.4 5.4 0 0 1-1.583-.648 3.893 3.893 0 0 1-1.188-1.134 3.283 3.283 0 0 1-.54-1.66h3.1a1.784 1.784 0 0 0 .857 1.22 3.09 3.09 0 0 0 1.474.342 2.272 2.272 0 0 0 1.927-.792 3.107 3.107 0 0 0 .584-2v-1.5h-.044a3.1 3.1 0 0 1-1.44 1.33 4.663 4.663 0 0 1-1.97.43 4.97 4.97 0 0 1-2.2-.45 4.16 4.16 0 0 1-1.518-1.232 5.14 5.14 0 0 1-.87-1.826 8.642 8.642 0 0 1-.274-2.21 7.08 7.08 0 0 1 .32-2.124 5.553 5.553 0 0 1 .934-1.8 4.524 4.524 0 0 1 1.53-1.243 4.585 4.585 0 0 1 2.1-.46 4.413 4.413 0 0 1 1.97.417 3.4 3.4 0 0 1 1.417 1.407h.045v-1.518h2.96V296.8a7.6 7.6 0 0 1-.183 1.563zm-4.277-3.784a2.45 2.45 0 0 0 .836-.7 3.125 3.125 0 0 0 .494-1 4.17 4.17 0 0 0 .166-1.178 6.462 6.462 0 0 0-.133-1.33 3.335 3.335 0 0 0-.44-1.112 2.288 2.288 0 0 0-.813-.77 2.573 2.573 0 0 0-1.275-.286 2.292 2.292 0 0 0-1.134.264 2.384 2.384 0 0 0-.79.716 3 3 0 0 0-.463 1.033 5.1 5.1 0 0 0-.144 1.222 6.182 6.182 0 0 0 .12 1.22 3.3 3.3 0 0 0 .42 1.09 2.43 2.43 0 0 0 .78.79 2.208 2.208 0 0 0 1.21.31 2.49 2.49 0 0 0 1.166-.27z" fill="#aaa"/></svg>