<svg data-name="No Avatar" xmlns="http://www.w3.org/2000/svg" viewBox="0 0 200 200"><title>no-runnabear-rounded</title><circle cx="100" cy="100" r="100" fill="#e3e3e4"/><circle cx="100" cy="100" r="100" fill="none"/><path d="M50.092 38.5c-4.864-1.17-11.85.8-17.374 4.887-4.606 3.408-7.28 7.565-7.532 11.705-.506 8.338 5.913 12.39 11.582 15.967 6.624 4.18 12.345 7.792 8.66 17.313a1.542 1.542 0 0 0 .874 2h.007a1.515 1.515 0 0 0 .556.105 1.543 1.543 0 0 0 1.44-.986 23.36 23.36 0 0 0 .82-2.535L64.31 73.67A1.54 1.54 0 0 0 67 72.513l-.09-1.03C65.837 59.7 64.22 41.9 50.09 38.5zM174.05 55.1c-.252-4.14-2.926-8.3-7.53-11.705-5.526-4.09-12.5-6.054-17.376-4.887-14.13 3.392-15.745 21.192-16.82 32.975l-.093 1.03a1.538 1.538 0 0 0 2.694 1.153l15.184 13.287a23.782 23.782 0 0 0 .82 2.535 1.547 1.547 0 0 0 1.44.986 1.5 1.5 0 0 0 .556-.105 1.542 1.542 0 0 0 .886-1.994v-.007c-3.686-9.522 2.035-13.134 8.66-17.315 5.664-3.57 12.086-7.625 11.58-15.955z" fill="#aaa"/><path d="M143.89 59.29c-9.533-6.232-20.8-7.682-34.37-8.88a21.138 21.138 0 0 1 3.567-4.653c-4.166.1-5.844-.49-9.644 2.018 1.38-1.3 2.7-3.467 4.148-4.78-6.6-1.1-13.122 2.433-18.345 7.026-15.623.92-27.485 3.45-36.394 10.507-20.033 15.867-18.873 101.646-18.873 101.646l-1.072 11.977a99.99 99.99 0 0 0 130.153 3.46c-.49-7.814-.523-15.435-.523-15.435.5-16.614 2.474-89.083-18.645-102.885z" fill="#aaa"/><path d="M80.35 89.46c11.263-16.137 60.116-11.4 40.132 40.264-2.9 7.527-6.344 14.926-9.572 22.314-.348.4-.6-1.578-1.312-1.377-3.447 5.657-7.7 3.062-11.3-2.106-1 1.12-8.136 3.185-9.176 4.28-10.723-12.96-20.038-47.234-8.77-63.373z" fill="#eaeaea"/><path d="M114.218 95.444c-1.932-2-7.88-3.012-14.214-3.05-6.332.038-12.28 1.053-14.213 3.05-4.5 4.652 6 15.29 14.214 15.953 8.212-.664 18.714-11.297 14.214-15.953zM101.665 131.338h-3.322a2 2 0 0 1 0-4h3.322a2 2 0 1 1 0 4z" fill="#aaa"/><path d="M100.037 131.338a2 2 0 0 1-2-2V111.4a2 2 0 0 1 4 0v17.946a2 2 0 0 1-2 1.992z" fill="#aaa"/></svg>