<svg id="No_Avatar" xmlns="http://www.w3.org/2000/svg" xmlns:xlink="http://www.w3.org/1999/xlink" viewBox="0 0 600 430"><style>.st0{fill:#CCC}.st1{fill:#e3e3e4}.st2{clip-path:url(#SVGID_2_)}.st3{fill:#AAA}.st4{fill:#eaeaea}</style><title>no-runnabear</title><path class="st0" d="M0 0h600v430H0z"/><circle class="st1" cx="300" cy="209.2" r="100"/><defs><circle id="SVGID_1_" cx="300" cy="209.2" r="100"/></defs><clipPath id="SVGID_2_"><use xlink:href="#SVGID_1_" overflow="visible"/></clipPath><g class="st2"><path class="st3" d="M250.1 147.7c-4.9-1.2-11.8.8-17.4 4.9-4.6 3.4-7.3 7.6-7.5 11.7-.5 8.3 5.9 12.4 11.6 16 6.6 4.2 12.3 7.8 8.7 17.3-.3.8.1 1.7.9 2 .2.1.4.1.6.1.6 0 1.2-.4 1.4-1 .3-.8.6-1.7.8-2.5l15.2-13.3c.6.6 1.5.7 2.2.1.4-.3.6-.8.5-1.3l-.1-1c-1.2-11.8-2.8-29.6-16.9-33zM374.1 164.3c-.3-4.1-2.9-8.3-7.5-11.7-5.5-4.1-12.5-6.1-17.4-4.9-14.1 3.4-15.7 21.2-16.8 33l-.1 1c-.1.8.5 1.6 1.4 1.7.5 0 1-.1 1.3-.5l15.2 13.3c.2.9.5 1.7.8 2.5.2.6.8 1 1.4 1 .2 0 .4 0 .6-.1.8-.3 1.2-1.2.9-2-3.7-9.5 2-13.1 8.7-17.3 5.5-3.7 12-7.7 11.5-16z"/><path class="st3" d="M226.7 320.8h142.6c-1.9-8.5-3.6-15.8-4.9-21.6-1.9-8.7-2-27.9-2-27.9.5-16.6 2.5-89.1-18.6-102.9-9.5-6.2-20.8-7.7-34.4-8.9 1-1.7 2.2-3.3 3.6-4.7-4.2.1-5.8-.5-9.6 2 1.4-1.3 2.7-3.5 4.1-4.8-6.6-1.1-13.1 2.4-18.3 7-15.6.9-27.5 3.4-36.4 10.5-20 15.9-18.9 101.6-18.9 101.6l-2.5 27.9c.1.3-1.9 8.9-4.7 21.8z"/><path class="st4" d="M280.4 198.6c11.3-16.1 60.1-11.4 40.1 40.3-2.9 7.5-6.3 14.9-9.6 22.3-.3.4-.6-1.6-1.3-1.4-3.4 5.7-7.7 3.1-11.3-2.1-1 1.1-8.1 3.2-9.2 4.3-10.7-13-20-47.2-8.7-63.4z"/><path class="st3" d="M314.2 204.6c-1.9-2-7.9-3-14.2-3-6.3 0-12.3 1.1-14.2 3-4.5 4.7 6 15.3 14.2 16 8.2-.7 18.7-11.3 14.2-16zM301.7 240.5h-3.3c-1.1 0-2-.9-2-2s.9-2 2-2h3.3c1.1 0 2 .9 2 2s-.9 2-2 2z"/><path class="st3" d="M300 240.5c-1.1 0-2-.9-2-2v-17.9c0-1.1.9-2 2-2s2 .9 2 2v17.9c0 1.1-.9 2-2 2z"/></g></svg>