<svg data-name="No Avatar" xmlns="http://www.w3.org/2000/svg" viewBox="0 0 600 430"><defs><clipPath id="a"><circle cx="300.001" cy="209.162" r="100" fill="none"/></clipPath></defs><title>no-runnabear</title><path fill="#dbdbdb" d="M0 0h600v430H0z"/><circle cx="300.001" cy="209.162" r="100" fill="#e3e3e4"/><g clip-path="url(#a)"><path d="M250.093 147.662c-4.864-1.17-11.85.8-17.374 4.887-4.607 3.407-7.28 7.564-7.533 11.704-.506 8.338 5.913 12.39 11.582 15.967 6.623 4.183 12.344 7.794 8.658 17.315a1.542 1.542 0 0 0 .875 2h.007a1.515 1.515 0 0 0 .557.105 1.543 1.543 0 0 0 1.44-.986 23.36 23.36 0 0 0 .82-2.535l15.183-13.29a1.54 1.54 0 0 0 2.69-1.154l-.09-1.03c-1.07-11.784-2.688-29.583-16.817-32.984zM374.05 164.262c-.25-4.14-2.925-8.3-7.53-11.705-5.525-4.09-12.5-6.054-17.375-4.887-14.13 3.392-15.745 21.192-16.82 32.975l-.093 1.03a1.538 1.538 0 0 0 2.693 1.153l15.184 13.287a23.782 23.782 0 0 0 .82 2.535 1.547 1.547 0 0 0 1.438.986 1.5 1.5 0 0 0 .557-.105 1.542 1.542 0 0 0 .886-1.992v-.007c-3.685-9.52 2.036-13.132 8.66-17.313 5.665-3.57 12.087-7.625 11.58-15.955z" fill="#aaa"/><path d="M226.742 320.838h142.64c-1.92-8.45-3.647-15.8-4.892-21.566-1.87-8.674-1.953-27.937-1.953-27.937.5-16.613 2.473-89.082-18.646-102.884-9.532-6.23-20.8-7.68-34.368-8.88a21.14 21.14 0 0 1 3.566-4.652c-4.166.1-5.844-.49-9.644 2.018 1.38-1.3 2.7-3.467 4.148-4.78-6.6-1.1-13.123 2.433-18.346 7.026-15.623.92-27.485 3.45-36.394 10.506-20.034 15.867-18.874 101.646-18.874 101.646l-2.5 27.938s-2.022 8.59-4.736 21.566z" fill="#aaa"/><path d="M280.352 198.623c11.262-16.138 60.115-11.4 40.13 40.263-2.9 7.527-6.343 14.926-9.57 22.314-.35.4-.6-1.578-1.313-1.377-3.448 5.656-7.7 3.06-11.3-2.107-1 1.12-8.137 3.185-9.177 4.28-10.723-12.96-20.038-47.234-8.77-63.373z" fill="#eaeaea"/><path d="M314.22 204.606c-1.933-2-7.88-3.012-14.215-3.05-6.332.038-12.28 1.053-14.213 3.05-4.5 4.652 6 15.29 14.213 15.953 8.212-.665 18.714-11.298 14.214-15.954zM301.666 240.5h-3.322a2 2 0 0 1 0-4h3.322a2 2 0 1 1 0 4z" fill="#aaa"/><path d="M300.038 240.5a2 2 0 0 1-2-2v-17.937a2 2 0 0 1 4 0v17.945a2 2 0 0 1-2 1.992z" fill="#aaa"/></g></svg>