<svg id="Layer_1" xmlns="http://www.w3.org/2000/svg" viewBox="-254 123 450 315" enable-background="new -254 123 450 315"><style>.st0{fill:#e1e1e1}.st1{fill:#e0e0e0}.st2{fill:#FFF}.st3{fill:#8635c1}.st4{fill:#f7f7f7}.st5{fill:url(#Rectangle-556-Copy-7_1_)}.st6{fill:url(#Rectangle-556-Copy-6_1_)}.st7{fill:#f8f5fa}.st8{fill:#853cbe}.st9{fill:url(#Rectangle-556-Copy_1_)}.st10{fill:url(#Rectangle-556-Copy-5_1_)}.st11{fill:url(#Rectangle-556-Copy-4_1_)}.st12{fill:url(#Rectangle-556-Copy-2_1_)}.st13{fill:none;stroke:#e0e0e0;stroke-width:2}.st14{fill:#3e3745}.st15{font-family:&amp;apos;SFUIText-Medium&amp;apos;}.st16{font-size:14px}.st17{fill:#444}.st18{font-family:&amp;apos;SFUIText-Regular&amp;apos;}.st19{opacity:.6;fill:#8635c1;enable-background:new}.st20{filter:url(#Adobe_OpacityMaskFilter)}.st21{mask:url(#mask-3);fill:#351f49}.st22{fill:#2ab0f7}.st23{fill:#ccadd2}.st24{fill:#44275e}.st25{fill:#d1d3d4}.st26{fill:#682f94}.st27{filter:url(#Adobe_OpacityMaskFilter_1_)}.st28{mask:url(#mask-5);fill:#351f49}</style><title>pr-page</title><g id="Page-1_1_"><g id="pr-page"><path id="Rectangle-553-Copy-3" class="st0" d="M-250 365h39c1.7 0 3 1.3 3 3v39c0 1.7-1.3 3-3 3h-39c-1.7 0-3-1.3-3-3v-39c0-1.7 1.3-3 3-3z"/><path class="st1" d="M192 366c1.1 0 2 .9 2 2v66c0 1.1-.9 2-2 2h-377c-1.1 0-2-.9-2-2v-66c0-1.1.9-2 2-2h377m0-1h-377c-1.7 0-3 1.3-3 3v66c0 1.7 1.3 3 3 3h377c1.7 0 3-1.3 3-3v-66c0-1.7-1.3-3-3-3z" id="Rectangle-553-Copy-5"/><g id="Rectangle-553-Copy-7"><path class="st2" d="M-185 346.5c-1.4 0-2.5-1.1-2.5-2.5v-66c0-1.4 1.1-2.5 2.5-2.5h377c1.4 0 2.5 1.1 2.5 2.5v66c0 1.4-1.1 2.5-2.5 2.5h-377z"/><path class="st3" d="M192 276c1.1 0 2 .9 2 2v66c0 1.1-.9 2-2 2h-377c-1.1 0-2-.9-2-2v-66c0-1.1.9-2 2-2h377m0-1h-377c-1.7 0-3 1.3-3 3v66c0 1.7 1.3 3 3 3h377c1.7 0 3-1.3 3-3v-66c0-1.7-1.3-3-3-3z"/></g><g id="Combined-Shape-Copy-2"><path class="st4" d="M-187.5 397.5V368c0-1.4 1.1-2.5 2.5-2.5h377c1.4 0 2.5 1.1 2.5 2.5v29.5h-382z"/><path class="st1" d="M192 366c1.1 0 2 .9 2 2v29h-381v-29c0-1.1.9-2 2-2h377m0-1h-377c-1.7 0-3 1.3-3 3v30h383v-30c0-1.7-1.3-3-3-3z"/></g><linearGradient id="Rectangle-556-Copy-7_1_" gradientUnits="userSpaceOnUse" x1="-506.153" y1="546.944" x2="-507.153" y2="546.944" gradientTransform="matrix(300 0 0 -9 151973 5340)"><stop offset="0" stop-color="#e8e8e8" stop-opacity="0"/><stop offset="1" stop-color="#e8e8e8"/></linearGradient><path id="Rectangle-556-Copy-7" class="st5" d="M-168.5 413h291c2.5 0 4.5 2 4.5 4.5s-2 4.5-4.5 4.5h-291c-2.5 0-4.5-2-4.5-4.5s2-4.5 4.5-4.5z"/><linearGradient id="Rectangle-556-Copy-6_1_" gradientUnits="userSpaceOnUse" x1="-505.307" y1="546.944" x2="-506.307" y2="546.944" gradientTransform="matrix(150 0 0 -9 75773 5304)"><stop offset="0" stop-color="#e8e8e8" stop-opacity="0"/><stop offset="1" stop-color="#e8e8e8"/></linearGradient><path id="Rectangle-556-Copy-6" class="st6" d="M-168.5 377h141c2.5 0 4.5 2 4.5 4.5s-2 4.5-4.5 4.5h-141c-2.5 0-4.5-2-4.5-4.5s2-4.5 4.5-4.5z"/><path id="Rectangle-553" class="st0" d="M-250 124h39c1.7 0 3 1.3 3 3v39c0 1.7-1.3 3-3 3h-39c-1.7 0-3-1.3-3-3v-39c0-1.7 1.3-3 3-3z"/><path class="st1" d="M192 125c1.1 0 2 .9 2 2v66c0 1.1-.9 2-2 2h-377c-1.1 0-2-.9-2-2v-66c0-1.1.9-2 2-2h377m0-1h-377c-1.7 0-3 1.3-3 3v66c0 1.7 1.3 3 3 3h377c1.7 0 3-1.3 3-3v-66c0-1.7-1.3-3-3-3z" id="Rectangle-553-Copy"/><g id="Combined-Shape"><path class="st4" d="M-187.5 156.5V127c0-1.4 1.1-2.5 2.5-2.5h377c1.4 0 2.5 1.1 2.5 2.5v29.5h-382z"/><path class="st1" d="M192 125c1.1 0 2 .9 2 2v29h-381v-29c0-1.1.9-2 2-2h377m0-1h-377c-1.7 0-3 1.3-3 3v30h383v-30c0-1.7-1.3-3-3-3z"/></g><g id="Combined-Shape-Copy"><path class="st7" d="M-187.5 307.5V278c0-1.4 1.1-2.5 2.5-2.5h377c1.4 0 2.5 1.1 2.5 2.5v29.5h-382z"/><path class="st8" d="M192 276c1.1 0 2 .9 2 2v29h-381v-29c0-1.1.9-2 2-2h377m0-1h-377c-1.7 0-3 1.3-3 3v30h383v-30c0-1.7-1.3-3-3-3z"/></g><path id="Rectangle-556" class="st1" d="M-145.5 214h11c1.4 0 2.5 1.1 2.5 2.5v11c0 1.4-1.1 2.5-2.5 2.5h-11c-1.4 0-2.5-1.1-2.5-2.5v-11c0-1.4 1.1-2.5 2.5-2.5z"/><linearGradient id="Rectangle-556-Copy_1_" gradientUnits="userSpaceOnUse" x1="-505.307" y1="546.944" x2="-506.307" y2="546.944" gradientTransform="matrix(150 0 0 -9 75824 5145)"><stop offset="0" stop-color="#e8e8e8" stop-opacity="0"/><stop offset="1" stop-color="#e8e8e8"/></linearGradient><path id="Rectangle-556-Copy" class="st9" d="M-117.5 218h141c2.5 0 4.5 2 4.5 4.5s-2 4.5-4.5 4.5h-141c-2.5 0-4.5-2-4.5-4.5s2-4.5 4.5-4.5z"/><linearGradient id="Rectangle-556-Copy-5_1_" gradientUnits="userSpaceOnUse" x1="-506.153" y1="546.944" x2="-507.153" y2="546.944" gradientTransform="matrix(300 0 0 -9 151973 5099)"><stop offset="0" stop-color="#e8e8e8" stop-opacity="0"/><stop offset="1" stop-color="#e8e8e8"/></linearGradient><path id="Rectangle-556-Copy-5" class="st10" d="M-168.5 172h291c2.5 0 4.5 2 4.5 4.5s-2 4.5-4.5 4.5h-291c-2.5 0-4.5-2-4.5-4.5s2-4.5 4.5-4.5z"/><linearGradient id="Rectangle-556-Copy-4_1_" gradientUnits="userSpaceOnUse" x1="-505.307" y1="546.944" x2="-506.307" y2="546.944" gradientTransform="matrix(150 0 0 -9 75773 5063)"><stop offset="0" stop-color="#e8e8e8" stop-opacity="0"/><stop offset="1" stop-color="#e8e8e8"/></linearGradient><path id="Rectangle-556-Copy-4" class="st11" d="M-168.5 136h141c2.5 0 4.5 2 4.5 4.5s-2 4.5-4.5 4.5h-141c-2.5 0-4.5-2-4.5-4.5s2-4.5 4.5-4.5z"/><path id="Rectangle-556-Copy-3" class="st1" d="M-145.5 241h11c1.4 0 2.5 1.1 2.5 2.5v11c0 1.4-1.1 2.5-2.5 2.5h-11c-1.4 0-2.5-1.1-2.5-2.5v-11c0-1.4 1.1-2.5 2.5-2.5z"/><linearGradient id="Rectangle-556-Copy-2_1_" gradientUnits="userSpaceOnUse" x1="-505.307" y1="546.944" x2="-506.307" y2="546.944" gradientTransform="matrix(150 0 0 -9 75824 5172)"><stop offset="0" stop-color="#e8e8e8" stop-opacity="0"/><stop offset="1" stop-color="#e8e8e8"/></linearGradient><path id="Rectangle-556-Copy-2" class="st12" d="M-117.5 245h141c2.5 0 4.5 2 4.5 4.5s-2 4.5-4.5 4.5h-141c-2.5 0-4.5-2-4.5-4.5s2-4.5 4.5-4.5z"/><circle id="Oval-129" class="st13" cx="-166" cy="222" r="3"/><path id="Rectangle-560" class="st1" d="M-173 221h4v2h-4z"/><path id="Rectangle-560-Copy" class="st1" d="M-163 221h4v2h-4z"/><path id="Rectangle-564" class="st1" d="M-167 231h2v9h-2z"/><circle id="Oval-129-Copy" class="st13" cx="-166" cy="249" r="3"/><path id="Rectangle-560-Copy-3" class="st1" d="M-173 248h4v2h-4z"/><path id="Rectangle-560-Copy-2" class="st1" d="M-163 248h4v2h-4z"/><text transform="translate(-173 296)" class="st14 st15 st16">Runnabot</text><text transform="translate(-173 332)" class="st17 st18 st16">Your pull request is ready to test on</text><text transform="translate(131 332)" class="st17 st18 st16">!</text><text transform="translate(68 332)" class="st8 st18 st16">Runnable</text><path id="Rectangle-710" class="st19" d="M68 335h62v1H68z"/><g id="Page-1"><g id="Group-3" transform="translate(1 152.167)"><defs><filter id="Adobe_OpacityMaskFilter" filterUnits="userSpaceOnUse" x="-254" y="123.1" width="45" height="43.7"><feColorMatrix values="1 0 0 0 0 0 1 0 0 0 0 0 1 0 0 0 0 0 1 0"/></filter></defs><mask maskUnits="userSpaceOnUse" x="-254" y="123.1" width="45" height="43.7" id="mask-3"><g class="st20"><path id="path-2" class="st2" d="M-209 123.1h-45v43.7h45v-43.7z"/></g></mask><path id="Fill-1" class="st21" d="M-209 128.4c-.1-1.3-.9-2.5-2.2-3.5-1.6-1.2-3.7-1.8-5.1-1.5-2.2.5-3.4 2.3-4.1 4.4-2.4-.9-5.1-1.4-7-1.5h-1.6c-1.1 0-2.2-.1-3.8 0h-.5c-.6 0-1.2.1-1.7.2-2.5.2-4.5.7-6.1 1.3l-5.5-4.6c-.8-.7-2.9 1.1-4.5 2.7-.5.5-2.8 2.9-2.7 4.1 0 .3.1.4.2.5l5.8 6.7c-.2 1.1-.4 2.2-.6 3.4-.2 1.3-.3 2.7-.5 4.1 0 .3-.1.7-.1 1v2.1c0 6.3 4.4 11.1 7 13.4 3.7 3.3 8.3 5.5 11.2 5.5 2.9 0 7.5-2.3 11.2-5.5 2.6-2.3 7-7.2 7-13.4v-1.9-.1c0-.4-.1-.8-.1-1.3-.1-1.4-.3-2.9-.5-4.3-.3-2-.6-3.9-1.1-5.6.5-.6 1.2-1 2-1.5 1.5-1 3.4-2.2 3.3-4.7"/></g><path id="Fill-4" class="st8" d="M-209.1 280.6c-.1-.9-.7-1.9-1.8-2.7-1.4-1-3.1-1.5-4.2-1.3-1.8.4-2.7 1.9-3.3 3.7.7.3 1.3.6 1.8 1 .2.1.3.2.5.4.5-.7 1.3-1.4 2.3-1.7 1.8-.5 2.8.8 2.7 1.7-.2.9-1.8 1.9-3.1 2.9.1.3.3.7.4 1 .6-.5 1.2-.9 1.8-1.3 1.6-1 3-1.9 2.9-3.7"/><path id="Fill-6" class="st8" d="M-219.4 290.2c-1.1 0-2.1-.9-2.1-2.1 0-.9.6-1.7 1.4-2 .2-.1.4-.1.7-.1 1 0 1.9.8 2 1.8v.3c.1 1.2-.9 2.1-2 2.1m4.9-2.8c-.1-.2-.1-.5-.2-.7-.1-.5-.3-.9-.5-1.3-.4-1.1-.9-1.9-1.5-2.5-.2-.2-.3-.3-.5-.4-.5-.3-1-.6-1.5-.8-.2-.1-.3-.2-.5-.2-.2-.1-.4-.1-.5-.2-2.3-.9-4.9-1.3-6.8-1.5h-1.6c-1 0-2-.1-3.5 0l.3 8.3c1.9-.3 3.9 0 5.6.9 2 1.1 6.2 4.6 2.5 14-.5 1.4-1.5 3.2-1.8 3.9-.8 1.6-1.2 2.1-1.4 2.4-.5.7-1 1.1-1.7 1.1h-.1c-.7 0-1.4-.5-2.1-1.4-.2.1-.6.2-1 .4s-1 .4-1.1.5c-.1.1-.3.2-.4.2-.2 0-.3-.1-.4-.2-2.1-2.6-4.2-8.4-4.1-13.4-2.8.5-6.2 1.1-9.3 2.1 2.1 8.3 10.3 14.5 16.7 14.5 6.8 0 15.7-7 17-16.1-.2-2.5-.6-5.6-1.2-8.4-.2-.5-.3-.9-.4-1.2"/><path id="Fill-8" class="st22" d="M-239.4 288.2s-.1 0 0 0h-1.3-.1c-.5 0-1 0-1.5.1.2.3.5.7.9 1 .4.3 1 .5 1.7.5.3 0 .7-.1 1-.2.9-.3 1.5-1 1.9-1.5-.8.1-1.7.1-2.6.1"/><path id="Fill-10" class="st23" d="M-229 297.1v4.8h.7c.3 0 .6.3.6.6s-.3.6-.6.6h-2.5c-.3 0-.6-.3-.6-.6s.3-.6.6-.6h.7v-4.7-.1c-.9-.2-1.8-.8-2.5-1.4l-.5-.5c-.1-.2-.3-.3-.4-.5-.5-.8-.7-1.6-.2-2.1.3-.3.8-.5 1.5-.6.2 0 .4-.1.6-.1.2 0 .4-.1.6-.1.5-.1 1-.1 1.5-.1 1.8 0 3.6.3 4.1.9 1.1 1.2-1.4 3.9-3.6 4.5m2.8-7.4c-1.5-.8-3.4-1-5-.7-.2 0-.4.1-.6.1-.2 0-.4.1-.6.2-1 .4-1.9 1-2.5 1.8-.7 1.1-1.1 2.4-1.3 3.9v1.2c-.1 4.4 1.5 9.7 3.6 12.5.2-.1.6-.2 1-.4s1-.4 1.2-.5c.1-.1.3-.2.4-.2.2 0 .3.1.4.2.6.8 1.1 1.3 1.6 1.3.3 0 .6-.4.8-.7 0-.1.1-.1.1-.1.4-.5 2.2-3.9 3-5.9 2.2-6.1 1.5-10.7-2.1-12.7"/><g id="Group-14"><path id="Fill-12" class="st24" d="M-232.7 279.667l.3 7.3c-1.3 0-4.8.1-8.8.2h-1.1H-243.1h-.7-1.5c0-.1 0-.1.1-.2.6-2 1.4-3.6 2.4-4.4.7-.5 1.4-1 2.3-1.4.2-.1.4-.2.6-.2.1 0 .1 0 .2-.1s.3-.1.4-.2c1.4-.5 3.1-.8 5.2-1 .4.1.9 0 1.4 0m-13.7-3.3l5 4.1c-.8.4-1.5.8-2.2 1.3-1.4 1.2-2.4 3.4-3.1 6.2l-5.2-5.9c.1-.4.9-1.6 2.4-3.2 1.6-1.5 2.7-2.3 3.1-2.5m7.7 13.3c-.3.1-.6.2-1 .2-.7 0-1.3-.2-1.7-.5-.4-.3-.7-.7-.9-1 .5 0 1 0 1.5-.1H-239.3c.9 0 1.8-.1 2.6-.1-.5.5-1.1 1.2-2 1.5m12.5.1c3.6 1.9 4.3 6.5 2 12.6-.8 2-2.6 5.4-3 5.9-.1 0-.1.1-.1.1-.2.3-.5.7-.8.7-.4 0-1-.5-1.6-1.3-.1-.1-.3-.2-.4-.2-.2 0-.3.1-.4.2-.1.1-.7.3-1.2.5-.4.2-.7.3-1 .4-2-2.8-3.7-8.1-3.6-12.5v-.6-.6c.2-1.5.6-2.9 1.3-3.9.5-.8 1.4-1.4 2.5-1.8.2-.1.4-.1.6-.2.2 0 .4-.1.6-.1 1.7-.3 3.6 0 5.1.8m14.2-5.4c-.6.4-1.2.8-1.8 1.3-.1-.4-.3-.7-.4-1 1.3-.9 2.9-2 3.1-2.9.2-.9-.9-2.2-2.7-1.7-1 .3-1.7 1-2.3 1.7-.2-.1-.3-.3-.5-.4-.6-.4-1.2-.7-1.8-1 .6-1.8 1.5-3.3 3.3-3.7 1.1-.3 2.8.2 4.2 1.3 1.1.8 1.7 1.8 1.8 2.7.1 1.8-1.3 2.7-2.9 3.7m4-3.8c-.1-1.3-.9-2.5-2.2-3.5-1.6-1.2-3.7-1.8-5.1-1.5-2.2.5-3.4 2.3-4.1 4.4-2.4-.9-5.1-1.4-7-1.5h-1.6c-1.1 0-2.2-.1-3.8 0h-.5c-.6 0-1.2.1-1.7.2-2.5.2-4.5.7-6.1 1.3l-5.5-4.6c-.8-.7-2.9 1.1-4.5 2.7-.5.5-2.8 2.9-2.7 4.1 0 .3.1.4.2.5l5.8 6.7c-.2 1.1-.4 2.2-.6 3.4-.2 1.3-.3 2.7-.5 4.1 0 .3-.1.7-.1 1v0c.2-1.7.4-3.4.6-5l.3 1.9v.1l.3 2v.1c.3-2.6.7-5.3 1.2-7.6.1-.3.1-.6.2-.9H-243.5c.1.2.2.4.4.7.6.8 1.7 1.9 3.5 1.9 2.5 0 3.9-2.2 4.3-2.8 1.4 0 2.4-.1 3-.1v.1c-1.4.4-2.6 1.2-3.3 2.3-.9 1.3-1.4 3-1.5 4.8-2.9.5-6.4 1.1-9.6 2.1 0 .2.1.4.1.6 0 .2.1.4.1.6 3.1-.9 6.5-1.6 9.3-2.1-.1 5 2.1 10.8 4.1 13.4.1.1.3.2.4.2.2 0 .3-.1.4-.2.1-.1.7-.3 1.1-.5.4-.2.8-.3 1-.4.7.9 1.4 1.4 2.1 1.4h.1c.6 0 1.2-.4 1.7-1.1.2-.2.6-.8 1.4-2.4.4-.7 1.3-2.5 1.8-3.9 3.6-9.5-.6-13-2.5-14-1.7-.9-3.8-1.2-5.6-.9l-.3-8.3c1.5-.1 2.5 0 3.5 0h1.6c1.9.1 4.5.6 6.8 1.5.2.1.4.1.5.2.2.1.4.2.5.2.5.3 1 .5 1.5.8.2.1.4.3.5.4.6.6 1.1 1.5 1.5 2.5.2.4.3.9.5 1.3.1.2.1.5.2.7.1.4.2.7.3 1.1.6 2.8 1 5.9 1.2 8.4v-.1l.3-2.2.3-2.1c-.3-2-.6-3.9-1.1-5.6.5-.6 1.2-1 2-1.5 1.6-1.2 3.5-2.4 3.4-4.9"/></g><path id="Fill-15" class="st24" d="M-251.1 282.1c.1.2.3.3.5.3.1 0 .2 0 .3-.1 0 0 1.2-.7 2.3-1.9 1.2-1.2 1.9-2.4 2-2.4.2-.3.1-.6-.2-.8-.3-.2-.6-.1-.8.2 0 0-.7 1.1-1.8 2.2s-2.1 1.8-2.1 1.8c-.3.1-.3.4-.2.7"/><path id="Fill-17" class="st24" d="M-248.2 300v-1.6 1.6z"/><path id="Fill-19" class="st24" d="M-232.3 291.9c-.7.1-1.2.4-1.5.6-.5.5-.4 1.4.2 2.1.1.2.3.3.4.5l.5.5c.7.7 1.6 1.2 2.5 1.4v4.8h-.7c-.3 0-.6.3-.6.6s.3.6.6.6h2.5c.3 0 .6-.3.6-.6s-.3-.6-.6-.6h-.7v-4.7-.1c2.3-.6 4.8-3.3 3.6-4.6-.6-.6-2.3-.9-4.1-.9-.5 0-1.1 0-1.5.1-.2 0-.4 0-.6.1-.2.1-.4.1-.6.2"/><path id="Fill-21" class="st25" d="M-250.3 282.3c-.1.1-.2.1-.3.1-.2 0-.4-.1-.5-.3-.2-.3-.1-.6.2-.8 0 0 1.1-.7 2.1-1.8 1.1-1.1 1.8-2.2 1.8-2.2.2-.3.5-.3.8-.2s.3.5.2.8c0 0-.8 1.2-2 2.4s-2.3 1.9-2.3 2m6.7-.5c.6-.5 1.3-.9 2.2-1.3l-5-4.1c-.4.2-1.5 1-3.1 2.5-1.5 1.6-2.3 2.8-2.4 3.2l5.2 5.9c.7-2.8 1.7-5.1 3.1-6.2"/><path id="Fill-23" class="st25" d="M-232.4 288.1c-.6 0-1.7 0-3 .1-.4.7-1.8 2.8-4.3 2.8-1.8 0-2.9-1.1-3.5-1.9-.2-.3-.3-.5-.4-.7h-1.9c-.1.3-.1.6-.2.9-.5 2.3-.9 5-1.2 7.6v.3h.1c3.2-1 6.8-1.7 9.6-2.1.2-1.8.6-3.5 1.5-4.8.7-1 1.9-1.7 3.3-2.2z"/><path id="Fill-25" class="st25" d="M-245.2 287.1c0 .1 0 .1-.1.2h4.1c4-.1 7.5-.2 8.8-.2l-.3-7.3c-.5 0-.9.1-1.4.1-2 .2-3.7.5-5.2 1-.1 0-.3.1-.4.2-.1 0-.1 0-.2.1-.2.1-.4.2-.6.2-.8.4-1.6.8-2.3 1.4-1 .7-1.8 2.3-2.4 4.3"/><path id="Fill-27" class="st26" d="M-213 296.8c-1.3 9.1-10.2 16.1-17 16.1-6.4 0-14.6-6.2-16.7-14.5-.1 0-.3.1-.4.1v3.6c0 .1 0 .2.1.3v.2c0 .1 0 .2.1.3 0 .1 0 .1.1.2 0 .1 0 .2.1.3 0 .1 0 .1.1.2 0 .1.1.2.1.3 0 .1 0 .1.1.2 0 .1.1.2.1.3 0 .1 0 .1.1.2 0 .1.1.2.1.3 0 .1 0 .1.1.2 0 .1.1.2.1.3 0 0 0 .1.1.1.1.1.1.3.2.4.1.1.1.3.2.4.1.1.1.3.2.4 0 0 0 .1.1.1.1.1.1.2.2.3l.1.1c.1.1.1.2.2.3l.1.1c.1.1.1.2.2.2 0 .1.1.1.1.2.1.1.1.2.2.2 0 .1.1.1.1.2l.2.2c0 .1.1.1.1.2l.2.2.1.1.2.2.1.1.2.2.1.1.2.2.1.1.2.2.1.1.2.2.1.1.2.2.1.1.2.2.1.1.2.2.1.1.2.2.1.1.2.2.1.1.2.2.1.1c.1.1.2.1.2.2.4.4.9.8 1.3 1.1 3.2 2.5 6.8 4.1 9.1 4.1 2.7 0 7-2.2 10.5-5.2.1-.1.2-.1.2-.2l.1-.1c.1 0 .1-.1.2-.1l.1-.1.1-.1.1-.1.1-.1.1-.1.1-.1.1-.1c0-.1.1-.1.1-.2l.1-.1c0-.1.1-.1.1-.2l.1-.1c.1-.1.1-.1.1-.2l.1-.1c0-.1.1-.1.1-.2l.1-.1c0-.1.1-.1.1-.2l.1-.1.2-.2c0-.1.1-.1.1-.2l.2-.2c0-.1.1-.1.1-.2.1-.1.1-.1.1-.2s.1-.1.1-.2.1-.1.1-.2.1-.1.1-.2.1-.1.1-.2.1-.1.1-.2c.1-.1.1-.2.1-.2 0-.1.1-.1.1-.2.1-.1.1-.2.2-.2l.1-.1c.1-.1.1-.2.2-.3 0 0 0-.1.1-.1.1-.1.1-.3.2-.4.1-.1.1-.3.2-.4 0 0 0-.1.1-.1.1-.1.1-.2.2-.3 0-.1 0-.1.1-.2 0-.1.1-.2.1-.3 0-.1 0-.1.1-.2 0-.1.1-.2.1-.3 0-.1 0-.1.1-.2 0-.1.1-.2.1-.3 0-.1 0-.1.1-.2 0-.1.1-.2.1-.3 0-.1 0-.1.1-.2 0-.1 0-.2.1-.3 0-.1 0-.1.1-.2 0-.1 0-.2.1-.3v-.2c0-.1 0-.2.1-.3v-.2-.3-.2-.3-.2-.1-2.8c-.2-.4-.2-.8-.3-1.3"/><g id="Group-31" transform="translate(5.57 169.303)"><defs><filter id="Adobe_OpacityMaskFilter_1_" filterUnits="userSpaceOnUse" x="-253.8" y="123.1" width="36.5" height="26.5"><feColorMatrix values="1 0 0 0 0 0 1 0 0 0 0 0 1 0 0 0 0 0 1 0"/></filter></defs><mask maskUnits="userSpaceOnUse" x="-253.8" y="123.1" width="36.5" height="26.5" id="mask-5"><g class="st27"><path id="path-4" class="st2" d="M-253.8 149.6h36.5v-26.5h-36.5v26.5z"/></g></mask><path id="Fill-29" class="st28" d="M-217.3 128.7c0-.4-.1-.8-.1-1.3-.1-1.4-.3-2.9-.5-4.3l-.3 2.1-.3 2.2v.1c0 .5.1.9.1 1.3V132.9c0 .1 0 .2-.1.3v.2c0 .1 0 .2-.1.3 0 .1 0 .1-.1.2 0 .1 0 .2-.1.3 0 .1 0 .1-.1.2 0 .1-.1.2-.1.3 0 .1 0 .1-.1.2 0 .1-.1.2-.1.3 0 .1 0 .1-.1.2 0 .1-.1.2-.1.3 0 .1 0 .1-.1.2 0 .1-.1.2-.1.3 0 .1 0 .1-.1.2 0 .1-.1.2-.2.3 0 0 0 .1-.1.1-.1.1-.1.3-.2.4-.1.1-.1.3-.2.4 0 0 0 .1-.1.1-.1.1-.1.2-.2.3 0 .1-.1.1-.1.1-.1.1-.1.2-.2.2 0 .1-.1.1-.1.2s-.1.2-.1.2c0 .1-.1.1-.1.2s-.1.1-.1.2-.1.1-.1.2-.1.1-.1.2-.1.1-.1.2-.1.1-.1.2-.1.1-.1.2l-.2.2c0 .1-.1.1-.1.2l-.2.2-.1.1c0 .1-.1.1-.1.2l-.1.1c-.1.1-.1.1-.1.2l-.1.1c-.1.1-.1.1-.1.2l-.1.1c0 .1-.1.1-.1.2l-.1.1c0 .1-.1.1-.1.2l-.1.1c0 .1-.1.1-.1.1l-.1.1-.1.1-.1.1-.1.1-.1.1c-.1 0-.1.1-.2.1l-.1.1c-.1.1-.2.1-.2.2-3.5 3.1-7.8 5.2-10.5 5.2-2 0-5.1-1.3-7.9-3.2l-1.2-.9c-.5-.4-.9-.7-1.3-1.1-.1-.1-.2-.1-.2-.2l-.1-.1-.2-.2-.1-.1-.2-.2-.1-.1c-.1 0-.1-.1-.2-.2l-.1-.1-.2-.2-.1-.1-.2-.2-.1-.1-.2-.2-.1-.1-.2-.2-.1-.1-.2-.2-.1-.1-.2-.2-.1-.1-.2-.2-.1-.1-.2-.2-.1-.1-.2-.2c0-.1-.1-.1-.1-.2l-.2-.2c0-.1-.1-.1-.1-.2-.1-.1-.1-.2-.2-.2 0-.1-.1-.1-.1-.2-.1-.1-.1-.2-.2-.2l-.1-.1c-.1-.1-.1-.2-.2-.3l-.1-.1c-.1-.1-.1-.2-.2-.3 0 0 0-.1-.1-.1-.1-.1-.1-.3-.2-.4-.1-.1-.1-.3-.2-.4-.1-.1-.1-.3-.2-.4 0 0 0-.1-.1-.1 0-.1-.1-.2-.1-.3 0-.1 0-.1-.1-.2 0-.1-.1-.2-.1-.3 0-.1 0-.1-.1-.2 0-.1-.1-.2-.1-.3 0-.1 0-.1-.1-.2 0-.1-.1-.2-.1-.3 0-.1 0-.1-.1-.2 0-.1-.1-.2-.1-.3 0-.1 0-.1-.1-.2 0-.1 0-.2-.1-.3v-.2c0-.1 0-.2-.1-.3v-.2-.3-.2-.3-.2-.1V129.2c.1 0 .3-.1.4-.1 0-.2-.1-.4-.1-.6 0-.2-.1-.4-.1-.6h-.1v-.3-.1l-.3-2v-.1l-.3-1.9c-.2 1.6-.4 3.3-.6 5v2c0 6.3 4.4 11.1 7 13.4 3.7 3.3 8.3 5.5 11.2 5.5 2.9 0 7.5-2.3 11.2-5.5 2.6-2.3 7-7.2 7-13.4l.2-1.8c0 .1 0 .1 0 0"/></g><path id="Fill-32" class="st24" d="M-217.4 287.9c-.1-1-1-1.8-2-1.8-.2 0-.5 0-.7.1-.8.3-1.4 1.1-1.4 2 0 1.2.9 2.1 2.1 2.1 1.1 0 2.1-.9 2.1-2.1 0-.1 0-.2-.1-.3"/></g></g></g></svg>