<svg id="Layer_1" data-name="Layer 1" xmlns="http://www.w3.org/2000/svg" xmlns:xlink="http://www.w3.org/1999/xlink" viewBox="0 0 1080 420"><defs><style>.cls-1{fill:#fff}.cls-2{fill:#f7f7f7}.cls-3{fill:#e6e6e6}.cls-4{fill:#e8e8e8}.cls-5{fill:url(#linear-gradient)}.cls-6{fill:#eee}.cls-7{fill:url(#linear-gradient-2)}.cls-8{fill:url(#linear-gradient-3)}.cls-9{fill:url(#linear-gradient-4)}.cls-10{fill:url(#linear-gradient-5)}.cls-11{fill:url(#linear-gradient-6)}.cls-12{isolation:isolate}.cls-13{fill:#777}.cls-14{fill:#6bd281}.cls-15{fill:#f6b85b}.cls-16{fill:#b3b3b3}.cls-17{fill:#834eab}.cls-18{fill:#e1e1e1}.cls-19{fill:#e0e0e0}.cls-20{fill:#f8f8f8}.cls-21{fill:#7944a3}.cls-22{fill:#853cbe}.cls-23{fill:#44275e}.cls-24{fill:#231f20}.cls-25{fill:none}.cls-26{fill:#682f94}.cls-27{fill:#351f49}.cls-28{fill:#2f1244}.cls-29{fill:#ccadd2}</style><linearGradient id="linear-gradient" x1="178.692" y1="-63.056" x2="177.692" y2="-63.056" gradientTransform="matrix(78 0 0 9 -13443 670)" gradientUnits="userSpaceOnUse"><stop offset="0" stop-color="#e8e8e8" stop-opacity="0"/><stop offset="1" stop-color="#e8e8e8"/></linearGradient><linearGradient id="linear-gradient-2" x1="179" y1="-63.056" x2="178" y2="-63.056" gradientTransform="matrix(90 0 0 9 -15603 765)" xlink:href="#linear-gradient"/><linearGradient id="linear-gradient-3" x1="179.8" y1="-63.056" x2="178.8" y2="-63.056" gradientTransform="matrix(150 0 0 9 -26403 786)" xlink:href="#linear-gradient"/><linearGradient id="linear-gradient-4" x1="178" y1="-63.056" x2="177" y2="-63.056" gradientTransform="matrix(60 0 0 9 -10203 818)" xlink:href="#linear-gradient"/><linearGradient id="linear-gradient-5" x1="179.462" y1="-63.056" x2="178.462" y2="-63.056" gradientTransform="matrix(117 0 0 9 -20331 670)" xlink:href="#linear-gradient"/><linearGradient id="linear-gradient-6" x1="180.417" y1="-63.056" x2="179.417" y2="-63.056" gradientTransform="matrix(309 0 0 9 -54697 670)" xlink:href="#linear-gradient"/></defs><title>runnable</title><path id="Rectangle-326" class="cls-1" d="M374 30h705v390H374z"/><path class="cls-2" d="M390 265a2.006 2.006 0 0 1-2-2v-82a2.006 2.006 0 0 1 2-2h269a2.006 2.006 0 0 1 2 2v82a2.006 2.006 0 0 1-2 2H390z"/><path class="cls-3" d="M659 180a.945.945 0 0 1 1 1v82a.945.945 0 0 1-1 1H390a.945.945 0 0 1-1-1v-82a.945.945 0 0 1 1-1h269m0-2H390a2.946 2.946 0 0 0-3 3v82a2.946 2.946 0 0 0 3 3h269a2.946 2.946 0 0 0 3-3v-82a2.946 2.946 0 0 0-3-3z"/><path class="cls-2" d="M692 119a2.006 2.006 0 0 1-2-2V87a2.006 2.006 0 0 1 2-2h372a2.006 2.006 0 0 1 2 2v30a2.006 2.006 0 0 1-2 2H692z"/><path class="cls-3" d="M1064 86a.945.945 0 0 1 1 1v30a.945.945 0 0 1-1 1H692a.945.945 0 0 1-1-1V87a.945.945 0 0 1 1-1h372m0-2H692a2.946 2.946 0 0 0-3 3v30a2.946 2.946 0 0 0 3 3h372a2.946 2.946 0 0 0 3-3V87a2.946 2.946 0 0 0-3-3z"/><path class="cls-2" d="M522 119a2.006 2.006 0 0 1-2-2V87a2.006 2.006 0 0 1 2-2h156a2.006 2.006 0 0 1 2 2v30a2.006 2.006 0 0 1-2 2H522z"/><path class="cls-3" d="M678 86a.945.945 0 0 1 1 1v30a.945.945 0 0 1-1 1H522a.945.945 0 0 1-1-1V87a.945.945 0 0 1 1-1h156m0-2H522a2.946 2.946 0 0 0-3 3v30a2.946 2.946 0 0 0 3 3h156a2.946 2.946 0 0 0 3-3V87a2.946 2.946 0 0 0-3-3z"/><path class="cls-2" d="M390 119a2.006 2.006 0 0 1-2-2V87a2.006 2.006 0 0 1 2-2h117a2.006 2.006 0 0 1 2 2v30a2.006 2.006 0 0 1-2 2H390z"/><path class="cls-3" d="M507 86a.945.945 0 0 1 1 1v30a.945.945 0 0 1-1 1H390a.945.945 0 0 1-1-1V87a.945.945 0 0 1 1-1h117m0-2H390a2.946 2.946 0 0 0-3 3v30a2.946 2.946 0 0 0 3 3h117a2.946 2.946 0 0 0 3-3V87a2.946 2.946 0 0 0-3-3z"/><path id="Rectangle-2-Copy-18" class="cls-2" d="M90 30h284v390H90z"/><circle id="Oval-1-Copy-45" class="cls-4" cx="406.5" cy="102.5" r="4.5"/><path id="Rectangle-176-Copy-48" class="cls-5" d="M421.5 98h69a4.48 4.48 0 0 1 4.5 4.5 4.48 4.48 0 0 1-4.5 4.5h-69a4.48 4.48 0 0 1-4.5-4.5 4.48 4.48 0 0 1 4.5-4.5z"/><path id="Rectangle-176-Copy-49" class="cls-6" d="M391.5 151h79a4.48 4.48 0 0 1 4.5 4.5 4.48 4.48 0 0 1-4.5 4.5h-79a4.48 4.48 0 0 1-4.5-4.5 4.48 4.48 0 0 1 4.5-4.5z"/><path id="Rectangle-176-Copy-50" class="cls-7" d="M421.5 193h81a4.48 4.48 0 0 1 4.5 4.5 4.48 4.48 0 0 1-4.5 4.5h-81a4.48 4.48 0 0 1-4.5-4.5 4.48 4.48 0 0 1 4.5-4.5z"/><path id="Rectangle-176-Copy-51" class="cls-4" d="M406.5 193a4.48 4.48 0 0 1 4.5 4.5 4.48 4.48 0 0 1-4.5 4.5 4.48 4.48 0 0 1-4.5-4.5 4.48 4.48 0 0 1 4.5-4.5z"/><path id="Rectangle-176-Copy-52" class="cls-8" d="M421.5 214h141a4.48 4.48 0 0 1 4.5 4.5 4.48 4.48 0 0 1-4.5 4.5h-141a4.48 4.48 0 0 1-4.5-4.5 4.48 4.48 0 0 1 4.5-4.5z"/><path id="Rectangle-176-Copy-53" class="cls-9" d="M421.5 246h51a4.48 4.48 0 0 1 4.5 4.5 4.48 4.48 0 0 1-4.5 4.5h-51a4.48 4.48 0 0 1-4.5-4.5 4.48 4.48 0 0 1 4.5-4.5z"/><path id="Rectangle-176-Copy-54" class="cls-4" d="M627.5 246h15a4.48 4.48 0 0 1 4.5 4.5 4.48 4.48 0 0 1-4.5 4.5h-15a4.48 4.48 0 0 1-4.5-4.5 4.48 4.48 0 0 1 4.5-4.5z"/><path id="Rectangle-176-Copy-55" class="cls-6" d="M694.5 151h63a4.48 4.48 0 0 1 4.5 4.5 4.48 4.48 0 0 1-4.5 4.5h-63a4.48 4.48 0 0 1-4.5-4.5 4.48 4.48 0 0 1 4.5-4.5z"/><path id="Rectangle-176-Copy-56" class="cls-6" d="M797.5 151h63a4.48 4.48 0 0 1 4.5 4.5 4.48 4.48 0 0 1-4.5 4.5h-63a4.48 4.48 0 0 1-4.5-4.5 4.48 4.48 0 0 1 4.5-4.5z"/><path id="Rectangle-176-Copy-57" class="cls-6" d="M900.5 151h63a4.48 4.48 0 0 1 4.5 4.5 4.48 4.48 0 0 1-4.5 4.5h-63a4.48 4.48 0 0 1-4.5-4.5 4.48 4.48 0 0 1 4.5-4.5z"/><path id="Rectangle-176-Copy-58" class="cls-6" d="M391.5 305h79a4.48 4.48 0 0 1 4.5 4.5 4.48 4.48 0 0 1-4.5 4.5h-79a4.48 4.48 0 0 1-4.5-4.5 4.48 4.48 0 0 1 4.5-4.5z"/><circle id="Oval-1-Copy-46" class="cls-4" cx="538.5" cy="102.5" r="4.5"/><path id="Rectangle-176-Copy-59" class="cls-10" d="M553.5 98h108a4.48 4.48 0 0 1 4.5 4.5 4.48 4.48 0 0 1-4.5 4.5h-108a4.48 4.48 0 0 1-4.5-4.5 4.48 4.48 0 0 1 4.5-4.5z"/><path id="Rectangle-176-Copy-60" class="cls-4" d="M704.5 98h16a4.48 4.48 0 0 1 4.5 4.5 4.48 4.48 0 0 1-4.5 4.5h-16a4.48 4.48 0 0 1-4.5-4.5 4.48 4.48 0 0 1 4.5-4.5z"/><path id="Rectangle-176-Copy-61" class="cls-11" d="M747.5 98h300a4.48 4.48 0 0 1 4.5 4.5 4.48 4.48 0 0 1-4.5 4.5h-300a4.48 4.48 0 0 1-4.5-4.5 4.48 4.48 0 0 1 4.5-4.5z"/><g class="cls-12"><path class="cls-13" d="M130.813 81.046h1.516v1.348h.028a2.354 2.354 0 0 1 2.264-1.436 2.18 2.18 0 0 1 2.226 1.546h.037a2.62 2.62 0 0 1 2.49-1.546 2.45 2.45 0 0 1 2.593 2.622V89h-1.582v-5.04a1.455 1.455 0 0 0-1.553-1.64 1.637 1.637 0 0 0-1.663 1.743V89h-1.56v-5.17a1.415 1.415 0 0 0-1.523-1.51 1.688 1.688 0 0 0-1.685 1.802V89h-1.59v-7.954zM143.806 86.723c0-1.393 1.076-2.198 3.04-2.323l2.145-.125v-.615a1.406 1.406 0 0 0-1.67-1.406 1.525 1.525 0 0 0-1.632 1.136H144.2c.045-1.407 1.378-2.447 3.165-2.447 1.94 0 3.194 1.026 3.194 2.6V89h-1.518v-1.326h-.036a2.78 2.78 0 0 1-2.512 1.406 2.407 2.407 0 0 1-2.688-2.357zm5.185-.71v-.624l-1.932.132c-1.084.065-1.648.468-1.648 1.17a1.27 1.27 0 0 0 1.508 1.122 1.898 1.898 0 0 0 2.073-1.802zM155.707 80.95c1.743 0 3.003.982 3.04 2.366h-1.495a1.384 1.384 0 0 0-1.582-1.142 1.258 1.258 0 0 0-1.5 1.047c0 .485.394.814 1.237 1.02l1.318.315c1.604.387 2.197.966 2.197 2.138 0 1.42-1.347 2.403-3.274 2.403-1.853 0-3.12-.96-3.237-2.396h1.57a1.517 1.517 0 0 0 1.75 1.18c.988 0 1.61-.41 1.61-1.056 0-.505-.315-.768-1.15-.98l-1.42-.352c-1.436-.35-2.146-1.084-2.146-2.183 0-1.4 1.252-2.36 3.083-2.36zM162.87 79.26v1.786h1.523V82.3h-1.524v4.444a.865.865 0 0 0 .973 1.01 5.416 5.416 0 0 0 .542-.035v1.25a4.488 4.488 0 0 1-.893.08c-1.59 0-2.205-.607-2.205-2.145V82.3h-1.1v-1.254h1.1V79.26h1.582zM172.947 86.67a3.2 3.2 0 0 1-3.413 2.426c-2.307 0-3.743-1.553-3.743-4.043s1.45-4.11 3.678-4.11c2.182 0 3.56 1.516 3.56 3.926v.556h-5.633v.095a2.1 2.1 0 0 0 2.168 2.287 1.83 1.83 0 0 0 1.868-1.136h1.517zm-5.545-2.372h4.036a1.94 1.94 0 0 0-1.978-2.058 2.053 2.053 0 0 0-2.058 2.058zM174.902 81.046h1.516v1.34h.03a1.904 1.904 0 0 1 1.918-1.42 2.6 2.6 0 0 1 .557.05v1.488a2.308 2.308 0 0 0-.725-.096 1.662 1.662 0 0 0-1.707 1.846V89h-1.588v-7.954z"/></g><circle id="Oval-1-Copy-47" class="cls-14" cx="116.5" cy="83.5" r="4.5"/><circle id="Oval-1-Copy-48" class="cls-15" cx="116.5" cy="113.5" r="4.5"/><circle id="Oval-1-Copy-49" class="cls-14" cx="116.5" cy="196.5" r="4.5"/><circle id="Oval-1-Copy-50" class="cls-14" cx="116.5" cy="226.5" r="4.5"/><circle id="Oval-1-Copy-51" class="cls-14" cx="116.5" cy="256.5" r="4.5"/><g class="cls-12"><path class="cls-13" d="M130.454 115.016c0-2.447 1.362-4.05 3.34-4.05a2.69 2.69 0 0 1 2.505 1.398h.035v-4.41h1.582V119h-1.538v-1.348h-.03a2.723 2.723 0 0 1-2.54 1.428c-1.994 0-3.356-1.603-3.356-4.064zm1.626.007c0 1.648.842 2.71 2.13 2.71 1.276 0 2.133-1.085 2.133-2.71 0-1.62-.857-2.71-2.132-2.71-1.28 0-2.13 1.07-2.13 2.71zM147 116.67a3.2 3.2 0 0 1-3.414 2.426c-2.307 0-3.743-1.553-3.743-4.043s1.45-4.11 3.677-4.11c2.183 0 3.56 1.516 3.56 3.926v.556h-5.633v.095a2.1 2.1 0 0 0 2.168 2.287 1.83 1.83 0 0 0 1.868-1.136H147zm-5.545-2.372h4.035a1.94 1.94 0 0 0-1.977-2.058 2.053 2.053 0 0 0-2.058 2.058zM152.807 119h-1.692l-2.87-7.954h1.676l2.03 6.387h.036l2.036-6.387h1.648zM163.8 116.67a3.2 3.2 0 0 1-3.414 2.426c-2.307 0-3.742-1.553-3.742-4.043s1.45-4.11 3.676-4.11c2.183 0 3.56 1.516 3.56 3.926v.556h-5.632v.095a2.1 2.1 0 0 0 2.168 2.287 1.83 1.83 0 0 0 1.867-1.136h1.516zm-5.545-2.372h4.036a1.94 1.94 0 0 0-1.977-2.058 2.053 2.053 0 0 0-2.058 2.058zM165.82 107.955h1.59V119h-1.59v-11.045zM169.343 115.023c0-2.498 1.472-4.08 3.764-4.08s3.758 1.575 3.758 4.08c0 2.504-1.458 4.073-3.758 4.073s-3.764-1.57-3.764-4.073zm5.91 0c0-1.736-.798-2.76-2.146-2.76s-2.153 1.032-2.153 2.76c0 1.736.806 2.754 2.153 2.754s2.146-1.018 2.146-2.754zM186.203 115.023c0 2.46-1.326 4.057-3.326 4.057a2.725 2.725 0 0 1-2.52-1.384h-.028v3.94h-1.59v-10.59h1.53v1.318h.037a2.81 2.81 0 0 1 2.534-1.4c2.03 0 3.363 1.59 3.363 4.06zm-1.626 0c0-1.64-.85-2.71-2.14-2.71-1.26 0-2.116 1.09-2.123 2.71.007 1.625.857 2.71 2.124 2.71 1.29 0 2.14-1.062 2.14-2.71z"/></g><g class="cls-12"><path class="cls-13" d="M130.813 194.046h1.516v1.348h.028a2.354 2.354 0 0 1 2.264-1.436 2.18 2.18 0 0 1 2.226 1.546h.037a2.62 2.62 0 0 1 2.49-1.546 2.45 2.45 0 0 1 2.593 2.622V202h-1.582v-5.04a1.455 1.455 0 0 0-1.553-1.64 1.637 1.637 0 0 0-1.663 1.743V202h-1.56v-5.17a1.415 1.415 0 0 0-1.523-1.51 1.688 1.688 0 0 0-1.685 1.802V202h-1.59v-7.954zM143.806 199.723c0-1.393 1.076-2.198 3.04-2.323l2.145-.125v-.615a1.406 1.406 0 0 0-1.67-1.406 1.525 1.525 0 0 0-1.632 1.136H144.2c.045-1.407 1.378-2.447 3.165-2.447 1.94 0 3.194 1.026 3.194 2.6V202h-1.518v-1.326h-.036a2.78 2.78 0 0 1-2.512 1.406 2.407 2.407 0 0 1-2.688-2.357zm5.185-.71v-.624l-1.932.132c-1.084.065-1.648.468-1.648 1.17a1.27 1.27 0 0 0 1.508 1.122 1.898 1.898 0 0 0 2.073-1.802zM155.707 193.95c1.743 0 3.003.982 3.04 2.366h-1.495a1.384 1.384 0 0 0-1.582-1.142 1.258 1.258 0 0 0-1.5 1.047c0 .485.394.814 1.237 1.02l1.318.315c1.604.387 2.197.966 2.197 2.138 0 1.42-1.347 2.403-3.274 2.403-1.853 0-3.12-.96-3.237-2.396h1.57a1.517 1.517 0 0 0 1.75 1.18c.988 0 1.61-.41 1.61-1.056 0-.505-.315-.768-1.15-.98l-1.42-.352c-1.436-.35-2.146-1.084-2.146-2.183 0-1.4 1.252-2.36 3.083-2.36zM162.87 192.26v1.786h1.523v1.253h-1.524v4.444a.865.865 0 0 0 .973 1.01 5.416 5.416 0 0 0 .542-.035v1.25a4.488 4.488 0 0 1-.893.08c-1.59 0-2.205-.607-2.205-2.145V195.3h-1.1v-1.254h1.1v-1.787h1.582zM172.947 199.67a3.2 3.2 0 0 1-3.413 2.426c-2.307 0-3.743-1.553-3.743-4.043s1.45-4.11 3.678-4.11c2.182 0 3.56 1.516 3.56 3.926v.556h-5.633v.095a2.1 2.1 0 0 0 2.168 2.287 1.83 1.83 0 0 0 1.868-1.136h1.517zm-5.545-2.372h4.036a1.94 1.94 0 0 0-1.978-2.058 2.053 2.053 0 0 0-2.058 2.058zM174.902 194.046h1.516v1.34h.03a1.904 1.904 0 0 1 1.918-1.42 2.6 2.6 0 0 1 .557.05v1.488a2.308 2.308 0 0 0-.725-.096 1.662 1.662 0 0 0-1.707 1.846V202h-1.588v-7.954z"/></g><g class="cls-12"><path class="cls-13" d="M130.454 228.016c0-2.447 1.362-4.05 3.34-4.05a2.69 2.69 0 0 1 2.505 1.398h.035v-4.41h1.582V232h-1.538v-1.348h-.03a2.723 2.723 0 0 1-2.54 1.428c-1.994 0-3.356-1.603-3.356-4.064zm1.626.007c0 1.648.842 2.71 2.13 2.71 1.276 0 2.133-1.085 2.133-2.71 0-1.62-.857-2.71-2.132-2.71-1.28 0-2.13 1.07-2.13 2.71zM147 229.67a3.2 3.2 0 0 1-3.414 2.426c-2.307 0-3.743-1.553-3.743-4.043s1.45-4.11 3.677-4.11c2.183 0 3.56 1.516 3.56 3.926v.556h-5.633v.095a2.1 2.1 0 0 0 2.168 2.287 1.83 1.83 0 0 0 1.868-1.136H147zm-5.545-2.372h4.035a1.94 1.94 0 0 0-1.977-2.058 2.053 2.053 0 0 0-2.058 2.058zM152.807 232h-1.692l-2.87-7.954h1.676l2.03 6.387h.036l2.036-6.387h1.648zM163.8 229.67a3.2 3.2 0 0 1-3.414 2.426c-2.307 0-3.742-1.553-3.742-4.043s1.45-4.11 3.676-4.11c2.183 0 3.56 1.516 3.56 3.926v.556h-5.632v.095a2.1 2.1 0 0 0 2.168 2.287 1.83 1.83 0 0 0 1.867-1.136h1.516zm-5.545-2.372h4.036a1.94 1.94 0 0 0-1.977-2.058 2.053 2.053 0 0 0-2.058 2.058zM165.82 220.955h1.59V232h-1.59v-11.045zM169.343 228.023c0-2.498 1.472-4.08 3.764-4.08s3.758 1.575 3.758 4.08c0 2.504-1.458 4.073-3.758 4.073s-3.764-1.57-3.764-4.073zm5.91 0c0-1.736-.798-2.76-2.146-2.76s-2.153 1.032-2.153 2.76c0 1.736.806 2.754 2.153 2.754s2.146-1.018 2.146-2.754zM186.203 228.023c0 2.46-1.326 4.057-3.326 4.057a2.725 2.725 0 0 1-2.52-1.384h-.028v3.94h-1.59v-10.59h1.53v1.318h.037a2.81 2.81 0 0 1 2.534-1.4c2.03 0 3.363 1.59 3.363 4.06zm-1.626 0c0-1.64-.85-2.71-2.14-2.71-1.26 0-2.116 1.09-2.123 2.71.007 1.625.857 2.71 2.124 2.71 1.29 0 2.14-1.062 2.14-2.71z"/></g><g class="cls-12"><path class="cls-13" d="M131.29 255.3h-1.1v-1.254h1.1v-.733c0-1.487.673-2.138 2.284-2.138a4.706 4.706 0 0 1 .806.073v1.21a2.82 2.82 0 0 0-.593-.06.816.816 0 0 0-.93.967v.68h1.53v1.254h-1.516v6.7h-1.58v-6.7zM142.78 259.67a3.2 3.2 0 0 1-3.413 2.426c-2.307 0-3.742-1.553-3.742-4.043s1.45-4.11 3.676-4.11c2.184 0 3.56 1.516 3.56 3.926v.556h-5.63v.095a2.1 2.1 0 0 0 2.167 2.287 1.83 1.83 0 0 0 1.867-1.136h1.516zm-5.544-2.372h4.035a1.94 1.94 0 0 0-1.976-2.058 2.053 2.053 0 0 0-2.058 2.058zM144.384 259.723c0-1.393 1.076-2.198 3.04-2.323l2.145-.125v-.615a1.406 1.406 0 0 0-1.67-1.406 1.525 1.525 0 0 0-1.634 1.136h-1.487c.043-1.407 1.376-2.447 3.163-2.447 1.94 0 3.194 1.026 3.194 2.6V262h-1.516v-1.326h-.036a2.78 2.78 0 0 1-2.512 1.406 2.407 2.407 0 0 1-2.688-2.357zm5.185-.71v-.624l-1.934.132c-1.084.065-1.648.468-1.648 1.17a1.27 1.27 0 0 0 1.51 1.122 1.898 1.898 0 0 0 2.07-1.802zM155.39 252.26v1.786h1.525v1.253h-1.524v4.444a.865.865 0 0 0 .975 1.01 5.416 5.416 0 0 0 .542-.035v1.25a4.488 4.488 0 0 1-.893.08c-1.59 0-2.205-.607-2.205-2.145V255.3h-1.1v-1.254h1.1v-1.787h1.58zM165.637 262h-1.516v-1.362h-.028a2.525 2.525 0 0 1-2.483 1.45 2.652 2.652 0 0 1-2.792-2.944v-5.098h1.59v4.798a1.608 1.608 0 0 0 1.728 1.875 1.87 1.87 0 0 0 1.912-2.09v-4.584h1.59V262zM167.863 254.046h1.516v1.34h.03a1.904 1.904 0 0 1 1.918-1.42 2.6 2.6 0 0 1 .556.05v1.488a2.308 2.308 0 0 0-.725-.096 1.662 1.662 0 0 0-1.707 1.846V262h-1.59v-7.954zM179.97 259.67a3.2 3.2 0 0 1-3.413 2.426c-2.307 0-3.743-1.553-3.743-4.043s1.45-4.11 3.677-4.11c2.183 0 3.56 1.516 3.56 3.926v.556h-5.632v.095a2.1 2.1 0 0 0 2.168 2.287 1.83 1.83 0 0 0 1.868-1.136h1.516zm-5.545-2.372h4.036a1.94 1.94 0 0 0-1.977-2.058 2.053 2.053 0 0 0-2.058 2.058zM181.96 258.52v-1.427h4.806v1.428h-4.805zM190.662 260.652h-.037V262h-1.53v-11.045h1.59v4.41h.028a2.733 2.733 0 0 1 2.52-1.4c2.006 0 3.325 1.59 3.325 4.058s-1.32 4.057-3.34 4.057a2.75 2.75 0 0 1-2.556-1.428zm.014-2.63c0 1.62.857 2.71 2.14 2.71s2.116-1.06 2.116-2.71c0-1.647-.835-2.71-2.117-2.71s-2.14 1.1-2.14 2.71zM198.425 254.046h1.516v1.34h.03a1.904 1.904 0 0 1 1.92-1.42 2.6 2.6 0 0 1 .556.05v1.488a2.308 2.308 0 0 0-.725-.096 1.662 1.662 0 0 0-1.706 1.846V262h-1.59v-7.954zM203.55 259.723c0-1.393 1.078-2.198 3.04-2.323l2.147-.125v-.615a1.406 1.406 0 0 0-1.67-1.406 1.525 1.525 0 0 0-1.633 1.136h-1.487c.044-1.407 1.377-2.447 3.164-2.447 1.942 0 3.194 1.026 3.194 2.6V262h-1.516v-1.326h-.037a2.78 2.78 0 0 1-2.51 1.406 2.407 2.407 0 0 1-2.69-2.357zm5.187-.71v-.624l-1.934.132c-1.084.065-1.648.468-1.648 1.17a1.27 1.27 0 0 0 1.51 1.122 1.898 1.898 0 0 0 2.072-1.802zM212.5 254.046h1.517v1.34h.03a2.568 2.568 0 0 1 2.512-1.428 2.617 2.617 0 0 1 2.76 2.944V262h-1.59v-4.797a1.608 1.608 0 0 0-1.72-1.883 1.87 1.87 0 0 0-1.92 2.088V262h-1.59v-7.954zM226.79 256.764a1.777 1.777 0 0 0-1.897-1.48c-1.282 0-2.13 1.07-2.13 2.74 0 1.712.863 2.738 2.137 2.738a1.75 1.75 0 0 0 1.905-1.436h1.516a3.16 3.16 0 0 1-3.427 2.77c-2.256 0-3.743-1.553-3.743-4.073 0-2.476 1.48-4.08 3.728-4.08a3.19 3.19 0 0 1 3.428 2.82h-1.516zM230.15 250.955h1.576v4.432h.036a2.575 2.575 0 0 1 2.512-1.43 2.676 2.676 0 0 1 2.798 2.96V262h-1.59v-4.775a1.66 1.66 0 0 0-1.757-1.905 1.92 1.92 0 0 0-1.985 2.124V262h-1.59v-11.045z"/></g><g class="cls-12"><path class="cls-16" d="M138.643 59h-1.29l-1.8-6.138h-.03L133.72 59h-1.288l-2.212-7.896h1.26l1.604 6.453h.03l1.808-6.453h1.23l1.81 6.453h.03l1.603-6.453h1.26zM149.042 56.744a3.11 3.11 0 0 1-3.273 2.33c-2.22 0-3.62-1.547-3.62-3.992 0-2.447 1.407-4.05 3.56-4.05 2.11 0 3.428 1.486 3.428 3.874v.498h-5.67v.073a2.26 2.26 0 0 0 2.33 2.476 1.933 1.933 0 0 0 1.985-1.21h1.26zm-5.573-2.358h4.342a2.09 2.09 0 0 0-2.124-2.234 2.21 2.21 0 0 0-2.22 2.234zM152.39 57.667h-.03V59h-1.21V47.97h1.276v4.417h.03a2.8 2.8 0 0 1 2.533-1.356c1.984 0 3.34 1.613 3.34 4.023 0 2.416-1.356 4.02-3.37 4.02a2.8 2.8 0 0 1-2.57-1.406zm.028-2.614c0 1.713.938 2.885 2.315 2.885 1.384 0 2.292-1.127 2.292-2.885 0-1.75-.908-2.887-2.292-2.887-1.377 0-2.315 1.18-2.315 2.887zM160.218 55.426V54.24h4.804v1.186h-4.804zM167.3 51.104h1.2v1.283h.03a1.905 1.905 0 0 1 1.912-1.356 2.836 2.836 0 0 1 .527.045v1.253a2.623 2.623 0 0 0-.697-.074 1.685 1.685 0 0 0-1.7 1.86V59H167.3v-7.896zM178.79 56.744a3.11 3.11 0 0 1-3.273 2.33c-2.22 0-3.618-1.547-3.618-3.992 0-2.447 1.405-4.05 3.558-4.05 2.11 0 3.428 1.486 3.428 3.874v.498h-5.67v.073a2.26 2.26 0 0 0 2.33 2.476 1.933 1.933 0 0 0 1.985-1.21h1.26zm-5.573-2.358h4.344a2.09 2.09 0 0 0-2.123-2.234 2.21 2.21 0 0 0-2.22 2.234zM188.004 55.053c0 2.41-1.362 4.02-3.354 4.02a2.78 2.78 0 0 1-2.52-1.354h-.03v3.917h-1.273V51.104h1.208v1.283h.03a2.923 2.923 0 0 1 2.556-1.356c2.015 0 3.384 1.613 3.384 4.023zm-1.303 0c0-1.744-.922-2.887-2.314-2.887-1.362 0-2.292 1.172-2.292 2.887 0 1.72.93 2.884 2.292 2.884 1.392 0 2.315-1.134 2.315-2.884zM189.557 55.053c0-2.454 1.42-4.022 3.64-4.022s3.64 1.57 3.64 4.023c0 2.445-1.42 4.02-3.64 4.02s-3.64-1.575-3.64-4.02zm5.984 0c0-1.817-.87-2.887-2.343-2.887s-2.344 1.077-2.344 2.887c0 1.808.88 2.884 2.344 2.884 1.472 0 2.344-1.076 2.344-2.884zM201.567 51.04a2.605 2.605 0 0 1 2.87 2.255h-1.222a1.484 1.484 0 0 0-1.692-1.2c-.974 0-1.626.46-1.626 1.148 0 .534.425.894 1.333 1.12l1.202.3c1.596.403 2.168.96 2.168 2.11 0 1.348-1.297 2.3-3.12 2.3-1.7 0-2.93-.923-3.055-2.292h1.282a1.605 1.605 0 0 0 1.86 1.24c1.077 0 1.75-.448 1.75-1.16 0-.555-.33-.848-1.23-1.083l-1.384-.36c-1.384-.357-2.058-1.054-2.058-2.108 0-1.333 1.21-2.27 2.922-2.27zM206.49 49.024a.806.806 0 1 1 .804.806.808.808 0 0 1-.805-.806zm.167 2.08h1.275V59h-1.275v-7.896zM212.025 49.324v1.78h1.538v1.055h-1.538v4.738a.886.886 0 0 0 .982 1.055 5.264 5.264 0 0 0 .55-.037v1.076a4.557 4.557 0 0 1-.82.067c-1.43 0-1.986-.595-1.986-2.11v-4.79h-1.098v-1.056h1.1v-1.78h1.273zM214.97 55.053c0-2.454 1.42-4.022 3.64-4.022s3.64 1.57 3.64 4.023c0 2.445-1.42 4.02-3.64 4.02s-3.64-1.575-3.64-4.02zm5.983 0c0-1.817-.87-2.887-2.344-2.887s-2.344 1.077-2.344 2.887c0 1.808.88 2.884 2.343 2.884 1.472 0 2.343-1.076 2.343-2.884zM224.19 51.104h1.2v1.283h.03a1.905 1.905 0 0 1 1.912-1.356 2.836 2.836 0 0 1 .527.045v1.253a2.623 2.623 0 0 0-.696-.074 1.685 1.685 0 0 0-1.7 1.86V59h-1.274v-7.896zM229.66 61.813v-1.077a2.93 2.93 0 0 0 .52.043c.733 0 1.128-.352 1.45-1.303l.154-.47-2.922-7.902h1.355l2.212 6.598h.028l2.212-6.598h1.34l-3.09 8.378c-.674 1.83-1.304 2.38-2.703 2.38a3.495 3.495 0 0 1-.557-.05z"/></g><g class="cls-12"><path class="cls-16" d="M130.505 169.752c0-1.355 1.04-2.154 2.96-2.27l2.21-.132v-.66c0-.98-.643-1.524-1.808-1.524a1.636 1.636 0 0 0-1.75 1.217h-1.223c.036-1.334 1.333-2.352 2.988-2.352 1.868 0 3.07.997 3.07 2.55V172h-1.21v-1.37h-.03a2.814 2.814 0 0 1-2.54 1.443 2.366 2.366 0 0 1-2.667-2.32zm5.17-.755v-.638l-2.064.132c-1.186.073-1.8.505-1.8 1.267 0 .73.636 1.207 1.632 1.207a2.05 2.05 0 0 0 2.234-1.97zM146.42 168.053c0 2.41-1.362 4.02-3.354 4.02a2.78 2.78 0 0 1-2.52-1.354h-.03v3.917h-1.273v-10.533h1.208v1.283h.03a2.923 2.923 0 0 1 2.557-1.356c2.014 0 3.383 1.613 3.383 4.023zm-1.303 0c0-1.744-.923-2.887-2.315-2.887-1.362 0-2.292 1.172-2.292 2.887 0 1.72.93 2.884 2.292 2.884 1.392 0 2.315-1.134 2.315-2.884zM148.266 162.024a.806.806 0 1 1 .805.806.808.808 0 0 1-.804-.806zm.168 2.08h1.275V172h-1.276v-7.896zM152.06 168.426v-1.187h4.803v1.186h-4.804zM159.14 164.104h1.202v1.283h.03a1.905 1.905 0 0 1 1.91-1.356 2.836 2.836 0 0 1 .528.045v1.253a2.623 2.623 0 0 0-.696-.074 1.685 1.685 0 0 0-1.7 1.86V172h-1.273v-7.896zM170.632 169.744a3.11 3.11 0 0 1-3.274 2.33c-2.22 0-3.618-1.547-3.618-3.992 0-2.447 1.406-4.05 3.56-4.05 2.11 0 3.427 1.486 3.427 3.874v.498h-5.67v.073a2.26 2.26 0 0 0 2.33 2.476 1.933 1.933 0 0 0 1.985-1.21h1.26zm-5.574-2.358h4.343a2.09 2.09 0 0 0-2.123-2.234 2.21 2.21 0 0 0-2.22 2.234zM179.845 168.053c0 2.41-1.362 4.02-3.354 4.02a2.78 2.78 0 0 1-2.52-1.354h-.028v3.917h-1.275v-10.533h1.21v1.283h.028a2.923 2.923 0 0 1 2.556-1.356c2.016 0 3.385 1.613 3.385 4.023zm-1.303 0c0-1.744-.923-2.887-2.315-2.887-1.362 0-2.292 1.172-2.292 2.887 0 1.72.93 2.884 2.292 2.884 1.392 0 2.315-1.134 2.315-2.884zM181.397 168.053c0-2.454 1.42-4.022 3.64-4.022s3.64 1.57 3.64 4.023c0 2.445-1.42 4.02-3.64 4.02s-3.64-1.575-3.64-4.02zm5.984 0c0-1.817-.87-2.887-2.342-2.887s-2.344 1.077-2.344 2.887c0 1.808.88 2.884 2.344 2.884 1.472 0 2.343-1.076 2.343-2.884zM193.408 164.04a2.605 2.605 0 0 1 2.87 2.255h-1.222a1.484 1.484 0 0 0-1.692-1.2c-.974 0-1.626.46-1.626 1.148 0 .534.425.894 1.333 1.12l1.202.3c1.597.403 2.168.96 2.168 2.11 0 1.348-1.296 2.3-3.12 2.3-1.7 0-2.93-.923-3.054-2.292h1.282a1.605 1.605 0 0 0 1.86 1.24c1.077 0 1.75-.448 1.75-1.16 0-.555-.33-.848-1.23-1.083l-1.384-.36c-1.384-.357-2.058-1.054-2.058-2.108 0-1.333 1.208-2.27 2.922-2.27zM198.33 162.024a.806.806 0 1 1 .805.806.808.808 0 0 1-.805-.806zm.168 2.08h1.274V172h-1.274v-7.896zM203.866 162.324v1.78h1.538v1.055h-1.538v4.738a.886.886 0 0 0 .982 1.055 5.264 5.264 0 0 0 .55-.037v1.076a4.557 4.557 0 0 1-.82.067c-1.43 0-1.986-.595-1.986-2.11v-4.79h-1.1v-1.055h1.1v-1.78h1.274zM206.81 168.053c0-2.454 1.42-4.022 3.64-4.022s3.64 1.57 3.64 4.023c0 2.445-1.42 4.02-3.64 4.02s-3.64-1.575-3.64-4.02zm5.984 0c0-1.817-.872-2.887-2.344-2.887s-2.344 1.077-2.344 2.887c0 1.808.88 2.884 2.344 2.884 1.472 0 2.344-1.076 2.344-2.884zM216.03 164.104h1.202v1.283h.03a1.905 1.905 0 0 1 1.91-1.356 2.836 2.836 0 0 1 .528.045v1.253a2.623 2.623 0 0 0-.696-.074 1.685 1.685 0 0 0-1.7 1.86V172h-1.273v-7.896zM221.5 174.813v-1.077a2.93 2.93 0 0 0 .52.043c.733 0 1.13-.352 1.45-1.303l.155-.47-2.922-7.902h1.355l2.212 6.598h.03l2.21-6.598h1.34l-3.09 8.378c-.674 1.83-1.303 2.38-2.702 2.38a3.495 3.495 0 0 1-.557-.05z"/></g><circle id="Oval-1-Copy-57" class="cls-14" cx="116.5" cy="309.5" r="4.5"/><g class="cls-12"><path class="cls-13" d="M141.667 315h-1.5v-7.778h-.052l-3.186 7.698h-1.217l-3.193-7.698h-.052V315h-1.494v-10.568h1.897l3.422 8.34h.058l3.413-8.34h1.905V315zM143.696 311.023c0-2.498 1.472-4.08 3.764-4.08s3.758 1.575 3.758 4.08c0 2.504-1.458 4.073-3.758 4.073s-3.764-1.57-3.764-4.073zm5.91 0c0-1.736-.798-2.76-2.146-2.76s-2.153 1.032-2.153 2.76c0 1.736.806 2.754 2.153 2.754s2.146-1.018 2.146-2.754zM153.092 307.046h1.516v1.34h.03a2.568 2.568 0 0 1 2.512-1.428 2.617 2.617 0 0 1 2.76 2.944V315h-1.588v-4.797a1.608 1.608 0 0 0-1.72-1.883 1.87 1.87 0 0 0-1.92 2.088V315h-1.59v-7.954zM162.056 315.615h1.604a1.806 1.806 0 0 0 1.89 1.004c1.26 0 2.073-.66 2.073-1.7v-1.312h-.037a2.768 2.768 0 0 1-2.527 1.37c-1.986 0-3.32-1.56-3.32-3.984 0-2.454 1.32-4.03 3.356-4.03a2.804 2.804 0 0 1 2.54 1.4h.03v-1.318h1.54v7.75c0 1.895-1.43 3.067-3.722 3.067-1.912 0-3.274-.885-3.428-2.248zm5.567-4.614c0-1.61-.857-2.688-2.146-2.688-1.282 0-2.11 1.055-2.11 2.69 0 1.625.828 2.658 2.11 2.658 1.29 0 2.146-1.055 2.146-2.66zM171.072 311.023c0-2.498 1.472-4.08 3.764-4.08s3.758 1.575 3.758 4.08c0 2.504-1.458 4.073-3.758 4.073s-3.764-1.57-3.764-4.073zm5.91 0c0-1.736-.798-2.76-2.146-2.76s-2.153 1.032-2.153 2.76c0 1.736.806 2.754 2.153 2.754s2.146-1.018 2.146-2.754zM184.416 304.432c3.15 0 5.002 1.933 5.002 5.265 0 3.34-1.853 5.303-5.002 5.303h-3.787v-10.568h3.786zm-2.146 9.147h1.992c2.24 0 3.487-1.37 3.487-3.868 0-2.49-1.247-3.867-3.488-3.867h-1.992v7.734zM191.58 315v-10.568h4.327c1.868 0 3.098 1.04 3.098 2.636a2.34 2.34 0 0 1-1.875 2.3v.058a2.548 2.548 0 0 1 2.403 2.586c0 1.86-1.355 2.988-3.61 2.988h-4.344zm1.64-6.072h1.94c1.428 0 2.212-.586 2.212-1.633 0-.982-.674-1.524-1.868-1.524h-2.285v3.158zm2.372 4.732c1.48 0 2.263-.608 2.263-1.75s-.813-1.73-2.358-1.73h-2.278v3.48h2.372z"/></g><path id="Rectangle-14-Copy-7" class="cls-3" d="M733 86h2v32h-2z"/><path id="Rectangle-2-Copy-19" class="cls-17" d="M0 30h90v390H0z"/><path id="Rectangle-3-Copy-39" class="cls-18" d="M102 140h260v1H102z"/><path id="Rectangle-3-Copy-40" class="cls-18" d="M102 283h260v1H102z"/><path id="Rectangle-3-Copy-42" class="cls-19" d="M387 283h275v1H387z"/><path id="Rectangle-3-Copy-43" class="cls-3" d="M387 236h275v1H387z"/><path id="Rectangle-5-Copy-42" class="cls-18" d="M374 30h1v390h-1z"/><path id="Rectangle-5-Copy-43" class="cls-19" d="M674 133h1v287h-1z"/><path id="Rectangle-5-Copy-44" class="cls-19" d="M777 133h1v45h-1z"/><path id="Rectangle-5-Copy-45" class="cls-19" d="M880 133h1v45h-1z"/><path id="Rectangle-5-Copy-46" class="cls-19" d="M983 133h1v45h-1z"/><path id="Rectangle-24-Copy-7" class="cls-2" d="M675 178h404v242H675z"/><path class="cls-20" d="M.5 29.5V3A2.476 2.476 0 0 1 3 .5h1074a2.476 2.476 0 0 1 2.5 2.5v26.5H.5z"/><path class="cls-18" d="M1077 1a2.006 2.006 0 0 1 2 2v26H1V3a2.006 2.006 0 0 1 2-2h1074m0-1H3a2.946 2.946 0 0 0-3 3v27h1080V3a2.946 2.946 0 0 0-3-3z"/><path class="cls-18" d="M18 10a4.95 4.95 0 0 1 5 5c0 2.7-3.1 5-5 5a5 5 0 0 1 0-10m0-1a6 6 0 0 0 0 12c2.4 0 6-2.7 6-6a6.018 6.018 0 0 0-6-6zM39 10a5 5 0 1 1-5 5 4.95 4.95 0 0 1 5-5m0-1a6 6 0 1 0 6 6 6.018 6.018 0 0 0-6-6zM60 10a5 5 0 1 1-5 5 4.95 4.95 0 0 1 5-5m0-1a6 6 0 1 0 6 6 6.018 6.018 0 0 0-6-6z"/><path id="Rectangle-3-Copy-44" class="cls-19" d="M675 178h403v1H675z"/><path id="Rectangle-3-Copy-45" class="cls-19" d="M374 132h705v1H374z"/><path id="Rectangle-232-Copy-9" class="cls-21" d="M28.5 171h33a4.48 4.48 0 0 1 4.5 4.5 4.48 4.48 0 0 1-4.5 4.5h-33a4.48 4.48 0 0 1-4.5-4.5 4.48 4.48 0 0 1 4.5-4.5z"/><path id="Rectangle-232-Copy-10" class="cls-21" d="M33 120h24a8.963 8.963 0 0 1 9 9v24a8.963 8.963 0 0 1-9 9H33a8.963 8.963 0 0 1-9-9v-24a8.963 8.963 0 0 1 9-9z"/><path id="Rectangle-232-Copy-12" class="cls-21" d="M28.5 255h33a4.48 4.48 0 0 1 4.5 4.5 4.48 4.48 0 0 1-4.5 4.5h-33a4.48 4.48 0 0 1-4.5-4.5 4.48 4.48 0 0 1 4.5-4.5z"/><path id="Rectangle-232-Copy-11" class="cls-21" d="M33 204h24a8.963 8.963 0 0 1 9 9v24a8.963 8.963 0 0 1-9 9H33a8.963 8.963 0 0 1-9-9v-24a8.963 8.963 0 0 1 9-9z"/><path id="Rectangle-236-Copy-4" class="cls-6" d="M615.5 53h134a4.48 4.48 0 0 1 4.5 4.5 4.48 4.48 0 0 1-4.5 4.5h-134a4.48 4.48 0 0 1-4.5-4.5 4.48 4.48 0 0 1 4.5-4.5z"/><path id="Rectangle-236-Copy-5" class="cls-6" d="M767.5 53h70a4.48 4.48 0 0 1 4.5 4.5 4.48 4.48 0 0 1-4.5 4.5h-70a4.48 4.48 0 0 1-4.5-4.5 4.48 4.48 0 0 1 4.5-4.5z"/><path id="Rectangle-3438" class="cls-14" d="M126.5 277l-10 10-10-10 9.6-9.6a.483.483 0 0 1 .7 0z"/><path id="Rectangle-3437" class="cls-14" d="M85 272h61a2.006 2.006 0 0 1 2 2v19a2.006 2.006 0 0 1-2 2H85a2.006 2.006 0 0 1-2-2v-19a2.006 2.006 0 0 1 2-2z"/><g class="cls-12"><path class="cls-1" d="M93.237 287.5h-1.422v-9.16h3.625a2.74 2.74 0 0 1 3.034 2.818 2.638 2.638 0 0 1-1.777 2.615l2.056 3.727H97.11l-1.867-3.49h-2.006v3.49zm0-4.703h2.044a1.523 1.523 0 0 0 1.734-1.607 1.56 1.56 0 0 0-1.77-1.6h-2.007v3.207zM106.167 287.5h-1.314v-1.098h-.107a2.073 2.073 0 0 1-2.09 1.23 2.244 2.244 0 0 1-2.38-2.557v-4.487h1.366v4.132c0 1.117.45 1.65 1.453 1.65a1.57 1.57 0 0 0 1.708-1.74v-4.042h1.364v6.912zM108.148 280.588h1.314v1.098h.102a2.07 2.07 0 0 1 2.063-1.232 2.25 2.25 0 0 1 2.393 2.57v4.476h-1.365v-4.133a1.392 1.392 0 0 0-1.492-1.662 1.585 1.585 0 0 0-1.65 1.752v4.043h-1.365v-6.912zM115.937 280.588h1.314v1.098h.102a2.07 2.07 0 0 1 2.063-1.232 2.25 2.25 0 0 1 2.393 2.57v4.476h-1.365v-4.133a1.392 1.392 0 0 0-1.49-1.662 1.585 1.585 0 0 0-1.652 1.752v4.043h-1.363v-6.912zM123.547 278.543a.884.884 0 1 1 .883.832.84.84 0 0 1-.883-.832zm.203 2.045h1.36v6.912h-1.36v-6.912zM127.115 280.588h1.314v1.098h.1a2.07 2.07 0 0 1 2.063-1.232 2.25 2.25 0 0 1 2.393 2.57v4.476h-1.364v-4.133a1.392 1.392 0 0 0-1.492-1.662 1.585 1.585 0 0 0-1.65 1.752v4.043h-1.365v-6.912zM134.827 288.19h1.397a1.453 1.453 0 0 0 1.612.828c1.136 0 1.81-.54 1.81-1.455v-1.327h-.103a2.32 2.32 0 0 1-2.132 1.162c-1.764 0-2.856-1.365-2.856-3.433 0-2.108 1.105-3.492 2.87-3.492a2.396 2.396 0 0 1 2.17 1.218h.108v-1.102h1.308v6.97c0 1.58-1.238 2.583-3.193 2.583-1.727 0-2.844-.774-2.99-1.95zm2.97-6.492c-1.173 0-1.834.882-1.834 2.26s.66 2.26 1.835 2.26c1.168 0 1.872-.876 1.872-2.26 0-1.378-.71-2.26-1.872-2.26z"/></g><path id="Rectangle-5-Copy-49" class="cls-19" d="M1079 30h1v390h-1z"/><path class="cls-22" d="M29.494 68.533c2.233-5.77-6.21-5.118-5.92-9.918.163-2.673 4.36-5.04 6.763-4.463 3.955.95 4.32 6.28 4.625 9.597"/><path class="cls-23" d="M29.494 69.1a.568.568 0 0 1-.528-.772c1.05-2.712-.517-3.7-2.5-4.952-1.692-1.068-3.61-2.28-3.457-4.795a4.974 4.974 0 0 1 2.258-3.524 6.877 6.877 0 0 1 5.2-1.455c4.233 1.016 4.713 6.3 5.03 9.794l.028.303a.567.567 0 0 1-1.13.104l-.027-.303c-.29-3.173-.724-7.968-4.166-8.794a5.805 5.805 0 0 0-4.262 1.265 3.947 3.947 0 0 0-1.802 2.682c-.112 1.847 1.298 2.737 2.93 3.767 1.934 1.22 4.34 2.74 2.953 6.32a.567.567 0 0 1-.53.363z"/><path class="cls-23" d="M32.378 62.527s-.783-3.648-3.505-4.4c-1.83-.507-2.874.764-2.702 1.7.263 1.42 4.33 3.337 4.914 4.33"/><path class="cls-22" d="M60.505 68.533c-2.233-5.77 6.212-5.118 5.92-9.918-.162-2.673-4.36-5.04-6.762-4.463-3.955.95-4.32 6.28-4.625 9.597"/><path class="cls-23" d="M60.505 69.1a.567.567 0 0 1-.53-.362c-1.385-3.582 1.02-5.1 2.954-6.32 1.63-1.03 3.042-1.92 2.93-3.768a3.947 3.947 0 0 0-1.803-2.682 5.803 5.803 0 0 0-4.262-1.265c-3.44.826-3.876 5.62-4.164 8.794l-.027.304a.567.567 0 0 1-1.13-.103l.028-.302c.32-3.496.8-8.78 5.03-9.794a6.877 6.877 0 0 1 5.202 1.456 4.975 4.975 0 0 1 2.26 3.525c.152 2.517-1.766 3.728-3.458 4.796-1.983 1.252-3.55 2.24-2.5 4.952a.567.567 0 0 1-.53.772z"/><path class="cls-23" d="M57.622 62.527s.783-3.648 3.505-4.4c1.83-.507 2.874.764 2.702 1.7-.263 1.42-4.332 3.337-4.915 4.33"/><path class="cls-22" d="M62.56 78.04v-1.878c-.62-6.406-1.574-14.23-4.66-16.247-2.803-1.83-6.114-2.257-10.103-2.61a6.213 6.213 0 0 1 1.048-1.368c-1.224.03-1.717-.143-2.834.594.406-.38.795-1.018 1.22-1.405-1.94-.323-3.857.715-5.392 2.066-4.592.27-8.08 1.015-10.697 3.09-2.845 2.253-3.782 9.483-4.46 16.17v1.59c0 10.158 12.55 18.393 17.94 18.393s17.94-8.235 17.94-18.392z"/><path class="cls-24" d="M44.62 91.523c-7.16 0-16.375-7.223-17.793-16.484q-.075.706-.146 1.41v1.59c0 10.158 12.55 18.393 17.94 18.393s17.94-8.235 17.94-18.392v-1.878l-.128-1.273C61.116 84.22 51.78 91.522 44.62 91.522z"/><path class="cls-25" d="M57.59 60.39c-2.706-1.768-5.92-2.174-9.843-2.52a.567.567 0 0 1-.447-.836 5.646 5.646 0 0 1 .32-.518 2.43 2.43 0 0 0-1.297.488.567.567 0 0 1-.7-.886 4.47 4.47 0 0 0 .4-.457 7.467 7.467 0 0 0-3.81 1.957.567.567 0 0 1-.342.14c-5.022.296-8.125 1.183-10.377 2.966-2.457 1.946-3.436 8.2-4.093 14.297C28.813 84 37.8 90.956 44.62 90.956c6.91 0 15.93-7.025 17.242-16.092-.5-4.993-1.468-12.64-4.273-14.474z"/><path class="cls-23" d="M27.4 75.02c.657-6.096 1.636-12.35 4.093-14.297 2.252-1.783 5.355-2.67 10.378-2.966a.567.567 0 0 0 .342-.14 7.467 7.467 0 0 1 3.812-1.956 4.47 4.47 0 0 1-.402.458.567.567 0 0 0 .7.886 2.43 2.43 0 0 1 1.3-.488 5.646 5.646 0 0 0-.322.518.567.567 0 0 0 .447.836c3.922.346 7.137.752 9.842 2.52 2.804 1.833 3.77 9.48 4.272 14.474.002-.018.006-.036.01-.054l.606-4.305C61.76 65.485 60.594 61 58.21 59.44c-2.694-1.76-5.75-2.262-9.406-2.612a6.31 6.31 0 0 1 .442-.49.567.567 0 0 0-.4-.968h-.015c-.22.006-.418.004-.6.003-.17 0-.333-.002-.49.003a.567.567 0 0 0-.417-.81c-2.252-.376-4.325.887-5.71 2.07-5.162.323-8.406 1.283-10.824 3.198-2.214 1.753-3.312 6.07-4.024 11.05l.622 4.07c.003.02.01.043.012.066zM63.123 76.108l.003.054c0-.018 0-.036-.003-.055q-.068-.708-.142-1.424l.016.15c.044.428.086.855.127 1.275zM26.262 74.997q-.075.696-.145 1.395a.554.554 0 0 0-.004.057v1.59l.004-1.648q.07-.695.145-1.395z"/><path class="cls-24" d="M62.522 70.193l-.044.31c.196 1.37.36 2.78.503 4.18zM26.73 70.645l-.466 4.333-.002.02c.15-1.395.313-2.777.504-4.113z"/><path class="cls-26" d="M44.62 90.956C37.8 90.956 28.812 84 27.4 75.02q-.08.732-.152 1.458v1.563c0 5.812 4.23 10.376 6.754 12.58 3.537 3.088 7.903 5.246 10.617 5.246s7.08-2.158 10.617-5.247c2.523-2.204 6.754-6.768 6.754-12.58v-1.85c-.038-.414-.08-.86-.128-1.326C60.55 83.93 51.53 90.956 44.62 90.956z"/><path class="cls-27" d="M63.123 76.108c-.04-.42-.083-.847-.127-1.276l-.015-.15c-.143-1.4-.306-2.808-.502-4.177l-.607 4.305-.008.054c.047.467.09.912.13 1.325v1.85c0 5.812-4.232 10.376-6.755 12.58-3.537 3.088-7.903 5.246-10.618 5.246S37.54 93.708 34 90.62c-2.523-2.204-6.754-6.768-6.754-12.58v-1.562q.073-.725.152-1.458c-.003-.023-.01-.045-.012-.067l-.623-4.068c-.19 1.336-.354 2.718-.503 4.112q-.075.7-.145 1.395l-.004 1.65c0 6.258 4.475 11.1 7.143 13.43C36.982 94.728 41.656 97 44.62 97s7.637-2.273 11.363-5.527c2.668-2.33 7.143-7.173 7.143-13.432v-1.878z"/><path class="cls-28" d="M30.954 66.336a.567.567 0 0 1-.48-.865 7.514 7.514 0 0 1 6.118-3.342.567.567 0 1 1 0 1.134 6.438 6.438 0 0 0-5.155 2.805.566.566 0 0 1-.483.27z"/><circle class="cls-28" cx="34.374" cy="67.776" r="1.701"/><path class="cls-28" d="M58.73 66.336a.567.567 0 0 1-.483-.267 6.363 6.363 0 0 0-5.155-2.808.567.567 0 1 1 0-1.134 7.515 7.515 0 0 1 6.12 3.343.567.567 0 0 1-.483.866z"/><circle class="cls-28" cx="55.31" cy="67.775" r="1.701"/><path class="cls-29" d="M39.223 68.784c3.31-4.743 17.67-3.35 11.796 11.835-.853 2.21-1.866 4.386-2.814 6.558-.103.12-.178-.464-.387-.405-1.014 1.663-2.263.9-3.322-.62-.294.33-2.39.937-2.697 1.258-3.15-3.81-5.888-13.882-2.577-18.626z"/><path class="cls-23" d="M46.527 88.278a2.97 2.97 0 0 1-2.176-1.374 17.1 17.1 0 0 1-1.018.42 8.836 8.836 0 0 0-1.134.492.567.567 0 0 1-.834-.043c-3.064-3.706-6.2-14.164-2.606-19.313 1.89-2.708 6.756-3.5 10.21-1.662 1.996 1.063 6.242 4.556 2.58 14.026-.634 1.645-1.364 3.288-2.07 4.876q-.38.853-.753 1.705a.57.57 0 0 1-.09.143.6.6 0 0 1-.54.207.59.59 0 0 1-.243-.09 1.816 1.816 0 0 1-1.274.612zm-4.315-.476l-.007.007zm2.286-2.216h.034a.567.567 0 0 1 .432.243 2.514 2.514 0 0 0 1.58 1.314 1.195 1.195 0 0 0 .79-.666.566.566 0 0 1 .33-.25.67.67 0 0 1 .345-.01q.214-.49.432-.978c.7-1.576 1.424-3.205 2.048-4.825 2.35-6.072 1.6-10.67-2.055-12.616-2.935-1.563-7.186-.927-8.747 1.31-2.953 4.23-.752 13.514 2.253 17.56.25-.116.574-.244.98-.403a8.782 8.782 0 0 0 1.17-.51.567.567 0 0 1 .408-.17zm-.414.18l-.01.01zm-4.86-16.982z"/><path class="cls-23" d="M45.488 81.074h-.976a.567.567 0 0 1 0-1.134h.977a.567.567 0 0 1-.002 1.134zM49.177 70.543c-.567-.587-2.315-.885-4.177-.896-1.86.01-3.61.31-4.177.896C39.5 71.91 42.587 75.036 45 75.23c2.414-.194 5.5-3.32 4.177-4.687z"/><path class="cls-23" d="M45.01 81.074a.567.567 0 0 1-.567-.567v-5.275a.567.567 0 0 1 1.134 0v5.275a.567.567 0 0 1-.567.567z"/><path class="cls-1" d="M47.586 71.625a.482.482 0 0 1-.185-.037 18.02 18.02 0 0 0-4.783-.005.483.483 0 1 1-.368-.894 16.55 16.55 0 0 1 5.52.005.483.483 0 0 1-.184.93z"/></svg>