<svg id="Layer_1" data-name="Layer 1" xmlns="http://www.w3.org/2000/svg" xmlns:xlink="http://www.w3.org/1999/xlink" viewBox="0 0 1080 420"><defs><style>.cls-1{fill:#fff}.cls-2{fill:#f7f7f7}.cls-3{fill:#e6e6e6}.cls-4{fill:#e8e8e8}.cls-5{fill:url(#linear-gradient)}.cls-6{fill:#eee}.cls-7{fill:url(#linear-gradient-2)}.cls-8{fill:url(#linear-gradient-3)}.cls-9{fill:url(#linear-gradient-4)}.cls-10{fill:url(#linear-gradient-5)}.cls-11{fill:url(#linear-gradient-6)}.cls-12{fill:#834eab}.cls-13{fill:#e0e0e0}.cls-14{fill:#e1e1e1}.cls-15{fill:#f8f8f8}.cls-16{fill:#7944a3}.cls-17{fill:#60cd77}.cls-18{fill:#6eb87e}.cls-19{fill:#dff8e4}.cls-20{fill:#0f0b08;opacity:.7;isolation:isolate}.cls-21{fill:#853cbe}.cls-22{fill:#44275e}.cls-23{fill:#231f20}.cls-24{fill:none}.cls-25{fill:#682f94}.cls-26{fill:#351f49}.cls-27{fill:#2f1244}.cls-28{fill:#ccadd2}</style><linearGradient id="linear-gradient" x1="178.692" y1="-63.056" x2="177.692" y2="-63.056" gradientTransform="matrix(78 0 0 9 -13443 670)" gradientUnits="userSpaceOnUse"><stop offset="0" stop-color="#e8e8e8" stop-opacity="0"/><stop offset="1" stop-color="#e8e8e8"/></linearGradient><linearGradient id="linear-gradient-2" x1="179" y1="-63.056" x2="178" y2="-63.056" gradientTransform="matrix(90 0 0 9 -15603 765)" xlink:href="#linear-gradient"/><linearGradient id="linear-gradient-3" x1="179.8" y1="-63.056" x2="178.8" y2="-63.056" gradientTransform="matrix(150 0 0 9 -26403 786)" xlink:href="#linear-gradient"/><linearGradient id="linear-gradient-4" x1="178" y1="-63.056" x2="177" y2="-63.056" gradientTransform="matrix(60 0 0 9 -10203 818)" xlink:href="#linear-gradient"/><linearGradient id="linear-gradient-5" x1="179.462" y1="-63.056" x2="178.462" y2="-63.056" gradientTransform="matrix(117 0 0 9 -20331 670)" xlink:href="#linear-gradient"/><linearGradient id="linear-gradient-6" x1="180.417" y1="-63.056" x2="179.417" y2="-63.056" gradientTransform="matrix(309 0 0 9 -54697 670)" xlink:href="#linear-gradient"/></defs><title>updates</title><path id="Rectangle-326" class="cls-1" d="M374 30h705v390H374z"/><path class="cls-2" d="M390 265a2.006 2.006 0 0 1-2-2v-82a2.006 2.006 0 0 1 2-2h269a2.006 2.006 0 0 1 2 2v82a2.006 2.006 0 0 1-2 2H390z"/><path class="cls-3" d="M659 180a.945.945 0 0 1 1 1v82a.945.945 0 0 1-1 1H390a.945.945 0 0 1-1-1v-82a.945.945 0 0 1 1-1h269m0-2H390a2.946 2.946 0 0 0-3 3v82a2.946 2.946 0 0 0 3 3h269a2.946 2.946 0 0 0 3-3v-82a2.946 2.946 0 0 0-3-3z"/><path class="cls-2" d="M692 119a2.006 2.006 0 0 1-2-2V87a2.006 2.006 0 0 1 2-2h360a2.006 2.006 0 0 1 2 2v30a2.006 2.006 0 0 1-2 2H692z"/><path class="cls-3" d="M1052 86a.945.945 0 0 1 1 1v30a.945.945 0 0 1-1 1H692a.945.945 0 0 1-1-1V87a.945.945 0 0 1 1-1h360m0-2H692a2.946 2.946 0 0 0-3 3v30a2.946 2.946 0 0 0 3 3h360a2.946 2.946 0 0 0 3-3V87a2.946 2.946 0 0 0-3-3z"/><path class="cls-2" d="M522 119a2.006 2.006 0 0 1-2-2V87a2.006 2.006 0 0 1 2-2h156a2.006 2.006 0 0 1 2 2v30a2.006 2.006 0 0 1-2 2H522z"/><path class="cls-3" d="M678 86a.945.945 0 0 1 1 1v30a.945.945 0 0 1-1 1H522a.945.945 0 0 1-1-1V87a.945.945 0 0 1 1-1h156m0-2H522a2.946 2.946 0 0 0-3 3v30a2.946 2.946 0 0 0 3 3h156a2.946 2.946 0 0 0 3-3V87a2.946 2.946 0 0 0-3-3z"/><path class="cls-2" d="M390 119a2.006 2.006 0 0 1-2-2V87a2.006 2.006 0 0 1 2-2h117a2.006 2.006 0 0 1 2 2v30a2.006 2.006 0 0 1-2 2H390z"/><path class="cls-3" d="M507 86a.945.945 0 0 1 1 1v30a.945.945 0 0 1-1 1H390a.945.945 0 0 1-1-1V87a.945.945 0 0 1 1-1h117m0-2H390a2.946 2.946 0 0 0-3 3v30a2.946 2.946 0 0 0 3 3h117a2.946 2.946 0 0 0 3-3V87a2.946 2.946 0 0 0-3-3z"/><path id="Rectangle-2-Copy-18" class="cls-2" d="M90 30h284v390H90z"/><circle id="Oval-1-Copy-45" class="cls-4" cx="406.5" cy="102.5" r="4.5"/><path id="Rectangle-176-Copy-48" class="cls-5" d="M421.5 98h69a4.48 4.48 0 0 1 4.5 4.5 4.48 4.48 0 0 1-4.5 4.5h-69a4.48 4.48 0 0 1-4.5-4.5 4.48 4.48 0 0 1 4.5-4.5z"/><path id="Rectangle-176-Copy-49" class="cls-6" d="M391.5 151h79a4.48 4.48 0 0 1 4.5 4.5 4.48 4.48 0 0 1-4.5 4.5h-79a4.48 4.48 0 0 1-4.5-4.5 4.48 4.48 0 0 1 4.5-4.5z"/><path id="Rectangle-176-Copy-50" class="cls-7" d="M421.5 193h81a4.48 4.48 0 0 1 4.5 4.5 4.48 4.48 0 0 1-4.5 4.5h-81a4.48 4.48 0 0 1-4.5-4.5 4.48 4.48 0 0 1 4.5-4.5z"/><path id="Rectangle-176-Copy-51" class="cls-4" d="M406.5 193a4.48 4.48 0 0 1 4.5 4.5 4.48 4.48 0 0 1-4.5 4.5 4.48 4.48 0 0 1-4.5-4.5 4.48 4.48 0 0 1 4.5-4.5z"/><path id="Rectangle-176-Copy-52" class="cls-8" d="M421.5 214h141a4.48 4.48 0 0 1 4.5 4.5 4.48 4.48 0 0 1-4.5 4.5h-141a4.48 4.48 0 0 1-4.5-4.5 4.48 4.48 0 0 1 4.5-4.5z"/><path id="Rectangle-176-Copy-53" class="cls-9" d="M421.5 246h51a4.48 4.48 0 0 1 4.5 4.5 4.48 4.48 0 0 1-4.5 4.5h-51a4.48 4.48 0 0 1-4.5-4.5 4.48 4.48 0 0 1 4.5-4.5z"/><path id="Rectangle-176-Copy-54" class="cls-4" d="M627.5 246h15a4.48 4.48 0 0 1 4.5 4.5 4.48 4.48 0 0 1-4.5 4.5h-15a4.48 4.48 0 0 1-4.5-4.5 4.48 4.48 0 0 1 4.5-4.5z"/><path id="Rectangle-176-Copy-55" class="cls-6" d="M694.5 151h63a4.48 4.48 0 0 1 4.5 4.5 4.48 4.48 0 0 1-4.5 4.5h-63a4.48 4.48 0 0 1-4.5-4.5 4.48 4.48 0 0 1 4.5-4.5z"/><path id="Rectangle-176-Copy-56" class="cls-6" d="M797.5 151h63a4.48 4.48 0 0 1 4.5 4.5 4.48 4.48 0 0 1-4.5 4.5h-63a4.48 4.48 0 0 1-4.5-4.5 4.48 4.48 0 0 1 4.5-4.5z"/><path id="Rectangle-176-Copy-57" class="cls-6" d="M900.5 151h63a4.48 4.48 0 0 1 4.5 4.5 4.48 4.48 0 0 1-4.5 4.5h-63a4.48 4.48 0 0 1-4.5-4.5 4.48 4.48 0 0 1 4.5-4.5z"/><path id="Rectangle-176-Copy-58" class="cls-6" d="M391.5 305h79a4.48 4.48 0 0 1 4.5 4.5 4.48 4.48 0 0 1-4.5 4.5h-79a4.48 4.48 0 0 1-4.5-4.5 4.48 4.48 0 0 1 4.5-4.5z"/><circle id="Oval-1-Copy-46" class="cls-4" cx="538.5" cy="102.5" r="4.5"/><path id="Rectangle-176-Copy-59" class="cls-10" d="M553.5 98h108a4.48 4.48 0 0 1 4.5 4.5 4.48 4.48 0 0 1-4.5 4.5h-108a4.48 4.48 0 0 1-4.5-4.5 4.48 4.48 0 0 1 4.5-4.5z"/><path id="Rectangle-176-Copy-60" class="cls-4" d="M704.5 98h16a4.48 4.48 0 0 1 4.5 4.5 4.48 4.48 0 0 1-4.5 4.5h-16a4.48 4.48 0 0 1-4.5-4.5 4.48 4.48 0 0 1 4.5-4.5z"/><path id="Rectangle-176-Copy-61" class="cls-11" d="M747.5 98h300a4.48 4.48 0 0 1 4.5 4.5 4.48 4.48 0 0 1-4.5 4.5h-300a4.48 4.48 0 0 1-4.5-4.5 4.48 4.48 0 0 1 4.5-4.5z"/><path id="Rectangle-14-Copy-7" class="cls-3" d="M733 86h2v32h-2z"/><path id="Rectangle-2-Copy-19" class="cls-12" d="M0 30h90v390H0z"/><path id="Rectangle-3-Copy-42" class="cls-13" d="M387 283h275v1H387z"/><path id="Rectangle-3-Copy-43" class="cls-3" d="M387 236h275v1H387z"/><path id="Rectangle-5-Copy-42" class="cls-14" d="M374 30h1v390h-1z"/><path id="Rectangle-5-Copy-43" class="cls-13" d="M674 133h1v287h-1z"/><path id="Rectangle-5-Copy-44" class="cls-13" d="M777 133h1v45h-1z"/><path id="Rectangle-5-Copy-45" class="cls-13" d="M880 133h1v45h-1z"/><path id="Rectangle-5-Copy-46" class="cls-13" d="M983 133h1v45h-1z"/><path id="Rectangle-24-Copy-7" class="cls-2" d="M675 178h404v242H675z"/><path class="cls-15" d="M.5 29.5V3A2.476 2.476 0 0 1 3 .5h1074a2.476 2.476 0 0 1 2.5 2.5v26.5H.5z"/><path class="cls-14" d="M1077 1a2.006 2.006 0 0 1 2 2v26H1V3a2.006 2.006 0 0 1 2-2h1074m0-1H3a2.946 2.946 0 0 0-3 3v27h1080V3a2.946 2.946 0 0 0-3-3z"/><path class="cls-14" d="M18 10a5 5 0 1 1-5 5 4.95 4.95 0 0 1 5-5m0-1a6 6 0 1 0 6 6 6.018 6.018 0 0 0-6-6zM39 10a5 5 0 1 1-5 5 4.95 4.95 0 0 1 5-5m0-1a6 6 0 1 0 6 6 6.018 6.018 0 0 0-6-6zM60 10a5 5 0 1 1-5 5 4.95 4.95 0 0 1 5-5m0-1a6 6 0 1 0 6 6 6.018 6.018 0 0 0-6-6z"/><path id="Rectangle-3-Copy-44" class="cls-13" d="M675 178h403v1H675z"/><path id="Rectangle-3-Copy-45" class="cls-13" d="M374 132h705v1H374z"/><path id="Rectangle-232-Copy-9" class="cls-16" d="M28.5 171h33a4.48 4.48 0 0 1 4.5 4.5 4.48 4.48 0 0 1-4.5 4.5h-33a4.48 4.48 0 0 1-4.5-4.5 4.48 4.48 0 0 1 4.5-4.5z"/><path id="Rectangle-232-Copy-10" class="cls-16" d="M33 120h24a8.963 8.963 0 0 1 9 9v24a8.963 8.963 0 0 1-9 9H33a8.963 8.963 0 0 1-9-9v-24a8.963 8.963 0 0 1 9-9z"/><path id="Rectangle-232-Copy-12" class="cls-16" d="M28.5 255h33a4.48 4.48 0 0 1 4.5 4.5 4.48 4.48 0 0 1-4.5 4.5h-33a4.48 4.48 0 0 1-4.5-4.5 4.48 4.48 0 0 1 4.5-4.5z"/><path id="Rectangle-232-Copy-11" class="cls-16" d="M33 204h24a8.963 8.963 0 0 1 9 9v24a8.963 8.963 0 0 1-9 9H33a8.963 8.963 0 0 1-9-9v-24a8.963 8.963 0 0 1 9-9z"/><path id="Rectangle-236-Copy-4" class="cls-6" d="M615.5 53h134a4.48 4.48 0 0 1 4.5 4.5 4.48 4.48 0 0 1-4.5 4.5h-134a4.48 4.48 0 0 1-4.5-4.5 4.48 4.48 0 0 1 4.5-4.5z"/><path id="Rectangle-236-Copy-5" class="cls-6" d="M767.5 53h70a4.48 4.48 0 0 1 4.5 4.5 4.48 4.48 0 0 1-4.5 4.5h-70a4.48 4.48 0 0 1-4.5-4.5 4.48 4.48 0 0 1 4.5-4.5z"/><path id="Rectangle-5-Copy-49" class="cls-13" d="M1079 30h1v390h-1z"/><path class="cls-17" d="M768 119.5a5.55 5.55 0 0 1-5.5-5.5V54a5.55 5.55 0 0 1 5.5-5.5h288a5.55 5.55 0 0 1 5.5 5.5v60a5.55 5.55 0 0 1-5.5 5.5H768z"/><path class="cls-18" d="M1056 49a4.95 4.95 0 0 1 5 5v60a4.95 4.95 0 0 1-5 5H768a4.95 4.95 0 0 1-5-5V54a4.95 4.95 0 0 1 5-5h288m0-1H768a6.018 6.018 0 0 0-6 6v60a6.018 6.018 0 0 0 6 6h288a6.018 6.018 0 0 0 6-6V54a6.018 6.018 0 0 0-6-6z"/><path class="cls-1" d="M822.3 80V67.3h5c2.2 0 3.6 1.3 3.6 3.2a3 3 0 0 1-2.2 2.8v.1a2.99 2.99 0 0 1 2.8 3.1c0 2.2-1.6 3.6-4.3 3.6h-4.9V80zm1.5-7.2h2.5c1.9 0 2.9-.7 2.9-2.1 0-1.3-.9-2-2.4-2h-3v4.1zm3.2 5.8c1.9 0 2.9-.8 2.9-2.2s-1-2.2-3.1-2.2h-3v4.5h3.2v-.1zM841.6 80h-1.4v-1.6a3.183 3.183 0 0 1-3 1.7c-2.1 0-3.3-1.3-3.3-3.5v-6.1h1.5v5.8c0 1.6.7 2.4 2.2 2.4a2.42 2.42 0 0 0 2.5-2.7v-5.5h1.5V80zM844.2 68a1 1 0 1 1 1 1 1.002 1.002 0 0 1-1-1zm.2 2.5h1.5V80h-1.5v-9.5zM848.9 66.8h1.5V80h-1.5V66.8zM855.4 68.4v2.1h1.8v1.3h-1.8v5.7a1.094 1.094 0 0 0 1.2 1.3h.7v1.3c-.2 0-.6.1-1 .1-1.7 0-2.4-.7-2.4-2.5V72h-1.3v-1.3h1.3v-2.1h1.5v-.2zM864.2 77.3c0-1.7 1.3-2.6 3.6-2.8l2.6-.1v-.7c0-1.1-.7-1.7-2-1.7a1.883 1.883 0 0 0-2 1.4h-1.8c.1-1.7 1.7-2.9 3.8-2.9 2.3 0 3.8 1.2 3.8 3.1v6.5h-1.8v-1.6a3.366 3.366 0 0 1-3 1.7c-1.9-.1-3.2-1.2-3.2-2.9zm6.2-.9v-.7l-2.3.2c-1.3.1-2 .6-2 1.4s.7 1.3 1.8 1.3a2.3 2.3 0 0 0 2.5-2.2zM883.9 75.2c0 3-1.6 4.9-4 4.9a3.086 3.086 0 0 1-3-1.7v4.7H875V70.5h1.8V72a3.366 3.366 0 0 1 3-1.7c2.5.1 4.1 2 4.1 4.9zm-2 0c0-2-1-3.3-2.6-3.3-1.5 0-2.5 1.3-2.5 3.3s1 3.3 2.5 3.3c1.6 0 2.6-1.3 2.6-3.3zM886 68a1.1 1.1 0 1 1 1.1 1.1A1.11 1.11 0 0 1 886 68zm.2 2.5h1.9V80h-1.9v-9.5zM890 82.8l3.8-15.5h1.7l-3.8 15.5H890zM897.8 72h-1.3v-1.5h1.3v-.9c0-1.8.8-2.6 2.7-2.6a3.402 3.402 0 0 1 1 .1v1.5c-.2 0-.5-.1-.7-.1a.96.96 0 0 0-1.1 1.2v.8h1.8V72h-1.8v8h-1.9v-8zM911.6 77.2a3.904 3.904 0 0 1-4.1 2.9c-2.8 0-4.5-1.9-4.5-4.9s1.7-4.9 4.4-4.9c2.6 0 4.3 1.8 4.3 4.7v.7H905v.1a2.445 2.445 0 0 0 2.6 2.7 2.048 2.048 0 0 0 2.2-1.4h1.8v.1zm-6.6-2.8h4.8a2.337 2.337 0 0 0-2.4-2.5 2.455 2.455 0 0 0-2.4 2.5zM913.5 77.3c0-1.7 1.3-2.6 3.6-2.8l2.6-.1v-.7c0-1.1-.7-1.7-2-1.7a1.883 1.883 0 0 0-2 1.4H914c.1-1.7 1.7-2.9 3.8-2.9 2.3 0 3.8 1.2 3.8 3.1v6.5h-1.8v-1.6a3.366 3.366 0 0 1-3 1.7c-1.9-.1-3.3-1.2-3.3-2.9zm6.3-.9v-.7l-2.3.2c-1.3.1-2 .6-2 1.4s.7 1.3 1.8 1.3a2.3 2.3 0 0 0 2.5-2.2zM926.7 68.3v2.1h1.8V72h-1.8v5.3a1.06 1.06 0 0 0 1.2 1.2h.7V80a3.42 3.42 0 0 1-1.1.1c-1.9 0-2.6-.7-2.6-2.6V72h-1.3v-1.5h1.3v-2.1h1.8v-.1zM939 80h-1.8v-1.6a3.086 3.086 0 0 1-3 1.7c-2.1 0-3.3-1.3-3.3-3.5v-6.1h1.9v5.8a1.89 1.89 0 0 0 2.1 2.2 2.262 2.262 0 0 0 2.3-2.5v-5.5h1.9V80h-.1zM941.7 70.5h1.8v1.6a2.26 2.26 0 0 1 2.3-1.7 1.483 1.483 0 0 1 .7.1v1.8a2.22 2.22 0 0 0-.9-.1 1.948 1.948 0 0 0-2 2.2v5.7h-1.9v-9.6zM956.2 77.2a3.904 3.904 0 0 1-4.1 2.9c-2.8 0-4.5-1.9-4.5-4.9s1.7-4.9 4.4-4.9c2.6 0 4.3 1.8 4.3 4.7v.7h-6.8v.1a2.445 2.445 0 0 0 2.6 2.7 2.048 2.048 0 0 0 2.2-1.4h1.9v.1zm-6.6-2.8h4.8a2.337 2.337 0 0 0-2.4-2.5 2.455 2.455 0 0 0-2.4 2.5zM958.6 75.8v-1.7h5.8v1.7h-5.8zM969.1 78.4V80h-1.8V66.7h1.9V72a3.287 3.287 0 0 1 3-1.7c2.4 0 4 1.9 4 4.9s-1.6 4.9-4 4.9a3.338 3.338 0 0 1-3.1-1.7zm0-3.2c0 1.9 1 3.3 2.6 3.3s2.5-1.3 2.5-3.3-1-3.3-2.5-3.3-2.6 1.4-2.6 3.3zM978.4 70.5h1.8v1.6a2.26 2.26 0 0 1 2.3-1.7 1.483 1.483 0 0 1 .7.1v1.8a2.22 2.22 0 0 0-.9-.1 1.948 1.948 0 0 0-2 2.2v5.7h-1.9v-9.6zM984.5 77.3c0-1.7 1.3-2.6 3.6-2.8l2.6-.1v-.7c0-1.1-.7-1.7-2-1.7a1.883 1.883 0 0 0-2 1.4H985c.1-1.7 1.7-2.9 3.8-2.9 2.3 0 3.8 1.2 3.8 3.1v6.5h-1.8v-1.6a3.366 3.366 0 0 1-3 1.7c-1.9-.1-3.3-1.2-3.3-2.9zm6.3-.9v-.7l-2.3.2c-1.3.1-2 .6-2 1.4s.7 1.3 1.8 1.3a2.3 2.3 0 0 0 2.5-2.2zM995.3 70.5h1.8v1.6a3.086 3.086 0 0 1 3-1.7c2.1 0 3.3 1.3 3.3 3.5V80h-1.9v-5.8c0-1.5-.7-2.3-2.1-2.3a2.262 2.262 0 0 0-2.3 2.5v5.5h-1.9v-9.4h.1zM1012.4 73.7a2.21 2.21 0 0 0-2.3-1.8c-1.5 0-2.6 1.3-2.6 3.3 0 2.1 1 3.3 2.6 3.3a2.12 2.12 0 0 0 2.3-1.7h1.8c-.2 2-1.8 3.3-4.1 3.3-2.7 0-4.5-1.9-4.5-4.9s1.8-4.9 4.5-4.9a3.825 3.825 0 0 1 4.1 3.4h-1.8zM1016.5 66.7h1.9V72a3.183 3.183 0 0 1 3-1.7 3.26 3.26 0 0 1 3.4 3.6V80h-1.9v-5.7a2.005 2.005 0 0 0-2.1-2.3 2.285 2.285 0 0 0-2.4 2.5V80h-1.9V66.7z"/><path class="cls-19" d="M821.8 91.6h1.1v1.2a1.75 1.75 0 0 1 1.8-1.3h.5v1.2c-.1 0-.4-.1-.6-.1a1.55 1.55 0 0 0-1.6 1.7v4.6h-1.2v-7.3zM832.8 99h-1.1v-1.2a2.53 2.53 0 0 1-2.3 1.3 2.445 2.445 0 0 1-2.6-2.7v-4.7h1.2v4.5a1.64 1.64 0 0 0 1.7 1.9 1.846 1.846 0 0 0 1.9-2.1v-4.3h1.2V99zM835 91.6h1.1v1.2a2.53 2.53 0 0 1 2.3-1.3 2.445 2.445 0 0 1 2.6 2.7v4.7h-1.2v-4.5a1.64 1.64 0 0 0-1.7-1.9 1.846 1.846 0 0 0-1.9 2.1v4.3H835v-7.3zM843.2 91.6h1.1v1.2a2.53 2.53 0 0 1 2.3-1.3 2.445 2.445 0 0 1 2.6 2.7v4.7H848v-4.5a1.64 1.64 0 0 0-1.7-1.9 1.846 1.846 0 0 0-1.9 2.1v4.3h-1.2v-7.3zM851 96.9c0-1.3 1-2 2.8-2.1l2.1-.1V94c0-.9-.6-1.4-1.7-1.4a1.404 1.404 0 0 0-1.6 1.1h-1.1c0-1.2 1.2-2.2 2.8-2.2 1.7 0 2.9.9 2.9 2.4V99h-1.1v-1.3a2.58 2.58 0 0 1-2.4 1.3c-1.7.1-2.7-.8-2.7-2.1zm4.9-.7v-.6l-1.9.1c-1.1.1-1.7.5-1.7 1.2a1.246 1.246 0 0 0 1.5 1.1 1.878 1.878 0 0 0 2.1-1.8zM860.4 97.8V99h-1.1V88.7h1.2v4.1a2.692 2.692 0 0 1 2.4-1.3c1.9 0 3.1 1.5 3.1 3.8s-1.3 3.8-3.1 3.8a2.863 2.863 0 0 1-2.5-1.3zm.1-2.5c0 1.6.9 2.7 2.2 2.7s2.1-1.1 2.1-2.7-.8-2.7-2.1-2.7c-1.4 0-2.2 1.1-2.2 2.7zM867.8 91.6h1.1v1.2a1.75 1.75 0 0 1 1.8-1.3h.5v1.2a5.64 5.64 0 0 0-.7-.1 1.55 1.55 0 0 0-1.6 1.7v4.6h-1.2v-7.3h.1zM872.1 95.3c0-2.3 1.3-3.8 3.4-3.8s3.4 1.5 3.4 3.8-1.3 3.8-3.4 3.8-3.4-1.5-3.4-3.8zm5.6 0c0-1.7-.8-2.7-2.2-2.7s-2.2 1-2.2 2.7.8 2.7 2.2 2.7c1.3 0 2.2-1 2.2-2.7zM891.3 95.3c0 2.2-1.3 3.8-3.1 3.8a2.813 2.813 0 0 1-2.4-1.3v3.7h-1.2v-9.8h1.1v1.2a2.692 2.692 0 0 1 2.4-1.3c1.9 0 3.2 1.5 3.2 3.7zm-1.2 0c0-1.6-.9-2.7-2.2-2.7s-2.1 1.1-2.1 2.7.9 2.7 2.1 2.7c1.3 0 2.2-1.1 2.2-2.7zM899.1 99H898v-1.2a2.53 2.53 0 0 1-2.3 1.3c-1.6 0-2.5-1-2.5-2.7v-4.7h1.2v4.5a1.64 1.64 0 0 0 1.7 1.9A1.846 1.846 0 0 0 898 96v-4.3h1.2V99h-.1zM903.9 91.6a2.487 2.487 0 0 1 2.7 2.1h-1.1a1.404 1.404 0 0 0-1.6-1.1 1.246 1.246 0 0 0-1.5 1.1c0 .5.4.8 1.2 1l1.1.3c1.5.4 2 .9 2 2 0 1.3-1.2 2.1-2.9 2.1a2.705 2.705 0 0 1-2.9-2.1h1.2a1.442 1.442 0 0 0 1.7 1.2c1 0 1.6-.4 1.6-1.1 0-.5-.3-.8-1.1-1l-1.3-.3a2.033 2.033 0 0 1-1.9-2c.1-1.4 1.2-2.2 2.8-2.2zM908.6 88.7h1.2v4.1a2.53 2.53 0 0 1 2.3-1.3 2.494 2.494 0 0 1 2.6 2.7v4.7h-1.2v-4.5a1.664 1.664 0 0 0-1.8-1.9 1.918 1.918 0 0 0-2 2.1v4.2h-1.2V88.7h.1zM923 96.9a2.914 2.914 0 0 1-3.1 2.2c-2.1 0-3.4-1.4-3.4-3.7s1.3-3.8 3.3-3.8 3.2 1.4 3.2 3.6v.5h-5.3v.1a2.127 2.127 0 0 0 2.2 2.3 1.938 1.938 0 0 0 1.9-1.1h1.2v-.1zm-5.2-2.2h4.1a1.918 1.918 0 0 0-2-2.1 2.05 2.05 0 0 0-2.1 2.1zM924.5 95.3c0-2.2 1.3-3.8 3.1-3.8a2.692 2.692 0 0 1 2.4 1.3v-4.1h1.2V99h-1.1v-1.2a2.692 2.692 0 0 1-2.4 1.3c-1.9 0-3.2-1.5-3.2-3.8zm1.3 0c0 1.6.9 2.7 2.2 2.7s2.1-1.1 2.1-2.7-.9-2.7-2.1-2.7c-1.4 0-2.2 1.1-2.2 2.7zM937 96.9c0-1.3 1-2 2.8-2.1l2.1-.1V94c0-.9-.6-1.4-1.7-1.4a1.404 1.404 0 0 0-1.6 1.1h-1.1c0-1.2 1.2-2.2 2.8-2.2 1.7 0 2.9.9 2.9 2.4V99h-1.1v-1.3a2.58 2.58 0 0 1-2.4 1.3c-1.7.1-2.7-.8-2.7-2.1zm4.9-.7v-.6l-1.9.1c-1.1.1-1.7.5-1.7 1.2a1.246 1.246 0 0 0 1.5 1.1 1.878 1.878 0 0 0 2.1-1.8zM951.7 91.6a2.487 2.487 0 0 1 2.7 2.1h-1.1a1.404 1.404 0 0 0-1.6-1.1 1.246 1.246 0 0 0-1.5 1.1c0 .5.4.8 1.2 1l1.1.3c1.5.4 2 .9 2 2 0 1.3-1.2 2.1-2.9 2.1a2.705 2.705 0 0 1-2.9-2.1h1.2a1.442 1.442 0 0 0 1.7 1.2c1 0 1.6-.4 1.6-1.1 0-.5-.3-.8-1.1-1l-1.3-.3a2.033 2.033 0 0 1-1.9-2c.1-1.4 1.2-2.2 2.8-2.2zM962.5 96.9a2.914 2.914 0 0 1-3.1 2.2c-2.1 0-3.4-1.4-3.4-3.7s1.3-3.8 3.3-3.8 3.2 1.4 3.2 3.6v.5h-5.3v.1a2.127 2.127 0 0 0 2.2 2.3 1.938 1.938 0 0 0 1.9-1.1h1.2v-.1zm-5.2-2.2h4.1a1.918 1.918 0 0 0-2-2.1 2.05 2.05 0 0 0-2.1 2.1zM969.3 94a1.79 1.79 0 0 0-1.9-1.4c-1.3 0-2.2 1.1-2.2 2.7 0 1.7.9 2.7 2.2 2.7a1.772 1.772 0 0 0 1.9-1.4h1.2a2.902 2.902 0 0 1-3.1 2.4c-2 0-3.4-1.4-3.4-3.8 0-2.3 1.3-3.8 3.4-3.8a2.987 2.987 0 0 1 3.1 2.5h-1.2v.1zM971.8 95.3c0-2.3 1.3-3.8 3.4-3.8s3.4 1.5 3.4 3.8-1.3 3.8-3.4 3.8-3.4-1.5-3.4-3.8zm5.6 0c0-1.7-.8-2.7-2.2-2.7s-2.2 1-2.2 2.7.8 2.7 2.2 2.7 2.2-1 2.2-2.7zM980.4 91.6h1.1v1.2a2.53 2.53 0 0 1 2.3-1.3 2.445 2.445 0 0 1 2.6 2.7v4.7h-1.2v-4.5a1.64 1.64 0 0 0-1.7-1.9 1.846 1.846 0 0 0-1.9 2.1v4.3h-1.2v-7.3zM988.2 95.3c0-2.2 1.3-3.8 3.1-3.8a2.692 2.692 0 0 1 2.4 1.3v-4.1h1.2V99h-1.1v-1.2a2.692 2.692 0 0 1-2.4 1.3c-1.9 0-3.2-1.5-3.2-3.8zm1.3 0c0 1.6.9 2.7 2.2 2.7s2.1-1.1 2.1-2.7-.9-2.7-2.1-2.7c-1.4 0-2.2 1.1-2.2 2.7zM1000.8 96.9c0-1.3 1-2 2.8-2.1l2.1-.1V94c0-.9-.6-1.4-1.7-1.4a1.404 1.404 0 0 0-1.6 1.1h-1.1c0-1.2 1.2-2.2 2.8-2.2 1.7 0 2.9.9 2.9 2.4V99h-1.1v-1.3a2.58 2.58 0 0 1-2.4 1.3c-1.8.1-2.7-.8-2.7-2.1zm4.8-.7v-.6l-1.9.1c-1.1.1-1.7.5-1.7 1.2a1.246 1.246 0 0 0 1.5 1.1 1.878 1.878 0 0 0 2.1-1.8zM1008.9 99.6h1.2a1.84 1.84 0 0 0 1.9 1c1.3 0 2.1-.7 2.1-1.7v-1.2a2.692 2.692 0 0 1-2.4 1.3c-1.9 0-3.1-1.5-3.1-3.7s1.2-3.7 3.1-3.7a2.813 2.813 0 0 1 2.4 1.3v-1.2h1.1v7.2c0 1.8-1.3 2.8-3.3 2.8-1.7-.1-2.9-.9-3-2.1zm5.2-4.3c0-1.6-.9-2.7-2.2-2.7s-2.1 1.1-2.1 2.7.8 2.7 2.1 2.7a2.427 2.427 0 0 0 2.2-2.7zM1017.1 95.3c0-2.3 1.3-3.8 3.4-3.8s3.4 1.5 3.4 3.8-1.3 3.8-3.4 3.8-3.4-1.5-3.4-3.8zm5.5 0c0-1.7-.8-2.7-2.2-2.7s-2.2 1-2.2 2.7.8 2.7 2.2 2.7 2.2-1 2.2-2.7z"/><ellipse id="Oval-126" class="cls-20" cx="794.4" cy="78.5" rx="15" ry="15.5"/><ellipse id="Oval-126-Copy" class="cls-1" cx="783.8" cy="89.5" rx="7.3" ry="7.5"/><path class="cls-21" d="M29.494 68.533c2.233-5.77-6.21-5.118-5.92-9.918.163-2.673 4.36-5.04 6.763-4.463 3.955.95 4.32 6.28 4.625 9.597"/><path class="cls-22" d="M29.494 69.1a.568.568 0 0 1-.528-.772c1.05-2.712-.517-3.7-2.5-4.952-1.692-1.068-3.61-2.28-3.457-4.795a4.974 4.974 0 0 1 2.258-3.524 6.877 6.877 0 0 1 5.2-1.455c4.233 1.016 4.713 6.3 5.03 9.794l.028.303a.567.567 0 0 1-1.13.104l-.027-.303c-.29-3.173-.724-7.968-4.166-8.794a5.805 5.805 0 0 0-4.262 1.265 3.947 3.947 0 0 0-1.802 2.682c-.112 1.847 1.298 2.737 2.93 3.767 1.934 1.22 4.34 2.74 2.953 6.32a.567.567 0 0 1-.53.363z"/><path class="cls-22" d="M32.378 62.527s-.783-3.648-3.505-4.4c-1.83-.507-2.874.764-2.702 1.7.263 1.42 4.33 3.337 4.914 4.33"/><path class="cls-21" d="M60.505 68.533c-2.233-5.77 6.212-5.118 5.92-9.918-.162-2.673-4.36-5.04-6.762-4.463-3.955.95-4.32 6.28-4.625 9.597"/><path class="cls-22" d="M60.505 69.1a.567.567 0 0 1-.53-.362c-1.385-3.582 1.02-5.1 2.954-6.32 1.63-1.03 3.042-1.92 2.93-3.768a3.947 3.947 0 0 0-1.803-2.682 5.803 5.803 0 0 0-4.262-1.265c-3.44.826-3.876 5.62-4.164 8.794l-.027.304a.567.567 0 0 1-1.13-.103l.028-.302c.32-3.496.8-8.78 5.03-9.794a6.877 6.877 0 0 1 5.202 1.456 4.975 4.975 0 0 1 2.26 3.525c.152 2.517-1.766 3.728-3.458 4.796-1.983 1.252-3.55 2.24-2.5 4.952a.567.567 0 0 1-.53.772z"/><path class="cls-22" d="M57.622 62.527s.783-3.648 3.505-4.4c1.83-.507 2.874.764 2.702 1.7-.263 1.42-4.332 3.337-4.915 4.33"/><path class="cls-21" d="M62.56 78.04v-1.878c-.62-6.406-1.574-14.23-4.66-16.247-2.803-1.83-6.114-2.257-10.103-2.61a6.213 6.213 0 0 1 1.048-1.368c-1.224.03-1.717-.143-2.834.594.406-.38.795-1.018 1.22-1.405-1.94-.323-3.857.715-5.392 2.066-4.592.27-8.08 1.015-10.697 3.09-2.845 2.253-3.782 9.483-4.46 16.17v1.59c0 10.158 12.55 18.393 17.94 18.393s17.94-8.235 17.94-18.392z"/><path class="cls-23" d="M44.62 91.523c-7.16 0-16.375-7.223-17.793-16.484q-.075.706-.146 1.41v1.59c0 10.158 12.55 18.393 17.94 18.393s17.94-8.235 17.94-18.392v-1.878l-.128-1.273C61.116 84.22 51.78 91.522 44.62 91.522z"/><path class="cls-24" d="M57.59 60.39c-2.706-1.768-5.92-2.174-9.843-2.52a.567.567 0 0 1-.447-.836 5.646 5.646 0 0 1 .32-.518 2.43 2.43 0 0 0-1.297.488.567.567 0 0 1-.7-.886 4.47 4.47 0 0 0 .4-.457 7.467 7.467 0 0 0-3.81 1.957.567.567 0 0 1-.342.14c-5.022.296-8.125 1.183-10.377 2.966-2.457 1.946-3.436 8.2-4.093 14.297C28.813 84 37.8 90.956 44.62 90.956c6.91 0 15.93-7.025 17.242-16.092-.5-4.993-1.468-12.64-4.273-14.474z"/><path class="cls-22" d="M27.4 75.02c.657-6.096 1.636-12.35 4.093-14.297 2.252-1.783 5.355-2.67 10.378-2.966a.567.567 0 0 0 .342-.14 7.467 7.467 0 0 1 3.812-1.956 4.47 4.47 0 0 1-.402.458.567.567 0 0 0 .7.886 2.43 2.43 0 0 1 1.3-.488 5.646 5.646 0 0 0-.322.518.567.567 0 0 0 .447.836c3.922.346 7.137.752 9.842 2.52 2.804 1.833 3.77 9.48 4.272 14.474.002-.018.006-.036.01-.054l.606-4.305C61.76 65.485 60.594 61 58.21 59.44c-2.694-1.76-5.75-2.262-9.406-2.612a6.31 6.31 0 0 1 .442-.49.567.567 0 0 0-.4-.968h-.015c-.22.006-.418.004-.6.003-.17 0-.333-.002-.49.003a.567.567 0 0 0-.417-.81c-2.252-.376-4.325.887-5.71 2.07-5.162.323-8.406 1.283-10.824 3.198-2.214 1.753-3.312 6.07-4.024 11.05l.622 4.07c.003.02.01.043.012.066zM63.123 76.108l.003.054c0-.018 0-.036-.003-.055q-.068-.708-.142-1.424l.016.15c.044.428.086.855.127 1.275zM26.262 74.997q-.075.696-.145 1.395a.554.554 0 0 0-.004.057v1.59l.004-1.648q.07-.695.145-1.395z"/><path class="cls-23" d="M62.522 70.193l-.044.31c.196 1.37.36 2.78.503 4.18zM26.73 70.645l-.466 4.333-.002.02c.15-1.395.313-2.777.504-4.113z"/><path class="cls-25" d="M44.62 90.956C37.8 90.956 28.812 84 27.4 75.02q-.08.732-.152 1.458v1.563c0 5.812 4.23 10.376 6.754 12.58 3.537 3.088 7.903 5.246 10.617 5.246s7.08-2.158 10.617-5.247c2.523-2.204 6.754-6.768 6.754-12.58v-1.85c-.038-.414-.08-.86-.128-1.326C60.55 83.93 51.53 90.956 44.62 90.956z"/><path class="cls-26" d="M63.123 76.108c-.04-.42-.083-.847-.127-1.276l-.015-.15c-.143-1.4-.306-2.808-.502-4.177l-.607 4.305-.008.054c.047.467.09.912.13 1.325v1.85c0 5.812-4.232 10.376-6.755 12.58-3.537 3.088-7.903 5.246-10.618 5.246S37.54 93.708 34 90.62c-2.523-2.204-6.754-6.768-6.754-12.58v-1.562q.073-.725.152-1.458c-.003-.023-.01-.045-.012-.067l-.623-4.068c-.19 1.336-.354 2.718-.503 4.112q-.075.7-.145 1.395l-.004 1.65c0 6.258 4.475 11.1 7.143 13.43C36.982 94.728 41.656 97 44.62 97s7.637-2.273 11.363-5.527c2.668-2.33 7.143-7.173 7.143-13.432v-1.878z"/><path class="cls-27" d="M30.954 66.336a.567.567 0 0 1-.48-.865 7.514 7.514 0 0 1 6.118-3.342.567.567 0 1 1 0 1.134 6.438 6.438 0 0 0-5.155 2.805.566.566 0 0 1-.483.27z"/><circle class="cls-27" cx="34.374" cy="67.776" r="1.701"/><path class="cls-27" d="M58.73 66.336a.567.567 0 0 1-.483-.267 6.363 6.363 0 0 0-5.155-2.808.567.567 0 1 1 0-1.134 7.515 7.515 0 0 1 6.12 3.343.567.567 0 0 1-.483.866z"/><circle class="cls-27" cx="55.31" cy="67.775" r="1.701"/><path class="cls-28" d="M39.223 68.784c3.31-4.743 17.67-3.35 11.796 11.835-.853 2.21-1.866 4.386-2.814 6.558-.103.12-.178-.464-.387-.405-1.014 1.663-2.263.9-3.322-.62-.294.33-2.39.937-2.697 1.258-3.15-3.81-5.888-13.882-2.577-18.626z"/><path class="cls-22" d="M46.527 88.278a2.97 2.97 0 0 1-2.176-1.374 17.1 17.1 0 0 1-1.018.42 8.836 8.836 0 0 0-1.134.492.567.567 0 0 1-.834-.043c-3.064-3.706-6.2-14.164-2.606-19.313 1.89-2.708 6.756-3.5 10.21-1.662 1.996 1.063 6.242 4.556 2.58 14.026-.634 1.645-1.364 3.288-2.07 4.876q-.38.853-.753 1.705a.57.57 0 0 1-.09.143.6.6 0 0 1-.54.207.59.59 0 0 1-.243-.09 1.816 1.816 0 0 1-1.274.612zm-4.315-.476l-.007.007zm2.286-2.216h.034a.567.567 0 0 1 .432.243 2.514 2.514 0 0 0 1.58 1.314 1.195 1.195 0 0 0 .79-.666.566.566 0 0 1 .33-.25.67.67 0 0 1 .345-.01q.214-.49.432-.978c.7-1.576 1.424-3.205 2.048-4.825 2.35-6.072 1.6-10.67-2.055-12.616-2.935-1.563-7.186-.927-8.747 1.31-2.953 4.23-.752 13.514 2.253 17.56.25-.116.574-.244.98-.403a8.782 8.782 0 0 0 1.17-.51.567.567 0 0 1 .408-.17zm-.414.18l-.01.01zm-4.86-16.982z"/><path class="cls-22" d="M45.488 81.074h-.976a.567.567 0 0 1 0-1.134h.977a.567.567 0 0 1-.002 1.134zM49.177 70.543c-.567-.587-2.315-.885-4.177-.896-1.86.01-3.61.31-4.177.896C39.5 71.91 42.587 75.036 45 75.23c2.414-.194 5.5-3.32 4.177-4.687z"/><path class="cls-22" d="M45.01 81.074a.567.567 0 0 1-.567-.567v-5.275a.567.567 0 0 1 1.134 0v5.275a.567.567 0 0 1-.567.567z"/><path class="cls-1" d="M47.586 71.625a.482.482 0 0 1-.185-.037 18.02 18.02 0 0 0-4.783-.005.483.483 0 1 1-.368-.894 16.55 16.55 0 0 1 5.52.005.483.483 0 0 1-.184.93z"/></svg>