<svg id="Layer_1" xmlns="http://www.w3.org/2000/svg" viewBox="60 71 1080 420" enable-background="new 60 71 1080 420"><style>.st0{fill:#FFF}.st1{fill:#f7f7f7}.st2{fill:#e6e6e6}.st3{fill:#e8e8e8}.st4{fill:url(#Rectangle-176-Copy-48_1_)}.st5{fill:#EEE}.st6{fill:url(#Rectangle-176-Copy-50_1_)}.st7{fill:url(#Rectangle-176-Copy-52_1_)}.st8{fill:url(#Rectangle-176-Copy-53_1_)}.st9{fill:url(#Rectangle-176-Copy-59_1_)}.st10{fill:url(#Rectangle-176-Copy-61_1_)}.st11{fill:#834eab}.st12{fill:#e0e0e0}.st13{fill:#e1e1e1}.st14{fill:#f8f8f8}.st15{fill:#7944a3}.st16{filter:url(#Adobe_OpacityMaskFilter)}.st17{mask:url(#mask-3);fill:#44275e}.st18{fill:#853cbe}.st19{fill:#682f94}.st20{fill:#351f49}.st21{fill:#2f1244}.st22{fill:#ccadd2}.st23{filter:url(#Adobe_OpacityMaskFilter_1_)}.st24{mask:url(#mask-5)}.st24,.st25{fill:#44275e}.st26{fill:#60cd77}.st27{fill:#6eb87e}.st28{font-family:&amp;apos;SFUIDisplay-Regular&amp;apos;}.st29{font-size:18px}.st30{font-family:&amp;apos;SFUIDisplay-Medium&amp;apos;}.st31{fill:#dff8e4}.st32{font-size:14px}.st33{opacity:.7;fill:#0f0b08;enable-background:new}</style><title>updates</title><g id="Page-1_1_"><g id="updates"><path id="Rectangle-326" class="st0" d="M434 101h705v390H434z"/><g id="Rectangle-7-Copy-28"><path class="st1" d="M450 336c-1.1 0-2-.9-2-2v-82c0-1.1.9-2 2-2h269c1.1 0 2 .9 2 2v82c0 1.1-.9 2-2 2H450z"/><path class="st2" d="M719 251c.6 0 1 .4 1 1v82c0 .6-.4 1-1 1H450c-.6 0-1-.4-1-1v-82c0-.6.4-1 1-1h269m0-2H450c-1.7 0-3 1.3-3 3v82c0 1.7 1.3 3 3 3h269c1.7 0 3-1.3 3-3v-82c0-1.7-1.3-3-3-3z"/></g><g id="Rectangle-7-Copy-29"><path class="st1" d="M752 190c-1.1 0-2-.9-2-2v-30c0-1.1.9-2 2-2h360c1.1 0 2 .9 2 2v30c0 1.1-.9 2-2 2H752z"/><path class="st2" d="M1112 157c.6 0 1 .4 1 1v30c0 .6-.4 1-1 1H752c-.6 0-1-.4-1-1v-30c0-.6.4-1 1-1h360m0-2H752c-1.7 0-3 1.3-3 3v30c0 1.7 1.3 3 3 3h360c1.7 0 3-1.3 3-3v-30c0-1.7-1.3-3-3-3z"/></g><g id="Rectangle-7-Copy-30"><path class="st1" d="M582 190c-1.1 0-2-.9-2-2v-30c0-1.1.9-2 2-2h156c1.1 0 2 .9 2 2v30c0 1.1-.9 2-2 2H582z"/><path class="st2" d="M738 157c.6 0 1 .4 1 1v30c0 .6-.4 1-1 1H582c-.6 0-1-.4-1-1v-30c0-.6.4-1 1-1h156m0-2H582c-1.7 0-3 1.3-3 3v30c0 1.7 1.3 3 3 3h156c1.7 0 3-1.3 3-3v-30c0-1.7-1.3-3-3-3z"/></g><g id="Rectangle-7-Copy-31"><path class="st1" d="M450 190c-1.1 0-2-.9-2-2v-30c0-1.1.9-2 2-2h117c1.1 0 2 .9 2 2v30c0 1.1-.9 2-2 2H450z"/><path class="st2" d="M567 157c.6 0 1 .4 1 1v30c0 .6-.4 1-1 1H450c-.6 0-1-.4-1-1v-30c0-.6.4-1 1-1h117m0-2H450c-1.7 0-3 1.3-3 3v30c0 1.7 1.3 3 3 3h117c1.7 0 3-1.3 3-3v-30c0-1.7-1.3-3-3-3z"/></g><path id="Rectangle-2-Copy-18" class="st1" d="M150 101h284v390H150z"/><circle id="Oval-1-Copy-45" class="st3" cx="466.5" cy="173.5" r="4.5"/><linearGradient id="Rectangle-176-Copy-48_1_" gradientUnits="userSpaceOnUse" x1="120.231" y1="553.833" x2="119.231" y2="553.833" gradientTransform="matrix(78 0 0 -9 -8823 5158)"><stop offset="0" stop-color="#e8e8e8" stop-opacity="0"/><stop offset="1" stop-color="#e8e8e8"/></linearGradient><path id="Rectangle-176-Copy-48" class="st4" d="M481.5 169h69c2.5 0 4.5 2 4.5 4.5s-2 4.5-4.5 4.5h-69c-2.5 0-4.5-2-4.5-4.5s2-4.5 4.5-4.5z"/><path id="Rectangle-176-Copy-49" class="st5" d="M451.5 222h79c2.5 0 4.5 2 4.5 4.5s-2 4.5-4.5 4.5h-79c-2.5 0-4.5-2-4.5-4.5s2-4.5 4.5-4.5z"/><linearGradient id="Rectangle-176-Copy-50_1_" gradientUnits="userSpaceOnUse" x1="120.333" y1="553.833" x2="119.333" y2="553.833" gradientTransform="matrix(90 0 0 -9 -10263 5253)"><stop offset="0" stop-color="#e8e8e8" stop-opacity="0"/><stop offset="1" stop-color="#e8e8e8"/></linearGradient><path id="Rectangle-176-Copy-50" class="st6" d="M481.5 264h81c2.5 0 4.5 2 4.5 4.5s-2 4.5-4.5 4.5h-81c-2.5 0-4.5-2-4.5-4.5s2-4.5 4.5-4.5z"/><path id="Rectangle-176-Copy-51" class="st3" d="M466.5 264c2.5 0 4.5 2 4.5 4.5s-2 4.5-4.5 4.5-4.5-2-4.5-4.5 2-4.5 4.5-4.5z"/><linearGradient id="Rectangle-176-Copy-52_1_" gradientUnits="userSpaceOnUse" x1="120.6" y1="553.833" x2="119.6" y2="553.833" gradientTransform="matrix(150 0 0 -9 -17463 5274)"><stop offset="0" stop-color="#e8e8e8" stop-opacity="0"/><stop offset="1" stop-color="#e8e8e8"/></linearGradient><path id="Rectangle-176-Copy-52" class="st7" d="M481.5 285h141c2.5 0 4.5 2 4.5 4.5s-2 4.5-4.5 4.5h-141c-2.5 0-4.5-2-4.5-4.5s2-4.5 4.5-4.5z"/><linearGradient id="Rectangle-176-Copy-53_1_" gradientUnits="userSpaceOnUse" x1="120" y1="553.833" x2="119" y2="553.833" gradientTransform="matrix(60 0 0 -9 -6663 5306)"><stop offset="0" stop-color="#e8e8e8" stop-opacity="0"/><stop offset="1" stop-color="#e8e8e8"/></linearGradient><path id="Rectangle-176-Copy-53" class="st8" d="M481.5 317h51c2.5 0 4.5 2 4.5 4.5s-2 4.5-4.5 4.5h-51c-2.5 0-4.5-2-4.5-4.5s2-4.5 4.5-4.5z"/><path id="Rectangle-176-Copy-54" class="st3" d="M687.5 317h15c2.5 0 4.5 2 4.5 4.5s-2 4.5-4.5 4.5h-15c-2.5 0-4.5-2-4.5-4.5s2-4.5 4.5-4.5z"/><path id="Rectangle-176-Copy-55" class="st5" d="M754.5 222h63c2.5 0 4.5 2 4.5 4.5s-2 4.5-4.5 4.5h-63c-2.5 0-4.5-2-4.5-4.5s2-4.5 4.5-4.5z"/><path id="Rectangle-176-Copy-56" class="st5" d="M857.5 222h63c2.5 0 4.5 2 4.5 4.5s-2 4.5-4.5 4.5h-63c-2.5 0-4.5-2-4.5-4.5s2-4.5 4.5-4.5z"/><path id="Rectangle-176-Copy-57" class="st5" d="M960.5 222h63c2.5 0 4.5 2 4.5 4.5s-2 4.5-4.5 4.5h-63c-2.5 0-4.5-2-4.5-4.5s2-4.5 4.5-4.5z"/><path id="Rectangle-176-Copy-58" class="st5" d="M451.5 376h79c2.5 0 4.5 2 4.5 4.5s-2 4.5-4.5 4.5h-79c-2.5 0-4.5-2-4.5-4.5s2-4.5 4.5-4.5z"/><circle id="Oval-1-Copy-46" class="st3" cx="598.5" cy="173.5" r="4.5"/><linearGradient id="Rectangle-176-Copy-59_1_" gradientUnits="userSpaceOnUse" x1="120.487" y1="553.833" x2="119.487" y2="553.833" gradientTransform="matrix(117 0 0 -9 -13371 5158)"><stop offset="0" stop-color="#e8e8e8" stop-opacity="0"/><stop offset="1" stop-color="#e8e8e8"/></linearGradient><path id="Rectangle-176-Copy-59" class="st9" d="M613.5 169h108c2.5 0 4.5 2 4.5 4.5s-2 4.5-4.5 4.5h-108c-2.5 0-4.5-2-4.5-4.5s2-4.5 4.5-4.5z"/><path id="Rectangle-176-Copy-60" class="st3" d="M764.5 169h16c2.5 0 4.5 2 4.5 4.5s-2 4.5-4.5 4.5h-16c-2.5 0-4.5-2-4.5-4.5s2-4.5 4.5-4.5z"/><linearGradient id="Rectangle-176-Copy-61_1_" gradientUnits="userSpaceOnUse" x1="120.806" y1="553.833" x2="119.806" y2="553.833" gradientTransform="matrix(309 0 0 -9 -36217 5158)"><stop offset="0" stop-color="#e8e8e8" stop-opacity="0"/><stop offset="1" stop-color="#e8e8e8"/></linearGradient><path id="Rectangle-176-Copy-61" class="st10" d="M807.5 169h300c2.5 0 4.5 2 4.5 4.5s-2 4.5-4.5 4.5h-300c-2.5 0-4.5-2-4.5-4.5s2-4.5 4.5-4.5z"/><path id="Rectangle-14-Copy-7" class="st2" d="M793 157h2v32h-2z"/><path id="Rectangle-2-Copy-19" class="st11" d="M60 101h90v390H60z"/><path id="Rectangle-3-Copy-42" class="st12" d="M447 354h275v1H447z"/><path id="Rectangle-3-Copy-43" class="st2" d="M447 307h275v1H447z"/><path id="Rectangle-5-Copy-42" class="st13" d="M434 101h1v390h-1z"/><path id="Rectangle-5-Copy-43" class="st12" d="M734 204h1v287h-1z"/><path id="Rectangle-5-Copy-44" class="st12" d="M837 204h1v45h-1z"/><path id="Rectangle-5-Copy-45" class="st12" d="M940 204h1v45h-1z"/><path id="Rectangle-5-Copy-46" class="st12" d="M1043 204h1v45h-1z"/><path id="Rectangle-24-Copy-7" class="st1" d="M735 249h404v242H735z"/><g id="Rectangle-480-Copy-13"><path class="st14" d="M60.5 100.5V74c0-1.4 1.1-2.5 2.5-2.5h1074c1.4 0 2.5 1.1 2.5 2.5v26.5H60.5z"/><path class="st13" d="M1137 72c1.1 0 2 .9 2 2v26H61V74c0-1.1.9-2 2-2h1074m0-1H63c-1.7 0-3 1.3-3 3v27h1080V74c0-1.7-1.3-3-3-3z"/></g><path class="st13" d="M78 81c2.8 0 5 2.2 5 5s-2.2 5-5 5-5-2.2-5-5 2.2-5 5-5m0-1c-3.3 0-6 2.7-6 6s2.7 6 6 6 6-2.7 6-6-2.7-6-6-6z" id="Oval-67-Copy-42"/><path class="st13" d="M99 81c2.8 0 5 2.2 5 5s-2.2 5-5 5-5-2.2-5-5 2.2-5 5-5m0-1c-3.3 0-6 2.7-6 6s2.7 6 6 6 6-2.7 6-6-2.7-6-6-6z" id="Oval-67-Copy-43"/><path class="st13" d="M120 81c2.8 0 5 2.2 5 5s-2.2 5-5 5-5-2.2-5-5 2.2-5 5-5m0-1c-3.3 0-6 2.7-6 6s2.7 6 6 6 6-2.7 6-6-2.7-6-6-6z" id="Oval-67-Copy-44"/><path id="Rectangle-3-Copy-44" class="st12" d="M735 249h403v1H735z"/><path id="Rectangle-3-Copy-45" class="st12" d="M434 203h705v1H434z"/><path id="Rectangle-232-Copy-9" class="st15" d="M88.5 242h33c2.5 0 4.5 2 4.5 4.5s-2 4.5-4.5 4.5h-33c-2.5 0-4.5-2-4.5-4.5s2-4.5 4.5-4.5z"/><path id="Rectangle-232-Copy-10" class="st15" d="M93 191h24c5 0 9 4 9 9v24c0 5-4 9-9 9H93c-5 0-9-4-9-9v-24c0-5 4-9 9-9z"/><g id="Page-1"><g id="Group-3" transform="translate(23 53.187)"><defs><filter id="Adobe_OpacityMaskFilter" filterUnits="userSpaceOnUse" x="60" y="71" width="43.8" height="43.3"><feColorMatrix values="1 0 0 0 0 0 1 0 0 0 0 0 1 0 0 0 0 0 1 0"/></filter></defs><mask maskUnits="userSpaceOnUse" x="60" y="71" width="43.8" height="43.3" id="mask-3"><g class="st16"><path id="path-2" class="st0" d="M103.8 71H60v43.3h43.8V71v43.3H60V71h43.8z"/></g></mask><path id="Fill-1" class="st17" d="M103.8 76.1c-.1-1.2-.9-2.5-2.2-3.5-1.6-1.2-3.7-1.8-5.2-1.4-2.3.5-3.5 2.4-4.1 4.4-2-.7-4.1-1-6.5-1.2.1-.2.3-.3.4-.5.2-.2.2-.4.1-.6-.1-.2-.3-.3-.5-.3h-1.1c.1-.1.1-.3 0-.4-.1-.2-.2-.4-.4-.4-2.2-.4-4.3.9-5.7 2.1-2.9.2-5.2.6-7 1.2-.7-2-1.9-3.7-4.1-4.2-1.5-.3-3.5.2-5.2 1.4-1.4 1-2.2 2.3-2.2 3.5-.2 2.5 1.8 3.7 3.4 4.8.6.4 1.2.7 1.6 1.1-.6 1.8-1 4-1.3 6.4-.2 1.3-.4 2.7-.5 4.1 0 .5-.1.9-.1 1.4V95.7c0 6.2 4.5 11.1 7.1 13.4 3.7 3.2 8.4 5.5 11.3 5.5s7.6-2.3 11.3-5.5c2.7-2.3 7.1-7.1 7.1-13.4v-1.9-.1-.1c0-.4-.1-.8-.1-1.2v-.1c-.1-1.4-.3-2.8-.5-4.2-.3-2-.6-3.8-1.1-5.5.5-.6 1.3-1.1 2.1-1.6 1.6-1.2 3.5-2.4 3.4-4.9"/></g><path id="Fill-4" class="st18" d="M88.9 133.1c-1.2-.9-2.6-1.8-2.7-2.6-.2-.9.9-2.2 2.7-1.7.9.3 1.6.8 2.1 1.5.7-.5 1.5-1 2.4-1.4-.6-1.7-1.5-3.1-3.3-3.5-1.1-.3-2.9.2-4.2 1.3-1.1.8-1.7 1.8-1.8 2.7-.1 1.8 1.3 2.7 2.9 3.7.5.3 1 .6 1.4 1 .2-.4.3-.7.5-1"/><path id="Fill-6" class="st18" d="M125.7 129.3c-.1-.9-.7-1.9-1.8-2.7-1.4-1-3.1-1.5-4.2-1.3-1.8.4-2.8 2-3.3 3.8.6.3 1.2.6 1.8 1 .2.1.4.3.6.5.5-.8 1.3-1.5 2.3-1.8 1.8-.5 2.9.8 2.7 1.7-.2.9-1.8 2-3.2 2.9.1.3.3.7.4 1 .6-.5 1.3-1 1.9-1.4 1.5-.9 2.9-1.8 2.8-3.7"/><path id="Fill-8" class="st18" d="M115.2 140.1c-.9 0-1.7-.8-1.7-1.7 0-.9.8-1.7 1.7-1.7.9 0 1.7.8 1.7 1.7 0 1-.8 1.7-1.7 1.7m-2.8-6.7c0-.3.3-.6.6-.6.5 0 1 .1 1.5.2.2 0 .4.1.6.1.2.1.4.1.5.2 2.3.9 3.4 2.7 3.5 2.8.2.3.1.6-.2.8-.1.1-.2.1-.3.1-.2 0-.4-.1-.5-.3-.1-.1-.9-1.5-2.6-2.2-.2-.1-.4-.2-.5-.2-.2-.1-.4-.1-.6-.2-.4-.1-.9-.2-1.4-.2-.4 0-.6-.2-.6-.5m-1 18c-.6 1.6-1.4 3.3-2.1 4.9-.3.6-.5 1.1-.7 1.7 0 .1-.1.1-.1.1-.1.2-.3.2-.5.2-.1 0-.2 0-.2-.1-.4.4-.8.6-1.3.6h-.1c-.7 0-1.4-.5-2.2-1.4-.2.1-.6.2-1 .4s-1 .4-1.1.5c-.1.1-.3.2-.4.2-.2 0-.3-.1-.4-.2-3-3.7-6.2-14.1-2.6-19.2 1.9-2.7 6.7-3.5 10.2-1.7 1.9 1.1 6.2 4.6 2.5 14m-14.9-17.5c-.4 0-.7 0-1.1.1-.2 0-.4.1-.6.1-.2.1-.4.1-.5.2-1.9.8-2.9 2.3-2.9 2.4-.1.2-.3.3-.5.3-.1 0-.2 0-.3-.1-.3-.2-.3-.5-.2-.8.1-.1 1.3-2.1 3.8-2.9.2-.1.4-.1.6-.2.2 0 .4-.1.6-.1.4-.1.8-.1 1.2-.1.3 0 .6.3.6.6-.1.3-.4.5-.7.5m-2.2 6.2c-.9 0-1.7-.8-1.7-1.7 0-.9.8-1.7 1.7-1.7.9 0 1.7.8 1.7 1.7 0 1-.7 1.7-1.7 1.7m26.5-1.4c-.1-.4-.1-.7-.2-1.1-.1-.5-.2-.9-.3-1.4-.2-.2-.3-.5-.3-.7-.1-.5-.3-.9-.5-1.4-.4-1-.9-1.9-1.5-2.5-.2-.2-.4-.4-.6-.5-.5-.3-.9-.6-1.4-.8-.2-.1-.4-.2-.5-.2-.2-.1-.4-.1-.5-.2-2.1-.8-4.5-1-7.3-1.3-.2 0-.4-.1-.4-.3-.1-.2-.1-.4 0-.5.1-.2.2-.3.3-.5-.4 0-.8.1-1.3.5-.2.2-.6.1-.8-.1-.2-.2-.2-.6.1-.8.1-.1.3-.3.4-.5-1.5.2-2.8 1.1-3.8 1.9-.1.1-.2.1-.3.1-2.9.2-5.2.5-7 1.2-.2.1-.4.1-.5.2-.2.1-.4.1-.5.2-.8.4-1.5.8-2.1 1.3-.1 0-.1.1-.2.1-.6.5-1.2 1.3-1.6 2.3-.2.3-.3.7-.4 1.1-.1.2-.1.4-.2.6-.1.2-.1.5-.2.7-.8 2.7-1.2 6.1-1.6 9.5 1.4 8.9 10.4 15.9 17.1 15.9 6.9 0 15.9-7 17.2-16-.2-1.8-.4-4-.8-6.1-.3-.3-.3-.5-.3-.7"/><path id="Fill-10" class="st19" d="M121.7 145.5c-1.3 9-10.3 16-17.2 16-6.8 0-15.7-6.9-17.1-15.9-.1.5-.1 1-.2 1.5V150.8c0 .1 0 .2.1.3v.2c0 .1 0 .2.1.3 0 .1 0 .1.1.2 0 .1 0 .2.1.3 0 .1 0 .1.1.2 0 .1.1.2.1.3 0 .1 0 .1.1.2 0 .1.1.2.1.3 0 .1 0 .1.1.2 0 .1.1.2.1.3 0 .1 0 .1.1.2 0 .1.1.2.1.3 0 .1 0 .1.1.2s.1.2.2.3v.1c.1.1.1.3.2.4 0 0 0 .1.1.1.1.1.1.2.2.3l.1.1c.1.1.1.2.2.3 0 .1.1.1.1.2s.1.2.1.2c0 .1.1.1.1.2s.1.1.1.2.1.1.1.2.1.1.1.2.1.1.1.2.1.1.1.2.1.1.1.2.1.1.1.2.1.1.1.2.1.1.1.2.1.1.1.2.1.1.1.2l.1.1.2.2.1.1.2.2.1.1.2.2.1.1.2.2.1.1.2.2.1.1.2.2.1.1c.1.1.1.1.2.1l.1.1c.1 0 .1.1.2.1l.1.1.2.2s.1 0 .1.1c.1.1.2.1.2.2 3.5 3.1 7.9 5.2 10.6 5.2 2.7 0 7-2.1 10.6-5.2.1-.1.2-.1.2-.2l.1-.1.2-.2.1-.1c.1 0 .1-.1.2-.1l.1-.1c.1 0 .1-.1.2-.2l.1-.1.2-.2.1-.1.2-.2.1-.1.2-.2.1-.1.2-.2.1-.1.2-.2.1-.1.2-.2.1-.1.2-.2.1-.1.2-.2.1-.1.2-.2c0-.1.1-.1.1-.2l.2-.2c0-.1.1-.1.1-.2l.2-.2c0-.1.1-.1.1-.2.1-.1.1-.2.2-.2 0-.1.1-.1.1-.1.1-.1.1-.2.2-.3l.1-.1c.1-.1.1-.2.2-.3 0 0 0-.1.1-.1.2-.3.3-.6.5-.8v-.1c.1-.1.1-.2.2-.3 0 0 0-.1.1-.1 0-.1.1-.2.1-.3 0-.1 0-.1.1-.2 0-.1.1-.2.1-.3 0-.1 0-.1.1-.2 0-.1.1-.2.1-.3 0-.1 0-.1.1-.2 0-.1.1-.2.1-.3 0-.1 0-.1.1-.2 0-.1.1-.2.1-.3 0-.1 0-.1.1-.2 0-.1 0-.2.1-.3v-.2c0-.1 0-.2.1-.3v-.2-.3-.2-.3-.2-.1-2.8c-.7-.6-.8-1-.8-1.5"/><path id="Fill-12" class="st20" d="M122.9 146.7c0-.4-.1-.8-.1-1.3v-.1c-.1-1.4-.3-2.8-.5-4.2l-.3 2.1-.3 2.2v.1c0 .5.1.9.1 1.3V150.9c0 .1 0 .2-.1.3v.2c0 .1 0 .2-.1.3 0 .1 0 .1-.1.2 0 .1-.1.2-.1.3 0 .1 0 .1-.1.2 0 .1-.1.2-.1.3 0 .1 0 .1-.1.2 0 .1-.1.2-.1.3 0 .1 0 .1-.1.2 0 .1-.1.2-.1.3 0 .1 0 .1-.1.2 0 .1-.1.2-.1.3 0 0 0 .1-.1.1-.1.1-.1.2-.2.3v.1c-.1.3-.3.6-.5.8 0 0 0 .1-.1.1-.1.1-.1.2-.2.3l-.1.1c-.1.1-.1.2-.2.3 0 .1-.1.1-.1.1-.1.1-.1.2-.2.2 0 .1-.1.1-.1.2l-.2.2c0 .1-.1.1-.1.2l-.2.2c0 .1-.1.1-.1.2l-.2.2-.1.1-.2.2-.1.1-.2.2-.1.1-.2.2-.1.1-.2.2-.1.1-.2.2-.1.1-.2.2-.1.1-.2.2-.1.1-.2.2-.1.1-.2.2-.1.1c-.1.1-.1.1-.2.1l-.1.1-.2.2-.1.1c-.1.1-.2.1-.2.2-3.5 3.1-7.9 5.2-10.6 5.2s-7-2.1-10.6-5.2c-.1-.1-.2-.1-.2-.2 0 0-.1 0-.1-.1l-.2-.2-.1-.1c-.1 0-.1-.1-.2-.1l-.1-.1c-.1 0-.1-.1-.2-.1l-.1-.1c-.1 0-.1-.1-.2-.2l-.1-.1-.2-.2-.1-.1-.2-.2-.1-.1c0-.1-.1-.1-.2-.2l-.1-.1-.2-.2-.1-.1-.2-.2-.1-.1c0-.1-.1-.1-.1-.2s-.1-.1-.1-.2-.1-.1-.1-.2-.1-.1-.1-.2-.1-.1-.1-.2-.1-.1-.1-.2-.1-.1-.1-.2-.1-.1-.1-.2-.1-.1-.1-.2-.1-.1-.1-.2-.1-.1-.1-.2-.1-.1-.1-.2-.1-.2-.1-.2c0-.1-.1-.1-.1-.2-.1-.1-.1-.2-.2-.3l-.1-.1c-.1-.1-.1-.2-.2-.3 0 0 0-.1-.1-.1-.1-.1-.1-.3-.2-.4v-.1c-.1-.1-.1-.2-.2-.3 0-.1 0-.1-.1-.2 0-.1-.1-.2-.1-.3 0-.1 0-.1-.1-.2 0-.1-.1-.2-.1-.3 0-.1 0-.1-.1-.2 0-.1-.1-.2-.1-.3 0-.1 0-.1-.1-.2 0-.1-.1-.2-.1-.3 0-.1 0-.1-.1-.2 0-.1-.1-.2-.1-.3 0-.1 0-.1-.1-.2 0-.1 0-.2-.1-.3v-.2c0-.1 0-.2-.1-.3v-.2-.3-.2-.3-.2-.1V146.9c0-.5.1-1 .2-1.5v-.1l-.3-2.1-.3-2c-.2 1.3-.4 2.7-.5 4.1 0 .5-.1.9-.1 1.4v1.6c0 6.2 4.5 11.1 7.1 13.4 3.7 3.2 8.4 5.5 11.3 5.5s7.6-2.3 11.3-5.5c2.7-2.3 7.1-7.1 7.1-13.4l.6-1.6z"/><path id="Fill-14" class="st21" d="M96.5 132.8c-.4 0-.8 0-1.2.1-.2 0-.4.1-.6.1-.2 0-.4.1-.6.2-2.5.9-3.7 2.8-3.8 2.9-.2.3-.1.6.2.8.1.1.2.1.3.1.2 0 .4-.1.5-.3 0 0 1-1.6 2.9-2.4.2-.1.4-.1.5-.2.2-.1.4-.1.6-.1.3-.1.7-.1 1.1-.1.3 0 .6-.3.6-.6.1-.2-.2-.5-.5-.5"/><path id="Fill-16" class="st21" d="M94.3 136.7c-.9 0-1.7.8-1.7 1.7 0 .9.8 1.7 1.7 1.7s1.7-.8 1.7-1.7c0-.9-.7-1.7-1.7-1.7"/><path id="Fill-18" class="st21" d="M119 136.1c-.1-.1-1.2-1.9-3.5-2.8-.2-.1-.4-.1-.5-.2-.2-.1-.4-.1-.6-.1-.5-.1-1-.2-1.5-.2-.3 0-.6.3-.6.6s.3.6.6.6c.5 0 1 .1 1.4.2.2 0 .4.1.6.2.2.1.4.1.5.2 1.7.8 2.6 2.2 2.6 2.2.1.2.3.3.5.3.1 0 .2 0 .3-.1.3-.2.4-.6.2-.9"/><path id="Fill-20" class="st21" d="M115.2 136.7c-.9 0-1.7.8-1.7 1.7 0 .9.8 1.7 1.7 1.7.9 0 1.7-.8 1.7-1.7 0-.9-.8-1.7-1.7-1.7"/><path id="Fill-22" class="st22" d="M105.5 145.8v4.8c.3 0 .5.3.5.6s-.3.6-.6.6h-1c-.3 0-.6-.3-.6-.6s.2-.5.5-.6v-4.7-.1c-2.3-.6-4.8-3.3-3.6-4.6.6-.6 2.3-.9 4.2-.9 1.9 0 3.6.3 4.2.9 1.2 1.2-1.4 4-3.6 4.6m2.8-7.3c-2.9-1.6-7.2-.9-8.7 1.3-2.9 4.2-.7 13.5 2.2 17.5.2-.1.6-.2 1-.4s1-.4 1.2-.5c.1-.1.3-.2.4-.2.2 0 .3.1.4.2.6.8 1.1 1.3 1.6 1.3.3 0 .6-.4.8-.7.1-.1.2-.2.3-.2h.3c.1-.3.3-.6.4-1 .7-1.6 1.4-3.2 2-4.8 2.5-6 1.8-10.6-1.9-12.5"/><g id="Group-26" transform="translate(23 53.187)"><defs><filter id="Adobe_OpacityMaskFilter_1_" filterUnits="userSpaceOnUse" x="60" y="71" width="43.8" height="21.4"><feColorMatrix values="1 0 0 0 0 0 1 0 0 0 0 0 1 0 0 0 0 0 1 0"/></filter></defs><mask maskUnits="userSpaceOnUse" x="60" y="71" width="43.8" height="21.4" id="mask-5"><g class="st23"><path id="path-4" class="st0" d="M103.8 71H60v21.4h43.8V71z"/></g></mask><path id="Fill-24" class="st24" d="M65.8 75.6c-1.8-.5-2.9.8-2.7 1.7.1.8 1.5 1.7 2.7 2.6-.1.3-.3.6-.4 1-.5-.4-1-.7-1.4-1-1.6-1-3-1.9-2.9-3.7.1-.9.7-1.9 1.8-2.7 1.4-1 3.1-1.5 4.2-1.3 1.7.4 2.7 1.8 3.3 3.5-.9.4-1.7.9-2.4 1.4-.5-.6-1.2-1.2-2.2-1.5m33.9 4.3c-.6.4-1.3.8-1.9 1.4-.1-.4-.3-.7-.4-1 1.4-.9 3-2 3.2-2.9.2-.9-.9-2.2-2.7-1.7-1 .3-1.8 1-2.3 1.8-.2-.2-.4-.3-.6-.5-.6-.4-1.2-.7-1.8-1 .6-1.8 1.5-3.3 3.3-3.8 1.1-.3 2.9.2 4.2 1.3 1.1.8 1.7 1.8 1.8 2.7.3 1.8-1.1 2.7-2.8 3.7m4.1-3.8c-.1-1.2-.9-2.5-2.2-3.5-1.6-1.2-3.7-1.8-5.2-1.4-2.3.5-3.5 2.4-4.1 4.4-2-.7-4.1-1-6.5-1.2.1-.2.3-.3.4-.5.2-.2.2-.4.1-.6-.1-.2-.3-.3-.5-.3h-1.1c.1-.1.1-.3 0-.4-.1-.2-.2-.4-.4-.4-2.2-.4-4.3.9-5.7 2.1-2.9.2-5.2.6-7 1.2-.7-2-1.9-3.7-4.1-4.2-1.5-.3-3.5.2-5.2 1.4-1.4 1-2.2 2.3-2.2 3.5-.2 2.5 1.8 3.7 3.4 4.8.6.4 1.2.7 1.6 1.1-.6 1.8-1 4-1.3 6.4l.3 2 .3 2.1v.1c.4-3.4.8-6.8 1.6-9.5.1-.2.1-.5.2-.7.1-.2.1-.4.2-.6.1-.4.3-.8.4-1.1.5-1 1-1.8 1.6-2.3 0 0 .1-.1.2-.1.6-.5 1.3-.9 2.1-1.3.2-.1.3-.2.5-.2.2-.1.4-.1.5-.2 1.8-.6 4.1-1 7-1.2.1 0 .2-.1.3-.1 1-.8 2.3-1.8 3.8-1.9-.1.2-.3.3-.4.5-.2.2-.2.5-.1.8.2.2.5.3.8.1.5-.4.9-.5 1.3-.5-.1.2-.2.3-.3.5-.1.2-.1.4 0 .5.1.2.3.3.4.3 2.8.2 5.2.5 7.3 1.3.2.1.4.1.5.2.2.1.4.1.5.2.5.2 1 .5 1.4.8.2.1.4.3.6.5.6.6 1.1 1.5 1.5 2.5.2.4.3.9.5 1.4.1.2.2.5.2.8.1.4.2.9.3 1.4.1.4.2.7.2 1.1 0 .2.1.4.1.7.4 2.1.6 4.3.8 6.1v-.1l.3-2.2.3-2.1c-.3-2-.6-3.8-1.1-5.5.5-.6 1.3-1.1 2.1-1.6 2-1.4 3.9-2.6 3.8-5.1"/></g><path id="Fill-27" class="st25" d="M122.9 146.7V146.7"/><path id="Fill-29" class="st25" d="M122.8 145.3c.1.5.2.9.3 1.4l-.3-1.2v-.2z"/><path id="Fill-31" class="st25" d="M86.1 147.1v1.6-1.6c.1-.5.2-1 .3-1.4-.1.4-.2.8-.3 1.4 0-.1 0-.1 0 0"/><path id="Fill-33" class="st25" d="M108.3 155.8c-.1.3-.3.6-.4 1h-.3c-.1 0-.3.1-.3.2-.2.3-.5.7-.8.7-.4 0-1-.5-1.6-1.3-.1-.1-.3-.2-.4-.2-.2 0-.3.1-.4.2-.1.1-.8.3-1.2.5-.4.2-.7.3-1 .4-3-4-5.2-13.3-2.2-17.5 1.6-2.2 5.8-2.9 8.7-1.3 3.6 1.9 4.4 6.5 2 12.6-.7 1.5-1.4 3.1-2.1 4.7m.5-18.3c-3.4-1.8-8.3-1-10.2 1.7-3.6 5.1-.5 15.5 2.6 19.2.1.1.3.2.4.2.2 0 .3-.1.4-.2.1-.1.7-.3 1.1-.5.4-.2.8-.3 1-.4.7.9 1.5 1.4 2.2 1.4h.1c.5 0 .9-.2 1.3-.6.1 0 .1.1.2.1.2 0 .4 0 .5-.2l.1-.1c.2-.6.5-1.1.7-1.7.7-1.6 1.4-3.2 2.1-4.9 3.8-9.5-.5-13-2.5-14"/><path id="Fill-35" class="st25" d="M107.9 142c-.1.2-.3.3-.4.3h-.2c-.5-.2-4.2-.2-4.8 0-.2.1-.5 0-.6-.3-.1-.2 0-.5.3-.6.7-.3 4.8-.3 5.5 0 .2 0 .3.3.2.6m-3-1.7c-1.9 0-3.6.3-4.2.9-1.2 1.3 1.3 4 3.6 4.6v4.8c-.3 0-.5.3-.5.6s.3.6.6.6h1c.3 0 .6-.3.6-.6s-.2-.5-.5-.6v-4.7-.1c2.3-.6 4.8-3.3 3.6-4.6-.6-.6-2.3-.9-4.2-.9"/><path id="Fill-37" class="st0" d="M107.7 141.3c-.7-.3-4.8-.3-5.5 0-.2.1-.4.4-.3.6.1.2.4.4.6.3.5-.2 4.2-.2 4.8 0h.2c.2 0 .4-.1.4-.3.1-.2 0-.5-.2-.6"/></g><path id="Rectangle-232-Copy-12" class="st15" d="M88.5 326h33c2.5 0 4.5 2 4.5 4.5s-2 4.5-4.5 4.5h-33c-2.5 0-4.5-2-4.5-4.5s2-4.5 4.5-4.5z"/><path id="Rectangle-232-Copy-11" class="st15" d="M93 275h24c5 0 9 4 9 9v24c0 5-4 9-9 9H93c-5 0-9-4-9-9v-24c0-5 4-9 9-9z"/><path id="Rectangle-236-Copy-4" class="st5" d="M675.5 124h134c2.5 0 4.5 2 4.5 4.5s-2 4.5-4.5 4.5h-134c-2.5 0-4.5-2-4.5-4.5s2-4.5 4.5-4.5z"/><path id="Rectangle-236-Copy-5" class="st5" d="M827.5 124h70c2.5 0 4.5 2 4.5 4.5s-2 4.5-4.5 4.5h-70c-2.5 0-4.5-2-4.5-4.5s2-4.5 4.5-4.5z"/><path id="Rectangle-5-Copy-49" class="st12" d="M1139 101h1v390h-1z"/><g id="Group-2" transform="translate(762 48)"><g id="Rectangle-414"><path class="st26" d="M66 142.5c-3 0-5.5-2.5-5.5-5.5V77c0-3 2.5-5.5 5.5-5.5h288c3 0 5.5 2.5 5.5 5.5v60c0 3-2.5 5.5-5.5 5.5H66z"/><path class="st27" d="M354 72c2.8 0 5 2.2 5 5v60c0 2.8-2.2 5-5 5H66c-2.8 0-5-2.2-5-5V77c0-2.8 2.2-5 5-5h288m0-1H66c-3.3 0-6 2.7-6 6v60c0 3.3 2.7 6 6 6h288c3.3 0 6-2.7 6-6V77c0-3.3-2.7-6-6-6z"/></g><text transform="translate(119.032 103)" class="st0 st28 st29">Built</text><text transform="translate(159.71 103)" class="st0 st30 st29">api/feature-branch</text><text transform="translate(119.032 122)" class="st31 st28 st32">runnabro pushed a second ago</text><ellipse id="Oval-126" class="st33" cx="92.4" cy="101.5" rx="15" ry="15.5"/><ellipse id="Oval-126-Copy" class="st0" cx="81.8" cy="112.5" rx="7.3" ry="7.5"/></g></g></g></svg>