<svg data-name="Layer 1" xmlns="http://www.w3.org/2000/svg" viewBox="0 0 100 35.328"><defs><clipPath id="a" transform="translate(-.008)"><path fill="none" d="M12.395 14.56L25.17 7.138l9.18 5.3-12.774 7.425-9.18-5.3z"/></clipPath><clipPath id="b" transform="translate(-.008)"><path fill="none" d="M67.376 11.065L73.96 7.24l11.6 6.696-6.583 3.827-11.6-6.698z"/></clipPath></defs><title>workflow</title><path d="M2.15 10.117L21.56.41a3.89 3.89 0 0 1 3.48 0l19.412 9.707a3.89 3.89 0 0 1 2.15 3.478v8.138a3.89 3.89 0 0 1-2.15 3.478L25.04 34.918a3.89 3.89 0 0 1-3.478 0L2.15 25.21A3.89 3.89 0 0 1 0 21.734v-8.138a3.89 3.89 0 0 1 2.15-3.478z" fill="#e6e6e6"/><g clip-path="url(#a)" style="isolation:isolate"><path d="M14.955 15.2a.79.79 0 0 1-.45-.64.742.742 0 0 1 .456-.628 2.1 2.1 0 0 1 1.08-.265 2.167 2.167 0 0 1 1.1.265.757.757 0 0 1 .456.63.742.742 0 0 1-.455.627 2.1 2.1 0 0 1-1.08.264 2.327 2.327 0 0 1-1.1-.254m12.812-1.062a.776.776 0 0 1-.455-.638.755.755 0 0 1 .46-.63 2.1 2.1 0 0 1 1.08-.265 2.167 2.167 0 0 1 1.1.265.757.757 0 0 1 .456.63.742.742 0 0 1-.455.627 2.127 2.127 0 0 1-1.087.27 2.243 2.243 0 0 1-1.1-.26m-3.678-4.25a.766.766 0 0 1-.468-.63.742.742 0 0 1 .458-.627 2.127 2.127 0 0 1 1.087-.27 2.246 2.246 0 0 1 1.1.263.77.77 0 0 1 .448.634.755.755 0 0 1-.46.63 2.1 2.1 0 0 1-1.08.265 2.14 2.14 0 0 1-1.086-.265m2.91-1.687a3.96 3.96 0 0 0-3.667 0 1.494 1.494 0 0 0-.67.678.94.94 0 0 0 .022.763L16.7 13.12a4.385 4.385 0 0 0-1.318-.01 3.194 3.194 0 0 0-1.17.39 1.273 1.273 0 0 0-.763 1.06 1.31 1.31 0 0 0 .775 1.064 3.745 3.745 0 0 0 1.835.442 3.638 3.638 0 0 0 1.824-.446 1.31 1.31 0 0 0 .758-1q.143.017.477.033c.235.01.394.022.49.033a3.445 3.445 0 0 1 1.02.405 7.724 7.724 0 0 0 3.67.8 8.724 8.724 0 0 0 2.118-.268 7.832 7.832 0 0 0 1.772-.667l-.013-.007a4.73 4.73 0 0 0 1.35.007 3.194 3.194 0 0 0 1.168-.39 1.273 1.273 0 0 0 .764-1.06 1.29 1.29 0 0 0-.777-1.057 3.96 3.96 0 0 0-3.66 0 1.494 1.494 0 0 0-.67.678.89.89 0 0 0 .023.763l-.273.158a3.835 3.835 0 0 1-1.83.4 3.862 3.862 0 0 1-1.836-.4 6.71 6.71 0 0 0-2.25-.822L24.52 10.7a4.644 4.644 0 0 0 1.317.01 3.194 3.194 0 0 0 1.17-.39 1.278 1.278 0 0 0 .77-1.062A1.29 1.29 0 0 0 27 8.2" fill="#555"/></g><path fill="#bbb" d="M45.802 11.285zM.8 11.285zM3.23 12.5a1.28 1.28 0 0 0-.638 1.095v1.48l19.417 9.71v7.46l.71.355a1.3 1.3 0 0 0 1.162 0l.713-.357v-7.46l19.417-9.708v-1.48a1.28 1.28 0 0 0-.643-1.093L23.3 22.536zM46.602 13.594zM46.392 12.385c-.008-.023-.02-.044-.03-.067.007.023.02.044.03.067zM0 13.595zM.21 12.385c.01-.023.022-.044.03-.067-.008.023-.02.044-.03.067z"/><path d="M23.3 2.59a1.307 1.307 0 0 1 .582.136l19.41 9.706a1.293 1.293 0 0 1 .72 1.163v8.138a1.293 1.293 0 0 1-.72 1.167l-19.41 9.7a1.3 1.3 0 0 1-1.163 0L3.306 22.9a1.293 1.293 0 0 1-.715-1.167v-8.138a1.293 1.293 0 0 1 .72-1.163l19.407-9.706a1.307 1.307 0 0 1 .58-.137m0-2.59a3.888 3.888 0 0 0-1.74.41L2.15 10.118A3.89 3.89 0 0 0 0 13.595v8.138a3.89 3.89 0 0 0 2.15 3.478l19.41 9.707a3.89 3.89 0 0 0 3.48 0L44.45 25.21a3.89 3.89 0 0 0 2.15-3.477v-8.138a3.89 3.89 0 0 0-2.15-3.478L25.04.41A3.888 3.888 0 0 0 23.3 0z" fill="#555"/><path d="M55.547 10.117L74.96.41a3.89 3.89 0 0 1 3.478 0l19.412 9.707a3.89 3.89 0 0 1 2.15 3.478v8.138a3.89 3.89 0 0 1-2.15 3.478l-19.412 9.707a3.89 3.89 0 0 1-3.478 0L55.547 25.21a3.89 3.89 0 0 1-2.15-3.477v-8.138a3.89 3.89 0 0 1 2.15-3.478z" fill="#e6e6e6"/><path fill="#bbb" d="M99.2 11.285zM54.198 11.285zM56.63 12.5a1.28 1.28 0 0 0-.644 1.093v1.48l19.417 9.71v7.46l.714.357a1.3 1.3 0 0 0 1.163 0l.712-.355v-7.46l19.417-9.71v-1.48a1.28 1.28 0 0 0-.644-1.093L76.7 22.536zM100 13.594zM99.792 12.385c-.008-.023-.02-.044-.03-.067.005.023.018.044.03.067zM53.398 13.595zM53.61 12.385c.007-.023.02-.044.03-.067-.01.023-.022.044-.03.067z"/><path d="M76.7 2.59a1.307 1.307 0 0 1 .58.136l19.412 9.706a1.293 1.293 0 0 1 .72 1.163v8.138a1.293 1.293 0 0 1-.72 1.167L77.28 32.6a1.3 1.3 0 0 1-1.163 0l-19.412-9.7a1.293 1.293 0 0 1-.72-1.163v-8.142a1.293 1.293 0 0 1 .72-1.163l19.412-9.706a1.307 1.307 0 0 1 .58-.137m0-2.59a3.888 3.888 0 0 0-1.738.41l-19.413 9.707a3.89 3.89 0 0 0-2.15 3.478v8.138a3.89 3.89 0 0 0 2.15 3.478l19.412 9.707a3.89 3.89 0 0 0 3.477 0L97.85 25.21a3.89 3.89 0 0 0 2.15-3.477v-8.138a3.89 3.89 0 0 0-2.15-3.478L78.437.41a3.888 3.888 0 0 0-1.74-.41z" fill="#555"/><g clip-path="url(#b)" style="isolation:isolate"><path d="M74.65 13.557a1.314 1.314 0 0 1-.758-1.057 1.268 1.268 0 0 1 .745-1.054 3.713 3.713 0 0 1 1.824-.44 3.614 3.614 0 0 1 1.817.44 1.294 1.294 0 0 1 .77 1.054 1.285 1.285 0 0 1-.758 1.054 3.664 3.664 0 0 1-1.812.446 3.886 3.886 0 0 1-1.83-.44m5.107-2.966a6.564 6.564 0 0 0-2.747-.77 7.654 7.654 0 0 0-2.92.358l-2.6-1.5-1.648.958 2.6 1.5a1.843 1.843 0 0 0-.608 1.692 2.555 2.555 0 0 0 1.34 1.59 6.453 6.453 0 0 0 2.74.766 7.686 7.686 0 0 0 2.925-.354l2.6 1.5 1.65-.958-2.6-1.5a1.845 1.845 0 0 0 .6-1.7 2.566 2.566 0 0 0-1.334-1.585" fill="#555"/></g></svg>