<svg id="Layer_1" xmlns="http://www.w3.org/2000/svg" viewBox="0 0 36 36"><style>.st0{fill:#e1c5ad;stroke:#52326b}.st0,.st1{stroke-width:.9624;stroke-linejoin:round}.st1{fill:#FFF;stroke:#153b60}.st2{fill:#f69d89}.st3{fill:#FFF;stroke-width:.4812;stroke-linecap:round}.st3,.st4{stroke:#52326b;stroke-linejoin:round}.st4{fill:none;stroke-width:.9624}</style><title>development</title><path class="st0" d="M12 4.9l22.9 22.9c.9.9.9 2.4 0 3.3s-2.4.9-3.3 0L8.7 8.2c-.9-.9-.9-2.4 0-3.3s2.4-.9 3.3 0z"/><path class="st1" d="M15.4 14.9c-2.5 2.5-4 6-4.1 9.6C6.1 23 2 18.9.5 13.6c3.6-.1 7-1.5 9.5-4l4.8-4.8 5.3 5.3-4.7 4.8"/><path class="st2" d="M3.8 13.2c-1.1.3-2.2.4-3.3.4C2 18.9 6.1 23 11.3 24.5c0-1.1.2-2.2.4-3.3C8 20 5 17 3.8 13.2z"/><path class="st3" d="M3.8 13.2c.6 1.9 1.6 3.6 3.1 5 1.5 1.2 3.2 2.2 5 3"/><path class="st4" d="M15.4 14.9c-2.5 2.5-4 6-4.1 9.6C6.1 23 2 18.9.5 13.6c3.6-.1 7-1.5 9.5-4l4.8-4.8 5.3 5.3-4.7 4.8"/></svg>