<svg xmlns="http://www.w3.org/2000/svg" viewBox="0 0 36 36"><title>development</title><path d="M11.96 4.93l22.862 22.863a2.316 2.316 0 1 1-3.275 3.276L8.685 8.206A2.316 2.316 0 0 1 11.96 4.93z" fill="#e1c5ad" stroke="#153b60" stroke-linejoin="round" stroke-width=".962"/><path d="M15.384 14.906a13.792 13.792 0 0 0-4.05 9.566A15.66 15.66 0 0 1 .5 13.608a13.787 13.787 0 0 0 9.536-4.05l4.846-4.846 5.348 5.348-4.846 4.846" fill="#fff" stroke="#153b60" stroke-linejoin="round" stroke-width=".962"/><path d="M3.755 13.162a13.9 13.9 0 0 1-3.255.446 15.66 15.66 0 0 0 10.834 10.864 13.893 13.893 0 0 1 .44-3.262 12.405 12.405 0 0 1-8.02-8.048z" fill="#f69d89"/><path d="M3.756 13.16A12.338 12.338 0 0 0 6.81 18.18a22.13 22.13 0 0 0 4.966 3.033" fill="#fff" stroke="#153b60" stroke-linecap="round" stroke-linejoin="round" stroke-width=".481"/><path d="M15.384 14.906a13.792 13.792 0 0 0-4.05 9.566A15.66 15.66 0 0 1 .5 13.608a13.787 13.787 0 0 0 9.536-4.05l4.846-4.846 5.348 5.348-4.846 4.846" fill="none" stroke="#153b60" stroke-linejoin="round" stroke-width=".962"/></svg>