<svg xmlns="http://www.w3.org/2000/svg" viewBox="0 0 51.724 100"><title>production</title><g style="isolation:isolate"><g id="Layer_1" data-name="Layer 1"><path d="M25.961,74.154h48.5A25.308,25.308,0,0,0,25.961,74.154Z" transform="translate(-24.351)" style="fill:#d8f2e7;stroke:#52306c;stroke-miterlimit:10;stroke-width:2.400300178606576px"/><path d="M38.666,15.942c-3.886,6.4-7.258,14.483-7.258,23.275,0,10.818,3.011,30.744,8,37.6,5.734-2.526,13.868-2.4,21.469,0,4.8-6.805,8.137-27.22,8.137-37.6,0-8.791-3.372-16.871-7.258-23.275H38.666Z" transform="translate(-24.351)" style="fill:#f69d89"/><line x1="14.315" y1="15.942" x2="37.409" y2="15.942" style="fill:#f69d89;stroke:#52306c;stroke-miterlimit:10;stroke-width:0.8001000595355252px"/><path d="M61.76,15.942A69.733,69.733,0,0,0,50.213,1.612a69.733,69.733,0,0,0-11.547,14.33" transform="translate(-24.351)" style="fill:#ff8373"/><path d="M37.066,84.83" transform="translate(-24.351)" style="fill:none;stroke:#fff;stroke-linecap:round;stroke-linejoin:round;stroke-width:6.837367072769167px;opacity:0.30000000000000004;mix-blend-mode:screen"/><path d="M23.35,58.26" transform="translate(-24.351)" style="fill:none;stroke:#fff;stroke-linecap:round;stroke-linejoin:round;stroke-width:6.837367072769167px;opacity:0.30000000000000004;mix-blend-mode:screen"/><circle cx="25.862" cy="42.593" r="8.001" style="fill:#f9d5cf;stroke:#52306c;stroke-miterlimit:10;stroke-width:2.400300178606576px"/><circle cx="25.862" cy="42.593" r="8.001" style="fill:none;stroke:#52306c;stroke-miterlimit:10;stroke-width:2.400300178606576px"/><path d="M37.64,15.32l0.576,0.349c0.706-1.578,1.424-3.069,2.121-4.444C39.435,12.5,38.526,13.861,37.64,15.32Z" transform="translate(-24.351)" style="fill:#52306c"/><path d="M51.014,0.718L50.213,0l-0.8.718c-0.068.061-.547,0.5-1.3,1.249A2,2,0,0,1,48.637,4.7c-0.011.017-.14,0.217-0.355,0.561,0.792-.851,1.457-1.524,1.931-1.989a71.012,71.012,0,0,1,10.521,13.3l2.052-1.245A70.333,70.333,0,0,0,51.014.718Z" transform="translate(-24.351)" style="fill:#52306c"/><path d="M39.692,16.565L37.64,15.32A70.353,70.353,0,0,1,49.412.718L50.213,0l0.8,0.718a70.333,70.333,0,0,1,11.772,14.6l-2.052,1.245a71.012,71.012,0,0,0-10.521-13.3A71.028,71.028,0,0,0,39.692,16.565Z" transform="translate(-24.351)" style="fill:#52306c"/><path d="M49.321,73.771a39.7,39.7,0,0,1,11.048,1.64c4.348-7.159,7.449-26.2,7.449-36.194,0-7.1-2.266-14.528-6.738-22.074H39.346c-4.472,7.545-6.738,14.969-6.738,22.074,0,10.3,2.809,28.936,7.255,36.124A26.893,26.893,0,0,1,49.321,73.771ZM39.01,78.31l-0.569-.782c-5.1-7.009-8.233-27.038-8.233-38.311,0-7.731,2.5-15.772,7.432-23.9l0.35-.577H62.436l0.35,0.577c4.932,8.125,7.432,16.165,7.432,23.9,0,10.53-3.333,31.176-8.357,38.3l-0.506.717-0.837-.264c-7.559-2.388-15.269-2.4-20.624-.046Z" transform="translate(-24.351)" style="fill:#52306c"/><path d="M52.839,78.31S54.6,82.8,49.826,87.585c-4.77-4.783-3.013-9.275-3.013-9.275C36.7,78.31,49.839,100,49.839,100S62.949,78.31,52.839,78.31Z" transform="translate(-24.351)" style="fill:#52306c"/><path d="M78.413,58.26" transform="translate(-24.351)" style="fill:none;stroke:#fff;stroke-linecap:round;stroke-linejoin:round;stroke-width:6.837367072769167px;opacity:0.30000000000000004;mix-blend-mode:screen"/></g></g></svg>