<svg xmlns="http://www.w3.org/2000/svg" viewBox="0 0 51.724 100"><title>production</title><g data-name="Layer 1" style="isolation:isolate"><path d="M1.61 74.154h48.5a25.308 25.308 0 0 0-48.5 0z" fill="#d8f2e7" stroke="#52306c" stroke-miterlimit="10" stroke-width="2.4"/><path d="M14.315 15.942c-3.886 6.4-7.258 14.483-7.258 23.275 0 10.818 3.01 30.744 8 37.6 5.734-2.526 13.868-2.4 21.47 0 4.8-6.805 8.136-27.22 8.136-37.6 0-8.79-3.372-16.87-7.258-23.275h-23.09z" fill="#f69d89"/><path fill="#f69d89" stroke="#52306c" stroke-miterlimit="10" stroke-width=".8" d="M14.315 15.942H37.41"/><path d="M37.41 15.942A69.733 69.733 0 0 0 25.86 1.612a69.733 69.733 0 0 0-11.547 14.33" fill="#ff8373"/><circle cx="25.862" cy="42.593" r="8.001" fill="#f9d5cf" stroke="#52306c" stroke-miterlimit="10" stroke-width="2.4"/><circle cx="25.862" cy="42.593" r="8.001" fill="none" stroke="#52306c" stroke-miterlimit="10" stroke-width="2.4"/><path d="M13.29 15.32l.575.35c.706-1.58 1.424-3.07 2.12-4.445a69.94 69.94 0 0 0-2.696 4.095zM26.663.718l-.8-.718-.8.718c-.07.06-.548.5-1.3 1.25a2 2 0 0 1 .523 2.732c-.01.017-.14.217-.355.56a61.782 61.782 0 0 1 1.932-1.988 71.012 71.012 0 0 1 10.52 13.3l2.053-1.245A70.333 70.333 0 0 0 26.663.717z" fill="#52306c"/><path d="M15.34 16.565l-2.05-1.245A70.353 70.353 0 0 1 25.06.718L25.863 0l.8.718a70.333 70.333 0 0 1 11.772 14.6l-2.052 1.245a71.012 71.012 0 0 0-10.52-13.3 71.028 71.028 0 0 0-10.52 13.302z" fill="#52306c"/><path d="M24.97 73.77a39.7 39.7 0 0 1 11.048 1.64c4.348-7.158 7.45-26.2 7.45-36.193 0-7.1-2.267-14.528-6.74-22.074H14.996c-4.472 7.545-6.738 14.97-6.738 22.074 0 10.3 2.81 28.936 7.255 36.124a26.893 26.893 0 0 1 9.458-1.57zm-10.31 4.54l-.57-.782c-5.1-7.01-8.233-27.038-8.233-38.31 0-7.732 2.5-15.773 7.432-23.9l.35-.578h24.445l.35.577c4.932 8.125 7.432 16.165 7.432 23.9 0 10.53-3.333 31.176-8.357 38.3l-.506.717-.837-.264c-7.56-2.388-15.27-2.4-20.624-.046zM28.488 78.31s1.76 4.49-3.013 9.275c-4.77-4.783-3.013-9.275-3.013-9.275-10.113 0 3.026 21.69 3.026 21.69s13.11-21.69 3-21.69z" fill="#52306c"/></g></svg>