<svg id="Layer_1" data-name="Layer 1" xmlns="http://www.w3.org/2000/svg" viewBox="0 0 73.304 81.993"><title>sandbox</title><path d="M24.67,66.608a1.5,1.5,0,0,0,0-3,1.5,1.5,0,0,0,0,3h0Z" transform="translate(-13.348 -8.787)" style="fill:#ffe4a6"/><path d="M32.885,75.166a1.5,1.5,0,0,0,0-3,1.5,1.5,0,0,0,0,3h0Z" transform="translate(-13.348 -8.787)" style="fill:#ffe4a6"/><path d="M43.668,76.535a1.5,1.5,0,0,0,0-3,1.5,1.5,0,0,0,0,3h0Z" transform="translate(-13.348 -8.787)" style="fill:#ffe4a6"/><path d="M61.125,76.706a1.5,1.5,0,0,0,0-3,1.5,1.5,0,0,0,0,3h0Z" transform="translate(-13.348 -8.787)" style="fill:#ffe4a6"/><path d="M69.511,77.391a1.5,1.5,0,0,0,0-3,1.5,1.5,0,0,0,0,3h0Z" transform="translate(-13.348 -8.787)" style="fill:#ffe4a6"/><path d="M74.988,69.86a1.5,1.5,0,0,0,0-3,1.5,1.5,0,0,0,0,3h0Z" transform="translate(-13.348 -8.787)" style="fill:#ffe4a6"/><path d="M16.729,45.036L47.264,29.769a6.117,6.117,0,0,1,5.471,0L83.271,45.036a6.117,6.117,0,0,1,3.381,5.471V69.4a6.117,6.117,0,0,1-3.381,5.471L52.736,90.134a6.117,6.117,0,0,1-5.471,0L16.729,74.867A6.117,6.117,0,0,1,13.348,69.4V50.508A6.117,6.117,0,0,1,16.729,45.036Z" transform="translate(-13.348 -8.787)" style="fill:#6e4196"/><path d="M50,32.2a3.052,3.052,0,0,1,1.358.321L81.893,47.792a3.02,3.02,0,0,1,1.678,2.716V69.4a3.02,3.02,0,0,1-1.679,2.716L51.358,87.379a3.036,3.036,0,0,1-2.716,0L18.107,72.111A3.02,3.02,0,0,1,16.429,69.4V50.508a3.02,3.02,0,0,1,1.679-2.716L48.642,32.524A3.052,3.052,0,0,1,50,32.2m0-3.081a6.115,6.115,0,0,0-2.736.646L16.729,45.036a6.117,6.117,0,0,0-3.381,5.471V69.4a6.117,6.117,0,0,0,3.381,5.471L47.264,90.134a6.117,6.117,0,0,0,5.471,0L83.271,74.867A6.117,6.117,0,0,0,86.652,69.4V50.508a6.117,6.117,0,0,0-3.381-5.471L52.736,29.769A6.115,6.115,0,0,0,50,29.123h0Z" transform="translate(-13.348 -8.787)" style="fill:#52306c"/><path d="M47.238,66.695a5.9,5.9,0,0,0,5.524,0L78.709,52.959,52.736,39.972a6.117,6.117,0,0,0-5.471,0L21.291,52.959Z" transform="translate(-13.348 -8.787)" style="fill:#fff3dc"/><path d="M50,42.407a3.052,3.052,0,0,1,1.358.321l23.973,12.02-24.01,12.47a2.823,2.823,0,0,1-2.641,0L24.637,54.73l24-12A3.052,3.052,0,0,1,50,42.407m0-3.081a6.115,6.115,0,0,0-2.736.646L21.291,52.959,47.238,66.695a5.9,5.9,0,0,0,5.524,0L78.709,52.959,52.736,39.972A6.115,6.115,0,0,0,50,39.326h0Z" transform="translate(-13.348 -8.787)" style="fill:#52306c"/><path d="M49.984,63.946a1.5,1.5,0,0,0,0-3,1.5,1.5,0,0,0,0,3h0Z" transform="translate(-13.348 -8.787)" style="fill:#fcdd9f"/><path d="M33.659,56.8a1.5,1.5,0,0,0,0-3,1.5,1.5,0,0,0,0,3h0Z" transform="translate(-13.348 -8.787)" style="fill:#fcdd9f"/><path d="M52.054,71.441" transform="translate(-13.348 -8.787)" style="fill:#fff3dc;stroke:#371457;stroke-miterlimit:10;stroke-width:3.9658327102661133px"/><path d="M50,88.36a10.574,10.574,0,0,1-4.7-1.111L20.664,74.934C20.228,74.71,19.8,74.5,19.408,74.3c-3.863-1.929-4.56-2.275-4.56-8.777V53.93l0.279-2.791,31.4,16.877a7.4,7.4,0,0,0,6.936,0l31.49-16.669,0.2,2.563v11.61c0,6.7-.3,6.842-5.307,9.173l-0.474.22L54.705,87.249A10.575,10.575,0,0,1,50,88.36Z" transform="translate(-13.348 -8.787)" style="fill:#834fab"/><path d="M16.4,53.524L45.834,69.346a8.9,8.9,0,0,0,8.331,0l29.469-15.6,0.017,0.225V65.524c0,2.268-.078,4.707-0.657,5.6-0.427.655-1.762,1.276-3.782,2.217l-0.474.221-0.037.017-0.036.018L54.034,85.908a9.021,9.021,0,0,1-8.068,0l-24.6-12.3c-0.456-.234-0.885-0.448-1.287-0.649-1.776-.886-2.647-1.339-3.018-1.937-0.485-.78-0.711-2.527-0.711-5.5V54.005l0.048-.481m-2.538-4.77-0.51,5.1V65.524c0,8.142,1.567,8.142,6.645,10.752L44.624,88.591a12.021,12.021,0,0,0,10.751,0L80.007,76.275c5.591-2.609,6.645-2.866,6.645-10.752V53.856l-0.379-4.9L52.762,66.695a5.9,5.9,0,0,1-5.524,0L13.858,48.754h0Z" transform="translate(-13.348 -8.787)" style="fill:#52306c"/><line x1="36.652" y1="60.799" x2="36.652" y2="79.975" style="fill:none;stroke:#52306c;stroke-miterlimit:10;stroke-width:3px"/><line x1="36.652" y1="22.797" x2="36.652" y2="32.895" style="fill:none;stroke:#52306c;stroke-miterlimit:10;stroke-width:2px"/><path d="M67.206,55.459a1.5,1.5,0,0,0,0-3,1.5,1.5,0,0,0,0,3h0Z" transform="translate(-13.348 -8.787)" style="fill:#fcdd9f"/><path d="M54.251,56.742a1.5,1.5,0,0,0,0-3,1.5,1.5,0,0,0,0,3h0Z" transform="translate(-13.348 -8.787)" style="fill:#ffe4a6"/><path d="M59.173,9.537H50.507a1.045,1.045,0,0,0-1.045,1.045V14.8a3.908,3.908,0,0,0,3.68,3.895V44.778h3.4V18.69a3.908,3.908,0,0,0,3.68-3.895V10.582A1.045,1.045,0,0,0,59.173,9.537Z" transform="translate(-13.348 -8.787)" style="fill:#f79e8a;stroke:#371457;stroke-miterlimit:10;stroke-width:1.5px"/><path d="M59.8,39.959H49.876a4.18,4.18,0,0,0-4.18,4.18V55.162h4.082c0.033,0,.064.01,0.1,0.01H59.8c0.034,0,.065-0.009.1-0.01h4.082V44.14A4.18,4.18,0,0,0,59.8,39.959Z" transform="translate(-13.348 -8.787)" style="fill:#f79e8a;stroke:#371457;stroke-miterlimit:10;stroke-width:1.5px"/><path d="M60.457,57.795V46.307a2.568,2.568,0,0,0-2.568-2.568h-6.1a2.568,2.568,0,0,0-2.568,2.568V57.795" transform="translate(-13.348 -8.787)" style="fill:#ef8270;stroke:#371457;stroke-linecap:round;stroke-miterlimit:10"/><polygon points="48.379 50.762 31.247 49.433 31.247 38.926 54.438 48.174 48.379 50.762" style="fill:#fff3dc"/><path d="M44.65,47.776S51.285,49,54.63,50.107s9.98,5.841,9.98,5.841" transform="translate(-13.348 -8.787)" style="fill:#fff3dc;stroke:#fcdd9f;stroke-linecap:round;stroke-miterlimit:10;stroke-width:2px"/><path d="M53.123,58.505a1.5,1.5,0,0,0,0-3,1.5,1.5,0,0,0,0,3h0Z" transform="translate(-13.348 -8.787)" style="fill:#fcdd9f"/><path d="M57.452,14.354a1.7,1.7,0,0,1-1.9,1.339H54.131a1.7,1.7,0,0,1-1.9-1.339V12.915a0.453,0.453,0,0,1,.508-0.357h4.21a0.453,0.453,0,0,1,.508.357v1.439Z" transform="translate(-13.348 -8.787)" style="fill:#fff;stroke:#371457;stroke-miterlimit:10"/><path d="M43.862,56.294a1.5,1.5,0,0,0,0-3,1.5,1.5,0,0,0,0,3h0Z" transform="translate(-13.348 -8.787)" style="fill:#fcdd9f"/></svg>