<svg data-name="Layer 1" xmlns="http://www.w3.org/2000/svg" viewBox="0 0 73.304 81.993"><title>sandbox</title><path d="M11.322 57.82a1.5 1.5 0 0 0 0-3 1.5 1.5 0 0 0 0 3zM19.537 66.38a1.5 1.5 0 0 0 0-3 1.5 1.5 0 0 0 0 3zM30.32 67.748a1.5 1.5 0 0 0 0-3 1.5 1.5 0 0 0 0 3zM47.777 67.92a1.5 1.5 0 0 0 0-3 1.5 1.5 0 0 0 0 3zM56.163 68.604a1.5 1.5 0 0 0 0-3 1.5 1.5 0 0 0 0 3zM61.64 61.073a1.5 1.5 0 0 0 0-3 1.5 1.5 0 0 0 0 3z" fill="#ffe4a6"/><path d="M3.38 36.25L33.917 20.98a6.117 6.117 0 0 1 5.47 0L69.924 36.25a6.117 6.117 0 0 1 3.38 5.47v18.893a6.117 6.117 0 0 1-3.38 5.47L39.388 81.348a6.117 6.117 0 0 1-5.47 0L3.38 66.08A6.117 6.117 0 0 1 0 60.613V41.72a6.117 6.117 0 0 1 3.38-5.47z" fill="#6e4196"/><path d="M36.652 23.413a3.052 3.052 0 0 1 1.358.32l30.535 15.272a3.02 3.02 0 0 1 1.678 2.716v18.893a3.02 3.02 0 0 1-1.68 2.716L38.01 78.59a3.036 3.036 0 0 1-2.716 0L4.76 63.324a3.02 3.02 0 0 1-1.68-2.71V41.72a3.02 3.02 0 0 1 1.68-2.715l30.534-15.268a3.052 3.052 0 0 1 1.358-.324m0-3.08a6.115 6.115 0 0 0-2.736.645L3.38 36.248A6.117 6.117 0 0 0 0 41.72v18.893a6.117 6.117 0 0 0 3.38 5.47l30.536 15.264a6.117 6.117 0 0 0 5.47 0L69.924 66.08a6.117 6.117 0 0 0 3.38-5.467V41.72a6.117 6.117 0 0 0-3.38-5.47L39.388 20.982a6.115 6.115 0 0 0-2.736-.646z" fill="#52306c"/><path d="M33.89 57.908a5.9 5.9 0 0 0 5.524 0L65.36 44.172 39.39 31.185a6.117 6.117 0 0 0-5.47 0L7.942 44.172z" fill="#fff3dc"/><path d="M36.652 33.62a3.052 3.052 0 0 1 1.358.32l23.973 12.02-24.01 12.47a2.823 2.823 0 0 1-2.64 0L11.288 45.944l24-12a3.052 3.052 0 0 1 1.362-.323m0-3.08a6.115 6.115 0 0 0-2.736.645L7.943 44.172 33.89 57.908a5.9 5.9 0 0 0 5.524 0L65.36 44.172 39.39 31.185a6.115 6.115 0 0 0-2.736-.646z" fill="#52306c"/><path d="M36.636 55.16a1.5 1.5 0 0 0 0-3 1.5 1.5 0 0 0 0 3zM20.31 48.013a1.5 1.5 0 0 0 0-3 1.5 1.5 0 0 0 0 3z" fill="#fcdd9f"/><path d="M36.652 79.573a10.574 10.574 0 0 1-4.7-1.11L7.316 66.146c-.436-.224-.864-.434-1.256-.634-3.863-1.93-4.56-2.275-4.56-8.777V45.143l.28-2.79 31.4 16.876a7.4 7.4 0 0 0 6.935 0l31.49-16.67.2 2.563v11.61c0 6.7-.3 6.842-5.307 9.173l-.474.22-24.667 12.336a10.575 10.575 0 0 1-4.705 1.11z" fill="#834fab"/><path d="M3.052 44.737L32.486 60.56a8.9 8.9 0 0 0 8.33 0l29.47-15.6.017.224v11.553c0 2.268-.078 4.707-.657 5.6-.427.655-1.762 1.276-3.782 2.217l-.474.22-.037.018-.036.018-24.63 12.31a9.02 9.02 0 0 1-8.07 0l-24.6-12.3c-.455-.233-.884-.447-1.286-.648-1.775-.886-2.646-1.34-3.017-1.937-.485-.78-.71-2.527-.71-5.5V45.218l.047-.48m-2.538-4.77l-.51 5.1v11.67c0 8.14 1.567 8.14 6.645 10.75l24.63 12.316a12.02 12.02 0 0 0 10.75 0L66.66 67.488c5.59-2.61 6.644-2.866 6.644-10.752V45.07l-.38-4.9-33.51 17.738a5.9 5.9 0 0 1-5.524 0L.51 39.968z" fill="#52306c"/><path fill="none" stroke="#52306c" stroke-miterlimit="10" stroke-width="3" d="M36.652 60.8v19.175"/><path fill="none" stroke="#52306c" stroke-miterlimit="10" stroke-width="2" d="M36.652 22.797v10.098"/><path d="M53.858 46.672a1.5 1.5 0 0 0 0-3 1.5 1.5 0 0 0 0 3z" fill="#fcdd9f"/><path d="M40.903 47.955a1.5 1.5 0 0 0 0-3 1.5 1.5 0 0 0 0 3z" fill="#ffe4a6"/><path d="M45.825.75H37.16a1.045 1.045 0 0 0-1.046 1.045v4.218a3.908 3.908 0 0 0 3.68 3.895V35.99h3.4V9.904a3.908 3.908 0 0 0 3.68-3.895V1.795A1.045 1.045 0 0 0 45.824.75z" fill="#f79e8a" stroke="#371457" stroke-miterlimit="10" stroke-width="1.5"/><path d="M46.452 31.172h-9.924a4.18 4.18 0 0 0-4.18 4.18v11.023h4.082c.033 0 .064.01.1.01h9.922c.034 0 .065-.01.1-.01h4.082V35.353a4.18 4.18 0 0 0-4.182-4.18z" fill="#f79e8a" stroke="#371457" stroke-miterlimit="10" stroke-width="1.5"/><path d="M47.11 49.008V37.52a2.568 2.568 0 0 0-2.57-2.568h-6.1a2.568 2.568 0 0 0-2.567 2.568v11.488" fill="#ef8270" stroke="#371457" stroke-linecap="round" stroke-miterlimit="10"/><path fill="#fff3dc" d="M48.38 50.762l-17.133-1.33V38.927l23.19 9.248-6.058 2.588z"/><path d="M31.302 38.99s6.635 1.223 9.98 2.33 9.98 5.84 9.98 5.84" fill="#fff3dc" stroke="#fcdd9f" stroke-linecap="round" stroke-miterlimit="10" stroke-width="2"/><path d="M39.775 49.718a1.5 1.5 0 0 0 0-3 1.5 1.5 0 0 0 0 3z" fill="#fcdd9f"/><path d="M44.104 5.567a1.7 1.7 0 0 1-1.9 1.34h-1.42a1.7 1.7 0 0 1-1.9-1.34v-1.44a.453.453 0 0 1 .507-.356h4.21a.453.453 0 0 1 .51.358v1.44z" fill="#fff" stroke="#371457" stroke-miterlimit="10"/><path d="M30.514 47.507a1.5 1.5 0 0 0 0-3 1.5 1.5 0 0 0 0 3z" fill="#fcdd9f"/></svg>