<svg id="Layer_1" data-name="Layer 1" xmlns="http://www.w3.org/2000/svg" viewBox="0 0 60 60"><title>icons-demo</title><rect width="60" height="60" fill="none"/><path d="M5.281,160.234v27.98a3,3,0,0,0,3,3H47.764a3,3,0,0,0,3-3v-27.98H5.281Z" transform="translate(-0.207 -145.23)" fill="#ccadd2" stroke="#52306c" stroke-linecap="round" stroke-linejoin="round" stroke-width="2"/><path d="M5.281,160.234H3.523a1,1,0,0,1-1-1v-2a1,1,0,0,1,1-1h49a1,1,0,0,1,1,1v2a1,1,0,0,1-1,1H5.281" transform="translate(-0.207 -145.23)" fill="#dbdbdb" stroke="#52306c" stroke-linecap="round" stroke-linejoin="round" stroke-width="2"/><line x1="27.815" y1="45.984" x2="27.815" y2="51.088" fill="#fff" stroke="#52306c" stroke-linecap="round" stroke-linejoin="round" stroke-width="2"/><circle cx="27.608" cy="53.524" r="2.437" fill="#fff" stroke="#52306c" stroke-linecap="round" stroke-linejoin="round" stroke-width="2"/><path d="M20.6,178.686a0.906,0.906,0,0,1-.793,1.354l-3.923-.025-3.923-.025a0.906,0.906,0,0,1-.776-1.364l1.984-3.385,1.984-3.385a0.906,0.906,0,0,1,1.569.01l1.94,3.41Z" transform="translate(-0.207 -145.23)" fill="#3ccb5a" stroke="#52306c" stroke-linecap="round" stroke-linejoin="round"/><line x1="15.469" y1="28.837" x2="13.573" y2="32.072" fill="none" stroke="#fff" stroke-linecap="round" stroke-linejoin="round" stroke-width="1.073" opacity="0.4"/><path d="M31.742,173.459a4.5,4.5,0,0,1-3.941,6.725h0a4.5,4.5,0,0,1-3.853-6.775h0a4.5,4.5,0,0,1,7.794.051h0Z" transform="translate(-0.207 -145.23)" fill="#f5a11b" stroke="#52306c" stroke-linecap="round" stroke-linejoin="round"/><g opacity="0.4"><path d="M24.83,175.711a2.969,2.969,0,0,1,.415-1.542h0a2.965,2.965,0,0,1,2.487-1.479" transform="translate(-0.207 -145.23)" fill="none" stroke="#fff" stroke-linecap="round" stroke-linejoin="round" stroke-width="1.073"/></g><rect x="35.776" y="26.381" width="8.226" height="8.226" rx="1" ry="1" fill="#20c2ef" stroke="#52306c" stroke-linecap="round" stroke-linejoin="round"/><path d="M37.474,176.359v-2.914" transform="translate(-0.207 -145.23)" fill="none" stroke="#fff" stroke-linecap="round" stroke-linejoin="round" stroke-width="1.073" opacity="0.4"/><line x1="49.565" y1="16.991" x2="6.065" y2="16.991" fill="none" stroke="#000" stroke-linejoin="round" stroke-width="2" opacity="0.1"/></svg>