<?xml version="1.0" encoding="utf-8"?>
<!-- Generator: Adobe Illustrator 19.2.1, SVG Export Plug-In . SVG Version: 6.00 Build 0)  -->
<svg version="1.1" id="Layer_1" xmlns="http://www.w3.org/2000/svg" xmlns:xlink="http://www.w3.org/1999/xlink" x="0px" y="0px"
	 viewBox="0 0 60 60" style="enable-background:new 0 0 60 60;" xml:space="preserve">
<style type="text/css">
	.st0{fill:#DBDBDB;stroke:#52306C;stroke-width:3;stroke-linecap:round;stroke-linejoin:round;}
	.st1{opacity:0.5;fill:none;stroke:#FFFFFF;stroke-width:2;stroke-linecap:round;stroke-linejoin:round;enable-background:new    ;}
	.st2{fill:#52306C;}
	.st3{fill:#F7F7F7;}
</style>
<title>three</title>
<circle class="st0" cx="29.4" cy="29.4" r="21.9"/>
<path class="st1" d="M13,26c0.4-2.1,1.3-4.2,2.5-6c1.8-2.7,4.4-4.8,7.4-6.1c1-0.4,2.1-0.8,3.1-1"/>
<path class="st2" d="M27.6,28h1.7c1.1,0.1,2-0.6,2.2-1.7c0-0.1,0-0.1,0-0.2c0-1-0.9-1.9-2-1.8c-0.1,0-0.2,0-0.2,0
	c-1.1-0.1-2.2,0.7-2.3,1.8c0,0,0,0.1,0,0.1h-2.7c0.1-2.6,2-4.2,5-4.2c2.8,0,4.8,1.5,4.8,3.7c0,1.5-1,2.9-2.5,3.1V29
	c1.7,0.1,3.1,1.5,3.1,3.3c0,2.4-2.3,4.1-5.4,4.1c-3.1,0-5.1-1.7-5.3-4.3h2.7c0.2,1.2,1.3,2.1,2.5,1.9c0,0,0,0,0,0
	c1.2,0.2,2.3-0.6,2.4-1.8c0-0.1,0-0.1,0-0.2c0-1.2-0.9-1.9-2.5-1.9h-1.7V28z"/>
<circle class="st2" cx="43.5" cy="43.5" r="9"/>
<polygon class="st3" points="47.3,41.5 45.8,40.1 43.6,42.3 41.3,40.1 39.9,41.5 42.1,43.7 39.9,46 41.3,47.5 43.6,45.2 45.8,47.5 
	47.3,46 45,43.7 "/>
</svg>
