<?xml version="1.0" encoding="utf-8"?>
<!-- Generator: Adobe Illustrator 19.2.1, SVG Export Plug-In . SVG Version: 6.00 Build 0)  -->
<svg version="1.1" id="Layer_1" xmlns="http://www.w3.org/2000/svg" xmlns:xlink="http://www.w3.org/1999/xlink" x="0px" y="0px"
	 viewBox="0 0 60 60" style="enable-background:new 0 0 60 60;" xml:space="preserve">
<style type="text/css">
	.st0{fill:#DBDBDB;stroke:#52306C;stroke-width:3;stroke-linecap:round;stroke-linejoin:round;}
	.st1{opacity:0.5;fill:none;stroke:#FFFFFF;stroke-width:2;stroke-linecap:round;stroke-linejoin:round;enable-background:new    ;}
	.st2{fill:#52306C;}
	.st3{fill:#F7F7F7;}
</style>
<title>two</title>
<g>
	<circle class="st0" cx="23.4" cy="29.4" r="21.9"/>
	<path class="st1" d="M7,26c0.4-2.1,1.3-4.2,2.5-6c1.8-2.7,4.4-4.8,7.4-6.1c1-0.4,2.1-0.8,3.1-1"/>
	<path class="st2" d="M23.4,22c2.9,0,4.9,1.6,4.9,4c0,1.5-0.8,2.8-3.2,5l-2.6,2.5v0.2h6v2.4h-9.9v-2l4.5-4.4
		c1.9-1.9,2.4-2.6,2.4-3.5c0-1.1-0.9-1.9-2-1.9c0,0-0.1,0-0.1,0c-1.2-0.1-2.2,0.8-2.2,1.9c0,0.1,0,0.1,0,0.2v0.1h-2.7v0
		C18.4,23.8,20.4,22,23.4,22z"/>
	<circle class="st2" cx="37.5" cy="43.5" r="9"/>
	<path class="st3" d="M41.6,44.2h-2.4v3.2h-3.2v-3.2h-2.4l4-4.7L41.6,44.2z"/>
</g>
</svg>
