<?xml version="1.0" encoding="utf-8"?>
<!-- Generator: Adobe Illustrator 19.2.1, SVG Export Plug-In . SVG Version: 6.00 Build 0)  -->
<svg version="1.1" id="Layer_1" xmlns="http://www.w3.org/2000/svg" xmlns:xlink="http://www.w3.org/1999/xlink" x="0px" y="0px"
	 viewBox="0 0 60 60" style="enable-background:new 0 0 60 60;" xml:space="preserve">
<style type="text/css">
	.st0{fill:#DBDBDB;stroke:#52306C;stroke-width:3;stroke-linecap:round;stroke-linejoin:round;}
	.st1{fill:#52306C;}
	.st2{opacity:0.5;fill:none;stroke:#FFFFFF;stroke-width:2;stroke-linecap:round;stroke-linejoin:round;enable-background:new    ;}
	.st3{fill:#F7F7F7;}
</style>
<title>three</title>
<circle class="st0" cx="29.4" cy="29.4" r="21.9"/>
<path class="st1" d="M27.9,25.1h-0.2l-3.4,2.3v-2.7l3.5-2.4h2.9v13.7h-2.9V25.1z"/>
<path class="st2" d="M13,26c0.4-2.1,1.3-4.2,2.5-6c1.8-2.7,4.4-4.8,7.4-6.1c1-0.4,2.1-0.8,3.1-1"/>
<circle class="st1" cx="43.5" cy="43.5" r="9"/>
<path class="st3" d="M46.7,40.1c-0.8,0-1.5,0.7-1.5,1.5c0,0.3,0.1,0.5,0.2,0.7c0.1,0.2,0.3,0.4,0.5,0.5v0.2
	c-0.1,0.8-0.7,1.4-1.5,1.5c-0.5,0-1,0.1-1.5,0.3v-3.5c0.2-0.1,0.4-0.3,0.5-0.5c0.1-0.2,0.2-0.5,0.2-0.7c0,0,0,0,0,0
	c0-0.8-0.7-1.5-1.5-1.5c-0.8,0-1.5,0.7-1.5,1.5c0,0.3,0.1,0.5,0.2,0.7c0.1,0.2,0.3,0.4,0.5,0.5v4.9c-0.2,0.1-0.4,0.3-0.5,0.5
	c-0.1,0.2-0.2,0.5-0.2,0.7c0,0.4,0.2,0.8,0.4,1.1c0.6,0.6,1.5,0.6,2.1,0c0.6-0.6,0.6-1.5,0-2.1c0,0,0.1-0.1,0.2-0.2
	c0.1-0.1,0.2-0.1,0.2-0.2c0.2-0.1,0.5-0.1,0.7-0.1c0.8,0,1.5-0.4,2-0.9c0.3-0.3,0.5-0.7,0.7-1c0.1-0.4,0.2-0.8,0.3-1.2h0
	c0.2-0.1,0.4-0.3,0.5-0.5c0.1-0.2,0.2-0.5,0.2-0.7c0,0,0,0,0,0C48.2,40.8,47.5,40.1,46.7,40.1z"/>
</svg>
