<svg id="security" xmlns="http://www.w3.org/2000/svg" viewBox="0 0 55 60"><title>icons-security</title><path d="M27.5,52.5A22.5,22.5,0,1,1,50,30,22.534,22.534,0,0,1,27.5,52.5Z" style="fill:#f2c172"/><path d="M27.5,9a21,21,0,1,1-21,21,21,21,0,0,1,21-21m0-3a24,24,0,1,0,24,24,24.071,24.071,0,0,0-24-24h0Z" style="fill:#ad8850"/><circle cx="27.5" cy="30" r="9.9" style="fill:#d1a156"/><path d="M31.1,27.6a3.6,3.6,0,1,0-7.2,0A3.628,3.628,0,0,0,26,30.9l-0.6,3.4A1.48,1.48,0,0,0,26.6,36h1.5a1.538,1.538,0,0,0,1.5-1.5V34.3L29,30.8A3.386,3.386,0,0,0,31.1,27.6Z" style="fill:#414042"/><rect width="55" height="60" style="fill:none"/></svg>