<svg id="Layer_1" data-name="Layer 1" xmlns="http://www.w3.org/2000/svg" viewBox="0 0 60 60"><title>icons-dockerfile</title><path d="M77.98,42.61V11.531a2.2,2.2,0,0,1,2.193-2.193H100.5l10.676,10.677v22.6H77.98Z" transform="translate(-72.919)" fill="#ffe2c0"/><path d="M100.091,10.338l10.09,10.091V41.611H78.98V11.531a1.2,1.2,0,0,1,1.193-1.193h19.917m0.828-2H80.173a3.193,3.193,0,0,0-3.193,3.193V43.611h35.2V19.6L100.919,8.338h0Z" transform="translate(-72.919)" fill="#52306c"/><g opacity="0.1"><path d="M110.06,21.437H100.008a1.152,1.152,0,0,1-1.152-1.152V10.467h1.058L110.06,20.38v1.058Z" transform="translate(-72.919)"/></g><path d="M101.562,19.38a0.153,0.153,0,0,1-.152-0.153V10.792l8.4,8.588h-8.243Z" transform="translate(-72.919)" fill="#52306c"/><path d="M102.41,13.245l5.02,5.135h-5.02V13.245m-2-4.907V19.227a1.152,1.152,0,0,0,1.152,1.152h10.619L100.41,8.338h0Z" transform="translate(-72.919)" fill="#52306c"/><path d="M108.988,52.341a3.193,3.193,0,0,0,3.193-3.193v-7.6a0.937,0.937,0,0,0-.768-1.041H77.748a0.937,0.937,0,0,0-.768,1.041v7.6a3.193,3.193,0,0,0,3.193,3.193h28.814Z" transform="translate(-72.919)" fill="#20c2ef"/><path d="M104.075,27.306a2.879,2.879,0,0,0-2.186-.2,3,3,0,0,0-1.182-1.9l-0.236-.19-0.2.229a2.572,2.572,0,0,0-.462,1.813,2.362,2.362,0,0,0,.442,1.218,3.35,3.35,0,0,1-.636.287,4.13,4.13,0,0,1-1.309.22H85.951l-0.027.285a5.463,5.463,0,0,0,.435,2.771l0.169,0.344,0.019,0.032a5.971,5.971,0,0,0,5.426,2.8c4.3,0,7.855-1.923,9.486-5.985a2.723,2.723,0,0,0,2.738-1.306l0.136-.266Z" transform="translate(-72.919)" fill="#d8b39a"/><polygon points="24.437 26.849 22.554 26.849 22.554 23.082 20.293 23.082 20.293 24.966 16.526 24.966 16.526 26.849 14.643 26.849 14.643 28.775 24.437 28.775 24.437 26.849" fill="#e5bfa1"/><path d="M82.063,44.471a1.373,1.373,0,0,1,1.447,1.618,1.384,1.384,0,0,1-1.447,1.631H80.92V44.471h1.143ZM81.5,47.227H82a0.9,0.9,0,0,0,.919-1.128A0.924,0.924,0,0,0,82,44.963H81.5v2.264Z" transform="translate(-72.919)" fill="#52306c"/><path d="M84.076,45.894a1.37,1.37,0,1,1,2.73,0v0.429a1.368,1.368,0,1,1-2.73,0V45.894Zm0.583,0.432a0.8,0.8,0,1,0,1.562,0V45.89a0.8,0.8,0,1,0-1.562,0v0.436Z" transform="translate(-72.919)" fill="#52306c"/><path d="M88,46.311a0.794,0.794,0,0,0,.762.967,0.624,0.624,0,0,0,.686-0.636H90v0.05a1.138,1.138,0,0,1-1.257,1.093,1.287,1.287,0,0,1-1.331-1.474V45.892a1.3,1.3,0,0,1,1.333-1.485A1.151,1.151,0,0,1,90,45.539v0.05H89.443a0.659,0.659,0,0,0-.693-0.673A0.808,0.808,0,0,0,88,45.9v0.414Z" transform="translate(-72.919)" fill="#52306c"/><path d="M92.054,45.865l1.23,1.854h-0.7L91.63,46.266l-0.352.39V47.72H90.7V44.471h0.576v1.478H91.3l1.283-1.478H93.23Z" transform="translate(-72.919)" fill="#52306c"/><path d="M95.828,47.72H93.778V44.471h2.049v0.492H94.35v0.876h1.393v0.467H94.35v0.921h1.478V47.72Z" transform="translate(-72.919)" fill="#52306c"/><path d="M98.944,45.484a0.934,0.934,0,0,1-.595.912l0.657,1.323H98.361l-0.579-1.229h-0.64V47.72H96.574V44.471h1.262A0.983,0.983,0,0,1,98.944,45.484Zm-1.2.55a0.521,0.521,0,0,0,.612-0.533,0.53,0.53,0,0,0-.6-0.555H97.143v1.088h0.6Z" transform="translate(-72.919)" fill="#52306c"/><path d="M99.674,47.72V44.471H101.7v0.5h-1.449v0.947h1.326V46.4h-1.326V47.72H99.674Z" transform="translate(-72.919)" fill="#52306c"/><path d="M102.324,47.72V44.471H102.9V47.72h-0.576Z" transform="translate(-72.919)" fill="#52306c"/><path d="M105.736,47.72h-1.99V44.471h0.576v2.737h1.414V47.72Z" transform="translate(-72.919)" fill="#52306c"/><path d="M108.337,47.72h-2.049V44.471h2.049v0.492h-1.478v0.876h1.393v0.467h-1.393v0.921h1.478V47.72Z" transform="translate(-72.919)" fill="#52306c"/><path d="M110.053,40.507h0v8.641a1.066,1.066,0,0,1-1.064,1.064H80.173a1.066,1.066,0,0,1-1.064-1.064V40.507H76.98v8.641a3.193,3.193,0,0,0,3.193,3.193h28.814a3.193,3.193,0,0,0,3.193-3.193V40.507h-2.128Z" transform="translate(-72.919)" fill="#52306c"/><line x1="39.262" y1="41.036" x2="4.061" y2="41.036" fill="none" stroke="#52306c" stroke-miterlimit="10"/><rect width="60" height="60" fill="none"/><path d="M97.853,28.278" transform="translate(-72.919)" fill="#20c2ef" stroke="#52306c" stroke-miterlimit="10"/></svg>