<svg id="Layer_1" data-name="Layer 1" xmlns="http://www.w3.org/2000/svg" viewBox="0 0 60 60"><title>icons-sharing</title><rect x="80.177" y="158.577" width="39.299" height="39.299" rx="7.396" ry="7.396" transform="translate(204.927 -66.83) rotate(90)" fill="#dbdbdb" stroke="#52306c" stroke-linecap="round" stroke-linejoin="round" stroke-width="2"/><path d="M114.619,169.836l-6.164-8.421-6.164-8.421a3.074,3.074,0,0,0-4.931,0L91.2,161.415l-6.164,8.421c-1.1,1.5.274,3.368,2.465,3.368H94v9.843a1.552,1.552,0,0,0,1.571,1.532H104.6a1.552,1.552,0,0,0,1.571-1.532V173.2h5.978C114.345,173.2,115.715,171.333,114.619,169.836Z" transform="translate(-73.126 -145.23)" opacity="0.15"/><path d="M113.4,168.161l-5.657-7.926-5.657-7.926a2.78,2.78,0,0,0-4.526,0l-5.657,7.926-5.657,7.926c-1.006,1.409.251,3.17,2.263,3.17h5.968V180.6a1.442,1.442,0,0,0,1.442,1.442h8.291a1.442,1.442,0,0,0,1.442-1.442v-9.264h5.487C113.153,171.331,114.41,169.57,113.4,168.161Z" transform="translate(-73.126 -145.23)" fill="#20c2ef" stroke="#52306c" stroke-linecap="round" stroke-linejoin="round"/><line x1="22.726" y1="14.103" x2="16.278" y2="23.116" fill="none" stroke="#fff" stroke-linecap="round" stroke-miterlimit="10" opacity="0.4"/><line x1="25.442" y1="10.306" x2="24.299" y2="11.903" fill="none" stroke="#fff" stroke-linecap="round" stroke-miterlimit="10" opacity="0.4"/><rect width="60" height="60" fill="none"/></svg>