<svg id="Layer_1" data-name="Layer 1" xmlns="http://www.w3.org/2000/svg" viewBox="0 0 76 76"><defs><style>.cls-1{fill:#3c5a99;}.cls-2{fill:#fff;}</style></defs><title>social</title><path class="cls-1" d="M40.46,0.08A38,38,0,1,0,75.92,35.54,38,38,0,0,0,40.46.08Z"/><path class="cls-2" d="M54,20H22a2,2,0,0,0-2,2V54a2,2,0,0,0,2,2H39.23V42.06H34.54V36.63h4.69v-4c0-4.65,2.84-7.18,7-7.18a38.49,38.49,0,0,1,4.19.21v4.86H47.53c-2.26,0-2.69,1.07-2.69,2.64v3.47h5.38l-0.7,5.43H44.84V56H54a2,2,0,0,0,2-2V22A2,2,0,0,0,54,20Z"/></svg>