<svg id="Layer_1" data-name="Layer 1" xmlns="http://www.w3.org/2000/svg" viewBox="0 0 76 76"><defs><style>.cls-1{fill:#1c7fb9;}.cls-2{fill:#fff;}</style></defs><title>social</title><g id="LinKeDin"><circle class="cls-1" cx="38" cy="38" r="38"/><g id="LinkedIn-2" data-name="LinkedIn"><rect class="cls-2" x="21.2" y="32.3" width="7.2" height="22.8"/><path class="cls-2" d="M48,32c-4.1,0-6.7,2.2-7.2,3.8V32.2H32.7c0.1,1.9,0,22.8,0,22.8h8.1V42.7a5.55,5.55,0,0,1,.2-1.9A4.08,4.08,0,0,1,44.9,38c2.8,0,4.1,2.1,4.1,5.2V55h8.2V42.3C57.1,35.3,53.1,32,48,32Z"/><path class="cls-2" d="M24.6,21.5c-2.7,0-4.4,1.7-4.4,4s1.7,3.9,4.3,3.9h0.1c2.7,0,4.4-1.7,4.4-4A4,4,0,0,0,24.6,21.5Z"/></g></g></svg>