<svg id="Layer_1" data-name="Layer 1" xmlns="http://www.w3.org/2000/svg" viewBox="0 0 76 76"><defs><style>.cls-1{fill:#2fa8df;}.cls-2{fill:#fff;}</style></defs><title>social</title><g id="Twitter"><circle class="cls-1" cx="38" cy="38" r="38"/><path id="Twitter-2" data-name="Twitter" class="cls-2" d="M55.3,22.8a13.91,13.91,0,0,1-4.9,1.9,7.71,7.71,0,0,0-5.6-2.5,7.81,7.81,0,0,0-7.7,7.9,11,11,0,0,0,.2,1.8,21.65,21.65,0,0,1-15.8-8.2,7.67,7.67,0,0,0-1,4,8.33,8.33,0,0,0,3.4,6.6,7.11,7.11,0,0,1-3.5-1v0.1a7.75,7.75,0,0,0,6.2,7.7,6.45,6.45,0,0,1-2,.3,6.15,6.15,0,0,1-1.4-.1,7.84,7.84,0,0,0,7.2,5.5,15.09,15.09,0,0,1-9.5,3.4,10.87,10.87,0,0,1-1.8-.1,21.54,21.54,0,0,0,11.8,3.5c14.1,0,21.9-12,21.9-22.4v-1a14.87,14.87,0,0,0,3.8-4.1,13.73,13.73,0,0,1-4.4,1.2A11,11,0,0,0,55.3,22.8Z"/></g></svg>