<svg id="Layer_1" data-name="Layer 1" xmlns="http://www.w3.org/2000/svg" viewBox="0 0 96 96"><defs><style>.cls-1{fill:#1c7fb9;}.cls-2{fill:#fff;}</style></defs><title>social-linkedin</title><g id="LinKeDin"><circle class="cls-1" cx="48" cy="48" r="48"/></g><path class="cls-2" d="M32,41.18h7.71V66H32V41.18Zm3.86-12.34a4.47,4.47,0,1,1-4.47,4.47h0a4.47,4.47,0,0,1,4.47-4.47"/><path class="cls-2" d="M44.56,41.18H52v3.39h0.1a8.11,8.11,0,0,1,7.3-4c7.81,0,9.25,5.14,9.25,11.82V66H60.9V53.93c0-2.88,0-6.58-4-6.58s-4.63,3.13-4.63,6.37V66H44.56V41.18Z"/></svg>