<svg data-name="YouTube Icon" xmlns="http://www.w3.org/2000/svg" viewBox="0 0 1021.449 718.423"><defs><linearGradient id="a" x1="512.499" y1="1.296" x2="512.499" y2="719.719" gradientUnits="userSpaceOnUse"><stop offset="0" stop-color="#e52d27"/><stop offset="1" stop-color="#bf171d"/></linearGradient></defs><title>logo-youtube</title><path d="M405.225 491.704l276-143-276-144v287z" fill="#fff"/><path data-name="The Sharpness" d="M405.225 204.704L647.267 366.33l33.958-17.626z" fill="#420000" fill-rule="evenodd" opacity=".12"/><path d="M1013.023 156.28s-9.98-70.388-40.606-101.38c-38.842-40.684-82.38-40.885-102.346-43.267C727.135 1.3 512.72 1.3 512.72 1.3h-.443s-214.408 0-357.35 10.333C134.96 14.01 91.437 14.21 52.582 54.9c-30.625 31-40.59 101.386-40.59 101.386S1.774 238.94 1.774 321.6v77.493c0 82.658 10.215 165.317 10.215 165.317s9.966 70.39 40.592 101.39c38.856 40.684 89.9 39.4 112.63 43.66 81.717 7.837 347.29 10.262 347.29 10.262s214.633-.323 357.57-10.655c19.966-2.382 63.5-2.583 102.346-43.267 30.625-31 40.606-101.387 40.606-101.387s10.2-82.66 10.2-165.317V321.6c0-82.66-10.2-165.32-10.2-165.32zM407.047 493L407 206l276 144z" transform="translate(-1.775 -1.296)" fill="url(#a)"/></svg>