<svg data-name="Layer 1" xmlns="http://www.w3.org/2000/svg" viewBox="0 0 273.39 222.178"><title>logo-twitter</title><path d="M273.39 26.3a112.124 112.124 0 0 1-32.216 8.833A56.252 56.252 0 0 0 265.837 4.1a112.3 112.3 0 0 1-35.617 13.612 56.142 56.142 0 0 0-95.58 51.158 159.236 159.236 0 0 1-115.608-58.6A56.15 56.15 0 0 0 36.39 85.154a55.86 55.86 0 0 1-25.405-7.016v.705a56.123 56.123 0 0 0 44.993 55 56.23 56.23 0 0 1-25.33.96 56.147 56.147 0 0 0 52.4 38.954 112.542 112.542 0 0 1-69.66 24.01 114.175 114.175 0 0 1-13.38-.783 158.76 158.76 0 0 0 85.98 25.2c103.17 0 159.585-85.467 159.585-159.586q0-3.648-.162-7.256a113.992 113.992 0 0 0 27.98-29.04z" fill="#55acee"/></svg>