<svg id="Layer_1" data-name="Layer 1" xmlns="http://www.w3.org/2000/svg" viewBox="0 0 288 288"><title>logo-instagram</title><path d="M360.5,112.5h-208a40,40,0,0,0-40,40v208a40,40,0,0,0,40,40h208a40,40,0,0,0,40-40v-208A40,40,0,0,0,360.5,112.5Zm-104,88a56,56,0,1,1-56,56A56,56,0,0,1,256.5,200.5Zm112,160a8,8,0,0,1-8,8h-208a8,8,0,0,1-8-8v-128h27.314a88,88,0,1,0,169.373,0H368.5v128Zm0-168a8,8,0,0,1-8,8h-40a8,8,0,0,1-8-8v-40a8,8,0,0,1,8-8h40a8,8,0,0,1,8,8v40Z" transform="translate(-112.5 -112.5)"/></svg>