<svg id="Layer_1" data-name="Layer 1" xmlns="http://www.w3.org/2000/svg" viewBox="0 0 144.004 143.999"><title>logo-linkedin</title><path d="M133.344-.06H10.628A10.51,10.51,0,0,0,0,10.316V133.551a10.517,10.517,0,0,0,10.629,10.389H133.344A10.537,10.537,0,0,0,144,133.551V10.316A10.531,10.531,0,0,0,133.344-.06Z" transform="translate(0 0.06)" style="fill:#0065a1"/><path d="M21.349,53.925H42.709v68.721H21.349V53.925Zm10.685-34.16A12.383,12.383,0,1,1,19.648,32.145,12.388,12.388,0,0,1,32.034,19.766" transform="translate(0 0.06)" style="fill:#fff"/><path d="M56.106,53.925H76.59v9.391h0.286c2.851-5.4,9.819-11.1,20.209-11.1,21.629,0,25.621,14.234,25.621,32.734v37.7H101.363V89.227c0-7.969-.146-18.219-11.1-18.219-11.112,0-12.819,8.68-12.819,17.643v34H56.106V53.925Z" transform="translate(0 0.06)" style="fill:#fff"/></svg>