<svg id="Layer_1" data-name="Layer 1" xmlns="http://www.w3.org/2000/svg" viewBox="0 0 273.39 222.178"><title>logo-twitter</title><path d="M340.732,115.231a112.124,112.124,0,0,1-32.215,8.832A56.252,56.252,0,0,0,333.18,93.031a112.3,112.3,0,0,1-35.617,13.611A56.142,56.142,0,0,0,201.983,157.8,159.236,159.236,0,0,1,86.375,99.2a56.151,56.151,0,0,0,17.358,74.884,55.861,55.861,0,0,1-25.405-7.016c0,0.234,0,.469,0,0.705a56.123,56.123,0,0,0,44.993,55,56.23,56.23,0,0,1-25.33.961,56.147,56.147,0,0,0,52.4,38.953,112.542,112.542,0,0,1-69.659,24.01,114.175,114.175,0,0,1-13.38-.783,158.76,158.76,0,0,0,85.979,25.2c103.169,0,159.585-85.467,159.585-159.586q0-3.648-.162-7.256A113.992,113.992,0,0,0,340.732,115.231Z" transform="translate(-67.343 -88.93)" style="fill:#55acee"/></svg>