<svg data-name="Layer 1" xmlns="http://www.w3.org/2000/svg" viewBox="0 0 144.004 143.999"><title>logo-linkedin</title><path d="M133.344 0H10.628A10.51 10.51 0 0 0 0 10.376V133.61A10.517 10.517 0 0 0 10.63 144h122.714A10.537 10.537 0 0 0 144 133.61V10.377A10.53 10.53 0 0 0 133.344 0z" fill="#0065a1"/><path d="M21.35 53.985h21.36v68.72H21.35v-68.72zm10.684-34.16a12.383 12.383 0 1 1-12.386 12.38 12.388 12.388 0 0 1 12.386-12.38M56.106 53.985H76.59v9.39h.286c2.85-5.4 9.82-11.1 20.21-11.1 21.628 0 25.62 14.235 25.62 32.735v37.7h-21.343V89.287c0-7.97-.146-18.22-11.1-18.22-11.112 0-12.82 8.68-12.82 17.644v34H56.107V53.986z" fill="#fff"/></svg>