<svg id="Layer_1" data-name="Layer 1" xmlns="http://www.w3.org/2000/svg" viewBox="0 0 15 13.838"><title>bug</title><path d="M7.566,2.014A6.841,6.841,0,0,0,2.393,1.36" transform="translate(0 -0.621)" fill="none" stroke="#fff" stroke-linecap="round" stroke-miterlimit="10"/><path d="M5.52,11.985a5.965,5.965,0,0,0,2.139,1.894,6.926,6.926,0,0,0,1.925-1.753" transform="translate(0 -0.621)" fill="none" stroke="#fff" stroke-linecap="round" stroke-miterlimit="10"/><path d="M12.692,1.33a6.84,6.84,0,0,0-5.157.74" transform="translate(0 -0.621)" fill="none" stroke="#fff" stroke-linecap="round" stroke-miterlimit="10"/><path d="M0.5,9.228A7.229,7.229,0,0,0,1.622,13.1,7.267,7.267,0,0,0,8.6,5.839,7.229,7.229,0,0,0,7.476,1.97,7.267,7.267,0,0,0,.5,9.228Z" transform="translate(0 -0.621)" fill="none" stroke="#fff" stroke-linecap="round" stroke-miterlimit="10"/><path d="M14.5,9.228A7.229,7.229,0,0,1,13.378,13.1,7.256,7.256,0,0,1,7.524,1.97,7.267,7.267,0,0,1,14.5,9.228Z" transform="translate(0 -0.621)" fill="none" stroke="#fff" stroke-linecap="round" stroke-miterlimit="10"/></svg>