<svg id="Layer_1" data-name="Layer 1" xmlns="http://www.w3.org/2000/svg" viewBox="0 0 45 45"><title>icons-unlimited</title><rect x="60.48" y="6.73" width="31.54" height="31.54" rx="6.242" ry="6.242" transform="translate(92.327 -15.507) rotate(135)" fill="#20c2ef" stroke="#52306c" stroke-linecap="round" stroke-linejoin="round" stroke-width="2"/><path d="M78.425,7.77a2.956,2.956,0,0,0-4.181,0l-2.6,2.6" transform="translate(-53.75)" fill="none" stroke="#fff" stroke-linecap="round" stroke-miterlimit="10" stroke-width="1.5" opacity="0.4"/><line x1="27.029" y1="10.124" x2="26.186" y2="9.281" fill="none" stroke="#fff" stroke-linecap="round" stroke-miterlimit="10" stroke-width="1.5" opacity="0.4"/><path d="M66.171,19.19a4.732,4.732,0,0,0,6.692,6.692l3.346-3.346L72.863,19.19A4.732,4.732,0,0,0,66.171,19.19Z" transform="translate(-53.75)" fill="none" stroke="#fff" stroke-linecap="round" stroke-miterlimit="10" stroke-width="2"/><path d="M86.329,25.81a4.732,4.732,0,0,0-6.692-6.692L76.29,22.463l3.346,3.346A4.732,4.732,0,0,0,86.329,25.81Z" transform="translate(-53.75)" fill="none" stroke="#fff" stroke-linecap="round" stroke-miterlimit="10" stroke-width="2"/><rect width="45" height="45" fill="none"/></svg>