<svg id="Layer_1" data-name="Layer 1" xmlns="http://www.w3.org/2000/svg" viewBox="0 0 18 18"><title>icons-quality-assurance</title><path d="M33.563,28.02A5.283,5.283,0,1,1,28.28,33.3a5.289,5.289,0,0,1,5.283-5.283m0-1A6.283,6.283,0,1,0,39.846,33.3a6.283,6.283,0,0,0-6.283-6.283h0Z" transform="translate(-27.26 -27)"/><path d="M29.961,31.9a3.18,3.18,0,0,1,1.789-1.978" transform="translate(-27.26 -27)" fill="none" stroke="#000" stroke-linecap="round" stroke-miterlimit="10" stroke-width="0.769"/><rect x="39.228" y="36.565" width="1.638" height="6.441" transform="translate(-43.664 12.97) rotate(-45)" fill="none" stroke="#000" stroke-linejoin="round"/><rect x="40.168" y="38.324" width="3.275" height="6.441" rx="1.638" ry="1.638" transform="translate(-44.393 14.729) rotate(-45)" fill="#fff" stroke="#000" stroke-linejoin="round"/><rect width="18" height="18" fill="none"/></svg>