<svg id="Layer_1" data-name="Layer 1" xmlns="http://www.w3.org/2000/svg" viewBox="0 0 45 45"><title>icons-bug</title><circle cx="22.438" cy="22.525" r="17.913" fill="#f29a25" stroke="#52306c" stroke-linecap="round" stroke-linejoin="round" stroke-width="2"/><g opacity="0.15"><path d="M34.283,8.986a17.907,17.907,0,0,1-25.26,25.26A17.908,17.908,0,1,0,34.283,8.986Z"/></g><path d="M14.157,10.193A13.512,13.512,0,0,0,8.279,18.8" fill="none" stroke="#fff" stroke-linecap="round" stroke-linejoin="round" stroke-width="1.5" opacity="0.4"/><path d="M18.02,8.473a13.4,13.4,0,0,0-2.009.711" fill="none" stroke="#fff" stroke-linecap="round" stroke-linejoin="round" stroke-width="1.5" opacity="0.4"/><g opacity="0.8"><path d="M22.57,16.622a7.329,7.329,0,0,0-5.542-.7" fill="none" stroke="#fff" stroke-linecap="round" stroke-miterlimit="10" stroke-width="1.5"/><path d="M20.379,27.305a6.391,6.391,0,0,0,2.291,2.03,7.421,7.421,0,0,0,2.062-1.879" fill="none" stroke="#fff" stroke-linecap="round" stroke-miterlimit="10" stroke-width="1.5"/><path d="M28.062,15.889a7.329,7.329,0,0,0-5.525.793" fill="none" stroke="#fff" stroke-linecap="round" stroke-miterlimit="10" stroke-width="1.5"/><path d="M15,24.352A7.746,7.746,0,0,0,16.2,28.5a7.775,7.775,0,0,0,6.272-11.921A7.787,7.787,0,0,0,15,24.352Z" fill="none" stroke="#fff" stroke-linecap="round" stroke-miterlimit="10" stroke-width="1.5"/><path d="M30,24.352A7.746,7.746,0,0,1,28.8,28.5a7.775,7.775,0,0,1-6.272-11.921A7.787,7.787,0,0,1,30,24.352Z" fill="none" stroke="#fff" stroke-linecap="round" stroke-miterlimit="10" stroke-width="1.5"/></g><rect width="45" height="45" fill="none"/></svg>