<svg id="Layer_1" data-name="Layer 1" xmlns="http://www.w3.org/2000/svg" viewBox="0 0 45 45"><title>icons-star</title><path d="M24.691,62.239L28.669,70.3a2.443,2.443,0,0,0,1.84,1.337l8.9,1.293A2.443,2.443,0,0,1,40.76,77.1l-6.437,6.275a2.443,2.443,0,0,0-.7,2.163l1.52,8.86a2.443,2.443,0,0,1-3.545,2.576l-7.957-4.183a2.443,2.443,0,0,0-2.274,0l-7.957,4.183A2.443,2.443,0,0,1,9.861,94.4l1.52-8.86a2.443,2.443,0,0,0-.7-2.163L4.24,77.1A2.443,2.443,0,0,1,5.595,72.93l8.9-1.293a2.443,2.443,0,0,0,1.84-1.337l3.979-8.061A2.443,2.443,0,0,1,24.691,62.239Z" transform="translate(0 -56.5)" fill="#ffcf57" stroke="#52306c" stroke-linecap="round" stroke-linejoin="round" stroke-width="2"/><line x1="20.48" y1="12.645" x2="22.352" y2="8.851" fill="none" stroke="#fff" stroke-linecap="round" stroke-linejoin="round" stroke-width="1.5" opacity="0.4"/><path d="M8.308,75.682l8.209-1.193a2.254,2.254,0,0,0,1.7-1.233l0.771-1.563" transform="translate(0 -56.5)" fill="none" stroke="#fff" stroke-linecap="round" stroke-linejoin="round" stroke-width="1.5" opacity="0.4"/><rect width="45" height="45" fill="none"/></svg>