<svg id="Layer_1" data-name="Layer 1" xmlns="http://www.w3.org/2000/svg" viewBox="0 0 40.654 41.92"><title>icons-db</title><path d="M22.5,29.113c-10.812,0-19.577-3.016-19.577-6.737V35.85c0,3.721,8.765,6.737,19.577,6.737S42.077,39.57,42.077,35.85V22.377C42.077,26.1,33.312,29.113,22.5,29.113Z" transform="translate(-2.173 -1.417)" fill="#dbdbdb"/><path d="M22.5,2.167C11.688,2.167,2.923,5.183,2.923,8.9V35.85c0,3.721,8.765,6.737,19.577,6.737S42.077,39.57,42.077,35.85V8.9C42.077,5.183,33.312,2.167,22.5,2.167Z" transform="translate(-2.173 -1.417)" fill="none" stroke="#dbdbdb" stroke-miterlimit="10" stroke-width="1.5"/><path d="M42.077,8.9c0,3.721-8.765,6.737-19.577,6.737S2.923,12.624,2.923,8.9" transform="translate(-2.173 -1.417)" fill="none" stroke="#dbdbdb" stroke-miterlimit="10" stroke-width="1.5"/><path d="M42.077,22.377c0,3.721-8.765,6.737-19.577,6.737S2.923,26.1,2.923,22.377" transform="translate(-2.173 -1.417)" fill="none" stroke="#dbdbdb" stroke-miterlimit="10" stroke-width="1.5"/><circle cx="5.914" cy="18.938" r="1.693" fill="#dbdbdb"/><circle cx="5.914" cy="32.409" r="1.693" fill="#fff"/></svg>