<svg id="Layer_1" data-name="Layer 1" xmlns="http://www.w3.org/2000/svg" viewBox="0 0 406 300.9"><title>runnable-works</title><rect x="203" y="3" width="200" height="150" rx="10" ry="10" fill="#cdaed3"/><g opacity="0.2"><path d="M373.3,153.949a66.241,66.241,0,0,0-6.635-16.055l11.166-20.805a74.324,74.324,0,0,0-14.759-14.759L342.264,113.5a66.238,66.238,0,0,0-16.055-6.635l-7.418-24.21H299.112l-7.417,24.21a66.135,66.135,0,0,0-16.041,6.635L254.835,102.33a74.268,74.268,0,0,0-14.759,14.759l11.174,20.8a65.9,65.9,0,0,0-6.642,16.062L228.435,158.9H389.469Z" transform="translate(-1.354 -5.904)" fill="#231f20"/></g><rect x="203" y="3" width="200" height="150" rx="10" ry="10" fill="none" stroke="#53316d" stroke-miterlimit="10" stroke-width="6"/><path d="M298.133,256.762l-6.467-21.105a3,3,0,0,0-2.094-2.02,60.621,60.621,0,0,1-14.676-6.064,3,3,0,0,0-2.92-.046l-18.23,9.784a66.084,66.084,0,0,1-10.9-10.9l9.791-18.231a3,3,0,0,0-.048-2.925,60.182,60.182,0,0,1-6.069-14.671,3,3,0,0,0-2.02-2.094L223.4,182.025V167.583l21.105-6.467a3,3,0,0,0,2.02-2.095,60.316,60.316,0,0,1,6.07-14.679,3,3,0,0,0,.047-2.924l-9.791-18.224a66.065,66.065,0,0,1,10.9-10.9l18.245,9.785a3,3,0,0,0,2.921-.047,60.475,60.475,0,0,1,14.661-6.064,3,3,0,0,0,2.093-2.019l6.467-21.105h14.442l6.467,21.105a3,3,0,0,0,2.094,2.02,60.6,60.6,0,0,1,14.676,6.064,3,3,0,0,0,2.92.046l18.231-9.785a66.119,66.119,0,0,1,10.9,10.9l-9.784,18.231a3,3,0,0,0,.046,2.919,60.633,60.633,0,0,1,6.064,14.676,3,3,0,0,0,2.02,2.094l21.105,6.467v14.442l-21.105,6.467a3,3,0,0,0-2.02,2.094,60.659,60.659,0,0,1-6.064,14.67,3,3,0,0,0-.046,2.918l9.784,18.238a66.16,66.16,0,0,1-10.9,10.9l-18.223-9.79a3,3,0,0,0-2.924.047,60.607,60.607,0,0,1-14.683,6.071,3,3,0,0,0-2.091,2.019l-6.467,21.105H298.133Z" transform="translate(-1.354 -5.904)" fill="#dcdbdb"/><path d="M310.357,95.847l5.816,18.984a6,6,0,0,0,4.188,4.039,57.632,57.632,0,0,1,13.95,5.764,6,6,0,0,0,5.839.091l16.46-8.834a61.568,61.568,0,0,1,7.657,7.657l-8.834,16.46a6,6,0,0,0,.091,5.839,57.631,57.631,0,0,1,5.764,13.95,6,6,0,0,0,4.039,4.188l18.984,5.816v10.005l-18.984,5.816a6,6,0,0,0-4.039,4.188,57.623,57.623,0,0,1-5.764,13.944,6,6,0,0,0-.092,5.838l8.835,16.467a61.675,61.675,0,0,1-7.657,7.655l-16.451-8.838a6,6,0,0,0-5.847.094,57.587,57.587,0,0,1-13.956,5.769,6,6,0,0,0-4.183,4.038l-5.816,18.984H300.351l-5.816-18.984a6,6,0,0,0-4.188-4.039,57.631,57.631,0,0,1-13.95-5.764,6,6,0,0,0-5.839-.091l-16.46,8.834a61.567,61.567,0,0,1-7.656-7.656l8.84-16.46a6,6,0,0,0-.1-5.849,57.223,57.223,0,0,1-5.766-13.941,6,6,0,0,0-4.039-4.188L226.4,179.807V169.8l18.984-5.816a6,6,0,0,0,4.039-4.19,57.319,57.319,0,0,1,5.767-13.95,6,6,0,0,0,.094-5.847l-8.839-16.453a61.517,61.517,0,0,1,7.656-7.656l16.475,8.836a6,6,0,0,0,5.84-.094,57.513,57.513,0,0,1,13.935-5.763,6,6,0,0,0,4.186-4.038l5.816-18.984h10.005m4.437-6H295.914L288.8,113.074a63.45,63.45,0,0,0-15.389,6.365l-19.973-10.712a71.248,71.248,0,0,0-14.16,14.16L250,142.839a63.221,63.221,0,0,0-6.372,15.41L220.4,165.364v18.879l23.226,7.116a63.169,63.169,0,0,0,6.372,15.4l-10.719,19.96a71.3,71.3,0,0,0,14.16,14.16L273.4,230.17a63.548,63.548,0,0,0,15.4,6.365l7.116,23.226h18.879l7.116-23.226a63.474,63.474,0,0,0,15.41-6.372l19.953,10.719a71.437,71.437,0,0,0,14.16-14.16l-10.712-19.966a63.515,63.515,0,0,0,6.365-15.4l23.226-7.116V165.364l-23.226-7.116a63.549,63.549,0,0,0-6.365-15.4l10.712-19.96a71.3,71.3,0,0,0-14.16-14.16l-19.96,10.712a63.546,63.546,0,0,0-15.4-6.365l-7.116-23.226h0Z" transform="translate(-1.354 -5.904)" fill="#53316d"/><path d="M305.354,212.451A37.647,37.647,0,1,1,343,174.8,37.689,37.689,0,0,1,305.354,212.451Z" transform="translate(-1.354 -5.904)" fill="#bcbcbb"/><path d="M305.354,139.158A35.647,35.647,0,1,1,269.707,174.8a35.687,35.687,0,0,1,35.646-35.646m0-4A39.647,39.647,0,1,0,345,174.8a39.651,39.651,0,0,0-39.647-39.646h0Z" transform="translate(-1.354 -5.904)" fill="#53316d"/><path d="M305.354,195.459A20.655,20.655,0,1,1,326.009,174.8,20.678,20.678,0,0,1,305.354,195.459Z" transform="translate(-1.354 -5.904)" fill="#fff"/><path d="M305.354,156.149A18.655,18.655,0,1,1,286.7,174.8a18.676,18.676,0,0,1,18.655-18.655m0-4A22.655,22.655,0,1,0,328.009,174.8a22.658,22.658,0,0,0-22.655-22.655h0Z" transform="translate(-1.354 -5.904)" fill="#53316d"/><line x1="303" y1="59.9" x2="318" y2="59.9" fill="none" stroke="#53316d" stroke-linecap="round" stroke-miterlimit="10" stroke-width="5"/><line x1="312" y1="47.9" x2="342" y2="47.9" fill="none" stroke="#53316d" stroke-linecap="round" stroke-miterlimit="10" stroke-width="5"/><line x1="330" y1="59.9" x2="375" y2="59.9" fill="none" stroke="#53316d" stroke-linecap="round" stroke-miterlimit="10" stroke-width="5"/><line x1="284" y1="59.9" x2="291" y2="59.9" fill="none" stroke="#53316d" stroke-linecap="round" stroke-miterlimit="10" stroke-width="5"/><line x1="218" y1="35.9" x2="242" y2="35.9" fill="none" stroke="#53316d" stroke-linecap="round" stroke-miterlimit="10" stroke-width="5"/><line x1="278" y1="35.9" x2="330" y2="35.9" fill="none" stroke="#53316d" stroke-linecap="round" stroke-miterlimit="10" stroke-width="5"/><line x1="254" y1="35.9" x2="266" y2="35.9" fill="none" stroke="#53316d" stroke-linecap="round" stroke-miterlimit="10" stroke-width="5"/><line x1="342" y1="35.9" x2="354" y2="35.9" fill="none" stroke="#53316d" stroke-linecap="round" stroke-miterlimit="10" stroke-width="5"/><path d="M304.354,86.8v-23a10,10,0,0,0-10-10h-280a10,10,0,0,0-10,10v23h300Z" transform="translate(-1.354 -5.904)" fill="#e6e6e5" stroke="#53316d" stroke-linecap="round" stroke-linejoin="round" stroke-width="6"/><polyline points="54 80.9 63 64.4 123 64.4 132 80.9" fill="#fafafa"/><path d="M304.354,86.8v207a10,10,0,0,1-10,10h-280a10,10,0,0,1-10-10V86.8h51l9-16.5h60l9,16.5h171Z" transform="translate(-1.354 -5.904)" fill="#fafafa" stroke="#53316d" stroke-linecap="round" stroke-linejoin="round" stroke-width="6"/><path d="M287.854,82.3" transform="translate(-1.354 -5.904)" fill="none" stroke="#818181" stroke-linecap="round" stroke-linejoin="round" stroke-width="6"/><circle cx="19.5" cy="64.4" r="4.5" fill="#53316d"/><circle cx="33" cy="64.4" r="4.5" fill="#53316d"/><circle cx="46.5" cy="64.4" r="4.5" fill="#53316d"/><circle cx="219.5" cy="19.5" r="4.5" fill="#53316d"/><circle cx="233" cy="19.5" r="4.5" fill="#53316d"/><circle cx="246.5" cy="19.5" r="4.5" fill="#53316d"/><rect x="39" y="128.9" width="150" height="15" rx="5" ry="5" fill="#fff" stroke="#53316d" stroke-miterlimit="10" stroke-width="5"/><rect x="216" y="128.9" width="60" height="105" rx="5" ry="5" fill="#fde1c2" stroke="#53316d" stroke-miterlimit="10" stroke-width="5"/><line x1="39" y1="116.9" x2="69" y2="116.9" fill="none" stroke="#53316d" stroke-linecap="round" stroke-miterlimit="10" stroke-width="5"/><rect x="39" y="179.9" width="150" height="15" rx="5" ry="5" fill="#fff" stroke="#53316d" stroke-miterlimit="10" stroke-width="5"/><rect x="139" y="218.9" width="50" height="15" rx="5" ry="5" fill="#a7dde4" stroke="#53316d" stroke-miterlimit="10" stroke-width="5"/><line x1="39" y1="167.9" x2="69" y2="167.9" fill="none" stroke="#53316d" stroke-linecap="round" stroke-miterlimit="10" stroke-width="5"/><line x1="39" y1="226.4" x2="99" y2="226.4" fill="none" stroke="#53316d" stroke-linecap="round" stroke-miterlimit="10" stroke-width="5"/><path d="M321.91,236.535a64.778,64.778,0,0,0,6.262-2.027l0.182-59.7V115.171a64.143,64.143,0,0,0-6.444-2.1l-7.116-23.226h-10.44v62.327c0.332-.014.664-0.025,1-0.025a22.655,22.655,0,1,1,0,45.31c-0.192,0-.381-0.01-0.572-0.014,0.139,23.527.279,49.886,0.419,62.316h9.593Z" transform="translate(-1.354 -5.904)" fill="#231f20" opacity="0.2"/></svg>