<svg id="package" xmlns="http://www.w3.org/2000/svg" viewBox="0 0 106.194 106.533"><title>solution-stack</title><rect x="25.889" y="55.733" width="48.277" height="48.277" rx="3" ry="3" transform="translate(54.498 -18.714) rotate(45)" fill="#fff" stroke="#52306c" stroke-miterlimit="10"/><rect x="25.889" y="35.861" width="48.277" height="48.277" rx="3" ry="3" transform="translate(40.446 -24.535) rotate(45)" fill="#fff" stroke="#52306c" stroke-miterlimit="10"/><path d="M118.813,52.83H97.855a3.309,3.309,0,0,0-3.309,3.309V57.23L90.57,60l3.976,2.77v1.091a3.309,3.309,0,0,0,3.309,3.309h20.958a3.309,3.309,0,0,0,3.309-3.309V56.139A3.309,3.309,0,0,0,118.813,52.83Z" transform="translate(-16.633 -6.734)" fill="#71438f"/><path d="M119.518,72.9H98.56a3.309,3.309,0,0,0-3.309,3.309V77.3l-3.976,2.77,3.976,2.77v1.091a3.309,3.309,0,0,0,3.309,3.309h20.958a3.309,3.309,0,0,0,3.309-3.309V76.213A3.309,3.309,0,0,0,119.518,72.9Z" transform="translate(-16.633 -6.734)" fill="#71438f"/><path d="M104.039,78.276v4.246c0,1.381,2.239,2.5,5,2.5s5-1.119,5-2.5V78.276h-10Z" transform="translate(-16.633 -6.734)" fill="#fff" stroke="#71438f" stroke-miterlimit="10" stroke-width="0.75"/><path d="M100.827,63.619l2.524-7.237h1.181l2.519,7.237h-1.167l-0.679-2.02h-2.6l-0.679,2.02h-1.1Zm3.063-6-1.018,3.08h2.079l-1.018-3.08h-0.044Z" transform="translate(-16.633 -6.734)" fill="#fff"/><path d="M111.008,56.381a2.325,2.325,0,1,1,0,4.649h-1.622v2.588h-1.092V56.381h2.719Zm-1.627,3.68H110.4c1.16,0,1.845-.26,1.845-1.347a1.239,1.239,0,0,0-1.369-1.352h-1.495v2.7Z" transform="translate(-16.633 -6.734)" fill="#fff"/><path d="M114.749,63.619V56.381h1.092v7.237h-1.092Z" transform="translate(-16.633 -6.734)" fill="#fff"/><ellipse cx="92.406" cy="71.542" rx="5" ry="2.5" fill="#fff" stroke="#71438f" stroke-miterlimit="10" stroke-width="0.75"/><rect x="25.889" y="15.989" width="48.277" height="48.277" rx="3" ry="3" transform="translate(26.394 -30.355) rotate(45)" fill="#71438f" stroke="#52306c" stroke-miterlimit="10"/><path d="M56.508,32.318a2.816,2.816,0,0,1,2.852,2.853,2.7,2.7,0,0,1-.389,1.437,2.949,2.949,0,0,1-1.037,1.014v0.4a6.136,6.136,0,0,1-5.705,5.705,3.089,3.089,0,0,0-1.337.256,2.317,2.317,0,0,0-.847.657A2.861,2.861,0,1,1,45.1,46.582a2.69,2.69,0,0,1,.39-1.438,2.943,2.943,0,0,1,1.036-1.014V34.792a2.942,2.942,0,0,1-1.036-1.014,2.69,2.69,0,0,1-.39-1.438,2.853,2.853,0,1,1,5.705,0,2.694,2.694,0,0,1-.39,1.438,2.944,2.944,0,0,1-1.036,1.014v6.753a5.871,5.871,0,0,1,2.852-.647,3.068,3.068,0,0,0,2.853-2.852v-0.4a2.936,2.936,0,0,1-1.036-1.014,2.69,2.69,0,0,1-.39-1.437,2.816,2.816,0,0,1,2.852-2.853V32.318Zm-9.561-.981a1.4,1.4,0,1,0,2.006,0A1.4,1.4,0,0,0,46.948,31.338Zm2.006,16.269a1.4,1.4,0,1,0-2.006,0A1.4,1.4,0,0,0,48.953,47.606ZM57.511,36.2a1.4,1.4,0,1,0-2.006,0A1.4,1.4,0,0,0,57.511,36.2Z" transform="translate(-16.633 -6.734)" fill="#fff"/></svg>