<svg id="automatic" xmlns="http://www.w3.org/2000/svg" viewBox="0 0 150.51 54.997"><title>solution-automatic</title><g id="Rectangle-414"><path d="M2.571,26.573H137.192c1.42,0,2.571,1.523,2.571,3.4V67.081c0,1.879-1.151,3.4-2.571,3.4H2.571C1.151,70.483,0,68.96,0,67.081V29.974C0,28.1,1.151,26.573,2.571,26.573Z" transform="translate(0 -26.573)" fill="#60cd77"/></g><path d="M37.559,46.054V38.21H40.63a2,2,0,0,1,2.25,1.957,1.755,1.755,0,0,1-1.353,1.712v0.043a1.879,1.879,0,0,1,1.75,1.93c0,1.381-.989,2.2-2.658,2.2h-3.06Zm0.978-4.463H40.1c1.158,0,1.788-.462,1.788-1.31a1.233,1.233,0,0,0-1.484-1.207h-1.87v2.517h0Zm1.935,3.6c1.18,0,1.8-.478,1.8-1.386s-0.641-1.37-1.892-1.37H38.537V45.19h1.935Z" transform="translate(0 -26.573)" fill="#fff"/><path d="M49.378,46.054H48.487V45.086H48.465a2.094,2.094,0,0,1-3.892-1.136V40.194h0.946v3.593a1.268,1.268,0,0,0,1.37,1.478A1.5,1.5,0,0,0,48.433,43.6v-3.4h0.946v5.86Z" transform="translate(0 -26.573)" fill="#fff"/><path d="M50.925,38.651a0.6,0.6,0,1,1,.6.6h0A0.6,0.6,0,0,1,50.925,38.651Zm0.125,1.544H52v5.86H51.05v-5.86Z" transform="translate(0 -26.573)" fill="#fff"/><path d="M53.721,37.868h0.946v8.186H53.721V37.868Z" transform="translate(0 -26.573)" fill="#fff"/><path d="M57.593,38.874v1.321h1.141v0.783H57.593v3.517a0.657,0.657,0,0,0,.728.783,3.917,3.917,0,0,0,.408-0.027v0.8a3.421,3.421,0,0,1-.609.049c-1.06,0-1.473-.44-1.473-1.565V40.977H55.832V40.194h0.815V38.874h0.946Z" transform="translate(0 -26.573)" fill="#fff"/><path d="M62.817,44.363c0-1.033.8-1.631,2.256-1.723l1.593-.092V42.091a1.044,1.044,0,0,0-1.239-1.044,1.131,1.131,0,0,0-1.212.843h-1.1a2.107,2.107,0,0,1,2.348-1.815c1.44,0,2.37.761,2.37,1.93v4.05H66.7V45.07H66.676a2.065,2.065,0,0,1-1.864,1.044A1.786,1.786,0,0,1,62.817,44.363Zm3.848-.527V43.374l-1.435.1c-0.8.049-1.223,0.348-1.223,0.87a0.942,0.942,0,0,0,1.12.832A1.408,1.408,0,0,0,66.66,43.9q0-.033,0-0.067h0Z" transform="translate(0 -26.573)" fill="#fff"/><path d="M74.886,43.1c0,1.826-.984,3.011-2.468,3.011a2.022,2.022,0,0,1-1.87-1.027H70.527v2.924h-1.18v-7.86h1.137v0.978H70.51a2.087,2.087,0,0,1,1.881-1.038C73.9,40.091,74.886,41.271,74.886,43.1Zm-1.207,0c0-1.218-.631-2.011-1.587-2.011-0.935,0-1.572.81-1.576,2.011s0.635,2.011,1.576,2.011C73.049,45.114,73.679,44.325,73.679,43.1Z" transform="translate(0 -26.573)" fill="#fff"/><path d="M76.106,38.629a0.69,0.69,0,1,1,.679.679A0.69,0.69,0,0,1,76.106,38.629Zm0.1,1.522h1.179v5.9H76.2v-5.9Z" transform="translate(0 -26.573)" fill="#fff"/><path d="M78.982,47.772L81.325,38.2H82.38l-2.37,9.567H78.982Z" transform="translate(0 -26.573)" fill="#fff"/><path d="M85.036,45.054H85.008v1H83.873v-8.2h1.179V41.13h0.022a2.028,2.028,0,0,1,1.87-1.038c1.489,0,2.468,1.18,2.468,3.011s-0.978,3.011-2.479,3.011A2.039,2.039,0,0,1,85.036,45.054ZM85.047,43.1c0,1.2.635,2.011,1.587,2.011s1.57-.788,1.57-2.011-0.62-2.011-1.57-2.011A1.739,1.739,0,0,0,85.047,43.1Z" transform="translate(0 -26.573)" fill="#fff"/><path d="M90.685,40.151h1.125v0.995h0.022a1.413,1.413,0,0,1,1.424-1.055,1.935,1.935,0,0,1,.413.038v1.1a1.726,1.726,0,0,0-.538-0.071,1.234,1.234,0,0,0-1.267,1.37v3.522h-1.18v-5.9h0Z" transform="translate(0 -26.573)" fill="#fff"/><path d="M94.379,44.364c0-1.033.8-1.631,2.256-1.723l1.593-.092V42.092a1.044,1.044,0,0,0-1.239-1.044,1.131,1.131,0,0,0-1.212.843h-1.1a2.107,2.107,0,0,1,2.348-1.815c1.44,0,2.37.761,2.37,1.93v4.05H98.265V45.07H98.238a2.065,2.065,0,0,1-1.864,1.044A1.786,1.786,0,0,1,94.379,44.364Zm3.848-.527V43.374l-1.435.1c-0.8.049-1.223,0.348-1.223,0.87a0.942,0.942,0,0,0,1.12.832,1.408,1.408,0,0,0,1.534-1.27Q98.226,43.87,98.227,43.836Z" transform="translate(0 -26.573)" fill="#fff"/><path d="M100.909,40.151h1.125v0.995h0.022a1.906,1.906,0,0,1,1.864-1.06,1.942,1.942,0,0,1,2.049,2.185v3.783h-1.18v-3.56a1.193,1.193,0,0,0-1.277-1.4,1.389,1.389,0,0,0-1.424,1.549v3.408h-1.18v-5.9Z" transform="translate(0 -26.573)" fill="#fff"/><path d="M111.4,42.168a1.319,1.319,0,0,0-1.408-1.1c-0.951,0-1.582.794-1.582,2.033,0,1.272.641,2.033,1.587,2.033a1.3,1.3,0,0,0,1.413-1.065h1.125a2.346,2.346,0,0,1-2.544,2.055,2.714,2.714,0,0,1-2.778-3.022,2.73,2.73,0,0,1,2.767-3.028,2.367,2.367,0,0,1,2.544,2.093H111.4Z" transform="translate(0 -26.573)" fill="#fff"/><path d="M113.786,37.857h1.169v3.289h0.027a1.911,1.911,0,0,1,1.864-1.06,1.986,1.986,0,0,1,2.076,2.2v3.772h-1.18V42.51a1.231,1.231,0,0,0-1.3-1.413,1.425,1.425,0,0,0-1.473,1.576v3.381h-1.18v-8.2Z" transform="translate(0 -26.573)" fill="#fff"/><path id="Fill-3" d="M25,44.73a2.958,2.958,0,0,1,.657-0.5,1.61,1.61,0,0,0,1.03-1.42,1.472,1.472,0,0,0-.67-1.041,2.046,2.046,0,0,0-1.545-.435A1.825,1.825,0,0,0,23.2,42.791a9.173,9.173,0,0,0-2.256-.4,1.881,1.881,0,0,1,.317-0.414,1.226,1.226,0,0,0-.858.179c0.123-.116.24-0.308,0.369-0.425a2.065,2.065,0,0,0-1.632.625,7.992,7.992,0,0,0-2.227.383,1.8,1.8,0,0,0-1.255-1.407,2.045,2.045,0,0,0-1.545.435,1.472,1.472,0,0,0-.67,1.041,1.61,1.61,0,0,0,1.03,1.42,3.385,3.385,0,0,1,.606.445c-0.922,2.652-.854,7.659-0.854,7.659l-0.1,1.065a8.894,8.894,0,0,0,11.577.308c-0.044-.7-0.047-1.373-0.047-1.373,0.035-1.139.146-5.226-.663-7.6" transform="translate(0 -26.573)" fill="#3c804b"/><path id="Fill-6" d="M18.352,45.867c1-1.435,5.347-1.014,3.57,3.581-0.258.67-.564,1.328-0.851,1.985a0.861,0.861,0,0,0-.117-0.122c-0.307.5-.685,0.272-1-0.187-0.089.1-.724,0.283-0.816,0.381-0.953-1.153-1.782-4.2-.78-5.637" transform="translate(0 -26.573)" fill="#60cd77"/><path id="Fill-8" d="M21.364,46.4a3.082,3.082,0,0,0-2.528,0c-0.37.382,0.4,1.216,1.092,1.39a0.179,0.179,0,0,0,0,.029v1.421a0.178,0.178,0,0,0,.027.353h0.3a0.178,0.178,0,0,0,.033-0.352V47.818a0.176,0.176,0,0,0,0-.031c0.693-.176,1.455-1.007,1.086-1.388" transform="translate(0 -26.573)" fill="#3c804b"/><circle cx="20.1" cy="20.232" r="9.277" fill="none" stroke="#3c804b" stroke-width="1.5"/><circle id="Oval-126-Copy" cx="13.606" cy="26.725" r="4.638" fill="#fff"/><path id="Rectangle-1207" d="M11.26,52.958h0a0.618,0.618,0,0,1,.875,0l1.312,1.312a0.618,0.618,0,0,1,0,.875h0a0.618,0.618,0,0,1-.875,0L11.26,53.832A0.618,0.618,0,0,1,11.26,52.958Z" transform="translate(0 -26.573)" fill="#60cd77"/><path id="Rectangle-1207-Copy" d="M12.572,54.27L15.2,51.646a0.618,0.618,0,0,1,.875,0h0a0.618,0.618,0,0,1,0,.875l-2.624,2.624a0.618,0.618,0,0,1-.875,0h0A0.618,0.618,0,0,1,12.572,54.27Z" transform="translate(0 -26.573)" fill="#60cd77"/><path d="M143.544,80.569a1.32,1.32,0,0,1-.973-0.4,1.392,1.392,0,0,1-.386-0.958L142.2,77.27a1.222,1.222,0,0,0-.071-0.422,0.538,0.538,0,0,0-.071-0.133l-0.621-.527-0.651.544a0.961,0.961,0,0,0-.11.345l-0.021.135,0.021,1.991a1.4,1.4,0,0,1-.381.964,1.323,1.323,0,0,1-.977.4,1.829,1.829,0,0,1-.28-0.022l-0.09-.015L138.86,80.5a8.114,8.114,0,0,1-5.512-7.647A8.073,8.073,0,1,1,144,80.5l-0.086.03-0.09.014A1.826,1.826,0,0,1,143.544,80.569ZM138.888,70.7l-0.515.554a1.681,1.681,0,0,0-.337.533,2.051,2.051,0,0,0-.129.7,2.578,2.578,0,0,0,.616,1.876,3.114,3.114,0,0,0,1.688.6l1.184,0.08,1.253-.08a3.125,3.125,0,0,0,1.684-.6,2.61,2.61,0,0,0,.62-1.925,2,2,0,0,0-.13-0.654,1.674,1.674,0,0,0-.337-0.532l-0.508-.549,0.342-.573c0.014-.06.024-0.136,0.036-0.229-0.156.083-.357,0.2-0.613,0.365l-0.375.241-0.431-.117a5.767,5.767,0,0,0-3.013,0l-0.431.117-0.375-.241c-0.256-.165-0.457-0.282-0.613-0.365,0.012,0.092.021,0.167,0.035,0.225Z" transform="translate(0 -26.573)" fill="#52306c"/><path d="M141.429,65.757a7.074,7.074,0,0,1,5.711,11.257,7.129,7.129,0,0,1-3.471,2.545,0.816,0.816,0,0,1-.127.011,0.323,0.323,0,0,1-.247-0.087,0.382,0.382,0,0,1-.111-0.27l0.014-1.936a2.278,2.278,0,0,0-.152-0.823,1.309,1.309,0,0,0-.332-0.491,4.135,4.135,0,0,0,2.206-.8,3.283,3.283,0,0,0,1.03-2.7,3.024,3.024,0,0,0-.2-1.051,2.7,2.7,0,0,0-.532-0.844,1.92,1.92,0,0,0,.138-0.636,2.912,2.912,0,0,0-.207-1.245,0.079,0.079,0,0,0-.075-0.017,3.532,3.532,0,0,0-.395.037,4.369,4.369,0,0,0-1.48.712,6.781,6.781,0,0,0-3.54,0,4.369,4.369,0,0,0-1.48-.712,3.534,3.534,0,0,0-.395-0.037,0.079,0.079,0,0,0-.075.017,2.912,2.912,0,0,0-.207,1.245,1.92,1.92,0,0,0,.138.636,2.7,2.7,0,0,0-.532.844,3.024,3.024,0,0,0-.2,1.051,3.3,3.3,0,0,0,1.023,2.7,4.116,4.116,0,0,0,2.213.8,1.141,1.141,0,0,0-.283.373,2.015,2.015,0,0,0-.173.581,1.9,1.9,0,0,1-.9.173h-0.045a1.428,1.428,0,0,1-1.12-.767,1.556,1.556,0,0,0-.277-0.346,1.322,1.322,0,0,0-.8-0.387l-0.027,0a0.858,0.858,0,0,0-.243.058q-0.2.069,0.214,0.387h0a1.434,1.434,0,0,1,.267.208,2.364,2.364,0,0,1,.519.816,1.227,1.227,0,0,0,.449.581,1.559,1.559,0,0,0,1.12.332,5.376,5.376,0,0,0,.809-0.069l0.014,1.314a0.382,0.382,0,0,1-.111.27,0.323,0.323,0,0,1-.247.087,0.816,0.816,0,0,1-.127-0.011,7.129,7.129,0,0,1-3.471-2.545,7.068,7.068,0,0,1,5.711-11.257m0-2h-0.046a9.057,9.057,0,0,0-9.034,9.034v0.081a9.112,9.112,0,0,0,6.182,8.575l0.169,0.059,0.177,0.028a2.824,2.824,0,0,0,.438.035,2.308,2.308,0,0,0,1.7-.716,2.42,2.42,0,0,0,.411-0.592,2.409,2.409,0,0,0,.41.592,2.308,2.308,0,0,0,1.7.716,2.823,2.823,0,0,0,.439-0.035l0.177-.028,0.169-.059a9.112,9.112,0,0,0,6.182-8.575V72.792a9.057,9.057,0,0,0-9.034-9.034h-0.046Zm-1.972,7.794,0.731-.2a4.782,4.782,0,0,1,2.482,0l0.731,0.2,0.349,0.377a0.7,0.7,0,0,1,.141.223,1.017,1.017,0,0,1,.058.315,2.071,2.071,0,0,1-.225,1.1,2.125,2.125,0,0,1-1.144.4l-1.145.077-1.159-.077a2.109,2.109,0,0,1-1.16-.41h0a2.362,2.362,0,0,1-.208-1.091,1.018,1.018,0,0,1,.058-0.315,0.7,0.7,0,0,1,.141-0.223l0.35-.377h0Z" transform="translate(0 -26.573)" fill="#fff"/><path d="M131.836,72.738a10.115,10.115,0,0,1,9.422-9.686" transform="translate(0 -26.573)" fill="none" stroke="#fff" stroke-linecap="round" stroke-miterlimit="10" stroke-width="4"/><path d="M131.836,72.738a10.115,10.115,0,0,1,9.422-9.686" transform="translate(0 -26.573)" fill="none" stroke="#52306c" stroke-linecap="round" stroke-miterlimit="10"/><path d="M128.638,72.32a12.812,12.812,0,0,1,12.171-12.47" transform="translate(0 -26.573)" fill="none" stroke="#fff" stroke-linecap="round" stroke-miterlimit="10" stroke-width="4"/><path d="M128.638,72.32a12.812,12.812,0,0,1,12.171-12.47" transform="translate(0 -26.573)" fill="none" stroke="#52306c" stroke-linecap="round" stroke-miterlimit="10"/><path d="M39.607,51.2a1.722,1.722,0,1,1,0,3.444H38.385v1.972H37.572V51.2h2.035Zm-1.222,2.757h0.762c0.869,0,1.381-.194,1.381-1.031A0.936,0.936,0,0,0,39.5,51.9H38.385v2.063Z" transform="translate(0 -26.573)" fill="#dff7e4"/><path d="M45.641,56.617H44.852V56.05H44.82a1.228,1.228,0,0,1-1.21.635,1.347,1.347,0,0,1-1.464-1.464V52.436h0.8V55a0.853,0.853,0,0,0,.936.98,0.907,0.907,0,0,0,.956-0.992V52.436h0.8v4.182Z" transform="translate(0 -26.573)" fill="#dff7e4"/><path d="M48.223,52.364a1.313,1.313,0,0,1,1.523,1.262h-0.73a0.7,0.7,0,0,0-.817-0.647,0.664,0.664,0,0,0-.793.587c0,0.452.571,0.54,1.047,0.627,0.782,0.139,1.409.369,1.409,1.17,0,0.841-.67,1.325-1.7,1.325a1.352,1.352,0,0,1-1.606-1.214h0.781a0.772,0.772,0,0,0,.881.6,0.7,0.7,0,0,0,.861-0.607c0-.448-0.48-0.532-1.047-0.643-0.77-.159-1.4-0.413-1.4-1.174A1.369,1.369,0,0,1,48.223,52.364Z" transform="translate(0 -26.573)" fill="#dff7e4"/><path d="M50.791,50.916h0.8v2.091H51.62a1.321,1.321,0,0,1,1.21-.639,1.416,1.416,0,0,1,1.484,1.563v2.686h-0.8V54.082a0.9,0.9,0,0,0-.956-1.008,0.926,0.926,0,0,0-.964,1.028v2.515h-0.8v-5.7Z" transform="translate(0 -26.573)" fill="#dff7e4"/><path d="M55.233,54.717v-0.44a1.773,1.773,0,1,1,3.531.04v0.4H56.031V54.8a1.074,1.074,0,0,0,1.02,1.242,0.861,0.861,0,0,0,.889-0.6h0.774a1.569,1.569,0,0,1-1.678,1.25A1.756,1.756,0,0,1,55.233,54.717Zm2.741-.591V54.114a0.981,0.981,0,1,0-1.944,0v0.012h1.944Z" transform="translate(0 -26.573)" fill="#dff7e4"/><path d="M62.414,53.023h0.027V50.916h0.8v5.7H62.465V55.982H62.441a1.321,1.321,0,0,1-1.226.694,1.683,1.683,0,0,1-1.646-1.968V54.336a1.711,1.711,0,0,1,1.646-1.968A1.327,1.327,0,0,1,62.414,53.023Zm-2.031,1.341v0.321a1.064,1.064,0,1,0,2.067,0V54.364a1.127,1.127,0,0,0-1.06-1.321A1.093,1.093,0,0,0,60.383,54.364Z" transform="translate(0 -26.573)" fill="#dff7e4"/><path d="M67.161,56.685a1.252,1.252,0,1,1,.107-2.479h1.075V53.8a0.83,0.83,0,0,0-1.638-.139H65.951a1.376,1.376,0,0,1,1.6-1.29,1.392,1.392,0,0,1,1.591,1.385v2.864H68.375V56.1H68.347A1.286,1.286,0,0,1,67.161,56.685Zm1.182-1.452V54.761H67.379a0.637,0.637,0,0,0-.773.615,0.7,0.7,0,0,0,.789.678A0.863,0.863,0,0,0,68.343,55.232Z" transform="translate(0 -26.573)" fill="#dff7e4"/><path d="M73.3,52.364a1.313,1.313,0,0,1,1.524,1.262h-0.73a0.7,0.7,0,0,0-.817-0.647,0.664,0.664,0,0,0-.793.587c0,0.452.571,0.54,1.047,0.627,0.782,0.139,1.408.369,1.408,1.17,0,0.841-.67,1.325-1.7,1.325a1.352,1.352,0,0,1-1.606-1.214h0.781a0.772,0.772,0,0,0,.881.6,0.7,0.7,0,0,0,.861-0.607c0-.448-0.48-0.532-1.047-0.643-0.77-.159-1.4-0.413-1.4-1.174A1.369,1.369,0,0,1,73.3,52.364Z" transform="translate(0 -26.573)" fill="#dff7e4"/><path d="M75.685,54.717v-0.44a1.773,1.773,0,1,1,3.531.04v0.4H76.482V54.8a1.074,1.074,0,0,0,1.02,1.242,0.861,0.861,0,0,0,.889-0.6h0.773a1.569,1.569,0,0,1-1.678,1.25A1.756,1.756,0,0,1,75.685,54.717Zm2.742-.591V54.114a0.981,0.981,0,1,0-1.944,0v0.012h1.944Z" transform="translate(0 -26.573)" fill="#dff7e4"/><path d="M80.017,54.312a1.755,1.755,0,0,1,1.777-1.948,1.508,1.508,0,0,1,1.639,1.345h-0.77a0.846,0.846,0,0,0-.821-0.667,1.081,1.081,0,0,0-1.02,1.29v0.373a1.106,1.106,0,0,0,1.023,1.3,0.786,0.786,0,0,0,.846-0.607h0.766a1.5,1.5,0,0,1-1.663,1.289A1.775,1.775,0,0,1,80.017,54.7V54.312Z" transform="translate(0 -26.573)" fill="#dff7e4"/><path d="M87.855,54.34v0.353a1.841,1.841,0,1,1-3.67,0V54.344A1.84,1.84,0,1,1,87.855,54.34Zm-2.864.02v0.321a1.066,1.066,0,1,0,2.06,0V54.36A1.065,1.065,0,1,0,84.991,54.36Z" transform="translate(0 -26.573)" fill="#dff7e4"/><path d="M88.844,52.436h0.79v0.571h0.027a1.331,1.331,0,0,1,1.218-.639,1.413,1.413,0,0,1,1.48,1.563v2.686h-0.8V54.082a0.9,0.9,0,0,0-.956-1.008,0.929,0.929,0,0,0-.964,1.028v2.515h-0.8V52.436Z" transform="translate(0 -26.573)" fill="#dff7e4"/><path d="M96.131,53.023h0.028V50.916h0.8v5.7H96.183V55.982H96.159a1.323,1.323,0,0,1-1.227.694,1.683,1.683,0,0,1-1.646-1.968V54.336a1.711,1.711,0,0,1,1.646-1.968A1.326,1.326,0,0,1,96.131,53.023ZM94.1,54.364v0.321a1.064,1.064,0,1,0,2.067,0V54.364a1.127,1.127,0,0,0-1.06-1.321A1.093,1.093,0,0,0,94.1,54.364Z" transform="translate(0 -26.573)" fill="#dff7e4"/><path d="M100.878,56.685a1.252,1.252,0,1,1,.107-2.479h1.075V53.8a0.83,0.83,0,0,0-1.639-.139H99.668a1.377,1.377,0,0,1,1.6-1.29,1.392,1.392,0,0,1,1.591,1.385v2.864h-0.766V56.1h-0.027A1.287,1.287,0,0,1,100.878,56.685Zm1.183-1.452V54.761H101.1a0.637,0.637,0,0,0-.773.615,0.7,0.7,0,0,0,.79.678A0.863,0.863,0,0,0,102.061,55.232Z" transform="translate(0 -26.573)" fill="#dff7e4"/><path d="M106.674,56.558V55.911h-0.028a1.277,1.277,0,0,1-1.19.663,1.678,1.678,0,0,1-1.646-1.948V54.308a1.673,1.673,0,0,1,1.646-1.936,1.349,1.349,0,0,1,1.211.659h0.027v-0.6h0.777v4.146a1.632,1.632,0,0,1-1.829,1.6,1.5,1.5,0,0,1-1.741-1.238h0.8a0.892,0.892,0,0,0,.944.607A0.935,0.935,0,0,0,106.674,56.558Zm-2.056-2.2v0.25a1.06,1.06,0,1,0,2.056,0v-0.25a1.111,1.111,0,0,0-1.012-1.317A1.094,1.094,0,0,0,104.618,54.356Z" transform="translate(0 -26.573)" fill="#dff7e4"/><path d="M112.136,54.34v0.353a1.841,1.841,0,1,1-3.67,0V54.344A1.84,1.84,0,1,1,112.136,54.34Zm-2.864.02v0.321a1.066,1.066,0,1,0,2.06,0V54.36A1.065,1.065,0,1,0,109.271,54.36Z" transform="translate(0 -26.573)" fill="#dff7e4"/></svg>