<svg xmlns="http://www.w3.org/2000/svg" viewBox="0 0 30 30"><title>config</title><path d="M15.239,16.062l-0.12-.772a6.389,6.389,0,0,0,.545-0.545l0.772,0.12a1,1,0,0,0,1.015-.48,7.568,7.568,0,0,0,.811-1.96,1,1,0,0,0-.378-1.057l-0.627-.458c0.009-.133.014-0.261,0.014-0.388s0-.255-0.014-0.388l0.627-.458a1,1,0,0,0,.378-1.057,7.569,7.569,0,0,0-.811-1.96,1,1,0,0,0-1.015-.48l-0.772.12a6.38,6.38,0,0,0-.545-0.545l0.12-.772A1,1,0,0,0,14.76,3.97a7.567,7.567,0,0,0-1.96-.811,1,1,0,0,0-1.057.378l-0.458.627C11.152,4.154,11.023,4.15,10.9,4.15s-0.255,0-.388.014l-0.458-.627a1,1,0,0,0-1.057-.378,7.566,7.566,0,0,0-1.96.811,1,1,0,0,0-.48,1.015l0.12,0.772A6.389,6.389,0,0,0,6.13,6.3l-0.772-.12a1,1,0,0,0-1.015.48,7.569,7.569,0,0,0-.811,1.96A1,1,0,0,0,3.91,9.678l0.627,0.458c-0.009.133-.014,0.261-0.014,0.388s0,0.255.014,0.388l-0.627.458a1,1,0,0,0-.378,1.057,7.566,7.566,0,0,0,.811,1.96,1,1,0,0,0,1.015.48l0.772-.12a6.388,6.388,0,0,0,.545.545l-0.12.772a1,1,0,0,0,.48,1.015,7.567,7.567,0,0,0,1.96.811,1,1,0,0,0,1.057-.378l0.458-.627c0.133,0.009.261,0.014,0.388,0.014s0.255,0,.388-0.014l0.458,0.627a1,1,0,0,0,1.057.378,7.569,7.569,0,0,0,1.96-.811A1,1,0,0,0,15.239,16.062Zm-0.988.154a6.562,6.562,0,0,1-1.7.7l-0.8-1.1a4.945,4.945,0,0,1-1.7,0l-0.8,1.1a6.563,6.563,0,0,1-1.7-.7l0.209-1.342a5.4,5.4,0,0,1-1.205-1.205L5.2,13.878a6.563,6.563,0,0,1-.7-1.7l1.1-.8a4.946,4.946,0,0,1,0-1.7l-1.1-.8a6.564,6.564,0,0,1,.7-1.7L6.546,7.378A5.4,5.4,0,0,1,7.752,6.173L7.543,4.831a6.561,6.561,0,0,1,1.7-.7l0.8,1.1a4.945,4.945,0,0,1,1.7,0l0.8-1.1a6.561,6.561,0,0,1,1.7.7L14.042,6.173a5.4,5.4,0,0,1,1.205,1.205l1.342-.209a6.564,6.564,0,0,1,.7,1.7l-1.1.8a4.946,4.946,0,0,1,0,1.7l1.1,0.8a6.564,6.564,0,0,1-.7,1.7l-1.342-.209a5.4,5.4,0,0,1-1.205,1.205Z"/><path d="M26.4,20.158a1,1,0,0,0-.757-0.8l-0.795-.186a4.739,4.739,0,0,0-.428-0.746l0.232-.767a1,1,0,0,0-.315-1.056,5.97,5.97,0,0,0-1.785-1.038,1,1,0,0,0-1.073.255l-0.542.578c-0.149-.014-0.3-0.022-0.442-0.022s-0.293.007-.442,0.022l-0.542-.578a1,1,0,0,0-1.073-.255A5.966,5.966,0,0,0,16.652,16.6a1,1,0,0,0-.315,1.056l0.232,0.767a4.745,4.745,0,0,0-.428.746l-0.795.186a1,1,0,0,0-.757.8,5.279,5.279,0,0,0,0,2.058,1,1,0,0,0,.757.8l0.795,0.186a4.746,4.746,0,0,0,.428.746l-0.232.767a1,1,0,0,0,.315,1.056,5.966,5.966,0,0,0,1.785,1.038,1,1,0,0,0,1.073-.255l0.542-.578C20.2,25.995,20.349,26,20.494,26s0.293-.007.442-0.022l0.542,0.578a1,1,0,0,0,1.073.255,5.968,5.968,0,0,0,1.785-1.038,1,1,0,0,0,.315-1.056l-0.232-.767a4.737,4.737,0,0,0,.428-0.746l0.795-.186a1,1,0,0,0,.757-0.8A5.278,5.278,0,0,0,26.4,20.158Zm-0.985,1.887-1.306.306a3.79,3.79,0,0,1-.8,1.388l0.383,1.268a4.967,4.967,0,0,1-1.487.865l-0.9-.962a3.679,3.679,0,0,1-1.62,0l-0.9.962a4.965,4.965,0,0,1-1.487-.865l0.383-1.268a3.79,3.79,0,0,1-.8-1.388l-1.306-.306a4.3,4.3,0,0,1,0-1.716l1.306-.306a3.789,3.789,0,0,1,.8-1.388l-0.383-1.268a4.965,4.965,0,0,1,1.487-.865l0.9,0.962a3.679,3.679,0,0,1,1.62,0l0.9-.962a4.967,4.967,0,0,1,1.487.865L23.31,18.635a3.79,3.79,0,0,1,.8,1.388l1.306,0.306A4.3,4.3,0,0,1,25.413,22.046Z"/><path d="M10.9,8.355a2.169,2.169,0,1,0,2.168,2.168A2.171,2.171,0,0,0,10.9,8.355Zm0,3.337a1.169,1.169,0,1,1,1.168-1.169A1.17,1.17,0,0,1,10.9,11.692Z"/><path d="M20.494,19.3a1.89,1.89,0,1,0,1.891,1.891A1.892,1.892,0,0,0,20.494,19.3Zm0,2.78a0.89,0.89,0,1,1,.891-0.89A0.891,0.891,0,0,1,20.494,22.078Z"/></svg>