<svg xmlns="http://www.w3.org/2000/svg" viewBox="0 0 780 450"><title>gcn-logo</title><rect width="780" height="450" style="fill:#4286f5"/><path d="M408.963,288.264l-0.7,1.052c-7.128,10.458-23.895,18.987-37.39,18.987-13.32,0-29.912-10.282-36.514-22.61L425.5,247.952l-2.454-6.076c-2.512-6.719-16.943-40.37-54.333-40.37-34.119,0-59.883,27.283-59.883,63.447s27.05,63.447,62.98,63.447a65.624,65.624,0,0,0,51.879-25.063l0.351-.409L411.3,290.542ZM329.1,266.706c-0.234-17.118,6.543-27.809,12.386-33.827,7.011-7.244,16.592-11.568,25.648-11.568,14.43,0,27.225,6.777,31.431,16.534Z" style="fill:#fff"/><path d="M147.054,149.043H174.4l97.332,136.943h0.993l-0.993-33.71V149.043h22.493V324.778H270.793L169.547,181.292h-0.993l0.993,34.586v108.9H147.054V149.043Z" style="fill:#fff"/><path d="M145.71,104a15.835,15.835,0,0,1,15.833-15.6,14.84,14.84,0,0,1,10.633,4.265l-2.98,2.98a10.827,10.827,0,0,0-7.653-3.038,11.335,11.335,0,0,0,0,22.668,10.582,10.582,0,0,0,7.887-3.1,9.184,9.184,0,0,0,2.337-5.375H161.543v-4.265h14.314a12.44,12.44,0,0,1,.234,2.687,13.99,13.99,0,0,1-3.681,9.932,14.25,14.25,0,0,1-10.867,4.382A15.785,15.785,0,0,1,145.71,104Z" style="fill:#fff"/><path d="M187.658,99.5a10.049,10.049,0,1,0,0,20.1,9.974,9.974,0,0,0,10.049-10.049A9.866,9.866,0,0,0,187.658,99.5Zm0,16.125a6.091,6.091,0,1,1,5.667-6.076A5.81,5.81,0,0,1,187.658,115.625Z" style="fill:#fff"/><path d="M209.625,99.5a10.049,10.049,0,1,0,10.049,10.049A9.866,9.866,0,0,0,209.625,99.5Zm0,16.125a6.091,6.091,0,1,1,5.667-6.076A5.81,5.81,0,0,1,209.625,115.625Z" style="fill:#fff"/><path d="M236.558,100.085v1.636h-0.175a6.925,6.925,0,0,0-5.258-2.22,10.027,10.027,0,0,0,0,20.039,6.754,6.754,0,0,0,5.258-2.278h0.175v1.461c0,3.856-2.045,5.9-5.375,5.9a5.464,5.464,0,0,1-5.024-3.564l-3.856,1.577a9.509,9.509,0,0,0,8.88,5.9c5.141,0,9.523-3.038,9.523-10.458V100.085h-4.148Zm-5.024,15.54a5.784,5.784,0,0,1-5.609-6.018,5.854,5.854,0,0,1,5.609-6.134c2.98,0,5.375,2.571,5.375,6.134C236.908,113.054,234.513,115.625,231.533,115.625Z" style="fill:#fff"/><rect x="243.802" y="89.452" width="4.382" height="29.503" style="fill:#fff"/><path d="M260.277,115.625a5.113,5.113,0,0,1-4.849-3.038l13.437-5.55-0.467-1.168c-0.818-2.22-3.389-6.368-8.588-6.368-5.141,0-9.464,4.09-9.464,10.049a9.84,9.84,0,0,0,9.932,10.049,9.946,9.946,0,0,0,8.354-4.44l-3.447-2.278A5.646,5.646,0,0,1,260.277,115.625Zm-0.351-12.269a3.964,3.964,0,0,1,3.739,2.1l-8.939,3.739A5.486,5.486,0,0,1,259.927,103.356Z" style="fill:#fff"/><path d="M276.694,105.868a13.874,13.874,0,0,1,14.138-14.2,12.944,12.944,0,0,1,9.99,4.44l-2.454,2.337A9.257,9.257,0,0,0,290.832,95c-5.725,0-10.574,4.206-10.574,10.867s4.849,10.867,10.574,10.867a10.831,10.831,0,0,0,8.354-3.973l2.454,2.454A14.241,14.241,0,0,1,276.694,105.868Z" style="fill:#fff"/><path d="M304.737,119.481V92.256h3.505v27.225h-3.505Z" style="fill:#fff"/><path d="M330.384,110.192c0,5.667-3.973,9.932-9.581,9.932s-9.581-4.265-9.581-9.932,3.973-9.932,9.581-9.932S330.384,104.525,330.384,110.192Zm-3.505,0c0-4.265-2.98-6.719-6.076-6.719s-6.076,2.454-6.076,6.719,2.98,6.719,6.076,6.719S326.879,114.456,326.879,110.192Z" style="fill:#fff"/><path d="M346.392,119.481V116.91h-0.175a7.19,7.19,0,0,1-5.9,3.213c-4.791,0-7.128-3.213-7.128-7.829V100.844h3.505v10.808c0,3.856,1.928,5.2,4.615,5.2,3.038,0,4.907-2.921,4.907-5.784V100.844h3.505v18.637h-3.33Z" style="fill:#fff"/><path d="M352.76,110.192c0-5.725,4.148-9.932,8.88-9.932a7.444,7.444,0,0,1,6.368,3.213h0.175l-0.175-2.571V92.256h3.505v27.225h-3.33V116.91h-0.175a7.505,7.505,0,0,1-6.368,3.213C356.908,120.065,352.76,115.859,352.76,110.192Zm15.307,0c0-4.265-2.8-6.719-5.9-6.719s-5.9,2.571-5.9,6.719c0,4.206,2.8,6.719,5.9,6.719S368.067,114.456,368.067,110.192Z" style="fill:#fff"/><polygon points="611.222 204.252 611.222 149.919 589.956 149.919 589.956 204.252 567.346 204.252 567.346 225.985 589.956 225.985 589.956 324.778 611.222 324.778 611.222 225.985 633.89 225.985 633.89 204.252 611.222 204.252" style="fill:#fff"/><rect x="513.643" y="265.208" width="22.259" height="64.147" transform="translate(-56.508 458.142) rotate(-45)" style="fill:#fff"/><rect x="492.637" y="225.07" width="64.147" height="22.259" transform="translate(-13.334 440.208) rotate(-45)" style="fill:#fff"/><polygon points="494.201 250.99 448.807 205.596 433.091 221.311 478.485 266.706 494.201 282.421 509.917 266.706 494.201 250.99" style="fill:#64b5f6"/><rect x="431.537" y="286.183" width="64.147" height="22.259" transform="translate(-74.443 414.903) rotate(-45)" style="fill:#2269d1"/><polygon points="470.306 274.826 478.485 266.706 494.201 282.421 470.306 274.826" style="fill:#055baf"/></svg>