<svg xmlns="http://www.w3.org/2000/svg" viewBox="0 0 45 45"><title>google-cloud</title><path d="M12.75,3H5A2,2,0,0,0,3,5V40a2,2,0,0,0,2,2h7.75V3Z" style="fill:#e8453b"/><rect x="12.75" y="3" width="9.75" height="39" style="fill:#f8bd2d"/><path d="M32.25,42H40a2,2,0,0,0,2-2V5a2,2,0,0,0-2-2H32.25V42Z" style="fill:#458af0"/><rect x="22.5" y="3" width="9.75" height="39" style="fill:#39a957"/><path d="M32.107,21.846a9.106,9.106,0,0,0-17.039-2.614A6.89,6.89,0,0,0,15.5,33H31.713A5.583,5.583,0,0,0,32.107,21.846Z" style="opacity:0.15"/><path d="M31.547,20.387a8.548,8.548,0,0,0-16-2.454,6.468,6.468,0,0,0,.4,12.924H31.177A5.242,5.242,0,0,0,31.547,20.387Z" style="fill:#fff;stroke:#52306c;stroke-linecap:round;stroke-linejoin:round;stroke-width:2px"/><rect x="3" y="3" width="39" height="39" rx="3" ry="3" style="fill:none;stroke:#52306c;stroke-linecap:round;stroke-linejoin:round;stroke-width:2px"/><line x1="14.211" y1="6.5" x2="16.625" y2="6.5" style="fill:none;stroke:#fff;stroke-linecap:round;stroke-linejoin:round;stroke-width:1.07341036200523px;opacity:0.4"/><path d="M6,13.337V8.5a2,2,0,0,1,2-2h3.461" style="fill:none;stroke:#fff;stroke-linecap:round;stroke-linejoin:round;stroke-width:1.07341036200523px;opacity:0.4"/></svg>