<svg xmlns="http://www.w3.org/2000/svg" viewBox="0 0 30 30"><title>configuration</title><path d="M26.525,9.8L20.1,5.633a2.141,2.141,0,0,0-.664-0.278,2.11,2.11,0,0,0-.612-0.1H11.172a2.11,2.11,0,0,0-.613.1,2.139,2.139,0,0,0-.662.278L3.475,9.8a2.144,2.144,0,0,0-.629,2.961L9.994,23.772a2.143,2.143,0,0,0,2.961.629L15,23.073,17.045,24.4a2.143,2.143,0,0,0,2.961-.629l7.148-11.008A2.144,2.144,0,0,0,26.525,9.8ZM19.64,22.5l-0.472.727a1.144,1.144,0,0,1-1.578.336l-1.388-.9-0.284-.184-0.459-.3-0.027-.018L15,21.881l-0.338-.22-3.493-2.269a1.142,1.142,0,0,1-.335-1.578L15,11.4l0.3-.459,0.3-.459,2.385-3.672A1.131,1.131,0,0,1,18.7,6.312a1.145,1.145,0,0,1,.239-0.025,1.645,1.645,0,0,1,.619.185l0.867,0.563,0.542,0.352,5.012,3.255a1.141,1.141,0,0,1,.335,1.578l-5.347,8.233Zm-8.807.727L10.36,22.5a2.126,2.126,0,0,0,.811.162H13.8l-1.388.9A1.143,1.143,0,0,1,10.833,23.227ZM4.02,10.641L9.032,7.387V20.452L3.684,12.219A1.141,1.141,0,0,1,4.02,10.641Zm6.6,9.589,2.2,1.431H11.172a1.142,1.142,0,0,1-1.141-1.141V19.657A2.127,2.127,0,0,0,10.623,20.231ZM17.142,6.262L15,9.561l-0.3.459-0.3.459-4.373,6.733V7.4a1.126,1.126,0,0,1,.86-1.084,1.1,1.1,0,0,1,.28-0.057h5.977Z"/></svg>