<svg xmlns="http://www.w3.org/2000/svg" viewBox="0 0 30 30"><title>unlimited</title><path d="M26.318,9.725a7.462,7.462,0,0,0-10.555,0c-0.268.267-.52,0.535-0.761,0.809-0.015-.017-0.033-0.034-0.048-0.051-0.21-.237-0.43-0.471-0.662-0.7-0.017-.018-0.032-0.035-0.05-0.053a7.461,7.461,0,1,0,0,10.554c0.267-.267.518-0.534,0.761-0.81,0.015,0.017.031,0.032,0.046,0.049,0.229,0.258.464,0.51,0.715,0.761A7.463,7.463,0,0,0,26.318,9.725ZM16.47,19.572c-0.385-.385-0.736-0.772-1.073-1.183a16.15,16.15,0,0,1-1.735-2.646c-0.189-.343-0.372-0.671-0.577-1h0l0,0a10.747,10.747,0,0,0-.743-1.057l-0.052-.065c-0.116-.143-0.238-0.286-0.365-0.428-0.026-.029-0.049-0.057-0.076-0.087-0.147-.162-0.3-0.328-0.478-0.5h0a3.467,3.467,0,0,0-4.807,0,3.4,3.4,0,0,0,4.808,4.809,11.93,11.93,0,0,0,1.259-1.465l0.161,0.29a17.79,17.79,0,0,0,1.558,2.447c-0.262.3-.522,0.6-0.812,0.895a6.464,6.464,0,1,1,0-9.14l0.006,0.006c0.386,0.387.735,0.771,1.067,1.175a16.023,16.023,0,0,1,1.737,2.651c0.189,0.342.372,0.67,0.576,1h0a10.746,10.746,0,0,0,.747,1.063l0.047,0.059c0.116,0.143.238,0.286,0.365,0.428,0.027,0.03.051,0.059,0.079,0.09,0.15,0.166.308,0.332,0.477,0.5A3.4,3.4,0,0,0,23.445,12.6a3.593,3.593,0,0,0-4.81,0,11.95,11.95,0,0,0-1.26,1.466l-0.158-.285a17.635,17.635,0,0,0-1.56-2.452c0.26-.3.519-0.6,0.812-0.894A6.46,6.46,0,1,1,16.47,19.572Zm-5.054-5.445,0.048,0.06a9.581,9.581,0,0,1,.585.791L12.065,15a10.46,10.46,0,0,1-1.4,1.7,2.408,2.408,0,0,1-3.4,0,2.374,2.374,0,0,1,1.7-4.07h0a2.406,2.406,0,0,1,1.7.676C10.944,13.587,11.19,13.856,11.415,14.126Zm7.171,1.748-0.042-.052a9.557,9.557,0,0,1-.595-0.806L17.939,15a10.388,10.388,0,0,1,1.4-1.7,2.558,2.558,0,0,1,3.4,0,2.4,2.4,0,0,1-3.4,3.395C19.058,16.415,18.812,16.146,18.586,15.874Zm0.4,1.178h0Z"/></svg>