<svg data-name="No Avatar" xmlns="http://www.w3.org/2000/svg" viewBox="0 0 600 430"><title>noavatar</title><path fill="#ccc" d="M0 0h600v430H0z"/><circle cx="300.001" cy="215" r="100" fill="#f3f3f3"/><path d="M250.093 153.5c-4.864-1.17-11.85.8-17.374 4.887-4.606 3.408-7.28 7.565-7.533 11.705-.506 8.334 5.916 12.387 11.582 15.963 6.623 4.182 12.344 7.793 8.658 17.314a1.542 1.542 0 0 0 .882 2 1.515 1.515 0 0 0 .557.105 1.543 1.543 0 0 0 1.44-.986 23.36 23.36 0 0 0 .82-2.536l15.184-13.285a1.54 1.54 0 0 0 2.69-1.156l-.094-1.03c-1.067-11.784-2.684-29.584-16.813-32.984zM374.05 170.1c-.25-4.14-2.925-8.3-7.53-11.705-5.525-4.09-12.5-6.054-17.375-4.887-14.13 3.39-15.748 21.2-16.818 32.98l-.094 1.03a1.538 1.538 0 0 0 2.693 1.152l15.184 13.287a23.784 23.784 0 0 0 .82 2.535 1.547 1.547 0 0 0 1.44.986 1.5 1.5 0 0 0 .556-.106 1.542 1.542 0 0 0 .883-2c-3.687-9.52 2.034-13.133 8.66-17.314 5.665-3.575 12.087-7.628 11.58-15.958z" fill="#ccc"/><path d="M226.742 326.676h142.64c-1.92-8.45-3.647-15.8-4.892-21.566-1.87-8.674-1.953-27.937-1.953-27.937.5-16.613 2.473-89.082-18.646-102.884-9.532-6.233-20.8-7.683-34.368-8.88a21.14 21.14 0 0 1 3.566-4.654c-4.166.1-5.844-.49-9.644 2.018 1.38-1.3 2.7-3.467 4.148-4.78-6.6-1.1-13.123 2.433-18.346 7.026-15.623.92-27.485 3.45-36.394 10.506-20.034 15.87-18.875 101.648-18.875 101.648l-2.5 27.938s-2.02 8.588-4.735 21.564z" fill="#ccc"/><path d="M280.352 204.46c11.262-16.137 60.115-11.4 40.13 40.264-2.9 7.527-6.343 14.926-9.57 22.315-.35.4-.6-1.58-1.313-1.378-3.448 5.656-7.7 3.06-11.3-2.107-1 1.12-8.137 3.185-9.177 4.28-10.718-12.962-20.038-47.235-8.77-63.374z" fill="#eaeaea"/><path d="M314.22 210.444c-1.933-2-7.88-3.012-14.215-3.05-6.332.038-12.28 1.053-14.213 3.05-4.5 4.652 6 15.29 14.213 15.953 8.212-.665 18.714-11.297 14.214-15.953zM301.666 246.342h-3.322a2 2 0 0 1 0-4h3.322a2 2 0 0 1 0 4z" fill="#ccc"/><path d="M300.038 246.342a2 2 0 0 1-2-2V226.4a2 2 0 0 1 4 0v17.945a2 2 0 0 1-2 1.997z" fill="#ccc"/><circle cx="300.001" cy="215" r="100" fill="none"/></svg>