<svg id="No_Avatar" data-name="No Avatar" xmlns="http://www.w3.org/2000/svg" viewBox="0 0 600 430"><title>noavatar</title><rect width="600" height="430" fill="#ccc"/><circle cx="300.001" cy="215" r="100" fill="#f3f3f3"/><path d="M250.093,153.5c-4.864-1.169-11.849.8-17.374,4.887-4.605,3.408-7.28,7.565-7.532,11.705-0.506,8.334,5.916,12.387,11.582,15.963,6.624,4.182,12.345,7.793,8.659,17.314a1.542,1.542,0,0,0,.882,2,1.515,1.515,0,0,0,.557.106,1.543,1.543,0,0,0,1.44-.986,23.36,23.36,0,0,0,.82-2.535l15.184-13.285A1.539,1.539,0,0,0,267,187.514l-0.094-1.031C265.839,174.7,264.222,156.9,250.093,153.5Z" fill="#ccc"/><path d="M374.051,170.1c-0.252-4.14-2.926-8.3-7.531-11.705-5.525-4.09-12.5-6.054-17.375-4.887-14.129,3.391-15.748,21.2-16.818,32.979l-0.094,1.031a1.538,1.538,0,0,0,2.693,1.152l15.184,13.287a23.784,23.784,0,0,0,.82,2.535,1.547,1.547,0,0,0,1.439.986,1.5,1.5,0,0,0,.557-0.106,1.542,1.542,0,0,0,.883-2c-3.686-9.521,2.035-13.133,8.66-17.314C368.135,182.483,374.557,178.43,374.051,170.1Z" fill="#ccc"/><path d="M226.742,326.676H369.381c-1.918-8.451-3.646-15.8-4.891-21.566-1.871-8.674-1.953-27.937-1.953-27.937,0.5-16.613,2.473-89.082-18.646-102.884-9.533-6.232-20.8-7.682-34.369-8.88a21.139,21.139,0,0,1,3.566-4.653c-4.166.1-5.844-.49-9.644,2.018,1.379-1.3,2.7-3.467,4.148-4.781-6.6-1.1-13.123,2.434-18.346,7.027-15.623.92-27.485,3.449-36.394,10.506-20.034,15.869-18.875,101.648-18.875,101.648l-2.5,27.938S229.456,313.7,226.742,326.676Z" fill="#ccc"/><path d="M280.352,204.461c11.262-16.138,60.115-11.4,40.131,40.263-2.9,7.527-6.344,14.926-9.572,22.315-0.348.4-.6-1.578-1.312-1.377-3.447,5.656-7.7,3.061-11.3-2.107-1,1.121-8.136,3.185-9.176,4.279C278.405,254.873,269.085,220.6,280.352,204.461Z" fill="#eaeaea"/><path d="M314.219,210.444c-1.932-2-7.879-3.012-14.214-3.049-6.332.037-12.279,1.052-14.213,3.049-4.5,4.652,6,15.289,14.213,15.953C308.217,225.732,318.719,215.1,314.219,210.444Z" fill="#ccc"/><path d="M301.666,246.342h-3.322a2,2,0,0,1,0-4h3.322A2,2,0,0,1,301.666,246.342Z" fill="#ccc"/><path d="M300.038,246.342a2,2,0,0,1-2-2V226.4a2,2,0,0,1,4,0v17.945A2,2,0,0,1,300.038,246.342Z" fill="#ccc"/><circle cx="300.001" cy="215" r="100" fill="none"/></svg>