<svg id="time_2_" data-name="time (2)" xmlns="http://www.w3.org/2000/svg" viewBox="0 0 120 120"><title>problem-waiting</title><g id="ticket"><path d="M60,101.782c-5.987,0-9.352-8.381-12.6-16.485-2.644-6.585-5.141-12.806-8.521-12.806a0.5,0.5,0,0,1-.5-0.5V18.718a0.5,0.5,0,0,1,.5-0.5c2.935,0,5.287,5.382,8.265,12.2,3.5,8.014,7.472,17.1,12.717,17.1h0.289c5.244,0,9.215-9.083,12.717-17.1,2.979-6.814,5.331-12.2,8.267-12.2a0.5,0.5,0,0,1,.5.5V71.991a0.5,0.5,0,0,1-.5.5c-3.381,0-5.878,6.221-8.521,12.806C69.352,93.4,65.987,101.782,60,101.782Z" transform="translate(0)" fill="#eee1f7"/><path d="M81.127,18.718V71.991c-7.994,0-10.563,29.291-21.127,29.291S46.867,71.991,38.873,71.991V18.718c5.967,0,11.084,29.293,20.983,29.293l0.144,0,0.144,0c9.9,0,15.016-29.293,20.983-29.293m0-1c-3.262,0-5.672,5.514-8.724,12.5-3.271,7.484-7.342,16.8-12.259,16.8l-0.115,0H59.971l-0.115,0c-4.918,0-8.989-9.314-12.26-16.8-3.051-6.981-5.461-12.5-8.723-12.5a1,1,0,0,0-1,1V71.991a1,1,0,0,0,1,1c3.043,0,5.592,6.351,8.058,12.492,3.315,8.259,6.744,16.8,13.069,16.8s9.753-8.54,13.069-16.8c2.465-6.142,5.015-12.492,8.058-12.492a1,1,0,0,0,1-1V18.718a1,1,0,0,0-1-1h0Z" transform="translate(0)" fill="#52306c"/><polygon points="60 93.532 55.432 87.418 60 87.418 64.568 87.418 60 93.532" fill="#fcb85d" stroke="#fcb85d" stroke-linecap="round" stroke-linejoin="round"/><rect width="120" height="120" fill="none"/><path d="M58.541,63.913c0,4.289-1.45,6.636-4.1,6.636s-4.1-2.347-4.1-6.636,1.45-6.636,4.1-6.636S58.541,59.624,58.541,63.913ZM57.021,60.89c-0.431-1.687-1.292-2.558-2.575-2.558-1.9,0-2.892,1.916-2.892,5.581a15.325,15.325,0,0,0,.105,1.881Zm-5.142,6.082c0.431,1.661,1.292,2.522,2.566,2.522,1.9,0,2.892-1.916,2.892-5.581a15.671,15.671,0,0,0-.105-1.907Z" transform="translate(0)" fill="#52306c"/><path d="M69.668,63.913c0,4.289-1.45,6.636-4.1,6.636s-4.1-2.347-4.1-6.636,1.45-6.636,4.1-6.636S69.668,59.624,69.668,63.913ZM68.147,60.89c-0.431-1.687-1.292-2.558-2.575-2.558-1.9,0-2.892,1.916-2.892,5.581a15.325,15.325,0,0,0,.105,1.881Zm-5.142,6.082c0.431,1.661,1.292,2.522,2.566,2.522,1.9,0,2.892-1.916,2.892-5.581a15.671,15.671,0,0,0-.105-1.907Z" transform="translate(0)" fill="#52306c"/></g></svg>