<svg id="YouTube_Icon" data-name="YouTube Icon" xmlns="http://www.w3.org/2000/svg" xmlns:xlink="http://www.w3.org/1999/xlink" viewBox="0 0 1021.449 718.423"><defs><linearGradient id="linear-gradient" x1="512.499" y1="1.296" x2="512.499" y2="719.719" gradientUnits="userSpaceOnUse"><stop offset="0" stop-color="#e52d27"/><stop offset="1" stop-color="#bf171d"/></linearGradient></defs><title>logo-youtube</title><path id="Triangle" d="M407,493L683,350,407,206V493Z" transform="translate(-1.775 -1.296)" style="fill:#fff"/><path id="The_Sharpness" data-name="The Sharpness" d="M407,206L649.042,367.625,683,350Z" transform="translate(-1.775 -1.296)" style="fill:#420000;fill-rule:evenodd;opacity:0.12"/><g id="Lozenge"><path d="M1013.023,156.281S1003.042,85.892,972.417,54.9c-38.842-40.684-82.38-40.885-102.346-43.267C727.134,1.3,512.721,1.3,512.721,1.3h-0.444s-214.408,0-357.35,10.333C134.96,14.01,91.438,14.211,52.582,54.9c-30.625,31-40.591,101.386-40.591,101.386S1.775,238.94,1.775,321.6v77.493c0,82.658,10.215,165.317,10.215,165.317S21.956,634.8,52.582,665.8c38.856,40.684,89.9,39.4,112.629,43.661,81.718,7.836,347.29,10.261,347.29,10.261s214.634-.323,357.571-10.655c19.966-2.382,63.5-2.583,102.346-43.267,30.625-31,40.606-101.387,40.606-101.387s10.2-82.659,10.2-165.317V321.6C1023.224,238.94,1013.023,156.281,1013.023,156.281ZM407.047,493L407,206,683,350Z" transform="translate(-1.775 -1.296)" style="fill:url(#linear-gradient)"/></g></svg>