<?xml version="1.0" encoding="UTF-8"?><svg width="90px" height="90px" viewBox="0 0 90 90" version="1.1" xmlns="http://www.w3.org/2000/svg" xmlns:xlink="http://www.w3.org/1999/xlink"><defs><circle id="path-1" cx="45" cy="45" r="45"></circle><mask id="mask-2" maskContentUnits="userSpaceOnUse" maskUnits="objectBoundingBox" x="0" y="0" width="90" height="90" fill="white"><use xlink:href="#path-1"></use></mask></defs><g id="Page-1" stroke="none" stroke-width="1" fill="none" fill-rule="evenodd">   <g id="Artboard-Copy-168" transform="translate(-675.000000, -1536.000000)">       <g id="Group-6" transform="translate(675.000000, 1536.000000)"><use id="Oval-3" stroke="#6C428C" mask="url(#mask-2)" stroke-width="8" fill="#45D965" xlink:href="#path-1"></use><path d="M42.6906055,0.0582348339 C43.4555219,0.0195674044 44.2254758,0 45,0 C69.8528137,0 90,20.1471863 90,45 C90,69.8528137 69.8528137,90 45,90 C20.1471863,90 0,69.8528137 0,45 C0,44.2254758 0.0195674044,43.4555219 0.058234834,42.6906055 C1.19614146,64.0395257 18.8674052,81 40.5,81 C62.8675324,81 81,62.8675324 81,40.5 C81,18.8674052 64.0395257,1.19614146 42.6906032,0.0582347109 Z" id="Combined-Shape" fill="#000000" opacity="0.049999997"></path><path d="M42,12 C25.4314575,12 12,25.4314575 12,42" id="Oval-3-Copy" stroke="#FFFFFF" stroke-width="5" stroke-linecap="round" opacity="0.179999992"></path><path d="M33.4398342,42.8899241 C32.2649025,41.7149924 30.3588905,41.7160638 29.1933468,42.8816075 L25.1190854,46.9558689 C23.9487468,48.1262074 23.9458778,50.020832 25.1256387,51.200593 L37.7930994,63.8680537 C38.9670573,65.0420116 40.8726701,65.0397606 42.0414297,63.8710009 L67.4773069,38.4351237 C68.6496371,37.2627935 68.6464568,35.3588905 67.4809131,34.1933468 L63.4066517,30.1190854 C62.2363132,28.9487468 60.3418021,28.9457642 59.1605184,30.127048 L39.9187382,49.3688281 L33.4398342,42.8899241 Z" id="Page-1-Copy" fill="#000000" opacity="0.049999997"></path><path d="M32.4398342,40.8899241 C31.2649025,39.7149924 29.3588905,39.7160638 28.1933468,40.8816075 L24.1190854,44.9558689 C22.9487468,46.1262074 22.9458778,48.020832 24.1256387,49.200593 L36.7930994,61.8680537 C37.9670573,63.0420116 39.8726701,63.0397606 41.0414297,61.8710009 L66.4773069,36.4351237 C67.6496371,35.2627935 67.6464568,33.3588905 66.4809131,32.1933468 L62.4066517,28.1190854 C61.2363132,26.9487468 59.3418021,26.9457642 58.1605184,28.127048 L38.9187382,47.3688281 L32.4398342,40.8899241 Z" id="Page-1" fill="#FFFFFF"></path></g></g></g></svg>
