<svg id="Layer_1" data-name="Layer 1" xmlns="http://www.w3.org/2000/svg" viewBox="0 0 18.041 18.041"><title>icons-management</title><rect x="2.683" y="2.921" width="12.694" height="14.329" rx="1" ry="1" fill="#fff" stroke="#000" stroke-linejoin="round"/><polygon points="4.152 4.407 4.152 15.622 10.576 15.622 13.908 12.289 13.908 4.407 4.152 4.407" fill="#fff" stroke="#000" stroke-linejoin="round" stroke-width="0.5"/><polygon points="10.576 12.289 13.908 12.289 10.576 15.622 10.576 12.289" fill="#fff" stroke="#000" stroke-linejoin="round" stroke-width="0.5"/><path d="M66.208,29.282H65.5a0.97,0.97,0,0,1-.918-0.612,1.766,1.766,0,0,0-3.313,0,0.97,0.97,0,0,1-.918.612H59.646a1,1,0,0,0-1,1v0.984a1,1,0,0,0,1,1h6.562a1,1,0,0,0,1-1V30.282A1,1,0,0,0,66.208,29.282Z" transform="translate(-53.897 -27)" fill="#fff" stroke="#000" stroke-linecap="round" stroke-miterlimit="10" stroke-width="0.769"/><circle cx="9.03" cy="1.855" r="0.54"/><line x1="6.53" y1="4.083" x2="11.53" y2="4.083" fill="#fff" stroke="#000" stroke-linecap="round" stroke-linejoin="round" stroke-width="0.46"/><rect width="18.041" height="18.041" fill="none"/></svg>