<svg id="Layer_1" data-name="Layer 1" xmlns="http://www.w3.org/2000/svg" viewBox="0 0 45 45"><title>icons-unlimited</title><rect x="61.699" y="7.949" width="29.103" height="29.103" rx="6.242" ry="6.242" transform="translate(92.327 -15.507) rotate(135)" fill="#20c2ef" stroke="#52306c" stroke-linecap="round" stroke-linejoin="round" stroke-width="2"/><path d="M78.257,8.908a2.728,2.728,0,0,0-3.858,0l-2.4,2.4" transform="translate(-53.75)" fill="none" stroke="#fff" stroke-linecap="round" stroke-miterlimit="10" stroke-width="1.5" opacity="0.4"/><line x1="26.679" y1="11.08" x2="25.901" y2="10.302" fill="none" stroke="#fff" stroke-linecap="round" stroke-miterlimit="10" stroke-width="1.5" opacity="0.4"/><path d="M66.95,19.446a4.367,4.367,0,0,0,6.175,6.175l3.088-3.088-3.088-3.088A4.367,4.367,0,0,0,66.95,19.446Z" transform="translate(-53.75)" fill="none" stroke="#fff" stroke-linecap="round" stroke-miterlimit="10" stroke-width="2"/><path d="M85.55,25.554a4.367,4.367,0,0,0-6.175-6.175l-3.088,3.088,3.088,3.088A4.367,4.367,0,0,0,85.55,25.554Z" transform="translate(-53.75)" fill="none" stroke="#fff" stroke-linecap="round" stroke-miterlimit="10" stroke-width="2"/><rect width="45" height="45" fill="none"/></svg>