<svg xmlns="http://www.w3.org/2000/svg" viewBox="0 0 45 45"><title>google-runnable</title><g style="opacity:0.15"><path d="M40.576,39.67L5.4,41.5C2.819,41.636.7,39.882,0.7,37.581V11.752L44.3,13.115v22.7A3.93,3.93,0,0,1,40.576,39.67ZM29.08,23.946L23.254,18.44a2.234,2.234,0,0,0-2.99-.04,1.862,1.862,0,0,0,0,2.786l4.466,4.147-4.466,4.21a1.861,1.861,0,0,0,0,2.786,2.235,2.235,0,0,0,2.99-.082l5.826-5.587A1.851,1.851,0,0,0,29.08,23.946ZM0.7,8.419C0.7,6.118,2.819,4.364,5.4,4.5L40.576,6.33A3.93,3.93,0,0,1,44.3,10.185V11.65L0.7,10.086V8.419ZM12.687,8.3a0.67,0.67,0,0,0,.668.631l1.327,0.054a0.6,0.6,0,0,0,.66-0.573v-1.2a0.669,0.669,0,0,0-.66-0.631L13.355,6.52a0.6,0.6,0,0,0-.668.573V8.3ZM8.171,8.11a0.685,0.685,0,0,0,.685.64l1.362,0.055a0.615,0.615,0,0,0,.677-0.58V7.011a0.683,0.683,0,0,0-.677-0.639L8.856,6.307a0.616,0.616,0,0,0-.685.58V8.11Zm-4.635-.2a0.7,0.7,0,0,0,.7.648l1.4,0.057a0.627,0.627,0,0,0,.695-0.587V6.8a0.7,0.7,0,0,0-.695-0.648l-1.4-.066a0.629,0.629,0,0,0-.7.587v1.24Z" style="fill-rule:evenodd"/></g><path d="M6.564,38.445a4.8,4.8,0,0,1-5.064-4.6V7.094a4.8,4.8,0,0,1,5.064-4.6c0.1,0,.2,0,0.307.008l32.261,1.68A4.628,4.628,0,0,1,43.5,8.714V32.223a4.628,4.628,0,0,1-4.368,4.535L6.871,38.437C6.768,38.442,6.666,38.445,6.564,38.445ZM21.794,16.74a0.99,0.99,0,0,0-.672.248,0.717,0.717,0,0,0-.248.529,0.753,0.753,0,0,0,.255.554l4.88,4.532L21.135,27.2a0.776,0.776,0,0,0-.261.572,0.685,0.685,0,0,0,.242.511,0.968,0.968,0,0,0,.648.234h0a1.065,1.065,0,0,0,.734-0.287L27.843,23.1a0.731,0.731,0,0,0,.235-0.529,0.706,0.706,0,0,0-.229-0.511L22.5,17.012A1.043,1.043,0,0,0,21.794,16.74ZM14.934,6.6v-0.2L14.5,6.372V6.579Zm-4.079-.165V6.2l-0.5-.023V6.412Zm-4.186-.17V6L6.1,5.974V6.24Z" style="fill:#cbaed1;fill-rule:evenodd"/><path d="M6.564,3.491q0.127,0,.255.007L39.08,5.178A3.6,3.6,0,0,1,42.5,8.714v1.343L2.5,8.623V7.094a3.819,3.819,0,0,1,4.064-3.6m0.5,3.787a0.571,0.571,0,0,0,.608-0.539V5.611a0.64,0.64,0,0,0-.637-0.595L5.75,4.956H5.714a0.572,0.572,0,0,0-.609.539V6.631a0.641,0.641,0,0,0,.645.595L7.032,7.278h0.03m4.2,0.17a0.56,0.56,0,0,0,.593-0.533V5.8a0.626,0.626,0,0,0-.621-0.586l-1.249-.06H9.951a0.561,0.561,0,0,0-.595.532V6.811a0.628,0.628,0,0,0,.628.587l1.249,0.051h0.028m4.094,0.166a0.549,0.549,0,0,0,.578-0.526v-1.1a0.614,0.614,0,0,0-.605-0.579l-1.217-.058H14.079a0.549,0.549,0,0,0-.58.526V6.986a0.615,0.615,0,0,0,.612.579l1.217,0.049h0.028M2.5,10.151l40,1.25V32.223a3.6,3.6,0,0,1-3.42,3.536L6.819,37.439q-0.128.007-.254,0.007a3.819,3.819,0,0,1-4.064-3.6V10.151M21.764,29.514a2.063,2.063,0,0,0,1.427-.565l5.344-5.124a1.7,1.7,0,0,0,0-2.489l-5.344-5.05a2.034,2.034,0,0,0-1.4-.546,1.994,1.994,0,0,0-1.345.508,1.707,1.707,0,0,0,0,2.555l4.1,3.8-4.1,3.861a1.707,1.707,0,0,0,0,2.555,1.965,1.965,0,0,0,1.316.49M6.564,1.491h0A5.785,5.785,0,0,0,.5,7.094V33.842a5.785,5.785,0,0,0,6.064,5.6q0.178,0,.358-0.009l32.261-1.68A5.571,5.571,0,0,0,44.5,32.223V8.714a5.571,5.571,0,0,0-5.316-5.534L6.923,1.5Q6.742,1.491,6.564,1.491h0Z" style="fill:#52306c"/></svg>