<svg xmlns="http://www.w3.org/2000/svg" viewBox="0 0 510 430"><title>bearrr</title><circle cx="255" cy="215.2641" r="180" style="fill:#e8faef"/><rect x="20" y="95.2641" width="470" height="240" rx="18" ry="18" transform="translate(-47.0255 73.3338) rotate(-15)" style="fill:#fff"/><rect x="35" y="110.2641" width="440" height="210" rx="9" ry="9" transform="translate(-47.0255 73.3338) rotate(-15)" style="fill:#e8faef"/><path d="M386.2544,86.92a45,45,0,0,0,55.1135,31.82" style="fill:none;stroke:#46b375;stroke-linecap:round;stroke-miterlimit:10;stroke-width:3px"/><line x1="386.2544" y1="86.9197" x2="342.7878" y2="98.5666" style="fill:none;stroke:#46b375;stroke-linecap:round;stroke-miterlimit:10;stroke-width:3px"/><line x1="441.3679" y1="118.7395" x2="453.0148" y2="162.2062" style="fill:none;stroke:#46b375;stroke-linecap:round;stroke-miterlimit:10;stroke-width:3px"/><path d="M432.8418,260.7864a45,45,0,0,1,31.82-55.1135" style="fill:none;stroke:#46b375;stroke-linecap:round;stroke-miterlimit:10;stroke-width:3px"/><line x1="432.8418" y1="260.7864" x2="389.3752" y2="272.4332" style="fill:none;stroke:#46b375;stroke-linecap:round;stroke-miterlimit:10;stroke-width:3px"/><line x1="464.6617" y1="205.6728" x2="453.0148" y2="162.2062" style="fill:none;stroke:#46b375;stroke-linecap:round;stroke-miterlimit:10;stroke-width:3px"/><path d="M76.9614,169.7945a45,45,0,0,1-31.82,55.1135" style="fill:none;stroke:#46b375;stroke-linecap:round;stroke-miterlimit:10;stroke-width:3px"/><line x1="76.9614" y1="169.7945" x2="120.4281" y2="158.1477" style="fill:none;stroke:#46b375;stroke-linecap:round;stroke-miterlimit:10;stroke-width:3px"/><line x1="45.1416" y1="224.908" x2="56.7885" y2="268.3747" style="fill:none;stroke:#46b375;stroke-linecap:round;stroke-miterlimit:10;stroke-width:3px"/><path d="M123.5489,343.6612a45,45,0,0,0-55.1135-31.82" style="fill:none;stroke:#46b375;stroke-linecap:round;stroke-miterlimit:10;stroke-width:3px"/><line x1="123.5489" y1="343.6612" x2="167.0155" y2="332.0143" style="fill:none;stroke:#46b375;stroke-linecap:round;stroke-miterlimit:10;stroke-width:3px"/><line x1="68.4353" y1="311.8414" x2="56.7885" y2="268.3747" style="fill:none;stroke:#46b375;stroke-linecap:round;stroke-miterlimit:10;stroke-width:3px"/><path d="M109.06,347.5435A30,30,0,0,0,72.3176,326.33" style="fill:none;stroke:#82d99f;stroke-linecap:round;stroke-miterlimit:10;stroke-width:2px"/><path d="M447.5274,256.8514a30,30,0,0,1,21.2132-36.7423" style="fill:none;stroke:#82d99f;stroke-linecap:round;stroke-miterlimit:10;stroke-width:2px"/><path d="M62.4726,173.6768a30,30,0,0,1-21.2132,36.7423" style="fill:none;stroke:#82d99f;stroke-linecap:round;stroke-miterlimit:10;stroke-width:2px"/><path d="M400.94,82.9847a30,30,0,0,0,36.7423,21.2132" style="fill:none;stroke:#82d99f;stroke-linecap:round;stroke-miterlimit:10;stroke-width:2px"/><rect x="20" y="95.2641" width="470" height="240" rx="18" ry="18" transform="translate(-47.0255 73.3338) rotate(-15)" style="fill:none;stroke:#46b375;stroke-linecap:round;stroke-miterlimit:10;stroke-width:2px"/><rect x="20" y="95.2641" width="470" height="240" rx="18" ry="18" style="fill:#fff"/><rect x="35" y="110.2641" width="440" height="210" rx="9" ry="9" style="fill:#e8faef"/><path d="M289.3529,204.6427c-5-12.9179,13.9065-11.4588,13.2546-22.2063-0.3637-5.9854-9.7614-11.2844-15.14-9.9932-8.8558,2.1245-9.6728,14.0629-10.356,21.4879" style="fill:#fff;stroke:#46b375;stroke-linecap:round;stroke-linejoin:round;stroke-width:3px"/><path d="M415,227.7641a22.5,22.5,0,0,1-45,0h22.5v-22.5A22.5,22.5,0,0,1,415,227.7641Z" style="fill:#fff"/><path d="M372.5,200.2641a20,20,0,1,1,40,0h-20v20A20,20,0,0,1,372.5,200.2641Z" style="fill:#fff"/><circle cx="392.5" cy="227.7641" r="7.5" style="fill:#e8faef"/><path d="M219.9178,204.6427c5-12.9179-13.907-11.4588-13.2541-22.2063,0.3637-5.9854,9.7614-11.2844,15.14-9.9932,8.8558,2.1245,9.6728,14.0629,10.356,21.4879" style="fill:#fff;stroke:#46b375;stroke-linecap:round;stroke-linejoin:round;stroke-width:3px"/><path d="M226.3735,190.7946s-1.7533-8.1673-7.8467-9.8547c-4.0943-1.1327-6.4356,1.713-6.05,3.8075,0.5857,3.18,9.6952,7.4727,11.0014,9.6994" style="fill:#82d99f"/><circle cx="392.5" cy="200.2641" r="5" style="fill:#e8faef"/><path d="M282.8972,190.7946s1.7534-8.1673,7.8462-9.8547c4.0952-1.1327,6.4357,1.713,6.05,3.8075-0.5857,3.18-9.6956,7.4727-11.0013,9.6994" style="fill:#82d99f"/><path d="M191.36,278.9037a90,90,0,0,1,0-127.2792" style="fill:none;stroke:#46b375;stroke-linecap:round;stroke-miterlimit:10;stroke-width:3px"/><path d="M318.64,151.6245a90,90,0,0,1,0,127.2792" style="fill:none;stroke:#46b375;stroke-linecap:round;stroke-miterlimit:10;stroke-width:3px"/><path d="M219.9679,132.3367a90.2963,90.2963,0,0,1,70.0641,0" style="fill:none;stroke:#46b375;stroke-linecap:round;stroke-miterlimit:10;stroke-width:3px"/><path d="M415,125.2641a45,45,0,0,0,45,45" style="fill:none;stroke:#46b375;stroke-linecap:round;stroke-miterlimit:10;stroke-width:3px"/><line x1="415" y1="125.2641" x2="370" y2="125.2641" style="fill:none;stroke:#46b375;stroke-linecap:round;stroke-miterlimit:10;stroke-width:3px"/><path d="M175.4255,320.2641a101.841,101.841,0,0,1,6.1471-25.0972c0.3362-.8291.6859-1.63,1.0338-2.438a3.8913,3.8913,0,0,1-.5129-1.9,4.2086,4.2086,0,0,1,3.2367-3.9849c14.8173-26.71,21.415-29.8335,29.3636-36.896l0.4733-2.7485s-0.7167-53.0835,11.6817-62.9048c5.5123-4.3667,12.8535-5.9321,22.5222-6.5015a116.9025,116.9025,0,0,1,12.5468.2412c8.3974,0.7412,15.37,1.6387,21.27,5.4951,13.069,8.5425,11.851,53.3887,11.54,63.67l0.5055,2.6841c10.16,9.0491,13.3068,7.8832,29.4372,36.96a4.2086,4.2086,0,0,1,3.2367,3.9849,3.8913,3.8913,0,0,1-.5129,1.9c0.3479,0.8076.6976,1.6089,1.0343,2.438a101.8551,101.8551,0,0,1,6.1465,25.0972" style="fill:#fff;stroke:#46b375;stroke-linecap:round;stroke-linejoin:round;stroke-width:3px"/><path d="M215.5424,264.1015c-3.5058,9.0122-6.7219,17.9927-7.2755,40.0967a135.0721,135.0721,0,0,0,.6095,16.0659" style="fill:none;stroke:#46b375;stroke-linecap:round;stroke-linejoin:round;stroke-width:3px"/><path d="M294.4577,264.1015c3.5062,9.0122,6.722,17.9927,7.2755,40.0967a135.047,135.047,0,0,1-.6094,16.0659" style="fill:none;stroke:#46b375;stroke-linecap:round;stroke-linejoin:round;stroke-width:3px"/><path d="M260.4781,231.7537c-1.5614,3.0937-4.2906,1.3229-6.4524-1.7832l-4.6944,2.19c-5.4834-6.6315-10.2511-24.1652-4.4874-32.4221,5.7618-8.2566,30.7559-5.8339,20.5315,20.5993-1.4834,3.8506-3.2456,7.6362-4.8973,11.4162" style="fill:#fff;stroke:#46b375;stroke-linecap:round;stroke-linejoin:round;stroke-width:3px"/><line x1="254.8988" y1="220.1415" x2="254.8988" y2="206.0993" style="fill:none;stroke:#46b375;stroke-linecap:round;stroke-linejoin:round;stroke-width:3px"/><line x1="460" y1="170.2641" x2="460" y2="215.2641" style="fill:none;stroke:#46b375;stroke-linecap:round;stroke-miterlimit:10;stroke-width:3px"/><path d="M415,305.2641a45,45,0,0,1,45-45" style="fill:none;stroke:#46b375;stroke-linecap:round;stroke-miterlimit:10;stroke-width:3px"/><line x1="415" y1="305.2641" x2="370" y2="305.2641" style="fill:none;stroke:#46b375;stroke-linecap:round;stroke-miterlimit:10;stroke-width:3px"/><line x1="460" y1="260.2641" x2="460" y2="215.2641" style="fill:none;stroke:#46b375;stroke-linecap:round;stroke-miterlimit:10;stroke-width:3px"/><path d="M94.7963,125.2641a45,45,0,0,1-45,45" style="fill:none;stroke:#46b375;stroke-linecap:round;stroke-miterlimit:10;stroke-width:3px"/><line x1="94.7963" y1="125.2641" x2="139.7963" y2="125.2641" style="fill:none;stroke:#46b375;stroke-linecap:round;stroke-miterlimit:10;stroke-width:3px"/><line x1="49.7963" y1="170.2641" x2="49.7963" y2="215.2641" style="fill:none;stroke:#46b375;stroke-linecap:round;stroke-miterlimit:10;stroke-width:3px"/><path d="M94.7963,305.2641a45,45,0,0,0-45-45" style="fill:none;stroke:#46b375;stroke-linecap:round;stroke-miterlimit:10;stroke-width:3px"/><line x1="94.7963" y1="305.2641" x2="139.7963" y2="305.2641" style="fill:none;stroke:#46b375;stroke-linecap:round;stroke-miterlimit:10;stroke-width:3px"/><path d="M392.5,205.2641a5,5,0,1,1,5-5" style="fill:none;stroke:#46b375;stroke-linecap:round;stroke-miterlimit:10;stroke-width:3px"/><path d="M392.5,220.2641a20,20,0,1,1,20-20" style="fill:none;stroke:#46b375;stroke-linecap:round;stroke-miterlimit:10;stroke-width:3px"/><path d="M392.5,220.2641a7.5,7.5,0,1,1-7.5,7.5" style="fill:none;stroke:#46b375;stroke-linecap:round;stroke-miterlimit:10;stroke-width:3px"/><path d="M392.5,205.2641a22.5,22.5,0,1,1-22.5,22.5" style="fill:none;stroke:#46b375;stroke-linecap:round;stroke-miterlimit:10;stroke-width:3px"/><line x1="392.5" y1="170.2641" x2="392.5" y2="195.2641" style="fill:none;stroke:#46b375;stroke-linecap:round;stroke-miterlimit:10;stroke-width:3px"/><line x1="392.5" y1="235.2641" x2="392.5" y2="260.2641" style="fill:none;stroke:#46b375;stroke-linecap:round;stroke-miterlimit:10;stroke-width:3px"/><line x1="49.7963" y1="260.2641" x2="49.7963" y2="215.2641" style="fill:none;stroke:#46b375;stroke-linecap:round;stroke-miterlimit:10;stroke-width:3px"/><path d="M200.96,123.997a15,15,0,0,0,19.5984,8.1179" style="fill:none;stroke:#46b375;stroke-linecap:round;stroke-miterlimit:10;stroke-width:3px"/><path d="M309.04,123.997a15,15,0,0,1-19.5984,8.1179" style="fill:none;stroke:#46b375;stroke-linecap:round;stroke-miterlimit:10;stroke-width:3px"/><path d="M141.2963,215.2641c0,3.0508-3.4928,5.3852-4.5929,8.0381-1.14,2.75-.3642,6.86-2.4367,8.9326s-6.1824,1.2961-8.9324,2.4364c-2.6529,1.1-4.9873,4.5929-8.038,4.5929s-5.3852-3.4928-8.0381-4.5929c-2.75-1.14-6.86-.3642-8.9326-2.4367s-1.2961-6.1824-2.4364-8.9324c-1.1-2.6529-4.5929-4.9873-4.5929-8.038s3.4928-5.3852,4.5929-8.0381c1.14-2.75.3642-6.86,2.4367-8.9326s6.1824-1.2961,8.9324-2.4364c2.6529-1.1,4.9873-4.5929,8.038-4.5929s5.3852,3.4928,8.0381,4.5929c2.75,1.14,6.86.3642,8.9326,2.4367s1.2961,6.1824,2.4364,8.9324C137.8036,209.8789,141.2963,212.2133,141.2963,215.2641Z" style="fill:#fff;stroke:#46b375;stroke-linecap:round;stroke-miterlimit:10;stroke-width:3px"/><circle cx="117.2963" cy="215.2641" r="7.5" style="fill:#e8faef;stroke:#46b375;stroke-linecap:round;stroke-miterlimit:10;stroke-width:3px"/><path d="M230.3929,320.2641q-0.4016-7.0107-.4041-14.7812c0-36.981,17.7681-35.7007,24.9093-35.7007s24.9111-1.28,24.9111,35.7007q0,7.7622-.4041,14.7813" style="fill:none;stroke:#82d99f;stroke-linecap:round;stroke-miterlimit:10;stroke-width:2px"/><circle cx="233.5458" cy="199.2977" r="1.5001" style="fill:#46b375;stroke:#46b375;stroke-miterlimit:10;stroke-width:2px"/><circle cx="276.4542" cy="199.2977" r="1.5001" style="fill:#46b375;stroke:#46b375;stroke-miterlimit:10;stroke-width:2px"/><path d="M259.3868,205.062c-0.61-.6306-2.4879-0.9509-4.4879-0.9627-2,.0118-3.8777.3321-4.4881,0.9627-1.4218,1.4691,1.895,4.8276,4.4881,5.0373C257.4919,209.89,260.8083,206.5311,259.3868,205.062Z" style="fill:#46b375;stroke:#46b375;stroke-linecap:round;stroke-linejoin:round;stroke-width:3px"/><path d="M185.8939,244.4575a75,75,0,1,1,138.2123,0" style="fill:none;stroke:#82d99f;stroke-linecap:round;stroke-miterlimit:10;stroke-width:2px"/><line x1="109.7963" y1="177.7641" x2="124.7963" y2="177.7641" style="fill:none;stroke:#82d99f;stroke-linecap:round;stroke-miterlimit:10;stroke-width:2px"/><line x1="109.7963" y1="252.7641" x2="124.7963" y2="252.7641" style="fill:none;stroke:#82d99f;stroke-linecap:round;stroke-miterlimit:10;stroke-width:2px"/><path d="M79.7963,305.2641a30,30,0,0,0-30-30" style="fill:none;stroke:#82d99f;stroke-linecap:round;stroke-miterlimit:10;stroke-width:2px"/><path d="M430.2037,305.2641a30,30,0,0,1,30-30" style="fill:none;stroke:#82d99f;stroke-linecap:round;stroke-miterlimit:10;stroke-width:2px"/><path d="M79.7963,125.2641a30,30,0,0,1-30,30" style="fill:none;stroke:#82d99f;stroke-linecap:round;stroke-miterlimit:10;stroke-width:2px"/><path d="M430.2037,125.2641a30,30,0,0,0,30,30" style="fill:none;stroke:#82d99f;stroke-linecap:round;stroke-miterlimit:10;stroke-width:2px"/><rect x="20" y="95.2641" width="470" height="240" rx="18" ry="18" style="fill:none;stroke:#46b375;stroke-linecap:round;stroke-miterlimit:10;stroke-width:2px"/><path d="M235.9583,190.192a8.6831,8.6831,0,0,0-7.1867,3.9363" style="fill:none;stroke:#46b375;stroke-linecap:round;stroke-miterlimit:10;stroke-width:2px"/><path d="M274.0417,190.192a8.6831,8.6831,0,0,1,7.1867,3.9363" style="fill:none;stroke:#46b375;stroke-linecap:round;stroke-miterlimit:10;stroke-width:2px"/><line x1="211.7742" y1="10.6405" x2="211.7742" y2="20.6405" style="fill:none;stroke:#82d99f;stroke-linecap:round;stroke-miterlimit:10;stroke-width:3px"/><line x1="216.7738" y1="15.6408" x2="206.7738" y2="15.6408" style="fill:none;stroke:#82d99f;stroke-linecap:round;stroke-miterlimit:10;stroke-width:3px"/><line x1="360.7743" y1="31.1405" x2="360.7743" y2="46.1405" style="fill:none;stroke:#82d99f;stroke-linecap:round;stroke-miterlimit:10;stroke-width:3px"/><line x1="368.2738" y1="38.641" x2="353.2738" y2="38.641" style="fill:none;stroke:#82d99f;stroke-linecap:round;stroke-miterlimit:10;stroke-width:3px"/><line x1="364.5116" y1="350.6022" x2="364.5116" y2="365.6022" style="fill:#fffeff;stroke:#82d99f;stroke-linecap:round;stroke-miterlimit:10;stroke-width:3px"/><line x1="372.0112" y1="358.1027" x2="357.0112" y2="358.1027" style="fill:#fffeff;stroke:#82d99f;stroke-linecap:round;stroke-miterlimit:10;stroke-width:3px"/><circle cx="229.1158" cy="370.1411" r="7.4987" transform="translate(-154.3749 164.1474) rotate(-30)" style="fill:none;stroke:#46b375;stroke-miterlimit:10;stroke-width:3px"/><line x1="145.2929" y1="394.6275" x2="145.2929" y2="414.6275" style="fill:none;stroke:#82d99f;stroke-linecap:round;stroke-miterlimit:10;stroke-width:3px"/><line x1="155.2929" y1="404.6275" x2="135.2929" y2="404.6275" style="fill:none;stroke:#82d99f;stroke-linecap:round;stroke-miterlimit:10;stroke-width:3px"/><circle cx="290.592" cy="39.2466" r="7.5" transform="translate(57.3609 216.9746) rotate(-45)" style="fill:none;stroke:#46b375;stroke-linecap:round;stroke-miterlimit:10;stroke-width:3px"/><circle cx="182" cy="78.6405" r="5" transform="translate(-2.3007 151.7267) rotate(-45)" style="fill:none;stroke:#82d99f;stroke-linecap:round;stroke-miterlimit:10;stroke-width:3px"/><path d="M138.4846,56.2522a5.5076,5.5076,0,0,1-1.7794-.29,4.7608,4.7608,0,0,1-1.4531-.7913,3.7669,3.7669,0,0,1-.98-1.1736,3.0545,3.0545,0,0,1,0-2.8744,3.7669,3.7669,0,0,1,.98-1.1736,4.7608,4.7608,0,0,1,1.4531-.7913,5.6012,5.6012,0,0,1,3.5588,0,4.7608,4.7608,0,0,1,1.4531.7913,3.7669,3.7669,0,0,1,.98,1.1736" style="fill:none;stroke:#46b375;stroke-linecap:round;stroke-miterlimit:10;stroke-width:3px"/><path d="M138.4846,56.2522a6.4255,6.4255,0,0,1,2.076.3385,5.5543,5.5543,0,0,1,1.6953.9232,4.3947,4.3947,0,0,1,1.143,1.3693,3.5636,3.5636,0,0,1,0,3.3535,4.3947,4.3947,0,0,1-1.143,1.3693,5.5543,5.5543,0,0,1-1.6953.9232,6.5347,6.5347,0,0,1-4.1519,0,5.5543,5.5543,0,0,1-1.6953-.9232,4.3947,4.3947,0,0,1-1.143-1.3693" style="fill:none;stroke:#46b375;stroke-linecap:round;stroke-miterlimit:10;stroke-width:3px"/><line x1="138.4846" y1="44.8676" x2="138.4846" y2="48.8676" style="fill:none;stroke:#46b375;stroke-linecap:round;stroke-miterlimit:10;stroke-width:2px"/><line x1="138.4846" y1="64.8676" x2="138.4846" y2="68.8676" style="fill:none;stroke:#46b375;stroke-linecap:round;stroke-miterlimit:10;stroke-width:2px"/><path d="M324.7619,413.895a5.4771,5.4771,0,0,1-7.4558,0,4.82,4.82,0,0,1,0-7.0711,5.4771,5.4771,0,0,1,7.4558,0" style="fill:none;stroke:#46b375;stroke-linecap:round;stroke-miterlimit:10;stroke-width:3px"/><line x1="321.034" y1="401.3595" x2="321.034" y2="405.3595" style="fill:none;stroke:#46b375;stroke-linecap:round;stroke-miterlimit:10;stroke-width:2px"/><line x1="321.034" y1="419.3595" x2="321.034" y2="415.3595" style="fill:none;stroke:#46b375;stroke-linecap:round;stroke-miterlimit:10;stroke-width:2px"/></svg>