<svg id="Layer_1" data-name="Layer 1" xmlns="http://www.w3.org/2000/svg" viewBox="0 0 60 60"><title>icons-pr-link</title><rect width="60" height="60" fill="none"/><rect x="86.212" y="544.994" width="33.85" height="33.85" rx="3.465" ry="3.465" transform="translate(354.211 -440.265) rotate(45)" fill="#dbdbdb" stroke="#52306c" stroke-linecap="round" stroke-linejoin="round" stroke-width="2"/><path d="M100.129,554.01a2.312,2.312,0,0,1,.674,1.659,2.2,2.2,0,0,1-.319,1.176,2.411,2.411,0,0,1-.848.83v7.638a2.411,2.411,0,0,1,.848.83,2.2,2.2,0,0,1,.319,1.176,2.333,2.333,0,1,1-4.667,0,2.2,2.2,0,0,1,.319-1.176,2.407,2.407,0,0,1,.848-0.83v-7.638a2.407,2.407,0,0,1-.848-0.83,2.2,2.2,0,0,1-.319-1.176A2.346,2.346,0,0,1,100.129,554.01Zm-0.838,2.479a1.149,1.149,0,1,0-1.641,0A1.145,1.145,0,0,0,99.29,556.489Zm0,11.666a1.149,1.149,0,1,0-1.641,0A1.144,1.144,0,0,0,99.29,568.155Zm10.527-2a2.2,2.2,0,0,1,.319,1.176,2.333,2.333,0,1,1-4.667,0,2.2,2.2,0,0,1,.319-1.176,2.413,2.413,0,0,1,.848-0.83V558a1.255,1.255,0,0,0-1.167-1.167H104.3v2.333l-3.5-3.5,3.5-3.5V554.5h1.166a3.764,3.764,0,0,1,3.5,3.5v7.328A2.414,2.414,0,0,1,109.817,566.16Zm-1.194,2a1.148,1.148,0,1,0-1.641,0A1.144,1.144,0,0,0,108.623,568.155Z" transform="translate(-73.333 -531.919)" fill="#52306c"/><g opacity="0.15"><circle cx="43.239" cy="43.114" r="10.866"/></g><path d="M125.406,580.661a9.8,9.8,0,1,0-2.5,2.8l1.617,0.433,1.882,0.5-0.5-1.882Z" transform="translate(-73.333 -531.919)" fill="#20c2ef" stroke="#52306c" stroke-linecap="round" stroke-linejoin="round"/><path d="M109.525,573.837a7.522,7.522,0,0,1,7.367-6" transform="translate(-73.333 -531.919)" fill="none" stroke="#fff" stroke-linecap="round" stroke-linejoin="round" stroke-width="1.073" opacity="0.4"/><g opacity="0.3"><path d="M115.966,573.1l2.863-1.185a1.256,1.256,0,0,1,1.641.681l0.7,1.7a1.256,1.256,0,0,1-.681,1.641l-2.863,1.185" transform="translate(-73.333 -531.919)" fill="none" stroke="#52306c" stroke-linecap="round" stroke-linejoin="round" stroke-width="1.5"/><path d="M118.029,579.291l-2.863,1.185a1.256,1.256,0,0,1-1.641-.681l-0.7-1.7a1.256,1.256,0,0,1,.681-1.641l2.863-1.185" transform="translate(-73.333 -531.919)" fill="none" stroke="#52306c" stroke-linecap="round" stroke-linejoin="round" stroke-width="1.5"/></g></svg>