<svg id="Layer_1" data-name="Layer 1" xmlns="http://www.w3.org/2000/svg" viewBox="0 0 60 60"><title>icons-rebuilding</title><rect width="60" height="60" fill="none"/><path d="M101.573,428.5L99.9,423.056a1,1,0,0,0-.7-0.673A15.872,15.872,0,0,1,95.37,420.8a1,1,0,0,0-.5-0.134,0.989,0.989,0,0,0-.473.119l-4.708,2.526a17.215,17.215,0,0,1-2.664-2.663l2.528-4.709a1,1,0,0,0-.016-0.975,15.77,15.77,0,0,1-1.587-3.836,1,1,0,0,0-.673-0.7l-5.444-1.668v-3.521l5.444-1.668a1,1,0,0,0,.673-0.7,15.776,15.776,0,0,1,1.587-3.838,1,1,0,0,0,.016-0.975l-2.528-4.706a17.151,17.151,0,0,1,2.664-2.663l4.712,2.526a1,1,0,0,0,.973-0.016,15.828,15.828,0,0,1,3.833-1.585,1,1,0,0,0,.7-0.673l1.668-5.444h3.521l1.668,5.444a1,1,0,0,0,.7.673A15.868,15.868,0,0,1,111.3,393.2a1,1,0,0,0,.5.134,0.989,0.989,0,0,0,.473-0.119l4.708-2.526a17.157,17.157,0,0,1,2.664,2.664l-2.527,4.708a1,1,0,0,0,.015.973,15.86,15.86,0,0,1,1.586,3.838,1,1,0,0,0,.673.7l5.444,1.668v3.521l-5.444,1.668a1,1,0,0,0-.673.7,15.869,15.869,0,0,1-1.586,3.836,1,1,0,0,0-.016.973l2.527,4.71a17.178,17.178,0,0,1-2.664,2.664l-4.707-2.528a1,1,0,0,0-.975.016,15.852,15.852,0,0,1-3.838,1.587,1,1,0,0,0-.7.673l-1.668,5.444h-3.521Z" transform="translate(-73.333 -377)" fill="#dbdbdb"/><path d="M104.354,386.5l1.451,4.737a2,2,0,0,0,1.4,1.346,14.853,14.853,0,0,1,3.6,1.485,2,2,0,0,0,1.946.03l4.111-2.207a15.748,15.748,0,0,1,1.586,1.586l-2.207,4.111a2,2,0,0,0,.03,1.946,14.852,14.852,0,0,1,1.485,3.6,2,2,0,0,0,1.346,1.4l4.737,1.451v2.042l-4.737,1.451a2,2,0,0,0-1.346,1.4,14.85,14.85,0,0,1-1.485,3.594,2,2,0,0,0-.031,1.946l2.207,4.113a15.776,15.776,0,0,1-1.586,1.586l-4.109-2.207a2,2,0,0,0-1.949.031,14.84,14.84,0,0,1-3.6,1.487,2,2,0,0,0-1.394,1.346l-1.451,4.737h-2.042l-1.451-4.737a2,2,0,0,0-1.4-1.346,14.853,14.853,0,0,1-3.6-1.485,2,2,0,0,0-1.946-.03l-4.111,2.207a15.746,15.746,0,0,1-1.586-1.586l2.208-4.111a2,2,0,0,0-.032-1.95,14.742,14.742,0,0,1-1.485-3.592,2,2,0,0,0-1.346-1.4l-4.737-1.451v-2.042l4.737-1.451a2,2,0,0,0,1.346-1.4,14.77,14.77,0,0,1,1.486-3.594,2,2,0,0,0,.031-1.949l-2.208-4.109a15.733,15.733,0,0,1,1.586-1.586l4.115,2.207a2,2,0,0,0,1.947-.031,14.821,14.821,0,0,1,3.591-1.485,2,2,0,0,0,1.4-1.346l1.451-4.737h2.042m1.479-2h-5l-1.885,6.151a16.8,16.8,0,0,0-4.076,1.686l-5.29-2.837a18.87,18.87,0,0,0-3.75,3.75l2.839,5.284a16.743,16.743,0,0,0-1.688,4.081L80.833,404.5v5l6.151,1.885a16.73,16.73,0,0,0,1.688,4.079l-2.839,5.286a18.885,18.885,0,0,0,3.75,3.75l5.286-2.837a16.831,16.831,0,0,0,4.079,1.686l1.885,6.151h5l1.885-6.151a16.81,16.81,0,0,0,4.081-1.688l5.284,2.839a18.92,18.92,0,0,0,3.75-3.75L118,415.462a16.822,16.822,0,0,0,1.686-4.078l6.151-1.885v-5l-6.151-1.885A16.83,16.83,0,0,0,118,398.536l2.837-5.286a18.884,18.884,0,0,0-3.75-3.75l-5.286,2.837a16.831,16.831,0,0,0-4.079-1.686l-1.885-6.151h0Z" transform="translate(-73.333 -377)" fill="#52306c"/><path d="M103.333,417a10,10,0,1,1,10-10A10.011,10.011,0,0,1,103.333,417Z" transform="translate(-73.333 -377)" fill="#bbb"/><path d="M103.333,397.5a9.5,9.5,0,1,1-9.5,9.5,9.511,9.511,0,0,1,9.5-9.5m0-1a10.5,10.5,0,1,0,10.5,10.5,10.5,10.5,0,0,0-10.5-10.5h0Z" transform="translate(-73.333 -377)" fill="#52306c"/><path d="M123.585,416.788c1.583,0.914,4.062,2.633,2.478,3.547l-8.43,4-7.483,5.163c-1.583.914-2.031-1.955-2.031-3.783V411.972a2.375,2.375,0,0,1,3.562-2.057l5.952,3.436Z" transform="translate(-73.333 -377)" opacity="0.15"/><circle cx="30" cy="30" r="5" fill="#fff"/><path d="M103.333,403a4,4,0,1,1-4,4,4,4,0,0,1,4-4m0-2a6,6,0,1,0,6,6,6,6,0,0,0-6-6h0Z" transform="translate(-73.333 -377)" fill="#52306c"/><path d="M125.423,418.766a1.812,1.812,0,0,1,0,3.139l-6.8,3.923-6.8,3.923a1.812,1.812,0,0,1-2.718-1.569V412.488a1.812,1.812,0,0,1,2.718-1.569l6.8,3.923Z" transform="translate(-73.333 -377)" fill="#f4c27a" stroke="#52306c" stroke-linecap="round" stroke-linejoin="round"/><line x1="37.567" y1="38.415" x2="37.567" y2="45.915" fill="none" stroke="#fff" stroke-linecap="round" stroke-linejoin="round" stroke-width="1.073" opacity="0.4"/><line x1="37.567" y1="35.669" x2="37.567" y2="36.459" fill="none" stroke="#fff" stroke-linecap="round" stroke-linejoin="round" stroke-width="1.073" opacity="0.4"/></svg>