<svg id="Layer_1" data-name="Layer 1" xmlns="http://www.w3.org/2000/svg" viewBox="0 0 60 60"><title>icons-smart-db</title><path d="M30.415,505.146c-13.888,0-23.566-4.163-23.566-7.9V483.409H53.98v13.837C53.98,500.982,44.3,505.146,30.415,505.146Z" transform="translate(-0.414 -454.272)" fill="#eaeaea"/><path d="M52.98,484.409v12.837c0,2.813-8.791,6.9-22.566,6.9s-22.566-4.086-22.566-6.9V484.409H52.98m2-2H5.849v14.837c0,4.915,11,8.9,24.566,8.9s24.566-3.984,24.566-8.9V482.409h0Z" transform="translate(-0.414 -454.272)" fill="#593873"/><ellipse cx="30" cy="28.137" rx="24.566" ry="8.899" fill="#d8d8d8"/><path d="M30.414,473.51c-8.893,0-16.682,1.712-20.994,4.276a5.615,5.615,0,0,0,3.763,5.191v0a2.579,2.579,0,0,0,.377.1,5.174,5.174,0,0,0,1.358.253,5.559,5.559,0,0,0,8.9-.2h13.2a5.558,5.558,0,0,0,8.895.2,5.207,5.207,0,0,0,1.358-.253,2.6,2.6,0,0,0,.378-0.1v0a5.614,5.614,0,0,0,3.762-5.191C47.1,475.222,39.307,473.51,30.414,473.51Z" transform="translate(-0.414 -454.272)" opacity="0.2"/><path d="M30.414,475.51c13.775,0,22.566,4.086,22.566,6.9s-8.791,6.9-22.566,6.9-22.566-4.086-22.566-6.9,8.791-6.9,22.566-6.9m0-2c-13.567,0-24.566,3.984-24.566,8.9s11,8.9,24.566,8.9,24.566-3.984,24.566-8.9-11-8.9-24.566-8.9h0Z" transform="translate(-0.414 -454.272)" fill="#593873"/><line x1="11.623" y1="38.385" x2="11.623" y2="42.815" fill="none" stroke="#593873" stroke-linecap="round" stroke-linejoin="round" stroke-width="2"/><line x1="14.577" y1="39.369" x2="14.577" y2="43.799" fill="none" stroke="#593873" stroke-linecap="round" stroke-linejoin="round" stroke-width="2"/><path d="M27.054,462.407a3.772,3.772,0,0,0-3.743,3.258,6.189,6.189,0,0,0-3.017-.808,6.223,6.223,0,0,0-5.345,9.466,3.535,3.535,0,0,0-.908,6.877,0.889,0.889,0,0,0,.172.035,3.479,3.479,0,0,0,1.007.2,3.112,3.112,0,0,0,.907-0.183,3.52,3.52,0,0,0,6.6-.02h7.691V464.88A3.548,3.548,0,0,0,27.054,462.407Z" transform="translate(-0.414 -454.272)" fill="#ff839e" stroke="#593873" stroke-linecap="round" stroke-linejoin="round" stroke-width="2"/><path d="M14.676,476.809a1.079,1.079,0,0,0-.618.975" transform="translate(-0.414 -454.272)" fill="none" stroke="#fff" stroke-linecap="round" stroke-linejoin="round" stroke-width="1.073" opacity="0.4"/><path d="M19.724,467.526a4.155,4.155,0,0,0-2.849,2.156" transform="translate(-0.414 -454.272)" fill="none" stroke="#fff" stroke-linecap="round" stroke-linejoin="round" stroke-width="1.073" opacity="0.4"/><path d="M33.775,462.407a3.772,3.772,0,0,1,3.743,3.258,6.189,6.189,0,0,1,3.017-.808,6.223,6.223,0,0,1,5.345,9.466,3.535,3.535,0,0,1,.908,6.877,0.889,0.889,0,0,1-.172.035,3.479,3.479,0,0,1-1.007.2,3.112,3.112,0,0,1-.907-0.183,3.52,3.52,0,0,1-6.6-.02H30.414V464.88A3.548,3.548,0,0,1,33.775,462.407Z" transform="translate(-0.414 -454.272)" fill="#ff839e" stroke="#593873" stroke-linecap="round" stroke-linejoin="round" stroke-width="2"/><path d="M33.052,464.8a0.916,0.916,0,0,1,.579-0.2" transform="translate(-0.414 -454.272)" fill="none" stroke="#fff" stroke-linecap="round" stroke-linejoin="round" stroke-width="1.073" opacity="0.4"/><path d="M19.073,472.682a2.741,2.741,0,1,1,1.162,5.225" transform="translate(-0.414 -454.272)" fill="none" stroke="#593873" stroke-linecap="round" stroke-linejoin="round"/><path d="M24.472,468.756a3.719,3.719,0,1,1,5.663-4.783" transform="translate(-0.414 -454.272)" fill="none" stroke="#593873" stroke-linecap="round" stroke-linejoin="round" stroke-width="2"/><path d="M25.559,465.629a1.587,1.587,0,0,1,1.462-.969" transform="translate(-0.414 -454.272)" fill="none" stroke="#fff" stroke-linecap="round" stroke-linejoin="round" stroke-width="1.073" opacity="0.4"/><path d="M33.852,468.521a2.741,2.741,0,1,0,5.225,1.162" transform="translate(-0.414 -454.272)" fill="none" stroke="#593873" stroke-linecap="round" stroke-linejoin="round"/><path d="M44.5,481.188a3.417,3.417,0,1,1-5.662-3.484" transform="translate(-0.414 -454.272)" fill="none" stroke="#593873" stroke-linecap="round" stroke-linejoin="round" stroke-width="2"/><path d="M40.054,479.91a2.039,2.039,0,0,1,.557-1.033" transform="translate(-0.414 -454.272)" fill="none" stroke="#fff" stroke-linecap="round" stroke-linejoin="round" stroke-width="1.073" opacity="0.4"/><rect width="60" height="60" fill="none"/></svg>