<svg id="Layer_1" data-name="Layer 1" xmlns="http://www.w3.org/2000/svg" viewBox="0 0 60 60"><title>icons-scale</title><circle cx="30" cy="30" r="22.78" fill="#ffe2c0" stroke="#593873" stroke-linecap="round" stroke-linejoin="round" stroke-width="2"/><polyline points="27 30 33 30 30 11.164 27 30" fill="#cc5261" stroke="#52306c" stroke-linecap="round" stroke-linejoin="round"/><circle cx="30.25" cy="30.75" r="3.25" opacity="0.2"/><circle cx="30" cy="30" r="3" fill="#ef606e" stroke="#52306c" stroke-linecap="round" stroke-linejoin="round"/><line x1="39.627" y1="9.355" x2="37.835" y2="13.197" fill="#eaeaea" stroke="#593873" stroke-linecap="round" stroke-linejoin="round"/><line x1="47.45" y1="15.358" x2="44.038" y2="18.22" fill="#eaeaea" stroke="#593873" stroke-linecap="round" stroke-linejoin="round"/><line x1="52.003" y1="24.104" x2="47.871" y2="25.212" fill="#eaeaea" stroke="#593873" stroke-linecap="round" stroke-linejoin="round"/><line x1="20.373" y1="9.355" x2="22.06" y2="12.974" fill="#eaeaea" stroke="#593873" stroke-linecap="round" stroke-linejoin="round"/><line x1="12.55" y1="15.358" x2="15.674" y2="17.979" fill="#eaeaea" stroke="#593873" stroke-linecap="round" stroke-linejoin="round"/><line x1="7.997" y1="24.104" x2="11.883" y2="25.145" fill="#eaeaea" stroke="#593873" stroke-linecap="round" stroke-linejoin="round"/><line x1="20.373" y1="50.78" x2="22.165" y2="46.937" fill="#eaeaea" stroke="#593873" stroke-linecap="round" stroke-linejoin="round"/><line x1="12.55" y1="44.777" x2="15.962" y2="41.914" fill="#eaeaea" stroke="#593873" stroke-linecap="round" stroke-linejoin="round"/><line x1="7.997" y1="36.03" x2="12.129" y2="34.923" fill="#eaeaea" stroke="#593873" stroke-linecap="round" stroke-linejoin="round"/><line x1="39.627" y1="50.78" x2="37.94" y2="47.161" fill="#eaeaea" stroke="#593873" stroke-linecap="round" stroke-linejoin="round"/><line x1="47.45" y1="44.777" x2="44.326" y2="42.155" fill="#eaeaea" stroke="#593873" stroke-linecap="round" stroke-linejoin="round"/><line x1="52.003" y1="36.03" x2="48.117" y2="34.989" fill="#eaeaea" stroke="#593873" stroke-linecap="round" stroke-linejoin="round"/><line x1="30" y1="48.706" x2="30" y2="52.78" fill="#eaeaea" stroke="#593873" stroke-linecap="round" stroke-linejoin="round"/><path d="M30.414,561.919" transform="translate(-0.414 -531.919)" fill="#ef606e" stroke="#52306c" stroke-linecap="round" stroke-linejoin="round"/><circle cx="30" cy="30" r="0.458" fill="none" stroke="#52306c" stroke-linecap="round" stroke-linejoin="round"/><rect width="60" height="60" fill="none"/></svg>