<svg id="Layer_1" data-name="Layer 1" xmlns="http://www.w3.org/2000/svg" viewBox="0 0 60 60"><title>icons-smart-db</title><path d="M30.414,507.833c-12.157,0-20.629-3.6-20.629-6.835v-20.98H51.043V501C51.043,504.23,42.571,507.833,30.414,507.833Z" transform="translate(-0.414 -454.272)" fill="#eaeaea"/><path d="M50.043,481.018V501c0,2.323-7.829,5.835-19.629,5.835S10.785,503.321,10.785,501v-19.98H50.043m2-2H8.785V501c0,4.327,9.684,7.835,21.629,7.835S52.043,505.325,52.043,501v-21.98h0Z" transform="translate(-0.414 -454.272)" fill="#593873"/><ellipse cx="30" cy="24.746" rx="21.629" ry="7.835" fill="#d8d8d8"/><path d="M30.414,471.183c-7.83,0-14.688,1.507-18.484,3.765a4.944,4.944,0,0,0,3.313,4.57v0a2.27,2.27,0,0,0,.332.091,4.555,4.555,0,0,0,1.2.223,4.894,4.894,0,0,0,7.832-.179h11.62a4.894,4.894,0,0,0,7.831.179,4.585,4.585,0,0,0,1.2-.223,2.291,2.291,0,0,0,.333-0.091v0a4.943,4.943,0,0,0,3.312-4.57C45.1,472.69,38.244,471.183,30.414,471.183Z" transform="translate(-0.414 -454.272)" opacity="0.2"/><path d="M30.414,473.183c11.8,0,19.629,3.512,19.629,5.835s-7.829,5.835-19.629,5.835-19.629-3.512-19.629-5.835,7.829-5.835,19.629-5.835m0-2c-11.945,0-21.629,3.508-21.629,7.835s9.684,7.835,21.629,7.835,21.629-3.508,21.629-7.835-9.684-7.835-21.629-7.835h0Z" transform="translate(-0.414 -454.272)" fill="#593873"/><path d="M51.163,489.523c0,4.327-8.8,7.835-20.749,7.835s-20.749-3.508-20.749-7.835" transform="translate(-0.414 -454.272)" fill="none" stroke="#593873" stroke-linecap="round" stroke-linejoin="round"/><line x1="12.94" y1="43.453" x2="12.94" y2="46.474" fill="none" stroke="#593873" stroke-linecap="round" stroke-linejoin="round" stroke-width="2"/><line x1="15.98" y1="44.76" x2="15.98" y2="47.781" fill="none" stroke="#593873" stroke-linecap="round" stroke-linejoin="round" stroke-width="2"/><line x1="12.94" y1="32.888" x2="12.94" y2="35.908" fill="none" stroke="#593873" stroke-linecap="round" stroke-linejoin="round" stroke-width="2"/><line x1="15.98" y1="34.195" x2="15.98" y2="37.215" fill="none" stroke="#593873" stroke-linecap="round" stroke-linejoin="round" stroke-width="2"/><path d="M27.455,461.407a3.321,3.321,0,0,0-3.3,2.868,5.449,5.449,0,0,0-2.657-.711A5.479,5.479,0,0,0,16.8,471.9a3.112,3.112,0,0,0-.8,6.055,0.783,0.783,0,0,0,.151.03,3.063,3.063,0,0,0,.887.179,2.74,2.74,0,0,0,.8-0.161,3.1,3.1,0,0,0,5.809-.018h6.772v-14.4A3.124,3.124,0,0,0,27.455,461.407Z" transform="translate(-0.414 -454.272)" fill="#ff839e" stroke="#593873" stroke-linecap="round" stroke-linejoin="round" stroke-width="2"/><path d="M16.557,474.087a0.95,0.95,0,0,0-.544.859" transform="translate(-0.414 -454.272)" fill="none" stroke="#fff" stroke-linecap="round" stroke-linejoin="round" stroke-width="1.073" opacity="0.4"/><path d="M21,465.914a3.658,3.658,0,0,0-2.508,1.9" transform="translate(-0.414 -454.272)" fill="none" stroke="#fff" stroke-linecap="round" stroke-linejoin="round" stroke-width="1.073" opacity="0.4"/><path d="M33.373,461.407a3.321,3.321,0,0,1,3.3,2.868,5.449,5.449,0,0,1,2.657-.711,5.479,5.479,0,0,1,4.706,8.334,3.112,3.112,0,0,1,.8,6.055,0.783,0.783,0,0,1-.151.03,3.063,3.063,0,0,1-.887.179,2.74,2.74,0,0,1-.8-0.161,3.1,3.1,0,0,1-5.809-.018H30.414v-14.4A3.124,3.124,0,0,1,33.373,461.407Z" transform="translate(-0.414 -454.272)" fill="#ff839e" stroke="#593873" stroke-linecap="round" stroke-linejoin="round" stroke-width="2"/><path d="M32.737,463.516a0.807,0.807,0,0,1,.509-0.18" transform="translate(-0.414 -454.272)" fill="none" stroke="#fff" stroke-linecap="round" stroke-linejoin="round" stroke-width="1.073" opacity="0.4"/><path d="M20.428,470.454a2.414,2.414,0,1,1,1.023,4.6" transform="translate(-0.414 -454.272)" fill="none" stroke="#593873" stroke-linecap="round" stroke-linejoin="round"/><path d="M25.182,467a3.275,3.275,0,1,1,4.986-4.211" transform="translate(-0.414 -454.272)" fill="none" stroke="#593873" stroke-linecap="round" stroke-linejoin="round" stroke-width="2"/><path d="M26.14,464.244a1.4,1.4,0,0,1,1.287-.853" transform="translate(-0.414 -454.272)" fill="none" stroke="#fff" stroke-linecap="round" stroke-linejoin="round" stroke-width="1.073" opacity="0.4"/><path d="M33.441,466.79a2.414,2.414,0,1,0,4.6,1.023" transform="translate(-0.414 -454.272)" fill="none" stroke="#593873" stroke-linecap="round" stroke-linejoin="round"/><path d="M42.813,477.943a3.009,3.009,0,1,1-4.986-3.067" transform="translate(-0.414 -454.272)" fill="none" stroke="#593873" stroke-linecap="round" stroke-linejoin="round" stroke-width="2"/><path d="M38.9,476.817a1.8,1.8,0,0,1,.49-0.909" transform="translate(-0.414 -454.272)" fill="none" stroke="#fff" stroke-linecap="round" stroke-linejoin="round" stroke-width="1.073" opacity="0.4"/><rect width="60" height="60" fill="none"/></svg>