<svg id="Layer_1" data-name="Layer 1" xmlns="http://www.w3.org/2000/svg" viewBox="0 0 60 60"><title>icons-instant</title><path d="M120.255,633.414h-8.489a0.484,0.484,0,0,1-.482-0.6l3.567-13.542a0.484,0.484,0,0,0-.482-0.6H97.21a0.494,0.494,0,0,0-.482.362l-6.712,25.481a0.484,0.484,0,0,0,.482.6h9.485a0.485,0.485,0,0,1,.487.575l-3.936,18.737a0.5,0.5,0,0,0,.889.378l23.233-30.63A0.479,0.479,0,0,0,120.255,633.414Z" transform="translate(-73.333 -609.29)" opacity="0.15"/><polygon points="45.013 23.268 36.141 23.268 39.549 9.858 23.587 9.858 17.474 33.916 26.894 33.916 22.939 53.439 45.013 23.268" fill="#f4c27a" stroke="#52306c" stroke-linecap="round" stroke-linejoin="round" stroke-width="2"/><path d="M106.929,622.556h-6.285a1.136,1.136,0,0,0-1.1.856l-1.112,4.377" transform="translate(-73.333 -609.29)" fill="none" stroke="#fff" stroke-linecap="round" stroke-linejoin="round" opacity="0.6"/><rect width="60" height="60" fill="none"/></svg>