<svg id="Layer_1" data-name="Layer 1" xmlns="http://www.w3.org/2000/svg" viewBox="0 0 18 18"><title>icons-designer</title><line x1="11.215" y1="1.732" x2="16.612" y2="7.129" fill="none" stroke="#000" stroke-linejoin="round" stroke-width="0.5"/><line x1="10.212" y1="2.735" x2="15.608" y2="8.132" fill="none" stroke="#000" stroke-linejoin="round" stroke-width="0.5"/><path d="M40.762,1.344a1.987,1.987,0,0,1,1.414.586l1.154,1.154a2,2,0,0,1,0,2.828L33.473,15.77,28.261,17l1.229-5.212L39.348,1.93a1.987,1.987,0,0,1,1.414-.586m0-1a2.991,2.991,0,0,0-2.121.879L28.783,11.08a1,1,0,0,0-.266.478L27.288,16.77A1,1,0,0,0,28.257,18a1.017,1.017,0,0,0,.234-0.028L33.7,16.743a1,1,0,0,0,.478-0.266l9.858-9.858a3,3,0,0,0,0-4.243L42.884,1.222A2.991,2.991,0,0,0,40.762.344h0Z" transform="translate(-26.917 0)"/><rect x="34.057" y="8.265" width="2.062" height="3.812" rx="1.03" ry="1.03" transform="translate(-9.447 -21.832) rotate(45)"/><polyline points="6.327 16.244 5.885 14.701 4.213 14.13 3.643 12.459 2.1 12.017" fill="none" stroke="#000" stroke-linecap="round" stroke-linejoin="round" stroke-width="0.783"/><rect width="18" height="18" fill="none"/></svg>