<svg id="Layer_1" data-name="Layer 1" xmlns="http://www.w3.org/2000/svg" viewBox="0 0 60 60"><title>icons-connect</title><line x1="5" y1="55" x2="14.234" y2="45.766" fill="#ef606e" stroke="#52306c" stroke-linecap="round" stroke-miterlimit="10" stroke-width="2"/><line x1="34.161" y1="30.757" x2="37.439" y2="27.478" fill="#ffe2c0" stroke="#593873" stroke-linecap="round" stroke-miterlimit="10" stroke-width="2"/><line x1="29.243" y1="25.839" x2="32.522" y2="22.561" fill="#ffe2c0" stroke="#593873" stroke-linecap="round" stroke-miterlimit="10" stroke-width="2"/><path d="M159.6,637.21l-6.763,6.763c-1.981,1.981-1.917,5.481-.171,8.959-0.039.033-.088,0.052-0.124,0.089-1.275,1.275-.579,4.038,1.554,6.171s4.9,2.829,6.171,1.554c0.036-.036.055-0.086,0.089-0.124,3.478,1.746,6.978,1.81,8.959-.171l6.763-6.763Z" transform="translate(-144 -609.29)" fill="#cc5261" stroke="#52306c" stroke-miterlimit="10" stroke-width="2"/><path d="M195.6,621.36a8.445,8.445,0,0,0-3.666-3.666c-4.19-3.144-8.98-3.832-11.436-1.376l-5.288,5.288c-2.851,2.851-1.474,8.852,3.076,13.4s10.551,5.927,13.4,3.076l5.288-5.288C199.428,630.34,198.74,625.549,195.6,621.36Z" transform="translate(-144 -609.29)" fill="#ef606e" stroke="#52306c" stroke-linecap="round" stroke-miterlimit="10" stroke-width="2"/><path d="M178.684,618.128c-2.851,2.851-1.474,8.852,3.076,13.4s10.551,5.927,13.4,3.076" transform="translate(-144 -609.29)" fill="none" stroke="#52306c" stroke-linecap="round" stroke-miterlimit="10"/><ellipse cx="191.743" cy="621.547" rx="3.265" ry="5.463" transform="translate(-527.339 -291.66) rotate(-45)" fill="#f4647a" stroke="#52306c" stroke-linecap="round" stroke-miterlimit="10"/><line x1="48.717" y1="11.283" x2="55" y2="5" fill="#ef606e" stroke="#52306c" stroke-linecap="round" stroke-miterlimit="10" stroke-width="2"/><ellipse cx="167.841" cy="645.449" rx="7.302" ry="11.652" transform="translate(-551.242 -301.561) rotate(-45)" fill="#ef606e" stroke="#52306c" stroke-miterlimit="10" stroke-width="2"/><path d="M172.6,657.165c-2.851,2.851-8.156.779-12.707-3.771s-6.623-9.855-3.771-12.707" transform="translate(-144 -609.29)" fill="none" stroke="#52306c" stroke-miterlimit="10"/><line x1="23.021" y1="32.062" x2="19.743" y2="35.34" fill="#ffe2c0" stroke="#593873" stroke-linecap="round" stroke-miterlimit="10" stroke-width="2"/><line x1="27.938" y1="36.979" x2="24.66" y2="40.257" fill="#ffe2c0" stroke="#593873" stroke-linecap="round" stroke-miterlimit="10" stroke-width="2"/><rect width="60" height="60" fill="none"/></svg>