<svg id="Layer_1" data-name="Layer 1" xmlns="http://www.w3.org/2000/svg" viewBox="0 0 60 60"><title>icons-visibility</title><path d="M183.9,541.919H156.244A2.244,2.244,0,0,0,154,544.163v27.656a2.244,2.244,0,0,0,2.244,2.244H183.9a2.244,2.244,0,0,0,2.244-2.244V544.163A2.244,2.244,0,0,0,183.9,541.919Zm-13.828,24.489a8.417,8.417,0,1,1,8.417-8.417A8.417,8.417,0,0,1,170.072,566.408Z" transform="translate(-144 -531.919)" fill="#20c2ef" stroke="#52306c" stroke-miterlimit="10" stroke-width="2"/><path d="M187.828,545.846H160.172a2.244,2.244,0,0,0-2.244,2.244v27.656a2.244,2.244,0,0,0,2.244,2.244h27.656a2.244,2.244,0,0,0,2.244-2.244V548.091A2.244,2.244,0,0,0,187.828,545.846ZM174,570.335a8.417,8.417,0,1,1,8.417-8.417A8.417,8.417,0,0,1,174,570.335Z" transform="translate(-144 -531.919)" fill="#77d7ed" stroke="#52306c" stroke-miterlimit="10" stroke-width="2"/><path d="M191.756,549.774H164.1a2.244,2.244,0,0,0-2.244,2.244v27.656a2.244,2.244,0,0,0,2.244,2.244h27.656A2.244,2.244,0,0,0,194,579.674V552.019A2.244,2.244,0,0,0,191.756,549.774Zm-13.828,24.489a8.417,8.417,0,1,1,8.417-8.417A8.417,8.417,0,0,1,177.928,574.263Z" transform="translate(-144 -531.919)" fill="#cae6ed" stroke="#52306c" stroke-miterlimit="10" stroke-width="2"/><rect width="60" height="60" fill="none"/></svg>