<svg id="Layer_1" data-name="Layer 1" xmlns="http://www.w3.org/2000/svg" xmlns:xlink="http://www.w3.org/1999/xlink" viewBox="0 0 60 60"><defs><clipPath id="clip-path" transform="translate(-0.414 -609.29)"><circle cx="27.895" cy="636.77" r="13.136" fill="none"/></clipPath></defs><title>icons-identify</title><path d="M53.873,657.806l-7.533-7.533a1.741,1.741,0,0,0-2.169-.234l-2.788-2.788a7.415,7.415,0,0,1-3.022,2.991l2.8,2.8a1.741,1.741,0,0,0,.234,2.169l7.533,7.533a1.741,1.741,0,0,0,2.463,0l2.48-2.48A1.741,1.741,0,0,0,53.873,657.806Z" transform="translate(-0.414 -609.29)" fill="#ccb29e" stroke="#52306c" stroke-linecap="round" stroke-linejoin="round" stroke-width="2"/><path d="M27.895,618.321A18.449,18.449,0,1,0,46.344,636.77,18.449,18.449,0,0,0,27.895,618.321Zm0,31.585A13.136,13.136,0,1,1,41.03,636.77,13.136,13.136,0,0,1,27.895,649.906Z" transform="translate(-0.414 -609.29)" fill="#ffe2c0" stroke="#593873" stroke-linecap="round" stroke-linejoin="round" stroke-width="2"/><circle cx="27.48" cy="27.48" r="13.136" fill="#cae6ed" stroke="#52306c" stroke-miterlimit="10" stroke-width="2"/><path d="M19.331,632.632a11.62,11.62,0,0,1,6.977-5.483" transform="translate(-0.414 -609.29)" fill="none" stroke="#fff" stroke-linecap="round" stroke-linejoin="round" opacity="0.9"/><g clip-path="url(#clip-path)"><g opacity="0.2"><g opacity="0.5"><path d="M37.366,642.98l1.791-.52,0.035-2.4a6.278,6.278,0,0,0,1.286-1.028l2.188,0.466a7.042,7.042,0,0,0,.953-1.733l-1.566-1.6a6.278,6.278,0,0,0,.179-1.636l2.007-1.315-0.52-1.791-2.4-.035a6.268,6.268,0,0,0-1.028-1.284l0.466-2.19a7.039,7.039,0,0,0-1.733-.953l-1.6,1.567a6.243,6.243,0,0,0-1.637-.18l-1.315-2.007-1.791.52-0.035,2.4a6.238,6.238,0,0,0-1.285,1.029l-2.189-.467a7.045,7.045,0,0,0-.953,1.733l1.566,1.6a6.278,6.278,0,0,0-.179,1.636L27.6,636.108l0.52,1.791,2.4,0.035a6.269,6.269,0,0,0,1.029,1.286l-0.467,2.188a7.056,7.056,0,0,0,1.733.953l1.6-1.566a6.274,6.274,0,0,0,1.636.179Zm-3.685-7.668a2.331,2.331,0,1,1,2.889,1.588A2.331,2.331,0,0,1,33.682,635.312Z" transform="translate(-0.414 -609.29)"/></g><g opacity="0.5"><path d="M33.2,653.4l1.128-.328,0.022-1.512a3.956,3.956,0,0,0,.81-0.648l1.379,0.294a4.438,4.438,0,0,0,.6-1.092l-0.987-1.007a3.956,3.956,0,0,0,.113-1.031l1.265-.829L37.2,646.118l-1.512-.022a3.95,3.95,0,0,0-.648-0.809l0.293-1.38a4.436,4.436,0,0,0-1.092-.6l-1.006.987a3.934,3.934,0,0,0-1.032-.113l-0.829-1.265-1.128.328-0.022,1.512a3.931,3.931,0,0,0-.81.648l-1.379-.294a4.439,4.439,0,0,0-.6,1.092l0.987,1.007a3.956,3.956,0,0,0-.113,1.031l-1.265.829,0.328,1.128,1.512,0.022a3.95,3.95,0,0,0,.649.81l-0.294,1.379a4.447,4.447,0,0,0,1.092.6l1.007-.987a3.954,3.954,0,0,0,1.031.113Zm-2.322-4.832a1.469,1.469,0,1,1,1.821,1A1.469,1.469,0,0,1,30.873,648.568Z" transform="translate(-0.414 -609.29)"/></g><g opacity="0.5"><path d="M25.475,646.532L26.6,646.2l0.022-1.512a3.956,3.956,0,0,0,.81-0.648l1.379,0.294a4.438,4.438,0,0,0,.6-1.092l-0.987-1.007a3.956,3.956,0,0,0,.113-1.031l1.265-.829-0.328-1.128-1.512-.022a3.95,3.95,0,0,0-.648-0.809l0.293-1.38a4.436,4.436,0,0,0-1.092-.6l-1.006.987a3.934,3.934,0,0,0-1.032-.113l-0.829-1.265-1.128.328L22.5,637.887a3.931,3.931,0,0,0-.81.648l-1.379-.294a4.439,4.439,0,0,0-.6,1.092l0.987,1.007a3.956,3.956,0,0,0-.113,1.031l-1.265.829,0.328,1.128,1.512,0.022a3.95,3.95,0,0,0,.649.81l-0.294,1.379a4.447,4.447,0,0,0,1.092.6l1.007-.987a3.954,3.954,0,0,0,1.031.113ZM23.153,641.7a1.469,1.469,0,1,1,1.821,1A1.469,1.469,0,0,1,23.153,641.7Z" transform="translate(-0.414 -609.29)"/></g></g></g><rect width="60" height="60" fill="none"/><line x1="42.51" y1="47.452" x2="47.452" y2="42.51" fill="#eaeaea" stroke="#593873" stroke-linecap="round" stroke-linejoin="round"/><line x1="44.51" y1="49.452" x2="49.452" y2="44.51" fill="#eaeaea" stroke="#593873" stroke-linecap="round" stroke-linejoin="round"/><line x1="46.51" y1="51.452" x2="51.452" y2="46.51" fill="#eaeaea" stroke="#593873" stroke-linecap="round" stroke-linejoin="round"/></svg>